<svg id="Layer_1" data-name="Layer 1" xmlns="http://www.w3.org/2000/svg" viewBox="0 0 1920 1080"><defs><style>.cls-1,.cls-3{fill:#fff;}.cls-2{fill:none;}.cls-2,.cls-3,.cls-4{stroke:#000;}.cls-2,.cls-3{stroke-linecap:round;stroke-linejoin:round;}.cls-4{fill:#f8b82e;stroke-miterlimit:10;}.cls-5{fill:#383838;}</style></defs><rect class="cls-1" width="1920" height="1080"/><polygon class="cls-2" points="795.7 386.26 752.77 397.68 755.52 407.83 798.24 396.41 795.7 386.26"/><polygon class="cls-2" points="756.78 413.54 759.53 423.69 802.26 412.27 799.72 402.12 756.78 413.54"/><polyline class="cls-2" points="762.5 591.65 762.5 606.63 792.53 606.63 792.53 455.41 762.5 455.41 762.5 569.8"/><rect class="cls-2" x="1141.67" y="422.85" width="24.32" height="24.11"/><rect class="cls-2" x="1159.65" y="455.41" width="24.32" height="24.11"/><path class="cls-2" d="M1204.27,516.54v65.14h-23a11.28,11.28,0,0,1-8.67-3.39q-3.18-3.39-3.17-11.42V521h-30v46.74q0,8-3.8,11.42t-11.63,3.38q-7.83,0-12.59-3.38t-4.76-11.42V525h-30v41.87q0,8-3.17,11.42a11.31,11.31,0,0,1-8.67,3.39h-18.18a32.23,32.23,0,0,1-7.71-1,20.78,20.78,0,0,1-7.09-3.17,18.71,18.71,0,0,1-5.29-5.71,17.79,17.79,0,0,1-2.32-8.57v-3.38q0-26-13.12-39.76t-42.51-13.74H934.85l50.12-51H953l-50.76,51v23.47h66.41q12.25,0,18.82,7.61T994.07,562v19.67H888.33a50.59,50.59,0,0,1-7.83-.64,20.71,20.71,0,0,1-7.29-2.54,14.63,14.63,0,0,1-5.29-5.28,17.29,17.29,0,0,1-2-8.89V516.54H835.67v86.71q0,15.86-3.6,23.58t-12.69,7.72a37.61,37.61,0,0,1-6.55-.53,14.25,14.25,0,0,1-5.5-2.22v21.78a40.34,40.34,0,0,0,9,2.54,58.9,58.9,0,0,0,9.83.85q11.42,0,19-3.92a31,31,0,0,0,12.17-11,49.46,49.46,0,0,0,6.55-16.92,109.71,109.71,0,0,0,2-21.89v-9.94h.85a17.27,17.27,0,0,0,3.59,5.6,22.36,22.36,0,0,0,5.4,4.13,30.92,30.92,0,0,0,6.34,2.64,22.54,22.54,0,0,0,6.24,1h130.48a24.5,24.5,0,0,0,3.38-7,56.75,56.75,0,0,0,1.7-6.34h.84a16.63,16.63,0,0,0,3.7,5.6,24.61,24.61,0,0,0,5.5,4.13,31.24,31.24,0,0,0,6.35,2.64,22.48,22.48,0,0,0,6.23,1h34a19.53,19.53,0,0,0,7.72-1.58,29.56,29.56,0,0,0,6.55-3.81,28.19,28.19,0,0,0,4.66-4.44,8.78,8.78,0,0,0,2-3.49h.84q2.33,6.13,10.26,10t19.35,3.92q11.85,0,19.67-3.39a28.85,28.85,0,0,0,12.69-10.57h.85a16.48,16.48,0,0,0,3.7,5.6,24.38,24.38,0,0,0,5.5,4.13,31.15,31.15,0,0,0,6.34,2.64,22.54,22.54,0,0,0,6.24,1h47.59V516.54Z"/><rect class="cls-2" x="1123.69" y="455.41" width="24.11" height="24.11"/><polyline class="cls-3" points="1075.43 646.29 1075.43 628.61 1058.32 628.61 1058.32 646.29"/><path class="cls-2" d="M785.51,571.08a6.23,6.23,0,0,1-2.54-.48,8.08,8.08,0,0,1-1.36-.8,14.85,14.85,0,0,0-2.21-1.46,8.34,8.34,0,0,0-6.54-.14,8.55,8.55,0,0,0-1.61.95,15.58,15.58,0,0,1-2,1.33,6,6,0,0,1-2.78.6,6.25,6.25,0,0,1-2.55-.48,8.08,8.08,0,0,1-1.36-.8,14.85,14.85,0,0,0-2.21-1.46,8.34,8.34,0,0,0-6.54-.14,8.55,8.55,0,0,0-1.61.95,15.58,15.58,0,0,1-2,1.33,6,6,0,0,1-2.78.6,6.23,6.23,0,0,1-2.54-.48,8.08,8.08,0,0,1-1.36-.8,15.4,15.4,0,0,0-2.21-1.46,8.34,8.34,0,0,0-6.54-.14,8.55,8.55,0,0,0-1.61.95,15.58,15.58,0,0,1-2,1.33,6,6,0,0,1-2.78.6,6.16,6.16,0,0,1-2.54-.48,7.36,7.36,0,0,1-1.36-.8,16,16,0,0,0-2.21-1.46,8.34,8.34,0,0,0-6.54-.14,8.33,8.33,0,0,0-1.62.95,14.84,14.84,0,0,1-2,1.33,6,6,0,0,1-2.79.6,6.23,6.23,0,0,1-2.54-.48,8.08,8.08,0,0,1-1.36-.8"/><path class="cls-2" d="M785.51,577.93a6.06,6.06,0,0,1-2.54-.49,7.46,7.46,0,0,1-1.36-.8,15.68,15.68,0,0,0-2.21-1.45,8.23,8.23,0,0,0-6.54-.14,9.1,9.1,0,0,0-1.61.94,14.7,14.7,0,0,1-2,1.34,6.81,6.81,0,0,1-5.33.11,7.46,7.46,0,0,1-1.36-.8,15.68,15.68,0,0,0-2.21-1.45,7.47,7.47,0,0,0-3.42-.75,7.56,7.56,0,0,0-3.12.61,9.1,9.1,0,0,0-1.61.94,14.7,14.7,0,0,1-2,1.34,6.78,6.78,0,0,1-5.32.11,7.46,7.46,0,0,1-1.36-.8,16.28,16.28,0,0,0-2.21-1.45,8.23,8.23,0,0,0-6.54-.14,9.1,9.1,0,0,0-1.61.94,14.7,14.7,0,0,1-2,1.34,6.07,6.07,0,0,1-2.78.6,6,6,0,0,1-2.54-.49,6.84,6.84,0,0,1-1.36-.8,16.93,16.93,0,0,0-2.21-1.45,8.23,8.23,0,0,0-6.54-.14,8.85,8.85,0,0,0-1.62.94,14,14,0,0,1-2,1.34,6.81,6.81,0,0,1-5.33.11,7.46,7.46,0,0,1-1.36-.8"/><path class="cls-2" d="M785.51,585.08a6.07,6.07,0,0,1-2.54-.48,8.08,8.08,0,0,1-1.36-.8,15.68,15.68,0,0,0-2.21-1.45,7.34,7.34,0,0,0-3.42-.75,7.7,7.7,0,0,0-3.12.6,9.77,9.77,0,0,0-1.61.95,15.68,15.68,0,0,1-2,1.34,6,6,0,0,1-2.78.59,6.09,6.09,0,0,1-2.55-.48,8.08,8.08,0,0,1-1.36-.8,15.68,15.68,0,0,0-2.21-1.45,7.34,7.34,0,0,0-3.42-.75,7.73,7.73,0,0,0-3.12.6,9.77,9.77,0,0,0-1.61.95,15.68,15.68,0,0,1-2,1.34,6,6,0,0,1-2.78.59,6.07,6.07,0,0,1-2.54-.48,8.08,8.08,0,0,1-1.36-.8,16.28,16.28,0,0,0-2.21-1.45,7.37,7.37,0,0,0-3.42-.75,7.7,7.7,0,0,0-3.12.6,9.77,9.77,0,0,0-1.61.95,15.68,15.68,0,0,1-2,1.34,6.9,6.9,0,0,1-5.32.11,7.36,7.36,0,0,1-1.36-.8,16.93,16.93,0,0,0-2.21-1.45,7.42,7.42,0,0,0-3.43-.75,7.68,7.68,0,0,0-3.11.6,9.48,9.48,0,0,0-1.62.95,14.94,14.94,0,0,1-2,1.34,6,6,0,0,1-2.79.59,6.07,6.07,0,0,1-2.54-.48,8.08,8.08,0,0,1-1.36-.8"/><path class="cls-2" d="M785.51,592.94a6.06,6.06,0,0,1-2.54-.49,7.46,7.46,0,0,1-1.36-.8,15.68,15.68,0,0,0-2.21-1.45,8.23,8.23,0,0,0-6.54-.14,9.1,9.1,0,0,0-1.61.94,14.7,14.7,0,0,1-2,1.34,6,6,0,0,1-2.78.6,6.07,6.07,0,0,1-2.55-.49,7.46,7.46,0,0,1-1.36-.8,15.68,15.68,0,0,0-2.21-1.45,7.47,7.47,0,0,0-3.42-.75,7.56,7.56,0,0,0-3.12.61,9.1,9.1,0,0,0-1.61.94,14.7,14.7,0,0,1-2,1.34,6,6,0,0,1-2.78.6,6.06,6.06,0,0,1-2.54-.49,7.46,7.46,0,0,1-1.36-.8,16.28,16.28,0,0,0-2.21-1.45,8.23,8.23,0,0,0-6.54-.14,9.1,9.1,0,0,0-1.61.94,14.7,14.7,0,0,1-2,1.34,6.78,6.78,0,0,1-5.32.11,6.84,6.84,0,0,1-1.36-.8,16.93,16.93,0,0,0-2.21-1.45,8.23,8.23,0,0,0-6.54-.14,8.85,8.85,0,0,0-1.62.94,14,14,0,0,1-2,1.34,6,6,0,0,1-2.79.6,6.06,6.06,0,0,1-2.54-.49,7.46,7.46,0,0,1-1.36-.8"/><polygon class="cls-1" points="1058.32 514.62 1051.38 539.44 1034.22 609.93 1100.75 607.25 1089.02 559.05 1073.64 518.88 1058.32 514.62"/><polygon class="cls-4" points="1043.63 571.81 1091.6 571.81 1098.49 598.23 1037.23 598.23 1043.63 571.81"/><line class="cls-3" x1="1083.05" y1="534.52" x2="1110.32" y2="646.54"/><line class="cls-3" x1="1043.63" y1="571.81" x2="1092.08" y2="571.81"/><line class="cls-3" x1="1037.23" y1="598.22" x2="1098.49" y2="598.22"/><path class="cls-3" d="M1058.32,629.74v-.61a8.56,8.56,0,1,1,17.11,0V630"/><path class="cls-3" d="M1053.73,527.33V515.11a14.38,14.38,0,1,1,28.75,0v12.33"/><circle class="cls-3" cx="1068.1" cy="514.62" r="5.54"/><line class="cls-3" x1="1052.58" y1="534.52" x2="1025.31" y2="646.54"/><line class="cls-3" x1="1066.63" y1="628.93" x2="1066.63" y2="646.29"/><line class="cls-3" x1="1003.73" y1="646.68" x2="1131.89" y2="646.68"/><line class="cls-3" x1="1066.97" y1="637.61" x2="1069.26" y2="637.61"/><path class="cls-3" d="M1061.06,534.22h-11.24a2.32,2.32,0,0,1-2.34-2.29v-2.07a2.31,2.31,0,0,1,2.34-2.28h23.6"/><path class="cls-3" d="M1076.4,534.22h10.27a2.32,2.32,0,0,0,2.35-2.29v-2.07a2.31,2.31,0,0,0-2.35-2.28h-18.35"/><path class="cls-5" d="M133.1,852.33a13.68,13.68,0,0,1-10.21,4.16,16,16,0,0,1-6.37-1.2,11.82,11.82,0,0,1-4.51-3.24,14.35,14.35,0,0,1-2.58-4.57,17,17,0,0,1,0-10.79,15.07,15.07,0,0,1,2.6-4.69,11.81,11.81,0,0,1,4.53-3.34,15.42,15.42,0,0,1,6.31-1.24,13.35,13.35,0,0,1,9.94,4.24l-2.92,2.88a9.46,9.46,0,0,0-7-2.88q-4.86,0-7.46,3.09a10.81,10.81,0,0,0-2.56,7.33,10.92,10.92,0,0,0,2.56,7.22q2.52,3,7.46,3a10.21,10.21,0,0,0,3.88-.8,9.8,9.8,0,0,0,3.34-2.25Z"/><path class="cls-5" d="M152.65,838.73a11.17,11.17,0,0,1,0,14.7,9.42,9.42,0,0,1-7.2,2.9,9.32,9.32,0,0,1-7.15-2.9,11.29,11.29,0,0,1,0-14.72,10.18,10.18,0,0,1,14.29,0Zm-11.42,2.74a6.87,6.87,0,0,0-1.61,4.61,6.71,6.71,0,0,0,1.6,4.57,5.34,5.34,0,0,0,4.27,1.84,5.43,5.43,0,0,0,4.29-1.84,7.22,7.22,0,0,0-.06-9.16,5.71,5.71,0,0,0-8.49,0Z"/><path class="cls-5" d="M159.66,865.11V836.19h3.77l.23,3.2a7.1,7.1,0,0,1,2.9-2.66,8.3,8.3,0,0,1,3.86-.94,9.22,9.22,0,0,1,7,2.92,10.35,10.35,0,0,1,2.7,7.37,10.54,10.54,0,0,1-2.64,7.41,9.09,9.09,0,0,1-7,2.88,9.5,9.5,0,0,1-3.86-.82,6.08,6.08,0,0,1-2.9-2.5v12.06Zm14.72-14.5a6.25,6.25,0,0,0,1.71-4.53,6.33,6.33,0,0,0-1.67-4.55,5.81,5.81,0,0,0-4.39-1.74,5.65,5.65,0,0,0-4.37,1.8,6.42,6.42,0,0,0-1.65,4.49,6.29,6.29,0,0,0,1.71,4.49,5.7,5.7,0,0,0,4.31,1.8A5.82,5.82,0,0,0,174.38,850.61Z"/><path class="cls-5" d="M202.69,836.19l-12.08,28.92h-4.42l4-9.46-7.65-19.46h4.66l3.3,9.33,1.9,5.61,2.06-5.53,3.8-9.41Z"/><path class="cls-5" d="M209.76,836.19l.27,2.6a5.89,5.89,0,0,1,5.63-3,6.73,6.73,0,0,1,4.74,1.68l-1.83,3.6a5.08,5.08,0,0,0-3.37-1.2,5.15,5.15,0,0,0-3.69,1.4,5.25,5.25,0,0,0-1.48,4v10.69h-4V836.19Z"/><path class="cls-5" d="M223.89,828.14a2.56,2.56,0,0,1,2.49,0,2.29,2.29,0,0,1,1.24,2.24,2.34,2.34,0,0,1-1.24,2.26,2.51,2.51,0,0,1-2.49,0,2.36,2.36,0,0,1-1.24-2.26A2.31,2.31,0,0,1,223.89,828.14Zm-.77,8v19.82h4V836.11Z"/><path class="cls-5" d="M249,834.3l2.91,2.33-2.29,2.76a9.4,9.4,0,0,1,2.33,6.13,8.56,8.56,0,0,1-1.28,4.69,7.73,7.73,0,0,1-3.81,3q5.06,1.75,5.05,6.45a6.81,6.81,0,0,1-3.05,5.93,12.31,12.31,0,0,1-7.2,2.12,11.15,11.15,0,0,1-7.48-2.34,7.76,7.76,0,0,1-2.62-6.43h4a3.83,3.83,0,0,0,1.73,3.46,7.62,7.62,0,0,0,4.37,1.3,8.42,8.42,0,0,0,4.27-1,3.27,3.27,0,0,0,1.83-3,3.62,3.62,0,0,0-1.65-3.17,7.71,7.71,0,0,0-4.37-1.12,10.63,10.63,0,0,1-7.54-2.64,9.38,9.38,0,0,1-2.83-7.21,9.1,9.1,0,0,1,3.07-7.31,10.85,10.85,0,0,1,7.3-2.62,8.78,8.78,0,0,1,5.16,1.36ZM237.27,841a6.42,6.42,0,0,0,0,9,6.63,6.63,0,0,0,4.53,1.6,6.15,6.15,0,0,0,4.44-1.7,6.32,6.32,0,0,0,0-8.8,6.36,6.36,0,0,0-4.41-1.64A6.69,6.69,0,0,0,237.27,841Z"/><path class="cls-5" d="M260.4,827.9v11.21a7.9,7.9,0,0,1,12.12-.7,10.8,10.8,0,0,1,2,6.87v10.65h-4V845.32a6,6,0,0,0-1.29-4.15,4.53,4.53,0,0,0-3.53-1.42,4.84,4.84,0,0,0-3.79,1.7,6.16,6.16,0,0,0-1.49,4.19v10.29h-4v-28Z"/><path class="cls-5" d="M285.84,830.5v5.73h5.59v3.56H285.8v9.41c0,2.17.92,3.25,2.75,3.25a5.45,5.45,0,0,0,2.45-.68l1.17,3.52a9.24,9.24,0,0,1-3.85.88,6.06,6.06,0,0,1-4.83-1.7,7.37,7.37,0,0,1-1.69-5.27v-9.41h-3.69v-3.56h3.69v-5.29Z"/><path class="cls-5" d="M324.59,847.84V827.9h4.35v28h-3.3l-15.42-19.78v19.78h-4.38v-28h3.34Z"/><path class="cls-5" d="M350.9,838.73a11.17,11.17,0,0,1,0,14.7,10.33,10.33,0,0,1-14.35,0,11.29,11.29,0,0,1,0-14.72,10.18,10.18,0,0,1,14.29,0Zm-11.41,2.74a6.83,6.83,0,0,0-1.62,4.61,6.71,6.71,0,0,0,1.6,4.57,5.34,5.34,0,0,0,4.27,1.84,5.43,5.43,0,0,0,4.29-1.84,7.22,7.22,0,0,0-.06-9.16,5.4,5.4,0,0,0-4.23-1.9A5.33,5.33,0,0,0,339.49,841.47Z"/><path class="cls-5" d="M364.09,830.5v5.73h5.59v3.56h-5.63v9.41q0,3.25,2.76,3.25a5.41,5.41,0,0,0,2.44-.68l1.17,3.52a9.24,9.24,0,0,1-3.85.88,6.08,6.08,0,0,1-4.83-1.7,7.37,7.37,0,0,1-1.69-5.27v-9.41h-3.69v-3.56h3.69v-5.29Z"/><path class="cls-5" d="M374.5,828.14a2.55,2.55,0,0,1,2.48,0,2.29,2.29,0,0,1,1.24,2.24,2.34,2.34,0,0,1-1.24,2.26,2.49,2.49,0,0,1-2.48,0,2.35,2.35,0,0,1-1.25-2.26A2.3,2.3,0,0,1,374.5,828.14Zm-.78,8v19.82h4V836.11Z"/><path class="cls-5" d="M399.35,853.37a9.8,9.8,0,0,1-7.26,3.08,10.09,10.09,0,0,1-7.23-2.72c-1.91-1.81-2.87-4.37-2.87-7.65a9.62,9.62,0,0,1,10.1-10.37,9.34,9.34,0,0,1,6.91,2.92l-2.56,2.76a6.23,6.23,0,0,0-8.7,0,6.38,6.38,0,0,0-1.75,4.67,6.19,6.19,0,0,0,1.75,4.69,6.5,6.5,0,0,0,8.89-.16Z"/><path class="cls-5" d="M405.91,847.6a5.29,5.29,0,0,0,2,3.61,6.62,6.62,0,0,0,4.29,1.36,8.92,8.92,0,0,0,3.13-.58,6,6,0,0,0,2.43-1.54l2.6,2.6a9.43,9.43,0,0,1-3.67,2.48,12.28,12.28,0,0,1-4.56.88,10.09,10.09,0,0,1-7.52-2.84,10.37,10.37,0,0,1-2.81-7.61,10.21,10.21,0,0,1,2.79-7.41,9.69,9.69,0,0,1,7.26-2.88,9.47,9.47,0,0,1,7.5,3q2.69,3,2.14,8.89Zm11.69-3.48a4.73,4.73,0,0,0-1.69-3.53,6.81,6.81,0,0,0-7.84,0,5.7,5.7,0,0,0-2.08,3.53Z"/><path class="cls-5" d="M426.55,839.79a2.49,2.49,0,0,1,2.45,0,2.33,2.33,0,0,1,1.22,2.25,2.29,2.29,0,0,1-1.22,2.2,2.49,2.49,0,0,1-2.45,0,2.29,2.29,0,0,1-1.22-2.2A2.33,2.33,0,0,1,426.55,839.79Zm0,11.74a2.49,2.49,0,0,1,2.45,0,2.59,2.59,0,0,1,0,4.4,2.49,2.49,0,0,1-2.45,0,2.59,2.59,0,0,1,0-4.4Z"/><path d="M131.91,687a3.17,3.17,0,0,1-2.22-.89,25.85,25.85,0,0,1,0-37.22L144,635a19.09,19.09,0,0,1,13.41-5.42h43.13a7.8,7.8,0,0,1,7.88,7.69v6.55a7.79,7.79,0,0,1-7.88,7.68H151.42a3.06,3.06,0,1,1,0-6.11h49.11a1.59,1.59,0,0,0,1.61-1.57v-6.55a1.59,1.59,0,0,0-1.61-1.57H157.4a12.78,12.78,0,0,0-9,3.62l-14.29,13.92a19.86,19.86,0,0,0,0,28.58,3,3,0,0,1,0,4.32,3.16,3.16,0,0,1-2.22.89"/><path d="M200.53,759.79H157.4A19.08,19.08,0,0,1,144,754.38l-14.3-13.93a25.85,25.85,0,0,1,0-37.22l15-14.61a16.61,16.61,0,0,1,11.69-4.73h44.14a7.8,7.8,0,0,1,7.88,7.69v6.16a7.8,7.8,0,0,1-7.88,7.69H156.39a16.65,16.65,0,0,1-11.69-4.72L142.93,699l-8.8,8.57a19.86,19.86,0,0,0,0,28.58l14.29,13.92a12.78,12.78,0,0,0,9,3.62h43.13a1.59,1.59,0,0,0,1.61-1.57v-6.93a1.6,1.6,0,0,0-1.61-1.58H151a3.06,3.06,0,1,1,0-6.11h49.51a7.8,7.8,0,0,1,7.88,7.69v6.93a7.8,7.8,0,0,1-7.88,7.69m-53.17-65.13,1.77,1.72a10.35,10.35,0,0,0,7.26,2.94h44.14a1.6,1.6,0,0,0,1.61-1.58v-6.16a1.59,1.59,0,0,0-1.61-1.57H156.39a10.34,10.34,0,0,0-7.26,2.93Z"/><path class="cls-5" d="M119.42,904.11h-8.34l-1.46,3.43H107l6.91-16.34h2.68l6.91,16.34h-2.62ZM115.26,894,112,901.73h6.51Z"/><path class="cls-5" d="M127.6,891.22v16.32h-2.27V891.22Z"/><path class="cls-5" d="M133.12,891.22v16.32h-2.27V891.22Z"/><path class="cls-5" d="M144.93,892.72v3.33h3.17v2.08h-3.19v5.49q0,1.89,1.56,1.89a2.93,2.93,0,0,0,1.39-.4l.66,2.06a5.14,5.14,0,0,1-2.18.51,3.42,3.42,0,0,1-2.74-1,4.38,4.38,0,0,1-.95-3.07v-5.49h-2.09v-2.08h2.09V893Z"/><path class="cls-5" d="M152.66,891.2v6.53a4,4,0,0,1,3.52-1.86,3.93,3.93,0,0,1,3.34,1.46,6.38,6.38,0,0,1,1.12,4v6.21h-2.26v-6.19a3.56,3.56,0,0,0-.73-2.41,2.49,2.49,0,0,0-2-.83,2.71,2.71,0,0,0-2.15,1,3.65,3.65,0,0,0-.84,2.44v6h-2.27V891.2Z"/><path class="cls-5" d="M165.26,902.68a3.12,3.12,0,0,0,1.11,2.11,3.73,3.73,0,0,0,2.43.79,4.93,4.93,0,0,0,1.78-.34,3.41,3.41,0,0,0,1.37-.9l1.47,1.52a5.48,5.48,0,0,1-2.07,1.45,6.91,6.91,0,0,1-2.59.51,5.64,5.64,0,0,1-4.26-1.66,6.83,6.83,0,0,1,0-8.75,5.41,5.41,0,0,1,4.12-1.68,5.29,5.29,0,0,1,4.24,1.77q1.53,1.77,1.21,5.18Zm6.62-2a2.74,2.74,0,0,0-.95-2,3.8,3.8,0,0,0-4.45,0,3.3,3.3,0,0,0-1.17,2Z"/><path class="cls-5" d="M190.7,906.05a5.53,5.53,0,0,1-4.12,1.79,5.64,5.64,0,0,1-4.09-1.58,6.92,6.92,0,0,1,0-8.92,5.61,5.61,0,0,1,4.09-1.59,5.25,5.25,0,0,1,3.92,1.7L189,899.07a3.44,3.44,0,0,0-4.92,0,3.78,3.78,0,0,0-1,2.72,3.67,3.67,0,0,0,1,2.73,3.37,3.37,0,0,0,2.46,1,3.34,3.34,0,0,0,2.58-1.08Z"/><path class="cls-5" d="M201.68,897.51a6.65,6.65,0,0,1,0,8.57,5.29,5.29,0,0,1-4.09,1.69,5.18,5.18,0,0,1-4-1.69,6.73,6.73,0,0,1,0-8.58,5.21,5.21,0,0,1,4-1.7A5.26,5.26,0,0,1,201.68,897.51Zm-6.47,1.6a4.11,4.11,0,0,0-.91,2.69,4,4,0,0,0,.9,2.66,3.28,3.28,0,0,0,4.85,0,4.28,4.28,0,0,0,0-5.34,3.17,3.17,0,0,0-4.81,0Z"/><path class="cls-5" d="M213.88,907.54v-6.16a3.57,3.57,0,0,0-.77-2.42,2.67,2.67,0,0,0-2.15-.9,2.74,2.74,0,0,0-2.18,1,3.63,3.63,0,0,0-.86,2.45v6h-2.27V896h2.07l.13,1.68a4.65,4.65,0,0,1,3.66-1.85,4.28,4.28,0,0,1,3.35,1.47,5.88,5.88,0,0,1,1.31,4v6.19Z"/><path class="cls-5" d="M228.25,906.05a5.53,5.53,0,0,1-4.12,1.79,5.66,5.66,0,0,1-4.09-1.58,6.92,6.92,0,0,1,0-8.92,5.63,5.63,0,0,1,4.09-1.59,5.25,5.25,0,0,1,3.92,1.7l-1.45,1.62a3.45,3.45,0,0,0-4.93,0,3.78,3.78,0,0,0-1,2.72,3.67,3.67,0,0,0,1,2.73,3.37,3.37,0,0,0,2.46,1,3.34,3.34,0,0,0,2.58-1.08Z"/><path class="cls-5" d="M232,902.68a3.13,3.13,0,0,0,1.12,2.11,3.7,3.7,0,0,0,2.43.79,4.91,4.91,0,0,0,1.77-.34,3.41,3.41,0,0,0,1.37-.9l1.48,1.52a5.6,5.6,0,0,1-2.08,1.45,6.87,6.87,0,0,1-2.59.51,5.6,5.6,0,0,1-4.25-1.66,6.81,6.81,0,0,1,0-8.75,5.41,5.41,0,0,1,4.12-1.68,5.31,5.31,0,0,1,4.25,1.77q1.51,1.77,1.21,5.18Zm6.63-2a2.78,2.78,0,0,0-1-2,3.78,3.78,0,0,0-4.44,0,3.31,3.31,0,0,0-1.18,2Z"/><path class="cls-5" d="M243.07,912.89V896h2.14l.13,1.87a4,4,0,0,1,1.64-1.55,4.62,4.62,0,0,1,2.19-.55,5.15,5.15,0,0,1,4,1.7,6.13,6.13,0,0,1,1.53,4.3,6.24,6.24,0,0,1-1.5,4.32,5.07,5.07,0,0,1-4,1.68,5.28,5.28,0,0,1-2.19-.48,3.54,3.54,0,0,1-1.64-1.46v7Zm8.34-8.46a3.65,3.65,0,0,0,1-2.63,3.72,3.72,0,0,0-.94-2.65,3.25,3.25,0,0,0-2.49-1,3.17,3.17,0,0,0-2.48,1,3.8,3.8,0,0,0-.93,2.62,3.69,3.69,0,0,0,1,2.61,3.41,3.41,0,0,0,4.9,0Z"/><path class="cls-5" d="M260.56,892.72v3.33h3.17v2.08h-3.19v5.49q0,1.89,1.56,1.89a2.93,2.93,0,0,0,1.39-.4l.66,2.06a5.14,5.14,0,0,1-2.18.51,3.42,3.42,0,0,1-2.74-1,4.38,4.38,0,0,1-1-3.07v-5.49h-2.09v-2.08h2.09V893Z"/><path class="cls-5" d="M273,898.86a3.91,3.91,0,0,0-2.86-1.08,3.28,3.28,0,0,0-1.68.34,1.14,1.14,0,0,0-.63,1c0,.82.8,1.31,2.35,1.47a11.51,11.51,0,0,1,1.6.25,6.88,6.88,0,0,1,1.43.51,2.61,2.61,0,0,1,1.17,1.08,3.63,3.63,0,0,1,.4,1.78,3.28,3.28,0,0,1-1.27,2.64,5.2,5.2,0,0,1-3.35,1,6.13,6.13,0,0,1-4.95-2.12l1.19-1.71a4.89,4.89,0,0,0,3.81,1.71,3.26,3.26,0,0,0,1.6-.38,1.25,1.25,0,0,0,.71-1.12,1.14,1.14,0,0,0-.61-1.1,5.43,5.43,0,0,0-1.9-.49q-4.41-.43-4.42-3.45a2.91,2.91,0,0,1,1.37-2.63,5.75,5.75,0,0,1,3.14-.87,5.83,5.83,0,0,1,4.18,1.54Z"/><path class="cls-5" d="M282.15,912.89V896h2.13l.13,1.87a4,4,0,0,1,1.64-1.55,4.62,4.62,0,0,1,2.19-.55,5.15,5.15,0,0,1,3.95,1.7,6.13,6.13,0,0,1,1.53,4.3,6.24,6.24,0,0,1-1.5,4.32,5.05,5.05,0,0,1-4,1.68,5.28,5.28,0,0,1-2.19-.48,3.54,3.54,0,0,1-1.64-1.46v7Zm8.34-8.46a4.14,4.14,0,0,0,0-5.28,3.23,3.23,0,0,0-2.49-1,3.17,3.17,0,0,0-2.48,1,3.8,3.8,0,0,0-.93,2.62,3.69,3.69,0,0,0,1,2.61,3.17,3.17,0,0,0,2.44,1.05A3.24,3.24,0,0,0,290.49,904.43Z"/><path class="cls-5" d="M298.25,896l.15,1.52a3.34,3.34,0,0,1,3.19-1.78,3.77,3.77,0,0,1,2.69,1l-1,2.11a2.82,2.82,0,0,0-1.91-.7,2.88,2.88,0,0,0-2.09.81,3.12,3.12,0,0,0-.84,2.34v6.23h-2.26V896Z"/><path class="cls-5" d="M314.78,897.51a6.63,6.63,0,0,1,0,8.57,5.73,5.73,0,0,1-8.13,0,6.71,6.71,0,0,1,0-8.58,5.21,5.21,0,0,1,4-1.7A5.26,5.26,0,0,1,314.78,897.51Zm-6.47,1.6a4.11,4.11,0,0,0-.91,2.69,4,4,0,0,0,.9,2.66,3.28,3.28,0,0,0,4.85,0,4.28,4.28,0,0,0,0-5.34,3.17,3.17,0,0,0-4.81,0Z"/><path class="cls-5" d="M318.75,912.89V896h2.14l.13,1.87a4,4,0,0,1,1.64-1.55,4.59,4.59,0,0,1,2.19-.55,5.15,5.15,0,0,1,3.95,1.7,6.13,6.13,0,0,1,1.53,4.3,6.24,6.24,0,0,1-1.5,4.32,5.07,5.07,0,0,1-4,1.68,5.28,5.28,0,0,1-2.19-.48,3.54,3.54,0,0,1-1.64-1.46v7Zm8.34-8.46a4.11,4.11,0,0,0,0-5.28,3.23,3.23,0,0,0-2.48-1,3.17,3.17,0,0,0-2.48,1,3.8,3.8,0,0,0-.93,2.62,3.69,3.69,0,0,0,1,2.61,3.17,3.17,0,0,0,2.44,1.05A3.22,3.22,0,0,0,327.09,904.43Z"/><path class="cls-5" d="M341.71,897.51a6.67,6.67,0,0,1,0,8.57,5.73,5.73,0,0,1-8.13,0,6.73,6.73,0,0,1,0-8.58,5.66,5.66,0,0,1,8.1,0Zm-6.47,1.6a4.06,4.06,0,0,0-.91,2.69,4,4,0,0,0,.9,2.66,3,3,0,0,0,2.42,1.07,3,3,0,0,0,2.43-1.07,4.28,4.28,0,0,0,0-5.34,3.17,3.17,0,0,0-4.81,0Z"/><path class="cls-5" d="M352.61,898.86a3.91,3.91,0,0,0-2.86-1.08,3.28,3.28,0,0,0-1.68.34,1.14,1.14,0,0,0-.63,1c0,.82.8,1.31,2.36,1.47a11.59,11.59,0,0,1,1.59.25,6.88,6.88,0,0,1,1.43.51,2.56,2.56,0,0,1,1.17,1.08,3.63,3.63,0,0,1,.4,1.78,3.28,3.28,0,0,1-1.27,2.64,5.2,5.2,0,0,1-3.35,1,6.13,6.13,0,0,1-4.95-2.12l1.19-1.71a4.89,4.89,0,0,0,3.81,1.71,3.26,3.26,0,0,0,1.6-.38,1.25,1.25,0,0,0,.71-1.12,1.14,1.14,0,0,0-.61-1.1,5.43,5.43,0,0,0-1.9-.49c-2.93-.29-4.41-1.44-4.42-3.45a2.93,2.93,0,0,1,1.37-2.63,5.75,5.75,0,0,1,3.14-.87,5.83,5.83,0,0,1,4.18,1.54Z"/><path class="cls-5" d="M358.35,902.68a3.16,3.16,0,0,0,1.11,2.11,3.74,3.74,0,0,0,2.44.79,4.91,4.91,0,0,0,1.77-.34,3.41,3.41,0,0,0,1.37-.9l1.48,1.52a5.6,5.6,0,0,1-2.08,1.45,6.91,6.91,0,0,1-2.59.51,5.64,5.64,0,0,1-4.26-1.66,6.83,6.83,0,0,1,0-8.75,5.41,5.41,0,0,1,4.12-1.68,5.28,5.28,0,0,1,4.24,1.77q1.53,1.77,1.21,5.18Zm6.63-2a2.78,2.78,0,0,0-1-2,3.8,3.8,0,0,0-4.45,0,3.3,3.3,0,0,0-1.17,2Z"/><path class="cls-5" d="M380.38,891.22v16.32h-2.14l-.13-1.82a4,4,0,0,1-3.76,2,5.31,5.31,0,0,1-4-1.61,6,6,0,0,1-1.56-4.39,6.09,6.09,0,0,1,1.53-4.42,5.29,5.29,0,0,1,4-1.58,5,5,0,0,1,2.19.55,3.56,3.56,0,0,1,1.62,1.51v-6.61ZM372.05,899a4.29,4.29,0,0,0,0,5.46,3.41,3.41,0,0,0,4.9,0,3.76,3.76,0,0,0,1-2.71,3.72,3.72,0,0,0-1-2.68A3.24,3.24,0,0,0,374.5,898,3.27,3.27,0,0,0,372.05,899Z"/><path class="cls-5" d="M389,891.34a1.42,1.42,0,0,1,1.41,0,1.58,1.58,0,0,1,0,2.62,1.37,1.37,0,0,1-1.41,0,1.58,1.58,0,0,1,0-2.62ZM388.6,896v11.56h2.27V896Z"/><path class="cls-5" d="M402.18,907.54v-6.16a3.62,3.62,0,0,0-.77-2.42,2.71,2.71,0,0,0-2.16-.9,2.74,2.74,0,0,0-2.18,1,3.63,3.63,0,0,0-.86,2.45v6H394V896H396l.13,1.68a4.62,4.62,0,0,1,3.65-1.85,4.32,4.32,0,0,1,3.36,1.47,5.87,5.87,0,0,1,1.3,4v6.19Z"/><path class="cls-5" d="M416,892.72v3.33h3.17v2.08H416v5.49q0,1.89,1.56,1.89a2.93,2.93,0,0,0,1.39-.4l.66,2.06a5.14,5.14,0,0,1-2.18.51,3.42,3.42,0,0,1-2.74-1,4.38,4.38,0,0,1-1-3.07v-5.49h-2.09v-2.08h2.09V893Z"/><path class="cls-5" d="M423.74,891.2v6.53a4,4,0,0,1,3.52-1.86,3.93,3.93,0,0,1,3.34,1.46,6.38,6.38,0,0,1,1.12,4v6.21h-2.26v-6.19a3.56,3.56,0,0,0-.73-2.41,2.49,2.49,0,0,0-2-.83,2.71,2.71,0,0,0-2.15,1,3.65,3.65,0,0,0-.84,2.44v6h-2.27V891.2Z"/><path class="cls-5" d="M435.09,891.34a1.42,1.42,0,0,1,1.41,0,1.42,1.42,0,1,1-1.41,0Zm-.44,4.64v11.56h2.26V896Z"/><path class="cls-5" d="M446.92,898.86a3.89,3.89,0,0,0-2.86-1.08,3.28,3.28,0,0,0-1.68.34,1.14,1.14,0,0,0-.63,1c0,.82.8,1.31,2.36,1.47a11.34,11.34,0,0,1,1.59.25,6.68,6.68,0,0,1,1.43.51,2.56,2.56,0,0,1,1.17,1.08,3.63,3.63,0,0,1,.41,1.78,3.29,3.29,0,0,1-1.28,2.64,5.19,5.19,0,0,1-3.34,1,6.14,6.14,0,0,1-5-2.12l1.19-1.71a4.89,4.89,0,0,0,3.81,1.71,3.3,3.3,0,0,0,1.61-.38,1.24,1.24,0,0,0,.7-1.12,1.13,1.13,0,0,0-.61-1.1,5.37,5.37,0,0,0-1.9-.49c-2.93-.29-4.41-1.44-4.42-3.45a2.93,2.93,0,0,1,1.37-2.63,6.3,6.3,0,0,1,7.32.67Z"/><path class="cls-5" d="M467,891.22v16.32H464.9l-.13-1.82a4,4,0,0,1-3.77,2,5.28,5.28,0,0,1-4-1.61,6,6,0,0,1-1.56-4.39,6.09,6.09,0,0,1,1.53-4.42,5.29,5.29,0,0,1,4-1.58,5,5,0,0,1,2.19.55,3.56,3.56,0,0,1,1.62,1.51v-6.61ZM458.7,899a4.29,4.29,0,0,0,0,5.46,3.42,3.42,0,0,0,4.91,0,3.75,3.75,0,0,0,1-2.71,3.71,3.71,0,0,0-1-2.68,3.45,3.45,0,0,0-4.91-.05Z"/><path class="cls-5" d="M479.08,897.51a6.67,6.67,0,0,1,0,8.57,5.28,5.28,0,0,1-4.08,1.69,5.2,5.2,0,0,1-4-1.69,6.73,6.73,0,0,1,0-8.58,5.22,5.22,0,0,1,4-1.7A5.28,5.28,0,0,1,479.08,897.51Zm-6.47,1.6a4.06,4.06,0,0,0-.92,2.69,4,4,0,0,0,.91,2.66,3,3,0,0,0,2.42,1.07,3,3,0,0,0,2.43-1.07,4.32,4.32,0,0,0,0-5.34,3.17,3.17,0,0,0-4.81,0Z"/><path class="cls-5" d="M492.22,906.05a5.49,5.49,0,0,1-4.11,1.79,5.67,5.67,0,0,1-4.1-1.58,6.95,6.95,0,0,1,0-8.92,5.63,5.63,0,0,1,4.1-1.59,5.23,5.23,0,0,1,3.91,1.7l-1.45,1.62a3.23,3.23,0,0,0-2.44-1,3.27,3.27,0,0,0-2.49,1,3.78,3.78,0,0,0-1,2.72,3.67,3.67,0,0,0,1,2.73,3.38,3.38,0,0,0,2.47,1,3.33,3.33,0,0,0,2.57-1.08Z"/><path class="cls-5" d="M496.33,896v6.16a3.54,3.54,0,0,0,.79,2.41,2.68,2.68,0,0,0,2.16.91,2.71,2.71,0,0,0,2.17-1,3.7,3.7,0,0,0,.85-2.47v-6h2.26v11.53h-2l-.13-1.7a4.72,4.72,0,0,1-3.75,1.87,4.17,4.17,0,0,1-3.31-1.47,6,6,0,0,1-1.26-4V896Z"/><path class="cls-5" d="M515.06,907.54v-6.33a3.63,3.63,0,0,0-.68-2.23,2.22,2.22,0,0,0-1.85-.9,2.33,2.33,0,0,0-1.9.92,3.43,3.43,0,0,0-.72,2.21v6.33h-2.27V896h2.11l.16,1.54a2.81,2.81,0,0,1,1.26-1.31,3.85,3.85,0,0,1,1.77-.42,3.31,3.31,0,0,1,3.42,2.31,3.93,3.93,0,0,1,3.71-2.29,4.23,4.23,0,0,1,3.41,1.4,5.88,5.88,0,0,1,1.19,3.93v6.37h-2.29v-6.37a3.68,3.68,0,0,0-.61-2.21,2.06,2.06,0,0,0-1.78-.85,2.35,2.35,0,0,0-1.92.9,3.41,3.41,0,0,0-.73,2.2v6.33Z"/><path class="cls-5" d="M529.29,902.68a3.08,3.08,0,0,0,1.11,2.11,3.73,3.73,0,0,0,2.43.79,4.83,4.83,0,0,0,1.77-.34,3.38,3.38,0,0,0,1.38-.9l1.47,1.52a5.44,5.44,0,0,1-2.08,1.45,6.82,6.82,0,0,1-2.58.51,5.61,5.61,0,0,1-4.26-1.66,6.12,6.12,0,0,1-1.59-4.43,6,6,0,0,1,1.58-4.32,5.4,5.4,0,0,1,4.11-1.68,5.3,5.3,0,0,1,4.25,1.77c1,1.18,1.42,2.91,1.21,5.18Zm6.62-2a2.77,2.77,0,0,0-.95-2,3.8,3.8,0,0,0-4.45,0,3.36,3.36,0,0,0-1.18,2Z"/><path class="cls-5" d="M548.63,907.54v-6.16a3.62,3.62,0,0,0-.77-2.42,2.68,2.68,0,0,0-2.16-.9,2.76,2.76,0,0,0-2.18,1,3.62,3.62,0,0,0-.85,2.45v6H540.4V896h2.07l.13,1.68a4.63,4.63,0,0,1,3.65-1.85,4.29,4.29,0,0,1,3.36,1.47,5.88,5.88,0,0,1,1.31,4v6.19Z"/><path class="cls-5" d="M557.32,892.72v3.33h3.17v2.08H557.3v5.49q0,1.89,1.56,1.89a2.9,2.9,0,0,0,1.38-.4l.66,2.06a5.1,5.1,0,0,1-2.17.51,3.41,3.41,0,0,1-2.74-1,4.38,4.38,0,0,1-1-3.07v-5.49h-2.09v-2.08H555V893Z"/><path class="cls-5" d="M576.72,889.7l-7.57,19.75h-2.22l7.55-19.75Z"/><path class="cls-5" d="M584,912.89V896h2.13l.14,1.87a4,4,0,0,1,1.63-1.55,4.62,4.62,0,0,1,2.19-.55,5.14,5.14,0,0,1,4,1.7,6.13,6.13,0,0,1,1.53,4.3,6.28,6.28,0,0,1-1.49,4.32,5.09,5.09,0,0,1-4,1.68,5.35,5.35,0,0,1-2.19-.48,3.51,3.51,0,0,1-1.63-1.46v7Zm8.34-8.46a4.11,4.11,0,0,0,0-5.28,3.23,3.23,0,0,0-2.49-1,3.15,3.15,0,0,0-2.47,1,3.81,3.81,0,0,0-.94,2.62,3.73,3.73,0,0,0,1,2.61,3.19,3.19,0,0,0,2.44,1.05A3.24,3.24,0,0,0,592.3,904.43Z"/><path class="cls-5" d="M600.06,896l.16,1.52a3.33,3.33,0,0,1,3.19-1.78,3.75,3.75,0,0,1,2.68,1l-1,2.11a2.84,2.84,0,0,0-1.92-.7,2.9,2.9,0,0,0-2.09.81,3.15,3.15,0,0,0-.83,2.34v6.23H598V896Z"/><path class="cls-5" d="M609.32,902.68a3.13,3.13,0,0,0,1.12,2.11,3.7,3.7,0,0,0,2.43.79,4.91,4.91,0,0,0,1.77-.34,3.41,3.41,0,0,0,1.37-.9l1.48,1.52a5.6,5.6,0,0,1-2.08,1.45,6.91,6.91,0,0,1-2.59.51,5.6,5.6,0,0,1-4.25-1.66,6.81,6.81,0,0,1,0-8.75,5.41,5.41,0,0,1,4.12-1.68,5.31,5.31,0,0,1,4.25,1.77q1.51,1.77,1.21,5.18Zm6.63-2a2.78,2.78,0,0,0-1-2,3.42,3.42,0,0,0-2.26-.72,3.39,3.39,0,0,0-2.18.72,3.31,3.31,0,0,0-1.18,2Z"/><path class="cls-5" d="M631,896l-4.6,11.58h-2.49L619.29,896h2.51l1.45,3.71,1.91,5.35,1.72-4.88,1.63-4.18Z"/><path class="cls-5" d="M634.62,902.68a3.13,3.13,0,0,0,1.12,2.11,3.7,3.7,0,0,0,2.43.79,4.91,4.91,0,0,0,1.77-.34,3.41,3.41,0,0,0,1.37-.9l1.48,1.52a5.6,5.6,0,0,1-2.08,1.45,6.91,6.91,0,0,1-2.59.51,5.6,5.6,0,0,1-4.25-1.66,6.81,6.81,0,0,1,0-8.75,5.41,5.41,0,0,1,4.12-1.68,5.28,5.28,0,0,1,4.24,1.77c1,1.18,1.42,2.91,1.22,5.18Zm6.63-2a2.78,2.78,0,0,0-1-2,3.42,3.42,0,0,0-2.26-.72,3.39,3.39,0,0,0-2.18.72,3.31,3.31,0,0,0-1.18,2Z"/><path class="cls-5" d="M654,907.54v-6.16a3.57,3.57,0,0,0-.77-2.42,2.67,2.67,0,0,0-2.15-.9,2.74,2.74,0,0,0-2.18,1,3.63,3.63,0,0,0-.86,2.45v6h-2.27V896h2.07l.13,1.68a4.65,4.65,0,0,1,3.66-1.85,4.28,4.28,0,0,1,3.35,1.47,5.88,5.88,0,0,1,1.31,4v6.19Z"/><path class="cls-5" d="M662.65,892.72v3.33h3.17v2.08h-3.19v5.49q0,1.89,1.56,1.89a2.93,2.93,0,0,0,1.39-.4l.66,2.06a5.17,5.17,0,0,1-2.18.51,3.42,3.42,0,0,1-2.74-1,4.38,4.38,0,0,1-1-3.07v-5.49h-2.09v-2.08h2.09V893Z"/><path class="cls-5" d="M668.55,891.34a1.42,1.42,0,0,1,1.41,0,1.42,1.42,0,1,1-1.41,0Zm-.44,4.64v11.56h2.26V896Z"/><path class="cls-5" d="M682.42,897.51a6.67,6.67,0,0,1,0,8.57,5.73,5.73,0,0,1-8.13,0,6.73,6.73,0,0,1,0-8.58,5.66,5.66,0,0,1,8.1,0Zm-6.47,1.6a4.06,4.06,0,0,0-.91,2.69,4,4,0,0,0,.9,2.66,3,3,0,0,0,2.42,1.07,3,3,0,0,0,2.43-1.07,4.32,4.32,0,0,0,0-5.34,3.17,3.17,0,0,0-4.81,0Z"/><path class="cls-5" d="M694.62,907.54v-6.16a3.62,3.62,0,0,0-.77-2.42,2.69,2.69,0,0,0-2.16-.9,2.74,2.74,0,0,0-2.18,1,3.62,3.62,0,0,0-.85,2.45v6h-2.27V896h2.07l.13,1.68a4.63,4.63,0,0,1,3.65-1.85,4.3,4.3,0,0,1,3.36,1.47,5.88,5.88,0,0,1,1.31,4v6.19Z"/><path class="cls-5" d="M713.67,896h2.2v11.51h-2.16l-.11-1.87a3.45,3.45,0,0,1-1.57,1.61,4.53,4.53,0,0,1-2.17.56,5.24,5.24,0,0,1-4-1.58,6.19,6.19,0,0,1-1.56-4.49,6,6,0,0,1,1.59-4.4,5.47,5.47,0,0,1,4-1.6,4.44,4.44,0,0,1,2.17.56,3.65,3.65,0,0,1,1.52,1.52Zm-6.1,3a3.8,3.8,0,0,0-1,2.76,3.84,3.84,0,0,0,1,2.78,3.37,3.37,0,0,0,2.51,1.05,3.52,3.52,0,0,0,1.73-.42,2.75,2.75,0,0,0,1.14-1.1,5.5,5.5,0,0,0,.58-1.48,3.69,3.69,0,0,0,0-1.62,5.57,5.57,0,0,0-.58-1.49,2.75,2.75,0,0,0-1.14-1.1,3.52,3.52,0,0,0-1.73-.42A3.36,3.36,0,0,0,707.57,899Z"/><path class="cls-5" d="M721.06,896l.15,1.52a3.35,3.35,0,0,1,3.2-1.78,3.76,3.76,0,0,1,2.68,1l-1,2.11a2.84,2.84,0,0,0-1.92-.7,2.88,2.88,0,0,0-2.09.81,3.12,3.12,0,0,0-.84,2.34v6.23H719V896Z"/><path class="cls-5" d="M730.32,902.68a3.12,3.12,0,0,0,1.11,2.11,3.74,3.74,0,0,0,2.44.79,4.91,4.91,0,0,0,1.77-.34,3.41,3.41,0,0,0,1.37-.9l1.48,1.52a5.6,5.6,0,0,1-2.08,1.45,6.91,6.91,0,0,1-2.59.51,5.64,5.64,0,0,1-4.26-1.66,6.83,6.83,0,0,1,0-8.75,5.41,5.41,0,0,1,4.12-1.68,5.28,5.28,0,0,1,4.24,1.77q1.53,1.77,1.21,5.18Zm6.63-2a2.78,2.78,0,0,0-1-2,3.8,3.8,0,0,0-4.45,0,3.3,3.3,0,0,0-1.17,2Z"/><path class="cls-5" d="M755.75,906.05a5.49,5.49,0,0,1-4.11,1.79,5.64,5.64,0,0,1-4.09-1.58,6.92,6.92,0,0,1,0-8.92,5.61,5.61,0,0,1,4.09-1.59,5.25,5.25,0,0,1,3.92,1.7l-1.46,1.62a3.44,3.44,0,0,0-4.92,0,3.78,3.78,0,0,0-1,2.72,3.67,3.67,0,0,0,1,2.73,3.37,3.37,0,0,0,2.46,1,3.32,3.32,0,0,0,2.57-1.08Z"/><path class="cls-5" d="M766.74,897.51a6.65,6.65,0,0,1,0,8.57,5.29,5.29,0,0,1-4.09,1.69,5.18,5.18,0,0,1-4-1.69,6.73,6.73,0,0,1,0-8.58,5.65,5.65,0,0,1,8.09,0Zm-6.47,1.6a4.11,4.11,0,0,0-.91,2.69,4,4,0,0,0,.9,2.66,3.29,3.29,0,0,0,4.86,0,4.3,4.3,0,0,0,0-5.34,3.17,3.17,0,0,0-4.81,0Z"/><path class="cls-5" d="M778.94,907.54v-6.16a3.57,3.57,0,0,0-.77-2.42,2.67,2.67,0,0,0-2.15-.9,2.74,2.74,0,0,0-2.18,1,3.63,3.63,0,0,0-.86,2.45v6h-2.27V896h2.07l.13,1.68a4.65,4.65,0,0,1,3.66-1.85,4.28,4.28,0,0,1,3.35,1.47,5.88,5.88,0,0,1,1.31,4v6.19Z"/><path class="cls-5" d="M790.56,893.46a2.65,2.65,0,0,0-1.3-.39,1.6,1.6,0,0,0-1.29.57,2.62,2.62,0,0,0-.47,1.69v.84h3.23v2.1H787.5v9.27h-2.29v-9.27h-2v-2.1h2v-.84a4.47,4.47,0,0,1,1.09-3.22,3.75,3.75,0,0,1,2.83-1.15,4.36,4.36,0,0,1,2.15.61Zm1.47-.81a1.41,1.41,0,1,0,2.11-1.31,1.4,1.4,0,0,0-1.4,0A1.35,1.35,0,0,0,792,892.65Zm2.55,3.33v11.56H792.3V896Z"/><path class="cls-5" d="M808.53,891.22v16.32H806.4l-.13-1.82a4,4,0,0,1-3.77,2,5.28,5.28,0,0,1-4-1.61,6,6,0,0,1-1.56-4.39,6.09,6.09,0,0,1,1.53-4.42,5.29,5.29,0,0,1,4-1.58,5,5,0,0,1,2.19.55,3.56,3.56,0,0,1,1.62,1.51v-6.61ZM800.2,899a4.29,4.29,0,0,0,0,5.46,3.42,3.42,0,0,0,4.91,0,3.75,3.75,0,0,0,1-2.71,3.71,3.71,0,0,0-1-2.68,3.45,3.45,0,0,0-4.91-.05Z"/><path class="cls-5" d="M813.3,902.68a3.13,3.13,0,0,0,1.12,2.11,3.7,3.7,0,0,0,2.43.79,4.91,4.91,0,0,0,1.77-.34,3.41,3.41,0,0,0,1.37-.9l1.48,1.52a5.6,5.6,0,0,1-2.08,1.45,6.91,6.91,0,0,1-2.59.51,5.6,5.6,0,0,1-4.25-1.66,6.81,6.81,0,0,1,0-8.75,5.41,5.41,0,0,1,4.12-1.68,5.31,5.31,0,0,1,4.25,1.77q1.51,1.77,1.21,5.18Zm6.63-2a2.78,2.78,0,0,0-1-2,3.42,3.42,0,0,0-2.26-.72,3.39,3.39,0,0,0-2.18.72,3.31,3.31,0,0,0-1.18,2Z"/><path class="cls-5" d="M832.64,907.54v-6.16a3.57,3.57,0,0,0-.77-2.42,2.67,2.67,0,0,0-2.15-.9,2.74,2.74,0,0,0-2.18,1,3.63,3.63,0,0,0-.86,2.45v6h-2.27V896h2.07l.13,1.68a4.65,4.65,0,0,1,3.66-1.85,4.28,4.28,0,0,1,3.35,1.47,5.83,5.83,0,0,1,1.31,4v6.19Z"/><path class="cls-5" d="M841.33,892.72v3.33h3.17v2.08h-3.19v5.49q0,1.89,1.56,1.89a2.93,2.93,0,0,0,1.39-.4l.66,2.06a5.17,5.17,0,0,1-2.18.51,3.42,3.42,0,0,1-2.74-1,4.38,4.38,0,0,1-1-3.07v-5.49H837v-2.08H839V893Z"/><path class="cls-5" d="M847.23,891.34a1.42,1.42,0,0,1,1.41,0,1.42,1.42,0,1,1-1.41,0Zm-.44,4.64v11.56h2.26V896Z"/><path class="cls-5" d="M860.85,896h2.2v11.51h-2.16l-.11-1.87a3.5,3.5,0,0,1-1.57,1.61,4.56,4.56,0,0,1-2.17.56,5.24,5.24,0,0,1-4-1.58,6.16,6.16,0,0,1-1.57-4.49,6,6,0,0,1,1.6-4.4,5.45,5.45,0,0,1,4-1.6,4.45,4.45,0,0,1,2.18.56,3.71,3.71,0,0,1,1.52,1.52Zm-6.1,3a3.8,3.8,0,0,0-1,2.76,3.84,3.84,0,0,0,1,2.78,3.35,3.35,0,0,0,2.51,1.05,3.52,3.52,0,0,0,1.73-.42,2.81,2.81,0,0,0,1.14-1.1,5.17,5.17,0,0,0,.57-1.48,3.41,3.41,0,0,0,0-1.62,5.24,5.24,0,0,0-.57-1.49,2.81,2.81,0,0,0-1.14-1.1,3.52,3.52,0,0,0-1.73-.42A3.34,3.34,0,0,0,854.75,899Z"/><path class="cls-5" d="M868.48,891.22v16.32h-2.27V891.22Z"/><path class="cls-5" d="M885.51,896h2.2v11.51h-2.16l-.11-1.87a3.5,3.5,0,0,1-1.57,1.61,4.53,4.53,0,0,1-2.17.56,5.24,5.24,0,0,1-4-1.58,6.2,6.2,0,0,1-1.57-4.49,6,6,0,0,1,1.6-4.4,5.46,5.46,0,0,1,4-1.6,4.44,4.44,0,0,1,2.17.56,3.71,3.71,0,0,1,1.52,1.52Zm-6.1,3a3.8,3.8,0,0,0-1,2.76,3.84,3.84,0,0,0,1,2.78,3.35,3.35,0,0,0,2.51,1.05,3.52,3.52,0,0,0,1.73-.42,2.75,2.75,0,0,0,1.14-1.1,5.5,5.5,0,0,0,.58-1.48,3.69,3.69,0,0,0,0-1.62,5.57,5.57,0,0,0-.58-1.49,2.75,2.75,0,0,0-1.14-1.1,3.52,3.52,0,0,0-1.73-.42A3.34,3.34,0,0,0,879.41,899Z"/><path class="cls-5" d="M899,907.54v-6.16a3.62,3.62,0,0,0-.77-2.42,2.71,2.71,0,0,0-2.16-.9,2.74,2.74,0,0,0-2.18,1,3.63,3.63,0,0,0-.86,2.45v6h-2.26V896h2.06l.14,1.68a4.62,4.62,0,0,1,3.65-1.85,4.32,4.32,0,0,1,3.36,1.47,5.87,5.87,0,0,1,1.3,4v6.19Z"/><path class="cls-5" d="M915.12,891.22v16.32H913l-.14-1.82a4,4,0,0,1-3.76,2,5.28,5.28,0,0,1-4-1.61,6,6,0,0,1-1.56-4.39,6.09,6.09,0,0,1,1.53-4.42,5.27,5.27,0,0,1,4-1.58,5,5,0,0,1,2.19.55,3.49,3.49,0,0,1,1.61,1.51v-6.61ZM906.79,899a4.29,4.29,0,0,0,0,5.46,3.23,3.23,0,0,0,2.46,1,3.27,3.27,0,0,0,2.45-1,3.75,3.75,0,0,0,1-2.71,3.71,3.71,0,0,0-1-2.68,3.45,3.45,0,0,0-4.91-.05Z"/><path class="cls-5" d="M925.61,891.22v6.61a3.56,3.56,0,0,1,1.62-1.51,5,5,0,0,1,2.19-.55,5.31,5.31,0,0,1,4,1.58,7,7,0,0,1,0,8.81,5.28,5.28,0,0,1-4,1.61,4,4,0,0,1-3.77-2l-.13,1.82h-2.13V891.22Zm1.15,7.87a3.68,3.68,0,0,0-1,2.68,3.76,3.76,0,0,0,1,2.71,3.26,3.26,0,0,0,2.47,1,3.21,3.21,0,0,0,2.44-1,3.78,3.78,0,0,0,1-2.72,3.72,3.72,0,0,0-1-2.73,3.45,3.45,0,0,0-4.91.05Z"/><path class="cls-5" d="M939,902.68a3.08,3.08,0,0,0,1.11,2.11,3.73,3.73,0,0,0,2.43.79,4.83,4.83,0,0,0,1.77-.34,3.38,3.38,0,0,0,1.38-.9l1.47,1.52a5.48,5.48,0,0,1-2.07,1.45,6.91,6.91,0,0,1-2.59.51,5.63,5.63,0,0,1-4.26-1.66,6.83,6.83,0,0,1,0-8.75,5.41,5.41,0,0,1,4.12-1.68,5.29,5.29,0,0,1,4.24,1.77c1,1.18,1.42,2.91,1.21,5.18Zm6.62-2a2.74,2.74,0,0,0-.95-2,3.8,3.8,0,0,0-4.45,0,3.3,3.3,0,0,0-1.17,2Z"/><path class="cls-5" d="M953.64,892.72v3.33h3.17v2.08h-3.19v5.49q0,1.89,1.56,1.89a3,3,0,0,0,1.39-.4l.66,2.06a5.17,5.17,0,0,1-2.18.51,3.42,3.42,0,0,1-2.74-1,4.38,4.38,0,0,1-1-3.07v-5.49h-2.09v-2.08h2.09V893Z"/><path class="cls-5" d="M967.87,896l2.6,9.06,2.69-9.06h2.53l-3.81,11.58h-2.64L968,903.76l-1.05-4-1.08,4-1.28,3.83h-2.64L958.08,896h2.55l2.69,9.06,2.6-9.06Z"/><path class="cls-5" d="M979.45,902.68a3.08,3.08,0,0,0,1.11,2.11,3.7,3.7,0,0,0,2.43.79,4.87,4.87,0,0,0,1.77-.34,3.41,3.41,0,0,0,1.37-.9l1.48,1.52a5.52,5.52,0,0,1-2.08,1.45,6.87,6.87,0,0,1-2.59.51,5.6,5.6,0,0,1-4.25-1.66,6.81,6.81,0,0,1,0-8.75,5.41,5.41,0,0,1,4.12-1.68A5.31,5.31,0,0,1,987,897.5q1.51,1.77,1.21,5.18Zm6.62-2a2.78,2.78,0,0,0-1-2,3.78,3.78,0,0,0-4.44,0,3.36,3.36,0,0,0-1.18,2Z"/><path class="cls-5" d="M992.25,902.68a3.08,3.08,0,0,0,1.11,2.11,3.73,3.73,0,0,0,2.43.79,4.83,4.83,0,0,0,1.77-.34,3.38,3.38,0,0,0,1.38-.9l1.47,1.52a5.44,5.44,0,0,1-2.08,1.45,6.82,6.82,0,0,1-2.58.51,5.61,5.61,0,0,1-4.26-1.66,6.13,6.13,0,0,1-1.6-4.43,6,6,0,0,1,1.59-4.32,5.4,5.4,0,0,1,4.11-1.68,5.3,5.3,0,0,1,4.25,1.77c1,1.18,1.42,2.91,1.21,5.18Zm6.62-2a2.81,2.81,0,0,0-1-2,3.8,3.8,0,0,0-4.45,0,3.36,3.36,0,0,0-1.18,2Z"/><path class="cls-5" d="M1011.59,907.54v-6.16a3.62,3.62,0,0,0-.77-2.42,2.69,2.69,0,0,0-2.16-.9,2.74,2.74,0,0,0-2.18,1,3.63,3.63,0,0,0-.86,2.45v6h-2.26V896h2.07l.13,1.68a4.63,4.63,0,0,1,3.65-1.85,4.3,4.3,0,0,1,3.36,1.47,5.88,5.88,0,0,1,1.31,4v6.19Z"/><path class="cls-5" d="M120.12,933.94H108.75V917.6h11.3v2.54h-8.84v4.41h8.49V927h-8.49v4.39h8.91Z"/><path class="cls-5" d="M129.82,925.25a3.94,3.94,0,0,0-2.86-1.07,3.28,3.28,0,0,0-1.68.34,1.14,1.14,0,0,0-.63,1c0,.82.8,1.31,2.36,1.47a13.53,13.53,0,0,1,1.59.24,7.59,7.59,0,0,1,1.43.52,2.56,2.56,0,0,1,1.17,1.08,3.63,3.63,0,0,1,.4,1.78,3.28,3.28,0,0,1-1.27,2.64,5.2,5.2,0,0,1-3.35,1,6.13,6.13,0,0,1-5-2.12l1.19-1.71a4.89,4.89,0,0,0,3.81,1.71,3.26,3.26,0,0,0,1.6-.38,1.25,1.25,0,0,0,.71-1.12,1.14,1.14,0,0,0-.61-1.1,5.43,5.43,0,0,0-1.9-.49c-2.93-.29-4.41-1.44-4.42-3.45a2.93,2.93,0,0,1,1.37-2.63,5.75,5.75,0,0,1,3.14-.87,5.83,5.83,0,0,1,4.18,1.54Z"/><path class="cls-5" d="M136.16,917.62v9.53l4-4.72h2.75v.14l-4.68,5.28,5.32,5.93v.16H140.8l-4.64-5.32v5.32h-2.29V917.62Z"/><path class="cls-5" d="M146.87,929.08a3,3,0,0,0,1.11,2.1,3.69,3.69,0,0,0,2.43.8,4.83,4.83,0,0,0,1.77-.34,3.38,3.38,0,0,0,1.38-.9l1.47,1.52a5.44,5.44,0,0,1-2.08,1.45,6.82,6.82,0,0,1-2.58.51,5.61,5.61,0,0,1-4.26-1.66,6.12,6.12,0,0,1-1.59-4.43,6,6,0,0,1,1.58-4.32,5.4,5.4,0,0,1,4.11-1.68,5.3,5.3,0,0,1,4.25,1.77c1,1.18,1.42,2.91,1.21,5.18Zm6.62-2a2.77,2.77,0,0,0-1-2,3.76,3.76,0,0,0-4.45,0,3.36,3.36,0,0,0-1.18,2Z"/><path class="cls-5" d="M160.33,917.62v16.32h-2.26V917.62Z"/><path class="cls-5" d="M172.22,922.43h2.2v11.51h-2.16l-.11-1.87a3.5,3.5,0,0,1-1.57,1.61,4.59,4.59,0,0,1-2.17.56,5.27,5.27,0,0,1-4-1.58,6.19,6.19,0,0,1-1.56-4.49,6,6,0,0,1,1.6-4.4,5.45,5.45,0,0,1,4-1.6,4.45,4.45,0,0,1,2.18.56,3.71,3.71,0,0,1,1.52,1.52Zm-6.1,3a3.8,3.8,0,0,0-1,2.76,3.84,3.84,0,0,0,1,2.78,3.34,3.34,0,0,0,2.51,1,3.54,3.54,0,0,0,1.73-.42,2.88,2.88,0,0,0,1.14-1.1,5.17,5.17,0,0,0,.57-1.48,3.41,3.41,0,0,0,0-1.62,5.3,5.3,0,0,0-.57-1.5,2.92,2.92,0,0,0-1.14-1.09,3.54,3.54,0,0,0-1.73-.42A3.33,3.33,0,0,0,166.12,925.41Z"/><path class="cls-5" d="M179.76,917.6v6.53a4,4,0,0,1,3.52-1.86,3.92,3.92,0,0,1,3.34,1.46,6.38,6.38,0,0,1,1.13,4v6.21h-2.27v-6.19a3.51,3.51,0,0,0-.73-2.41,2.49,2.49,0,0,0-2-.83,2.69,2.69,0,0,0-2.14,1,3.59,3.59,0,0,0-.85,2.44v6h-2.27V917.6Z"/><path class="cls-5" d="M204.86,922.43h2.2v11.51h-2.15l-.11-1.87a3.52,3.52,0,0,1-1.58,1.61,4.52,4.52,0,0,1-2.16.56,5.26,5.26,0,0,1-4-1.58,6.19,6.19,0,0,1-1.56-4.49,6,6,0,0,1,1.59-4.4,5.49,5.49,0,0,1,4-1.6,4.48,4.48,0,0,1,2.18.56,3.77,3.77,0,0,1,1.52,1.52Zm-6.09,3a3.75,3.75,0,0,0-1,2.76,3.8,3.8,0,0,0,1,2.78,3.34,3.34,0,0,0,2.51,1,3.48,3.48,0,0,0,1.72-.42,2.84,2.84,0,0,0,1.15-1.1,5.83,5.83,0,0,0,.57-1.48,3.69,3.69,0,0,0,0-1.62,6,6,0,0,0-.57-1.5,2.89,2.89,0,0,0-1.15-1.09,3.48,3.48,0,0,0-1.72-.42A3.33,3.33,0,0,0,198.77,925.41Z"/><path class="cls-5" d="M218.37,933.94v-6.16a3.6,3.6,0,0,0-.77-2.42,2.68,2.68,0,0,0-2.16-.9,2.75,2.75,0,0,0-2.17,1,3.62,3.62,0,0,0-.86,2.46v6h-2.27V922.41h2.07l.13,1.68a4.63,4.63,0,0,1,3.65-1.85,4.29,4.29,0,0,1,3.36,1.47,5.88,5.88,0,0,1,1.31,4v6.19Z"/><path class="cls-5" d="M234.47,917.62v16.32h-2.13l-.13-1.82a4,4,0,0,1-3.76,2,5.29,5.29,0,0,1-4-1.61,7.05,7.05,0,0,1,0-8.81,5.29,5.29,0,0,1,4-1.58,5,5,0,0,1,2.19.55,3.56,3.56,0,0,1,1.62,1.51v-6.61Zm-8.32,7.82a4.29,4.29,0,0,0,0,5.46,3.41,3.41,0,0,0,4.9,0,3.75,3.75,0,0,0,1-2.71,3.71,3.71,0,0,0-1-2.68,3.24,3.24,0,0,0-2.45-1A3.27,3.27,0,0,0,226.15,925.44Z"/><path class="cls-5" d="M247.41,919.12v3.33h3.17v2.08h-3.19V930q0,1.89,1.56,1.89a2.9,2.9,0,0,0,1.38-.4l.67,2.06a5.17,5.17,0,0,1-2.18.51,3.42,3.42,0,0,1-2.74-1,4.4,4.4,0,0,1-1-3.07v-5.49H243v-2.08h2.09v-3.08Z"/><path class="cls-5" d="M255.13,917.6v6.53a4,4,0,0,1,3.52-1.86,4,4,0,0,1,3.35,1.46,6.45,6.45,0,0,1,1.12,4v6.21h-2.27v-6.19a3.56,3.56,0,0,0-.72-2.41,2.53,2.53,0,0,0-2-.83,2.69,2.69,0,0,0-2.14,1,3.59,3.59,0,0,0-.85,2.44v6h-2.27V917.6Z"/><path class="cls-5" d="M267.74,929.08a3,3,0,0,0,1.11,2.1,3.69,3.69,0,0,0,2.43.8,4.83,4.83,0,0,0,1.77-.34,3.52,3.52,0,0,0,1.38-.9l1.47,1.52a5.52,5.52,0,0,1-2.08,1.45,6.82,6.82,0,0,1-2.58.51,5.61,5.61,0,0,1-4.26-1.66,6.8,6.8,0,0,1,0-8.75,5.37,5.37,0,0,1,4.11-1.68,5.3,5.3,0,0,1,4.25,1.77q1.51,1.77,1.21,5.18Zm6.62-2a2.78,2.78,0,0,0-1-2,3.74,3.74,0,0,0-4.44,0,3.36,3.36,0,0,0-1.18,2Z"/><path class="cls-5" d="M294.38,932.45a5.53,5.53,0,0,1-4.12,1.79,5.66,5.66,0,0,1-4.09-1.58,6.92,6.92,0,0,1,0-8.92,5.63,5.63,0,0,1,4.09-1.59,5.25,5.25,0,0,1,3.92,1.7l-1.45,1.61a3.46,3.46,0,0,0-4.93,0,3.78,3.78,0,0,0-1,2.72,3.69,3.69,0,0,0,1,2.73,3.37,3.37,0,0,0,2.46,1,3.34,3.34,0,0,0,2.58-1.08Z"/><path class="cls-5" d="M298.76,917.62v16.32h-2.27V917.62Z"/><path class="cls-5" d="M302.36,917.74a1.42,1.42,0,0,1,1.41,0,1.35,1.35,0,0,1,.71,1.3,1.41,1.41,0,1,1-2.82,0A1.34,1.34,0,0,1,302.36,917.74Zm-.44,4.64v11.56h2.27V922.38Z"/><path class="cls-5" d="M309,929.08a3.08,3.08,0,0,0,1.12,2.1,3.65,3.65,0,0,0,2.43.8,4.91,4.91,0,0,0,1.77-.34,3.41,3.41,0,0,0,1.37-.9l1.48,1.52a5.6,5.6,0,0,1-2.08,1.45,6.91,6.91,0,0,1-2.59.51,5.6,5.6,0,0,1-4.25-1.66,6.81,6.81,0,0,1,0-8.75,5.41,5.41,0,0,1,4.12-1.68,5.28,5.28,0,0,1,4.24,1.77c1,1.18,1.42,2.91,1.22,5.18Zm6.63-2a2.78,2.78,0,0,0-1-2,3.74,3.74,0,0,0-4.44,0,3.31,3.31,0,0,0-1.18,2Z"/><path class="cls-5" d="M328.3,933.94v-6.16a3.6,3.6,0,0,0-.77-2.42,2.67,2.67,0,0,0-2.15-.9,2.77,2.77,0,0,0-2.18,1,3.62,3.62,0,0,0-.86,2.46v6h-2.27V922.41h2.07l.13,1.68a4.64,4.64,0,0,1,3.65-1.85,4.29,4.29,0,0,1,3.36,1.47,5.88,5.88,0,0,1,1.31,4v6.19Z"/><path class="cls-5" d="M337,919.12v3.33h3.17v2.08H337V930q0,1.89,1.56,1.89a2.93,2.93,0,0,0,1.39-.4l.66,2.06a5.17,5.17,0,0,1-2.18.51,3.42,3.42,0,0,1-2.74-1,4.4,4.4,0,0,1-1-3.07v-5.49h-2.09v-2.08h2.09v-3.08Z"/><path class="cls-5" d="M342.89,931.35a1.38,1.38,0,0,1,1.39,0,1.48,1.48,0,1,1-1.39,2.62,1.56,1.56,0,0,1,0-2.62Z"/><path class="cls-5" d="M367.51,931.84a7.66,7.66,0,0,1-5.79,2.43,9,9,0,0,1-3.61-.7,6.63,6.63,0,0,1-2.55-1.9A8.32,8.32,0,0,1,354.1,929a10,10,0,0,1,0-6.29,9,9,0,0,1,1.47-2.73,6.74,6.74,0,0,1,2.56-2,8.64,8.64,0,0,1,3.58-.72,7.44,7.44,0,0,1,5.63,2.47l-1.65,1.68a5.29,5.29,0,0,0-4-1.68,5.14,5.14,0,0,0-4.22,1.8,6.42,6.42,0,0,0-1.46,4.27,6.53,6.53,0,0,0,1.46,4.22,5.14,5.14,0,0,0,4.22,1.74,5.79,5.79,0,0,0,4.09-1.78Z"/><path class="cls-5" d="M372,917.62v16.32H369.7V917.62Z"/><path class="cls-5" d="M375.58,917.74a1.42,1.42,0,0,1,1.41,0,1.34,1.34,0,0,1,.7,1.3,1.41,1.41,0,1,1-2.82,0A1.35,1.35,0,0,1,375.58,917.74Zm-.44,4.64v11.56h2.26V922.38Z"/><path class="cls-5" d="M382.18,929.08a3,3,0,0,0,1.11,2.1,3.69,3.69,0,0,0,2.43.8,4.83,4.83,0,0,0,1.77-.34,3.45,3.45,0,0,0,1.38-.9l1.47,1.52a5.44,5.44,0,0,1-2.08,1.45,6.82,6.82,0,0,1-2.58.51,5.61,5.61,0,0,1-4.26-1.66,6.13,6.13,0,0,1-1.6-4.43,6,6,0,0,1,1.59-4.32,5.37,5.37,0,0,1,4.11-1.68,5.3,5.3,0,0,1,4.25,1.77q1.51,1.77,1.21,5.18Zm6.62-2a2.78,2.78,0,0,0-1-2,3.74,3.74,0,0,0-4.44,0,3.36,3.36,0,0,0-1.18,2Z"/><path class="cls-5" d="M401.52,933.94v-6.16a3.6,3.6,0,0,0-.77-2.42,2.71,2.71,0,0,0-2.16-.9,2.77,2.77,0,0,0-2.18,1,3.67,3.67,0,0,0-.86,2.46v6h-2.26V922.41h2.07l.13,1.68a4.62,4.62,0,0,1,3.65-1.85,4.32,4.32,0,0,1,3.36,1.47,5.87,5.87,0,0,1,1.3,4v6.19Z"/><path class="cls-5" d="M410.21,919.12v3.33h3.16v2.08h-3.19V930c0,1.26.52,1.89,1.57,1.89a2.93,2.93,0,0,0,1.38-.4l.66,2.06a5.14,5.14,0,0,1-2.18.51,3.4,3.4,0,0,1-2.73-1,4.4,4.4,0,0,1-1-3.07v-5.49h-2.09v-2.08h2.09v-3.08Z"/><path class="cls-5" d="M432.93,917.62v16.32H430.8l-.13-1.82a4,4,0,0,1-3.77,2,5.28,5.28,0,0,1-4-1.61,7.05,7.05,0,0,1,0-8.81,5.29,5.29,0,0,1,4-1.58,5,5,0,0,1,2.19.55,3.56,3.56,0,0,1,1.62,1.51v-6.61Zm-8.33,7.82a4.29,4.29,0,0,0,0,5.46,3.42,3.42,0,0,0,4.91,0,3.75,3.75,0,0,0,1-2.71,3.71,3.71,0,0,0-1-2.68,3.25,3.25,0,0,0-2.45-1A3.29,3.29,0,0,0,424.6,925.44Z"/><path class="cls-5" d="M445,923.91a6.67,6.67,0,0,1,0,8.57,5.28,5.28,0,0,1-4.08,1.69,5.22,5.22,0,0,1-4.05-1.69,6.73,6.73,0,0,1,0-8.58,5.18,5.18,0,0,1,4-1.7A5.26,5.26,0,0,1,445,923.91Zm-6.47,1.6a4.37,4.37,0,0,0,0,5.35,3,3,0,0,0,2.42,1.07,3,3,0,0,0,2.43-1.07,4.32,4.32,0,0,0,0-5.34,3.17,3.17,0,0,0-4.81,0Z"/><path class="cls-5" d="M450.64,929.08a3,3,0,0,0,1.11,2.1,3.69,3.69,0,0,0,2.43.8,4.83,4.83,0,0,0,1.77-.34,3.38,3.38,0,0,0,1.38-.9l1.47,1.52a5.44,5.44,0,0,1-2.08,1.45,6.82,6.82,0,0,1-2.58.51,5.63,5.63,0,0,1-4.26-1.66,6.12,6.12,0,0,1-1.59-4.43,6,6,0,0,1,1.58-4.32,5.41,5.41,0,0,1,4.12-1.68,5.29,5.29,0,0,1,4.24,1.77c1,1.18,1.42,2.91,1.21,5.18Zm6.62-2a2.74,2.74,0,0,0-.95-2,3.76,3.76,0,0,0-4.45,0,3.36,3.36,0,0,0-1.18,2Z"/><path class="cls-5" d="M468.68,925.25a3.94,3.94,0,0,0-2.86-1.07,3.28,3.28,0,0,0-1.68.34,1.14,1.14,0,0,0-.63,1c0,.82.8,1.31,2.36,1.47a13.53,13.53,0,0,1,1.59.24,7.59,7.59,0,0,1,1.43.52,2.56,2.56,0,0,1,1.17,1.08,3.63,3.63,0,0,1,.4,1.78,3.28,3.28,0,0,1-1.27,2.64,5.2,5.2,0,0,1-3.35,1,6.13,6.13,0,0,1-4.95-2.12l1.19-1.71a4.89,4.89,0,0,0,3.81,1.71,3.26,3.26,0,0,0,1.6-.38,1.25,1.25,0,0,0,.71-1.12,1.14,1.14,0,0,0-.61-1.1,5.43,5.43,0,0,0-1.9-.49q-4.41-.44-4.42-3.45a2.91,2.91,0,0,1,1.37-2.63,5.75,5.75,0,0,1,3.14-.87,5.83,5.83,0,0,1,4.18,1.54Z"/><path class="cls-5" d="M487.32,933.94v-6.16a3.56,3.56,0,0,0-.78-2.42,2.67,2.67,0,0,0-2.15-.9,2.77,2.77,0,0,0-2.18,1,3.67,3.67,0,0,0-.86,2.46v6h-2.26V922.41h2.06l.14,1.68a4.62,4.62,0,0,1,3.65-1.85,4.28,4.28,0,0,1,3.35,1.47,5.83,5.83,0,0,1,1.31,4v6.19Z"/><path class="cls-5" d="M501.47,923.91a6.63,6.63,0,0,1,0,8.57,5.73,5.73,0,0,1-8.13,0,6.71,6.71,0,0,1,0-8.58,5.16,5.16,0,0,1,4-1.7A5.26,5.26,0,0,1,501.47,923.91Zm-6.47,1.6a4.41,4.41,0,0,0,0,5.35,3.28,3.28,0,0,0,4.85,0,4.28,4.28,0,0,0,0-5.34,3.17,3.17,0,0,0-4.81,0Z"/><path class="cls-5" d="M508.94,919.12v3.33h3.17v2.08h-3.19V930q0,1.89,1.56,1.89a2.93,2.93,0,0,0,1.39-.4l.66,2.06a5.17,5.17,0,0,1-2.18.51,3.42,3.42,0,0,1-2.74-1,4.4,4.4,0,0,1-1-3.07v-5.49h-2.09v-2.08h2.09v-3.08Z"/><path class="cls-5" d="M523,917.6v6.53a4,4,0,0,1,3.52-1.86,3.92,3.92,0,0,1,3.34,1.46,6.38,6.38,0,0,1,1.13,4v6.21h-2.27v-6.19a3.51,3.51,0,0,0-.73-2.41,2.49,2.49,0,0,0-2-.83,2.69,2.69,0,0,0-2.14,1,3.59,3.59,0,0,0-.85,2.44v6h-2.27V917.6Z"/><path class="cls-5" d="M542.65,922.43h2.2v11.51h-2.16l-.11-1.87a3.5,3.5,0,0,1-1.57,1.61,4.59,4.59,0,0,1-2.17.56,5.27,5.27,0,0,1-4-1.58,6.19,6.19,0,0,1-1.56-4.49,6,6,0,0,1,1.6-4.4,5.45,5.45,0,0,1,4-1.6,4.45,4.45,0,0,1,2.18.56,3.71,3.71,0,0,1,1.52,1.52Zm-6.1,3a3.8,3.8,0,0,0-1,2.76,3.84,3.84,0,0,0,1,2.78,3.34,3.34,0,0,0,2.51,1,3.54,3.54,0,0,0,1.73-.42,2.88,2.88,0,0,0,1.14-1.1,5.17,5.17,0,0,0,.57-1.48,3.41,3.41,0,0,0,0-1.62,5.3,5.3,0,0,0-.57-1.5,2.92,2.92,0,0,0-1.14-1.09,3.54,3.54,0,0,0-1.73-.42A3.33,3.33,0,0,0,536.55,925.41Z"/><path class="cls-5" d="M558.48,922.41,553.89,934H551.4l-4.62-11.58h2.51l1.45,3.71,1.91,5.34,1.72-4.87,1.63-4.18Z"/><path class="cls-5" d="M562.11,929.08a3.11,3.11,0,0,0,1.11,2.1,3.69,3.69,0,0,0,2.44.8,4.91,4.91,0,0,0,1.77-.34,3.41,3.41,0,0,0,1.37-.9l1.48,1.52a5.6,5.6,0,0,1-2.08,1.45,6.91,6.91,0,0,1-2.59.51,5.64,5.64,0,0,1-4.26-1.66,6.83,6.83,0,0,1,0-8.75,5.41,5.41,0,0,1,4.12-1.68,5.28,5.28,0,0,1,4.24,1.77c1,1.18,1.42,2.91,1.22,5.18Zm6.63-2a2.78,2.78,0,0,0-1-2,3.76,3.76,0,0,0-4.45,0,3.35,3.35,0,0,0-1.17,2Z"/><path class="cls-5" d="M583.08,919.12v3.33h3.17v2.08h-3.19V930q0,1.89,1.56,1.89a2.9,2.9,0,0,0,1.38-.4l.67,2.06a5.17,5.17,0,0,1-2.18.51,3.42,3.42,0,0,1-2.74-1,4.4,4.4,0,0,1-1-3.07v-5.49H578.7v-2.08h2.09v-3.08Z"/><path class="cls-5" d="M590.8,917.6v6.53a4,4,0,0,1,3.52-1.86,4,4,0,0,1,3.35,1.46,6.45,6.45,0,0,1,1.12,4v6.21h-2.27v-6.19a3.56,3.56,0,0,0-.72-2.41,2.53,2.53,0,0,0-2-.83,2.69,2.69,0,0,0-2.14,1,3.59,3.59,0,0,0-.85,2.44v6h-2.27V917.6Z"/><path class="cls-5" d="M603.41,929.08a3,3,0,0,0,1.11,2.1,3.69,3.69,0,0,0,2.43.8,4.83,4.83,0,0,0,1.77-.34,3.52,3.52,0,0,0,1.38-.9l1.47,1.52a5.52,5.52,0,0,1-2.08,1.45,6.82,6.82,0,0,1-2.58.51,5.61,5.61,0,0,1-4.26-1.66,6.8,6.8,0,0,1,0-8.75,5.37,5.37,0,0,1,4.11-1.68A5.3,5.3,0,0,1,611,923.9q1.51,1.77,1.21,5.18Zm6.62-2a2.78,2.78,0,0,0-1-2,3.74,3.74,0,0,0-4.44,0,3.36,3.36,0,0,0-1.18,2Z"/><path class="cls-5" d="M623,922.43l.15,1.52a3.31,3.31,0,0,1,3.19-1.78,3.77,3.77,0,0,1,2.69,1l-1,2.1a3,3,0,0,0-4,.12,3.12,3.12,0,0,0-.84,2.34v6.23h-2.27V922.43Z"/><path class="cls-5" d="M631,917.74a1.42,1.42,0,0,1,1.41,0,1.35,1.35,0,0,1,.71,1.3,1.41,1.41,0,1,1-2.82,0A1.34,1.34,0,0,1,631,917.74Zm-.44,4.64v11.56h2.27V922.38Z"/><path class="cls-5" d="M645.23,921.33l1.65,1.36-1.3,1.61a5.56,5.56,0,0,1,1.32,3.57,5,5,0,0,1-.73,2.73,4.38,4.38,0,0,1-2.15,1.75,3.78,3.78,0,0,1,2.86,3.76,4,4,0,0,1-1.73,3.46,6.84,6.84,0,0,1-4.08,1.23,6.21,6.21,0,0,1-4.24-1.36,4.58,4.58,0,0,1-1.48-3.75h2.27a2.24,2.24,0,0,0,1,2,4.31,4.31,0,0,0,2.48.76,4.65,4.65,0,0,0,2.42-.61,1.91,1.91,0,0,0,1-1.75,2.11,2.11,0,0,0-.93-1.84,4.21,4.21,0,0,0-2.48-.66,5.88,5.88,0,0,1-4.26-1.54,5.56,5.56,0,0,1-1.61-4.2,5.38,5.38,0,0,1,1.74-4.26,6.05,6.05,0,0,1,4.13-1.53,4.89,4.89,0,0,1,2.93.79Zm-6.66,3.91a3.82,3.82,0,0,0,0,5.22,3.67,3.67,0,0,0,2.56.93,3.6,3.6,0,0,0,2.5-6.11,3.51,3.51,0,0,0-2.5-1A3.74,3.74,0,0,0,638.57,925.24Z"/><path class="cls-5" d="M651.67,917.6v6.53a4,4,0,0,1,3.52-1.86,3.94,3.94,0,0,1,3.35,1.46,6.38,6.38,0,0,1,1.12,4v6.21h-2.27v-6.19a3.56,3.56,0,0,0-.72-2.41,2.5,2.5,0,0,0-2-.83,2.71,2.71,0,0,0-2.15,1,3.64,3.64,0,0,0-.85,2.44v6h-2.26V917.6Z"/><path class="cls-5" d="M666.08,919.12v3.33h3.17v2.08h-3.19V930q0,1.89,1.56,1.89a2.93,2.93,0,0,0,1.39-.4l.66,2.06a5.14,5.14,0,0,1-2.18.51,3.42,3.42,0,0,1-2.74-1,4.4,4.4,0,0,1-1-3.07v-5.49h-2.08v-2.08h2.08v-3.08Z"/><path class="cls-5" d="M681.4,919.12v3.33h3.16v2.08h-3.19V930c0,1.26.52,1.89,1.57,1.89a2.93,2.93,0,0,0,1.38-.4l.66,2.06a5.14,5.14,0,0,1-2.18.51,3.4,3.4,0,0,1-2.73-1,4.4,4.4,0,0,1-1-3.07v-5.49H677v-2.08h2.09v-3.08Z"/><path class="cls-5" d="M695.82,923.91a6.67,6.67,0,0,1,0,8.57,5.28,5.28,0,0,1-4.08,1.69,5.2,5.2,0,0,1-4-1.69,6.73,6.73,0,0,1,0-8.58,5.18,5.18,0,0,1,4-1.7A5.26,5.26,0,0,1,695.82,923.91Zm-6.47,1.6a4.37,4.37,0,0,0,0,5.35,3,3,0,0,0,2.42,1.07,3,3,0,0,0,2.43-1.07,4.32,4.32,0,0,0,0-5.34,3.17,3.17,0,0,0-4.81,0Z"/><path class="cls-5" d="M708.24,922.43v6.16A3.58,3.58,0,0,0,709,931a2.92,2.92,0,0,0,4.33-.1,3.65,3.65,0,0,0,.85-2.47v-6h2.26V934h-2l-.13-1.7a4.72,4.72,0,0,1-3.75,1.87,4.17,4.17,0,0,1-3.31-1.47,6,6,0,0,1-1.26-4v-6.19Z"/><path class="cls-5" d="M726.47,925.25a3.93,3.93,0,0,0-2.86-1.07,3.28,3.28,0,0,0-1.68.34,1.14,1.14,0,0,0-.63,1c0,.82.8,1.31,2.36,1.47a13.21,13.21,0,0,1,1.59.24,7.35,7.35,0,0,1,1.43.52,2.56,2.56,0,0,1,1.17,1.08,3.63,3.63,0,0,1,.41,1.78,3.29,3.29,0,0,1-1.28,2.64,5.19,5.19,0,0,1-3.34,1,6.14,6.14,0,0,1-5-2.12l1.19-1.71a4.89,4.89,0,0,0,3.81,1.71,3.3,3.3,0,0,0,1.61-.38,1.24,1.24,0,0,0,.7-1.12,1.14,1.14,0,0,0-.61-1.1,5.37,5.37,0,0,0-1.9-.49c-2.93-.29-4.41-1.44-4.42-3.45a2.93,2.93,0,0,1,1.37-2.63,6.3,6.3,0,0,1,7.32.67Z"/><path class="cls-5" d="M732.21,929.08a3.08,3.08,0,0,0,1.12,2.1,3.65,3.65,0,0,0,2.43.8,4.91,4.91,0,0,0,1.77-.34,3.41,3.41,0,0,0,1.37-.9l1.48,1.52a5.6,5.6,0,0,1-2.08,1.45,6.87,6.87,0,0,1-2.59.51,5.6,5.6,0,0,1-4.25-1.66,6.81,6.81,0,0,1,0-8.75,5.41,5.41,0,0,1,4.12-1.68,5.31,5.31,0,0,1,4.25,1.77q1.52,1.77,1.21,5.18Zm6.63-2a2.78,2.78,0,0,0-1-2,3.74,3.74,0,0,0-4.44,0,3.31,3.31,0,0,0-1.18,2Z"/><path class="cls-5" d="M758.65,923.91a6.67,6.67,0,0,1,0,8.57,5.73,5.73,0,0,1-8.13,0,6.73,6.73,0,0,1,0-8.58,5.18,5.18,0,0,1,4-1.7A5.26,5.26,0,0,1,758.65,923.91Zm-6.47,1.6a4.41,4.41,0,0,0,0,5.35,3,3,0,0,0,2.42,1.07,3,3,0,0,0,2.43-1.07,4.32,4.32,0,0,0,0-5.34,3.17,3.17,0,0,0-4.81,0Z"/><path class="cls-5" d="M764.73,922.43l.15,1.52a3.34,3.34,0,0,1,3.2-1.78,3.76,3.76,0,0,1,2.68,1l-1,2.1a3,3,0,0,0-4,.12,3.12,3.12,0,0,0-.84,2.34v6.23h-2.26V922.43Z"/><path class="cls-5" d="M780.35,929.08a3,3,0,0,0,1.11,2.1,3.69,3.69,0,0,0,2.43.8,4.83,4.83,0,0,0,1.77-.34,3.38,3.38,0,0,0,1.38-.9l1.47,1.52a5.44,5.44,0,0,1-2.08,1.45,6.82,6.82,0,0,1-2.58.51,5.61,5.61,0,0,1-4.26-1.66,6.12,6.12,0,0,1-1.59-4.43,6,6,0,0,1,1.58-4.32,5.4,5.4,0,0,1,4.11-1.68,5.3,5.3,0,0,1,4.25,1.77c1,1.18,1.42,2.91,1.21,5.18Zm6.62-2a2.81,2.81,0,0,0-1-2,3.76,3.76,0,0,0-4.45,0,3.36,3.36,0,0,0-1.18,2Z"/><path class="cls-5" d="M798,922.43h2.75v.07l-3.65,5.58,3.89,5.79v.07h-2.72l-2.67-4.18-2.66,4.18h-2.73v-.07l3.9-5.79-3.66-5.58v-.07h2.73l2.42,4.11Z"/><path class="cls-5" d="M804.46,929.08a3,3,0,0,0,1.11,2.1,3.69,3.69,0,0,0,2.43.8,4.83,4.83,0,0,0,1.77-.34,3.38,3.38,0,0,0,1.38-.9l1.47,1.52a5.44,5.44,0,0,1-2.08,1.45,6.82,6.82,0,0,1-2.58.51,5.63,5.63,0,0,1-4.26-1.66,6.12,6.12,0,0,1-1.59-4.43,6,6,0,0,1,1.58-4.32,5.41,5.41,0,0,1,4.12-1.68,5.29,5.29,0,0,1,4.24,1.77c1,1.18,1.42,2.91,1.21,5.18Zm6.62-2a2.74,2.74,0,0,0-1-2,3.76,3.76,0,0,0-4.45,0,3.36,3.36,0,0,0-1.18,2Z"/><path class="cls-5" d="M824.75,932.45a5.53,5.53,0,0,1-4.12,1.79,5.64,5.64,0,0,1-4.09-1.58,6.92,6.92,0,0,1,0-8.92,5.61,5.61,0,0,1,4.09-1.59,5.25,5.25,0,0,1,3.92,1.7l-1.45,1.61a3.46,3.46,0,0,0-4.93,0,3.78,3.78,0,0,0-1,2.72,3.69,3.69,0,0,0,1,2.73,3.37,3.37,0,0,0,2.46,1,3.34,3.34,0,0,0,2.58-1.08Z"/><path class="cls-5" d="M828.86,922.43v6.16a3.58,3.58,0,0,0,.78,2.41,2.72,2.72,0,0,0,2.17.91,2.69,2.69,0,0,0,2.16-1,3.65,3.65,0,0,0,.85-2.47v-6h2.27V934H835l-.13-1.7a4.7,4.7,0,0,1-3.74,1.87,4.16,4.16,0,0,1-3.31-1.47,6,6,0,0,1-1.27-4v-6.19Z"/><path class="cls-5" d="M843.67,919.12v3.33h3.16v2.08h-3.19V930c0,1.26.52,1.89,1.57,1.89a2.93,2.93,0,0,0,1.38-.4l.66,2.06a5.14,5.14,0,0,1-2.18.51,3.42,3.42,0,0,1-2.74-1,4.44,4.44,0,0,1-1-3.07v-5.49h-2.09v-2.08h2.09v-3.08Z"/><path class="cls-5" d="M850.81,929.08a3.08,3.08,0,0,0,1.12,2.1,3.65,3.65,0,0,0,2.43.8,4.91,4.91,0,0,0,1.77-.34,3.41,3.41,0,0,0,1.37-.9l1.48,1.52a5.6,5.6,0,0,1-2.08,1.45,6.91,6.91,0,0,1-2.59.51,5.6,5.6,0,0,1-4.25-1.66,6.81,6.81,0,0,1,0-8.75,5.41,5.41,0,0,1,4.12-1.68,5.31,5.31,0,0,1,4.25,1.77q1.51,1.77,1.21,5.18Zm6.63-2a2.78,2.78,0,0,0-1-2,3.74,3.74,0,0,0-4.44,0,3.31,3.31,0,0,0-1.18,2Z"/><path class="cls-5" d="M877,922.43h2.2v11.51H877l-.11-1.87a3.5,3.5,0,0,1-1.57,1.61,4.59,4.59,0,0,1-2.17.56,5.27,5.27,0,0,1-4-1.58,6.19,6.19,0,0,1-1.56-4.49,6,6,0,0,1,1.6-4.4,5.45,5.45,0,0,1,4-1.6,4.45,4.45,0,0,1,2.18.56,3.71,3.71,0,0,1,1.52,1.52Zm-6.1,3a3.8,3.8,0,0,0-1,2.76,3.84,3.84,0,0,0,1,2.78,3.35,3.35,0,0,0,2.51,1,3.54,3.54,0,0,0,1.73-.42,2.88,2.88,0,0,0,1.14-1.1,5.17,5.17,0,0,0,.57-1.48,3.41,3.41,0,0,0,0-1.62,5.3,5.3,0,0,0-.57-1.5,2.92,2.92,0,0,0-1.14-1.09,3.54,3.54,0,0,0-1.73-.42A3.34,3.34,0,0,0,870.9,925.41Z"/><path class="cls-5" d="M890.5,933.94v-6.16a3.55,3.55,0,0,0-.77-2.42,2.67,2.67,0,0,0-2.15-.9,2.77,2.77,0,0,0-2.18,1,3.67,3.67,0,0,0-.86,2.46v6h-2.27V922.41h2.07l.13,1.68a4.65,4.65,0,0,1,3.66-1.85,4.28,4.28,0,0,1,3.35,1.47,5.88,5.88,0,0,1,1.31,4v6.19Z"/><path class="cls-5" d="M906.08,922.43l-6.84,16.86h-2.51l2.24-5.51-4.33-11.35h2.64l1.87,5.44,1.08,3.27,1.16-3.22,2.16-5.49Z"/><path class="cls-5" d="M923.29,923.91a6.65,6.65,0,0,1,0,8.57,5.29,5.29,0,0,1-4.09,1.69,5.18,5.18,0,0,1-4-1.69,6.73,6.73,0,0,1,0-8.58,5.18,5.18,0,0,1,4-1.7A5.25,5.25,0,0,1,923.29,923.91Zm-6.47,1.6a4.11,4.11,0,0,0-.91,2.69,4,4,0,0,0,.9,2.66,3.29,3.29,0,0,0,4.86,0,4.3,4.3,0,0,0,0-5.34,3.17,3.17,0,0,0-4.81,0Z"/><path class="cls-5" d="M928.41,933.94v-9.25h-2.07v-2.12h2.07v-.84a4.45,4.45,0,0,1,1.09-3.22,3.73,3.73,0,0,1,2.82-1.15,4.6,4.6,0,0,1,2.67.91l-.88,1.8a3,3,0,0,0-1.65-.61,1.58,1.58,0,0,0-1.29.58,2.56,2.56,0,0,0-.47,1.69v.84H934v2.12H930.7v9.25Z"/><path class="cls-5" d="M945.7,919.12v3.33h3.17v2.08h-3.19V930q0,1.89,1.56,1.89a2.93,2.93,0,0,0,1.39-.4l.66,2.06a5.17,5.17,0,0,1-2.18.51,3.42,3.42,0,0,1-2.74-1,4.4,4.4,0,0,1-1-3.07v-5.49h-2.09v-2.08h2.09v-3.08Z"/><path class="cls-5" d="M953.42,917.6v6.53a4,4,0,0,1,3.52-1.86,4,4,0,0,1,3.35,1.46,6.45,6.45,0,0,1,1.12,4v6.21h-2.27v-6.19a3.56,3.56,0,0,0-.72-2.41,2.53,2.53,0,0,0-2-.83,2.69,2.69,0,0,0-2.14,1,3.59,3.59,0,0,0-.85,2.44v6h-2.27V917.6Z"/><path class="cls-5" d="M966,929.08a3,3,0,0,0,1.11,2.1,3.69,3.69,0,0,0,2.43.8,4.83,4.83,0,0,0,1.77-.34,3.45,3.45,0,0,0,1.38-.9l1.47,1.52a5.44,5.44,0,0,1-2.08,1.45,6.82,6.82,0,0,1-2.58.51,5.61,5.61,0,0,1-4.26-1.66,6.13,6.13,0,0,1-1.6-4.43,6,6,0,0,1,1.59-4.32,5.37,5.37,0,0,1,4.11-1.68,5.3,5.3,0,0,1,4.25,1.77q1.51,1.77,1.21,5.18Zm6.62-2a2.78,2.78,0,0,0-1-2,3.74,3.74,0,0,0-4.44,0,3.36,3.36,0,0,0-1.18,2Z"/><path class="cls-5" d="M992.67,932.45a5.52,5.52,0,0,1-4.12,1.79,5.66,5.66,0,0,1-4.09-1.58,6.92,6.92,0,0,1,0-8.92,5.63,5.63,0,0,1,4.09-1.59,5.23,5.23,0,0,1,3.92,1.7L991,925.46a3.46,3.46,0,0,0-4.93,0,3.78,3.78,0,0,0-1,2.72,3.69,3.69,0,0,0,1,2.73,3.37,3.37,0,0,0,2.46,1,3.34,3.34,0,0,0,2.58-1.08Z"/><path class="cls-5" d="M1003.66,923.91a6.67,6.67,0,0,1,0,8.57,5.73,5.73,0,0,1-8.13,0,6.73,6.73,0,0,1,0-8.58,5.2,5.2,0,0,1,4-1.7A5.26,5.26,0,0,1,1003.66,923.91Zm-6.47,1.6a4.41,4.41,0,0,0,0,5.35,3,3,0,0,0,2.42,1.07,3,3,0,0,0,2.43-1.07,4.32,4.32,0,0,0,0-5.34,3.17,3.17,0,0,0-4.81,0Z"/><path class="cls-5" d="M1015.86,933.94v-6.16a3.6,3.6,0,0,0-.77-2.42,2.69,2.69,0,0,0-2.16-.9,2.77,2.77,0,0,0-2.18,1,3.67,3.67,0,0,0-.86,2.46v6h-2.26V922.41h2.07l.13,1.68a4.63,4.63,0,0,1,3.65-1.85,4.32,4.32,0,0,1,3.36,1.47,5.88,5.88,0,0,1,1.31,4v6.19Z"/><path class="cls-5" d="M1030.22,932.45a5.49,5.49,0,0,1-4.11,1.79,5.64,5.64,0,0,1-4.09-1.58,6.92,6.92,0,0,1,0-8.92,5.61,5.61,0,0,1,4.09-1.59,5.26,5.26,0,0,1,3.92,1.7l-1.46,1.61a3.46,3.46,0,0,0-4.93,0,3.78,3.78,0,0,0-1,2.72,3.69,3.69,0,0,0,1,2.73,3.39,3.39,0,0,0,2.47,1,3.32,3.32,0,0,0,2.57-1.08Z"/><path class="cls-5" d="M1033.94,929.08a3,3,0,0,0,1.11,2.1,3.69,3.69,0,0,0,2.43.8,4.83,4.83,0,0,0,1.77-.34,3.38,3.38,0,0,0,1.38-.9l1.47,1.52a5.44,5.44,0,0,1-2.08,1.45,6.82,6.82,0,0,1-2.58.51,5.61,5.61,0,0,1-4.26-1.66,6.13,6.13,0,0,1-1.6-4.43,6,6,0,0,1,1.59-4.32,5.4,5.4,0,0,1,4.11-1.68,5.3,5.3,0,0,1,4.25,1.77c1,1.18,1.42,2.91,1.21,5.18Zm6.62-2a2.81,2.81,0,0,0-1-2,3.76,3.76,0,0,0-4.45,0,3.36,3.36,0,0,0-1.18,2Z"/><path class="cls-5" d="M1045.05,939.29V922.43h2.13l.14,1.87a4,4,0,0,1,1.63-1.55,4.62,4.62,0,0,1,2.19-.55,5.14,5.14,0,0,1,3.95,1.7,6.13,6.13,0,0,1,1.53,4.3,6.3,6.3,0,0,1-1.49,4.32,5.09,5.09,0,0,1-4,1.68,5.35,5.35,0,0,1-2.19-.48,3.51,3.51,0,0,1-1.63-1.46v7Zm8.34-8.46a4.11,4.11,0,0,0,0-5.28,3.23,3.23,0,0,0-2.49-1,3.15,3.15,0,0,0-2.47,1.05,3.81,3.81,0,0,0-.94,2.62,3.73,3.73,0,0,0,1,2.61,3.19,3.19,0,0,0,2.44,1.05A3.24,3.24,0,0,0,1053.39,930.83Z"/><path class="cls-5" d="M1062.54,919.12v3.33h3.17v2.08h-3.19V930q0,1.89,1.56,1.89a3,3,0,0,0,1.39-.4l.66,2.06a5.17,5.17,0,0,1-2.18.51,3.42,3.42,0,0,1-2.74-1,4.4,4.4,0,0,1-1-3.07v-5.49h-2.09v-2.08h2.09v-3.08Z"/><path class="cls-5" d="M1074.93,925.25a4,4,0,0,0-2.86-1.07,3.3,3.3,0,0,0-1.69.34,1.13,1.13,0,0,0-.62,1c0,.82.79,1.31,2.35,1.47a13.41,13.41,0,0,1,1.6.24,7.85,7.85,0,0,1,1.43.52,2.58,2.58,0,0,1,1.16,1.08,3.63,3.63,0,0,1,.41,1.78,3.29,3.29,0,0,1-1.28,2.64,5.17,5.17,0,0,1-3.34,1,6.13,6.13,0,0,1-4.95-2.12l1.19-1.71a4.86,4.86,0,0,0,3.8,1.71,3.3,3.3,0,0,0,1.61-.38,1.24,1.24,0,0,0,.7-1.12,1.14,1.14,0,0,0-.6-1.1,5.49,5.49,0,0,0-1.91-.49q-4.4-.44-4.42-3.45a2.91,2.91,0,0,1,1.38-2.63,5.71,5.71,0,0,1,3.13-.87,5.82,5.82,0,0,1,4.18,1.54Z"/><path class="cls-5" d="M117.13,948.81l2.59,9.06,2.69-9.06h2.53l-3.81,11.58h-2.64l-1.27-3.83-1.06-4-1.08,4-1.27,3.83h-2.64l-3.83-11.58h2.55l2.68,9.06,2.6-9.06Z"/><path class="cls-5" d="M127.45,944.14a1.4,1.4,0,0,1,1.4,0,1.41,1.41,0,1,1-1.4,0Zm-.45,4.64v11.56h2.27V948.78Z"/><path class="cls-5" d="M135.85,945.52v3.33H139v2.08h-3.19v5.49q0,1.89,1.56,1.89a3,3,0,0,0,1.39-.4l.66,2.06a5.17,5.17,0,0,1-2.18.51,3.42,3.42,0,0,1-2.74-1,4.4,4.4,0,0,1-1-3.07v-5.49h-2.09v-2.08h2.09v-3.08Z"/><path class="cls-5" d="M143.57,944v6.53a4,4,0,0,1,3.52-1.86,4,4,0,0,1,3.35,1.46,6.45,6.45,0,0,1,1.12,4v6.21h-2.27v-6.19a3.56,3.56,0,0,0-.72-2.41,2.53,2.53,0,0,0-2-.83,2.69,2.69,0,0,0-2.14,1,3.61,3.61,0,0,0-.85,2.44v6H141.3V944Z"/><path class="cls-5" d="M163.45,950.31a6.67,6.67,0,0,1,0,8.57,5.73,5.73,0,0,1-8.13,0,6.73,6.73,0,0,1,0-8.58,5.66,5.66,0,0,1,8.1,0Zm-6.47,1.6a4.06,4.06,0,0,0-.91,2.69,4,4,0,0,0,.9,2.66,3,3,0,0,0,2.42,1.07,3,3,0,0,0,2.43-1.07,4.32,4.32,0,0,0,0-5.34,3.17,3.17,0,0,0-4.81,0Z"/><path class="cls-5" d="M169.51,948.83V955a3.58,3.58,0,0,0,.78,2.41,2.72,2.72,0,0,0,2.17.91,2.69,2.69,0,0,0,2.16-1,3.65,3.65,0,0,0,.85-2.47v-6h2.27v11.53h-2.05l-.13-1.7a4.7,4.7,0,0,1-3.74,1.87,4.14,4.14,0,0,1-3.31-1.47,6,6,0,0,1-1.27-4v-6.19Z"/><path class="cls-5" d="M184.32,945.52v3.33h3.16v2.08h-3.19v5.49c0,1.26.52,1.89,1.57,1.89a2.93,2.93,0,0,0,1.38-.4l.66,2.06a5.14,5.14,0,0,1-2.18.51,3.44,3.44,0,0,1-2.74-1,4.44,4.44,0,0,1-.95-3.07v-5.49h-2.09v-2.08H182v-3.08Z"/><path class="cls-5" d="M204.25,948.83h2.2v11.51h-2.16l-.11-1.87a3.5,3.5,0,0,1-1.57,1.61,4.56,4.56,0,0,1-2.17.56,5.24,5.24,0,0,1-4-1.58,6.16,6.16,0,0,1-1.57-4.49,6,6,0,0,1,1.6-4.4,5.46,5.46,0,0,1,4-1.6,4.44,4.44,0,0,1,2.17.56,3.71,3.71,0,0,1,1.52,1.52Zm-6.1,3a3.8,3.8,0,0,0-1,2.76,3.84,3.84,0,0,0,1,2.78,3.35,3.35,0,0,0,2.51,1,3.52,3.52,0,0,0,1.73-.42,2.81,2.81,0,0,0,1.14-1.1,5.17,5.17,0,0,0,.57-1.48,3.41,3.41,0,0,0,0-1.62,5.24,5.24,0,0,0-.57-1.49,2.81,2.81,0,0,0-1.14-1.1,3.52,3.52,0,0,0-1.73-.42A3.34,3.34,0,0,0,198.15,951.81Z"/><path class="cls-5" d="M224.07,948.81l2.6,9.06,2.68-9.06h2.53l-3.81,11.58h-2.64l-1.27-3.83-1.06-4-1.08,4-1.27,3.83h-2.64l-3.83-11.58h2.55l2.68,9.06,2.6-9.06Z"/><path class="cls-5" d="M236.06,948.83l.15,1.52a3.34,3.34,0,0,1,3.19-1.78,3.77,3.77,0,0,1,2.69,1l-1,2.11a2.82,2.82,0,0,0-1.91-.7,2.88,2.88,0,0,0-2.09.81,3.12,3.12,0,0,0-.84,2.34v6.23H234V948.83Z"/><path class="cls-5" d="M244.07,944.14a1.4,1.4,0,0,1,1.4,0,1.41,1.41,0,1,1-1.4,0Zm-.45,4.64v11.56h2.27V948.78Z"/><path class="cls-5" d="M252.47,945.52v3.33h3.17v2.08h-3.19v5.49q0,1.89,1.56,1.89a3,3,0,0,0,1.39-.4l.66,2.06a5.17,5.17,0,0,1-2.18.51,3.42,3.42,0,0,1-2.74-1,4.4,4.4,0,0,1-1-3.07v-5.49h-2.09v-2.08h2.09v-3.08Z"/><path class="cls-5" d="M261.42,945.52v3.33h3.17v2.08H261.4v5.49q0,1.89,1.56,1.89a2.93,2.93,0,0,0,1.39-.4L265,960a5.14,5.14,0,0,1-2.18.51,3.42,3.42,0,0,1-2.74-1,4.4,4.4,0,0,1-1-3.07v-5.49H257v-2.08h2.09v-3.08Z"/><path class="cls-5" d="M268.57,955.48a3.11,3.11,0,0,0,1.11,2.1,3.69,3.69,0,0,0,2.44.8,4.91,4.91,0,0,0,1.77-.34,3.41,3.41,0,0,0,1.37-.9l1.48,1.52a5.6,5.6,0,0,1-2.08,1.45,6.91,6.91,0,0,1-2.59.51,5.64,5.64,0,0,1-4.26-1.66,6.83,6.83,0,0,1,0-8.75,5.41,5.41,0,0,1,4.12-1.68,5.28,5.28,0,0,1,4.24,1.77c1,1.18,1.42,2.91,1.22,5.18Zm6.63-2a2.78,2.78,0,0,0-1-2.05,3.76,3.76,0,0,0-4.45,0,3.35,3.35,0,0,0-1.17,2.05Z"/><path class="cls-5" d="M287.91,960.34v-6.16a3.57,3.57,0,0,0-.77-2.42,2.67,2.67,0,0,0-2.15-.9,2.74,2.74,0,0,0-2.18,1,3.63,3.63,0,0,0-.86,2.45v6h-2.27V948.81h2.07l.13,1.68a4.65,4.65,0,0,1,3.66-1.85,4.28,4.28,0,0,1,3.35,1.47,5.88,5.88,0,0,1,1.31,4v6.19Z"/><path class="cls-5" d="M307.58,948.83h2.2v11.51h-2.16l-.11-1.87a3.45,3.45,0,0,1-1.57,1.61,4.53,4.53,0,0,1-2.17.56,5.24,5.24,0,0,1-4-1.58,6.19,6.19,0,0,1-1.56-4.49,6,6,0,0,1,1.59-4.4,5.47,5.47,0,0,1,4-1.6,4.51,4.51,0,0,1,2.18.56,3.68,3.68,0,0,1,1.51,1.52Zm-6.1,3a3.8,3.8,0,0,0-1,2.76,3.84,3.84,0,0,0,1,2.78,3.37,3.37,0,0,0,2.51,1,3.52,3.52,0,0,0,1.73-.42,2.75,2.75,0,0,0,1.14-1.1,5.5,5.5,0,0,0,.58-1.48,3.69,3.69,0,0,0,0-1.62,5.57,5.57,0,0,0-.58-1.49,2.75,2.75,0,0,0-1.14-1.1,3.52,3.52,0,0,0-1.73-.42A3.36,3.36,0,0,0,301.48,951.81Z"/><path class="cls-5" d="M312.86,965.69V948.83H315l.13,1.87a4.08,4.08,0,0,1,1.64-1.55,4.62,4.62,0,0,1,2.19-.55,5.14,5.14,0,0,1,3.95,1.7,6.13,6.13,0,0,1,1.53,4.3,6.26,6.26,0,0,1-1.5,4.32,5.05,5.05,0,0,1-4,1.68,5.28,5.28,0,0,1-2.19-.48,3.54,3.54,0,0,1-1.64-1.46v7Zm8.34-8.46a4.11,4.11,0,0,0,0-5.28,3.23,3.23,0,0,0-2.49-1,3.15,3.15,0,0,0-2.47,1.05,3.76,3.76,0,0,0-.94,2.62,3.69,3.69,0,0,0,1,2.61,3.19,3.19,0,0,0,2.44,1A3.24,3.24,0,0,0,321.2,957.23Z"/><path class="cls-5" d="M326.85,965.69V948.83H329l.14,1.87a4,4,0,0,1,1.63-1.55,4.62,4.62,0,0,1,2.19-.55,5.12,5.12,0,0,1,3.95,1.7,6.13,6.13,0,0,1,1.53,4.3,6.3,6.3,0,0,1-1.49,4.32,5.09,5.09,0,0,1-4,1.68,5.35,5.35,0,0,1-2.19-.48,3.51,3.51,0,0,1-1.63-1.46v7Zm8.34-8.46a4.11,4.11,0,0,0,0-5.28,3.23,3.23,0,0,0-2.49-1,3.15,3.15,0,0,0-2.47,1.05,3.81,3.81,0,0,0-.94,2.62,3.73,3.73,0,0,0,1,2.61,3.19,3.19,0,0,0,2.44,1A3.24,3.24,0,0,0,335.19,957.23Z"/><path class="cls-5" d="M343,948.83l.16,1.52a3.33,3.33,0,0,1,3.19-1.78,3.75,3.75,0,0,1,2.68,1l-1,2.11A2.82,2.82,0,0,0,346,951a2.9,2.9,0,0,0-2.09.81,3.15,3.15,0,0,0-.83,2.34v6.23h-2.27V948.83Z"/><path class="cls-5" d="M359.49,950.31a6.67,6.67,0,0,1,0,8.57,5.28,5.28,0,0,1-4.08,1.69,5.2,5.2,0,0,1-4.05-1.69,6.73,6.73,0,0,1,0-8.58,5.22,5.22,0,0,1,4-1.7A5.28,5.28,0,0,1,359.49,950.31Zm-6.47,1.6a4.06,4.06,0,0,0-.92,2.69,4,4,0,0,0,.91,2.66,3,3,0,0,0,2.42,1.07,3,3,0,0,0,2.43-1.07,4.32,4.32,0,0,0,0-5.34,3.17,3.17,0,0,0-4.81,0Z"/><path class="cls-5" d="M374,948.81l-4.6,11.58h-2.49l-4.62-11.58h2.51l1.45,3.71,1.92,5.35L369.9,953l1.63-4.18Z"/><path class="cls-5" d="M384.67,948.83h2.2v11.51h-2.16l-.11-1.87a3.5,3.5,0,0,1-1.57,1.61,4.59,4.59,0,0,1-2.17.56,5.27,5.27,0,0,1-4-1.58,6.19,6.19,0,0,1-1.56-4.49,6,6,0,0,1,1.6-4.4,5.45,5.45,0,0,1,4-1.6,4.45,4.45,0,0,1,2.18.56,3.71,3.71,0,0,1,1.52,1.52Zm-6.1,3a3.8,3.8,0,0,0-1,2.76,3.84,3.84,0,0,0,1,2.78,3.35,3.35,0,0,0,2.51,1,3.54,3.54,0,0,0,1.73-.42,2.88,2.88,0,0,0,1.14-1.1,5.17,5.17,0,0,0,.57-1.48,3.41,3.41,0,0,0,0-1.62,5.24,5.24,0,0,0-.57-1.49,2.88,2.88,0,0,0-1.14-1.1,3.54,3.54,0,0,0-1.73-.42A3.34,3.34,0,0,0,378.57,951.81Z"/><path class="cls-5" d="M392.3,944v16.32H390V944Z"/><path class="cls-5" d="M402.38,960.34v-9.25h-2.07V949h2.07v-.84a4.51,4.51,0,0,1,1.08-3.22,3.75,3.75,0,0,1,2.83-1.15,4.55,4.55,0,0,1,2.66.91l-.88,1.8a2.94,2.94,0,0,0-1.65-.6,1.57,1.57,0,0,0-1.28.57,2.56,2.56,0,0,0-.48,1.69V949h3.28v2.12h-3.28v9.25Z"/><path class="cls-5" d="M411.92,948.83l.16,1.52a3.33,3.33,0,0,1,3.19-1.78,3.75,3.75,0,0,1,2.68,1l-1,2.11A2.84,2.84,0,0,0,415,951a2.9,2.9,0,0,0-2.09.81,3.11,3.11,0,0,0-.83,2.34v6.23h-2.27V948.83Z"/><path class="cls-5" d="M428.46,950.31a6.67,6.67,0,0,1,0,8.57,5.28,5.28,0,0,1-4.08,1.69,5.19,5.19,0,0,1-4-1.69,6.73,6.73,0,0,1,0-8.58,5.22,5.22,0,0,1,4-1.7A5.28,5.28,0,0,1,428.46,950.31Zm-6.47,1.6a4.06,4.06,0,0,0-.92,2.69,4,4,0,0,0,.91,2.66,3,3,0,0,0,2.42,1.07,3,3,0,0,0,2.43-1.07,4.3,4.3,0,0,0,0-5.34,3.16,3.16,0,0,0-4.8,0Z"/><path class="cls-5" d="M439.84,960.34V954a3.63,3.63,0,0,0-.68-2.23,2.2,2.2,0,0,0-1.85-.9,2.31,2.31,0,0,0-1.89.91,3.43,3.43,0,0,0-.73,2.22v6.33h-2.26V948.81h2.11l.15,1.54A2.88,2.88,0,0,1,436,949a3.85,3.85,0,0,1,1.77-.42,3.3,3.3,0,0,1,3.41,2.31,3.93,3.93,0,0,1,3.72-2.29,4.23,4.23,0,0,1,3.41,1.4,5.93,5.93,0,0,1,1.19,3.93v6.37h-2.29V954a3.68,3.68,0,0,0-.62-2.21,2,2,0,0,0-1.78-.85,2.33,2.33,0,0,0-1.91.9,3.36,3.36,0,0,0-.73,2.2v6.33Z"/><path class="cls-5" d="M469.92,960.34H458.54V944h11.31v2.54H461V951h8.5v2.42H461v4.39h8.92Z"/><path class="cls-5" d="M479.62,951.66a3.92,3.92,0,0,0-2.86-1.08,3.3,3.3,0,0,0-1.69.34,1.15,1.15,0,0,0-.62,1c0,.82.8,1.31,2.35,1.47a13.41,13.41,0,0,1,1.6.24,7.85,7.85,0,0,1,1.43.52,2.58,2.58,0,0,1,1.16,1.08,3.63,3.63,0,0,1,.41,1.78,3.29,3.29,0,0,1-1.28,2.64,5.17,5.17,0,0,1-3.34,1,6.13,6.13,0,0,1-4.95-2.12l1.19-1.71a4.86,4.86,0,0,0,3.8,1.71,3.3,3.3,0,0,0,1.61-.38,1.24,1.24,0,0,0,.7-1.12,1.12,1.12,0,0,0-.6-1.1,5.49,5.49,0,0,0-1.91-.49q-4.39-.43-4.42-3.45a2.91,2.91,0,0,1,1.38-2.63,5.71,5.71,0,0,1,3.13-.87,5.82,5.82,0,0,1,4.18,1.54Z"/><path class="cls-5" d="M486,944v9.53l4-4.72h2.75V949L488,954.25l5.33,5.93v.16h-2.78L486,955v5.32h-2.29V944Z"/><path class="cls-5" d="M496.67,955.48a3,3,0,0,0,1.11,2.1,3.65,3.65,0,0,0,2.43.8A4.91,4.91,0,0,0,502,958a3.41,3.41,0,0,0,1.37-.9l1.48,1.52a5.52,5.52,0,0,1-2.08,1.45,6.87,6.87,0,0,1-2.59.51,5.6,5.6,0,0,1-4.25-1.66,6.8,6.8,0,0,1,0-8.75,5.37,5.37,0,0,1,4.11-1.68,5.31,5.31,0,0,1,4.25,1.77q1.51,1.77,1.21,5.18Zm6.62-2a2.78,2.78,0,0,0-1-2.05,3.74,3.74,0,0,0-4.44,0,3.31,3.31,0,0,0-1.18,2.05Z"/><path class="cls-5" d="M510.13,944v16.32h-2.27V944Z"/><path class="cls-5" d="M522,948.83h2.2v11.51h-2.16l-.11-1.87a3.45,3.45,0,0,1-1.57,1.61,4.53,4.53,0,0,1-2.17.56,5.25,5.25,0,0,1-4-1.58,6.19,6.19,0,0,1-1.56-4.49,6,6,0,0,1,1.59-4.4,5.47,5.47,0,0,1,4-1.6,4.48,4.48,0,0,1,2.18.56,3.68,3.68,0,0,1,1.51,1.52Zm-6.09,3a3.76,3.76,0,0,0-1,2.76,3.81,3.81,0,0,0,1,2.78,3.33,3.33,0,0,0,2.5,1,3.52,3.52,0,0,0,1.73-.42,2.75,2.75,0,0,0,1.14-1.1,5.5,5.5,0,0,0,.58-1.48,3.69,3.69,0,0,0,0-1.62,5.57,5.57,0,0,0-.58-1.49,2.75,2.75,0,0,0-1.14-1.1,3.52,3.52,0,0,0-1.73-.42A3.32,3.32,0,0,0,515.92,951.81Z"/><path class="cls-5" d="M529.55,944v6.53a4,4,0,0,1,3.53-1.86,3.93,3.93,0,0,1,3.34,1.46,6.38,6.38,0,0,1,1.12,4v6.21h-2.26v-6.19a3.56,3.56,0,0,0-.73-2.41,2.49,2.49,0,0,0-2-.83,2.71,2.71,0,0,0-2.15,1,3.66,3.66,0,0,0-.85,2.44v6h-2.26V944Z"/><path class="cls-5" d="M555.2,950.31a6.67,6.67,0,0,1,0,8.57,5.28,5.28,0,0,1-4.08,1.69,5.2,5.2,0,0,1-4-1.69,6.73,6.73,0,0,1,0-8.58,5.22,5.22,0,0,1,4-1.7A5.28,5.28,0,0,1,555.2,950.31Zm-6.47,1.6a4.06,4.06,0,0,0-.92,2.69,4,4,0,0,0,.91,2.66,3,3,0,0,0,2.42,1.07,3,3,0,0,0,2.43-1.07,4.32,4.32,0,0,0,0-5.34,3.17,3.17,0,0,0-4.81,0Z"/><path class="cls-5" d="M561.28,948.83l.15,1.52a3.34,3.34,0,0,1,3.19-1.78,3.77,3.77,0,0,1,2.69,1l-1,2.11a2.82,2.82,0,0,0-1.91-.7,2.88,2.88,0,0,0-2.09.81,3.12,3.12,0,0,0-.84,2.34v6.23h-2.26V948.83Z"/><path class="cls-5" d="M583.58,950.31a6.67,6.67,0,0,1,0,8.57,5.28,5.28,0,0,1-4.08,1.69,5.19,5.19,0,0,1-4-1.69,6.73,6.73,0,0,1,0-8.58,5.22,5.22,0,0,1,4-1.7A5.28,5.28,0,0,1,583.58,950.31Zm-6.47,1.6a4.06,4.06,0,0,0-.92,2.69,4,4,0,0,0,.91,2.66,3,3,0,0,0,2.42,1.07,3,3,0,0,0,2.43-1.07,4,4,0,0,0,.91-2.66,4,4,0,0,0-.94-2.68,3,3,0,0,0-2.4-1.11A3,3,0,0,0,577.11,951.91Z"/><path class="cls-5" d="M588.69,960.34v-9.25h-2.07V949h2.07v-.84a4.47,4.47,0,0,1,1.09-3.22,3.75,3.75,0,0,1,2.83-1.15,4.57,4.57,0,0,1,2.66.91l-.88,1.8a3,3,0,0,0-1.65-.6,1.6,1.6,0,0,0-1.29.57,2.62,2.62,0,0,0-.47,1.69V949h3.28v2.12H591v9.25Z"/><path class="cls-5" d="M602.55,946.26a2.62,2.62,0,0,0-1.3-.39,1.6,1.6,0,0,0-1.29.57,2.62,2.62,0,0,0-.47,1.69V949h3.24v2.1h-3.24v9.27H597.2v-9.27h-2V949h2v-.84a4.51,4.51,0,0,1,1.09-3.22,3.75,3.75,0,0,1,2.83-1.15,4.43,4.43,0,0,1,2.16.61Zm1.47-.81a1.41,1.41,0,1,0,2.82,0,1.35,1.35,0,0,0-.7-1.31,1.42,1.42,0,0,0-1.41,0A1.35,1.35,0,0,0,604,945.45Zm2.56,3.33v11.56h-2.29V948.78Z"/><path class="cls-5" d="M618.79,958.85a5.53,5.53,0,0,1-4.12,1.79,5.66,5.66,0,0,1-4.09-1.58,6.92,6.92,0,0,1,0-8.92,5.63,5.63,0,0,1,4.09-1.59,5.25,5.25,0,0,1,3.92,1.7l-1.45,1.62a3.45,3.45,0,0,0-4.93,0,3.78,3.78,0,0,0-1,2.72,3.69,3.69,0,0,0,1,2.73,3.37,3.37,0,0,0,2.46,1,3.34,3.34,0,0,0,2.58-1.08Z"/><path class="cls-5" d="M621.25,944.14a1.42,1.42,0,0,1,1.41,0,1.58,1.58,0,0,1,0,2.62,1.42,1.42,0,0,1-2.12-1.31A1.35,1.35,0,0,1,621.25,944.14Zm-.44,4.64v11.56h2.27V948.78Z"/><path class="cls-5" d="M634.87,948.83h2.2v11.51h-2.16l-.11-1.87a3.5,3.5,0,0,1-1.57,1.61,4.53,4.53,0,0,1-2.17.56,5.24,5.24,0,0,1-4-1.58,6.19,6.19,0,0,1-1.56-4.49,6,6,0,0,1,1.59-4.4,5.46,5.46,0,0,1,4-1.6,4.44,4.44,0,0,1,2.17.56,3.71,3.71,0,0,1,1.52,1.52Zm-6.1,3a3.8,3.8,0,0,0-1,2.76,3.84,3.84,0,0,0,1,2.78,3.37,3.37,0,0,0,2.51,1A3.52,3.52,0,0,0,633,958a2.75,2.75,0,0,0,1.14-1.1,5.5,5.5,0,0,0,.58-1.48,3.69,3.69,0,0,0,0-1.62,5.57,5.57,0,0,0-.58-1.49,2.75,2.75,0,0,0-1.14-1.1,3.52,3.52,0,0,0-1.73-.42A3.36,3.36,0,0,0,628.77,951.81Z"/><path class="cls-5" d="M642.5,944v16.32h-2.27V944Z"/><path class="cls-5" d="M660.15,948.83h2.2v11.51h-2.16l-.11-1.87a3.5,3.5,0,0,1-1.57,1.61,4.59,4.59,0,0,1-2.17.56,5.27,5.27,0,0,1-4-1.58,6.19,6.19,0,0,1-1.56-4.49,6,6,0,0,1,1.6-4.4,5.45,5.45,0,0,1,4-1.6,4.45,4.45,0,0,1,2.18.56,3.71,3.71,0,0,1,1.52,1.52Zm-6.1,3a3.8,3.8,0,0,0-1,2.76,3.84,3.84,0,0,0,1,2.78,3.35,3.35,0,0,0,2.51,1,3.52,3.52,0,0,0,1.73-.42,2.88,2.88,0,0,0,1.14-1.1,5.17,5.17,0,0,0,.57-1.48,3.41,3.41,0,0,0,0-1.62,5.24,5.24,0,0,0-.57-1.49,2.88,2.88,0,0,0-1.14-1.1,3.52,3.52,0,0,0-1.73-.42A3.34,3.34,0,0,0,654.05,951.81Z"/><path class="cls-5" d="M674.75,947.73l1.65,1.36-1.29,1.61a5.56,5.56,0,0,1,1.32,3.57,5.11,5.11,0,0,1-.73,2.73,4.37,4.37,0,0,1-2.16,1.75,3.78,3.78,0,0,1,2.86,3.76,4,4,0,0,1-1.72,3.46,6.9,6.9,0,0,1-4.09,1.23,6.16,6.16,0,0,1-4.23-1.36,4.58,4.58,0,0,1-1.49-3.75h2.27a2.25,2.25,0,0,0,1,2,4.28,4.28,0,0,0,2.47.76,4.6,4.6,0,0,0,2.42-.61,1.92,1.92,0,0,0,1-1.75,2.1,2.1,0,0,0-.94-1.84,4.18,4.18,0,0,0-2.47-.66,5.89,5.89,0,0,1-4.27-1.54,5.54,5.54,0,0,1-1.61-4.2A5.38,5.38,0,0,1,666.5,950a6.06,6.06,0,0,1,4.14-1.53,5,5,0,0,1,2.93.79Zm-6.65,3.91a3.8,3.8,0,0,0,0,5.22,3.65,3.65,0,0,0,2.56.93,3.45,3.45,0,0,0,2.52-1,3.75,3.75,0,0,0,0-5.12,3.54,3.54,0,0,0-2.5-1A3.71,3.71,0,0,0,668.1,951.64Z"/><path class="cls-5" d="M681,948.83l.16,1.52a3.33,3.33,0,0,1,3.19-1.78,3.75,3.75,0,0,1,2.68,1l-1,2.11a2.82,2.82,0,0,0-1.92-.7,2.9,2.9,0,0,0-2.09.81,3.15,3.15,0,0,0-.83,2.34v6.23h-2.27V948.83Z"/><path class="cls-5" d="M690.31,955.48a3,3,0,0,0,1.11,2.1,3.67,3.67,0,0,0,2.43.8,4.87,4.87,0,0,0,1.77-.34,3.52,3.52,0,0,0,1.38-.9l1.47,1.52a5.52,5.52,0,0,1-2.08,1.45,6.87,6.87,0,0,1-2.59.51,5.6,5.6,0,0,1-4.25-1.66,6.8,6.8,0,0,1,0-8.75,5.37,5.37,0,0,1,4.11-1.68,5.31,5.31,0,0,1,4.25,1.77q1.51,1.77,1.21,5.18Zm6.62-2a2.78,2.78,0,0,0-1-2.05,3.74,3.74,0,0,0-4.44,0,3.36,3.36,0,0,0-1.18,2.05Z"/><path class="cls-5" d="M703.11,955.48a3,3,0,0,0,1.11,2.1,3.69,3.69,0,0,0,2.43.8,4.83,4.83,0,0,0,1.77-.34,3.38,3.38,0,0,0,1.38-.9l1.47,1.52a5.44,5.44,0,0,1-2.08,1.45,6.82,6.82,0,0,1-2.58.51,5.61,5.61,0,0,1-4.26-1.66,6.13,6.13,0,0,1-1.6-4.43,6,6,0,0,1,1.59-4.32,5.4,5.4,0,0,1,4.11-1.68,5.3,5.3,0,0,1,4.25,1.77c1,1.18,1.42,2.91,1.21,5.18Zm6.62-2a2.81,2.81,0,0,0-1-2.05,3.76,3.76,0,0,0-4.45,0,3.36,3.36,0,0,0-1.18,2.05Z"/><path class="cls-5" d="M721.63,960.34V954a3.56,3.56,0,0,0-.68-2.23,2.19,2.19,0,0,0-1.85-.9,2.34,2.34,0,0,0-1.89.91,3.48,3.48,0,0,0-.72,2.22v6.33h-2.27V948.81h2.11l.16,1.54a2.81,2.81,0,0,1,1.26-1.31,3.85,3.85,0,0,1,1.77-.42,3.29,3.29,0,0,1,3.41,2.31,3.93,3.93,0,0,1,3.72-2.29,4.23,4.23,0,0,1,3.41,1.4,5.93,5.93,0,0,1,1.19,3.93v6.37H729V954a3.62,3.62,0,0,0-.62-2.21,2,2,0,0,0-1.78-.85,2.33,2.33,0,0,0-1.91.9,3.36,3.36,0,0,0-.73,2.2v6.33Z"/><path class="cls-5" d="M735.87,955.48a3,3,0,0,0,1.11,2.1,3.69,3.69,0,0,0,2.43.8,4.83,4.83,0,0,0,1.77-.34,3.45,3.45,0,0,0,1.38-.9l1.47,1.52a5.52,5.52,0,0,1-2.08,1.45,6.82,6.82,0,0,1-2.58.51,5.61,5.61,0,0,1-4.26-1.66,6.8,6.8,0,0,1,0-8.75,5.37,5.37,0,0,1,4.11-1.68,5.3,5.3,0,0,1,4.25,1.77q1.51,1.77,1.21,5.18Zm6.62-2a2.78,2.78,0,0,0-1-2.05,3.74,3.74,0,0,0-4.44,0,3.36,3.36,0,0,0-1.18,2.05Z"/><path class="cls-5" d="M755.21,960.34v-6.16a3.62,3.62,0,0,0-.77-2.42,2.71,2.71,0,0,0-2.16-.9,2.74,2.74,0,0,0-2.18,1,3.63,3.63,0,0,0-.86,2.45v6H747V948.81H749l.14,1.68a4.62,4.62,0,0,1,3.65-1.85,4.32,4.32,0,0,1,3.36,1.47,5.87,5.87,0,0,1,1.3,4v6.19Z"/><path class="cls-5" d="M763.9,945.52v3.33h3.16v2.08h-3.19v5.49c0,1.26.52,1.89,1.57,1.89a2.93,2.93,0,0,0,1.38-.4l.66,2.06a5.14,5.14,0,0,1-2.18.51,3.44,3.44,0,0,1-2.74-1,4.44,4.44,0,0,1-.95-3.07v-5.49h-2.09v-2.08h2.09v-3.08Z"/><path class="cls-5" d="M777.38,944v6.61a3.56,3.56,0,0,1,1.62-1.51,5,5,0,0,1,2.19-.55,5.31,5.31,0,0,1,4,1.58,7,7,0,0,1,0,8.81,5.31,5.31,0,0,1-4,1.61,4,4,0,0,1-3.76-2.05l-.13,1.82h-2.14V944Zm1.15,7.87a3.68,3.68,0,0,0-1,2.68,3.79,3.79,0,0,0,1,2.71,3.3,3.3,0,0,0,2.48,1.05,3.21,3.21,0,0,0,2.44-1,3.78,3.78,0,0,0,1-2.72,3.72,3.72,0,0,0-1-2.73,3.45,3.45,0,0,0-4.91,0Z"/><path class="cls-5" d="M790.8,955.48a3,3,0,0,0,1.11,2.1,3.69,3.69,0,0,0,2.43.8,4.83,4.83,0,0,0,1.77-.34,3.38,3.38,0,0,0,1.38-.9l1.47,1.52a5.44,5.44,0,0,1-2.08,1.45,6.82,6.82,0,0,1-2.58.51A5.61,5.61,0,0,1,790,959a6.12,6.12,0,0,1-1.59-4.43,6,6,0,0,1,1.58-4.32,5.4,5.4,0,0,1,4.11-1.68,5.3,5.3,0,0,1,4.25,1.77c1,1.18,1.42,2.91,1.21,5.18Zm6.62-2a2.81,2.81,0,0,0-.95-2.05,3.76,3.76,0,0,0-4.45,0,3.36,3.36,0,0,0-1.18,2.05Z"/><path class="cls-5" d="M805.41,945.52v3.33h3.17v2.08h-3.19v5.49q0,1.89,1.56,1.89a2.9,2.9,0,0,0,1.38-.4L809,960a5.1,5.1,0,0,1-2.17.51,3.41,3.41,0,0,1-2.74-1,4.4,4.4,0,0,1-1-3.07v-5.49H801v-2.08h2.09v-3.08Z"/><path class="cls-5" d="M819.64,948.81l2.6,9.06,2.68-9.06h2.53l-3.8,11.58H821l-1.28-3.83-1.06-4-1.07,4-1.28,3.83h-2.64l-3.83-11.58h2.55l2.69,9.06,2.59-9.06Z"/><path class="cls-5" d="M831.21,955.48a3.08,3.08,0,0,0,1.12,2.1,3.65,3.65,0,0,0,2.43.8,4.91,4.91,0,0,0,1.77-.34,3.41,3.41,0,0,0,1.37-.9l1.48,1.52a5.6,5.6,0,0,1-2.08,1.45,6.91,6.91,0,0,1-2.59.51,5.6,5.6,0,0,1-4.25-1.66,6.81,6.81,0,0,1,0-8.75,5.41,5.41,0,0,1,4.12-1.68,5.28,5.28,0,0,1,4.24,1.77c1,1.18,1.42,2.91,1.22,5.18Zm6.63-2a2.78,2.78,0,0,0-1-2.05,3.74,3.74,0,0,0-4.44,0,3.31,3.31,0,0,0-1.18,2.05Z"/><path class="cls-5" d="M844,955.48a3,3,0,0,0,1.11,2.1,3.69,3.69,0,0,0,2.43.8,4.83,4.83,0,0,0,1.77-.34,3.45,3.45,0,0,0,1.38-.9l1.47,1.52a5.44,5.44,0,0,1-2.08,1.45,6.82,6.82,0,0,1-2.58.51,5.61,5.61,0,0,1-4.26-1.66,6.13,6.13,0,0,1-1.6-4.43,6,6,0,0,1,1.59-4.32,5.37,5.37,0,0,1,4.11-1.68,5.3,5.3,0,0,1,4.25,1.77q1.51,1.77,1.21,5.18Zm6.62-2a2.78,2.78,0,0,0-1-2.05,3.74,3.74,0,0,0-4.44,0,3.36,3.36,0,0,0-1.18,2.05Z"/><path class="cls-5" d="M863.36,960.34v-6.16a3.62,3.62,0,0,0-.77-2.42,2.71,2.71,0,0,0-2.16-.9,2.74,2.74,0,0,0-2.18,1,3.63,3.63,0,0,0-.86,2.45v6h-2.26V948.81h2.07l.13,1.68a4.62,4.62,0,0,1,3.65-1.85,4.32,4.32,0,0,1,3.36,1.47,5.87,5.87,0,0,1,1.3,4v6.19Z"/><path class="cls-5" d="M877.81,945.52v3.33H881v2.08h-3.19v5.49q0,1.89,1.56,1.89a3,3,0,0,0,1.39-.4l.66,2.06a5.17,5.17,0,0,1-2.18.51,3.42,3.42,0,0,1-2.74-1,4.4,4.4,0,0,1-1-3.07v-5.49h-2.09v-2.08h2.09v-3.08Z"/><path class="cls-5" d="M885.53,944v6.53a4,4,0,0,1,3.52-1.86,4,4,0,0,1,3.35,1.46,6.45,6.45,0,0,1,1.12,4v6.21h-2.27v-6.19a3.51,3.51,0,0,0-.73-2.41,2.49,2.49,0,0,0-2-.83,2.69,2.69,0,0,0-2.14,1,3.61,3.61,0,0,0-.85,2.44v6h-2.27V944Z"/><path class="cls-5" d="M898.14,955.48a3,3,0,0,0,1.11,2.1,3.69,3.69,0,0,0,2.43.8,4.83,4.83,0,0,0,1.77-.34,3.52,3.52,0,0,0,1.38-.9l1.47,1.52a5.52,5.52,0,0,1-2.08,1.45,6.82,6.82,0,0,1-2.58.51,5.61,5.61,0,0,1-4.26-1.66,6.8,6.8,0,0,1,0-8.75,5.37,5.37,0,0,1,4.11-1.68,5.3,5.3,0,0,1,4.25,1.77q1.51,1.77,1.21,5.18Zm6.62-2a2.78,2.78,0,0,0-1-2.05,3.74,3.74,0,0,0-4.44,0,3.36,3.36,0,0,0-1.18,2.05Z"/><path class="cls-5" d="M924.19,958.85a5.53,5.53,0,0,1-4.12,1.79,5.64,5.64,0,0,1-4.09-1.58,6.92,6.92,0,0,1,0-8.92,5.61,5.61,0,0,1,4.09-1.59,5.25,5.25,0,0,1,3.92,1.7l-1.45,1.62a3.45,3.45,0,0,0-4.93,0,3.78,3.78,0,0,0-1,2.72,3.69,3.69,0,0,0,1,2.73,3.37,3.37,0,0,0,2.46,1,3.34,3.34,0,0,0,2.58-1.08Z"/><path class="cls-5" d="M928.56,944v16.32h-2.27V944Z"/><path class="cls-5" d="M932.17,944.14a1.42,1.42,0,0,1,1.41,0,1.58,1.58,0,0,1,0,2.62,1.37,1.37,0,0,1-1.41,0,1.58,1.58,0,0,1,0-2.62Zm-.44,4.64v11.56H934V948.78Z"/><path class="cls-5" d="M938.77,955.48a3,3,0,0,0,1.11,2.1,3.69,3.69,0,0,0,2.43.8,4.83,4.83,0,0,0,1.77-.34,3.38,3.38,0,0,0,1.38-.9l1.47,1.52a5.44,5.44,0,0,1-2.08,1.45,6.82,6.82,0,0,1-2.58.51A5.61,5.61,0,0,1,938,959a6.12,6.12,0,0,1-1.59-4.43,6,6,0,0,1,1.58-4.32,5.4,5.4,0,0,1,4.11-1.68,5.3,5.3,0,0,1,4.25,1.77c1,1.18,1.42,2.91,1.21,5.18Zm6.62-2a2.81,2.81,0,0,0-.95-2.05,3.76,3.76,0,0,0-4.45,0,3.36,3.36,0,0,0-1.18,2.05Z"/><path class="cls-5" d="M958.11,960.34v-6.16a3.62,3.62,0,0,0-.77-2.42,2.68,2.68,0,0,0-2.16-.9,2.76,2.76,0,0,0-2.18,1,3.62,3.62,0,0,0-.85,2.45v6h-2.27V948.81H952l.13,1.68a4.63,4.63,0,0,1,3.65-1.85,4.3,4.3,0,0,1,3.36,1.47,5.88,5.88,0,0,1,1.31,4v6.19Z"/><path class="cls-5" d="M966.8,945.52v3.33H970v2.08h-3.19v5.49q0,1.89,1.56,1.89a2.9,2.9,0,0,0,1.38-.4l.66,2.06a5.13,5.13,0,0,1-2.17.51,3.41,3.41,0,0,1-2.74-1,4.4,4.4,0,0,1-1-3.07v-5.49h-2.09v-2.08h2.09v-3.08Z"/><path class="cls-5" d="M986.73,948.83h2.2v11.51h-2.16l-.11-1.87a3.45,3.45,0,0,1-1.57,1.61,4.53,4.53,0,0,1-2.17.56,5.24,5.24,0,0,1-4-1.58,6.19,6.19,0,0,1-1.56-4.49,6,6,0,0,1,1.59-4.4,5.47,5.47,0,0,1,4-1.6,4.48,4.48,0,0,1,2.18.56,3.68,3.68,0,0,1,1.51,1.52Zm-6.1,3a3.8,3.8,0,0,0-1,2.76,3.84,3.84,0,0,0,1,2.78,3.37,3.37,0,0,0,2.51,1,3.52,3.52,0,0,0,1.73-.42,2.75,2.75,0,0,0,1.14-1.1,5.5,5.5,0,0,0,.58-1.48,3.69,3.69,0,0,0,0-1.62,5.57,5.57,0,0,0-.58-1.49,2.75,2.75,0,0,0-1.14-1.1,3.52,3.52,0,0,0-1.73-.42A3.36,3.36,0,0,0,980.63,951.81Z"/><path class="cls-5" d="M1000.24,960.34v-6.16a3.62,3.62,0,0,0-.77-2.42,2.69,2.69,0,0,0-2.16-.9,2.74,2.74,0,0,0-2.18,1,3.63,3.63,0,0,0-.86,2.45v6H992V948.81h2.07l.13,1.68a4.63,4.63,0,0,1,3.65-1.85,4.32,4.32,0,0,1,3.36,1.47,5.88,5.88,0,0,1,1.31,4v6.19Z"/><path class="cls-5" d="M1016.34,944v16.32h-2.13l-.13-1.82a4,4,0,0,1-3.77,2.05,5.28,5.28,0,0,1-4-1.61,7.05,7.05,0,0,1,0-8.81,5.29,5.29,0,0,1,4-1.58,5,5,0,0,1,2.19.55,3.56,3.56,0,0,1,1.62,1.51V944Zm-8.33,7.82a4.29,4.29,0,0,0,0,5.46,3.42,3.42,0,0,0,4.91,0,3.75,3.75,0,0,0,1-2.71,3.71,3.71,0,0,0-1-2.68,3.45,3.45,0,0,0-4.91,0Z"/><path class="cls-5" d="M1036.67,960.34h-11.38V944h11.31v2.54h-8.84V951h8.49v2.42h-8.49v4.39h8.91Z"/><path class="cls-5" d="M1046.37,951.66a3.91,3.91,0,0,0-2.86-1.08,3.28,3.28,0,0,0-1.68.34,1.14,1.14,0,0,0-.63,1c0,.82.8,1.31,2.35,1.47a13.41,13.41,0,0,1,1.6.24,7.59,7.59,0,0,1,1.43.52,2.61,2.61,0,0,1,1.17,1.08,3.63,3.63,0,0,1,.4,1.78,3.28,3.28,0,0,1-1.27,2.64,5.2,5.2,0,0,1-3.35,1,6.13,6.13,0,0,1-5-2.12l1.19-1.71a4.89,4.89,0,0,0,3.81,1.71,3.26,3.26,0,0,0,1.6-.38,1.25,1.25,0,0,0,.71-1.12,1.14,1.14,0,0,0-.61-1.1,5.43,5.43,0,0,0-1.9-.49Q1039,955,1039,952a2.91,2.91,0,0,1,1.37-2.63,5.75,5.75,0,0,1,3.14-.87,5.83,5.83,0,0,1,4.18,1.54Z"/><path class="cls-5" d="M1052.71,944v9.53l4-4.72h2.75V949l-4.68,5.28,5.32,5.93v.16h-2.77l-4.64-5.32v5.32h-2.29V944Z"/><path class="cls-5" d="M1063.42,955.48a3,3,0,0,0,1.11,2.1,3.69,3.69,0,0,0,2.43.8,4.83,4.83,0,0,0,1.77-.34,3.38,3.38,0,0,0,1.38-.9l1.47,1.52a5.44,5.44,0,0,1-2.08,1.45,6.82,6.82,0,0,1-2.58.51,5.61,5.61,0,0,1-4.26-1.66,6.13,6.13,0,0,1-1.6-4.43,6,6,0,0,1,1.59-4.32,5.4,5.4,0,0,1,4.11-1.68,5.3,5.3,0,0,1,4.25,1.77c1,1.18,1.42,2.91,1.21,5.18Zm6.62-2a2.78,2.78,0,0,0-1-2.05,3.4,3.4,0,0,0-2.25-.73,3.44,3.44,0,0,0-2.19.73,3.36,3.36,0,0,0-1.18,2.05Z"/><path class="cls-5" d="M1076.88,944v16.32h-2.26V944Z"/><path class="cls-5" d="M1088.76,948.83h2.2v11.51h-2.15l-.11-1.87a3.47,3.47,0,0,1-1.58,1.61,4.52,4.52,0,0,1-2.16.56,5.26,5.26,0,0,1-4-1.58,6.19,6.19,0,0,1-1.56-4.49,6,6,0,0,1,1.6-4.4,5.45,5.45,0,0,1,4-1.6,4.48,4.48,0,0,1,2.18.56,3.77,3.77,0,0,1,1.52,1.52Zm-6.09,3a3.75,3.75,0,0,0-1,2.76,3.8,3.8,0,0,0,1,2.78,3.34,3.34,0,0,0,2.51,1,3.54,3.54,0,0,0,1.73-.42,2.88,2.88,0,0,0,1.14-1.1,5.17,5.17,0,0,0,.57-1.48,3.41,3.41,0,0,0,0-1.62,5.24,5.24,0,0,0-.57-1.49,2.88,2.88,0,0,0-1.14-1.1,3.54,3.54,0,0,0-1.73-.42A3.33,3.33,0,0,0,1082.67,951.81Z"/><path class="cls-5" d="M1096.31,944v6.53a4,4,0,0,1,3.52-1.86,3.92,3.92,0,0,1,3.34,1.46,6.38,6.38,0,0,1,1.13,4v6.21H1102v-6.19a3.51,3.51,0,0,0-.73-2.41,2.49,2.49,0,0,0-2-.83,2.69,2.69,0,0,0-2.14,1,3.61,3.61,0,0,0-.85,2.44v6H1094V944Z"/><path class="cls-5" d="M123.38,997.51a10.56,10.56,0,0,1,0,13.28,8.13,8.13,0,0,1-6.45,2.68,8.32,8.32,0,0,1-6.51-2.69,10.28,10.28,0,0,1,0-13.25,8.32,8.32,0,0,1,6.51-2.68A8.18,8.18,0,0,1,123.38,997.51Zm-11.32,11.79a6.18,6.18,0,0,0,4.87,2.05,6,6,0,0,0,4.8-2,8.46,8.46,0,0,0,0-10.33,6,6,0,0,0-4.8-2,6.18,6.18,0,0,0-4.87,2,8.25,8.25,0,0,0,0,10.31Zm8.72-1.8-1.39-1.4a2.94,2.94,0,0,1-4.16.15,2.73,2.73,0,0,1-.84-2.09,2.86,2.86,0,0,1,.84-2.16,3,3,0,0,1,4.14.09l1.39-1.35a4.67,4.67,0,0,0-3.47-1.56,4.74,4.74,0,0,0-4.9,5,4.75,4.75,0,0,0,1.39,3.58,4.84,4.84,0,0,0,3.51,1.34A4.77,4.77,0,0,0,120.78,1007.5Z"/><path class="cls-5" d="M134.34,1000.36a6.14,6.14,0,0,1,.66-2.55,4.28,4.28,0,0,1,1.49-1.65,7,7,0,0,1,1.94-.84,8.53,8.53,0,0,1,2.19-.27,8.72,8.72,0,0,1,1.72.17,6.07,6.07,0,0,1,1.61.57,5.08,5.08,0,0,1,1.35,1,4.55,4.55,0,0,1,.93,1.54,6.25,6.25,0,0,1,.35,2.15q0,5.4-6.1,5.4a6.31,6.31,0,0,0-1.25.12,5.27,5.27,0,0,0-1.21.38,2.24,2.24,0,0,0-1,.84,2.51,2.51,0,0,0-.37,1.39v1.84h9.92v2.68h-12.3v-4.52a5.64,5.64,0,0,1,.53-2.52,3.84,3.84,0,0,1,1.45-1.65,6.88,6.88,0,0,1,2-.83,9.37,9.37,0,0,1,2.24-.25,5.43,5.43,0,0,0,2.36-.54,2.19,2.19,0,0,0,1-.88,2.61,2.61,0,0,0,.38-1.41q0-2.87-3.54-3a6,6,0,0,0-1.79.25,3.09,3.09,0,0,0-1.4.92,2.43,2.43,0,0,0-.62,1.66Z"/><path class="cls-5" d="M149.11,1002.65a9.82,9.82,0,0,1,.55-3.38,6.36,6.36,0,0,1,3.53-3.89,5.62,5.62,0,0,1,2.36-.49,5.81,5.81,0,0,1,2.37.51,6.43,6.43,0,0,1,2.07,1.42,6.82,6.82,0,0,1,1.46,2.45,9.82,9.82,0,0,1,.55,3.38v3.12a9.82,9.82,0,0,1-.55,3.38,6.74,6.74,0,0,1-1.46,2.45,6.43,6.43,0,0,1-2.07,1.42,6,6,0,0,1-2.37.52,5.79,5.79,0,0,1-2.36-.5,6.36,6.36,0,0,1-3.53-3.89,9.82,9.82,0,0,1-.55-3.38Zm2.46,3.12a6.2,6.2,0,0,0,.6,2.82,4,4,0,0,0,1.47,1.72,3.72,3.72,0,0,0,3.83,0,4.09,4.09,0,0,0,1.47-1.72,6.2,6.2,0,0,0,.6-2.82v-3.12a6.61,6.61,0,0,0-.44-2.46,4,4,0,0,0-1.15-1.64,4.65,4.65,0,0,0-1.55-.83,2.79,2.79,0,0,0-1.69,0,4.71,4.71,0,0,0-1.55.82,3.92,3.92,0,0,0-1.15,1.65,6.61,6.61,0,0,0-.44,2.48Z"/><path class="cls-5" d="M164.59,1000.36a6.14,6.14,0,0,1,.66-2.55,4.28,4.28,0,0,1,1.49-1.65,7,7,0,0,1,1.94-.84,8.53,8.53,0,0,1,2.19-.27,8.72,8.72,0,0,1,1.72.17,6.07,6.07,0,0,1,1.61.57,5.08,5.08,0,0,1,1.35,1,4.55,4.55,0,0,1,.93,1.54,6.25,6.25,0,0,1,.35,2.15q0,5.4-6.1,5.4a6.31,6.31,0,0,0-1.25.12,5.27,5.27,0,0,0-1.21.38,2.24,2.24,0,0,0-1,.84,2.51,2.51,0,0,0-.37,1.39v1.84h9.92v2.68h-12.3v-4.52a5.64,5.64,0,0,1,.53-2.52,3.84,3.84,0,0,1,1.45-1.65,6.88,6.88,0,0,1,2-.83,9.37,9.37,0,0,1,2.24-.25,5.43,5.43,0,0,0,2.36-.54,2.19,2.19,0,0,0,1-.88,2.61,2.61,0,0,0,.38-1.41q0-2.87-3.54-3a6,6,0,0,0-1.79.25,3.09,3.09,0,0,0-1.4.92,2.43,2.43,0,0,0-.62,1.66Z"/><path class="cls-5" d="M179.22,1010.77H182v-12l-2.64.86v-2.5l5.08-1.86v15.49h2.68v2.37h-7.9Z"/><path class="cls-5" d="M206.46,1013.14H195.09V995.28H206.4v2.78h-8.85v4.82H206v2.66h-8.49v4.79h8.91Z"/><path class="cls-5" d="M216.16,1003.65a3.73,3.73,0,0,0-2.86-1.17,2.91,2.91,0,0,0-1.68.37A1.25,1.25,0,0,0,211,1004c0,.9.8,1.44,2.36,1.61a12.71,12.71,0,0,1,1.59.27,6,6,0,0,1,1.43.56,2.67,2.67,0,0,1,1.17,1.18,4.25,4.25,0,0,1,.41,1.94,3.71,3.71,0,0,1-1.28,2.88,4.86,4.86,0,0,1-3.34,1.1,5.89,5.89,0,0,1-5-2.32l1.19-1.86a4.69,4.69,0,0,0,3.81,1.86,3.11,3.11,0,0,0,1.61-.41,1.37,1.37,0,0,0,.7-1.22,1.26,1.26,0,0,0-.61-1.2,4.7,4.7,0,0,0-1.9-.54c-2.93-.32-4.41-1.58-4.42-3.77a3.27,3.27,0,0,1,1.37-2.87,5.37,5.37,0,0,1,3.14-1,5.58,5.58,0,0,1,4.18,1.68Z"/><path class="cls-5" d="M222.5,995.31v10.41l4-5.16h2.75v.15l-4.69,5.77,5.32,6.48v.18h-2.77l-4.64-5.82v5.82h-2.29V995.31Z"/><path class="cls-5" d="M233.21,1007.83a3.39,3.39,0,0,0,3.54,3.17,4.77,4.77,0,0,0,1.78-.37,3.35,3.35,0,0,0,1.37-1l1.48,1.66a5.46,5.46,0,0,1-2.08,1.58,6.28,6.28,0,0,1-2.59.57,5.41,5.41,0,0,1-4.26-1.82,8,8,0,0,1,0-9.56,5.18,5.18,0,0,1,4.12-1.84,5.08,5.08,0,0,1,4.24,1.94q1.53,1.94,1.21,5.66Zm6.62-2.22a3.1,3.1,0,0,0-1-2.24,3.53,3.53,0,0,0-4.45,0,3.69,3.69,0,0,0-1.17,2.24Z"/><path class="cls-5" d="M246.68,995.31v17.83h-2.27V995.31Z"/><path class="cls-5" d="M258.56,1000.56h2.2v12.58H258.6l-.11-2a3.74,3.74,0,0,1-1.57,1.76,4.3,4.3,0,0,1-2.17.61,5,5,0,0,1-4-1.73,7.11,7.11,0,0,1-1.57-4.9,6.83,6.83,0,0,1,1.6-4.81,5.18,5.18,0,0,1,4-1.75,4.2,4.2,0,0,1,2.18.61,3.86,3.86,0,0,1,1.52,1.66Zm-6.1,3.25a5.05,5.05,0,0,0,0,6.06A3.21,3.21,0,0,0,255,1011a3.24,3.24,0,0,0,1.73-.46,3,3,0,0,0,1.14-1.2,6,6,0,0,0,.57-1.62,4.07,4.07,0,0,0,0-1.77,6,6,0,0,0-.57-1.63,3,3,0,0,0-1.14-1.2,3.4,3.4,0,0,0-4.24.67Z"/><path class="cls-5" d="M266.1,995.28v7.14a3.93,3.93,0,0,1,3.52-2A3.85,3.85,0,0,1,273,1002a7.54,7.54,0,0,1,1.12,4.37v6.79h-2.27v-6.76a4.15,4.15,0,0,0-.72-2.64,2.44,2.44,0,0,0-2-.91,2.59,2.59,0,0,0-2.14,1.09,4.16,4.16,0,0,0-.85,2.66v6.56h-2.27V995.28Z"/><path class="cls-5" d="M279.55,1012.13a1.15,1.15,0,0,1,0,.22l-.08.28q0,.15-.12.45c-.05.19-.11.39-.17.58s-.15.47-.26.83-.2.72-.3,1.1h-1.37l.49-2.42a1.15,1.15,0,0,1-.93-1.28,1.52,1.52,0,0,1,.29-.94,1.15,1.15,0,0,1,.7-.48,1.94,1.94,0,0,1,.83,0,1.15,1.15,0,0,1,.69.5,1.71,1.71,0,0,1,.29,1A1,1,0,0,1,279.55,1012.13Z"/><path class="cls-5" d="M299,1009.39h-8.34l-1.45,3.75h-2.62l6.91-17.86h2.68l6.91,17.86h-2.62Zm-4.16-11.1-3.26,8.5h6.52Z"/><path class="cls-5" d="M307.66,995.28v15.21h8.12v2.65H305.19V995.28Z"/><path class="cls-5" d="M320.57,995.28v15.21h8.12v2.65H318.11V995.28Z"/><path class="cls-5" d="M349.79,1013.14h-2.88l-4.69-6.17H339v6.17H336.5V995.25l3.59,0h3.58a4.93,4.93,0,0,1,4,1.72,6.22,6.22,0,0,1,1.44,4.12,6.4,6.4,0,0,1-1,3.66,4.42,4.42,0,0,1-3.15,1.9l4.6,6ZM339,997.88v6.48h4.69a2.65,2.65,0,0,0,2.2-.92,3.45,3.45,0,0,0,.75-2.27,3.67,3.67,0,0,0-.75-2.3,2.56,2.56,0,0,0-2.18-1Z"/><path class="cls-5" d="M352.36,1013.14V995.28h2.44v17.86Z"/><path class="cls-5" d="M370,999.39a5.36,5.36,0,0,0-1.93-1.42,5.57,5.57,0,0,0-2.23-.5,5,5,0,0,0-4.16,2,7.67,7.67,0,0,0-1.52,4.93,7.33,7.33,0,0,0,1.43,4.57,5,5,0,0,0,4.25,1.86,5.26,5.26,0,0,0,3.76-1.58v-3.63H365.3v-2.55h6.58v7.32a7.42,7.42,0,0,1-6.05,3.12,8.36,8.36,0,0,1-3.65-.76,6.53,6.53,0,0,1-2.54-2,9.7,9.7,0,0,1-1.43-2.88,11.85,11.85,0,0,1-.48-3.43,10.64,10.64,0,0,1,2.16-6.8,7.11,7.11,0,0,1,5.94-2.74,7.3,7.3,0,0,1,5.7,2.7Z"/><path class="cls-5" d="M385.63,1013.14v-7.42h-8.14v7.42H375V995.28h2.47v7.78h8.14v-7.78h2.44v17.86Z"/><path class="cls-5" d="M395.44,997.86h-5.06v-2.58H403v2.58h-5v15.28h-2.48Z"/><path class="cls-5" d="M414.47,999.24a3.8,3.8,0,0,0-1.57-1.45,5.14,5.14,0,0,0-2.24-.54,4.27,4.27,0,0,0-2.57.72,2.34,2.34,0,0,0-1,2,1.83,1.83,0,0,0,.95,1.71,8.74,8.74,0,0,0,2.79.84,15.89,15.89,0,0,1,2.33.54,7.88,7.88,0,0,1,1.91.9,3.84,3.84,0,0,1,1.45,1.64A5.59,5.59,0,0,1,417,1008a5.17,5.17,0,0,1-1,3.19,5.06,5.06,0,0,1-2.33,1.79,8.63,8.63,0,0,1-3.09.53,6.71,6.71,0,0,1-6.62-4.06l1.85-1.43a5,5,0,0,0,4.79,2.94,6.31,6.31,0,0,0,1.85-.26,3.07,3.07,0,0,0,1.44-1,2.63,2.63,0,0,0,.61-1.75,2.21,2.21,0,0,0-1.05-2,7.85,7.85,0,0,0-2.89-.93,16.94,16.94,0,0,1-1.82-.35,11.18,11.18,0,0,1-1.59-.59,4.51,4.51,0,0,1-1.36-.92,4.2,4.2,0,0,1-.85-1.39,5.18,5.18,0,0,1-.34-2,5.05,5.05,0,0,1,.52-2.35,4.26,4.26,0,0,1,1.41-1.61,7.07,7.07,0,0,1,1.89-.88,7.81,7.81,0,0,1,2.12-.29q4.11,0,5.74,3Z"/><path class="cls-5" d="M438.56,1013.14h-2.88L431,1007h-3.26v6.17h-2.46V995.25l3.58,0h3.59a4.91,4.91,0,0,1,4,1.72,6.17,6.17,0,0,1,1.45,4.12,6.4,6.4,0,0,1-1,3.66,4.42,4.42,0,0,1-3.15,1.9l4.59,6Zm-10.83-15.26v6.48h4.69a2.65,2.65,0,0,0,2.2-.92,3.45,3.45,0,0,0,.75-2.27,3.67,3.67,0,0,0-.75-2.3,2.57,2.57,0,0,0-2.18-1Z"/><path class="cls-5" d="M452.51,1013.14H441.13V995.28h11.31v2.78h-8.85v4.82h8.5v2.66h-8.5v4.79h8.92Z"/><path class="cls-5" d="M464.87,999.24a3.8,3.8,0,0,0-1.57-1.45,5.14,5.14,0,0,0-2.24-.54,4.27,4.27,0,0,0-2.57.72,2.34,2.34,0,0,0-1,2,1.82,1.82,0,0,0,1,1.71,8.59,8.59,0,0,0,2.78.84,15.89,15.89,0,0,1,2.33.54,7.94,7.94,0,0,1,1.92.9,3.89,3.89,0,0,1,1.44,1.64,5.59,5.59,0,0,1,.49,2.46,5.17,5.17,0,0,1-1,3.19,5.06,5.06,0,0,1-2.33,1.79,8.56,8.56,0,0,1-3.09.53,6.71,6.71,0,0,1-6.62-4.06l1.85-1.43a5,5,0,0,0,4.79,2.94,6.31,6.31,0,0,0,1.85-.26,3.07,3.07,0,0,0,1.44-1A2.58,2.58,0,0,0,465,1008a2.21,2.21,0,0,0-1-2,7.78,7.78,0,0,0-2.89-.93,17.44,17.44,0,0,1-1.82-.35,11.65,11.65,0,0,1-1.59-.59,4.33,4.33,0,0,1-1.35-.92,4.06,4.06,0,0,1-.86-1.39,5.18,5.18,0,0,1-.34-2,5.05,5.05,0,0,1,.52-2.35,4.35,4.35,0,0,1,1.41-1.61,7.07,7.07,0,0,1,1.89-.88,7.81,7.81,0,0,1,2.12-.29q4.11,0,5.74,3Z"/><path class="cls-5" d="M481.57,1013.14H470.19V995.28H481.5v2.78h-8.84v4.82h8.49v2.66h-8.49v4.79h8.91Z"/><path class="cls-5" d="M498,1013.14h-2.88l-4.68-6.17H487.2v6.17h-2.47V995.25l3.59,0h3.59a4.91,4.91,0,0,1,4,1.72,6.22,6.22,0,0,1,1.44,4.12,6.47,6.47,0,0,1-1,3.66,4.44,4.44,0,0,1-3.16,1.9l4.6,6ZM487.2,997.88v6.48h4.68a2.67,2.67,0,0,0,2.21-.92,3.5,3.5,0,0,0,.74-2.27,3.72,3.72,0,0,0-.74-2.3,2.57,2.57,0,0,0-2.18-1Z"/><path class="cls-5" d="M507.88,1013.22H505.3l-6.4-17.94h2.77l4.91,14.52,4.93-14.52h2.75Z"/><path class="cls-5" d="M527.83,1013.14H516.46V995.28h11.31v2.78h-8.85v4.82h8.5v2.66h-8.5v4.79h8.91Z"/><path class="cls-5" d="M536.83,995.28a7.65,7.65,0,0,1,3.4.74,6.36,6.36,0,0,1,2.42,2,10.07,10.07,0,0,1,1.4,2.8,12.07,12.07,0,0,1,.09,6.57,9.64,9.64,0,0,1-1.38,2.89,6.57,6.57,0,0,1-2.45,2.08,7.61,7.61,0,0,1-3.48.78H531V995.28Zm-3.39,15.1h3.39a4.57,4.57,0,0,0,4-1.87,7.23,7.23,0,0,0,1.3-4.48,8.56,8.56,0,0,0-.57-2.91,5.08,5.08,0,0,0-1.75-2.22,4.9,4.9,0,0,0-3-.89h-3.39Z"/></svg>