<svg id="Layer_1" data-name="Layer 1" xmlns="http://www.w3.org/2000/svg" viewBox="0 0 1920 1080"><defs><style>.cls-1{fill:none;}.cls-1,.cls-2{stroke:#cecfd0;stroke-linecap:round;stroke-linejoin:round;}.cls-2{fill:#faba2e;}</style></defs><path class="cls-1" d="M298.64,900.08h0a15.19,15.19,0,0,1-15.19,15.19H260.32a15.19,15.19,0,0,1-15.18-15.19h0"/><line class="cls-1" x1="190.78" y1="817.1" x2="229.05" y2="817.1"/><path class="cls-1" d="M203.36,817.1v65.56a17.06,17.06,0,0,0,17,17.06h98.35a17.06,17.06,0,0,0,17.05-17.06v-54a17.06,17.06,0,0,0-17.05-17.06H280.59a13.55,13.55,0,0,1-7.91-2.54l-20-14.31a14.2,14.2,0,0,0-8.23-2.64H190.63"/><polyline class="cls-1" points="336.7 840.5 344 840.5 358.66 827.76 366.46 827.76 366.46 885.91 358.66 885.91 343.17 872.11 336.18 872.11"/><line class="cls-1" x1="231.93" y1="886.65" x2="258.29" y2="886.65"/><path class="cls-1" d="M190.34,790.74v30.72a6.43,6.43,0,0,1-6.43,6.42h0a6.42,6.42,0,0,1-6.42-6.42v-34a6.41,6.41,0,0,1,6.42-6.42h0a6.42,6.42,0,0,1,6.43,6.42v3.32"/><path class="cls-2" d="M298.64,900.08h0a15.19,15.19,0,0,1-15.19,15.19H260.32a15.19,15.19,0,0,1-15.18-15.19h0"/><line class="cls-1" x1="284.45" y1="916.09" x2="348.41" y2="1080"/><line class="cls-1" x1="195.95" y1="1080" x2="259.91" y2="916.09"/><line class="cls-1" x1="234.27" y1="1080" x2="268.63" y2="916.09"/><line class="cls-1" x1="275.73" y1="916.09" x2="310.09" y2="1080"/><line class="cls-1" x1="108.51" y1="660.79" x2="140.3" y2="660.79"/><line class="cls-1" x1="17.51" y1="696.25" x2="117.37" y2="696.25"/><line class="cls-1" x1="156.59" y1="660.79" x2="222.55" y2="660.79"/><line class="cls-1" x1="103.01" y1="555.8" x2="217.04" y2="555.8"/><path class="cls-2" d="M135.37,616.24H81.24a11.61,11.61,0,0,0-15.61-10.9,21.39,21.39,0,1,0-40.41,10.85H0"/></svg>