<svg id="Layer_1" data-name="Layer 1" xmlns="http://www.w3.org/2000/svg" xmlns:xlink="http://www.w3.org/1999/xlink" viewBox="0 0 1920 1080"><defs><style>.cls-1{fill:none;}.cls-2{clip-path:url(#clip-path);}.cls-3{fill:#edad29;}</style><clipPath id="clip-path"><rect class="cls-1" width="1920" height="1080"/></clipPath></defs><g class="cls-2"><rect x="0.09" width="1919.91" height="1079.11"/><path class="cls-3" d="M777.72,542.54c.2.06.3.24.3.55l0,3.59c0,.34-.32.5-1,.5h-1.56a5.65,5.65,0,0,1-1.5-.23,5.75,5.75,0,0,1-1.51-.7,6.25,6.25,0,0,1-1.26-1.09,2.75,2.75,0,0,1-.68-1.4h-.19A27.48,27.48,0,0,1,769,550a11.86,11.86,0,0,1-2.68,4.48,11.21,11.21,0,0,1-4.46,2.69,20.56,20.56,0,0,1-6.56.89,16.58,16.58,0,0,1-7.44-1.46,10.46,10.46,0,0,1-4.33-4,16.43,16.43,0,0,1-2-6.18,57.22,57.22,0,0,1-.47-8l4.79,0a33.49,33.49,0,0,0,.58,7,13.4,13.4,0,0,0,1.8,4.63,6.92,6.92,0,0,0,3,2.57,11.94,11.94,0,0,0,8.49,0,7.19,7.19,0,0,0,3.09-2.54,13,13,0,0,0,1.91-4.62,32.64,32.64,0,0,0,.68-7l.11-24.29,5.24,0-.11,23.92a4.84,4.84,0,0,0,.39,2.07,3.49,3.49,0,0,0,1,1.32,3.79,3.79,0,0,0,1.54.67,9.25,9.25,0,0,0,2,.19h1.51A2,2,0,0,1,777.72,542.54Zm-1.66,4.13,0-3.59c0-.31.1-.49.3-.55a2.36,2.36,0,0,1,.67-.09l5.57,0v-.19a3.63,3.63,0,0,1-.94-.85,7.74,7.74,0,0,1-1-1.5A12.38,12.38,0,0,1,780,538a6.79,6.79,0,0,1-.31-2.09,12.92,12.92,0,0,1,.87-4.85,9.9,9.9,0,0,1,2.41-3.53,10.14,10.14,0,0,1,3.64-2.17,13.79,13.79,0,0,1,4.58-.71,14.24,14.24,0,0,1,4.58.71,9.53,9.53,0,0,1,6,5.68,13.29,13.29,0,0,1,.83,5,13.58,13.58,0,0,1-.85,5,9.49,9.49,0,0,1-2.34,3.51,9.61,9.61,0,0,1-3.62,2.08,15.17,15.17,0,0,1-4.7.66l-14-.06C776.38,547.18,776.06,547,776.06,546.67Zm10.57-15.62a7.52,7.52,0,0,0-1.54,4.9,7.34,7.34,0,0,0,1.51,4.88,6.4,6.4,0,0,0,9,0,7.35,7.35,0,0,0,1.56-4.87,7.52,7.52,0,0,0-1.5-4.91,6.39,6.39,0,0,0-9,0Zm30.69,11.67c.2.06.3.25.3.55l0,3.59c0,.34-.32.51-1,.5l-9.39,0,.15-32.9,5.25,0-.13,28.15,4.14,0A2.23,2.23,0,0,1,817.32,542.72Zm16.68,0a3.44,3.44,0,0,0,1.29-.57,3.07,3.07,0,0,0,.9-1.1,3.89,3.89,0,0,0,.36-1.75l.05-10.49,5.24,0-.05,10.49a3,3,0,0,0,1.28,2.83,6.56,6.56,0,0,0,3.35.78,5.88,5.88,0,0,0,3.06-.75,3,3,0,0,0,1.28-2.82l.06-11.46,5.24,0,0,11.31a4,4,0,0,0,.31,1.71,3.24,3.24,0,0,0,.8,1.11,2.78,2.78,0,0,0,1,.57,3.71,3.71,0,0,0,1.06.17h2.85a2.7,2.7,0,0,1,.67.1c.2.06.3.25.3.55l0,3.59c0,.34-.32.51-1,.5h-2.85a5.91,5.91,0,0,1-1.2-.14,4.79,4.79,0,0,1-1.24-.47,5,5,0,0,1-1.1-.83,3.08,3.08,0,0,1-.73-1.2h-.18a5.6,5.6,0,0,1-2.61,2.05,11.9,11.9,0,0,1-4.49.67,12.79,12.79,0,0,1-4.55-.68,3.73,3.73,0,0,1-2.29-2.06h-.18a5.26,5.26,0,0,1-2.52,2,11.66,11.66,0,0,1-4.35.65,12.51,12.51,0,0,1-4.12-.64,3.94,3.94,0,0,1-2.4-2H827c-1,1.62-2.58,2.43-4.89,2.42l-5.52,0q-1,0-1-.51l0-3.59c0-.3.1-.49.3-.55a2.31,2.31,0,0,1,.67-.09l3.08,0a3.52,3.52,0,0,0,1-.16,2.61,2.61,0,0,0,1-.57,3.25,3.25,0,0,0,.81-1.1,4,4,0,0,0,.33-1.75l0-9.43,5.25,0-.05,9.61a3.9,3.9,0,0,0,.34,1.75,3,3,0,0,0,.92,1.11,3.44,3.44,0,0,0,1.35.58,8,8,0,0,0,1.66.17A7.79,7.79,0,0,0,834,542.73Zm3.9-28.16,0,5.38-5.25,0,0-5.38Zm4-7.07,0,5.38-5.24,0,0-5.38Zm3.83,7.1,0,5.38-5.24,0,0-5.38Zm23.5.11,5.25,0-.16,32.9L862,547.57c-.65,0-1-.17-1-.51l0-3.59c0-.3.1-.49.3-.55a2.31,2.31,0,0,1,.67-.09l7,0Zm10.76,0,5.25,0-.15,32.9-5.25,0Zm28.57,44.53a13.19,13.19,0,0,1-5.23-3.64,14,14,0,0,1-2.84-5.62,29.49,29.49,0,0,1-.89-7.3l4.74,0a20.51,20.51,0,0,0,.84,6.06,10.29,10.29,0,0,0,2.4,4.1,9.85,9.85,0,0,0,3.85,2.37,16.8,16.8,0,0,0,5.27.78,26.77,26.77,0,0,0,4.12-.28,11.21,11.21,0,0,0,3.31-1A5.84,5.84,0,0,0,926.3,553a4.52,4.52,0,0,0,.82-2.71,2.39,2.39,0,0,0-.14-.69,3,3,0,0,0-1.07-1.48,1.47,1.47,0,0,0-.85-.28,8.77,8.77,0,0,1-1.17-.09c-.45-.07-.92-.16-1.43-.29a10,10,0,0,1-3-1.25l0-4.56a7,7,0,0,0,1.49.61c.63.18,1.3.34,2,.47s1.4.22,2.07.28a16.82,16.82,0,0,0,1.7.1l6.26,0a2,2,0,0,1,.67.1c.2.06.29.24.29.55v3.59c0,.34-.33.5-1,.5l-3.22,0a5.61,5.61,0,0,1,1.05,1.83,6.08,6.08,0,0,1,.4,2,6.44,6.44,0,0,1-1,3.35A8.85,8.85,0,0,1,927.5,558a15.44,15.44,0,0,1-4.59,2,24.86,24.86,0,0,1-6.38.7A21.73,21.73,0,0,1,908.51,559.29Zm7.07,7.62,0,5.38-5.24,0,0-5.38Zm7.78,0,0,5.38-5.24,0,0-5.39ZM940.16,515l5.24,0-.15,32.9L933,547.9q-1,0-1-.51l0-3.59c0-.31.1-.49.3-.55a2.31,2.31,0,0,1,.67-.09l7,0Zm20.68,28.34c.2.06.3.25.3.55l0,3.59c0,.34-.32.51-1,.5l-9.38,0,.15-32.89,5.25,0L956,543.27l4.14,0A2.29,2.29,0,0,1,960.84,543.38Zm10.52,4.79a8.93,8.93,0,0,1-4-3.93,5.82,5.82,0,0,1-2.29,2.86,6.12,6.12,0,0,1-3.38.93h-1.57q-1,0-1-.51l0-3.59c0-.3.1-.49.3-.55a2.31,2.31,0,0,1,.67-.09h1.51a5.6,5.6,0,0,0,1.66-.24,3.5,3.5,0,0,0,1.38-.83,4,4,0,0,0,1-1.55,7.41,7.41,0,0,0,.38-2.51,13.32,13.32,0,0,1,.87-5,9.8,9.8,0,0,1,2.41-3.54,10,10,0,0,1,3.65-2.1,14.53,14.53,0,0,1,4.58-.66,14.22,14.22,0,0,1,4.57.71,9.53,9.53,0,0,1,6,5.68,13.29,13.29,0,0,1,.83,5,7.27,7.27,0,0,0,.35,2.51,4.24,4.24,0,0,0,1,1.56,3.52,3.52,0,0,0,1.38.84,5.3,5.3,0,0,0,1.66.26h1.51a2.31,2.31,0,0,1,.67.09c.2.06.3.25.3.55l0,3.59c0,.34-.32.51-1,.5h-1.56a6.26,6.26,0,0,1-3.38-1,5.85,5.85,0,0,1-2.26-2.89,8.8,8.8,0,0,1-4,3.89,15.26,15.26,0,0,1-12.26-.05ZM982,543.11a7.35,7.35,0,0,0,1.56-4.87,7.52,7.52,0,0,0-1.5-4.91,6.39,6.39,0,0,0-9,0,7.51,7.51,0,0,0-1.54,4.89,7.3,7.3,0,0,0,1.52,4.89,6.39,6.39,0,0,0,9,0Zm20-27.79,5.25,0-.16,32.89-12.23-.06c-.65,0-1-.17-1-.51l0-3.59c0-.3.1-.49.3-.55a2.31,2.31,0,0,1,.67-.09l7,0Zm10.77,0,5.24,0-.15,32.89-5.25,0Zm29,42.83a12.82,12.82,0,0,1-5.16-3.59,16.28,16.28,0,0,1-3.19-6.18,31.93,31.93,0,0,1-1.06-8.95v-3l5.11,0,0,3a32.7,32.7,0,0,0,.66,7.3,11.78,11.78,0,0,0,2,4.68,7.46,7.46,0,0,0,3.51,2.5,15.7,15.7,0,0,0,5,.76,15.1,15.1,0,0,0,5.23-.85,10.11,10.11,0,0,0,4-2.7,12.24,12.24,0,0,0,2.55-4.7,24.2,24.2,0,0,0,.91-6.88l0-9.43,5.25,0,0,8.09h.23q1.57-2,3.49-4a28.56,28.56,0,0,1,4.16-3.63,23.45,23.45,0,0,1,4.7-2.63,13.16,13.16,0,0,1,5.14-1,15.45,15.45,0,0,1,4.85.76A10.67,10.67,0,0,1,1093,530a9.92,9.92,0,0,1,2.46,3.55,12.42,12.42,0,0,1,.88,4.88l0,10.26-31-.14a18.33,18.33,0,0,1-2.13,4.27,14.5,14.5,0,0,1-3.36,3.46,15.52,15.52,0,0,1-4.74,2.32,21.22,21.22,0,0,1-6.29.82A19.73,19.73,0,0,1,1041.78,558.2Zm38.7-25.72a19.43,19.43,0,0,0-3.58,1.87,27.54,27.54,0,0,0-3.3,2.56c-1,.94-2,1.86-2.84,2.75s-1.57,1.7-2.17,2.45-1,1.3-1.32,1.67l23.87.11,0-5.43q0-3.45-1.59-5.07c-1.07-1.07-2.87-1.62-5.42-1.63A9.64,9.64,0,0,0,1080.48,532.48Zm-6.87-16.83,0,5.39-5.24,0,0-5.38Zm35.66,41.23q-1.83,2.77-6.15,2.75a10.73,10.73,0,0,1-1.71-.12,6.39,6.39,0,0,1-1.24-.31,6.58,6.58,0,0,1-1.05-.41l0-4.42a7.17,7.17,0,0,0,3.44.8,3.72,3.72,0,0,0,1.39-.23,2.13,2.13,0,0,0,1-.89,5.43,5.43,0,0,0,.65-1.9,18.73,18.73,0,0,0,.25-3.27l.09-19.78,5.25,0,0,10.91a4.16,4.16,0,0,0,.38,2,3.32,3.32,0,0,0,1,1.23,4,4,0,0,0,1.56.62,10.52,10.52,0,0,0,1.91.17h1.61a2,2,0,0,1,.67.1c.2.06.29.24.29.55v3.59c0,.34-.33.5-1,.5H1116a4.73,4.73,0,0,1-1.35-.21,6.41,6.41,0,0,1-1.38-.58,4.79,4.79,0,0,1-1.17-.9,3.78,3.78,0,0,1-.78-1.23h-.18l0,3.08Q1111.11,554.11,1109.27,556.88Zm19.59-13a10.19,10.19,0,0,1-2-3.25c-.6-1.4-1.17-2.86-1.73-4.38s-1.15-3-1.78-4.43a10.22,10.22,0,0,0-2.17-3.34v-.83l18.22.08a8.38,8.38,0,0,1,6.24,2.29,8.59,8.59,0,0,1,1,10,17.16,17.16,0,0,1-3.08,3.92v.23h4.48c.91,0,1.71,0,2.42,0h1.1a2.31,2.31,0,0,1,.67.09c.2.07.3.25.3.56l0,3.59c0,.33-.32.5-1,.5l-33.9-.16c-.65,0-1-.17-1-.51l0-3.59c0-.31.1-.49.3-.55a2.31,2.31,0,0,1,.67-.09l11.18,0Zm9.43-.37a8.91,8.91,0,0,0,2.1-2.18,11.42,11.42,0,0,0,1.44-2.8,8,8,0,0,0,.54-2.69,3.12,3.12,0,0,0-1-2.42,3.79,3.79,0,0,0-2.71-.95l-10.12-.05a4.4,4.4,0,0,1,1,1.55c.3.72.62,1.52,1,2.39s.67,1.79,1,2.75a18.18,18.18,0,0,0,1.16,2.58,8.65,8.65,0,0,0,1.39,1.91,2.34,2.34,0,0,0,1.68.77A4.24,4.24,0,0,0,1138.29,543.51ZM1158.7,516l5.25,0-.16,32.89-12.23-.05c-.65,0-1-.18-1-.51l0-3.59c0-.31.1-.49.3-.55a2.31,2.31,0,0,1,.67-.09l7,0Zm10.77.05,5.24,0-.15,32.89-5.25,0Z"/></g></svg>