<svg xmlns="http://www.w3.org/2000/svg" viewBox="0 0 41.93 74.49"><defs><style>.cls-1{fill:#cf4055;}</style></defs><g id="Layer_2" data-name="Layer 2"><g id="Layer_1-2" data-name="Layer 1"><path class="cls-1" d="M4.87,60.31c1.11.16,3.21.5,5.12.82,1.35.21,2.63.42,3.39.58.24.06.51.08.77.14a21.78,21.78,0,0,1,2.23.45,24.16,24.16,0,0,1,5,1.46,29.8,29.8,0,0,1,2.79,1.51,15.87,15.87,0,0,0,8.62,2.25,16.73,16.73,0,0,0,2.28-.16l-.87,7.09a15.76,15.76,0,0,1-3.7-.16c-1.12-.18-2.23-.4-3.33-.67-.67-.16-1.33-.33-2-.53-2.44-.71-2.6-1-9.32-3.45a51.63,51.63,0,0,0-7.77-2.06,13.15,13.15,0,0,0-2.49-.19,6.36,6.36,0,0,0-.77,0,12.89,12.89,0,0,0-2.23.34c-.05,0-.08,0-.13,0s1.54-7.56,1.54-7.59l.08,0Z"/><path class="cls-1" d="M10.43,9.33,6.63,6.57Q9.48.32,14.7.32a21.09,21.09,0,0,1,5.54,1.1,20.83,20.83,0,0,0,5.34,1.11c1.14,0,2.2-.84,3.21-2.53l4.27,2.29q-2.61,6.89-8.15,6.89a19.84,19.84,0,0,1-5.14-1.07A20,20,0,0,0,14.86,7a5.31,5.31,0,0,0-2.29.43,8.37,8.37,0,0,0-2.14,1.86"/><path class="cls-1" d="M9,38.81q.13,17.8,12.48,17.72,6.6,0,9.22-5.51A26,26,0,0,0,33,39.22,30,30,0,0,0,30.8,27.75a10,10,0,0,0-3.73-4.5,11.44,11.44,0,0,0-6.44-1.61,9.74,9.74,0,0,0-6.77,2.64A13.35,13.35,0,0,0,10,30.55a29.29,29.29,0,0,0-1,8.26M21.76,14.24a18.88,18.88,0,0,1,14.3,5.94q5.79,6,5.87,18.37T36.35,57.33Q30.69,63.72,21,63.79T5.66,57.58Q.08,51.3,0,39.23a31.84,31.84,0,0,1,1.86-11.6,19.1,19.1,0,0,1,5-7.76,22.06,22.06,0,0,1,14.86-5.63"/></g></g></svg>