<svg xmlns="http://www.w3.org/2000/svg" viewBox="0 0 133.24 60.61"><defs><style>.cls-1{fill:#d04055;}.cls-2{fill:#2a2a68;}</style></defs><g id="Layer_2" data-name="Layer 2"><g id="Layer_1-2" data-name="Layer 1"><path class="cls-1" d="M3.14,38.84c.71.1,2.06.32,3.29.53.87.13,1.69.27,2.19.37.15,0,.32,0,.49.09a12.08,12.08,0,0,1,1.44.29,15.76,15.76,0,0,1,3.25.94c.51.24,1.07.54,1.79,1a10.24,10.24,0,0,0,5.55,1.45,10.89,10.89,0,0,0,1.47-.1l-.56,4.56a10.06,10.06,0,0,1-2.39-.1c-.71-.12-1.43-.26-2.14-.43-.43-.1-.86-.22-1.28-.34-1.57-.46-1.68-.63-6-2.22a32.31,32.31,0,0,0-5-1.33,7.82,7.82,0,0,0-1.61-.12H3.14a8.19,8.19,0,0,0-1.44.23H1.62s1-4.87,1-4.89l.05,0Z"/><path class="cls-1" d="M6.72,6,4.27,4.23q1.85-4,5.2-4A13.35,13.35,0,0,1,13,.92a13.54,13.54,0,0,0,3.43.71c.73,0,1.42-.54,2.07-1.63l2.75,1.48Q19.61,5.9,16,5.91a12.67,12.67,0,0,1-3.31-.69,12.81,12.81,0,0,0-3.16-.69,3.45,3.45,0,0,0-1.48.28A5.31,5.31,0,0,0,6.72,6Z"/><path class="cls-1" d="M14,9.17A12.14,12.14,0,0,1,23.22,13C25.7,15.56,27,19.51,27,24.83s-1.16,9.34-3.59,12.09a12.72,12.72,0,0,1-9.91,4.16q-6.27,0-9.86-4T0,25.26a20.48,20.48,0,0,1,1.2-7.47,12.47,12.47,0,0,1,3.24-5A14.21,14.21,0,0,1,14,9.17ZM5.78,25q.08,11.48,8,11.41a6.06,6.06,0,0,0,5.94-3.55,16.66,16.66,0,0,0,1.52-7.59,19.13,19.13,0,0,0-1.44-7.39,6.41,6.41,0,0,0-2.4-2.9,7.35,7.35,0,0,0-4.14-1,6.24,6.24,0,0,0-4.36,1.69,8.67,8.67,0,0,0-2.49,4A18.68,18.68,0,0,0,5.78,25Z"/><path class="cls-2" d="M33.87,59.45h4.05v1H32.78V52.67h5v.95H33.87v2.32h3.65v.93H33.87Z"/><path class="cls-2" d="M48.5,59h0l2.33-6.35H52l-3,7.75H48l-3-7.75h1.2Z"/><path class="cls-2" d="M60.61,59.45h4v1H59.53V52.67h5v.95H60.61v2.32h3.66v.93H60.61Z"/><path class="cls-2" d="M78.14,58.86h0V52.67h1.09v7.75H77.88l-4.1-6.33h0v6.33H72.68V52.67h1.41Z"/><path class="cls-2" d="M90.42,60.42H89.33v-6.8H86.85v-.95H92.9v.95H90.42Z"/><path class="cls-2" d="M104.35,54.1a1.83,1.83,0,0,0-1.51-.72,1.36,1.36,0,0,0-1.51,1.26c0,.84.71,1.07,1.59,1.35,1,.33,2.28.73,2.28,2.27a2.4,2.4,0,0,1-2.69,2.35A3.27,3.27,0,0,1,100,59.49l.84-.71a2.14,2.14,0,0,0,1.74.9,1.4,1.4,0,0,0,1.55-1.32c0-.94-.85-1.19-1.84-1.5s-2-.76-2-2.18,1.38-2.21,2.66-2.21a3,3,0,0,1,2.22.89Z"/><path class="cls-2" d="M55.13,36.64v3.68H47.58v-3A8.65,8.65,0,0,1,40,40.93q-7.23,0-7.23-8.07V22.08c0-.83-.39-1.27-1.16-1.3l-1.5-.09V16.86h8.21V31.65a8,8,0,0,0,.7,3.73c.47.84,1.43,1.26,2.89,1.26a4.72,4.72,0,0,0,3.52-1.36A4.47,4.47,0,0,0,46.78,32V22.18a1.65,1.65,0,0,0-.25-1.05,1.28,1.28,0,0,0-.91-.35l-1.5-.09V16.86h8.21V35.14a1.53,1.53,0,0,0,.24,1,1.57,1.57,0,0,0,.93.35Z"/><path class="cls-2" d="M58.63,38.92V12.15c0-.71-.39-1.09-1.17-1.12l-1.63-.09V7.07H64V18.12a8,8,0,0,1,5.64-2,8.74,8.74,0,0,1,6.95,3c1.71,2,2.57,4.75,2.57,8.33q0,13.47-11.29,13.48a24,24,0,0,1-5.11-.59A15,15,0,0,1,58.63,38.92ZM64,23.81V35.89a8.7,8.7,0,0,0,4.1.93q5.33,0,5.32-8.62,0-7.89-5.23-7.89a4.66,4.66,0,0,0-2.93,1A3,3,0,0,0,64,23.81Z"/><path class="cls-2" d="M102.51,17.79V35.14a1.57,1.57,0,0,0,.25,1,1.37,1.37,0,0,0,.91.33l1.49.09v3.73H97.75V37.61l-.14,0a7.38,7.38,0,0,1-6.39,3.36q-4.75,0-7-3c-1.53-2-2.29-4.78-2.29-8.3q0-6.35,3.08-9.88t9.23-3.55A23.78,23.78,0,0,1,102.51,17.79ZM97.1,32.91V20.83a8.64,8.64,0,0,0-3.6-.61A4.78,4.78,0,0,0,89,22.74a13.74,13.74,0,0,0-1.4,6.67q0,7.54,4.85,7.55a4.7,4.7,0,0,0,3.36-1.23A3.82,3.82,0,0,0,97.1,32.91Z"/><path class="cls-2" d="M110.85,35.1V12.38a1.53,1.53,0,0,0-.25-1,1.33,1.33,0,0,0-.91-.33l-3.77-.09V7.07h10.44V19.61a7.83,7.83,0,0,1,6.81-3.45,7.23,7.23,0,0,1,5.48,2q1.93,2,1.93,6.09V36.45l2.66.14v3.73h-11.1V36.78l1.54-.14a1.93,1.93,0,0,0,1-.4A1.57,1.57,0,0,0,125,35.1V25.49a7.33,7.33,0,0,0-.77-3.73,3.17,3.17,0,0,0-3-1.31,4.71,4.71,0,0,0-3.55,1.38,4.65,4.65,0,0,0-1.33,3.33V36.45l2.66.14v3.73H108V36.78l1.54-.14a1.93,1.93,0,0,0,1-.4A1.52,1.52,0,0,0,110.85,35.1Z"/><path class="cls-2" d="M74,6.08V7.52h.6a.59.59,0,0,1,.34.07c.07,0,.12.13.12.32v2.23H72.43V6.93H71v3.21H68.65V8.09c0-.18,0-.3.09-.34a.59.59,0,0,1,.34-.07h.46V6.27H67.21v5.47h9.28V6.08Z"/></g></g></svg>