<svg id="Layer_1" data-name="Layer 1" xmlns="http://www.w3.org/2000/svg" xmlns:xlink="http://www.w3.org/1999/xlink" viewBox="0 0 1920 1080"><defs><style>.cls-1,.cls-4{fill:none;}.cls-2{clip-path:url(#clip-path);}.cls-3{fill:#cf4055;}.cls-4{stroke:#22a6de;stroke-miterlimit:10;stroke-width:0.52px;}</style><clipPath id="clip-path"><rect class="cls-1" width="1920" height="1080"/></clipPath></defs><g class="cls-2"><path class="cls-3" d="M1770.59,586.34q77.72-10.35,151-45.81,205.22-99.16,335.76-392.29L2022.8,51.05q-193.5,421.88-502.15,291.4-171.93-72.65-181.2-243.57C1333.12,4.74,1352-98,1395.78-208.76l-232.4-96.3Q1049.57-10.7,1122.82,202a520.54,520.54,0,0,0,77.92,146.51c-44.4-27.68-91.83-57.1-117.81-72.49l-18.11-10.72a5.91,5.91,0,0,0-1.77-1.54l-.29.69-121.2,179-.29.69c1.37.57,2.35.17,3.72.74a358.61,358.61,0,0,1,61.45,15,202.44,202.44,0,0,1,20.22,7.58c29.16,11.28,49.73,23.82,62.62,31.57,93.91,59,179.14,137,179.14,137,147.37,135.86,148.64,144.42,204.17,189.15A1211.41,1211.41,0,0,0,1640,938c16.5,6.83,34,13.27,51.73,19l98.88-173.77a488,488,0,0,1-60.83-20.38c-85.52-34.63-151.48-85.28-199.14-150.88-20.55-27.52-37.35-48.42-53.17-66,102.45,39.8,199.9,53.53,292.55,40.3A.64.64,0,0,0,1770.59,586.34Z"/></g><g class="cls-2"><path class="cls-4" d="M-136.67,268.76l-92.41-67.21Q-159.84,49.93-32.81,49.93q46.11,0,134.69,26.82t129.86,26.9q41.34,0,77.94-61.45L413.54,97.89Q350,265,215.38,265q-40.42,0-125-26t-119.28-26c-23.08,0-41.77,3.61-55.8,10.57S-116.18,245.72-136.67,268.76Z"/></g><path class="cls-3" d="M127.94,452.6l-10.65-7.75q8-17.46,22.61-17.47,5.31,0,15.52,3.09t15,3.1c3.17,0,6.16-2.35,9-7.08l12,6.42Q184,452.16,168.5,452.16q-4.65,0-14.41-3c-6.51-2-11.08-3-13.74-3a14.61,14.61,0,0,0-6.43,1.22A22.37,22.37,0,0,0,127.94,452.6Z"/></svg>