<svg id="Layer_1" data-name="Layer 1" xmlns="http://www.w3.org/2000/svg" viewBox="0 0 206.17 49.07"><defs><style>.cls-1{fill:#cf4055;}.cls-2{fill:#2c2967;}</style></defs><path class="cls-1" d="M934.65,554.72c.74.11,2.12.34,3.37.55.9.14,1.73.28,2.24.38.16,0,.33.05.51.09a13.67,13.67,0,0,1,1.47.3,16.26,16.26,0,0,1,3.32,1c.52.24,1.1.56,1.83,1a10.52,10.52,0,0,0,5.68,1.49,11.4,11.4,0,0,0,1.5-.11L954,564a10.46,10.46,0,0,1-2.44-.11c-.74-.11-1.47-.26-2.19-.43l-1.32-.35c-1.6-.48-1.71-.65-6.13-2.28a34.55,34.55,0,0,0-5.12-1.36,9,9,0,0,0-1.64-.12,4.18,4.18,0,0,0-.51,0,8.59,8.59,0,0,0-1.46.22s-.06,0-.09,0,1-5,1-5l0,0Z" transform="translate(-856.7 -515)"/><path class="cls-1" d="M938.32,521.15l-2.5-1.82q1.88-4.12,5.31-4.12a13.67,13.67,0,0,1,3.65.73,13.56,13.56,0,0,0,3.52.73c.74,0,1.44-.56,2.11-1.67l2.81,1.51q-1.72,4.54-5.37,4.54a13,13,0,0,1-3.38-.71,13,13,0,0,0-3.23-.7,3.43,3.43,0,0,0-1.52.29,5.12,5.12,0,0,0-1.4,1.22" transform="translate(-856.7 -515)"/><path class="cls-1" d="M937.36,540.57q.07,11.73,8.21,11.67a6.22,6.22,0,0,0,6.08-3.64,17.11,17.11,0,0,0,1.55-7.76,19.56,19.56,0,0,0-1.47-7.56,6.46,6.46,0,0,0-2.46-3,7.46,7.46,0,0,0-4.23-1.06,6.41,6.41,0,0,0-4.46,1.73,8.84,8.84,0,0,0-2.55,4.13,18.8,18.8,0,0,0-.67,5.45m8.42-16.19a12.47,12.47,0,0,1,9.42,3.91q3.81,3.94,3.86,12.11c0,5.43-1.18,9.56-3.67,12.36A13,13,0,0,1,945.25,557q-6.4,0-10.08-4.09t-3.72-12.09a20.67,20.67,0,0,1,1.22-7.64,12.61,12.61,0,0,1,3.32-5.11,14.54,14.54,0,0,1,9.79-3.71" transform="translate(-856.7 -515)"/><path class="cls-2" d="M867.51,540.4v.05l0,2.11,0,2v.57h-2.68a4.55,4.55,0,0,1-3.54-1.45,5.9,5.9,0,0,1-1.25-4.1c0-3.47,1.78-5.22,5.22-5.21l2.37,0ZM904,552.22c0-.07-.46-2.17-.55-2.6l-.06-.29h-15v-11h-4.75v2.21l.87,0a.7.7,0,0,1,.52.22,1,1,0,0,1,.15.61v5.69a3,3,0,0,1-.54,1.32,1.26,1.26,0,0,1-.31.3,2.1,2.1,0,0,1-.69.32,9.59,9.59,0,0,1-1.27.27,10.68,10.68,0,0,1-1.26,0h-6.51c-.35,0-.67,0-1,0a2.87,2.87,0,0,1-.57-.11,3.41,3.41,0,0,1-1.33-.67,2.88,2.88,0,0,1-.8-1.17,2.21,2.21,0,0,1-.13-.65,5.77,5.77,0,0,1,0-.84v-5.34l0-6.33,1.5-.06,0-1.94-7.28,0a9.54,9.54,0,0,0-6.11,1.75,6.4,6.4,0,0,0-2.24,5.24,9.73,9.73,0,0,0,.66,3.77,5.9,5.9,0,0,0,1.76,2.52,8.74,8.74,0,0,0,5.67,1.85l2.7,0c0,.19.07.39.11.57a4.86,4.86,0,0,0,1.71,2.79,6.88,6.88,0,0,0,2.7,1.28,9.1,9.1,0,0,0,1.94.29h7.24a7,7,0,0,0,1.21-.1,5.31,5.31,0,0,0,2.3-1,5.17,5.17,0,0,0,.95-1v2.11Z" transform="translate(-856.7 -515)"/><path class="cls-2" d="M889.45,529.13h-1.89v1.08H888a.43.43,0,0,1,.26.06c.05,0,.08.1.08.24v1.69h-2v-2.44h-1.09v2.44h-1.8v-1.56c0-.13,0-.22.07-.25a.47.47,0,0,1,.27-.06h.34v-1.07h-1.77v4.16h7.06Z" transform="translate(-856.7 -515)"/><path class="cls-2" d="M912.61,543.32a3.49,3.49,0,0,1-3.42,2q-4.61,0-4.64-6.58a10.84,10.84,0,0,1,.37-3.08,5.09,5.09,0,0,1,1.45-2.33,3.61,3.61,0,0,1,2.51-1,4.24,4.24,0,0,1,2.39.6,3.75,3.75,0,0,1,1.39,1.67,11.19,11.19,0,0,1,.82,4.26,9.61,9.61,0,0,1-.87,4.39m2-11.46a7,7,0,0,0-5.3-2.21,8.3,8.3,0,0,0-5.52,2.09,7.14,7.14,0,0,0-1.87,2.89,11.23,11.23,0,0,0-.69,4.3c0,3,.72,5.27,2.1,6.83a7.07,7.07,0,0,0,5.68,2.3h.32c.28,0,.55,0,.82-.07h.05l.66-.12.18,0,.44-.11.34-.11.25-.09.06,0,.26-.11h0a6.89,6.89,0,0,0,2.31-1.71c1.39-1.59,2.1-3.92,2.07-7s-.75-5.35-2.19-6.83" transform="translate(-856.7 -515)"/><path class="cls-2" d="M915.72,549.33l-.48-2.41s-1.74.27-2.85.46h0a6.54,6.54,0,0,1-.91.33l-.44.11-.18,0a5,5,0,0,1-.66.11h-.05a7.33,7.33,0,0,1-.83.07h0l-.19.07c-.72.27-.7.41-1.35.69a8.58,8.58,0,0,1-3.09.51h-1.26l.07.29c.09.43.54,2.53.55,2.59h0a8.45,8.45,0,0,0,2.69-.32l.66-.18c.91-.27,1-.37,3.46-1.28a18.57,18.57,0,0,1,2.88-.76,4.92,4.92,0,0,1,2.09.07Z" transform="translate(-856.7 -515)"/><path class="cls-2" d="M910.14,548l-.82.07h0a7.33,7.33,0,0,0,.83-.07" transform="translate(-856.7 -515)"/><path class="cls-2" d="M911.47,547.72a6.54,6.54,0,0,0,.91-.33h0a5.5,5.5,0,0,1-.91.34" transform="translate(-856.7 -515)"/><path class="cls-2" d="M910.85,547.87a4.54,4.54,0,0,1-.66.11,5,5,0,0,0,.66-.11" transform="translate(-856.7 -515)"/><path class="cls-2" d="M911.66,526.76a1.86,1.86,0,0,0,1.32-.5,1.64,1.64,0,0,0,.5-1.26,1.69,1.69,0,0,0-.52-1.27,1.81,1.81,0,0,0-1.33-.51,1.76,1.76,0,0,0-1.31.53,1.73,1.73,0,0,0-.49,1.28,1.66,1.66,0,0,0,.51,1.25,1.82,1.82,0,0,0,1.32.48" transform="translate(-856.7 -515)"/><path class="cls-2" d="M906.08,526.76a1.86,1.86,0,0,0,1.32-.5,1.68,1.68,0,0,0,.51-1.26,1.73,1.73,0,0,0-.52-1.27,1.83,1.83,0,0,0-1.33-.51,1.8,1.8,0,0,0-1.3,3.06,1.85,1.85,0,0,0,1.32.48" transform="translate(-856.7 -515)"/><path class="cls-2" d="M884.08,559.34a1.87,1.87,0,0,0,1.33-.5,1.64,1.64,0,0,0,.5-1.26,1.69,1.69,0,0,0-.52-1.27,1.83,1.83,0,0,0-1.33-.51,1.76,1.76,0,0,0-1.81,1.81,1.7,1.7,0,0,0,.52,1.25,1.81,1.81,0,0,0,1.31.48" transform="translate(-856.7 -515)"/><path class="cls-2" d="M1002.25,546.14v2.12h-4.37v-1.75a5,5,0,0,1-4.36,2.1q-4.18,0-4.18-4.66v-6.22c0-.48-.22-.73-.67-.75l-.86-.06v-2.21h4.74v8.54a4.56,4.56,0,0,0,.4,2.16,1.76,1.76,0,0,0,1.67.73,2.75,2.75,0,0,0,2-.79,2.57,2.57,0,0,0,.76-1.88v-5.68a1,1,0,0,0-.14-.61.74.74,0,0,0-.53-.2l-.86-.06v-2.21h4.74v10.56a.9.9,0,0,0,.13.58.86.86,0,0,0,.54.2Z" transform="translate(-856.7 -515)"/><path class="cls-2" d="M1007.39,538.73v7a5,5,0,0,0,2.37.54q3.07,0,3.07-5,0-4.54-3-4.55a2.71,2.71,0,0,0-1.69.56,1.77,1.77,0,0,0-.73,1.46m-3.13,8.72V532c0-.41-.22-.62-.67-.64l-.94-.06v-2.23h4.74v6.38a4.6,4.6,0,0,1,3.26-1.13,5,5,0,0,1,4,1.71,7.1,7.1,0,0,1,1.48,4.81q0,7.78-6.52,7.78a14.09,14.09,0,0,1-2.94-.33,8.87,8.87,0,0,1-2.42-.83" transform="translate(-856.7 -515)"/><path class="cls-2" d="M1022.37,538.73v7a5,5,0,0,0,2.37.54c2,0,3.07-1.66,3.07-5q0-4.54-3-4.55a2.73,2.73,0,0,0-1.7.56,1.79,1.79,0,0,0-.72,1.46m-3.13,8.72V532c0-.41-.22-.62-.67-.64l-1-.06v-2.23h4.75v6.38a4.57,4.57,0,0,1,3.25-1.13,5.05,5.05,0,0,1,4,1.71,7.15,7.15,0,0,1,1.48,4.81q0,7.78-6.52,7.78a14.18,14.18,0,0,1-2.95-.33,8.79,8.79,0,0,1-2.41-.83" transform="translate(-856.7 -515)"/><path class="cls-2" d="M1042,544v-7a5,5,0,0,0-2.07-.35,2.77,2.77,0,0,0-2.62,1.46,7.9,7.9,0,0,0-.8,3.85q0,4.37,2.8,4.36a2.7,2.7,0,0,0,1.94-.71A2.2,2.2,0,0,0,1042,544m3.12-8.73v10a.9.9,0,0,0,.15.6.79.79,0,0,0,.53.18l.86.06v2.15h-4.28V546.7l-.08,0a4.25,4.25,0,0,1-3.69,1.94,4.75,4.75,0,0,1-4.07-1.75,7.76,7.76,0,0,1-1.32-4.79,8.4,8.4,0,0,1,1.78-5.71,6.65,6.65,0,0,1,5.33-2.05,13.75,13.75,0,0,1,4.79.94" transform="translate(-856.7 -515)"/><path class="cls-2" d="M1050,545.25V532.13a.86.86,0,0,0-.15-.59.79.79,0,0,0-.53-.19l-.94-.06v-2.23h4.79v7.24a4.57,4.57,0,0,1,3.94-2,4.16,4.16,0,0,1,3.16,1.17,4.91,4.91,0,0,1,1.12,3.52v7l1.53.08v2.15h-6.41v-2l.89-.09a1.11,1.11,0,0,0,.6-.22.93.93,0,0,0,.18-.66V539.7a4.27,4.27,0,0,0-.44-2.16,1.84,1.84,0,0,0-1.72-.75,2.67,2.67,0,0,0-2.82,2.72V546l1.54.08v2.15h-6.41v-2l.89-.09a1.11,1.11,0,0,0,.59-.22.93.93,0,0,0,.19-.66" transform="translate(-856.7 -515)"/><path class="cls-2" d="M981.76,543.57a3.47,3.47,0,0,1-3.38,2q-4.53,0-4.58-6.5a10.84,10.84,0,0,1,.37-3,5,5,0,0,1,1.42-2.3,3.59,3.59,0,0,1,2.49-1,4.16,4.16,0,0,1,2.36.59,3.71,3.71,0,0,1,1.37,1.65,11.08,11.08,0,0,1,.82,4.21,9.46,9.46,0,0,1-.87,4.32m2.08,2.32q2.08-2.34,2-6.89t-2.15-6.74a7,7,0,0,0-5.25-2.18,8.15,8.15,0,0,0-5.45,2.07,7,7,0,0,0-1.85,2.84,11.9,11.9,0,0,0-.68,4.26c0,3,.71,5.2,2.07,6.73a6.39,6.39,0,0,0,1.6,1.3h0l-1.87-.3-.28,0h0s-.56,2.79-.56,2.79h.05a4.4,4.4,0,0,1,.82-.13h.28a4.75,4.75,0,0,1,.91.07,18.41,18.41,0,0,1,2.85.76c2.47.9,2.52,1,3.42,1.26l.73.2c.4.09.81.18,1.22.24a5.62,5.62,0,0,0,1.36.06l.32-2.6a6.26,6.26,0,0,1-.84.06,5.76,5.76,0,0,1-3.16-.83c-.41-.24-.73-.41-1-.55a7.17,7.17,0,0,0,5.47-2.36" transform="translate(-856.7 -515)"/></svg>