<svg id="Layer_1" data-name="Layer 1" xmlns="http://www.w3.org/2000/svg" xmlns:xlink="http://www.w3.org/1999/xlink" viewBox="0 0 1920 1080"><defs><style>.cls-1,.cls-4{fill:none;}.cls-2{fill:#2a2a68;}.cls-3{clip-path:url(#clip-path);}.cls-4{stroke:#22a4dc;stroke-miterlimit:10;stroke-width:0.52px;}.cls-5{fill:#cd4055;}.cls-6{fill:#fff;}</style><clipPath id="clip-path"><rect class="cls-1" x="4.81" width="1916.19" height="1080.01"/></clipPath></defs><rect class="cls-2" x="1" width="1919.18" height="1080.01"/><g class="cls-3"><path class="cls-4" d="M-131.59,268.75l-92.23-67.21q69.1-151.6,195.88-151.61,46,0,134.42,26.82t129.61,26.9q41.25,0,77.78-61.46l103.66,55.7Q354.1,265,219.76,265,179.41,265,95,239t-119-26c-23,0-41.69,3.61-55.7,10.57S-111.14,245.72-131.59,268.75Z"/></g><path class="cls-5" d="M769,546.61c2.17.31,6.26,1,10,1.6,2.64.41,5.13.83,6.63,1.14.47.1,1,.16,1.5.26a40,40,0,0,1,4.35.88c4,.93,6.58,1.4,9.84,2.85a59,59,0,0,1,5.44,2.95,31.06,31.06,0,0,0,16.83,4.4,33.33,33.33,0,0,0,4.45-.31l-1.71,13.83a30.11,30.11,0,0,1-7.22-.32c-2.17-.34-4.34-.77-6.48-1.29-1.31-.31-2.61-.66-3.9-1-4.77-1.39-5.08-1.91-18.18-6.73a101.38,101.38,0,0,0-15.17-4,27.26,27.26,0,0,0-4.87-.36,14.44,14.44,0,0,0-1.5.05,25.42,25.42,0,0,0-4.35.68c-.1,0-.16.05-.26,0s3-14.76,3-14.81a.4.4,0,0,1,.16,0Z"/><path class="cls-5" d="M779.82,447.1l-7.41-5.4q5.55-12.19,15.75-12.2,3.71,0,10.81,2.16t10.42,2.16c2.21,0,4.3-1.64,6.26-4.94l8.33,4.48q-5.1,13.44-15.9,13.44-3.24,0-10-2.09t-9.57-2.09a10.16,10.16,0,0,0-4.48.85A16,16,0,0,0,779.82,447.1Z"/><path class="cls-5" d="M801.94,456.67a36.86,36.86,0,0,1,27.9,11.6q11.29,11.67,11.47,35.87t-10.9,36.65q-11,12.5-30,12.61T770.5,541.27q-10.89-12.25-11-35.8a62,62,0,0,1,3.63-22.66q3.7-9.78,9.84-15.14A43.08,43.08,0,0,1,801.94,456.67Zm-25,48q.24,34.77,24.35,34.6,12.88-.09,18-10.77c3.12-6.29,4.67-14,4.6-23a58.34,58.34,0,0,0-4.35-22.4,19.56,19.56,0,0,0-7.29-8.78q-4.85-3.19-12.56-3.14a19,19,0,0,0-13.21,5.14A26.23,26.23,0,0,0,779,488.51,57.1,57.1,0,0,0,777,504.64Z"/><path class="cls-6" d="M862.11,609.11H874.4V612H858.83v-23.5h15.06v2.89H862.11v7H873.2v2.83H862.11Z"/><path class="cls-6" d="M906.49,607.78h.1l7.07-19.25h3.55L908,612h-3.05l-9.16-23.5h3.65Z"/><path class="cls-6" d="M943.19,609.11h12.28V612H939.91v-23.5H955v2.89H943.19v7h11.09v2.83H943.19Z"/><path class="cls-6" d="M996.33,607.31h.07V588.53h3.28V612h-4.15l-12.41-19.18h-.07V612h-3.28v-23.5h4.28Z"/><path class="cls-6" d="M1033.54,612h-3.29V591.42h-7.53v-2.89h18.35v2.89h-7.53Z"/><path class="cls-6" d="M1075.79,592.88a5.64,5.64,0,0,0-4.59-2.19c-2.12,0-4.57,1.16-4.57,3.81s2.15,3.26,4.81,4.12c3.15,1,6.9,2.19,6.9,6.87,0,4.88-3.95,7.14-8.13,7.14a9.9,9.9,0,0,1-7.74-3.42l2.56-2.16a6.39,6.39,0,0,0,5.25,2.75c2.19,0,4.71-1.22,4.71-4s-2.59-3.62-5.58-4.55-6.1-2.29-6.1-6.6c0-4.68,4.18-6.71,8.06-6.71a9.21,9.21,0,0,1,6.74,2.69Z"/><path class="cls-6" d="M926.58,539.94v11.17H903.67v-9.19q-7.77,11-22.9,11-21.91,0-21.91-24.45V495.83q0-3.82-3.54-4l-4.52-.28V480h24.88v44.82q0,7.5,2.12,11.31c1.42,2.55,4.33,3.82,8.76,3.82a14.32,14.32,0,0,0,10.68-4.1,13.64,13.64,0,0,0,4-9.9V496.11a5,5,0,0,0-.78-3.18,3.77,3.77,0,0,0-2.76-1.06l-4.52-.28V480h24.88v55.42a3.25,3.25,0,0,0,3.54,4.1Z"/><path class="cls-6" d="M937.17,546.87V465.72c0-2.18-1.17-3.31-3.53-3.4l-4.95-.28V450.3h24.89v33.51q6.36-5.94,17.1-5.94,13.29,0,21.07,9t7.77,25.24q0,40.85-34.21,40.85a73.44,73.44,0,0,1-15.48-1.76A47,47,0,0,1,937.17,546.87Zm16.41-45.81v36.62A26.35,26.35,0,0,0,966,540.5q16.11,0,16.11-26.15,0-23.89-15.83-23.9a14.11,14.11,0,0,0-8.91,3A9.27,9.27,0,0,0,953.58,501.06Z"/><path class="cls-6" d="M1070.18,482.82v52.59a4.7,4.7,0,0,0,.78,3.12,4.07,4.07,0,0,0,2.76,1l4.52.29v11.31h-22.48v-8.2l-.42-.14A22.36,22.36,0,0,1,1036,552.94q-14.42,0-21.35-9.19t-6.92-25.16q0-19.23,9.32-30t28-10.75A71.33,71.33,0,0,1,1070.18,482.82Zm-16.39,45.81V492c-2.65-1.23-6.27-1.84-10.89-1.84q-9.48,0-13.72,7.64T1024.94,518q0,22.9,14.7,22.91a14.22,14.22,0,0,0,10.19-3.75A11.53,11.53,0,0,0,1053.79,528.63Z"/><path class="cls-6" d="M1095.49,535.27V466.42a4.65,4.65,0,0,0-.78-3.11,4,4,0,0,0-2.76-1l-11.42-.28V450.3h31.64v38q7.35-10.45,20.65-10.46,10.74,0,16.61,6.15t5.87,18.45v36.9l8,.43v11.31H1129.7V540.36l4.67-.42a5.53,5.53,0,0,0,3.11-1.21c.66-.6,1-1.76,1-3.46V506.15q0-7.35-2.33-11.31t-9.05-4q-6.72,0-10.75,4.17a14,14,0,0,0-4,10.11v34.21l8.07.43v11.31h-33.65V540.36l4.66-.42a5.53,5.53,0,0,0,3.11-1.21C1095.16,538.13,1095.49,537,1095.49,535.27Z"/><path class="cls-6" d="M983.8,447.32v4.36h1.81a1.9,1.9,0,0,1,1,.2c.21.14.35.42.35,1v6.78h-8v-9.75h-4.29v9.75h-7.19V453.4c0-.55.07-.89.28-1a1.93,1.93,0,0,1,1-.21h1.39v-4.29h-7v16.59h28.13V447.32Z"/><path class="cls-6" d="M795.84,665.2h9.6c4.47,0,8.22.3,10.8,3.4a8.88,8.88,0,0,1,1.89,5.81c0,3.62-1.51,6.67-4,8.26-2.28,1.47-5.42,1.47-7.06,1.47H802.6v12.09h-6.76Zm6.58,14h2.67c2.15,0,6.16,0,6.16-4.73,0-4.22-3.58-4.22-5.47-4.22h-3.36Z"/><path class="cls-6" d="M822.13,679.83c0-1-.17-4.17-.3-5.42h6l.13,4.18c.82-1.85,2.24-4.48,7.4-4.22v5.72c-6.46-.6-6.84,2.71-6.84,5.42v10.72h-6.37Z"/><path class="cls-6" d="M848,674c7.88,0,11.27,5.34,11.27,11.4S855.78,697,847.9,697c-6.19,0-11.1-3.83-11.1-11.44C836.8,680.31,839.47,674,848,674Zm.09,18.59c2.79,0,4.69-1.68,4.69-7.44,0-2.89-.56-6.89-4.78-6.89-4.65,0-4.69,5.38-4.69,7.36C843.34,690.46,845,692.57,848.12,692.57Z"/><path class="cls-6" d="M861.19,700.27c2.89.13,2.89-2.58,2.89-3.7V674.41h6.37v23.76c0,4.08-1.68,6.58-7.1,6.58a12.24,12.24,0,0,1-2.16-.17Zm2.67-35.11h6.8v5.55h-6.8Z"/><path class="cls-6" d="M881.16,687c0,1.42,0,5.81,4.43,5.81a3.57,3.57,0,0,0,3.79-3h5.81a7.28,7.28,0,0,1-2.07,4.74c-1.59,1.68-4.43,2.54-7.61,2.54-1.86,0-5.38-.35-7.66-2.72-2-2.06-2.8-5-2.8-8.47s.86-7.75,4.52-10.29a11,11,0,0,1,6.11-1.8,9.32,9.32,0,0,1,8.78,5.25,16.23,16.23,0,0,1,1.29,8Zm8.09-4c0-1-.09-4.87-3.79-4.87-2.79,0-4,2.33-4.09,4.87Z"/><path class="cls-6" d="M911.45,682.2c-.09-.77-.35-4-2.8-4-3,0-3.35,4.56-3.35,6.93,0,1.2.12,5.07,1.59,6.67a2.22,2.22,0,0,0,1.72.73c.69,0,2.67-.3,2.93-4.18h6.28a8.26,8.26,0,0,1-2.8,6.42,9,9,0,0,1-6.2,2c-2.88,0-5.42-.65-7.4-2.88a12.69,12.69,0,0,1-2.75-8.57c0-9.89,7.27-11.27,10.15-11.27,4,0,8.83,2.24,8.87,8.13Z"/><path class="cls-6" d="M934.25,695.93a19.67,19.67,0,0,1-5,.69c-6.41,0-6.41-4-6.41-5.86V678.84h-4.17v-4.21h4.17v-4.26l6.33-2.33v6.59h5.16v4.21h-5.16v9.82c0,2,0,3.22,2.88,3.22a15.32,15.32,0,0,0,2.15-.13Z"/><path class="cls-6" d="M950.17,665.2h9.6c4.47,0,8.21.3,10.8,3.4a8.88,8.88,0,0,1,1.89,5.81c0,3.62-1.51,6.67-4,8.26-2.28,1.47-5.42,1.47-7.06,1.47h-4.51v12.09h-6.76Zm6.58,14h2.67c2.15,0,6.15,0,6.15-4.73,0-4.22-3.57-4.22-5.46-4.22h-3.36Z"/><path class="cls-6" d="M976.46,679.83c0-1-.17-4.17-.3-5.42h6l.13,4.18c.81-1.85,2.23-4.48,7.4-4.22v5.72c-6.46-.6-6.84,2.71-6.84,5.42v10.72h-6.37Z"/><path class="cls-6" d="M1002.36,674c7.87,0,11.27,5.34,11.27,11.4s-3.52,11.62-11.4,11.62c-6.19,0-11.1-3.83-11.1-11.44C991.13,680.31,993.8,674,1002.36,674Zm.09,18.59c2.79,0,4.69-1.68,4.69-7.44,0-2.89-.56-6.89-4.78-6.89-4.65,0-4.69,5.38-4.69,7.36C997.67,690.46,999.3,692.57,1002.45,692.57Z"/><path class="cls-6" d="M1024.39,674.5l.17,3.1a7.25,7.25,0,0,1,6.63-3.53c5.63,0,9,4.22,9,10.84,0,6.15-3.18,11.62-9.46,11.62a7,7,0,0,1-6.07-2.8v10.85h-6.5V674.5Zm9.38,10.67c0-2.58-.65-7-4.39-7-2.07,0-5,1.55-5,7.4,0,1.29,0,6.8,4.73,6.8C1032.13,692.36,1033.77,689.47,1033.77,685.17Z"/><path class="cls-6" d="M1054.94,674c7.87,0,11.27,5.34,11.27,11.4s-3.53,11.62-11.4,11.62c-6.2,0-11.1-3.83-11.1-11.44C1043.71,680.31,1046.37,674,1054.94,674Zm.08,18.59c2.8,0,4.69-1.68,4.69-7.44,0-2.89-.56-6.89-4.77-6.89-4.65,0-4.69,5.38-4.69,7.36C1050.25,690.46,1051.88,692.57,1055,692.57Z"/><path class="cls-6" d="M1075.41,690c.09,1.37.95,3,3.62,3,2.28,0,3.36-1.3,3.36-2.59,0-1-.52-1.76-3-2.45l-4-1.08c-1.76-.51-5.5-1.59-5.5-6,0-4.22,3.87-6.8,9.51-6.8,4.47,0,8.09,2.07,8.26,6.41h-5.81c-.17-2.41-2.11-2.58-3.1-2.58-1.72,0-3,.82-3,2.15s1.07,1.77,3,2.28l3.91,1.08c4,1.08,5.81,3.1,5.81,6.07,0,3.74-3.22,7.48-10,7.48-2.8,0-5.47-.6-7.44-2.66a6.27,6.27,0,0,1-1.6-4.26Z"/><path class="cls-6" d="M1105.53,696.23a17.83,17.83,0,0,1-.21-3,7.23,7.23,0,0,1-6.5,3.49c-3.14,0-4.56-.91-5.42-1.73a6.72,6.72,0,0,1-1.89-4.77,7.23,7.23,0,0,1,4.6-6.76c2.67-1.2,6.5-1.2,8.61-1.2a8.47,8.47,0,0,0-.31-2.89,2.93,2.93,0,0,0-2.84-1.8,2.86,2.86,0,0,0-2.4,1.2,3.24,3.24,0,0,0-.48,1.94h-6.24a6.09,6.09,0,0,1,2.46-5.12,11.33,11.33,0,0,1,6.58-1.77c1.81,0,5.59.3,7.74,2.8,1.47,1.76,1.51,4.35,1.51,5.34l0,8.73a26.12,26.12,0,0,0,.52,5.51Zm-7.83-6.71a3,3,0,0,0,3.1,3.09,3.63,3.63,0,0,0,2.71-1.24c1.12-1.38,1.21-3.06,1.21-5.38C1100.63,685.64,1097.7,686.93,1097.7,689.52Z"/><path class="cls-6" d="M1116.42,665.12h6.37v31.11h-6.37Z"/></svg>