<svg id="Layer_1" data-name="Layer 1" xmlns="http://www.w3.org/2000/svg" xmlns:xlink="http://www.w3.org/1999/xlink" viewBox="0 0 1920 1080"><defs><style>.cls-1,.cls-10,.cls-12,.cls-4,.cls-6,.cls-8{fill:none;}.cls-2,.cls-3{fill:#2a2a68;}.cls-3{font-size:16.17px;font-family:UniversLTStd, Univers LT Std;}.cls-4{stroke:#2a2a68;stroke-width:0.5px;}.cls-10,.cls-12,.cls-4,.cls-6,.cls-8{stroke-miterlimit:10;}.cls-5{clip-path:url(#clip-path);}.cls-12,.cls-6{stroke:#22a4dc;}.cls-6{stroke-width:0.38px;}.cls-7{fill:#999eac;}.cls-8{stroke:#999eac;stroke-width:0.3px;}.cls-9{fill:#22a4dc;}.cls-10{stroke:#fff;}.cls-10,.cls-12{stroke-dasharray:12;}.cls-11{fill:#fff;}</style><clipPath id="clip-path"><rect class="cls-1" x="2" y="-6.57" width="1920" height="1086.99"/></clipPath></defs><rect class="cls-2" x="-2" y="0.42" width="1924" height="1080"/><text class="cls-3" transform="translate(163.51 1017.67)">Qubbah Profle</text><line class="cls-4" x1="328.21" y1="1013.86" x2="1748.2" y2="1005.78"/><g class="cls-5"><path class="cls-6" d="M-111.73,1478.37c-161.85,84.07-313.59,81-366.94,11.49C-500,1462-508.25,1420.1-504.26,1384.3c7.45-66.88,59.79-111.59,107.88-152.49l190.45-161.92c74.64-63.46,152.59-107.65,245.41-138.65,109.14-36.45,228.17-47.7,343.24-34.24a821.25,821.25,0,0,1,172.82,39.45c53.05,18.34,106.84,32.81,160.84,49,83.35,25.06,167,55.08,254.78,58.65q119.33,4.86,232.21-168.57l293.24,173.29q-203.14,475.77-591.68,460Q788.23,1504.07,547,1419,305.5,1334.14,205.81,1330c-66.62-2.71-121,5.53-162.33,24Q-18.92,1382.05-111.73,1478.37Z"/></g><path class="cls-7" d="M231,1016.38H236c1.78,0,3,.1,4,1.18a4,4,0,0,1,1.08,2.85,3.88,3.88,0,0,1-1.16,2.86c-.77.78-1.79,1.26-4.43,1.26h-2.38v6.53h-2Zm2,6.45h2.42c1.34,0,3.39-.11,3.39-2.51s-1.91-2.29-3-2.29h-2.84Z"/><path class="cls-7" d="M243.15,1022.93c0-.69-.05-1.41-.11-2.08H245l0,2a2.74,2.74,0,0,1,2.44-2,6.17,6.17,0,0,1,1.32,0v1.87a1.58,1.58,0,0,0-.37-.08,4.28,4.28,0,0,0-.55,0c-2.25,0-2.78,1.34-2.78,3.09v5.43h-1.93Z"/><path class="cls-7" d="M255.39,1020.59c4.09,0,5,3.21,5,5.35,0,3-1.68,5.47-5.16,5.47s-5-2.34-5-5.33C250.2,1023.56,251.38,1020.59,255.39,1020.59Zm-.12,9.4c1.44,0,3.09-1,3.09-4.11,0-2.55-1.18-3.89-3-3.89-1.22,0-3.19.77-3.19,4C252.2,1028.05,253.09,1030,255.27,1030Z"/><path class="cls-7" d="M261.57,1033.63c1.51.06,1.87-.21,1.87-1.83v-10.95h1.92V1032c0,1,0,3-2.61,3a11.19,11.19,0,0,1-1.18-.08Zm1.69-17.21h2.32v2.11h-2.32Z"/><path class="cls-7" d="M270.2,1026.3c0,2.12.83,3.69,2.93,3.69a2.23,2.23,0,0,0,2.4-2.12h1.91a3.44,3.44,0,0,1-.88,2.14,4.42,4.42,0,0,1-3.51,1.36c-3.22,0-4.74-2-4.74-5.23,0-2,.4-3.68,2-4.8a4.93,4.93,0,0,1,2.79-.75c4.57,0,4.47,4.05,4.43,5.71Zm5.39-1.34c0-1-.16-3-2.52-3a2.74,2.74,0,0,0-2.79,3Z"/><path class="cls-7" d="M286.16,1024.13a2,2,0,0,0-2-2.14c-2.64,0-2.64,3.07-2.64,3.85,0,2.09.51,4,2.54,4a2.12,2.12,0,0,0,2.22-2.21h1.93a3.86,3.86,0,0,1-4.13,3.66,4.61,4.61,0,0,1-3.36-1.32,5.55,5.55,0,0,1-1.22-3.91c0-4.25,2.61-5.51,4.64-5.51a4.13,4.13,0,0,1,3.13,1.26,3.5,3.5,0,0,1,.86,2.28Z"/><path class="cls-7" d="M289,1020.81h1.81v-2.13l1.89-.61v2.74h2.28v1.41h-2.28v6.12c0,.51,0,1.36,1.37,1.36a4.26,4.26,0,0,0,.91-.1v1.48a9.23,9.23,0,0,1-1.58.13c-1.75,0-2.59-.51-2.59-2.18v-6.81H289Z"/><path class="cls-7" d="M143.26,989.32h4.89c1.78,0,3,.1,4,1.18a4.19,4.19,0,0,1-.08,5.68c-.77.76-1.78,1.25-4.41,1.25h-2.37v6.49h-2Zm2,6.41h2.41c1.33,0,3.38-.1,3.38-2.48s-1.9-2.29-3-2.29h-2.83Z"/><path class="cls-7" d="M161.19,1003.92a5.55,5.55,0,0,1-.18-1.52,3.27,3.27,0,0,1-3.13,1.84c-2.33,0-3.58-1.31-3.58-3a3.33,3.33,0,0,1,1.78-3,7.88,7.88,0,0,1,3.52-.67c.48,0,.78,0,1.37.06,0-1.25,0-1.8-.36-2.24a2.33,2.33,0,0,0-1.76-.67c-1.92,0-2,1.32-2,1.72h-1.9a3.25,3.25,0,0,1,.7-1.92,4.59,4.59,0,0,1,3.28-1.09c1.47,0,3.05.46,3.6,1.49a3,3,0,0,1,.34,1.56l-.08,4.85a23.85,23.85,0,0,0,.16,2.55Zm-1.31-5c-.77,0-3.66,0-3.66,2.06,0,.65.4,1.76,2.1,1.76a2.47,2.47,0,0,0,2.17-1.09A4.84,4.84,0,0,0,161,999,8.49,8.49,0,0,0,159.88,998.93Z"/><path class="cls-7" d="M168.06,1004.71c.09,1.13.57,2,2.37,2,2.65,0,2.69-1.92,2.69-4.67a3.52,3.52,0,0,1-3.34,1.72,3.88,3.88,0,0,1-3.11-1.26,5.67,5.67,0,0,1-1.15-3.74c0-3.43,2-5.11,4.51-5.11a3.52,3.52,0,0,1,3.19,1.54l0-1.4h1.84l0,1.84,0,6.35c0,2.45-.08,3.44-.49,4.2-.84,1.62-2.83,1.82-4.22,1.82-4.06,0-4.19-1.9-4.27-3.27Zm4.43-3.4c.41-.52.69-1.07.69-2.91a3.37,3.37,0,0,0-.79-2.53,3,3,0,0,0-2.18-.89c-2.41,0-2.73,2.43-2.73,3.72,0,1.56.46,3.62,2.79,3.62A2.54,2.54,0,0,0,172.49,1001.31Z"/><path class="cls-7" d="M179.75,999.19c0,2.1.83,3.66,2.91,3.66a2.22,2.22,0,0,0,2.39-2.1H187a3.5,3.5,0,0,1-.87,2.12,4.43,4.43,0,0,1-3.5,1.35c-3.2,0-4.71-2-4.71-5.19,0-2,.4-3.66,2-4.77a4.86,4.86,0,0,1,2.77-.75c4.55,0,4.45,4,4.41,5.68Zm5.36-1.34c0-1-.17-3-2.51-3a2.72,2.72,0,0,0-2.77,3Z"/><line class="cls-8" x1="204.97" y1="1029.16" x2="204.97" y2="990.38"/><path class="cls-9" d="M800.53,321H822.4v4.34H805.72V336.8h15.72v4.28H805.72V357.8h-5.19Z"/><path class="cls-9" d="M828,321.1h5.75v5.25H828Zm.51,11.11h4.78V357.8h-4.78Z"/><path class="cls-9" d="M842.75,335.17l0-3h4.78l0,4.13c.56-1.07,2.39-4.64,8.19-4.64,2.29,0,9.25.87,9.25,8.72V357.8h-4.88V341.54a5.8,5.8,0,0,0-1.37-4.39,6.56,6.56,0,0,0-4.53-1.73c-3.46,0-6.66,2.5-6.66,7.65V357.8h-4.78Z"/><path class="cls-9" d="M889.23,357.8a14,14,0,0,1-.45-3.82,8.26,8.26,0,0,1-7.89,4.64c-5.85,0-9-3.32-9-7.55a8.41,8.41,0,0,1,4.48-7.49c2.74-1.53,6.81-1.69,8.85-1.69,1.22,0,2,.06,3.45.16,0-3.16,0-4.54-.91-5.66-1-1.28-3-1.68-4.43-1.68-4.83,0-5.08,3.31-5.13,4.33h-4.78a8.08,8.08,0,0,1,1.78-4.84c1.93-2.14,5.54-2.76,8.24-2.76,3.71,0,7.68,1.18,9,3.78a7.58,7.58,0,0,1,.86,3.92l-.2,12.24a58.81,58.81,0,0,0,.41,6.42Zm-3.3-12.59c-1.93,0-9.21,0-9.21,5.2,0,1.63,1,4.43,5.29,4.43a6.11,6.11,0,0,0,5.44-2.75c1.07-1.73,1.12-3.16,1.22-6.73A21.36,21.36,0,0,0,885.93,345.21Z"/><path class="cls-9" d="M902.1,335.17l-.05-3h4.78l0,4.13c.56-1.07,2.39-4.64,8.19-4.64,2.29,0,9.26.87,9.26,8.72V357.8h-4.88V341.54a5.81,5.81,0,0,0-1.38-4.39,6.55,6.55,0,0,0-4.52-1.73c-3.46,0-6.67,2.5-6.67,7.65V357.8H902.1Z"/><path class="cls-9" d="M947.57,340.42c-.1-1.18-.46-5.36-5.08-5.36-6.62,0-6.62,7.7-6.62,9.64,0,5.25,1.28,10.14,6.36,10.14,4.07,0,5.44-3.06,5.54-5.55h4.84c-.31,5-4,9.17-10.33,9.17-1.73,0-5.69-.35-8.39-3.31-1.52-1.78-3-4.49-3-9.79,0-10.65,6.51-13.81,11.6-13.81,1.67,0,5.49.35,7.83,3.16a8.87,8.87,0,0,1,2.13,5.71Z"/><path class="cls-9" d="M958,321.1h5.75v5.25H958Zm.51,11.11h4.78V357.8h-4.78Z"/><path class="cls-9" d="M988.16,357.8a13.65,13.65,0,0,1-.46-3.82,8.26,8.26,0,0,1-7.88,4.64c-5.85,0-9-3.32-9-7.55a8.42,8.42,0,0,1,4.47-7.49c2.75-1.53,6.82-1.69,8.85-1.69,1.22,0,2,.06,3.46.16,0-3.16,0-4.54-.92-5.66-1-1.28-3-1.68-4.42-1.68-4.83,0-5.09,3.31-5.14,4.33h-4.78a8.15,8.15,0,0,1,1.78-4.84c1.93-2.14,5.55-2.76,8.24-2.76,3.71,0,7.68,1.18,9,3.78a7.5,7.5,0,0,1,.87,3.92l-.21,12.24a58.81,58.81,0,0,0,.41,6.42Zm-3.31-12.59c-1.93,0-9.2,0-9.2,5.2,0,1.63,1,4.43,5.29,4.43a6.11,6.11,0,0,0,5.44-2.75c1.07-1.73,1.12-3.16,1.22-6.73A21.64,21.64,0,0,0,984.85,345.21Z"/><path class="cls-9" d="M1001,321h4.78V357.8H1001Z"/><path class="cls-9" d="M1040.24,331.55c10.22,0,12.51,8.05,12.51,13.4,0,7.5-4.22,13.72-12.92,13.72-8.44,0-12.56-5.87-12.56-13.36C1027.27,339,1030.22,331.55,1040.24,331.55Zm-.31,23.55c3.62,0,7.74-2.6,7.74-10.3,0-6.37-3-9.74-7.43-9.74-3,0-8,1.94-8,9.94C1032.25,350.26,1034.49,355.1,1039.93,355.1Z"/><path class="cls-9" d="M1073,324.56c-.81-.05-1.83-.1-2.79-.1-3.87,0-3.87,1.94-3.87,3.72v4h6v3.47h-6V357.8h-4.73V335.68h-5v-3.47h5V329.3c0-3.51.21-4.79,1.07-6.11,1.07-1.64,3.1-2.81,6.41-2.81a26.64,26.64,0,0,1,3.91.36Z"/><path class="cls-9" d="M1088.66,324.56c-.82-.05-1.83-.1-2.8-.1-3.86,0-3.86,1.94-3.86,3.72v4h6v3.47h-6V357.8h-4.73V335.68h-5v-3.47h5V329.3c0-3.51.2-4.79,1.06-6.11,1.07-1.64,3.11-2.81,6.41-2.81a26.79,26.79,0,0,1,3.92.36Z"/><path class="cls-9" d="M1095.73,345.87c-.1,5.3,2.08,9.23,7.32,9.23,3.11,0,5.6-1.63,6-5.3h4.78a8.67,8.67,0,0,1-2.18,5.35c-1.12,1.27-3.66,3.41-8.8,3.41-8,0-11.85-5-11.85-13.1,0-5,1-9.22,5-12a12.29,12.29,0,0,1,7-1.88c11.44,0,11.19,10.14,11.09,14.32Zm13.48-3.36c0-2.45-.41-7.55-6.31-7.55-3.1,0-6.87,1.89-7,7.55Z"/><path class="cls-9" d="M1121.36,337.41c0-1.73-.1-3.52-.25-5.2h4.83l.1,4.94a6.9,6.9,0,0,1,6.1-5,15,15,0,0,1,3.31-.11v4.69a4.11,4.11,0,0,0-.91-.2,11,11,0,0,0-1.38-.05c-5.64,0-7,3.36-7,7.75V357.8h-4.83Z"/><line class="cls-10" x1="1173.12" y1="475.12" x2="1173.12" y2="533.2"/><line class="cls-10" x1="1173.12" y1="584.62" x2="1173.12" y2="642.71"/><path class="cls-11" d="M768.35,456.46V437H761v-2.59h17.74V437h-7.36v19.42Z"/><path class="cls-11" d="M784.74,440.76c6.12,0,7.49,4.82,7.49,8,0,4.48-2.53,8.2-7.73,8.2-5,0-7.51-3.5-7.51-8C777,445.21,778.75,440.76,784.74,440.76Zm-.18,14.09c2.16,0,4.63-1.56,4.63-6.16,0-3.81-1.77-5.82-4.45-5.82-1.82,0-4.77,1.15-4.77,5.94C780,452,781.31,454.85,784.56,454.85Z"/><path class="cls-11" d="M794.36,441.1h2.7v-3.2l2.83-.92v4.12h3.41v2.1h-3.41v9.18c0,.76,0,2,2,2a6.36,6.36,0,0,0,1.37-.15v2.22a13.11,13.11,0,0,1-2.37.19c-2.62,0-3.87-.77-3.87-3.27V443.2h-2.7Z"/><path class="cls-11" d="M816.14,456.46a8.33,8.33,0,0,1-.27-2.28,4.94,4.94,0,0,1-4.72,2.77c-3.5,0-5.38-2-5.38-4.51a5,5,0,0,1,2.67-4.48,11.86,11.86,0,0,1,5.3-1c.73,0,1.18,0,2.07.09,0-1.89,0-2.71-.55-3.38a3.52,3.52,0,0,0-2.65-1c-2.89,0-3,2-3.07,2.59h-2.86a4.85,4.85,0,0,1,1.06-2.89c1.16-1.28,3.32-1.65,4.93-1.65,2.22,0,4.6.7,5.42,2.26a4.56,4.56,0,0,1,.51,2.35l-.12,7.31a34.18,34.18,0,0,0,.25,3.84Zm-2-7.53c-1.15,0-5.5,0-5.5,3.11,0,1,.6,2.65,3.16,2.65a3.66,3.66,0,0,0,3.26-1.64c.63-1,.66-1.89.73-4A13,13,0,0,0,814.16,448.93Z"/><path class="cls-11" d="M823.81,434.48h2.86v22h-2.86Z"/><path class="cls-11" d="M743.64,576.59H740.3l-7.82-22h3.37l6.24,18.81,6.57-18.81h3.08Z"/><path class="cls-11" d="M760.19,554.58h3.26l8.88,22H769l-2.38-5.73H756.45l-2.37,5.73h-3.14Zm-2.77,13.81h8.31l-4.05-10.79Z"/><path class="cls-11" d="M778.35,576.59V557.17H771v-2.59h17.74v2.59h-7.36v19.42Z"/><path class="cls-11" d="M805.64,558.82a25.25,25.25,0,0,1-4.89,3v-3a31.48,31.48,0,0,0,5.11-3.32h2.7v21.09h-2.92Z"/><path class="cls-11" d="M818.73,571.59c.06,2.14,1.91,3,3.49,3,3.69,0,4.17-3.48,4.17-4.85,0-2.86-1.55-4.54-4-4.54a3.73,3.73,0,0,0-3.81,2.87h-2.77l.55-12.56h11.84V558H819l-.4,6.83a5.94,5.94,0,0,1,4.45-1.95c4.22,0,6.29,3.33,6.29,6.95,0,4.15-2.92,7.29-7.51,7.29-3.41,0-6.12-1.89-6.27-5.49Z"/><path class="cls-11" d="M842.24,560.31c0,3.78-2.22,5.52-5,5.52s-4.9-1.59-4.9-5.34c0-3.2,1.74-5.57,5.18-5.57S842.24,557.54,842.24,560.31Zm-2.4.12c0-1.49-.37-3.68-2.53-3.68-2.61,0-2.61,3-2.61,3.71s0,3.6,2.61,3.6S839.84,561,839.84,560.43Zm-3.44,17.35,13.42-23.47h2l-13.42,23.47ZM855,567.51a5.16,5.16,0,0,1,1.25,3.87c0,3.32-1.61,5.58-4.9,5.58-3.89,0-5-2.9-5-5.43,0-3.69,2.28-5.49,5-5.49A4.88,4.88,0,0,1,855,567.51Zm-1.06,3.93c0-1-.19-3.69-2.56-3.69-2.62,0-2.62,3.17-2.62,4.09s.25,3.32,2.56,3.32S853.9,572.54,853.9,571.44Z"/><path class="cls-11" d="M631.76,696.72V677.3H624.4v-2.59h17.74v2.59h-7.36v19.42Z"/><path class="cls-11" d="M648.16,681c6.12,0,7.49,4.82,7.49,8,0,4.48-2.53,8.2-7.73,8.2-5,0-7.52-3.51-7.52-8C640.4,685.47,642.17,681,648.16,681ZM648,695.1c2.16,0,4.62-1.55,4.62-6.15,0-3.82-1.76-5.83-4.44-5.83-1.82,0-4.78,1.16-4.78,6C643.38,692.21,644.72,695.1,648,695.1Z"/><path class="cls-11" d="M657.77,681.35h2.71v-3.2l2.83-.91v4.11h3.41v2.11h-3.41v9.17c0,.77,0,2,2,2a5.65,5.65,0,0,0,1.37-.16v2.23a14.33,14.33,0,0,1-2.37.18c-2.62,0-3.87-.76-3.87-3.26V683.46h-2.71Z"/><path class="cls-11" d="M679.56,696.72a8,8,0,0,1-.28-2.29,4.94,4.94,0,0,1-4.71,2.78c-3.5,0-5.39-2-5.39-4.51a5.06,5.06,0,0,1,2.68-4.49,11.94,11.94,0,0,1,5.29-1c.73,0,1.19,0,2.07.09,0-1.89,0-2.71-.54-3.38a3.48,3.48,0,0,0-2.65-1c-2.89,0-3,2-3.07,2.59H670.1a4.9,4.9,0,0,1,1.06-2.9c1.16-1.28,3.32-1.64,4.93-1.64,2.22,0,4.59.7,5.41,2.25a4.52,4.52,0,0,1,.52,2.35l-.12,7.32a36.06,36.06,0,0,0,.24,3.84Zm-2-7.53c-1.16,0-5.51,0-5.51,3.11,0,1,.61,2.65,3.17,2.65a3.65,3.65,0,0,0,3.25-1.65c.64-1,.67-1.88.73-4A12.71,12.71,0,0,0,677.58,689.19Z"/><path class="cls-11" d="M687.22,674.74h2.86v22h-2.86Z"/><path class="cls-11" d="M704.08,674.71h3v22h-3Z"/><path class="cls-11" d="M712.63,683.18l0-1.76h2.86l0,2.46a5,5,0,0,1,4.89-2.77c1.37,0,5.54.52,5.54,5.21v10.4H723V687a3.46,3.46,0,0,0-.82-2.62,3.91,3.91,0,0,0-2.71-1c-2.07,0-4,1.49-4,4.57v8.81h-2.86Z"/><path class="cls-11" d="M739.82,686.32c-.06-.7-.27-3.2-3-3.2-3.95,0-3.95,4.61-3.95,5.76,0,3.14.76,6.07,3.8,6.07a3.19,3.19,0,0,0,3.32-3.32h2.89a5.79,5.79,0,0,1-6.18,5.49,6.89,6.89,0,0,1-5-2c-.91-1.06-1.83-2.68-1.83-5.85,0-6.37,3.9-8.26,6.94-8.26a6.18,6.18,0,0,1,4.69,1.89,5.4,5.4,0,0,1,1.28,3.41Z"/><path class="cls-11" d="M746.4,674.74h2.85v22H746.4Z"/><path class="cls-11" d="M757.41,681.42v9.84c0,1.5.33,3.39,3.25,3.39a4.12,4.12,0,0,0,3.59-1.71,5,5,0,0,0,.64-2.87v-8.65h3v12.43c0,.31.07,2,.1,2.87h-3l-.06-2.62c-.54,1.07-1.58,2.77-4.87,2.77-3.77,0-5.53-2.16-5.53-5.18V681.42Z"/><path class="cls-11" d="M784,674.74h2.86v19.54c0,.34.06,1.65.12,2.44h-2.86l-.06-2.44a4.34,4.34,0,0,1-1.37,1.62,7,7,0,0,1-3.77,1.12c-2,0-6.57-1.06-6.57-7.77,0-5.82,3.31-8.35,6.9-8.35a4.93,4.93,0,0,1,4.75,2.59Zm-1.07,9.85a4.11,4.11,0,0,0-3.34-1.56c-4.2,0-4.2,5.09-4.2,6.13,0,2.71.7,5.85,4.2,5.85,4.5,0,4.5-5,4.5-6.16A6.53,6.53,0,0,0,782.9,684.59Z"/><path class="cls-11" d="M791.69,674.77h3.44v3.14h-3.44Zm.31,6.65h2.86v15.3H792Z"/><path class="cls-11" d="M800.52,683.18l0-1.76h2.86l0,2.46a5,5,0,0,1,4.9-2.77c1.36,0,5.53.52,5.53,5.21v10.4h-2.92V687a3.46,3.46,0,0,0-.82-2.62,3.91,3.91,0,0,0-2.71-1c-2.07,0-4,1.49-4,4.57v8.81h-2.86Z"/><path class="cls-11" d="M821.75,697.91c.12,1.71.85,3,3.56,3,4,0,4.05-2.9,4.05-7-1.22,2.53-4.11,2.6-5,2.6a5.88,5.88,0,0,1-4.69-1.9,8.54,8.54,0,0,1-1.73-5.63c0-5.19,3-7.72,6.78-7.72a5.34,5.34,0,0,1,4.81,2.32l0-2.1h2.77l-.06,2.77,0,9.57c0,3.69-.12,5.19-.73,6.34-1.28,2.44-4.26,2.75-6.36,2.75-6.12,0-6.3-2.87-6.42-4.94Zm6.67-5.12c.6-.8,1-1.62,1-4.39a5.08,5.08,0,0,0-1.19-3.81,4.47,4.47,0,0,0-3.28-1.35c-3.62,0-4.11,3.66-4.11,5.61,0,2.35.7,5.46,4.2,5.46A3.86,3.86,0,0,0,828.42,692.79Z"/><path class="cls-11" d="M851.93,696.72h-3.34l-7.82-22h3.37l6.24,18.81L857,674.71H860Z"/><path class="cls-11" d="M868.48,674.71h3.26l8.88,22h-3.31L874.93,691H864.74l-2.37,5.73h-3.14Zm-2.77,13.81H874l-4-10.79Z"/><path class="cls-11" d="M886.64,696.72V677.3h-7.36v-2.59H897v2.59h-7.36v19.42Z"/><path class="cls-11" d="M913.93,679a25.76,25.76,0,0,1-4.9,3v-3a30.52,30.52,0,0,0,5.12-3.33h2.7v21.1h-2.92Z"/><path class="cls-11" d="M927,691.72c.07,2.13,1.92,3,3.5,3,3.69,0,4.17-3.48,4.17-4.85,0-2.87-1.55-4.54-4-4.54a3.9,3.9,0,0,0-2.83,1.1,3.85,3.85,0,0,0-1,1.76h-2.77l.55-12.56h11.84v2.47h-9.22l-.4,6.83a5.94,5.94,0,0,1,4.44-1.95c4.23,0,6.3,3.32,6.3,6.95,0,4.15-2.92,7.29-7.51,7.29-3.41,0-6.12-1.89-6.27-5.49Z"/><path class="cls-11" d="M950.53,680.44c0,3.78-2.22,5.52-5,5.52s-4.9-1.59-4.9-5.34c0-3.2,1.74-5.58,5.18-5.58S950.53,677.67,950.53,680.44Zm-2.4.12c0-1.49-.37-3.69-2.53-3.69-2.61,0-2.61,3-2.61,3.72s0,3.6,2.61,3.6S948.13,681.17,948.13,680.56Zm-3.44,17.35,13.42-23.48h2L946.7,697.91Zm18.56-10.28a5.19,5.19,0,0,1,1.25,3.88c0,3.32-1.61,5.58-4.9,5.58-3.9,0-5-2.9-5-5.43,0-3.69,2.28-5.49,5-5.49A4.87,4.87,0,0,1,963.25,687.63Zm-1.06,3.94c0-1-.19-3.69-2.56-3.69-2.62,0-2.62,3.17-2.62,4.08,0,1.07.25,3.33,2.56,3.33S962.19,692.67,962.19,691.57Z"/><rect class="cls-12" x="1043.23" y="654.66" width="255.9" height="59.16" rx="12"/><path class="cls-11" d="M696.32,782.87V768.55h-5.43v-1.92H704v1.92h-5.43v14.32Z"/><path class="cls-11" d="M706.11,766.66h2.13v6.59a4.1,4.1,0,0,1,3.66-1.87c1.19,0,2.89.43,3.54,1.8a5.39,5.39,0,0,1,.38,2.63v7.06h-2.15v-6.68c0-1,0-3.19-2.42-3.19a2.9,2.9,0,0,0-2.65,1.51,5.34,5.34,0,0,0-.36,2.38v6h-2.13Z"/><path class="cls-11" d="M719.61,766.68h2.54V769h-2.54Zm.23,4.9H722v11.29h-2.11Z"/><path class="cls-11" d="M727.27,779.52c0,.86.42,2.05,2.46,2.05a2.31,2.31,0,0,0,2-.72,1.81,1.81,0,0,0,.36-1.06c0-1.1-.79-1.3-2.47-1.69-2.36-.53-4.33-1-4.33-3.37,0-2.07,1.79-3.42,4.4-3.42,1.41,0,3.39.41,4.06,1.76a3.61,3.61,0,0,1,.29,1.64h-2.15c.06-1.71-1.42-1.85-2.18-1.85-.31,0-2.29,0-2.29,1.62,0,1,1,1.29,1.59,1.44,3.12.75,3.8.93,4.47,1.55a2.82,2.82,0,0,1,.85,2.1,3.4,3.4,0,0,1-1.52,2.85,6.32,6.32,0,0,1-3.35.77c-2.29,0-4.42-1-4.4-3.67Z"/><path class="cls-11" d="M748.4,771.29c4.52,0,5.53,3.55,5.53,5.92,0,3.3-1.87,6-5.71,6s-5.54-2.59-5.54-5.9C742.68,774.57,744,771.29,748.4,771.29Zm-.13,10.39c1.59,0,3.41-1.15,3.41-4.54,0-2.81-1.3-4.3-3.28-4.3-1.34,0-3.52.86-3.52,4.39C744.88,779.54,745.87,781.68,748.27,781.68Z"/><path class="cls-11" d="M762.85,768.21c-.35,0-.8-.05-1.23-.05-1.71,0-1.71.86-1.71,1.65v1.77h2.63v1.53h-2.63v9.76h-2.08v-9.76H755.6v-1.53h2.23V770.3c0-1.55.09-2.11.47-2.7a3.15,3.15,0,0,1,2.83-1.24,11.73,11.73,0,0,1,1.72.16Z"/><path class="cls-11" d="M769.76,768.21c-.35,0-.8-.05-1.23-.05-1.71,0-1.71.86-1.71,1.65v1.77h2.63v1.53h-2.63v9.76h-2.08v-9.76h-2.23v-1.53h2.23V770.3c0-1.55.09-2.11.47-2.7a3.15,3.15,0,0,1,2.83-1.24,11.73,11.73,0,0,1,1.72.16Z"/><path class="cls-11" d="M772.88,777.61c0,2.34.92,4.07,3.23,4.07a2.45,2.45,0,0,0,2.65-2.34h2.11a3.75,3.75,0,0,1-1,2.36,4.87,4.87,0,0,1-3.89,1.51c-3.54,0-5.23-2.2-5.23-5.78,0-2.23.45-4.07,2.23-5.31a5.41,5.41,0,0,1,3.07-.83c5,0,4.94,4.48,4.9,6.32Zm6-1.48c0-1.08-.18-3.33-2.78-3.33a3,3,0,0,0-3.08,3.33Z"/><path class="cls-11" d="M784.19,773.88c0-.77,0-1.56-.11-2.3h2.13l0,2.18a3,3,0,0,1,2.69-2.22,6.94,6.94,0,0,1,1.46,0v2.07a1.93,1.93,0,0,0-.41-.09,5.08,5.08,0,0,0-.6,0c-2.49,0-3.08,1.48-3.08,3.42v6h-2.13Z"/><path class="cls-11" d="M798.84,766.68h2.54V769h-2.54Zm.23,4.9h2.11v11.29h-2.11Z"/><path class="cls-11" d="M806.5,779.52c0,.86.42,2.05,2.46,2.05a2.31,2.31,0,0,0,2-.72,1.81,1.81,0,0,0,.36-1.06c0-1.1-.79-1.3-2.47-1.69-2.36-.53-4.33-1-4.33-3.37,0-2.07,1.79-3.42,4.4-3.42,1.41,0,3.39.41,4.06,1.76a3.61,3.61,0,0,1,.29,1.64H811.1c.06-1.71-1.42-1.85-2.18-1.85-.31,0-2.29,0-2.29,1.62,0,1,1,1.29,1.59,1.44,3.12.75,3.8.93,4.47,1.55a2.82,2.82,0,0,1,.85,2.1,3.4,3.4,0,0,1-1.52,2.85,6.32,6.32,0,0,1-3.35.77c-2.29,0-4.42-1-4.4-3.67Z"/><path class="cls-11" d="M824,779.52c0,.86.43,2.05,2.47,2.05a2.31,2.31,0,0,0,2-.72,1.81,1.81,0,0,0,.36-1.06c0-1.1-.79-1.3-2.47-1.69-2.36-.53-4.34-1-4.34-3.37,0-2.07,1.8-3.42,4.4-3.42,1.42,0,3.39.41,4.07,1.76a3.61,3.61,0,0,1,.29,1.64h-2.16c.07-1.71-1.41-1.85-2.17-1.85-.32,0-2.29,0-2.29,1.62,0,1,1,1.29,1.59,1.44,3.12.75,3.79.93,4.47,1.55a2.82,2.82,0,0,1,.85,2.1,3.4,3.4,0,0,1-1.53,2.85,6.27,6.27,0,0,1-3.34.77c-2.29,0-4.42-1-4.4-3.67Z"/><path class="cls-11" d="M835.89,771.58v7.27c0,1.1.25,2.49,2.4,2.49a3,3,0,0,0,2.65-1.26,3.65,3.65,0,0,0,.47-2.11v-6.39h2.18v9.18c0,.22,0,1.48.07,2.11h-2.2l-.05-1.93a3.52,3.52,0,0,1-3.59,2c-2.78,0-4.08-1.6-4.08-3.83v-7.58Z"/><path class="cls-11" d="M849.78,773.22a3.77,3.77,0,0,1,3.68-1.93,4.61,4.61,0,0,1,3.57,1.44,5.94,5.94,0,0,1,1.32,4.25,6.56,6.56,0,0,1-1.07,4.12,4.77,4.77,0,0,1-3.95,1.93,4.49,4.49,0,0,1-2.52-.72,3.67,3.67,0,0,1-1.1-1.15l0,1.71h-2l0-2V766.63h2.11Zm3.19-.49c-3.24,0-3.24,3.78-3.24,4.5s0,4.27,3.15,4.27c2.6,0,3.25-2.54,3.25-4.38C856.13,776,855.91,772.73,853,772.73Z"/><path class="cls-11" d="M859.38,785.71c1.66.06,2.07-.23,2.07-2v-12.1h2.11v12.35c0,1.08,0,3.37-2.88,3.37a11.46,11.46,0,0,1-1.3-.09Zm1.86-19h2.56V769h-2.56Z"/><path class="cls-11" d="M868.9,777.61c0,2.34.92,4.07,3.23,4.07a2.45,2.45,0,0,0,2.65-2.34h2.11a3.84,3.84,0,0,1-1,2.36,4.83,4.83,0,0,1-3.88,1.51c-3.55,0-5.23-2.2-5.23-5.78,0-2.23.45-4.07,2.22-5.31a5.46,5.46,0,0,1,3.08-.83c5,0,4.93,4.48,4.89,6.32Zm5.94-1.48c0-1.08-.17-3.33-2.78-3.33a3,3,0,0,0-3.07,3.33Z"/><path class="cls-11" d="M886.51,775.2a2.22,2.22,0,0,0-2.24-2.36c-2.92,0-2.92,3.4-2.92,4.25,0,2.32.56,4.48,2.81,4.48a2.34,2.34,0,0,0,2.44-2.45h2.13a4.26,4.26,0,0,1-4.55,4,5.08,5.08,0,0,1-3.71-1.47,6.13,6.13,0,0,1-1.34-4.32c0-4.7,2.87-6.09,5.12-6.09a4.57,4.57,0,0,1,3.45,1.39,3.9,3.9,0,0,1,.94,2.52Z"/><path class="cls-11" d="M889.58,771.54h2v-2.36l2.09-.68v3h2.51v1.55h-2.51v6.77c0,.56,0,1.51,1.5,1.51a4.23,4.23,0,0,0,1-.12v1.65a11.27,11.27,0,0,1-1.75.13c-1.93,0-2.85-.56-2.85-2.41v-7.53h-2Z"/><path class="cls-11" d="M903.29,771.54h2v-2.36l2.09-.68v3h2.51v1.55h-2.51v6.77c0,.56,0,1.51,1.5,1.51a4.23,4.23,0,0,0,1-.12v1.65a11.27,11.27,0,0,1-1.75.13c-1.93,0-2.85-.56-2.85-2.41v-7.53h-2Z"/><path class="cls-11" d="M917.39,771.29c4.51,0,5.52,3.55,5.52,5.92,0,3.3-1.86,6-5.7,6s-5.55-2.59-5.55-5.9C911.66,774.57,913,771.29,917.39,771.29Zm-.14,10.39c1.6,0,3.41-1.15,3.41-4.54,0-2.81-1.3-4.3-3.27-4.3-1.35,0-3.53.86-3.53,4.39C913.86,779.54,914.85,781.68,917.25,781.68Z"/><path class="cls-11" d="M938.86,775.2a2.22,2.22,0,0,0-2.24-2.36c-2.92,0-2.92,3.4-2.92,4.25,0,2.32.56,4.48,2.8,4.48a2.34,2.34,0,0,0,2.45-2.45h2.13a4.26,4.26,0,0,1-4.55,4,5.07,5.07,0,0,1-3.71-1.47,6.13,6.13,0,0,1-1.34-4.32c0-4.7,2.87-6.09,5.11-6.09a4.59,4.59,0,0,1,3.46,1.39,3.9,3.9,0,0,1,.94,2.52Z"/><path class="cls-11" d="M942.54,766.66h2.13v6.59a4.11,4.11,0,0,1,3.66-1.87c1.19,0,2.9.43,3.55,1.8a5.52,5.52,0,0,1,.38,2.63v7.06H950.1v-6.68c0-1,0-3.19-2.42-3.19a2.91,2.91,0,0,0-2.65,1.51,5.34,5.34,0,0,0-.36,2.38v6h-2.13Z"/><path class="cls-11" d="M963.12,782.87a6,6,0,0,1-.2-1.68,3.65,3.65,0,0,1-3.48,2c-2.59,0-4-1.46-4-3.33a3.72,3.72,0,0,1,2-3.3,8.69,8.69,0,0,1,3.9-.74c.54,0,.88,0,1.53.06,0-1.39,0-2-.4-2.49a2.57,2.57,0,0,0-2-.75c-2.13,0-2.24,1.47-2.26,1.92h-2.11a3.53,3.53,0,0,1,.78-2.14,5.07,5.07,0,0,1,3.64-1.21c1.64,0,3.39.51,4,1.66a3.33,3.33,0,0,1,.39,1.73l-.09,5.4a25.39,25.39,0,0,0,.18,2.83Zm-1.46-5.55c-.85,0-4.06,0-4.06,2.29,0,.72.44,2,2.33,2a2.69,2.69,0,0,0,2.4-1.22c.47-.76.5-1.39.54-3A10.49,10.49,0,0,0,961.66,777.32Z"/><path class="cls-11" d="M968.79,772.89l0-1.31h2.11l0,1.82a3.69,3.69,0,0,1,3.62-2c1,0,4.08.38,4.08,3.84v7.67h-2.15V775.7a2.56,2.56,0,0,0-.61-1.94,2.92,2.92,0,0,0-2-.76c-1.52,0-2.94,1.1-2.94,3.37v6.5h-2.11Z"/><path class="cls-11" d="M984.46,783.75c.08,1.26.62,2.2,2.62,2.2,2.94,0,3-2.13,3-5.19-.9,1.87-3,1.91-3.71,1.91a4.31,4.31,0,0,1-3.45-1.39,6.32,6.32,0,0,1-1.28-4.16c0-3.83,2.24-5.7,5-5.7a4,4,0,0,1,3.55,1.71l0-1.55h2l0,2,0,7.06c0,2.72-.09,3.82-.54,4.68-.94,1.8-3.14,2-4.69,2-4.52,0-4.65-2.11-4.74-3.64Zm4.91-3.78c.45-.58.76-1.19.76-3.24a3.77,3.77,0,0,0-.87-2.81,3.32,3.32,0,0,0-2.43-1c-2.67,0-3,2.7-3,4.14,0,1.73.52,4,3.1,4A2.83,2.83,0,0,0,989.37,780Z"/><path class="cls-11" d="M997.42,777.61c0,2.34.92,4.07,3.24,4.07a2.44,2.44,0,0,0,2.64-2.34h2.12a3.84,3.84,0,0,1-1,2.36,4.84,4.84,0,0,1-3.88,1.51c-3.55,0-5.23-2.2-5.23-5.78,0-2.23.45-4.07,2.22-5.31a5.43,5.43,0,0,1,3.07-.83c5,0,4.94,4.48,4.9,6.32Zm6-1.48c0-1.08-.18-3.33-2.78-3.33a3,3,0,0,0-3.08,3.33Z"/><path class="cls-11" d="M1017,773.22a3.77,3.77,0,0,1,3.68-1.93,4.61,4.61,0,0,1,3.57,1.44,5.94,5.94,0,0,1,1.32,4.25,6.56,6.56,0,0,1-1.07,4.12,4.78,4.78,0,0,1-4,1.93,4.48,4.48,0,0,1-2.51-.72,3.67,3.67,0,0,1-1.1-1.15l0,1.71h-2.05l.05-2V766.63H1017Zm3.19-.49c-3.24,0-3.24,3.78-3.24,4.5s0,4.27,3.15,4.27c2.6,0,3.25-2.54,3.25-4.38C1023.32,776,1023.1,772.73,1020.16,772.73Z"/><path class="cls-11" d="M1035.44,782.87a6,6,0,0,1-.21-1.68,3.64,3.64,0,0,1-3.47,2c-2.59,0-4-1.46-4-3.33a3.72,3.72,0,0,1,2-3.3,8.69,8.69,0,0,1,3.9-.74c.54,0,.88,0,1.53.06,0-1.39,0-2-.4-2.49a2.57,2.57,0,0,0-2-.75c-2.13,0-2.24,1.47-2.26,1.92h-2.11a3.53,3.53,0,0,1,.78-2.14,5.05,5.05,0,0,1,3.64-1.21c1.64,0,3.39.51,4,1.66a3.31,3.31,0,0,1,.38,1.73l-.08,5.4a27.19,27.19,0,0,0,.17,2.83Zm-1.46-5.55c-.86,0-4.06,0-4.06,2.29,0,.72.44,2,2.33,2a2.7,2.7,0,0,0,2.4-1.22c.47-.76.49-1.39.54-3A10.49,10.49,0,0,0,1034,777.32Z"/><path class="cls-11" d="M1042.26,779.52c0,.86.42,2.05,2.47,2.05a2.3,2.3,0,0,0,2-.72,1.81,1.81,0,0,0,.36-1.06c0-1.1-.79-1.3-2.47-1.69-2.36-.53-4.33-1-4.33-3.37,0-2.07,1.79-3.42,4.4-3.42,1.41,0,3.39.41,4.06,1.76a3.61,3.61,0,0,1,.29,1.64h-2.15c.06-1.71-1.42-1.85-2.18-1.85-.31,0-2.29,0-2.29,1.62,0,1,1,1.29,1.59,1.44,3.12.75,3.8.93,4.47,1.55a2.82,2.82,0,0,1,.85,2.1,3.4,3.4,0,0,1-1.52,2.85,6.32,6.32,0,0,1-3.35.77c-2.29,0-4.42-1-4.4-3.67Z"/><path class="cls-11" d="M1053.54,777.61c0,2.34.92,4.07,3.24,4.07a2.45,2.45,0,0,0,2.64-2.34h2.11a3.75,3.75,0,0,1-1,2.36,4.86,4.86,0,0,1-3.88,1.51c-3.55,0-5.23-2.2-5.23-5.78,0-2.23.44-4.07,2.22-5.31a5.41,5.41,0,0,1,3.07-.83c5,0,4.94,4.48,4.9,6.32Zm6-1.48c0-1.08-.18-3.33-2.78-3.33a3,3,0,0,0-3.08,3.33Z"/><path class="cls-11" d="M1072.55,766.66h2.11v14.41c0,.25,0,1.22.09,1.8h-2.11l-.05-1.8a3.08,3.08,0,0,1-1,1.2,5.05,5.05,0,0,1-2.78.83c-1.5,0-4.85-.79-4.85-5.74,0-4.29,2.45-6.16,5.1-6.16a3.64,3.64,0,0,1,3.5,1.91Zm-.79,7.26a3,3,0,0,0-2.46-1.15c-3.1,0-3.1,3.76-3.1,4.52,0,2,.51,4.32,3.1,4.32,3.32,0,3.32-3.66,3.32-4.54A4.8,4.8,0,0,0,1071.76,773.92Z"/><path class="cls-11" d="M1089.58,771.29c4.51,0,5.52,3.55,5.52,5.92,0,3.3-1.86,6-5.7,6s-5.54-2.59-5.54-5.9C1083.86,774.57,1085.16,771.29,1089.58,771.29Zm-.13,10.39c1.59,0,3.41-1.15,3.41-4.54,0-2.81-1.3-4.3-3.28-4.3-1.35,0-3.52.86-3.52,4.39C1086.06,779.54,1087,781.68,1089.45,781.68Z"/><path class="cls-11" d="M1098.46,772.89l0-1.31h2.11l0,1.82a3.69,3.69,0,0,1,3.62-2c1,0,4.08.38,4.08,3.84v7.67h-2.15V775.7a2.56,2.56,0,0,0-.61-1.94,2.92,2.92,0,0,0-2-.76c-1.52,0-2.94,1.1-2.94,3.37v6.5h-2.11Z"/><path class="cls-11" d="M1124,768.21c-.36,0-.81-.05-1.24-.05-1.7,0-1.7.86-1.7,1.65v1.77h2.62v1.53H1121v9.76H1119v-9.76h-2.22v-1.53H1119V770.3c0-1.55.09-2.11.47-2.7a3.2,3.2,0,0,1,2.83-1.24,11.88,11.88,0,0,1,1.73.16Zm1.61-1.53h2.52V769h-2.52Zm.23,16.19V771.58h2.09v11.29Z"/><path class="cls-11" d="M1132.12,772.89l0-1.31h2.11l0,1.82a3.69,3.69,0,0,1,3.62-2c1,0,4.08.38,4.08,3.84v7.67h-2.15V775.7a2.56,2.56,0,0,0-.61-1.94,2.92,2.92,0,0,0-2-.76c-1.52,0-2.94,1.1-2.94,3.37v6.5h-2.11Z"/><path class="cls-11" d="M1152.63,782.87a6.33,6.33,0,0,1-.2-1.68,3.65,3.65,0,0,1-3.48,2c-2.58,0-4-1.46-4-3.33a3.71,3.71,0,0,1,2-3.3,8.73,8.73,0,0,1,3.91-.74c.54,0,.87,0,1.53.06,0-1.39,0-2-.41-2.49a2.56,2.56,0,0,0-2-.75c-2.13,0-2.25,1.47-2.27,1.92h-2.11a3.62,3.62,0,0,1,.79-2.14,5,5,0,0,1,3.63-1.21c1.64,0,3.39.51,4,1.66a3.31,3.31,0,0,1,.38,1.73l-.09,5.4a25.39,25.39,0,0,0,.18,2.83Zm-1.46-5.55c-.85,0-4.06,0-4.06,2.29,0,.72.45,2,2.34,2a2.71,2.71,0,0,0,2.4-1.22c.47-.76.49-1.39.54-3A10.68,10.68,0,0,0,1151.17,777.32Z"/><path class="cls-11" d="M1158.29,766.66h2.1v16.21h-2.1Z"/><path class="cls-11" d="M1178.53,766.66h2.11v14.41c0,.25,0,1.22.09,1.8h-2.11l0-1.8a3.18,3.18,0,0,1-1,1.2,5.1,5.1,0,0,1-2.78.83c-1.51,0-4.85-.79-4.85-5.74,0-4.29,2.45-6.16,5.1-6.16a3.64,3.64,0,0,1,3.5,1.91Zm-.79,7.26a3.07,3.07,0,0,0-2.47-1.15c-3.1,0-3.1,3.76-3.1,4.52,0,2,.52,4.32,3.1,4.32,3.32,0,3.32-3.66,3.32-4.54A4.86,4.86,0,0,0,1177.74,773.92Z"/><path class="cls-11" d="M1185.71,777.61c0,2.34.91,4.07,3.23,4.07a2.45,2.45,0,0,0,2.65-2.34h2.11a3.84,3.84,0,0,1-1,2.36,4.84,4.84,0,0,1-3.88,1.51c-3.55,0-5.23-2.2-5.23-5.78,0-2.23.45-4.07,2.22-5.31a5.44,5.44,0,0,1,3.08-.83c5,0,4.93,4.48,4.89,6.32Zm5.94-1.48c0-1.08-.18-3.33-2.78-3.33a3,3,0,0,0-3.08,3.33Z"/><path class="cls-11" d="M1195.17,771.54h2v-2.36l2.09-.68v3h2.51v1.55h-2.51v6.77c0,.56,0,1.51,1.5,1.51a4.23,4.23,0,0,0,1-.12v1.65a11.27,11.27,0,0,1-1.75.13c-1.93,0-2.85-.56-2.85-2.41v-7.53h-2Z"/><path class="cls-11" d="M1211.24,782.87a6,6,0,0,1-.2-1.68,3.65,3.65,0,0,1-3.48,2c-2.58,0-4-1.46-4-3.33a3.71,3.71,0,0,1,2-3.3,8.73,8.73,0,0,1,3.91-.74c.54,0,.87,0,1.53.06,0-1.39,0-2-.41-2.49a2.56,2.56,0,0,0-1.95-.75c-2.13,0-2.25,1.47-2.27,1.92h-2.11a3.62,3.62,0,0,1,.79-2.14,5,5,0,0,1,3.63-1.21c1.64,0,3.39.51,4,1.66a3.31,3.31,0,0,1,.38,1.73L1213,780a25.39,25.39,0,0,0,.18,2.83Zm-1.46-5.55c-.85,0-4.06,0-4.06,2.29,0,.72.45,2,2.33,2a2.72,2.72,0,0,0,2.41-1.22c.47-.76.49-1.39.54-3A10.68,10.68,0,0,0,1209.78,777.32Z"/><path class="cls-11" d="M1216.65,766.68h2.53V769h-2.53Zm.22,4.9H1219v11.29h-2.11Z"/><path class="cls-11" d="M1223.13,766.66h2.11v16.21h-2.11Z"/><path class="cls-11" d="M1230.54,779.52c0,.86.42,2.05,2.47,2.05a2.3,2.3,0,0,0,2-.72,1.74,1.74,0,0,0,.36-1.06c0-1.1-.79-1.3-2.47-1.69-2.36-.53-4.33-1-4.33-3.37,0-2.07,1.79-3.42,4.4-3.42,1.41,0,3.39.41,4.06,1.76a3.61,3.61,0,0,1,.29,1.64h-2.15c.07-1.71-1.42-1.85-2.18-1.85-.31,0-2.29,0-2.29,1.62,0,1,1,1.29,1.6,1.44,3.12.75,3.79.93,4.46,1.55a2.82,2.82,0,0,1,.85,2.1,3.4,3.4,0,0,1-1.52,2.85,6.32,6.32,0,0,1-3.35.77c-2.29,0-4.42-1-4.39-3.67Z"/></svg>