<?xml version="1.0" encoding="utf-8"?>
<!-- Generator: Adobe Illustrator 24.3.0, SVG Export Plug-In . SVG Version: 6.00 Build 0)  -->
<svg version="1.1" id="Layer_1" xmlns="http://www.w3.org/2000/svg" xmlns:xlink="http://www.w3.org/1999/xlink" x="0px" y="0px"
	 viewBox="0 0 1920 1080" style="enable-background:new 0 0 1920 1080;" xml:space="preserve">
<style type="text/css">
	.st0{fill:#2A2A68;}
	.st1{enable-background:new    ;}
	.st2{fill:none;stroke:#2A2A68;stroke-width:0.5;stroke-miterlimit:10;}
	.st3{clip-path:url(#SVGID_2_);}
	.st4{fill:none;stroke:#22A4DC;stroke-width:0.38;stroke-miterlimit:10;}
	.st5{fill:#999EAC;}
	.st6{fill:none;stroke:#999EAC;stroke-width:0.3;stroke-miterlimit:10;}
	.st7{fill:#22A4DC;}
	.st8{fill:none;stroke:#FFFFFF;stroke-miterlimit:10;stroke-dasharray:12;}
	.st9{fill:#FFFFFF;}
	.st10{fill:none;stroke:#22A4DC;stroke-miterlimit:10;stroke-dasharray:12;}
</style>
<rect x="-2" y="0.4" class="st0" width="1924" height="1080"/>
<g class="st1">
	<path class="st0" d="M175.7,1017.7h-1.9c-0.2,0-1.4,0-2.2,0.1c-0.8,0.1-1.7,0.2-2.1,0.2c-2.8,0-5-1.9-5-6c0-1.4,0.2-3.3,1.5-4.6
		c1-1.1,2.4-1.6,3.9-1.6c3.9,0,5.1,3.1,5.1,5.9c0,1.1-0.1,3.4-2.1,5c0.4-0.1,1-0.2,2.1-0.2h0.9V1017.7z M169.6,1016.7
		c3.3,0,3.6-3.6,3.6-4.8c0-3-1.3-4.8-3.6-4.8c-3.2,0-3.5,3.6-3.5,4.9C166.2,1013.9,166.9,1016.7,169.6,1016.7z"/>
	<path class="st0" d="M178.9,1009.6v5.2c0,0.8,0.2,1.8,1.7,1.8c0.8,0,1.5-0.3,1.9-0.9c0.3-0.5,0.3-1.1,0.3-1.5v-4.6h1.6v6.6
		c0,0.2,0,1.1,0,1.5h-1.6l0-1.4c-0.3,0.6-0.8,1.5-2.6,1.5c-2,0-2.9-1.1-2.9-2.8v-5.5H178.9z"/>
	<path class="st0" d="M188.9,1010.7c0.2-0.4,0.8-1.4,2.7-1.4c0.8,0,1.8,0.2,2.6,1c0.4,0.5,1,1.3,1,3.1c0,1.6-0.4,2.4-0.8,3
		c-0.6,0.9-1.7,1.4-2.8,1.4c-0.4,0-1.1,0-1.8-0.5c-0.5-0.3-0.6-0.6-0.8-0.8l0,1.2h-1.5l0-1.5V1006h1.5V1010.7z M191.2,1010.4
		c-2.3,0-2.3,2.7-2.3,3.2c0,0.5,0,3.1,2.3,3.1c1.9,0,2.3-1.8,2.3-3.2C193.5,1012.7,193.3,1010.4,191.2,1010.4z"/>
	<path class="st0" d="M198.8,1010.7c0.2-0.4,0.8-1.4,2.7-1.4c0.8,0,1.8,0.2,2.6,1c0.4,0.5,1,1.3,1,3.1c0,1.6-0.4,2.4-0.8,3
		c-0.6,0.9-1.7,1.4-2.8,1.4c-0.4,0-1.1,0-1.8-0.5c-0.5-0.3-0.6-0.6-0.8-0.8l0,1.2h-1.5l0-1.5V1006h1.5V1010.7z M201.1,1010.4
		c-2.3,0-2.3,2.7-2.3,3.2c0,0.5,0,3.1,2.3,3.1c1.9,0,2.3-1.8,2.3-3.2C203.4,1012.7,203.2,1010.4,201.1,1010.4z"/>
	<path class="st0" d="M212.1,1017.7c-0.1-0.4-0.1-0.8-0.1-1.2c-0.7,1.3-1.8,1.5-2.5,1.5c-1.9,0-2.9-1.1-2.9-2.4
		c0-0.6,0.2-1.7,1.4-2.4c0.9-0.5,2.2-0.5,2.8-0.5c0.4,0,0.6,0,1.1,0c0-1,0-1.4-0.3-1.8c-0.3-0.4-1-0.5-1.4-0.5
		c-1.5,0-1.6,1.1-1.6,1.4h-1.5c0-0.4,0.1-1,0.6-1.5c0.6-0.7,1.8-0.9,2.6-0.9c1.2,0,2.4,0.4,2.9,1.2c0.3,0.5,0.3,0.9,0.3,1.2
		l-0.1,3.9c0,0.1,0,1.2,0.1,2H212.1z M211.1,1013.7c-0.6,0-2.9,0-2.9,1.6c0,0.5,0.3,1.4,1.7,1.4c0.8,0,1.4-0.3,1.7-0.9
		c0.3-0.5,0.4-1,0.4-2.1C211.6,1013.7,211.4,1013.7,211.1,1013.7z"/>
	<path class="st0" d="M216.1,1006h1.5v4.7c0.5-0.9,1.5-1.3,2.6-1.3c0.9,0,2.1,0.3,2.6,1.3c0.2,0.3,0.3,0.7,0.3,1.9v5.1h-1.6v-4.8
		c0-0.7,0-2.3-1.7-2.3c-1.1,0-1.7,0.7-1.9,1.1c-0.3,0.5-0.3,1.2-0.3,1.7v4.3h-1.5V1006z"/>
	<path class="st0" d="M230.5,1006h3.9c1.4,0,2.4,0.1,3.2,0.9c0.6,0.6,0.9,1.4,0.9,2.3c0,0.9-0.3,1.7-0.9,2.3c-0.6,0.6-1.4,1-3.5,1
		h-1.9v5.2h-1.6V1006z M232.1,1011.1h1.9c1.1,0,2.7-0.1,2.7-2c0-1.8-1.5-1.8-2.4-1.8h-2.3V1011.1z"/>
	<path class="st0" d="M240.5,1011.2c0-0.5,0-1.1-0.1-1.6h1.5l0,1.6c0.3-1.1,1.3-1.5,1.9-1.6c0.5-0.1,0.8,0,1.1,0v1.5
		c-0.1,0-0.2,0-0.3-0.1c-0.1,0-0.3,0-0.4,0c-1.8,0-2.2,1.1-2.2,2.5v4.3h-1.5V1011.2z"/>
	<path class="st0" d="M250.2,1009.3c3.3,0,4,2.6,4,4.3c0,2.4-1.3,4.4-4.1,4.4c-2.7,0-4-1.9-4-4.2
		C246.1,1011.7,247,1009.3,250.2,1009.3z M250.1,1016.8c1.1,0,2.5-0.8,2.5-3.3c0-2-0.9-3.1-2.4-3.1c-1,0-2.5,0.6-2.5,3.2
		C247.7,1015.3,248.4,1016.8,250.1,1016.8z"/>
	<path class="st0" d="M260.6,1007.1c-0.3,0-0.6,0-0.9,0c-1.2,0-1.2,0.6-1.2,1.2v1.3h1.9v1.1h-1.9v7H257v-7h-1.6v-1.1h1.6v-0.9
		c0-1.1,0.1-1.5,0.3-1.9c0.4-0.5,1-0.9,2-0.9c0.4,0,0.9,0.1,1.2,0.1V1007.1z M261.9,1006h1.5v11.7h-1.5V1006z"/>
	<path class="st0" d="M267.4,1013.9c0,1.7,0.7,2.9,2.3,2.9c1,0,1.8-0.5,1.9-1.7h1.5c0,0.4-0.1,1.1-0.7,1.7c-0.4,0.4-1.2,1.1-2.8,1.1
		c-2.6,0-3.8-1.6-3.8-4.2c0-1.6,0.3-2.9,1.6-3.8c0.8-0.5,1.7-0.6,2.2-0.6c3.6,0,3.6,3.2,3.5,4.5H267.4z M271.7,1012.8
		c0-0.8-0.1-2.4-2-2.4c-1,0-2.2,0.6-2.2,2.4H271.7z"/>
</g>
<line class="st2" x1="328.2" y1="1013.9" x2="1748.2" y2="1005.8"/>
<g>
	<defs>
		<rect id="SVGID_1_" x="2" y="-6.6" width="1920" height="1087"/>
	</defs>
	<clipPath id="SVGID_2_">
		<use xlink:href="#SVGID_1_"  style="overflow:visible;"/>
	</clipPath>
	<g class="st3">
		<path class="st4" d="M-111.7,1478.4c-161.9,84.1-313.6,81-366.9,11.5c-21.3-27.9-29.6-69.8-25.6-105.6
			c7.5-66.9,59.8-111.6,107.9-152.5l190.4-161.9c74.6-63.5,152.6-107.7,245.4-138.7c109.1-36.5,228.2-47.7,343.2-34.2
			c58.9,6.9,116.8,20.1,172.8,39.5c53,18.3,106.8,32.8,160.8,49c83.3,25.1,167,55.1,254.8,58.6c79.6,3.2,157-53,232.2-168.6
			l293.2,173.3c-135.4,317.2-332.7,470.5-591.7,460c-77.8-3.2-197.1-33.1-357.9-89.8c-161-56.6-274.7-86.2-341.2-89
			c-66.6-2.7-121,5.5-162.3,24C1.9,1372.7-49.9,1414.2-111.7,1478.4z"/>
	</g>
</g>
<path class="st5" d="M231,1016.4h5c1.8,0,3,0.1,4,1.2c0.7,0.8,1.1,1.8,1.1,2.8c0,1.1-0.4,2.1-1.2,2.9c-0.8,0.8-1.8,1.3-4.4,1.3h-2.4
	v6.5h-2L231,1016.4z M233,1022.8h2.4c1.3,0,3.4-0.1,3.4-2.5s-1.9-2.3-3-2.3H233L233,1022.8z"/>
<path class="st5" d="M243.1,1022.9c0-0.7-0.1-1.4-0.1-2.1h2v2c0.3-1.1,1.3-1.9,2.4-2c0.4,0,0.9,0,1.3,0v1.9c-0.1,0-0.2-0.1-0.4-0.1
	c-0.2,0-0.4,0-0.6,0c-2.2,0-2.8,1.3-2.8,3.1v5.4h-1.9L243.1,1022.9z"/>
<path class="st5" d="M255.4,1020.6c4.1,0,5,3.2,5,5.4c0,3-1.7,5.5-5.2,5.5s-5-2.3-5-5.3C250.2,1023.6,251.4,1020.6,255.4,1020.6z
	 M255.3,1030c1.4,0,3.1-1,3.1-4.1c0-2.5-1.2-3.9-3-3.9c-1.2,0-3.2,0.8-3.2,4C252.2,1028.1,253.1,1030,255.3,1030L255.3,1030z"/>
<path class="st5" d="M261.6,1033.6c1.5,0.1,1.9-0.2,1.9-1.8v-11h1.9v11.1c0,1,0,3-2.6,3c-0.4,0-0.8,0-1.2-0.1L261.6,1033.6z
	 M263.3,1016.4h2.3v2.1h-2.3V1016.4z"/>
<path class="st5" d="M270.2,1026.3c0,2.1,0.8,3.7,2.9,3.7c1.2,0.1,2.3-0.8,2.4-2.1c0,0,0,0,0-0.1h1.9c0,0.8-0.3,1.5-0.9,2.1
	c-0.9,1-2.2,1.5-3.5,1.4c-3.2,0-4.7-2-4.7-5.2c0-2,0.4-3.7,2-4.8c0.8-0.5,1.8-0.8,2.8-0.8c4.6,0,4.5,4,4.4,5.7H270.2z M275.6,1025
	c0-1-0.2-3-2.5-3c-1.5,0-2.8,1.2-2.8,2.7c0,0.1,0,0.2,0,0.3H275.6z"/>
<path class="st5" d="M286.2,1024.1c0.1-1.1-0.8-2.1-1.9-2.1c0,0-0.1,0-0.1,0c-2.6,0-2.6,3.1-2.6,3.8c0,2.1,0.5,4,2.5,4
	c1.2,0.1,2.2-0.8,2.2-2c0-0.1,0-0.1,0-0.2h1.9c-0.1,2.1-1.9,3.8-4,3.7c0,0-0.1,0-0.1,0c-1.3,0-2.5-0.4-3.4-1.3
	c-0.9-1.1-1.3-2.5-1.2-3.9c0-4.2,2.6-5.5,4.6-5.5c1.2,0,2.3,0.4,3.1,1.3c0.6,0.6,0.9,1.4,0.9,2.3L286.2,1024.1z"/>
<path class="st5" d="M289,1020.8h1.8v-2.1l1.9-0.6v2.7h2.3v1.4h-2.3v6.1c0,0.5,0,1.4,1.4,1.4c0.3,0,0.6,0,0.9-0.1v1.5
	c-0.5,0.1-1.1,0.1-1.6,0.1c-1.8,0-2.6-0.5-2.6-2.2v-6.8H289V1020.8z"/>
<path class="st5" d="M143.3,989.3h4.9c1.8,0,3,0.1,4,1.2c1.5,1.6,1.4,4.1-0.1,5.7c-0.8,0.8-1.8,1.2-4.4,1.2h-2.4v6.5h-2L143.3,989.3
	z M145.3,995.7h2.4c1.3,0,3.4-0.1,3.4-2.5s-1.9-2.3-3-2.3h-2.8L145.3,995.7z"/>
<path class="st5" d="M161.2,1003.9c-0.1-0.5-0.2-1-0.2-1.5c-0.6,1.2-1.8,1.9-3.1,1.8c-2.3,0-3.6-1.3-3.6-3c0-1.3,0.7-2.4,1.8-3
	c1.1-0.5,2.3-0.7,3.5-0.7c0.5,0,0.8,0,1.4,0.1c0-1.2,0-1.8-0.4-2.2c-0.5-0.5-1.1-0.7-1.8-0.7c-1.9,0-2,1.3-2,1.7H155
	c0-0.7,0.3-1.4,0.7-1.9c0.9-0.8,2.1-1.2,3.3-1.1c1.5,0,3.1,0.5,3.6,1.5c0.3,0.5,0.4,1,0.3,1.6l-0.1,4.8c0,0.9,0.1,1.7,0.2,2.5
	L161.2,1003.9z M159.9,998.9c-0.8,0-3.7,0-3.7,2.1c0,0.7,0.4,1.8,2.1,1.8c0.9,0,1.7-0.4,2.2-1.1c0.4-0.8,0.6-1.7,0.5-2.6
	C160.6,999,160.3,998.9,159.9,998.9L159.9,998.9z"/>
<path class="st5" d="M168.1,1004.7c0.1,1.1,0.6,2,2.4,2c2.6,0,2.7-1.9,2.7-4.7c-0.7,1.2-2,1.8-3.3,1.7c-1.2,0.1-2.3-0.4-3.1-1.3
	c-0.8-1.1-1.2-2.4-1.1-3.7c0-3.4,2-5.1,4.5-5.1c1.3-0.1,2.5,0.5,3.2,1.5v-1.4h1.8v1.8v6.3c0,2.5-0.1,3.4-0.5,4.2
	c-0.8,1.6-2.8,1.8-4.2,1.8c-4.1,0-4.2-1.9-4.3-3.3L168.1,1004.7z M172.5,1001.3c0.4-0.5,0.7-1.1,0.7-2.9c0.1-0.9-0.2-1.8-0.8-2.5
	c-0.6-0.6-1.4-0.9-2.2-0.9c-2.4,0-2.7,2.4-2.7,3.7c0,1.6,0.5,3.6,2.8,3.6C171.1,1002.4,172,1002,172.5,1001.3L172.5,1001.3z"/>
<path class="st5" d="M179.8,999.2c0,2.1,0.8,3.7,2.9,3.7c1.2,0.1,2.3-0.8,2.4-2c0,0,0,0,0-0.1h1.9c0,0.8-0.4,1.5-0.9,2.1
	c-0.9,0.9-2.2,1.4-3.5,1.3c-3.2,0-4.7-2-4.7-5.2c0-2,0.4-3.7,2-4.8c0.8-0.5,1.8-0.8,2.8-0.8c4.6,0,4.4,4,4.4,5.7L179.8,999.2z
	 M185.1,997.8c0-1-0.2-3-2.5-3c-1.5,0-2.7,1.2-2.8,2.7c0,0.1,0,0.2,0,0.3H185.1z"/>
<line class="st6" x1="205" y1="1029.2" x2="205" y2="990.4"/>
<path class="st7" d="M800.5,321h21.9v4.3h-16.7v11.5h15.7v4.3h-15.7v16.7h-5.2L800.5,321z"/>
<path class="st7" d="M828,321.1h5.8v5.2H828V321.1z M828.5,332.2h4.8v25.6h-4.8V332.2z"/>
<path class="st7" d="M842.8,335.2v-3h4.8v4.1c0.6-1.1,2.4-4.6,8.2-4.6c2.3,0,9.2,0.9,9.2,8.7v17.4h-4.9v-16.3
	c0.2-1.6-0.3-3.2-1.4-4.4c-1.2-1.1-2.9-1.8-4.5-1.7c-3.5,0-6.7,2.5-6.7,7.6v14.7h-4.8V335.2z"/>
<path class="st7" d="M889.2,357.8c-0.3-1.2-0.5-2.5-0.5-3.8c-1.5,3-4.6,4.8-7.9,4.6c-5.8,0-9-3.3-9-7.5c0-3.1,1.7-6,4.5-7.5
	c2.7-1.5,6.8-1.7,8.8-1.7c1.2,0,2,0.1,3.5,0.2c0-3.2,0-4.5-0.9-5.7c-1-1.3-3-1.7-4.4-1.7c-4.8,0-5.1,3.3-5.1,4.3h-4.8
	c0-1.8,0.7-3.5,1.8-4.8c1.9-2.1,5.5-2.8,8.2-2.8c3.7,0,7.7,1.2,9,3.8c0.6,1.2,0.9,2.6,0.9,3.9l-0.2,12.2c0,2.1,0.2,4.3,0.4,6.4
	L889.2,357.8z M885.9,345.2c-1.9,0-9.2,0-9.2,5.2c0,1.6,1,4.4,5.3,4.4c2.2,0.1,4.2-0.9,5.4-2.8c1.1-1.7,1.1-3.2,1.2-6.7
	C887.8,345.3,886.8,345.2,885.9,345.2z"/>
<path class="st7" d="M902.1,335.2l0-3h4.8v4.1c0.6-1.1,2.4-4.6,8.2-4.6c2.3,0,9.3,0.9,9.3,8.7v17.4h-4.9v-16.3
	c0.2-1.6-0.3-3.2-1.4-4.4c-1.2-1.1-2.8-1.8-4.5-1.7c-3.5,0-6.7,2.5-6.7,7.6v14.7h-4.7V335.2z"/>
<path class="st7" d="M947.6,340.4c-0.1-1.2-0.5-5.4-5.1-5.4c-6.6,0-6.6,7.7-6.6,9.6c0,5.2,1.3,10.1,6.4,10.1c4.1,0,5.4-3.1,5.5-5.5
	h4.8c-0.3,5-4,9.2-10.3,9.2c-1.7,0-5.7-0.4-8.4-3.3c-1.5-1.8-3-4.5-3-9.8c0-10.6,6.5-13.8,11.6-13.8c1.7,0,5.5,0.4,7.8,3.2
	c1.4,1.6,2.1,3.6,2.1,5.7L947.6,340.4z"/>
<path class="st7" d="M958,321.1h5.8v5.2H958V321.1z M958.5,332.2h4.8v25.6h-4.8V332.2z"/>
<path class="st7" d="M988.2,357.8c-0.3-1.2-0.5-2.5-0.5-3.8c-1.5,3-4.6,4.8-7.9,4.6c-5.8,0-9-3.3-9-7.5c0-3.1,1.7-6,4.5-7.5
	c2.8-1.5,6.8-1.7,8.8-1.7c1.2,0,2,0.1,3.5,0.2c0-3.2,0-4.5-0.9-5.7c-1-1.3-3-1.7-4.4-1.7c-4.8,0-5.1,3.3-5.1,4.3h-4.8
	c0.1-1.8,0.7-3.5,1.8-4.8c1.9-2.1,5.5-2.8,8.2-2.8c3.7,0,7.7,1.2,9,3.8c0.6,1.2,0.9,2.6,0.9,3.9l-0.2,12.2c0,2.1,0.2,4.3,0.4,6.4
	L988.2,357.8z M984.8,345.2c-1.9,0-9.2,0-9.2,5.2c0,1.6,1,4.4,5.3,4.4c2.2,0.1,4.2-0.9,5.4-2.8c1.1-1.7,1.1-3.2,1.2-6.7
	C986.7,345.3,985.8,345.2,984.8,345.2z"/>
<path class="st7" d="M1001,321h4.8v36.8h-4.8V321z"/>
<path class="st7" d="M1040.2,331.5c10.2,0,12.5,8,12.5,13.4c0,7.5-4.2,13.7-12.9,13.7c-8.4,0-12.6-5.9-12.6-13.4
	C1027.3,339,1030.2,331.5,1040.2,331.5z M1039.9,355.1c3.6,0,7.7-2.6,7.7-10.3c0-6.4-3-9.7-7.4-9.7c-3,0-8,1.9-8,9.9
	C1032.2,350.3,1034.5,355.1,1039.9,355.1L1039.9,355.1z"/>
<path class="st7" d="M1073,324.6c-0.8,0-1.8-0.1-2.8-0.1c-3.9,0-3.9,1.9-3.9,3.7v4h6v3.5h-6v22.1h-4.7v-22.1h-5v-3.5h5v-2.9
	c0-3.5,0.2-4.8,1.1-6.1c1.1-1.6,3.1-2.8,6.4-2.8c1.3,0,2.6,0.1,3.9,0.4V324.6z"/>
<path class="st7" d="M1088.7,324.6c-0.8,0-1.8-0.1-2.8-0.1c-3.9,0-3.9,1.9-3.9,3.7v4h6v3.5h-6v22.1h-4.7v-22.1h-5v-3.5h5v-2.9
	c0-3.5,0.2-4.8,1.1-6.1c1.1-1.6,3.1-2.8,6.4-2.8c1.3,0,2.6,0.1,3.9,0.4L1088.7,324.6z"/>
<path class="st7" d="M1095.7,345.9c-0.1,5.3,2.1,9.2,7.3,9.2c3.1,0,5.6-1.6,6-5.3h4.8c-0.1,2-0.9,3.9-2.2,5.4
	c-1.1,1.3-3.7,3.4-8.8,3.4c-8,0-11.8-5-11.8-13.1c0-5,1-9.2,5-12c2.1-1.3,4.5-2,7-1.9c11.4,0,11.2,10.1,11.1,14.3L1095.7,345.9z
	 M1109.2,342.5c0-2.5-0.4-7.5-6.3-7.5c-3.1,0-6.9,1.9-7,7.5H1109.2z"/>
<path class="st7" d="M1121.4,337.4c0-1.7-0.1-3.5-0.2-5.2h4.8l0.1,4.9c0.8-2.8,3.2-4.8,6.1-5c1.1-0.2,2.2-0.2,3.3-0.1v4.7
	c-0.3-0.1-0.6-0.2-0.9-0.2c-0.5,0-0.9-0.1-1.4,0c-5.6,0-7,3.4-7,7.8v13.6h-4.8L1121.4,337.4z"/>
<line class="st8" x1="1173.1" y1="475.1" x2="1173.1" y2="533.2"/>
<line class="st8" x1="1173.1" y1="584.6" x2="1173.1" y2="642.7"/>
<path class="st9" d="M768.3,456.5V437H761v-2.6h17.7v2.6h-7.4v19.4L768.3,456.5z"/>
<path class="st9" d="M784.7,440.8c6.1,0,7.5,4.8,7.5,8c0,4.5-2.5,8.2-7.7,8.2c-5,0-7.5-3.5-7.5-8C777,445.2,778.8,440.8,784.7,440.8
	z M784.6,454.9c2.2,0,4.6-1.6,4.6-6.2c0-3.8-1.8-5.8-4.5-5.8c-1.8,0-4.8,1.1-4.8,5.9C780,452,781.3,454.9,784.6,454.9z"/>
<path class="st9" d="M794.4,441.1h2.7v-3.2l2.8-0.9v4.1h3.4v2.1h-3.4v9.2c0,0.8,0,2,2,2c0.5,0,0.9-0.1,1.4-0.1v2.2
	c-0.8,0.1-1.6,0.2-2.4,0.2c-2.6,0-3.9-0.8-3.9-3.3v-10.2h-2.7L794.4,441.1z"/>
<path class="st9" d="M816.1,456.5c-0.2-0.7-0.3-1.5-0.3-2.3c-0.9,1.8-2.7,2.9-4.7,2.8c-3.5,0-5.4-2-5.4-4.5c0-1.9,1-3.6,2.7-4.5
	c1.7-0.7,3.5-1.1,5.3-1c0.7,0,1.2,0,2.1,0.1c0-1.9,0-2.7-0.5-3.4c-0.7-0.7-1.7-1.1-2.7-1c-2.9,0-3,2-3.1,2.6h-2.9
	c0-1.1,0.4-2.1,1.1-2.9c1.2-1.3,3.3-1.6,4.9-1.6c2.2,0,4.6,0.7,5.4,2.3c0.4,0.7,0.6,1.5,0.5,2.4l-0.1,7.3c0,1.3,0.1,2.6,0.2,3.8
	L816.1,456.5z M814.1,448.9c-1.2,0-5.5,0-5.5,3.1c0,1,0.6,2.6,3.2,2.6c1.3,0.1,2.5-0.6,3.3-1.6c0.6-1,0.7-1.9,0.7-4
	C815.2,449,814.7,448.9,814.1,448.9L814.1,448.9z"/>
<path class="st9" d="M823.8,434.5h2.9v22h-2.9V434.5z"/>
<path class="st9" d="M743.6,576.6h-3.3l-7.8-22h3.4l6.2,18.8l6.6-18.8h3.1L743.6,576.6z"/>
<path class="st9" d="M760.2,554.6h3.3l8.9,22H769l-2.4-5.7h-10.2l-2.4,5.7h-3.1L760.2,554.6z M757.4,568.4h8.3l-4-10.8L757.4,568.4z
	"/>
<path class="st9" d="M778.3,576.6v-19.4H771v-2.6h17.7v2.6h-7.4v19.4L778.3,576.6z"/>
<path class="st9" d="M805.6,558.8c-1.5,1.2-3.2,2.2-4.9,3v-3c1.8-0.9,3.5-2.1,5.1-3.3h2.7v21.1h-2.9V558.8z"/>
<path class="st9" d="M818.7,571.6c0.1,2.1,1.9,3,3.5,3c3.7,0,4.2-3.5,4.2-4.8c0-2.9-1.5-4.5-4-4.5c-1.8-0.1-3.4,1.1-3.8,2.9h-2.8
	l0.5-12.6h11.8v2.5H819l-0.4,6.8c1.1-1.3,2.8-2,4.5-2c4.2,0,6.3,3.3,6.3,7c0,4.2-2.9,7.3-7.5,7.3c-3.4,0-6.1-1.9-6.3-5.5
	L818.7,571.6z"/>
<path class="st9" d="M842.2,560.3c0,3.8-2.2,5.5-5,5.5s-4.9-1.6-4.9-5.3c0-3.2,1.7-5.6,5.2-5.6S842.2,557.5,842.2,560.3z
	 M839.8,560.4c0-1.5-0.4-3.7-2.5-3.7c-2.6,0-2.6,3-2.6,3.7s0,3.6,2.6,3.6S839.8,561,839.8,560.4L839.8,560.4z M836.4,577.8
	l13.4-23.5h2l-13.4,23.5H836.4z M855,567.5c0.9,1.1,1.4,2.5,1.2,3.9c0,3.3-1.6,5.6-4.9,5.6c-3.9,0-5-2.9-5-5.4c0-3.7,2.3-5.5,5-5.5
	C852.7,566,854,566.5,855,567.5z M853.9,571.4c0-1-0.2-3.7-2.6-3.7c-2.6,0-2.6,3.2-2.6,4.1s0.2,3.3,2.6,3.3S853.9,572.5,853.9,571.4
	L853.9,571.4z"/>
<path class="st9" d="M631.8,696.7v-19.4h-7.4v-2.6h17.7v2.6h-7.4v19.4H631.8z"/>
<path class="st9" d="M648.2,681c6.1,0,7.5,4.8,7.5,8c0,4.5-2.5,8.2-7.7,8.2c-5,0-7.5-3.5-7.5-8C640.4,685.5,642.2,681,648.2,681z
	 M648,695.1c2.2,0,4.6-1.5,4.6-6.2c0-3.8-1.8-5.8-4.4-5.8c-1.8,0-4.8,1.2-4.8,6C643.4,692.2,644.7,695.1,648,695.1z"/>
<path class="st9" d="M657.8,681.3h2.7v-3.2l2.8-0.9v4.1h3.4v2.1h-3.4v9.2c0,0.8,0,2,2,2c0.5,0,0.9-0.1,1.4-0.2v2.2
	c-0.8,0.1-1.6,0.2-2.4,0.2c-2.6,0-3.9-0.8-3.9-3.3v-10.2h-2.7L657.8,681.3z"/>
<path class="st9" d="M679.6,696.7c-0.2-0.7-0.3-1.5-0.3-2.3c-0.9,1.8-2.7,2.9-4.7,2.8c-3.5,0-5.4-2-5.4-4.5c0-1.9,1-3.6,2.7-4.5
	c1.7-0.7,3.5-1.1,5.3-1c0.7,0,1.2,0,2.1,0.1c0-1.9,0-2.7-0.5-3.4c-0.7-0.7-1.7-1.1-2.7-1c-2.9,0-3,2-3.1,2.6h-2.9
	c0-1.1,0.4-2.1,1.1-2.9c1.2-1.3,3.3-1.6,4.9-1.6c2.2,0,4.6,0.7,5.4,2.2c0.4,0.7,0.6,1.5,0.5,2.3l-0.1,7.3c0,1.3,0.1,2.6,0.2,3.8
	L679.6,696.7z M677.6,689.2c-1.2,0-5.5,0-5.5,3.1c0,1,0.6,2.7,3.2,2.7c1.3,0.1,2.5-0.6,3.2-1.7c0.6-1,0.7-1.9,0.7-4
	C678.7,689.2,678.1,689.2,677.6,689.2L677.6,689.2z"/>
<path class="st9" d="M687.2,674.7h2.9v22h-2.9V674.7z"/>
<path class="st9" d="M704.1,674.7h3v22h-3V674.7z"/>
<path class="st9" d="M712.6,683.2v-1.8h2.9v2.5c0.9-1.8,2.8-2.9,4.9-2.8c1.4,0,5.5,0.5,5.5,5.2v10.4H723V687
	c0.1-0.9-0.2-1.9-0.8-2.6c-0.7-0.7-1.7-1-2.7-1c-2.1,0-4,1.5-4,4.6v8.8h-2.9L712.6,683.2z"/>
<path class="st9" d="M739.8,686.3c-0.1-0.7-0.3-3.2-3-3.2c-4,0-4,4.6-4,5.8c0,3.1,0.8,6.1,3.8,6.1c1.8,0.1,3.2-1.3,3.3-3.1
	c0-0.1,0-0.2,0-0.3h2.9c-0.2,3.2-2.9,5.7-6.1,5.5c0,0-0.1,0-0.1,0c-1.9,0-3.7-0.7-5-2c-0.9-1.1-1.8-2.7-1.8-5.8
	c0-6.4,3.9-8.3,6.9-8.3c1.8-0.1,3.5,0.6,4.7,1.9c0.8,1,1.3,2.2,1.3,3.4L739.8,686.3z"/>
<path class="st9" d="M746.4,674.7h2.8v22h-2.8V674.7z"/>
<path class="st9" d="M757.4,681.4v9.8c0,1.5,0.3,3.4,3.2,3.4c1.4,0.1,2.8-0.6,3.6-1.7c0.5-0.9,0.7-1.9,0.6-2.9v-8.7h3v12.4
	c0,0.3,0.1,2,0.1,2.9h-3l-0.1-2.6c-0.5,1.1-1.6,2.8-4.9,2.8c-3.8,0-5.5-2.2-5.5-5.2v-10.3H757.4z"/>
<path class="st9" d="M784,674.7h2.9v19.5c0,0.3,0.1,1.7,0.1,2.4h-2.9l-0.1-2.4c-0.3,0.6-0.8,1.2-1.4,1.6c-1.1,0.7-2.4,1.1-3.8,1.1
	c-2,0-6.6-1.1-6.6-7.8c0-5.8,3.3-8.3,6.9-8.3c2-0.2,3.8,0.9,4.8,2.6V674.7z M782.9,684.6c-0.8-1-2-1.6-3.3-1.6
	c-4.2,0-4.2,5.1-4.2,6.1c0,2.7,0.7,5.8,4.2,5.8c4.5,0,4.5-5,4.5-6.2C784.2,687.3,783.8,685.8,782.9,684.6L782.9,684.6z"/>
<path class="st9" d="M791.7,674.8h3.4v3.1h-3.4V674.8z M792,681.4h2.9v15.3H792V681.4z"/>
<path class="st9" d="M800.5,683.2v-1.8h2.9v2.5c0.9-1.8,2.9-2.9,4.9-2.8c1.4,0,5.5,0.5,5.5,5.2v10.4h-2.9V687
	c0.1-0.9-0.2-1.9-0.8-2.6c-0.7-0.7-1.7-1-2.7-1c-2.1,0-4,1.5-4,4.6v8.8h-2.9L800.5,683.2z"/>
<path class="st9" d="M821.8,697.9c0.1,1.7,0.8,3,3.6,3c4,0,4-2.9,4-7c-1.2,2.5-4.1,2.6-5,2.6c-1.8,0.1-3.5-0.6-4.7-1.9
	c-1.2-1.6-1.8-3.6-1.7-5.6c0-5.2,3-7.7,6.8-7.7c1.9-0.1,3.7,0.7,4.8,2.3v-2.1h2.8l-0.1,2.8v9.6c0,3.7-0.1,5.2-0.7,6.3
	c-1.3,2.4-4.3,2.8-6.4,2.8c-6.1,0-6.3-2.9-6.4-4.9L821.8,697.9z M828.4,692.8c0.6-0.8,1-1.6,1-4.4c0.1-1.4-0.3-2.8-1.2-3.8
	c-0.9-0.9-2-1.4-3.3-1.3c-3.6,0-4.1,3.7-4.1,5.6c0,2.3,0.7,5.5,4.2,5.5C826.4,694.4,827.6,693.8,828.4,692.8z"/>
<path class="st9" d="M851.9,696.7h-3.3l-7.8-22h3.4l6.2,18.8l6.6-18.8h3L851.9,696.7z"/>
<path class="st9" d="M868.5,674.7h3.3l8.9,22h-3.3l-2.4-5.7h-10.2l-2.4,5.7h-3.1L868.5,674.7z M865.7,688.5h8.3l-4-10.8L865.7,688.5
	z"/>
<path class="st9" d="M886.6,696.7v-19.4h-7.4v-2.6H897v2.6h-7.4v19.4H886.6z"/>
<path class="st9" d="M913.9,679c-1.5,1.2-3.2,2.2-4.9,3v-3c1.8-0.9,3.5-2.1,5.1-3.3h2.7v21.1h-2.9V679z"/>
<path class="st9" d="M927,691.7c0.1,2.1,1.9,3,3.5,3c3.7,0,4.2-3.5,4.2-4.8c0-2.9-1.5-4.5-4-4.5c-1.1,0-2.1,0.4-2.8,1.1
	c-0.5,0.5-0.8,1.1-1,1.8h-2.8l0.5-12.6h11.8v2.5h-9.2l-0.4,6.8c1.1-1.3,2.8-2,4.4-2c4.2,0,6.3,3.3,6.3,7c0,4.2-2.9,7.3-7.5,7.3
	c-3.4,0-6.1-1.9-6.3-5.5L927,691.7z"/>
<path class="st9" d="M950.5,680.4c0,3.8-2.2,5.5-5,5.5s-4.9-1.6-4.9-5.3c0-3.2,1.7-5.6,5.2-5.6S950.5,677.7,950.5,680.4z
	 M948.1,680.6c0-1.5-0.4-3.7-2.5-3.7c-2.6,0-2.6,3-2.6,3.7s0,3.6,2.6,3.6S948.1,681.2,948.1,680.6z M944.7,697.9l13.4-23.5h2
	l-13.4,23.5H944.7z M963.2,687.6c0.9,1.1,1.4,2.5,1.2,3.9c0,3.3-1.6,5.6-4.9,5.6c-3.9,0-5-2.9-5-5.4c0-3.7,2.3-5.5,5-5.5
	C961,686.1,962.3,686.7,963.2,687.6L963.2,687.6z M962.2,691.6c0-1-0.2-3.7-2.6-3.7c-2.6,0-2.6,3.2-2.6,4.1c0,1.1,0.2,3.3,2.6,3.3
	S962.2,692.7,962.2,691.6L962.2,691.6z"/>
<path class="st10" d="M1055.2,654.7h231.9c6.6,0,12,5.4,12,12v35.2c0,6.6-5.4,12-12,12h-231.9c-6.6,0-12-5.4-12-12v-35.2
	C1043.2,660,1048.6,654.7,1055.2,654.7z"/>
</svg>
