<svg id="Layer_1" data-name="Layer 1" xmlns="http://www.w3.org/2000/svg" xmlns:xlink="http://www.w3.org/1999/xlink" viewBox="0 0 1920 1080"><defs><style>.cls-1,.cls-5,.cls-7{fill:none;}.cls-2,.cls-3{fill:#2a2a68;}.cls-3{font-size:16.22px;font-family:UniversLTStd, Univers LT Std;}.cls-4{clip-path:url(#clip-path);}.cls-5{stroke:#22a4dc;stroke-width:0.38px;}.cls-5,.cls-7{stroke-miterlimit:10;}.cls-6{fill:#999eac;}.cls-7{stroke:#999eac;stroke-width:0.3px;}.cls-8{fill:#22a4dc;}</style><clipPath id="clip-path"><rect class="cls-1" x="2" y="-10.57" width="1918.5" height="1090.56"/></clipPath></defs><rect class="cls-2" x="-3" y="-0.55" width="1925" height="1083.55"/><text class="cls-3" transform="translate(163.39 1014.04)">Qubbah Profle</text><g class="cls-4"><path class="cls-5" d="M-111.64,1479.25c-161.72,84.35-313.35,81.29-366.66,11.53-21.34-27.93-29.55-70-25.57-105.91,7.45-67.1,59.75-112,107.8-153l190.31-162.46c74.57-63.67,152.46-108,245.21-139.11,109.06-36.56,228-47.85,343-34.35a817.87,817.87,0,0,1,172.69,39.58c53,18.4,106.76,32.92,160.72,49.21,83.28,25.14,166.9,55.25,254.58,58.84q119.22,4.88,232-169.13l293,173.86q-203,477.33-591.21,461.47-116.62-4.77-357.61-90.07-241.36-85.18-341-89.38c-66.57-2.72-120.89,5.55-162.2,24.09Q-18.9,1382.63-111.64,1479.25Z"/></g><path class="cls-6" d="M230.84,1012.75h4.92c1.79,0,3,.1,4,1.18a4,4,0,0,1,1.07,2.85,3.89,3.89,0,0,1-1.15,2.88c-.78.78-1.79,1.27-4.43,1.27h-2.38v6.54h-2Zm2,6.46h2.42c1.34,0,3.39-.1,3.39-2.51s-1.91-2.3-3-2.3h-2.84Z"/><path class="cls-6" d="M243,1019.31c0-.69,0-1.4-.1-2.08h1.93l0,2a2.74,2.74,0,0,1,2.44-2,6.17,6.17,0,0,1,1.32,0V1019a1.7,1.7,0,0,0-.37-.08,4.28,4.28,0,0,0-.55,0c-2.25,0-2.78,1.34-2.78,3.1v5.44H243Z"/><path class="cls-6" d="M255.19,1017c4.09,0,5,3.22,5,5.36,0,3-1.68,5.49-5.16,5.49s-5-2.34-5-5.34C250,1020,251.19,1017,255.19,1017Zm-.12,9.42c1.44,0,3.09-1,3.09-4.12,0-2.55-1.18-3.89-3-3.89-1.22,0-3.19.77-3.19,4C252,1024.46,252.9,1026.39,255.07,1026.39Z"/><path class="cls-6" d="M261.37,1030c1.51.07,1.87-.2,1.87-1.83v-11h1.91v11.2c0,1,0,3.06-2.6,3.06a11.19,11.19,0,0,1-1.18-.08Zm1.69-17.25h2.32v2.12h-2.32Z"/><path class="cls-6" d="M270,1022.7c0,2.12.83,3.69,2.93,3.69a2.21,2.21,0,0,0,2.39-2.12h1.91a3.46,3.46,0,0,1-.87,2.14,4.41,4.41,0,0,1-3.52,1.37c-3.21,0-4.73-2-4.73-5.24,0-2,.41-3.7,2-4.82a4.93,4.93,0,0,1,2.79-.75c4.57,0,4.47,4.06,4.43,5.73Zm5.39-1.35c0-1-.17-3-2.53-3a2.75,2.75,0,0,0-2.78,3Z"/><path class="cls-6" d="M285.94,1020.52a2,2,0,0,0-2-2.14c-2.64,0-2.64,3.08-2.64,3.85,0,2.1.51,4.06,2.54,4.06a2.12,2.12,0,0,0,2.21-2.22H288a3.87,3.87,0,0,1-4.13,3.67,4.55,4.55,0,0,1-3.35-1.33,5.53,5.53,0,0,1-1.22-3.91c0-4.27,2.6-5.53,4.63-5.53a4.13,4.13,0,0,1,3.13,1.26,3.58,3.58,0,0,1,.85,2.29Z"/><path class="cls-6" d="M288.73,1017.19h1.81v-2.14l1.89-.61v2.75h2.27v1.41h-2.27v6.14c0,.51,0,1.37,1.36,1.37a4.17,4.17,0,0,0,.91-.1v1.49a9.45,9.45,0,0,1-1.58.12c-1.75,0-2.58-.51-2.58-2.19v-6.83h-1.81Z"/><path class="cls-6" d="M143.15,990.12H148c1.78,0,3,.1,4,1.17a4,4,0,0,1,1.07,2.84,3.86,3.86,0,0,1-1.15,2.86c-.77.77-1.78,1.26-4.4,1.26h-2.37v6.51h-2Zm2,6.42h2.41c1.33,0,3.37-.1,3.37-2.49s-1.9-2.29-2.95-2.29h-2.83Z"/><path class="cls-6" d="M161.07,1004.76a5.6,5.6,0,0,1-.18-1.52,3.28,3.28,0,0,1-3.13,1.84c-2.33,0-3.58-1.32-3.58-3a3.34,3.34,0,0,1,1.78-3,7.86,7.86,0,0,1,3.51-.67c.49,0,.79,0,1.38.06,0-1.26,0-1.8-.37-2.25a2.29,2.29,0,0,0-1.75-.67c-1.92,0-2,1.32-2,1.72h-1.9a3.27,3.27,0,0,1,.7-1.92,4.6,4.6,0,0,1,3.28-1.1c1.47,0,3,.47,3.59,1.5a3,3,0,0,1,.35,1.56l-.08,4.87a24.13,24.13,0,0,0,.16,2.56Zm-1.31-5c-.77,0-3.66,0-3.66,2.07,0,.64.4,1.76,2.1,1.76a2.42,2.42,0,0,0,2.16-1.09,4.75,4.75,0,0,0,.49-2.68A8.6,8.6,0,0,0,159.76,999.75Z"/><path class="cls-6" d="M167.94,1005.55c.08,1.13.56,2,2.36,2,2.65,0,2.69-1.93,2.69-4.69a3.52,3.52,0,0,1-3.34,1.72,3.9,3.9,0,0,1-3.11-1.25,5.73,5.73,0,0,1-1.15-3.75c0-3.45,2-5.14,4.51-5.14a3.54,3.54,0,0,1,3.19,1.55l0-1.4H175l0,1.84,0,6.37c0,2.45-.08,3.45-.49,4.22-.85,1.62-2.83,1.82-4.22,1.82-4.06,0-4.18-1.9-4.26-3.28Zm4.42-3.41c.4-.53.69-1.07.69-2.92a3.38,3.38,0,0,0-.79-2.53,3,3,0,0,0-2.18-.9c-2.41,0-2.73,2.44-2.73,3.73,0,1.57.47,3.64,2.79,3.64A2.54,2.54,0,0,0,172.36,1002.14Z"/><path class="cls-6" d="M179.61,1000c0,2.11.83,3.67,2.91,3.67a2.21,2.21,0,0,0,2.38-2.11h1.9a3.44,3.44,0,0,1-.87,2.13,4.35,4.35,0,0,1-3.49,1.36c-3.19,0-4.71-2-4.71-5.21,0-2,.41-3.67,2-4.79a4.86,4.86,0,0,1,2.77-.75c4.55,0,4.44,4,4.4,5.7Zm5.35-1.34c0-1-.16-3-2.5-3a2.73,2.73,0,0,0-2.77,3Z"/><line class="cls-7" x1="204.82" y1="1025.56" x2="204.82" y2="986.66"/><path class="cls-8" d="M729.78,547.1a11.66,11.66,0,0,1-1.43-2.28,15,15,0,0,1-.88-2.28,12.5,12.5,0,0,1-.43-2.16,17.28,17.28,0,0,1-.12-2,15.06,15.06,0,0,1,1-5.42,13.65,13.65,0,0,1,2.75-4.46,12.93,12.93,0,0,1,9.67-4.14c.47,0,1,0,1.62.07s1.22.1,1.85.17,1.21.15,1.75.25a7.54,7.54,0,0,1,1.31.35l-.61,6.36c-.45-.14-1-.27-1.54-.39s-1.19-.23-1.8-.31-1.23-.14-1.84-.2-1.14-.08-1.61-.08a8.93,8.93,0,0,0-2.36.32,5.85,5.85,0,0,0-2.22,1.13,6.24,6.24,0,0,0-1.67,2.16,7.83,7.83,0,0,0-.65,3.38,8.56,8.56,0,0,0,.64,3.36,7.54,7.54,0,0,0,1.81,2.65,8.32,8.32,0,0,0,2.81,1.74,10,10,0,0,0,3.62.63h8.14v6.08H734.42a8.56,8.56,0,0,0-3.35.66,8.12,8.12,0,0,0-2.74,1.91,9.22,9.22,0,0,0-1.87,3.07,11.61,11.61,0,0,0-.69,4.13,10.77,10.77,0,0,0,.63,3.58,8.89,8.89,0,0,0,2,3.21,10.05,10.05,0,0,0,3.41,2.31,12.74,12.74,0,0,0,5,.9,23.83,23.83,0,0,0,3.25-.24c1.15-.16,2.26-.34,3.31-.54v5.54c-.65.18-1.25.33-1.81.44l-1.65.3a14.83,14.83,0,0,1-1.6.19c-.53,0-1.09.05-1.7.05a20.21,20.21,0,0,1-5.3-.64,16.56,16.56,0,0,1-4.24-1.76,14.34,14.34,0,0,1-5.47-5.74,15.81,15.81,0,0,1-1.31-3.48,15,15,0,0,1-.44-3.52,18.64,18.64,0,0,1,.76-5.49,15.5,15.5,0,0,1,2.1-4.41,14.41,14.41,0,0,1,3.15-3.27A16.29,16.29,0,0,1,729.78,547.1Z"/><path class="cls-8" d="M778.71,550.81a12.5,12.5,0,0,1-1.72.65,14.52,14.52,0,0,1-1.82.42c-.6.11-1.19.18-1.75.23s-1.07.06-1.54.06a15.75,15.75,0,0,1-6.5-1.2,12.53,12.53,0,0,1-4.32-3.09,11.88,11.88,0,0,1-2.43-4.27,15.65,15.65,0,0,1-.75-4.72,14.73,14.73,0,0,1,1-5.5,13,13,0,0,1,2.9-4.48,13.31,13.31,0,0,1,4.53-3,15.56,15.56,0,0,1,5.94-1.08,16,16,0,0,1,2.77.25,11.18,11.18,0,0,1,2.84.91,10.72,10.72,0,0,1,2.65,1.78,10.6,10.6,0,0,1,2.19,2.82,15.8,15.8,0,0,1,1.5,4.08,24.57,24.57,0,0,1,.55,5.53v5.67a22.71,22.71,0,0,1-1.64,9.22,16,16,0,0,1-4.57,6.1,20.14,20.14,0,0,1-7,3.6,46.56,46.56,0,0,1-8.9,1.69l-.64-5.84a32.66,32.66,0,0,0,6.61-1.09,19.82,19.82,0,0,0,5-2.07,11.92,11.92,0,0,0,3.34-3A10.1,10.1,0,0,0,778.71,550.81Zm-5.86-4.72c.56,0,1.13,0,1.72-.08s1.14-.14,1.66-.24a14.85,14.85,0,0,0,1.45-.34,7.52,7.52,0,0,0,1-.35v-2.93a21.69,21.69,0,0,0-.66-5.89,9.74,9.74,0,0,0-1.72-3.54,5.4,5.4,0,0,0-2.42-1.72,8.69,8.69,0,0,0-2.74-.45,7.31,7.31,0,0,0-2.89.57,6.83,6.83,0,0,0-2.34,1.62,7.48,7.48,0,0,0-1.57,2.51,8.82,8.82,0,0,0-.57,3.22,8.54,8.54,0,0,0,.5,2.9,6.4,6.4,0,0,0,1.6,2.43,8,8,0,0,0,2.81,1.67A12.36,12.36,0,0,0,772.85,546.09Z"/><path class="cls-8" d="M789.14,560.38a20.88,20.88,0,0,0,5.74-1.43,7.54,7.54,0,0,0,4.69-6,28.7,28.7,0,0,0,.34-4.6V526H806v20h7.91a3.3,3.3,0,0,1,1.82.4,1.58,1.58,0,0,1,.61,1.39v2.33a2.46,2.46,0,0,1-.19,1,1.31,1.31,0,0,1-.52.59,2,2,0,0,1-.78.27,5.53,5.53,0,0,1-.94.07h-8.24a20.44,20.44,0,0,1-1.7,6,12.41,12.41,0,0,1-3.16,4.1,14.43,14.43,0,0,1-4.72,2.59,34.29,34.29,0,0,1-6.31,1.43Z"/><path class="cls-8" d="M832.11,544.06A10.36,10.36,0,0,0,836,545.6a24.68,24.68,0,0,0,4.46.39h2.32a2,2,0,0,0,1.71-1,5.32,5.32,0,0,0,.62-2.87V529.64h6.06v14a10.74,10.74,0,0,0,4,1.79A20.93,20.93,0,0,0,860,546h2.33a2,2,0,0,0,1.7-1,5.32,5.32,0,0,0,.62-2.87V526h6.06v17.47a10.6,10.6,0,0,0,3.77,1.93,19.16,19.16,0,0,0,5.35.64h.27a3.32,3.32,0,0,1,1.82.4,1.57,1.57,0,0,1,.6,1.39v2.33a2.47,2.47,0,0,1-.18,1,1.33,1.33,0,0,1-.53.59,1.91,1.91,0,0,1-.77.27,5.53,5.53,0,0,1-.94.07h-.34a16,16,0,0,1-6.11-1,12.91,12.91,0,0,1-4-2.55,7.32,7.32,0,0,1-2.29,2.52,6.43,6.43,0,0,1-3.77,1h-3.63a19.7,19.7,0,0,1-5.3-.74,11.62,11.62,0,0,1-4.69-2.6,7.46,7.46,0,0,1-2.27,2.38,6.41,6.41,0,0,1-3.65,1h-3.63a18.59,18.59,0,0,1-2.57-.17,16.82,16.82,0,0,1-2.54-.52,15,15,0,0,1-2.41-.93A10.89,10.89,0,0,1,830.7,549a7.16,7.16,0,0,1-2.22,2.16,6.38,6.38,0,0,1-3.5.88H813.87a3.28,3.28,0,0,1-1.81-.4,1.54,1.54,0,0,1-.61-1.39V548a2.31,2.31,0,0,1,.19-1,1.25,1.25,0,0,1,.52-.59,1.91,1.91,0,0,1,.77-.27,5.61,5.61,0,0,1,.94-.07h9.86a1.93,1.93,0,0,0,1.7-1,5.23,5.23,0,0,0,.62-2.87v-9.66h6.06Zm8-30.24a3.51,3.51,0,0,1,.29-1.4,3.78,3.78,0,0,1,.76-1.15,3.48,3.48,0,0,1,1.13-.77,3.27,3.27,0,0,1,1.39-.29,3.35,3.35,0,0,1,1.4.29,3.65,3.65,0,0,1,1.92,1.92,3.67,3.67,0,0,1,0,2.81,3.57,3.57,0,0,1-.78,1.13,3.79,3.79,0,0,1-1.14.76,3.5,3.5,0,0,1-1.4.28,3.52,3.52,0,0,1-3.57-3.58Zm4.75-9.05a3.28,3.28,0,0,1,.29-1.4,3.81,3.81,0,0,1,.75-1.15,3.51,3.51,0,0,1,3.92-.78,3.63,3.63,0,0,1,1.92,1.93,3.44,3.44,0,0,1,.29,1.4A3.57,3.57,0,0,1,851,507.3a3.78,3.78,0,0,1-1.15.76,3.53,3.53,0,0,1-5-3.29Zm4.85,9.05a3.5,3.5,0,0,1,.28-1.4,3.78,3.78,0,0,1,.76-1.15,3.48,3.48,0,0,1,1.13-.77,3.27,3.27,0,0,1,1.39-.29,3.31,3.31,0,0,1,1.4.29,3.65,3.65,0,0,1,1.92,1.92,3.67,3.67,0,0,1,0,2.81,3.57,3.57,0,0,1-.78,1.13,3.79,3.79,0,0,1-1.14.76,3.53,3.53,0,0,1-5-3.3Z"/><path class="cls-8" d="M890.5,547.41a11.19,11.19,0,0,1-1.5,2.21,7,7,0,0,1-1.72,1.44,6.52,6.52,0,0,1-2,.77,11.82,11.82,0,0,1-2.49.24h-2.63a3.32,3.32,0,0,1-1.82-.4,1.56,1.56,0,0,1-.6-1.39V548a2.47,2.47,0,0,1,.18-1,1.33,1.33,0,0,1,.53-.59,1.91,1.91,0,0,1,.77-.27,5.61,5.61,0,0,1,.94-.07h1.58a7.21,7.21,0,0,0,3.72-1,4.9,4.9,0,0,0,2.21-3.06,40.43,40.43,0,0,1,2.18-6.24,28,28,0,0,1,2.54-4.46,16.22,16.22,0,0,1,2.71-3,13.72,13.72,0,0,1,2.73-1.77,9.83,9.83,0,0,1,2.57-.86,12.7,12.7,0,0,1,2.28-.22,12.38,12.38,0,0,1,4.1.64,12.07,12.07,0,0,1,3.3,1.74,12.69,12.69,0,0,1,2.52,2.55,17,17,0,0,1,1.79,3,15.93,15.93,0,0,1,1,3.2,15.42,15.42,0,0,1,.34,3.07,12.87,12.87,0,0,1-.68,4,11.26,11.26,0,0,0,3.72,1.78A19.83,19.83,0,0,0,924,546h.27a3.28,3.28,0,0,1,1.81.4,1.55,1.55,0,0,1,.61,1.39v2.33a2.31,2.31,0,0,1-.19,1,1.25,1.25,0,0,1-.52.59,1.91,1.91,0,0,1-.77.27,5.61,5.61,0,0,1-.94.07h-.34a18.58,18.58,0,0,1-3.75-.34,13.37,13.37,0,0,1-3-.93,11.8,11.8,0,0,1-2.36-1.38,14.7,14.7,0,0,1-1.88-1.71,13,13,0,0,1-4.12,3.36,12.82,12.82,0,0,1-6.08,1.34,17.2,17.2,0,0,1-4.09-.46,18.39,18.39,0,0,1-3.43-1.16,15.13,15.13,0,0,1-2.72-1.61A12.53,12.53,0,0,1,890.5,547.41Zm19.78-7a10.58,10.58,0,0,0-.45-2.84,10.28,10.28,0,0,0-1.41-3,8.55,8.55,0,0,0-2.44-2.39,6.38,6.38,0,0,0-3.54-1,6.49,6.49,0,0,0-3.58,1A10.71,10.71,0,0,0,896,535a16.81,16.81,0,0,0-2.08,3.9,22.31,22.31,0,0,0-1.22,4.53,3.92,3.92,0,0,0,1.32,1,13.51,13.51,0,0,0,2.27.94,19.87,19.87,0,0,0,2.76.7,15.43,15.43,0,0,0,2.81.27,20.5,20.5,0,0,0,3.48-.27,7.84,7.84,0,0,0,2.68-.93,4.34,4.34,0,0,0,1.69-1.81A6.33,6.33,0,0,0,910.28,540.38Z"/><path class="cls-8" d="M924.22,552.07a3.3,3.3,0,0,1-1.82-.4,1.54,1.54,0,0,1-.61-1.39V548a2.31,2.31,0,0,1,.19-1,1.25,1.25,0,0,1,.52-.59,1.91,1.91,0,0,1,.77-.27,5.65,5.65,0,0,1,1-.07h9.15V503.52h6.06v48.55Z"/><path class="cls-8" d="M950.87,503.55h6v48.56h-6Z"/><path class="cls-8" d="M981.49,560.38a20.88,20.88,0,0,0,5.74-1.43,7.54,7.54,0,0,0,4.69-6,27.59,27.59,0,0,0,.34-4.6V526h6.06v20h7.9a3.3,3.3,0,0,1,1.82.4,1.58,1.58,0,0,1,.61,1.39v2.33a2.46,2.46,0,0,1-.19,1,1.31,1.31,0,0,1-.52.59,2,2,0,0,1-.77.27,5.73,5.73,0,0,1-.95.07H998a20.14,20.14,0,0,1-1.7,6,12.41,12.41,0,0,1-3.16,4.1,14.48,14.48,0,0,1-4.71,2.59,34.67,34.67,0,0,1-6.31,1.43Z"/><path class="cls-8" d="M1021.4,543.89a10.94,10.94,0,0,0,3.58,1.58,20.32,20.32,0,0,0,4.93.52h.27a3.3,3.3,0,0,1,1.82.4,1.58,1.58,0,0,1,.61,1.39v2.33a2.46,2.46,0,0,1-.19,1,1.31,1.31,0,0,1-.52.59,2,2,0,0,1-.77.27,5.73,5.73,0,0,1-1,.07h-.33a15.94,15.94,0,0,1-5.82-.91,14,14,0,0,1-4-2.3,7.37,7.37,0,0,1-2.24,2.28,6.31,6.31,0,0,1-3.55.93h-8a3.28,3.28,0,0,1-1.81-.4,1.54,1.54,0,0,1-.61-1.39V548a2.31,2.31,0,0,1,.19-1,1.25,1.25,0,0,1,.52-.59,1.91,1.91,0,0,1,.77-.27,5.61,5.61,0,0,1,.94-.07h6.8a1.93,1.93,0,0,0,1.7-1,5.23,5.23,0,0,0,.62-2.87V526h6.06Zm-11.78,18.32a3.47,3.47,0,0,1,.29-1.4,3.66,3.66,0,0,1,.76-1.15,3.42,3.42,0,0,1,1.12-.78,3.52,3.52,0,0,1,2.8,0,3.73,3.73,0,0,1,1.14.78,3.68,3.68,0,0,1,.77,1.15,3.47,3.47,0,0,1,.29,1.4,3.57,3.57,0,0,1-1.06,2.53,3.85,3.85,0,0,1-1.14.76,3.51,3.51,0,0,1-1.4.29,3.42,3.42,0,0,1-2.54-1A3.46,3.46,0,0,1,1009.62,562.21Zm9.59,0a3.47,3.47,0,0,1,.29-1.4,3.66,3.66,0,0,1,.76-1.15,3.42,3.42,0,0,1,1.12-.78,3.52,3.52,0,0,1,2.8,0,3.61,3.61,0,0,1,1.14.78,3.52,3.52,0,0,1,.77,1.15,3.56,3.56,0,0,1-.77,3.93,3.73,3.73,0,0,1-1.14.76,3.51,3.51,0,0,1-1.4.29,3.42,3.42,0,0,1-2.54-1A3.46,3.46,0,0,1,1019.21,562.21Z"/><path class="cls-8" d="M1048.46,543.86a10.39,10.39,0,0,0,4,1.69,23.67,23.67,0,0,0,4.62.44h2.33a2,2,0,0,0,1.7-1,5.23,5.23,0,0,0,.62-2.87V529.64h6.06v14.25a10.31,10.31,0,0,0,3.88,1.64,22.77,22.77,0,0,0,4.72.46h4.86V526h6.06v26.12h-11a22.57,22.57,0,0,1-2.38-.13,17.09,17.09,0,0,1-2.59-.49,14.65,14.65,0,0,1-2.58-1,10,10,0,0,1-2.33-1.55,7,7,0,0,1-2.26,2.25,6.51,6.51,0,0,1-3.53.89H1057a19.21,19.21,0,0,1-2.62-.17,16.56,16.56,0,0,1-2.59-.54,13.33,13.33,0,0,1-2.45-1,10.81,10.81,0,0,1-2.19-1.48,7.24,7.24,0,0,1-2.25,2.26,6.44,6.44,0,0,1-3.57.91h-11.1a3.3,3.3,0,0,1-1.82-.4,1.57,1.57,0,0,1-.61-1.39V548a2.46,2.46,0,0,1,.19-1,1.31,1.31,0,0,1,.52-.59,2,2,0,0,1,.77-.27,5.73,5.73,0,0,1,1-.07h9.86a2,2,0,0,0,1.7-1,5.32,5.32,0,0,0,.62-2.87v-9.66h6.06Z"/><path class="cls-8" d="M1142.14,508.42a6.21,6.21,0,0,1-1.73,1.45,4.39,4.39,0,0,1-2.24.61,5.06,5.06,0,0,1-3.84-1.49,5.51,5.51,0,0,1-1.41-3.95v-5h2.59v5.1a2.54,2.54,0,0,0,.79,2.05,2.87,2.87,0,0,0,1.9.66,2.73,2.73,0,0,0,2.7-2.71v-4.36h2.42v4.36a2.71,2.71,0,0,0,2.69,2.71,2.87,2.87,0,0,0,1.9-.66,2.51,2.51,0,0,0,.79-2.05V500h2.59v5a6,6,0,0,1-.4,2.23,5.1,5.1,0,0,1-1.11,1.72,5,5,0,0,1-1.67,1.1,5.45,5.45,0,0,1-2.07.39,4.32,4.32,0,0,1-2.22-.61A5.84,5.84,0,0,1,1142.14,508.42Z"/><path class="cls-8" d="M1111.85,546h8.45a35.74,35.74,0,0,1,1.25-3.4c.51-1.22,1.13-2.5,1.85-3.83V503.52h6v26.76a32,32,0,0,1,3-2.71,20.79,20.79,0,0,1,3.35-2.16,17.75,17.75,0,0,1,3.72-1.42,16.44,16.44,0,0,1,4.07-.5,15.43,15.43,0,0,1,6.61,1.28,12.2,12.2,0,0,1,4.51,3.55,14.82,14.82,0,0,1,2.59,5.3,25.15,25.15,0,0,1,.82,6.59V546h6.9a3.3,3.3,0,0,1,1.82.4,1.58,1.58,0,0,1,.61,1.39v2.33a2.46,2.46,0,0,1-.19,1,1.31,1.31,0,0,1-.52.59,1.91,1.91,0,0,1-.77.27,5.73,5.73,0,0,1-1,.07h-53.17Zm40.22-5.1a17.52,17.52,0,0,0-.73-5.48,9.4,9.4,0,0,0-2-3.53,6.93,6.93,0,0,0-2.93-1.89,11.6,11.6,0,0,0-7.61.17,14.41,14.41,0,0,0-3.6,2,19.61,19.61,0,0,0-3.11,2.88,28.32,28.32,0,0,0-2.58,3.49,29.41,29.41,0,0,0-2,3.76,25.6,25.6,0,0,0-1.31,3.72h25.81Z"/><path class="cls-8" d="M1171.32,525.58c1.32-.38,2.66-.73,4-1a21.28,21.28,0,0,1,4.59-.46,11.93,11.93,0,0,1,4.59.82,10,10,0,0,1,3.44,2.26,11.73,11.73,0,0,1,2.32,3.46,17.68,17.68,0,0,1,1.26,4.38c.22,1.44.45,2.83.67,4.15a23,23,0,0,0,.86,3.52,7.19,7.19,0,0,0,1.31,2.41,2.6,2.6,0,0,0,2,.9v6.08H1165a3.28,3.28,0,0,1-1.81-.4,1.54,1.54,0,0,1-.61-1.39V548a2.31,2.31,0,0,1,.19-1,1.25,1.25,0,0,1,.52-.59,1.91,1.91,0,0,1,.77-.27,5.61,5.61,0,0,1,.94-.07H1189a5.3,5.3,0,0,1-1.16-1.93,16.58,16.58,0,0,1-.76-3.34c-.18-1.33-.41-2.65-.69-4a12,12,0,0,0-1.34-3.54,7.21,7.21,0,0,0-2.53-2.53,8.11,8.11,0,0,0-4.22-1,13.24,13.24,0,0,0-1.68.12c-.63.07-1.27.18-1.92.3s-1.27.26-1.85.42a10.05,10.05,0,0,0-1.48.51Zm4.27-11.76a3.51,3.51,0,0,1,.29-1.4,3.94,3.94,0,0,1,.75-1.15,3.59,3.59,0,0,1,1.13-.77,3.31,3.31,0,0,1,1.4-.29,3.27,3.27,0,0,1,1.39.29,3.56,3.56,0,0,1,1.92,1.92,3.55,3.55,0,0,1,0,2.81,3.71,3.71,0,0,1-.77,1.13,4,4,0,0,1-1.15.76,3.54,3.54,0,0,1-5-3.3Z"/></svg>