<svg id="Layer_1" data-name="Layer 1" xmlns="http://www.w3.org/2000/svg" xmlns:xlink="http://www.w3.org/1999/xlink" viewBox="0 0 1920 1080"><defs><style>.cls-1,.cls-4,.cls-8{fill:none;}.cls-2,.cls-6{fill:#2a2a68;}.cls-3{clip-path:url(#clip-path);}.cls-4{stroke:#22a4dc;stroke-width:0.38px;}.cls-4,.cls-8{stroke-miterlimit:10;}.cls-5{fill:#22a4dc;}.cls-6{isolation:isolate;font-size:16.22px;font-family:UniversLTStd, Univers LT Std;}.cls-7{fill:#999eac;}.cls-8{stroke:#999eac;stroke-width:0.3px;}</style><clipPath id="clip-path"><rect class="cls-1" y="-10.57" width="1918.5" height="1091.12"/></clipPath></defs><rect class="cls-2" x="-1" y="-0.54" width="1921" height="1086.54"/><g class="cls-3"><path class="cls-4" d="M-113.64,1480c-161.72,84.39-313.35,81.33-366.66,11.53-21.34-27.94-29.55-70-25.57-106,7.45-67.13,59.75-112,107.8-153.06L-207.76,1070c74.57-63.7,152.46-108.06,245.21-139.18,109.06-36.58,228-47.88,343-34.37A817.91,817.91,0,0,1,553.11,936c53,18.41,106.76,32.94,160.72,49.23,83.28,25.16,166.9,55.29,254.58,58.88q119.22,4.88,232-169.22l293,173.95q-203,477.59-591.21,461.7-116.62-4.77-357.61-90.11-241.36-85.23-341-89.43c-66.57-2.72-120.89,5.55-162.2,24.11Q-20.9,1383.33-113.64,1480Z"/></g><path class="cls-5" d="M1262.59,162.23a11.66,11.66,0,0,1-1.43-2.28,15.87,15.87,0,0,1-.88-2.28,13.92,13.92,0,0,1-.44-2.17c-.07-.69-.11-1.35-.11-2a15.06,15.06,0,0,1,1-5.42,13.8,13.8,0,0,1,2.75-4.47,12.85,12.85,0,0,1,4.24-3,13.09,13.09,0,0,1,5.43-1.12c.47,0,1,0,1.62.07s1.22.1,1.85.17,1.21.15,1.75.25a6.87,6.87,0,0,1,1.31.36l-.61,6.35c-.45-.13-1-.26-1.54-.38s-1.19-.23-1.81-.31-1.22-.15-1.83-.2-1.14-.09-1.61-.09a9.36,9.36,0,0,0-2.36.32,6,6,0,0,0-2.22,1.14,6.24,6.24,0,0,0-1.67,2.16,7.83,7.83,0,0,0-.65,3.38,8.56,8.56,0,0,0,.64,3.36,7.67,7.67,0,0,0,1.81,2.66,8.55,8.55,0,0,0,2.81,1.74,10,10,0,0,0,3.62.63h8.14v6.08h-15.14a8.56,8.56,0,0,0-3.35.66,8.12,8.12,0,0,0-2.74,1.91,9,9,0,0,0-1.87,3.08,11.56,11.56,0,0,0-.69,4.12,10.72,10.72,0,0,0,.63,3.58,8.85,8.85,0,0,0,2,3.22,10.05,10.05,0,0,0,3.41,2.31,12.74,12.74,0,0,0,5,.9,23.83,23.83,0,0,0,3.25-.24c1.15-.16,2.26-.34,3.31-.54v5.54c-.65.18-1.25.33-1.81.44s-1.12.22-1.65.31a15.07,15.07,0,0,1-1.6.18c-.53,0-1.1.05-1.7.05a20.21,20.21,0,0,1-5.3-.64,16.56,16.56,0,0,1-4.24-1.76,14.34,14.34,0,0,1-5.47-5.74,15.7,15.7,0,0,1-1.31-3.49,14.8,14.8,0,0,1-.44-3.51,18.54,18.54,0,0,1,.76-5.49,15.44,15.44,0,0,1,2.1-4.42,14.67,14.67,0,0,1,3.15-3.28A15.92,15.92,0,0,1,1262.59,162.23Z"/><path class="cls-5" d="M1311.52,165.94a12.5,12.5,0,0,1-1.72.65,14.93,14.93,0,0,1-1.82.42,16.09,16.09,0,0,1-1.75.22c-.56.05-1.07.07-1.55.07a15.74,15.74,0,0,1-6.49-1.2,12.53,12.53,0,0,1-4.32-3.09,11.92,11.92,0,0,1-2.43-4.28,15.64,15.64,0,0,1-.75-4.71,14.78,14.78,0,0,1,1-5.51,13.09,13.09,0,0,1,2.89-4.48,13.3,13.3,0,0,1,4.54-3,15.37,15.37,0,0,1,5.94-1.09,16.06,16.06,0,0,1,2.77.26,11.18,11.18,0,0,1,2.84.91,11,11,0,0,1,2.65,1.77,10.81,10.81,0,0,1,2.19,2.83,15.8,15.8,0,0,1,1.5,4.08,24.57,24.57,0,0,1,.55,5.53V161a22.79,22.79,0,0,1-1.64,9.23,16.15,16.15,0,0,1-4.57,6.1,20.14,20.14,0,0,1-7,3.6,47.3,47.3,0,0,1-8.91,1.69l-.63-5.85a33.41,33.41,0,0,0,6.61-1.08,19.74,19.74,0,0,0,4.94-2.08,12,12,0,0,0,3.35-3A10.34,10.34,0,0,0,1311.52,165.94Zm-5.86-4.72a17,17,0,0,0,1.72-.09,16.21,16.21,0,0,0,1.66-.23c.53-.1,1-.22,1.45-.34a6.25,6.25,0,0,0,1-.36v-2.93a21.69,21.69,0,0,0-.66-5.89,9.74,9.74,0,0,0-1.72-3.54,5.4,5.4,0,0,0-2.42-1.72,8.69,8.69,0,0,0-2.74-.45,7.39,7.39,0,0,0-2.9.57,6.89,6.89,0,0,0-2.33,1.62,7.48,7.48,0,0,0-1.57,2.51,8.82,8.82,0,0,0-.57,3.22,8.5,8.5,0,0,0,.5,2.9,6.25,6.25,0,0,0,1.6,2.43,7.83,7.83,0,0,0,2.81,1.67A12.1,12.1,0,0,0,1305.66,161.22Z"/><path class="cls-5" d="M1322,175.52a21.21,21.21,0,0,0,5.74-1.44,7.54,7.54,0,0,0,4.69-6,28.79,28.79,0,0,0,.34-4.6V141.07h6v20.05h7.91a3.3,3.3,0,0,1,1.82.4,1.55,1.55,0,0,1,.61,1.39v2.33a2.46,2.46,0,0,1-.19,1,1.31,1.31,0,0,1-.52.59,2,2,0,0,1-.78.27,5.53,5.53,0,0,1-.94.07h-8.24a20.44,20.44,0,0,1-1.7,6,12.55,12.55,0,0,1-3.16,4.11,14.6,14.6,0,0,1-4.72,2.58,35.09,35.09,0,0,1-6.31,1.44Z"/><path class="cls-5" d="M1364.92,159.19a10.53,10.53,0,0,0,3.88,1.54,24.65,24.65,0,0,0,4.45.39h2.33a2,2,0,0,0,1.71-1,5.34,5.34,0,0,0,.62-2.87V144.75H1384v14a10.61,10.61,0,0,0,3.94,1.79,20.54,20.54,0,0,0,4.9.55h2.32a2,2,0,0,0,1.71-1,5.34,5.34,0,0,0,.62-2.87V141.07h6.06v17.48a10.58,10.58,0,0,0,3.77,1.92,19.13,19.13,0,0,0,5.35.65h.27a3.28,3.28,0,0,1,1.81.4,1.53,1.53,0,0,1,.61,1.39v2.33a2.47,2.47,0,0,1-.18,1,1.33,1.33,0,0,1-.53.59,1.91,1.91,0,0,1-.77.27,5.61,5.61,0,0,1-.94.07h-.34a16,16,0,0,1-6.11-1,13.08,13.08,0,0,1-4-2.55,7.29,7.29,0,0,1-2.28,2.52,6.45,6.45,0,0,1-3.77,1h-3.63a19.7,19.7,0,0,1-5.3-.74,11.64,11.64,0,0,1-4.69-2.61,7.49,7.49,0,0,1-2.27,2.39,6.41,6.41,0,0,1-3.65,1h-3.63a20.29,20.29,0,0,1-2.57-.17,17.87,17.87,0,0,1-2.54-.52,15,15,0,0,1-2.41-.93,11.74,11.74,0,0,1-2.17-1.42,7.35,7.35,0,0,1-2.21,2.16,6.38,6.38,0,0,1-3.5.88h-11.11a3.31,3.31,0,0,1-1.82-.41,1.54,1.54,0,0,1-.6-1.38v-2.33a2.52,2.52,0,0,1,.18-1,1.45,1.45,0,0,1,.53-.59,2.27,2.27,0,0,1,.77-.27,6.86,6.86,0,0,1,.94-.06h9.86a1.93,1.93,0,0,0,1.7-1,5.25,5.25,0,0,0,.62-2.87v-9.67h6.06Zm8-30.26a3.51,3.51,0,0,1,.29-1.4,3.78,3.78,0,0,1,.76-1.15,3.42,3.42,0,0,1,1.12-.78,3.64,3.64,0,0,1,2.8,0,3.65,3.65,0,0,1,1.91,1.93,3.55,3.55,0,0,1,0,2.81,3.54,3.54,0,0,1-.77,1.13,3.92,3.92,0,0,1-1.14.76,3.51,3.51,0,0,1-1.4.29,3.53,3.53,0,0,1-3.57-3.59Zm4.75-9.06a3.5,3.5,0,0,1,.28-1.4,4,4,0,0,1,.76-1.15,3.56,3.56,0,0,1,3.92-.78,3.66,3.66,0,0,1,1.15.78,3.8,3.8,0,0,1,.77,1.15,3.55,3.55,0,0,1,0,2.81,3.71,3.71,0,0,1-.77,1.13,4,4,0,0,1-1.15.76,3.53,3.53,0,0,1-5-3.3Zm4.84,9.06a3.51,3.51,0,0,1,.29-1.4,3.78,3.78,0,0,1,.76-1.15,3.42,3.42,0,0,1,1.12-.78,3.56,3.56,0,0,1,3.94.78,3.66,3.66,0,0,1,.78,1.15,3.67,3.67,0,0,1,0,2.81,3.57,3.57,0,0,1-.78,1.13,3.79,3.79,0,0,1-1.14.76,3.51,3.51,0,0,1-1.4.29,3.43,3.43,0,0,1-2.54-1A3.47,3.47,0,0,1,1382.55,128.93Z"/><path class="cls-5" d="M1423.31,162.53a12.59,12.59,0,0,1-1.5,2.22,7,7,0,0,1-1.72,1.44,6.62,6.62,0,0,1-2,.77,11.82,11.82,0,0,1-2.49.24h-2.63a3.31,3.31,0,0,1-1.82-.41,1.54,1.54,0,0,1-.6-1.38v-2.33a2.52,2.52,0,0,1,.18-1,1.45,1.45,0,0,1,.53-.59,2.27,2.27,0,0,1,.77-.27,6.86,6.86,0,0,1,.94-.06h1.58a7.21,7.21,0,0,0,3.72-1,4.87,4.87,0,0,0,2.21-3.06,39.91,39.91,0,0,1,2.18-6.23,27.68,27.68,0,0,1,2.54-4.47,15.59,15.59,0,0,1,2.71-3,13.36,13.36,0,0,1,2.73-1.78,10.5,10.5,0,0,1,2.57-.86,12.87,12.87,0,0,1,6.38.42,12.07,12.07,0,0,1,3.3,1.74,13,13,0,0,1,2.52,2.56,16.66,16.66,0,0,1,1.79,3,15.93,15.93,0,0,1,1,3.2,15.38,15.38,0,0,1,.33,3.07,13,13,0,0,1-.67,4,11.05,11.05,0,0,0,3.72,1.77,19.32,19.32,0,0,0,5.17.6h.26a3.3,3.3,0,0,1,1.82.4,1.53,1.53,0,0,1,.61,1.39v2.33a2.31,2.31,0,0,1-.19,1,1.31,1.31,0,0,1-.52.59,1.91,1.91,0,0,1-.77.27,5.73,5.73,0,0,1-1,.07h-.33a18.58,18.58,0,0,1-3.75-.34,13.37,13.37,0,0,1-3-.93,11.8,11.8,0,0,1-2.36-1.38,14.7,14.7,0,0,1-1.88-1.71,13,13,0,0,1-4.12,3.36,12.82,12.82,0,0,1-6.08,1.34,17.2,17.2,0,0,1-4.09-.46,18.39,18.39,0,0,1-3.43-1.16,15.59,15.59,0,0,1-2.73-1.61A12.91,12.91,0,0,1,1423.31,162.53Zm19.78-7a11,11,0,0,0-1.86-5.84,8.55,8.55,0,0,0-2.44-2.39,6.38,6.38,0,0,0-3.54-1,6.49,6.49,0,0,0-3.58,1.05,10.71,10.71,0,0,0-2.88,2.75,16.68,16.68,0,0,0-2.08,3.91,22,22,0,0,0-1.22,4.53,4.06,4.06,0,0,0,1.32,1,13.49,13.49,0,0,0,2.27,1,21.4,21.4,0,0,0,2.76.69,15.43,15.43,0,0,0,2.81.27,20.58,20.58,0,0,0,3.48-.27,7.78,7.78,0,0,0,2.67-.93,4.36,4.36,0,0,0,1.7-1.81A6.3,6.3,0,0,0,1443.09,155.5Z"/><path class="cls-5" d="M1457,167.2a3.27,3.27,0,0,1-1.81-.41,1.52,1.52,0,0,1-.61-1.38v-2.33a2.36,2.36,0,0,1,.19-1,1.36,1.36,0,0,1,.52-.59,2.27,2.27,0,0,1,.77-.27,7,7,0,0,1,.94-.06h9.16v-42.5h6V167.2Z"/><path class="cls-5" d="M1483.68,118.66h6v48.57h-6Z"/><path class="cls-5" d="M1514.3,175.52a21.21,21.21,0,0,0,5.74-1.44,7.54,7.54,0,0,0,4.69-6,27.67,27.67,0,0,0,.34-4.6V141.07h6v20.05H1539a3.3,3.3,0,0,1,1.82.4,1.55,1.55,0,0,1,.61,1.39v2.33a2.46,2.46,0,0,1-.19,1,1.31,1.31,0,0,1-.52.59,2,2,0,0,1-.78.27,5.53,5.53,0,0,1-.94.07h-8.24a20.44,20.44,0,0,1-1.7,6,12.55,12.55,0,0,1-3.16,4.11,14.6,14.6,0,0,1-4.72,2.58,35.17,35.17,0,0,1-6.3,1.44Z"/><path class="cls-5" d="M1554.21,159a10.93,10.93,0,0,0,3.58,1.57,20.28,20.28,0,0,0,4.93.53h.27a3.3,3.3,0,0,1,1.82.4,1.55,1.55,0,0,1,.61,1.39v2.33a2.46,2.46,0,0,1-.19,1,1.31,1.31,0,0,1-.52.59,2,2,0,0,1-.78.27,5.53,5.53,0,0,1-.94.07h-.33a16,16,0,0,1-5.83-.91,14.22,14.22,0,0,1-4-2.3,7.37,7.37,0,0,1-2.24,2.28,6.31,6.31,0,0,1-3.55.93h-8a3.31,3.31,0,0,1-1.82-.41,1.54,1.54,0,0,1-.6-1.38v-2.33a2.52,2.52,0,0,1,.18-1,1.45,1.45,0,0,1,.53-.59,2.27,2.27,0,0,1,.77-.27,7,7,0,0,1,.94-.06h6.8a2,2,0,0,0,1.7-1,5.34,5.34,0,0,0,.62-2.87V141.1h6.06Zm-11.78,18.32a3.51,3.51,0,0,1,.29-1.4,3.94,3.94,0,0,1,.75-1.15,3.51,3.51,0,0,1,3.92-.78,3.66,3.66,0,0,1,1.15.78,3.8,3.8,0,0,1,.77,1.15,3.51,3.51,0,0,1,.29,1.4,3.44,3.44,0,0,1-.29,1.4,3.64,3.64,0,0,1-.77,1.14,4,4,0,0,1-1.15.76,3.54,3.54,0,0,1-5-3.3Zm9.59,0a3.51,3.51,0,0,1,.29-1.4,3.94,3.94,0,0,1,.75-1.15,3.53,3.53,0,0,1,2.53-1.07,3.51,3.51,0,0,1,1.4.29,3.73,3.73,0,0,1,1.14.78,3.8,3.8,0,0,1,.77,1.15,3.51,3.51,0,0,1,.29,1.4,3.44,3.44,0,0,1-.29,1.4,3.64,3.64,0,0,1-.77,1.14,4.06,4.06,0,0,1-1.14.76,3.51,3.51,0,0,1-1.4.29,3.53,3.53,0,0,1-3.57-3.59Z"/><path class="cls-5" d="M1581.27,159a10.55,10.55,0,0,0,4,1.69,23.67,23.67,0,0,0,4.62.44h2.33a2,2,0,0,0,1.7-1,5.25,5.25,0,0,0,.62-2.87V144.75h6.06V159a10.47,10.47,0,0,0,3.88,1.64,23.47,23.47,0,0,0,4.72.46H1614V141.07h6.06V167.2h-11a20.28,20.28,0,0,1-2.38-.14,14.94,14.94,0,0,1-2.59-.49,13.86,13.86,0,0,1-2.58-1,10,10,0,0,1-2.33-1.55,6.91,6.91,0,0,1-2.26,2.24,6.43,6.43,0,0,1-3.53.9h-3.63a21,21,0,0,1-2.62-.17,16.32,16.32,0,0,1-2.59-.54,13.71,13.71,0,0,1-2.46-1A11.07,11.07,0,0,1,1580,164a7.27,7.27,0,0,1-2.25,2.27,6.46,6.46,0,0,1-3.57.91H1563a3.29,3.29,0,0,1-1.82-.41,1.55,1.55,0,0,1-.61-1.38v-2.33a2.51,2.51,0,0,1,.19-1,1.42,1.42,0,0,1,.52-.59,2.34,2.34,0,0,1,.77-.27,7.12,7.12,0,0,1,1-.06h9.86a2,2,0,0,0,1.7-1,5.34,5.34,0,0,0,.62-2.87v-9.67h6.06Z"/><path class="cls-5" d="M1675,123.52a6.07,6.07,0,0,1-1.73,1.46,4.52,4.52,0,0,1-2.24.61,5,5,0,0,1-3.84-1.49,5.51,5.51,0,0,1-1.41-4v-5h2.59v5.11a2.5,2.5,0,0,0,.79,2,2.87,2.87,0,0,0,1.9.66,2.57,2.57,0,0,0,1.9-.79,2.61,2.61,0,0,0,.8-1.91v-4.36h2.42v4.36a2.7,2.7,0,0,0,2.69,2.7,2.87,2.87,0,0,0,1.9-.66,2.5,2.5,0,0,0,.79-2v-5.14h2.59v5a5.94,5.94,0,0,1-.4,2.23,4.89,4.89,0,0,1-2.78,2.83,5.45,5.45,0,0,1-2.07.39,4.42,4.42,0,0,1-2.22-.61A5.72,5.72,0,0,1,1675,123.52Z"/><path class="cls-5" d="M1644.66,161.12h8.45a33.19,33.19,0,0,1,1.25-3.4,41.53,41.53,0,0,1,1.85-3.84V118.62h6V145.4a32,32,0,0,1,3-2.71,20.79,20.79,0,0,1,3.35-2.16,17.75,17.75,0,0,1,3.72-1.42,16,16,0,0,1,4.07-.51,15.43,15.43,0,0,1,6.61,1.29,12.1,12.1,0,0,1,4.51,3.55,14.66,14.66,0,0,1,2.59,5.3,25.15,25.15,0,0,1,.82,6.59v5.79h6.9a3.3,3.3,0,0,1,1.82.4,1.55,1.55,0,0,1,.61,1.39v2.33a2.46,2.46,0,0,1-.19,1,1.31,1.31,0,0,1-.52.59,1.91,1.91,0,0,1-.77.27,5.73,5.73,0,0,1-1,.07h-53.17Zm40.22-5.11a17.52,17.52,0,0,0-.73-5.48,9.54,9.54,0,0,0-2-3.53,6.93,6.93,0,0,0-2.93-1.89,11.41,11.41,0,0,0-3.6-.56,11.13,11.13,0,0,0-4,.73,14.7,14.7,0,0,0-3.6,2,19.75,19.75,0,0,0-3.11,2.9,27.48,27.48,0,0,0-2.58,3.48,29.53,29.53,0,0,0-2,3.77,24.8,24.8,0,0,0-1.31,3.72h25.81Z"/><path class="cls-5" d="M1704.13,140.7c1.32-.39,2.66-.73,4-1a20.67,20.67,0,0,1,4.59-.46,12.13,12.13,0,0,1,4.59.81,10.07,10.07,0,0,1,3.44,2.27,11.73,11.73,0,0,1,2.32,3.46,17.68,17.68,0,0,1,1.26,4.38c.22,1.44.45,2.83.67,4.16a22.55,22.55,0,0,0,.86,3.51,7.25,7.25,0,0,0,1.31,2.42,2.6,2.6,0,0,0,2,.9v6.08h-31.4a3.27,3.27,0,0,1-1.81-.41,1.52,1.52,0,0,1-.61-1.38v-2.33a2.52,2.52,0,0,1,.18-1,1.45,1.45,0,0,1,.53-.59,2.27,2.27,0,0,1,.77-.27,7,7,0,0,1,.94-.06h23.93a5.39,5.39,0,0,1-1.16-1.93,16,16,0,0,1-.76-3.35c-.18-1.33-.41-2.65-.69-4a11.73,11.73,0,0,0-1.35-3.54,7.1,7.1,0,0,0-2.52-2.53,8.11,8.11,0,0,0-4.22-1,13.24,13.24,0,0,0-1.68.12c-.63.08-1.27.18-1.92.31s-1.27.26-1.85.42a10.05,10.05,0,0,0-1.48.51Zm4.27-11.77a3.51,3.51,0,0,1,.29-1.4,3.94,3.94,0,0,1,.75-1.15,3.47,3.47,0,0,1,2.53-1.06,3.42,3.42,0,0,1,1.39.28,3.66,3.66,0,0,1,1.15.78,3.8,3.8,0,0,1,.77,1.15,3.55,3.55,0,0,1,0,2.81,3.71,3.71,0,0,1-.77,1.13,4,4,0,0,1-1.15.76,3.54,3.54,0,0,1-5-3.3Z"/><text class="cls-6" transform="translate(163.39 1014.04)">Qubbah Profe</text><path class="cls-7" d="M230.84,1012.75h4.92c1.79,0,3,.1,4,1.18a4,4,0,0,1,1.07,2.85,3.88,3.88,0,0,1-1.15,2.88c-.78.78-1.79,1.27-4.43,1.27h-2.38v6.54h-2Zm2,6.46h2.42c1.34,0,3.39-.1,3.39-2.51s-1.91-2.3-3-2.3h-2.84Z"/><path class="cls-7" d="M243,1019.31a14.42,14.42,0,0,0-.1-2.08h1.93v2a2.73,2.73,0,0,1,2.44-2,5.83,5.83,0,0,1,1.32,0V1019a1.53,1.53,0,0,0-.37-.08h-.55c-2.25,0-2.78,1.34-2.78,3.1v5.44H243Z"/><path class="cls-7" d="M255.19,1017c4.09,0,5,3.22,5,5.36,0,3-1.68,5.49-5.16,5.49s-5-2.34-5-5.34C250,1020,251.19,1017,255.19,1017Zm-.12,9.42c1.44,0,3.09-1,3.09-4.12,0-2.55-1.18-3.89-3-3.89-1.22,0-3.19.77-3.19,4,0,2.05.93,4,3.1,4Z"/><path class="cls-7" d="M261.37,1030c1.51.07,1.87-.2,1.87-1.83v-11h1.91v11.2c0,1,0,3.06-2.6,3.06a11.69,11.69,0,0,1-1.18-.08Zm1.69-17.25h2.32v2.12h-2.32Z"/><path class="cls-7" d="M270,1022.7c0,2.12.83,3.69,2.93,3.69a2.2,2.2,0,0,0,2.38-2,.34.34,0,0,0,0-.1h1.91a3.46,3.46,0,0,1-.87,2.14,4.43,4.43,0,0,1-3.52,1.37c-3.21,0-4.73-2-4.73-5.24,0-2,.41-3.7,2-4.82a5,5,0,0,1,2.79-.75c4.57,0,4.47,4.06,4.43,5.73Zm5.39-1.35c0-1-.17-3-2.53-3a2.75,2.75,0,0,0-2.79,2.71,2.81,2.81,0,0,0,0,.29Z"/><path class="cls-7" d="M285.94,1020.52a2,2,0,0,0-1.86-2.14h-.14c-2.64,0-2.64,3.08-2.64,3.85,0,2.1.51,4.06,2.54,4.06a2.12,2.12,0,0,0,2.21-2v-.19H288a3.87,3.87,0,0,1-4.06,3.67h-.07a4.53,4.53,0,0,1-3.35-1.33,5.54,5.54,0,0,1-1.22-3.91c0-4.27,2.6-5.53,4.63-5.53a4.13,4.13,0,0,1,3.13,1.26,3.62,3.62,0,0,1,.85,2.29Z"/><path class="cls-7" d="M288.73,1017.19h1.81v-2.14l1.89-.61v2.75h2.27v1.41h-2.27v6.14c0,.51,0,1.37,1.36,1.37a4,4,0,0,0,.91-.1v1.49a10.41,10.41,0,0,1-1.58.12c-1.75,0-2.58-.51-2.58-2.19v-6.83h-1.81Z"/><path class="cls-7" d="M143.15,990.12H148c1.78,0,3,.1,4,1.17a4,4,0,0,1,1.07,2.84,3.88,3.88,0,0,1-1.15,2.86c-.77.77-1.78,1.26-4.4,1.26h-2.37v6.51h-2Zm2,6.42h2.41c1.33,0,3.37-.1,3.37-2.49s-1.9-2.29-3-2.29h-2.83Z"/><path class="cls-7" d="M161.07,1004.76a5.6,5.6,0,0,1-.18-1.52,3.28,3.28,0,0,1-3.13,1.84c-2.33,0-3.58-1.32-3.58-3a3.33,3.33,0,0,1,1.78-3,7.83,7.83,0,0,1,3.51-.67,11.41,11.41,0,0,1,1.38.06c0-1.26,0-1.8-.37-2.25a2.29,2.29,0,0,0-1.75-.67c-1.92,0-2,1.32-2,1.72h-1.9a3.27,3.27,0,0,1,.7-1.92,4.63,4.63,0,0,1,3.28-1.1c1.47,0,3,.47,3.59,1.5a2.93,2.93,0,0,1,.35,1.56l-.08,4.87a24.26,24.26,0,0,0,.16,2.56Zm-1.31-5c-.77,0-3.66,0-3.66,2.07,0,.64.4,1.76,2.1,1.76a2.42,2.42,0,0,0,2.16-1.09,4.79,4.79,0,0,0,.49-2.68,8,8,0,0,0-1.09-.07Z"/><path class="cls-7" d="M167.94,1005.55c.08,1.13.56,2,2.36,2,2.65,0,2.69-1.93,2.69-4.69a3.52,3.52,0,0,1-3.34,1.72,3.93,3.93,0,0,1-3.11-1.25,5.74,5.74,0,0,1-1.15-3.75c0-3.45,2-5.14,4.51-5.14a3.55,3.55,0,0,1,3.19,1.55v-1.4H175v8.21c0,2.45-.08,3.45-.49,4.22-.85,1.62-2.83,1.82-4.22,1.82-4.06,0-4.18-1.9-4.26-3.28Zm4.42-3.41c.4-.53.69-1.07.69-2.92a3.37,3.37,0,0,0-.79-2.53,3,3,0,0,0-2.18-.9c-2.41,0-2.73,2.44-2.73,3.73,0,1.57.47,3.64,2.79,3.64A2.53,2.53,0,0,0,172.36,1002.14Z"/><path class="cls-7" d="M179.61,1000c0,2.11.83,3.67,2.91,3.67a2.22,2.22,0,0,0,2.38-2v-.08h1.9a3.43,3.43,0,0,1-.87,2.13,4.33,4.33,0,0,1-3.49,1.36c-3.19,0-4.71-2-4.71-5.21,0-2,.41-3.67,2-4.79a4.92,4.92,0,0,1,2.77-.75c4.55,0,4.44,4,4.4,5.7Zm5.35-1.34c0-1-.16-3-2.5-3a2.73,2.73,0,0,0-2.78,2.68,1.74,1.74,0,0,0,0,.32Z"/><line class="cls-8" x1="204.82" y1="1025.56" x2="204.82" y2="986.66"/></svg>