<svg id="Layer_1" data-name="Layer 1" xmlns="http://www.w3.org/2000/svg" viewBox="0 0 1920 1080"><defs><style>.cls-1{fill:#2a2a68;}.cls-2,.cls-6{fill:none;stroke-miterlimit:10;}.cls-2{stroke:#c84055;}.cls-3,.cls-7{fill:#229fd7;}.cls-4{fill:#fff;}.cls-5{fill:#ca4055;}.cls-6{stroke:#ca4055;}.cls-7{fill-rule:evenodd;}</style></defs><rect class="cls-1" y="-0.72" width="1920" height="1081.44"/><path class="cls-2" d="M1662.25,326.5l-15.55-11.33q11.65-25.57,33-25.57,7.76,0,22.67,4.52t21.85,4.54c4.64,0,9-3.45,13.12-10.36l17.47,9.39q-10.69,28.17-33.34,28.17-6.81,0-21-4.37t-20.07-4.38a21.31,21.31,0,0,0-9.39,1.78Q1667.44,320.67,1662.25,326.5Z"/><path class="cls-3" d="M934.19,429.37h-6.56v-1.32a11.49,11.49,0,0,0-.33-2.87,9.11,9.11,0,0,0-1.15-2.58,40.67,40.67,0,0,0-3.09-4.23q-1.66-2-3.12-4a22.12,22.12,0,0,1-2.42-4.36,13.58,13.58,0,0,1-1-5.23,12.67,12.67,0,0,1,1.29-5.85,12.87,12.87,0,0,1,3.38-4.22,14.65,14.65,0,0,1,4.81-2.57,18.38,18.38,0,0,1,5.58-.86,27.62,27.62,0,0,1,6.44.7,28.93,28.93,0,0,1,5.21,1.76l-.5,7a14.06,14.06,0,0,0-4.3-2.14,20.4,20.4,0,0,0-6.07-.82,12,12,0,0,0-3.18.43,7.6,7.6,0,0,0-2.71,1.36,6.66,6.66,0,0,0-1.87,2.34,7.51,7.51,0,0,0-.69,3.34,9.87,9.87,0,0,0,.57,3.38,17.63,17.63,0,0,0,1.44,3,24.4,24.4,0,0,0,1.9,2.68c.69.85,1.34,1.66,2,2.42.82,1,1.51,2,2.07,2.81a13,13,0,0,1,1.34,2.5,12.76,12.76,0,0,1,.72,2.63,18.47,18.47,0,0,1,.23,3.14Zm.66,14.52H927V435.6h7.88Z"/><path class="cls-3" d="M978.2,436.5a6.49,6.49,0,0,1-1.41-2.33,20.35,20.35,0,0,1-.93-4.07c-.22-1.61-.5-3.21-.84-4.79a14.23,14.23,0,0,0-1.64-4.29,8.79,8.79,0,0,0-3.07-3.08,9.94,9.94,0,0,0-5.15-1.17,16,16,0,0,0-2,.15c-.77.09-1.55.22-2.34.37s-1.55.32-2.26.51a12,12,0,0,0-1.8.62v-6.69c1.61-.47,3.25-.88,4.9-1.25a25.7,25.7,0,0,1,5.6-.56,15,15,0,0,1,5.62,1,12.73,12.73,0,0,1,4.24,2.73,13,13,0,0,1,2.85,4.18,19.59,19.59,0,0,1,1.44,5.35c.22,1.75.46,3.43.74,5a26,26,0,0,0,1.06,4.24,9.1,9.1,0,0,0,1.64,3,3.23,3.23,0,0,0,2.51,1.1h3.81a4,4,0,0,1,2.22.5,1.85,1.85,0,0,1,.73,1.68v2.83a3,3,0,0,1-.22,1.25,1.66,1.66,0,0,1-.64.72,2.55,2.55,0,0,1-.94.32,7,7,0,0,1-1.15.09h-26a10.39,10.39,0,0,0-4.09.8,9.73,9.73,0,0,0-3.34,2.31,11,11,0,0,0-2.27,3.74,13.76,13.76,0,0,0-.85,5,13.29,13.29,0,0,0,.76,4.35,10.9,10.9,0,0,0,2.38,3.89,12.1,12.1,0,0,0,4.17,2.81,15.48,15.48,0,0,0,6.15,1.09,29.79,29.79,0,0,0,4-.29c1.4-.19,2.75-.41,4-.65v6.72q-1.2.33-2.22.54c-.68.13-1.35.26-2,.37s-1.3.18-2,.22-1.33.06-2.07.06a24.81,24.81,0,0,1-6.46-.78,20.61,20.61,0,0,1-5.17-2.13,17.6,17.6,0,0,1-6.66-7,18.74,18.74,0,0,1-1.6-4.23,17.62,17.62,0,0,1-.53-4.26A21.4,21.4,0,0,1,949,447.8a18,18,0,0,1,4.39-6.25,18.58,18.58,0,0,1,6.29-3.78A21.87,21.87,0,0,1,967,436.5Z"/><path class="cls-3" d="M1028,390.89a7.28,7.28,0,0,1-2.12,1.77,5.43,5.43,0,0,1-2.72.74,6.18,6.18,0,0,1-4.68-1.81,6.64,6.64,0,0,1-1.72-4.8v-6H1020V387a3.05,3.05,0,0,0,1,2.48,3.52,3.52,0,0,0,2.32.8,3.31,3.31,0,0,0,3.28-3.28v-5.29h3V387a3.29,3.29,0,0,0,3.28,3.28,3.54,3.54,0,0,0,2.32-.8,3.05,3.05,0,0,0,1-2.48v-6.24h3.16v6.07a7.18,7.18,0,0,1-.49,2.71,6.18,6.18,0,0,1-1.35,2.09,6,6,0,0,1-2,1.33,6.59,6.59,0,0,1-2.53.48,5.28,5.28,0,0,1-2.7-.74A6.61,6.61,0,0,1,1028,390.89Z"/><path class="cls-3" d="M991.12,443.89a4,4,0,0,1-2.21-.5,1.84,1.84,0,0,1-.74-1.68v-2.83a3,3,0,0,1,.22-1.25,1.73,1.73,0,0,1,.64-.72,2.76,2.76,0,0,1,.94-.33,8.31,8.31,0,0,1,1.15-.08H1001a42.09,42.09,0,0,1,1.51-4.12,51.67,51.67,0,0,1,2.26-4.65V385h7.38v32.48a37.67,37.67,0,0,1,3.65-3.28,26,26,0,0,1,4.08-2.63,22.36,22.36,0,0,1,4.54-1.72,19.71,19.71,0,0,1,5-.61,19,19,0,0,1,8.06,1.56,14.64,14.64,0,0,1,5.49,4.3,17.88,17.88,0,0,1,3.16,6.44,30.37,30.37,0,0,1,1,8v7h8.41a4,4,0,0,1,2.21.5,1.86,1.86,0,0,1,.74,1.68v2.83a2.94,2.94,0,0,1-.23,1.25,1.71,1.71,0,0,1-.63.72,2.6,2.6,0,0,1-.95.32,6.76,6.76,0,0,1-1.14.09Zm48.6-13.58a21.31,21.31,0,0,0-.88-6.64,11.46,11.46,0,0,0-2.4-4.29,8.46,8.46,0,0,0-3.56-2.3,14,14,0,0,0-4.39-.67,13.61,13.61,0,0,0-4.88.88,17.72,17.72,0,0,0-4.39,2.4,24.09,24.09,0,0,0-3.8,3.5,32.09,32.09,0,0,0-3.13,4.23,35.18,35.18,0,0,0-2.42,4.57,29.91,29.91,0,0,0-1.6,4.51h31.45Z"/><path class="cls-3" d="M1077.75,434.17a12.79,12.79,0,0,0,4.72,1.86,29.82,29.82,0,0,0,5.43.47h2.84a2.37,2.37,0,0,0,2.08-1.15,6.42,6.42,0,0,0,.76-3.48V416.65H1101v17a13.16,13.16,0,0,0,4.81,2.18,26.11,26.11,0,0,0,6,.65h2.84a2.37,2.37,0,0,0,2.08-1.15,6.42,6.42,0,0,0,.76-3.48V412.18h7.38v21.21a13.26,13.26,0,0,0,4.59,2.33,23.59,23.59,0,0,0,6.53.78h.32a4,4,0,0,1,2.22.5,1.86,1.86,0,0,1,.74,1.68v2.83a2.94,2.94,0,0,1-.23,1.25,1.71,1.71,0,0,1-.63.72,2.6,2.6,0,0,1-.95.32,6.88,6.88,0,0,1-1.15.09h-.41a19.79,19.79,0,0,1-7.44-1.21,15.89,15.89,0,0,1-4.93-3.1,8.91,8.91,0,0,1-2.79,3.05,7.84,7.84,0,0,1-4.59,1.26h-4.43a23.93,23.93,0,0,1-6.46-.91,14.09,14.09,0,0,1-5.71-3.15,9.19,9.19,0,0,1-2.77,2.89,7.81,7.81,0,0,1-4.45,1.17h-4.42a23.77,23.77,0,0,1-3.14-.21,21.86,21.86,0,0,1-3.1-.64,17.34,17.34,0,0,1-2.93-1.12,13.34,13.34,0,0,1-2.64-1.73,8.85,8.85,0,0,1-2.71,2.63,7.82,7.82,0,0,1-4.26,1.07h-13.53a4,4,0,0,1-2.22-.5,1.87,1.87,0,0,1-.74-1.68v-2.83a2.94,2.94,0,0,1,.23-1.25,1.71,1.71,0,0,1,.63-.72,2.81,2.81,0,0,1,.95-.33,8.2,8.2,0,0,1,1.15-.08h12a2.34,2.34,0,0,0,2.07-1.15,6.33,6.33,0,0,0,.76-3.48V420.14h7.39Z"/><path class="cls-3" d="M1148.91,438.23a14.55,14.55,0,0,1-1.83,2.68,8.07,8.07,0,0,1-4.57,2.69,14.73,14.73,0,0,1-3,.29h-3.19a4,4,0,0,1-2.22-.5,1.87,1.87,0,0,1-.74-1.68v-2.83a2.94,2.94,0,0,1,.23-1.25,1.71,1.71,0,0,1,.63-.72,2.81,2.81,0,0,1,1-.33,8.2,8.2,0,0,1,1.15-.08h1.92a8.8,8.8,0,0,0,4.54-1.17,5.87,5.87,0,0,0,2.68-3.71,47.13,47.13,0,0,1,2.67-7.57,32.77,32.77,0,0,1,3.09-5.41,19,19,0,0,1,3.31-3.61,16.51,16.51,0,0,1,3.32-2.15,12.46,12.46,0,0,1,3.14-1.05,16,16,0,0,1,7.77.51,14.53,14.53,0,0,1,4,2.12,15.5,15.5,0,0,1,3.07,3.09,20,20,0,0,1,2.18,3.67,18.92,18.92,0,0,1,1.27,3.88,18.57,18.57,0,0,1,.41,3.73,15.51,15.51,0,0,1-.82,4.8,13.41,13.41,0,0,0,4.53,2.16,24.42,24.42,0,0,0,6.3.71h.33a4,4,0,0,1,2.21.5,1.86,1.86,0,0,1,.74,1.68v2.83a2.94,2.94,0,0,1-.23,1.25,1.71,1.71,0,0,1-.63.72,2.6,2.6,0,0,1-.95.32,6.76,6.76,0,0,1-1.14.09h-.41a23.55,23.55,0,0,1-4.58-.41,17.59,17.59,0,0,1-3.63-1.13,15.14,15.14,0,0,1-2.87-1.68,18.44,18.44,0,0,1-2.3-2.08,15.15,15.15,0,0,1-12.42,5.71,21.42,21.42,0,0,1-5-.56,22.75,22.75,0,0,1-4.18-1.41,18.85,18.85,0,0,1-3.32-1.95A16.3,16.3,0,0,1,1148.91,438.23Zm24.12-8.54a13.52,13.52,0,0,0-2.28-7.09,10.36,10.36,0,0,0-3-2.89,7.77,7.77,0,0,0-4.31-1.17,7.93,7.93,0,0,0-4.37,1.27,13.05,13.05,0,0,0-3.51,3.34,20.17,20.17,0,0,0-2.54,4.74,28.1,28.1,0,0,0-1.48,5.5,4.93,4.93,0,0,0,1.6,1.21,17.67,17.67,0,0,0,2.77,1.14,23.71,23.71,0,0,0,3.37.84,18.82,18.82,0,0,0,3.42.33,25.12,25.12,0,0,0,4.25-.33,9.49,9.49,0,0,0,3.26-1.12,5.41,5.41,0,0,0,2.07-2.2A7.76,7.76,0,0,0,1173,429.69Z"/><path class="cls-3" d="M1190,443.89a4,4,0,0,1-2.22-.5,1.87,1.87,0,0,1-.74-1.68v-2.83a2.94,2.94,0,0,1,.23-1.25,1.71,1.71,0,0,1,.63-.72,2.81,2.81,0,0,1,.95-.33,8.2,8.2,0,0,1,1.15-.08h11.15V385h7.38v58.94Z"/><path class="cls-3" d="M1222.49,385h7.38v58.94h-7.38Z"/><path class="cls-3" d="M1282.82,443.89a57.67,57.67,0,0,1-8.49-.54,27,27,0,0,1-6-1.52,13.07,13.07,0,0,1-4-2.35,10.18,10.18,0,0,1-2.34-3,11.64,11.64,0,0,1-1.11-3.53,26.23,26.23,0,0,1-.29-3.93c0-.52,0-1.12.07-1.81s.1-1.39.18-2.11.17-1.45.27-2.17.19-1.39.3-2l7,.65-.41,2.87a19.93,19.93,0,0,0-.21,2.88,12.65,12.65,0,0,0,.62,4.2,5.32,5.32,0,0,0,2.64,2.85A17.5,17.5,0,0,0,1277,436a84.48,84.48,0,0,0,10.46.51h23.17l0-.16a9.55,9.55,0,0,1-1.89-2.17,16.62,16.62,0,0,1-1.31-2.55,14.57,14.57,0,0,1-.78-2.58,12.58,12.58,0,0,1-.24-2.3,15.77,15.77,0,0,1,1.23-6.17,15.53,15.53,0,0,1,3.5-5.15,16.65,16.65,0,0,1,5.56-3.51,19.94,19.94,0,0,1,7.34-1.29,16.06,16.06,0,0,1,6.3,1.15,13.43,13.43,0,0,1,4.59,3.12,12.87,12.87,0,0,1,2.81,4.61,16.7,16.7,0,0,1,.95,5.64,19.56,19.56,0,0,1-.31,3.47,30.7,30.7,0,0,1-.76,3.14,28.41,28.41,0,0,1-1,2.68c-.35.81-.64,1.5-.89,2.07h10.54a4,4,0,0,1,2.22.5,1.86,1.86,0,0,1,.74,1.68v2.83a2.94,2.94,0,0,1-.23,1.25,1.71,1.71,0,0,1-.63.72,2.6,2.6,0,0,1-.95.32,6.88,6.88,0,0,1-1.15.09h-4.43q-4.83,0-8.79-.33a58.51,58.51,0,0,1-7.28-1q-1.56.25-4,.45c-1.6.14-3.35.26-5.25.35s-3.88.18-5.93.25-4,.12-6,.16-3.77.08-5.49.1-3.19.05-4.39.05Zm30.44-18a9.9,9.9,0,0,0,.94,4.37,10.07,10.07,0,0,0,2.59,3.34,11.66,11.66,0,0,0,3.83,2.15,14.17,14.17,0,0,0,4.7.76h2.58a17.69,17.69,0,0,0,2.11-4.12,20.85,20.85,0,0,0,.8-2.79,14.34,14.34,0,0,0,.33-3.09,10.24,10.24,0,0,0-.72-4,8.75,8.75,0,0,0-1.9-2.9,8.14,8.14,0,0,0-2.75-1.76,8.94,8.94,0,0,0-3.24-.59,11.4,11.4,0,0,0-3.35.51,9,9,0,0,0-3,1.56,7.89,7.89,0,0,0-2.13,2.68A8.51,8.51,0,0,0,1313.26,425.88Zm4.59-28.42a4.29,4.29,0,0,1,.35-1.71,4.74,4.74,0,0,1,.92-1.39,4.17,4.17,0,0,1,1.38-.94,4.3,4.3,0,0,1,3.4,0,4.48,4.48,0,0,1,1.4.94,4.61,4.61,0,0,1,.94,1.39,4.31,4.31,0,0,1-.94,4.78,4.82,4.82,0,0,1-1.4.93,4.31,4.31,0,0,1-6.05-4Z"/><path class="cls-3" d="M1388.89,443.89q-4.85,0-8.8-.33a58.79,58.79,0,0,1-7.28-1c-1.56.28-3.24.49-5,.66s-3.67.3-5.58.41-3.86.18-5.85.22-3.93.07-5.84.07h-4.27a4,4,0,0,1-2.21-.5,1.87,1.87,0,0,1-.74-1.68v-2.83a2.94,2.94,0,0,1,.23-1.25,1.71,1.71,0,0,1,.63-.72,2.81,2.81,0,0,1,.95-.33,8,8,0,0,1,1.14-.08h11.45l0-.16a9.55,9.55,0,0,1-1.89-2.17,15.77,15.77,0,0,1-1.31-2.55,13.07,13.07,0,0,1-.78-2.58,11.83,11.83,0,0,1-.25-2.3,15.77,15.77,0,0,1,1.23-6.17,15.41,15.41,0,0,1,3.51-5.15,16.65,16.65,0,0,1,5.56-3.51,19.87,19.87,0,0,1,7.34-1.29,16,16,0,0,1,6.29,1.15,13.57,13.57,0,0,1,4.6,3.12,13,13,0,0,1,2.81,4.61,16.69,16.69,0,0,1,.94,5.64,18.66,18.66,0,0,1-.31,3.47,26.22,26.22,0,0,1-.76,3.14,28.41,28.41,0,0,1-1,2.68c-.34.81-.63,1.5-.88,2.07h10.54a4.05,4.05,0,0,1,2.22.5,1.85,1.85,0,0,1,.73,1.68v2.83a3,3,0,0,1-.22,1.25,1.66,1.66,0,0,1-.64.72,2.55,2.55,0,0,1-.94.32,7,7,0,0,1-1.15.09Zm-29.74-46.43a4.29,4.29,0,0,1,.35-1.71,4.77,4.77,0,0,1,.93-1.39,4.13,4.13,0,0,1,1.37-.94,4.3,4.3,0,0,1,3.4,0,4.37,4.37,0,0,1,1.4.94,4.43,4.43,0,0,1,.94,1.39,4.33,4.33,0,0,1,0,3.41,4.13,4.13,0,0,1-.94,1.37,4.69,4.69,0,0,1-1.4.93,4.23,4.23,0,0,1-1.7.34,4.29,4.29,0,0,1-4.35-4.34Zm1.19,28.42a9.9,9.9,0,0,0,1,4.37,10.17,10.17,0,0,0,2.58,3.34,11.61,11.61,0,0,0,3.84,2.15,14.11,14.11,0,0,0,4.69.76H1375a18,18,0,0,0,1.06-1.76,17.81,17.81,0,0,0,1-2.36,22.45,22.45,0,0,0,.8-2.79,14.34,14.34,0,0,0,.33-3.09,10.24,10.24,0,0,0-.72-4,8.77,8.77,0,0,0-1.91-2.9,8,8,0,0,0-2.75-1.76,8.94,8.94,0,0,0-3.24-.59,11.33,11.33,0,0,0-3.34.51,8.8,8.8,0,0,0-3,1.56,7.91,7.91,0,0,0-2.14,2.68A8.64,8.64,0,0,0,1360.34,425.88Zm10.5-28.42a4.29,4.29,0,0,1,.35-1.71,4.58,4.58,0,0,1,.93-1.39,4.13,4.13,0,0,1,1.37-.94,4.3,4.3,0,0,1,3.4,0,4.37,4.37,0,0,1,1.4.94,4.61,4.61,0,0,1,.94,1.39,4.31,4.31,0,0,1-.94,4.78,4.69,4.69,0,0,1-1.4.93,4.31,4.31,0,0,1-6.05-4Z"/><path class="cls-3" d="M1434.34,390.89a7.28,7.28,0,0,1-2.12,1.77,5.43,5.43,0,0,1-2.72.74,6.18,6.18,0,0,1-4.68-1.81,6.64,6.64,0,0,1-1.72-4.8v-6h3.16V387a3.05,3.05,0,0,0,1,2.48,3.52,3.52,0,0,0,2.32.8,3.31,3.31,0,0,0,3.28-3.28v-5.29h3V387a3.31,3.31,0,0,0,3.28,3.28,3.52,3.52,0,0,0,2.32-.8,3.05,3.05,0,0,0,1-2.48v-6.24h3.16v6.07a7.18,7.18,0,0,1-.49,2.71,6.18,6.18,0,0,1-1.35,2.09,5.92,5.92,0,0,1-2,1.33,6.59,6.59,0,0,1-2.53.48,5.3,5.3,0,0,1-2.7-.74A6.72,6.72,0,0,1,1434.34,390.89Z"/><path class="cls-3" d="M1415.55,434.17a12.84,12.84,0,0,0,4.73,1.86,29.82,29.82,0,0,0,5.43.47h2.84a2.36,2.36,0,0,0,2.07-1.15,6.33,6.33,0,0,0,.76-3.48V416.65h7.39v17a13.16,13.16,0,0,0,4.81,2.18,26,26,0,0,0,6,.65h2.84a2.36,2.36,0,0,0,2.07-1.15,6.33,6.33,0,0,0,.76-3.48V412.18h7.39v21.21a13.08,13.08,0,0,0,4.59,2.33,23.51,23.51,0,0,0,6.52.78h.33a4,4,0,0,1,2.21.5,1.83,1.83,0,0,1,.74,1.68v2.83a3,3,0,0,1-.22,1.25,1.73,1.73,0,0,1-.64.72,2.55,2.55,0,0,1-.94.32,7,7,0,0,1-1.15.09h-.41a19.84,19.84,0,0,1-7.45-1.21,16,16,0,0,1-4.93-3.1,8.91,8.91,0,0,1-2.79,3.05,7.82,7.82,0,0,1-4.59,1.26h-4.42A23.88,23.88,0,0,1,1443,443a14.13,14.13,0,0,1-5.72-3.15,9,9,0,0,1-2.77,2.89,7.8,7.8,0,0,1-4.44,1.17h-4.43a23.89,23.89,0,0,1-3.14-.21,21.44,21.44,0,0,1-3.09-.64,17,17,0,0,1-2.93-1.12,13.41,13.41,0,0,1-2.65-1.73,8.81,8.81,0,0,1-2.7,2.63,7.82,7.82,0,0,1-4.26,1.07h-13.54a4,4,0,0,1-2.21-.5,1.84,1.84,0,0,1-.74-1.68v-2.83a3,3,0,0,1,.22-1.25,1.73,1.73,0,0,1,.64-.72,2.76,2.76,0,0,1,.94-.33,8.31,8.31,0,0,1,1.15-.08h12a2.36,2.36,0,0,0,2.07-1.15,6.33,6.33,0,0,0,.76-3.48V420.14h7.38Z"/><path class="cls-3" d="M1474.08,443.89a4,4,0,0,1-2.21-.5,1.84,1.84,0,0,1-.74-1.68v-2.83a3,3,0,0,1,.22-1.25,1.66,1.66,0,0,1,.64-.72,2.76,2.76,0,0,1,.94-.33,8.31,8.31,0,0,1,1.15-.08h11.16V385h7.38v58.94Z"/><path class="cls-3" d="M1506.56,385H1514v58.94h-7.39Z"/><path class="cls-3" d="M1566.9,443.89a57.67,57.67,0,0,1-8.49-.54,26.7,26.7,0,0,1-6-1.52,13.13,13.13,0,0,1-4-2.35,10.35,10.35,0,0,1-2.34-3,11.92,11.92,0,0,1-1.1-3.53,25,25,0,0,1-.29-3.93c0-.52,0-1.12.06-1.81s.1-1.39.18-2.11.17-1.45.27-2.17.2-1.39.31-2l7,.65-.41,2.87a19.92,19.92,0,0,0-.2,2.88,12.67,12.67,0,0,0,.61,4.2,5.31,5.31,0,0,0,2.65,2.85A17.43,17.43,0,0,0,1561,436a84.59,84.59,0,0,0,10.46.51h33.14V412.18H1612v31.71Zm3.53-46.43a4.28,4.28,0,0,1,.34-1.71,4.77,4.77,0,0,1,.93-1.39,4.13,4.13,0,0,1,1.37-.94,4.08,4.08,0,0,1,1.7-.35,4.12,4.12,0,0,1,1.71.35,4.42,4.42,0,0,1,2.33,2.33,4.31,4.31,0,0,1-.94,4.78,4.77,4.77,0,0,1-1.39.93,4.28,4.28,0,0,1-1.71.34,4.27,4.27,0,0,1-4.34-4.34Zm11.69,0a4.28,4.28,0,0,1,.34-1.71,4.77,4.77,0,0,1,.93-1.39,4.13,4.13,0,0,1,1.37-.94,4.08,4.08,0,0,1,1.7-.35,4.16,4.16,0,0,1,1.71.35,4.42,4.42,0,0,1,2.33,2.33,4.31,4.31,0,0,1-.94,4.78,4.77,4.77,0,0,1-1.39.93,4.31,4.31,0,0,1-1.71.34,4.27,4.27,0,0,1-4.34-4.34Z"/><path class="cls-3" d="M1617.8,454a25.75,25.75,0,0,0,7-1.75,9.08,9.08,0,0,0,5.72-7.28,33.45,33.45,0,0,0,.41-5.58V412.18h7.39V436.5H1648a4,4,0,0,1,2.21.5,1.86,1.86,0,0,1,.74,1.68v2.83a2.94,2.94,0,0,1-.23,1.25,1.71,1.71,0,0,1-.63.72,2.6,2.6,0,0,1-1,.32,6.76,6.76,0,0,1-1.14.09h-10a24.53,24.53,0,0,1-2.07,7.28,15.16,15.16,0,0,1-3.86,5,17.54,17.54,0,0,1-5.74,3.14,43.18,43.18,0,0,1-7.69,1.74Z"/><path class="cls-3" d="M1670.18,434.17a12.79,12.79,0,0,0,4.72,1.86,29.82,29.82,0,0,0,5.43.47h2.84a2.37,2.37,0,0,0,2.08-1.15,6.42,6.42,0,0,0,.76-3.48V416.65h7.38v17a13.16,13.16,0,0,0,4.81,2.18,26.17,26.17,0,0,0,6,.65H1707a2.37,2.37,0,0,0,2.08-1.15,6.42,6.42,0,0,0,.76-3.48V412.18h7.38v21.21a13.26,13.26,0,0,0,4.59,2.33,23.59,23.59,0,0,0,6.53.78h.32a4,4,0,0,1,2.22.5,1.86,1.86,0,0,1,.74,1.68v2.83a2.94,2.94,0,0,1-.23,1.25,1.71,1.71,0,0,1-.63.72,2.6,2.6,0,0,1-1,.32,6.88,6.88,0,0,1-1.15.09h-.41a19.79,19.79,0,0,1-7.44-1.21,15.89,15.89,0,0,1-4.93-3.1,8.91,8.91,0,0,1-2.79,3.05,7.87,7.87,0,0,1-4.59,1.26h-4.43a23.93,23.93,0,0,1-6.46-.91,14.09,14.09,0,0,1-5.71-3.15,9.19,9.19,0,0,1-2.77,2.89,7.81,7.81,0,0,1-4.45,1.17h-4.43a23.74,23.74,0,0,1-3.13-.21,21.86,21.86,0,0,1-3.1-.64,17.34,17.34,0,0,1-2.93-1.12,13.34,13.34,0,0,1-2.64-1.73,8.85,8.85,0,0,1-2.71,2.63,7.82,7.82,0,0,1-4.26,1.07H1648a4,4,0,0,1-2.22-.5,1.87,1.87,0,0,1-.74-1.68v-2.83a2.94,2.94,0,0,1,.23-1.25,1.71,1.71,0,0,1,.63-.72,2.81,2.81,0,0,1,1-.33,8.2,8.2,0,0,1,1.15-.08h12a2.34,2.34,0,0,0,2.07-1.15,6.33,6.33,0,0,0,.76-3.48V420.14h7.39Z"/><path class="cls-3" d="M1728.71,443.89a4,4,0,0,1-2.22-.5,1.87,1.87,0,0,1-.74-1.68v-2.83a2.94,2.94,0,0,1,.23-1.25,1.71,1.71,0,0,1,.63-.72,2.81,2.81,0,0,1,1-.33,8.09,8.09,0,0,1,1.15-.08h12.34a26.19,26.19,0,0,0,4.78-.35,8.38,8.38,0,0,0,2.93-1,3.72,3.72,0,0,0,1.48-1.64,5.64,5.64,0,0,0,.41-2.2,8.08,8.08,0,0,0-1.13-4,17.86,17.86,0,0,0-3.18-4,37.45,37.45,0,0,0-4.88-3.94q-2.84-2-6.19-3.88l16.36-28.13,5.38,3.77L1744.5,413a41.94,41.94,0,0,1,5.21,3.65,26,26,0,0,1,4.08,4.21,19,19,0,0,1,2.64,4.69,14.32,14.32,0,0,1,1,5.17,15.48,15.48,0,0,1-.87,5.31,10.42,10.42,0,0,1-2.7,4.14,12.44,12.44,0,0,1-4.76,2.71,22.67,22.67,0,0,1-7.06,1Z"/><path class="cls-4" d="M933.91,533.33h-5.07l-.75-29.64h6.6Zm-5.82,5h6.6v6.6h-6.6Z"/><path class="cls-4" d="M958.45,544.89a40.87,40.87,0,0,1-6-.38,19.15,19.15,0,0,1-4.23-1.06,9.43,9.43,0,0,1-2.8-1.66,7.26,7.26,0,0,1-1.64-2.12,8.24,8.24,0,0,1-.77-2.48,17.55,17.55,0,0,1-.21-2.76c0-.37,0-.79,0-1.27s.07-1,.13-1.48.12-1,.18-1.53.14-1,.22-1.4l4.9.46c-.1.68-.2,1.35-.29,2a13.72,13.72,0,0,0-.14,2,8.87,8.87,0,0,0,.43,3,3.73,3.73,0,0,0,1.86,2,12.21,12.21,0,0,0,4.16,1.14,58.92,58.92,0,0,0,7.34.36H981.1a1.66,1.66,0,0,0,1.46-.81,4.52,4.52,0,0,0,.53-2.45v-33h5.19v33.7a8.64,8.64,0,0,0,3.34,1.89,16.32,16.32,0,0,0,4.84.62h.23a2.8,2.8,0,0,1,1.55.35,1.3,1.3,0,0,1,.52,1.18v2a2,2,0,0,1-.16.88,1.16,1.16,0,0,1-.44.51,2,2,0,0,1-.67.23,5,5,0,0,1-.8.06h-.29a17.1,17.1,0,0,1-3-.25A11.66,11.66,0,0,1,991,544a10.59,10.59,0,0,1-2-1,12.43,12.43,0,0,1-1.58-1.28,7.27,7.27,0,0,1-.82,1.25,4.89,4.89,0,0,1-1.13,1,6,6,0,0,1-1.49.71,6.17,6.17,0,0,1-1.85.26Zm13.38-24.55-.83-.13a8.57,8.57,0,0,0-1.19-.07,4.6,4.6,0,0,0-2.41.57,2.11,2.11,0,0,0-.93,1.94,3,3,0,0,0,.3,1.28,3.35,3.35,0,0,0,.92,1.16,4.82,4.82,0,0,0,1.56.85,6.36,6.36,0,0,0,2.2.34h1v2.85H961.89v-2.85h3.89a5.9,5.9,0,0,1-.68-.58,4.59,4.59,0,0,1-.74-.94,5.57,5.57,0,0,1-.57-1.28,5,5,0,0,1-.23-1.58,4.46,4.46,0,0,1,.36-1.75,4.07,4.07,0,0,1,1.11-1.49,5.51,5.51,0,0,1,1.87-1,8.19,8.19,0,0,1,2.68-.39l1.27,0a10,10,0,0,1,1.44.17Z"/><path class="cls-4" d="M1005.59,540.91a9.87,9.87,0,0,1-1.28,1.89,6,6,0,0,1-1.47,1.22,5.66,5.66,0,0,1-1.75.66,9.85,9.85,0,0,1-2.13.21h-2.24a2.84,2.84,0,0,1-1.56-.35,1.3,1.3,0,0,1-.52-1.18v-2a2.16,2.16,0,0,1,.16-.88,1.1,1.1,0,0,1,.45-.5,1.72,1.72,0,0,1,.66-.23,5.13,5.13,0,0,1,.81-.06h1.35a6.12,6.12,0,0,0,3.18-.82,4.17,4.17,0,0,0,1.89-2.61A34.14,34.14,0,0,1,1005,531a23,23,0,0,1,2.18-3.81,13.44,13.44,0,0,1,2.32-2.53,11.22,11.22,0,0,1,2.33-1.51,8.77,8.77,0,0,1,2.2-.74,11.76,11.76,0,0,1,2-.19,10.77,10.77,0,0,1,3.51.55,10.17,10.17,0,0,1,2.83,1.49,11.1,11.1,0,0,1,2.16,2.17A14.18,14.18,0,0,1,1026,529a13.17,13.17,0,0,1,1.19,5.34,10.8,10.8,0,0,1-.29,2.38,11.74,11.74,0,0,1-.87,2.45,10.76,10.76,0,0,1-1.48,2.29,10,10,0,0,1-2.15,1.93,10.18,10.18,0,0,1-2.82,1.32,11.88,11.88,0,0,1-3.54.49,15.52,15.52,0,0,1-3.5-.38,15.82,15.82,0,0,1-2.94-1,12.86,12.86,0,0,1-2.34-1.37A11.1,11.1,0,0,1,1005.59,540.91Zm16.94-6a8.84,8.84,0,0,0-.39-2.42,9,9,0,0,0-1.21-2.57,7.36,7.36,0,0,0-2.09-2,5.48,5.48,0,0,0-3-.82,5.61,5.61,0,0,0-3.07.89,9.27,9.27,0,0,0-2.46,2.35,13.91,13.91,0,0,0-1.79,3.33,19.15,19.15,0,0,0-1,3.86,3.35,3.35,0,0,0,1.12.85,11.93,11.93,0,0,0,1.95.81,19.85,19.85,0,0,0,2.36.59,13.71,13.71,0,0,0,2.41.23,18,18,0,0,0,3-.23,6.94,6.94,0,0,0,2.29-.79,3.74,3.74,0,0,0,1.45-1.55A5.37,5.37,0,0,0,1022.53,534.92Z"/><path class="cls-4" d="M1035.26,539.7H1048v-25h5.19v25h7.7a1.66,1.66,0,0,0,1.45-.81,4.52,4.52,0,0,0,.53-2.45v-33h5.19v33.73a8.92,8.92,0,0,0,3.32,1.86,16.13,16.13,0,0,0,4.8.62h.23a2.86,2.86,0,0,1,1.56.35,1.32,1.32,0,0,1,.51,1.18v2a2.14,2.14,0,0,1-.15.88,1.25,1.25,0,0,1-.45.51,1.91,1.91,0,0,1-.66.23,5.13,5.13,0,0,1-.81.06h-.29a16.92,16.92,0,0,1-3-.25,12.32,12.32,0,0,1-2.42-.68,9.6,9.6,0,0,1-1.94-1,11.17,11.17,0,0,1-1.58-1.28,6.42,6.42,0,0,1-2,2.27,5.41,5.41,0,0,1-3.31,1h-26.69Z"/><path class="cls-4" d="M1081.85,522.3c1.13-.33,2.28-.62,3.44-.88a18,18,0,0,1,3.93-.39,10.44,10.44,0,0,1,3.93.69,8.74,8.74,0,0,1,2.94,1.93,9.81,9.81,0,0,1,2,3,14.56,14.56,0,0,1,1.08,3.73c.19,1.23.38,2.41.58,3.54a18.85,18.85,0,0,0,.73,3,6.15,6.15,0,0,0,1.12,2.06,2.23,2.23,0,0,0,1.75.76v5.19h-26.88a2.86,2.86,0,0,1-1.56-.35,1.32,1.32,0,0,1-.52-1.18v-2a2.16,2.16,0,0,1,.16-.88,1.16,1.16,0,0,1,.45-.5,1.72,1.72,0,0,1,.66-.23,5.13,5.13,0,0,1,.81-.06h20.48a4.56,4.56,0,0,1-1-1.64,13.83,13.83,0,0,1-.65-2.85c-.15-1.14-.35-2.26-.59-3.38a10.17,10.17,0,0,0-1.15-3,6.15,6.15,0,0,0-2.16-2.17,7.08,7.08,0,0,0-3.62-.82,13.43,13.43,0,0,0-1.44.1c-.54.07-1.09.16-1.64.26s-1.09.23-1.59.36a8.25,8.25,0,0,0-1.26.44Z"/><path class="cls-4" d="M1143.35,503.49v41.4h-32.81V539.7h12.76v-25h5.19v25h9.68V503.49Zm-13.6.05-.69-.11a7.84,7.84,0,0,0-1-.06,4,4,0,0,0-2,.49,1.77,1.77,0,0,0-.81,1.64,2.6,2.6,0,0,0,.26,1.1,2.87,2.87,0,0,0,.78,1,4,4,0,0,0,1.31.7,5.62,5.62,0,0,0,1.89.28h.83V511h-8.93v-2.42h3.29a3.88,3.88,0,0,1-.58-.49,4.3,4.3,0,0,1-.6-.79,4.86,4.86,0,0,1-.49-1.08,4.17,4.17,0,0,1-.21-1.36,3.61,3.61,0,0,1,1.24-2.71,5.19,5.19,0,0,1,1.6-.88,7,7,0,0,1,2.26-.33l1.05,0a9.78,9.78,0,0,1,1.23.15Z"/><path class="cls-4" d="M1171,553.93h12.47v2.34H1171Zm0,5.39h12.47v2.33H1171Z"/><path class="cls-4" d="M1187.29,535.67a11.62,11.62,0,0,0,.13,1.93,2.32,2.32,0,0,0,.54,1.24,2.47,2.47,0,0,0,1.17.66,8.13,8.13,0,0,0,2,.2h2a2.86,2.86,0,0,1,1.56.35,1.32,1.32,0,0,1,.52,1.18v2a2.13,2.13,0,0,1-.16.88,1.25,1.25,0,0,1-.45.51,1.91,1.91,0,0,1-.66.23,5.13,5.13,0,0,1-.81.06h-3.31a12.88,12.88,0,0,1-3.28-.36,7.68,7.68,0,0,1-2.23-.95,4.6,4.6,0,0,1-1.36-1.39,6.64,6.64,0,0,1-.71-1.65,16.89,16.89,0,0,1-4.06,1.84,14.49,14.49,0,0,1-3.92.55,13.16,13.16,0,0,1-3.48-.49,9.83,9.83,0,0,1-3.19-1.54,8.27,8.27,0,0,1-2.33-2.7,8.09,8.09,0,0,1-.91-4,8.18,8.18,0,0,1,.9-3.87,11.33,11.33,0,0,1,2.34-3.07,16,16,0,0,1,3.33-2.36,34.31,34.31,0,0,1,3.85-1.77c1.31-.51,2.61-.95,3.87-1.31s2.42-.69,3.46-1v-3.06h5.19Zm-5.19-10.14a44.16,44.16,0,0,0-5.24,1.29,19.82,19.82,0,0,0-4.07,1.75,8.68,8.68,0,0,0-2.63,2.23,4.48,4.48,0,0,0-.94,2.79,4,4,0,0,0,.53,2.13,4.23,4.23,0,0,0,1.4,1.39,6.69,6.69,0,0,0,1.93.75,10.43,10.43,0,0,0,2.16.23,13.09,13.09,0,0,0,3.76-.52,11.91,11.91,0,0,0,3.1-1.44Zm-9.25-14.7a2.82,2.82,0,0,1,.25-1.19,3.16,3.16,0,0,1,.65-1,3,3,0,0,1,3.35-.66,3.08,3.08,0,0,1,1.64,1.64,3,3,0,0,1-.66,3.35,3.16,3.16,0,0,1-1,.65,2.82,2.82,0,0,1-1.19.25,3,3,0,0,1-2.18-.88A3,3,0,0,1,1172.85,510.83Zm8.21,0a2.82,2.82,0,0,1,.25-1.19,3.16,3.16,0,0,1,.65-1,3,3,0,0,1,3.35-.66,3.08,3.08,0,0,1,1.64,1.64,3,3,0,0,1-.66,3.35,3.16,3.16,0,0,1-1,.65,2.82,2.82,0,0,1-1.19.25,3,3,0,0,1-2.18-.88A3,3,0,0,1,1181.06,510.83Z"/><path class="cls-4" d="M1206.1,537.91a9.05,9.05,0,0,0,3.07,1.34,17.27,17.27,0,0,0,4.22.45h.23a2.8,2.8,0,0,1,1.55.35,1.3,1.3,0,0,1,.52,1.18v2a2,2,0,0,1-.16.88,1.12,1.12,0,0,1-.45.51,1.91,1.91,0,0,1-.66.23,5.1,5.1,0,0,1-.8.06h-.29a13.79,13.79,0,0,1-5-.78,12.12,12.12,0,0,1-3.39-2,6.23,6.23,0,0,1-1.92,1.94,5.41,5.41,0,0,1-3,.8h-6.89a2.8,2.8,0,0,1-1.55-.35,1.3,1.3,0,0,1-.52-1.18v-2a2,2,0,0,1,.16-.88,1.08,1.08,0,0,1,.44-.5,1.84,1.84,0,0,1,.67-.23,5.1,5.1,0,0,1,.8-.06h5.82a1.66,1.66,0,0,0,1.46-.81,4.52,4.52,0,0,0,.53-2.45V522.65h5.19Zm-5.71,15.62a2.9,2.9,0,0,1,.25-1.2,3.29,3.29,0,0,1,.65-1,2.84,2.84,0,0,1,1-.66,3,3,0,0,1,1.2-.24,3,3,0,0,1,1.19.24,3,3,0,0,1,1,.66,3.13,3.13,0,0,1,.66,1,2.9,2.9,0,0,1,.25,1.2,2.82,2.82,0,0,1-.25,1.19,2.88,2.88,0,0,1-.66,1,3.35,3.35,0,0,1-1,.65,3,3,0,0,1-4.25-2.81Z"/><path class="cls-4" d="M1243.61,544.89q-3.4,0-6.18-.23a42.3,42.3,0,0,1-5.12-.73c-1.09.2-2.27.35-3.54.47s-2.57.21-3.92.28-2.71.13-4.1.16-2.76,0-4.11,0h-3a2.8,2.8,0,0,1-1.55-.35,1.3,1.3,0,0,1-.52-1.18v-2a2,2,0,0,1,.16-.88,1,1,0,0,1,.45-.5,1.72,1.72,0,0,1,.66-.23,5.1,5.1,0,0,1,.8-.06h8l0-.12a6.6,6.6,0,0,1-1.32-1.52,10.82,10.82,0,0,1-.92-1.79,9.33,9.33,0,0,1-.55-1.81,8.27,8.27,0,0,1-.17-1.62,11,11,0,0,1,3.32-8,11.69,11.69,0,0,1,3.91-2.46,13.81,13.81,0,0,1,5.15-.91,11.29,11.29,0,0,1,4.43.81,9.47,9.47,0,0,1,3.22,2.19,9.1,9.1,0,0,1,2,3.24,11.75,11.75,0,0,1,.66,4,12.7,12.7,0,0,1-.22,2.43,19.47,19.47,0,0,1-1.21,4.1c-.24.56-.44,1-.62,1.45h7.41a2.8,2.8,0,0,1,1.55.35,1.3,1.3,0,0,1,.52,1.18v2a2,2,0,0,1-.16.88,1.16,1.16,0,0,1-.44.51,2,2,0,0,1-.67.23,5,5,0,0,1-.8.06Zm-20.89-32.62a3,3,0,0,1,.24-1.19,3.35,3.35,0,0,1,.65-1,2.88,2.88,0,0,1,1-.66,2.82,2.82,0,0,1,1.19-.25,2.87,2.87,0,0,1,1.2.25,3.13,3.13,0,0,1,1,.66,3,3,0,0,1,.66,1,3,3,0,0,1,0,2.39,2.84,2.84,0,0,1-.66,1,3.29,3.29,0,0,1-1,.65,2.87,2.87,0,0,1-1.2.25,3,3,0,0,1-3-3.06Zm.83,20a6.93,6.93,0,0,0,2.48,5.41,8.3,8.3,0,0,0,2.7,1.52,10.09,10.09,0,0,0,3.29.53h1.82a12.94,12.94,0,0,0,.75-1.24,12.18,12.18,0,0,0,.73-1.66,14.47,14.47,0,0,0,.56-1.95,9.78,9.78,0,0,0,.24-2.18,7.12,7.12,0,0,0-.51-2.79,5.85,5.85,0,0,0-1.34-2,5.56,5.56,0,0,0-1.93-1.24,6.3,6.3,0,0,0-2.27-.42,7.94,7.94,0,0,0-2.35.36,6.22,6.22,0,0,0-2.09,1.09,5.43,5.43,0,0,0-1.5,1.89A6,6,0,0,0,1223.55,532.24Zm7.38-20a3,3,0,0,1,.24-1.19,3.35,3.35,0,0,1,.65-1,2.88,2.88,0,0,1,1-.66,2.82,2.82,0,0,1,1.19-.25,2.87,2.87,0,0,1,1.2.25,3.13,3.13,0,0,1,1,.66,3,3,0,0,1,.66,1,3,3,0,0,1,0,2.39,2.84,2.84,0,0,1-.66,1,3.29,3.29,0,0,1-1,.65,2.87,2.87,0,0,1-1.2.25,3,3,0,0,1-3-3.06Z"/><path class="cls-4" d="M1246.72,544.89a2.86,2.86,0,0,1-1.56-.35,1.32,1.32,0,0,1-.52-1.18v-2a2.16,2.16,0,0,1,.16-.88,1.16,1.16,0,0,1,.45-.5,1.72,1.72,0,0,1,.66-.23,5.13,5.13,0,0,1,.81-.06h8.67a19.14,19.14,0,0,0,3.35-.24,6.14,6.14,0,0,0,2.06-.72,2.6,2.6,0,0,0,1-1.16,3.92,3.92,0,0,0,.29-1.54,5.63,5.63,0,0,0-.79-2.81,12.75,12.75,0,0,0-2.24-2.79,26.66,26.66,0,0,0-3.42-2.77q-2-1.36-4.35-2.72l11.49-19.76,3.77,2.65-8.78,15.38a29.09,29.09,0,0,1,3.66,2.57,17.62,17.62,0,0,1,2.86,3,13.08,13.08,0,0,1,1.86,3.3,10.07,10.07,0,0,1,.66,3.63,11.1,11.1,0,0,1-.6,3.73,7.43,7.43,0,0,1-1.9,2.91,9,9,0,0,1-3.34,1.9,16,16,0,0,1-5,.68Z"/><path class="cls-4" d="M1297.45,544.89a11.66,11.66,0,0,1-4.45-.8,9.42,9.42,0,0,1-3.29-2.16,9.1,9.1,0,0,1-2-3.21,11.07,11.07,0,0,1-.69-3.92,16.3,16.3,0,0,1,1-6.08,14.06,14.06,0,0,1,2.7-4.39,11.17,11.17,0,0,1,3.61-2.66,9.2,9.2,0,0,1,3.82-.9,9.37,9.37,0,0,1,3.87.87,10.1,10.1,0,0,1,3.5,2.6,13.67,13.67,0,0,1,2.53,4.38,18.07,18.07,0,0,1,1,6.18,10.25,10.25,0,0,1-.72,3.79,9.74,9.74,0,0,1-5.24,5.46,10.1,10.1,0,0,1-4.18.84Zm-5.85-11a5.41,5.41,0,0,0,1.74,4.4,7,7,0,0,0,4.63,1.45h.57a6,6,0,0,0,2.47-.46,4.91,4.91,0,0,0,1.75-1.27,5.17,5.17,0,0,0,1.06-1.87,7.25,7.25,0,0,0,.34-2.25,11.18,11.18,0,0,0-.56-3.69,8.59,8.59,0,0,0-1.45-2.65,6.14,6.14,0,0,0-2-1.59,4.6,4.6,0,0,0-2.08-.54,5.7,5.7,0,0,0-2.37.52,6,6,0,0,0-2.09,1.57,8,8,0,0,0-1.49,2.65A11.39,11.39,0,0,0,1291.6,533.85Z"/><path class="cls-4" d="M1332.31,530.31c-.5-.1-1.06-.18-1.69-.26a18.11,18.11,0,0,0-2.26-.12,8.16,8.16,0,0,0-2.09.28,5.66,5.66,0,0,0-1.81.83,4.26,4.26,0,0,0-1.27,1.43,4.08,4.08,0,0,0-.48,2,4.4,4.4,0,0,0,.81,2.66,6.1,6.1,0,0,0,2.09,1.8,10.11,10.11,0,0,0,2.88,1,16.49,16.49,0,0,0,3.18.32h1.67v4.61h-17.08v-4.61h5.82a8.86,8.86,0,0,1-1.38-1.1,8.19,8.19,0,0,1-2.12-3.37,6.78,6.78,0,0,1-.33-2.13,7.42,7.42,0,0,1,.88-3.72,8,8,0,0,1,2.26-2.56,9.45,9.45,0,0,1,3.08-1.48,12.26,12.26,0,0,1,3.34-.48c.89,0,1.7,0,2.44.07a24.31,24.31,0,0,1,2.43.3Z"/><path class="cls-4" d="M1341.33,503.52h5.18v30.91a20.51,20.51,0,0,0,.13,2.58,4.55,4.55,0,0,0,.46,1.61,2,2,0,0,0,.89.84,3.77,3.77,0,0,0,1.46.24h1.93a2.86,2.86,0,0,1,1.56.35,1.32,1.32,0,0,1,.51,1.18v2a2,2,0,0,1-.16.88,1.16,1.16,0,0,1-.44.51,1.91,1.91,0,0,1-.66.23,5.13,5.13,0,0,1-.81.06h-2.71a7.83,7.83,0,0,1-3.28-.64,6.17,6.17,0,0,1-2.29-1.76,7.21,7.21,0,0,1-1.34-2.65,12,12,0,0,1-.43-3.31Z"/><path class="cls-4" d="M1364.37,537.91a9.23,9.23,0,0,0,3.07,1.34,17.32,17.32,0,0,0,4.22.45h.23a2.86,2.86,0,0,1,1.56.35,1.32,1.32,0,0,1,.51,1.18v2a2.14,2.14,0,0,1-.15.88,1.25,1.25,0,0,1-.45.51,1.91,1.91,0,0,1-.66.23,5.13,5.13,0,0,1-.81.06h-.29a13.7,13.7,0,0,1-5-.78,11.84,11.84,0,0,1-3.39-2,6.23,6.23,0,0,1-1.92,1.94,5.45,5.45,0,0,1-3,.8h-6.88a2.86,2.86,0,0,1-1.56-.35,1.32,1.32,0,0,1-.52-1.18v-2a2.16,2.16,0,0,1,.16-.88,1.16,1.16,0,0,1,.45-.5,1.72,1.72,0,0,1,.66-.23,5.13,5.13,0,0,1,.81-.06h5.82a1.65,1.65,0,0,0,1.45-.81,4.43,4.43,0,0,0,.54-2.45V522.65h5.18Zm-5.87-25.64a3,3,0,0,1,.24-1.19,3.16,3.16,0,0,1,.65-1,2.94,2.94,0,0,1,1-.66,2.9,2.9,0,0,1,1.2-.25,2.82,2.82,0,0,1,1.19.25,3,3,0,0,1,1,.66,3.22,3.22,0,0,1,.67,1,3.1,3.1,0,0,1,0,2.39,3,3,0,0,1-.67,1,3.16,3.16,0,0,1-1,.65,2.82,2.82,0,0,1-1.19.25,3,3,0,0,1-2.18-.88A3,3,0,0,1,1358.5,512.27Z"/><path class="cls-4" d="M1371.92,544.89a2.86,2.86,0,0,1-1.56-.35,1.32,1.32,0,0,1-.51-1.18v-2a2.18,2.18,0,0,1,.15-.88,1.16,1.16,0,0,1,.45-.5,1.72,1.72,0,0,1,.66-.23,5.13,5.13,0,0,1,.81-.06h9.48V522.62h5.18v22.27Zm9,8.64a3.06,3.06,0,0,1,.24-1.2,3.29,3.29,0,0,1,.65-1,2.94,2.94,0,0,1,1-.66,3.06,3.06,0,0,1,1.2-.24,3,3,0,0,1,1.19.24,2.92,2.92,0,0,1,1,.66,3.34,3.34,0,0,1,.67,1,3.06,3.06,0,0,1,.24,1.2,3,3,0,0,1-.24,1.19,3.06,3.06,0,0,1-.67,1,3.22,3.22,0,0,1-1,.65,3,3,0,0,1-4.24-2.81Z"/><path class="cls-4" d="M1418.56,544.89a11.69,11.69,0,0,1-4.45-.8,9.29,9.29,0,0,1-3.28-2.16,9.12,9.12,0,0,1-2-3.21,11.07,11.07,0,0,1-.69-3.92,16.1,16.1,0,0,1,1.06-6.08,14,14,0,0,1,2.69-4.39,11.17,11.17,0,0,1,3.61-2.66,9.2,9.2,0,0,1,3.82-.9,9.45,9.45,0,0,1,3.88.87,10.29,10.29,0,0,1,3.5,2.6,13.85,13.85,0,0,1,2.52,4.38,18.07,18.07,0,0,1,1,6.18,10.25,10.25,0,0,1-.72,3.79,9.74,9.74,0,0,1-5.24,5.46,10.1,10.1,0,0,1-4.18.84Zm-6.77-32.62a2.82,2.82,0,0,1,.25-1.19,3.32,3.32,0,0,1,.64-1,2.88,2.88,0,0,1,1-.66,3,3,0,0,1,2.39,0,3.08,3.08,0,0,1,1.64,1.64,3,3,0,0,1-.66,3.35,3.16,3.16,0,0,1-1,.65,2.84,2.84,0,0,1-1.2.25,3,3,0,0,1-3-3.06Zm.92,21.58a5.39,5.39,0,0,0,1.75,4.4,7,7,0,0,0,4.62,1.45h.58a6,6,0,0,0,2.46-.46,5,5,0,0,0,1.76-1.27,5.3,5.3,0,0,0,1-1.87,7.25,7.25,0,0,0,.34-2.25,10.93,10.93,0,0,0-.56-3.69,8.59,8.59,0,0,0-1.45-2.65,6.14,6.14,0,0,0-2-1.59,4.57,4.57,0,0,0-2.08-.54,5.7,5.7,0,0,0-2.37.52,6,6,0,0,0-2.09,1.57,8,8,0,0,0-1.49,2.65A11.39,11.39,0,0,0,1412.71,533.85Zm7.29-21.58a2.82,2.82,0,0,1,.25-1.19,3.14,3.14,0,0,1,.64-1,3,3,0,0,1,1-.66,3,3,0,0,1,2.39,0,3.13,3.13,0,0,1,1,.66,3,3,0,0,1,.66,1,3,3,0,0,1-.66,3.35,3.29,3.29,0,0,1-1,.65,2.82,2.82,0,0,1-1.19.25,3,3,0,0,1-3.06-3.06Z"/><path class="cls-4" d="M1435.93,544.89V539.7h9.83a19.14,19.14,0,0,0,3.35-.24,6.14,6.14,0,0,0,2.06-.72,2.6,2.6,0,0,0,1-1.16,3.92,3.92,0,0,0,.29-1.54,7.41,7.41,0,0,0-.82-3.21,18.63,18.63,0,0,0-2.16-3.36,35,35,0,0,0-3-3.27c-1.11-1.06-2.23-2.06-3.37-3l3.84-3.77c1.26,1.09,2.51,2.29,3.73,3.58a36,36,0,0,1,3.28,4,22.26,22.26,0,0,1,2.35,4.28,11.48,11.48,0,0,1,.89,4.32,11.1,11.1,0,0,1-.6,3.73,7.55,7.55,0,0,1-1.9,2.91,8.92,8.92,0,0,1-3.35,1.9,15.86,15.86,0,0,1-4.95.68Z"/><path class="cls-4" d="M1465.58,503.52h5.18v30.91a20.51,20.51,0,0,0,.13,2.58,4.55,4.55,0,0,0,.46,1.61,1.92,1.92,0,0,0,.9.84,3.68,3.68,0,0,0,1.45.24h1.93a2.86,2.86,0,0,1,1.56.35,1.32,1.32,0,0,1,.52,1.18v2a2.13,2.13,0,0,1-.16.88,1.25,1.25,0,0,1-.45.51,1.91,1.91,0,0,1-.66.23,5.13,5.13,0,0,1-.81.06h-2.71a7.86,7.86,0,0,1-3.28-.64,6.17,6.17,0,0,1-2.29-1.76,7.21,7.21,0,0,1-1.34-2.65,12,12,0,0,1-.43-3.31Z"/><path class="cls-4" d="M1498.33,527.43a12.68,12.68,0,0,0-1.32-.33,15.46,15.46,0,0,0-1.54-.26l-1.57-.18c-.52,0-1-.07-1.39-.07a7.55,7.55,0,0,0-2,.28,5.07,5.07,0,0,0-1.91,1,5.33,5.33,0,0,0-1.42,1.84,6.5,6.5,0,0,0-.56,2.89,7.43,7.43,0,0,0,.54,2.86,6.54,6.54,0,0,0,1.56,2.26,7.11,7.11,0,0,0,2.41,1.49,8.71,8.71,0,0,0,3.09.53h7v5.19h-25.55a2.8,2.8,0,0,1-1.55-.35,1.3,1.3,0,0,1-.52-1.18v-2a2.18,2.18,0,0,1,.15-.88,1.16,1.16,0,0,1,.45-.5,1.79,1.79,0,0,1,.66-.23,5.13,5.13,0,0,1,.81-.06h7.69a15.77,15.77,0,0,1-1.15-3.27,14.13,14.13,0,0,1-.37-3.18,12.76,12.76,0,0,1,.83-4.63,11.74,11.74,0,0,1,2.35-3.8,11.13,11.13,0,0,1,8.28-3.53q.62,0,1.38.06l1.59.14c.54.06,1,.13,1.5.22a7,7,0,0,1,1.12.3Z"/><path class="cls-4" d="M1515.21,551.68l-.69-.11a7.84,7.84,0,0,0-1-.06,3.85,3.85,0,0,0-2,.49,1.77,1.77,0,0,0-.81,1.64,2.6,2.6,0,0,0,.26,1.1,2.87,2.87,0,0,0,.78,1,4,4,0,0,0,1.31.7,5.62,5.62,0,0,0,1.89.28h.83v2.42h-8.93V556.7h3.29a3.88,3.88,0,0,1-.58-.49,4.81,4.81,0,0,1-.61-.79,5.2,5.2,0,0,1-.48-1.09,4.07,4.07,0,0,1-.21-1.35,3.61,3.61,0,0,1,1.24-2.71,5.08,5.08,0,0,1,1.6-.88,7,7,0,0,1,2.26-.33l1,0a9.78,9.78,0,0,1,1.23.15Zm-6-48.16h5.19v41.4h-5.19Z"/><path class="cls-4" d="M1548.75,541.43a14.88,14.88,0,0,0-2.73.56,6.53,6.53,0,0,0-4.24,3.88,9.86,9.86,0,0,0-.7,4,27.68,27.68,0,0,0,.21,3.24c.13,1.18.33,2.43.6,3.73s.61,2.65,1,4,.9,2.77,1.46,4.17l-4.84,1.62c-.44-1.29-.88-2.69-1.3-4.21s-.8-3-1.12-4.52-.59-2.93-.79-4.3a23.41,23.41,0,0,1-.31-3.51,16,16,0,0,1,.52-4.26,13.46,13.46,0,0,1,1.34-3.23,10.77,10.77,0,0,1,1.89-2.38,17.53,17.53,0,0,1,2.15-1.73,19.11,19.11,0,0,1,2.1-1.26c.68-.36,1.27-.69,1.77-1a34.14,34.14,0,0,1,1.87-5.31,23,23,0,0,1,2.18-3.81,13.44,13.44,0,0,1,2.32-2.53,11.22,11.22,0,0,1,2.33-1.51,8.77,8.77,0,0,1,2.2-.74,11.66,11.66,0,0,1,2-.19,10.77,10.77,0,0,1,3.51.55,10.17,10.17,0,0,1,2.83,1.49,11.1,11.1,0,0,1,2.16,2.17,14.18,14.18,0,0,1,1.52,2.58,13.14,13.14,0,0,1,.9,2.72,13,13,0,0,1,.28,2.62,10.89,10.89,0,0,1-.69,3.72,9.85,9.85,0,0,0,3,1.25,17.29,17.29,0,0,0,4.06.42h.23a2.86,2.86,0,0,1,1.56.35,1.32,1.32,0,0,1,.52,1.18v2a2.13,2.13,0,0,1-.16.88,1.25,1.25,0,0,1-.45.51,1.91,1.91,0,0,1-.66.23,5.13,5.13,0,0,1-.81.06h-.29a16.52,16.52,0,0,1-3.05-.26,13.35,13.35,0,0,1-2.45-.71,10.39,10.39,0,0,1-2-1,12,12,0,0,1-1.58-1.33,10.89,10.89,0,0,1-3.46,2.61,11.17,11.17,0,0,1-5,1,15.67,15.67,0,0,1-3.23-.31,15,15,0,0,1-2.75-.85,13.05,13.05,0,0,1-4-2.58Zm16.42-6.51a8.84,8.84,0,0,0-.39-2.42,9,9,0,0,0-1.21-2.57,7.36,7.36,0,0,0-2.09-2,5.5,5.5,0,0,0-3-.82,5.61,5.61,0,0,0-3.07.89,9.31,9.31,0,0,0-2.47,2.35,14.25,14.25,0,0,0-1.78,3.33,19.15,19.15,0,0,0-1,3.86,3.35,3.35,0,0,0,1.12.85,11.93,11.93,0,0,0,2,.81,19.85,19.85,0,0,0,2.36.59,13.71,13.71,0,0,0,2.41.23,18,18,0,0,0,3-.23,6.94,6.94,0,0,0,2.29-.79,3.74,3.74,0,0,0,1.45-1.55A5.37,5.37,0,0,0,1565.17,534.92Z"/><path class="cls-4" d="M1581.85,522.3c1.13-.33,2.28-.62,3.44-.88a18,18,0,0,1,3.93-.39,10.53,10.53,0,0,1,3.94.69,8.6,8.6,0,0,1,2.93,1.93,9.81,9.81,0,0,1,2,3,14.56,14.56,0,0,1,1.08,3.73c.19,1.23.39,2.41.58,3.54a18.85,18.85,0,0,0,.73,3,6,6,0,0,0,1.13,2.06,2.21,2.21,0,0,0,1.74.76H1606a2.8,2.8,0,0,1,1.55.35,1.3,1.3,0,0,1,.52,1.18v2a2,2,0,0,1-.16.88,1.16,1.16,0,0,1-.44.51,2,2,0,0,1-.66.23,5.13,5.13,0,0,1-.81.06h-29.56a2.8,2.8,0,0,1-1.55-.35,1.3,1.3,0,0,1-.52-1.18v-2a2.18,2.18,0,0,1,.15-.88,1.16,1.16,0,0,1,.45-.5,1.79,1.79,0,0,1,.66-.23,5.13,5.13,0,0,1,.81-.06h20.48a4.56,4.56,0,0,1-1-1.64,13.83,13.83,0,0,1-.65-2.85c-.15-1.14-.35-2.26-.59-3.38a9.9,9.9,0,0,0-1.15-3,6.15,6.15,0,0,0-2.16-2.17,7.06,7.06,0,0,0-3.62-.82,13.43,13.43,0,0,0-1.44.1c-.54.07-1.08.16-1.64.26s-1.08.23-1.58.36a8.41,8.41,0,0,0-1.27.44Zm4.78,31.23a2.9,2.9,0,0,1,.25-1.2,3.26,3.26,0,0,1,.64-1,2.88,2.88,0,0,1,1-.66,3,3,0,0,1,1.19-.24,3,3,0,0,1,1.2.24,3.08,3.08,0,0,1,1.64,1.64,3.07,3.07,0,0,1,.25,1.2,3,3,0,0,1-.25,1.19,2.88,2.88,0,0,1-.66,1,3.49,3.49,0,0,1-1,.65,3,3,0,0,1-1.2.24,3,3,0,0,1-3-3.05Z"/><path class="cls-4" d="M1611.41,522.3c1.13-.33,2.28-.62,3.44-.88a18,18,0,0,1,3.93-.39,10.44,10.44,0,0,1,3.93.69,8.74,8.74,0,0,1,2.94,1.93,9.81,9.81,0,0,1,2,3,14.56,14.56,0,0,1,1.08,3.73q.29,1.85.57,3.54a19.94,19.94,0,0,0,.74,3,6.15,6.15,0,0,0,1.12,2.06,2.23,2.23,0,0,0,1.75.76h2.68a2.8,2.8,0,0,1,1.55.35,1.3,1.3,0,0,1,.52,1.18v2a2,2,0,0,1-.16.88,1.18,1.18,0,0,1-.45.51,1.91,1.91,0,0,1-.66.23,5.1,5.1,0,0,1-.8.06H1606a2.86,2.86,0,0,1-1.56-.35,1.32,1.32,0,0,1-.52-1.18v-2a2.16,2.16,0,0,1,.16-.88,1.16,1.16,0,0,1,.45-.5,1.72,1.72,0,0,1,.66-.23,5.13,5.13,0,0,1,.81-.06h20.48a4.56,4.56,0,0,1-1-1.64,13.83,13.83,0,0,1-.65-2.85c-.16-1.14-.35-2.26-.59-3.38a10.17,10.17,0,0,0-1.15-3,6.15,6.15,0,0,0-2.16-2.17,7.08,7.08,0,0,0-3.62-.82,13.43,13.43,0,0,0-1.44.1c-.54.07-1.09.16-1.64.26s-1.09.23-1.59.36a8.25,8.25,0,0,0-1.26.44Z"/><path class="cls-4" d="M1635.58,544.89a2.84,2.84,0,0,1-1.56-.35,1.3,1.3,0,0,1-.52-1.18v-2a2,2,0,0,1,.16-.88,1.16,1.16,0,0,1,.45-.5,1.72,1.72,0,0,1,.66-.23,5.13,5.13,0,0,1,.81-.06h9.47V522.62h5.19v22.27Zm9,8.64a2.9,2.9,0,0,1,.25-1.2,3.29,3.29,0,0,1,.65-1,2.84,2.84,0,0,1,1-.66,3.1,3.1,0,0,1,2.39,0,3,3,0,0,1,1,.66,3.13,3.13,0,0,1,.66,1,2.9,2.9,0,0,1,.25,1.2,2.82,2.82,0,0,1-.25,1.19,2.88,2.88,0,0,1-.66,1,3.35,3.35,0,0,1-1,.65,3,3,0,0,1-4.25-2.81Z"/><path class="cls-4" d="M1700.17,539.73a16.41,16.41,0,0,0-.15-2c-.1-.8-.23-1.64-.4-2.52s-.4-1.78-.66-2.68a17.84,17.84,0,0,0-.93-2.48l5.1-1.44c.21.57.42,1.22.64,1.93s.4,1.45.59,2.23.35,1.58.5,2.39.27,1.62.35,2.41a8.67,8.67,0,0,0,3.21,1.61,16.79,16.79,0,0,0,4.51.52h.23a2.8,2.8,0,0,1,1.55.35,1.3,1.3,0,0,1,.52,1.18v2a2,2,0,0,1-.16.88,1.16,1.16,0,0,1-.44.51,2,2,0,0,1-.67.23,5,5,0,0,1-.8.06h-.29a14.88,14.88,0,0,1-4.54-.61,11,11,0,0,1-3.21-1.61,18.4,18.4,0,0,1-1.73,5.9,14.79,14.79,0,0,1-3.5,4.61,15.45,15.45,0,0,1-5.21,3,20.73,20.73,0,0,1-6.87,1.07,18.27,18.27,0,0,1-7.1-1.26,14.23,14.23,0,0,1-5-3.35,13.59,13.59,0,0,1-3-4.86,17.16,17.16,0,0,1-1-5.78,17.72,17.72,0,0,1,.25-3,26.58,26.58,0,0,1,.65-3,21.23,21.23,0,0,1,1-2.75,15.43,15.43,0,0,1,1.23-2.33l4.39,2.45a10.11,10.11,0,0,0-.83,1.68,15.28,15.28,0,0,0-.64,2,18.28,18.28,0,0,0-.4,2.11,15.55,15.55,0,0,0-.15,2.12,12.18,12.18,0,0,0,.72,4.22,9.67,9.67,0,0,0,2.12,3.43,10.06,10.06,0,0,0,3.45,2.31,12.35,12.35,0,0,0,4.7.85,14.25,14.25,0,0,0,5.07-.85,10.19,10.19,0,0,0,3.74-2.45,10.83,10.83,0,0,0,2.33-3.91A15.61,15.61,0,0,0,1700.17,539.73Zm-11.53-21.67a2.82,2.82,0,0,1,.25-1.19,3.29,3.29,0,0,1,.65-1,2.74,2.74,0,0,1,1-.66,3,3,0,0,1,2.39,0,3,3,0,0,1,1,.66,3.13,3.13,0,0,1,.66,1,3,3,0,0,1,0,2.39,3,3,0,0,1-.66,1,3.14,3.14,0,0,1-1,.64,2.82,2.82,0,0,1-1.19.25,3,3,0,0,1-3.06-3.06Z"/><path class="cls-4" d="M1718.54,522.3c1.14-.33,2.29-.62,3.45-.88a18,18,0,0,1,3.93-.39,10.44,10.44,0,0,1,3.93.69,8.74,8.74,0,0,1,2.94,1.93,9.81,9.81,0,0,1,2,3,14.56,14.56,0,0,1,1.08,3.73q.29,1.85.57,3.54a19.94,19.94,0,0,0,.74,3,6.15,6.15,0,0,0,1.12,2.06,2.23,2.23,0,0,0,1.75.76h2.67a2.84,2.84,0,0,1,1.56.35,1.3,1.3,0,0,1,.52,1.18v2a2,2,0,0,1-.16.88,1.18,1.18,0,0,1-.45.51,1.91,1.91,0,0,1-.66.23,5.13,5.13,0,0,1-.81.06h-29.55a2.86,2.86,0,0,1-1.56-.35,1.32,1.32,0,0,1-.52-1.18v-2a2.16,2.16,0,0,1,.16-.88,1.16,1.16,0,0,1,.45-.5,1.72,1.72,0,0,1,.66-.23,5.13,5.13,0,0,1,.81-.06h20.48a4.56,4.56,0,0,1-1-1.64,13.83,13.83,0,0,1-.65-2.85c-.16-1.14-.35-2.26-.59-3.38a9.92,9.92,0,0,0-1.16-3,6,6,0,0,0-2.16-2.17,7,7,0,0,0-3.61-.82,13.43,13.43,0,0,0-1.44.1c-.54.07-1.09.16-1.64.26s-1.09.23-1.59.36a8.82,8.82,0,0,0-1.27.44Z"/><path class="cls-4" d="M1742.71,544.89a2.8,2.8,0,0,1-1.55-.35,1.3,1.3,0,0,1-.52-1.18v-2a2,2,0,0,1,.16-.88,1.1,1.1,0,0,1,.45-.5,1.72,1.72,0,0,1,.66-.23,5.1,5.1,0,0,1,.8-.06h9.48V522.62h5.19v22.27Zm9.25-32.62a2.82,2.82,0,0,1,.25-1.19,3.16,3.16,0,0,1,.65-1,2.84,2.84,0,0,1,1-.66,2.87,2.87,0,0,1,1.2-.25,2.82,2.82,0,0,1,1.19.25,3.08,3.08,0,0,1,1.64,1.64,3,3,0,0,1-.66,3.35,3.16,3.16,0,0,1-1,.65,2.82,2.82,0,0,1-1.19.25,3,3,0,0,1-3.06-3.06Z"/><path class="cls-4" d="M924.26,639.29h6.6v6.6h-6.6Z"/><path class="cls-4" d="M965.6,604.49h5.19v33.85a8.77,8.77,0,0,0,3.3,1.78,16.27,16.27,0,0,0,4.71.58H979a2.8,2.8,0,0,1,1.55.35,1.3,1.3,0,0,1,.52,1.18v2a2,2,0,0,1-.16.88,1.16,1.16,0,0,1-.44.51,2,2,0,0,1-.67.23,5.1,5.1,0,0,1-.8.06h-.29a14,14,0,0,1-4.8-.71,12,12,0,0,1-3.3-1.8,18.81,18.81,0,0,1-1.68,6,15,15,0,0,1-3.51,4.7,15.86,15.86,0,0,1-5.24,3,20.56,20.56,0,0,1-7,1.1,18.36,18.36,0,0,1-7.11-1.26,14.23,14.23,0,0,1-5-3.35,13.59,13.59,0,0,1-3-4.86,16.91,16.91,0,0,1-1-5.78,18.81,18.81,0,0,1,.24-3,29,29,0,0,1,.65-3,22.83,22.83,0,0,1,1-2.75,17.48,17.48,0,0,1,1.23-2.33l4.4,2.45a11,11,0,0,0-.84,1.68,15.26,15.26,0,0,0-.63,2,18.29,18.29,0,0,0-.41,2.11,17.27,17.27,0,0,0-.14,2.12,12.18,12.18,0,0,0,.72,4.22A9.64,9.64,0,0,0,945.5,650,10,10,0,0,0,949,652.3a12.35,12.35,0,0,0,4.7.85,14.25,14.25,0,0,0,5.07-.85,10.15,10.15,0,0,0,3.73-2.45,10.71,10.71,0,0,0,2.34-3.91,15.88,15.88,0,0,0,.8-5.21Z"/><path class="cls-4" d="M990.2,644.21a2.14,2.14,0,0,1-.15.88,1.25,1.25,0,0,1-.45.51,1.91,1.91,0,0,1-.66.23,5.13,5.13,0,0,1-.81.06H979a5.13,5.13,0,0,1-.81-.06,1.91,1.91,0,0,1-.66-.23,1.25,1.25,0,0,1-.45-.51,2.13,2.13,0,0,1-.16-.88v-2a1.32,1.32,0,0,1,.52-1.18,2.86,2.86,0,0,1,1.56-.35h9.13a2.86,2.86,0,0,1,1.56.35,1.32,1.32,0,0,1,.51,1.18Z"/><path class="cls-4" d="M999.34,644.21a2.13,2.13,0,0,1-.16.88,1.25,1.25,0,0,1-.45.51,1.91,1.91,0,0,1-.66.23,5.13,5.13,0,0,1-.81.06h-9.13a5.13,5.13,0,0,1-.81-.06,1.91,1.91,0,0,1-.66-.23,1.25,1.25,0,0,1-.45-.51,2.14,2.14,0,0,1-.15-.88v-2a1.32,1.32,0,0,1,.51-1.18,2.86,2.86,0,0,1,1.56-.35h9.13a2.86,2.86,0,0,1,1.56.35,1.32,1.32,0,0,1,.52,1.18Z"/><path class="cls-4" d="M1008.47,644.21a2,2,0,0,1-.16.88,1.12,1.12,0,0,1-.45.51,1.91,1.91,0,0,1-.66.23,5.13,5.13,0,0,1-.81.06h-9.13a5,5,0,0,1-.8-.06,2,2,0,0,1-.67-.23,1.16,1.16,0,0,1-.44-.51,2,2,0,0,1-.16-.88v-2a1.3,1.3,0,0,1,.52-1.18,2.8,2.8,0,0,1,1.55-.35h9.13a2.84,2.84,0,0,1,1.56.35,1.3,1.3,0,0,1,.52,1.18Z"/><path class="cls-4" d="M1017.6,644.21a2,2,0,0,1-.16.88,1.16,1.16,0,0,1-.44.51,2,2,0,0,1-.67.23,5,5,0,0,1-.8.06h-9.14a5.1,5.1,0,0,1-.8-.06,1.91,1.91,0,0,1-.66-.23,1.12,1.12,0,0,1-.45-.51,2,2,0,0,1-.16-.88v-2a1.3,1.3,0,0,1,.52-1.18,2.8,2.8,0,0,1,1.55-.35h9.14a2.8,2.8,0,0,1,1.55.35,1.3,1.3,0,0,1,.52,1.18Z"/><path class="cls-4" d="M1028.52,638.91a9.14,9.14,0,0,0,3.07,1.34,17.32,17.32,0,0,0,4.22.45h.23a2.8,2.8,0,0,1,1.55.35,1.3,1.3,0,0,1,.52,1.18v2a2.14,2.14,0,0,1-.15.88,1.25,1.25,0,0,1-.45.51,2,2,0,0,1-.66.23,5.13,5.13,0,0,1-.81.06h-.29a13.7,13.7,0,0,1-5-.78,12,12,0,0,1-3.4-2,6,6,0,0,1-1.92,1.94,5.39,5.39,0,0,1-3,.8h-6.88a2.86,2.86,0,0,1-1.56-.35,1.32,1.32,0,0,1-.52-1.18v-2a2.16,2.16,0,0,1,.16-.88,1.16,1.16,0,0,1,.45-.5,1.72,1.72,0,0,1,.66-.23,5.13,5.13,0,0,1,.81-.06h5.82a1.65,1.65,0,0,0,1.45-.81,4.43,4.43,0,0,0,.53-2.45V623.65h5.19Zm-5.7,15.62a3.06,3.06,0,0,1,.24-1.2,3.29,3.29,0,0,1,.65-1,2.94,2.94,0,0,1,1-.66,3.12,3.12,0,0,1,2.4,0,3,3,0,0,1,1,.66,3.34,3.34,0,0,1,.67,1,3.06,3.06,0,0,1,.24,1.2,3,3,0,0,1-.24,1.19,3.06,3.06,0,0,1-.67,1,3.3,3.3,0,0,1-1,.65,3.06,3.06,0,0,1-1.2.24,3,3,0,0,1-3-3.05Z"/><path class="cls-4" d="M1066,645.89q-3.4,0-6.18-.23a42.12,42.12,0,0,1-5.11-.73c-1.1.2-2.28.35-3.55.47s-2.57.21-3.92.28-2.71.13-4.1.16-2.76,0-4.11,0h-3a2.86,2.86,0,0,1-1.56-.35,1.32,1.32,0,0,1-.52-1.18v-2a2.16,2.16,0,0,1,.16-.88,1.16,1.16,0,0,1,.45-.5,1.72,1.72,0,0,1,.66-.23,5.13,5.13,0,0,1,.81-.06h8l0-.12a6.89,6.89,0,0,1-1.33-1.52,11.65,11.65,0,0,1-.92-1.79,10.08,10.08,0,0,1-.55-1.81,9.11,9.11,0,0,1-.17-1.62,11.19,11.19,0,0,1,.86-4.33,10.85,10.85,0,0,1,2.47-3.62,11.54,11.54,0,0,1,3.9-2.46,13.9,13.9,0,0,1,5.16-.91,11.28,11.28,0,0,1,4.42.81,9.51,9.51,0,0,1,3.23,2.19,9.08,9.08,0,0,1,2,3.24,11.75,11.75,0,0,1,.66,4,13.57,13.57,0,0,1-.21,2.43,21.66,21.66,0,0,1-.54,2.21,19.59,19.59,0,0,1-.67,1.89l-.62,1.45h7.4a2.86,2.86,0,0,1,1.56.35,1.32,1.32,0,0,1,.51,1.18v2a2.14,2.14,0,0,1-.15.88,1.25,1.25,0,0,1-.45.51,1.91,1.91,0,0,1-.66.23,5.13,5.13,0,0,1-.81.06Zm-20.89-32.62a2.82,2.82,0,0,1,.25-1.19,3.16,3.16,0,0,1,.65-1,2.84,2.84,0,0,1,1-.66,2.87,2.87,0,0,1,1.2-.25,2.82,2.82,0,0,1,1.19.25,3.08,3.08,0,0,1,1.64,1.64,3,3,0,0,1-.66,3.35,3.16,3.16,0,0,1-1,.65,2.82,2.82,0,0,1-1.19.25,3,3,0,0,1-3.06-3.06Zm.84,20a6.85,6.85,0,0,0,2.48,5.41,8.15,8.15,0,0,0,2.69,1.52,10.19,10.19,0,0,0,3.3.53h1.81a12.94,12.94,0,0,0,.75-1.24,12.18,12.18,0,0,0,.74-1.66,16.09,16.09,0,0,0,.56-1.95,10.4,10.4,0,0,0,.23-2.18,7.12,7.12,0,0,0-.51-2.79,5.85,5.85,0,0,0-1.34-2,5.47,5.47,0,0,0-1.93-1.24,6.26,6.26,0,0,0-2.27-.42,7.94,7.94,0,0,0-2.35.36,6.32,6.32,0,0,0-2.09,1.09,5.66,5.66,0,0,0-1.5,1.89A6,6,0,0,0,1046,633.24Zm7.37-20a2.82,2.82,0,0,1,.25-1.19,3.16,3.16,0,0,1,.65-1,2.84,2.84,0,0,1,1-.66,2.87,2.87,0,0,1,1.2-.25,2.82,2.82,0,0,1,1.19.25,3.08,3.08,0,0,1,1.64,1.64,3,3,0,0,1-.66,3.35,3.16,3.16,0,0,1-1,.65,2.82,2.82,0,0,1-1.19.25,3,3,0,0,1-2.18-.88A3,3,0,0,1,1053.35,613.27Z"/><path class="cls-4" d="M1078,641.91a9.87,9.87,0,0,1-1.28,1.89,6,6,0,0,1-1.47,1.22,5.7,5.7,0,0,1-1.74.66,10,10,0,0,1-2.13.21h-2.25a2.86,2.86,0,0,1-1.56-.35,1.32,1.32,0,0,1-.51-1.18v-2a2.18,2.18,0,0,1,.15-.88,1.16,1.16,0,0,1,.45-.5,1.72,1.72,0,0,1,.66-.23,5.13,5.13,0,0,1,.81-.06h1.35a6.16,6.16,0,0,0,3.19-.82,4.13,4.13,0,0,0,1.88-2.61,34.1,34.1,0,0,1,1.88-5.31,23,23,0,0,1,2.17-3.81,13.44,13.44,0,0,1,2.32-2.53,11.77,11.77,0,0,1,2.33-1.51,8.84,8.84,0,0,1,2.21-.74,11.65,11.65,0,0,1,1.94-.19,10.88,10.88,0,0,1,3.52.55,10.25,10.25,0,0,1,2.82,1.49,10.58,10.58,0,0,1,2.16,2.17,13.68,13.68,0,0,1,1.53,2.58,13.37,13.37,0,0,1,1.18,5.34,10.81,10.81,0,0,1-.58,3.37,9.53,9.53,0,0,0,3.19,1.52,17.09,17.09,0,0,0,4.42.5h.23a2.8,2.8,0,0,1,1.55.35,1.3,1.3,0,0,1,.52,1.18v2a2,2,0,0,1-.16.88,1.16,1.16,0,0,1-.44.51,1.91,1.91,0,0,1-.66.23,5.13,5.13,0,0,1-.81.06h-.29a16.42,16.42,0,0,1-3.21-.29,12.33,12.33,0,0,1-2.55-.79,10.23,10.23,0,0,1-2-1.19,12.48,12.48,0,0,1-1.61-1.45,10.63,10.63,0,0,1-8.73,4,15.52,15.52,0,0,1-3.5-.38,16.07,16.07,0,0,1-2.94-1,12.77,12.77,0,0,1-2.33-1.37A11.22,11.22,0,0,1,1078,641.91Zm16.94-6a8.84,8.84,0,0,0-.39-2.42,9,9,0,0,0-1.21-2.57,7.23,7.23,0,0,0-2.09-2,5.48,5.48,0,0,0-3-.82,5.64,5.64,0,0,0-3.07.89,9.27,9.27,0,0,0-2.46,2.35,14.27,14.27,0,0,0-1.79,3.33,19.13,19.13,0,0,0-1,3.86,3.25,3.25,0,0,0,1.12.85,11.81,11.81,0,0,0,1.94.81,19.54,19.54,0,0,0,2.37.59,13.51,13.51,0,0,0,2.4.23,18,18,0,0,0,3-.23A6.86,6.86,0,0,0,1093,640a3.76,3.76,0,0,0,1.46-1.55A5.5,5.5,0,0,0,1095,635.92Z"/><path class="cls-4" d="M1106.88,645.89a2.86,2.86,0,0,1-1.56-.35,1.32,1.32,0,0,1-.52-1.18v-2a2.16,2.16,0,0,1,.16-.88,1.16,1.16,0,0,1,.45-.5,1.72,1.72,0,0,1,.66-.23,5.13,5.13,0,0,1,.81-.06h7.83V604.49h5.19v41.4Z"/><path class="cls-4" d="M1129.7,604.52h5.18v41.4h-5.18Z"/><path class="cls-4" d="M1172.06,645.89a40.87,40.87,0,0,1-6-.38,19.15,19.15,0,0,1-4.23-1.06,9.5,9.5,0,0,1-2.79-1.66,7.09,7.09,0,0,1-1.64-2.12,8,8,0,0,1-.78-2.48,18.86,18.86,0,0,1-.2-2.76c0-.37,0-.79,0-1.27s.07-1,.13-1.48.12-1,.19-1.53.14-1,.22-1.4l4.89.46c-.09.68-.19,1.35-.29,2a15.24,15.24,0,0,0-.14,2,8.87,8.87,0,0,0,.43,3,3.73,3.73,0,0,0,1.86,2,12.28,12.28,0,0,0,4.16,1.14,59.21,59.21,0,0,0,7.35.36h19.42a1.65,1.65,0,0,0,1.45-.81,4.43,4.43,0,0,0,.53-2.45v-33h5.19v33.7a8.71,8.71,0,0,0,3.34,1.89,16.37,16.37,0,0,0,4.84.62h.23a2.86,2.86,0,0,1,1.56.35,1.32,1.32,0,0,1,.52,1.18v2a2.13,2.13,0,0,1-.16.88,1.25,1.25,0,0,1-.45.51,1.91,1.91,0,0,1-.66.23,5.13,5.13,0,0,1-.81.06H1210a17.19,17.19,0,0,1-3-.25,11.66,11.66,0,0,1-2.42-.69,10.18,10.18,0,0,1-1.94-1,11.77,11.77,0,0,1-1.58-1.28,7.92,7.92,0,0,1-.82,1.25,5.16,5.16,0,0,1-1.14,1,5.79,5.79,0,0,1-1.48.71,6.28,6.28,0,0,1-1.86.26Zm13.38-24.55-.82-.13a8.72,8.72,0,0,0-1.2-.07,4.54,4.54,0,0,0-2.4.57,2.09,2.09,0,0,0-.94,1.94,3,3,0,0,0,.3,1.28,3.39,3.39,0,0,0,.93,1.16,4.87,4.87,0,0,0,1.55.85,6.42,6.42,0,0,0,2.21.34h1v2.85H1175.5v-2.85h3.89a6.89,6.89,0,0,1-.68-.58,4.57,4.57,0,0,1-.73-.94,6,6,0,0,1-.58-1.28,5.29,5.29,0,0,1-.23-1.58,4.46,4.46,0,0,1,.36-1.75,4.07,4.07,0,0,1,1.11-1.49,5.51,5.51,0,0,1,1.87-1,8.23,8.23,0,0,1,2.68-.39l1.27,0a10,10,0,0,1,1.44.17Z"/><path class="cls-4" d="M1210.33,645.89a2.8,2.8,0,0,1-1.55-.35,1.3,1.3,0,0,1-.52-1.18v-2a2,2,0,0,1,.16-.88,1.08,1.08,0,0,1,.44-.5,1.72,1.72,0,0,1,.66-.23,5.13,5.13,0,0,1,.81-.06h9.48V623.62H1225v22.27Zm4.26-32.62a3,3,0,0,1,.25-1.19,3.16,3.16,0,0,1,.65-1,2.94,2.94,0,0,1,1-.66,2.9,2.9,0,0,1,1.2-.25,2.82,2.82,0,0,1,1.19.25,3,3,0,0,1,1,.66,3.22,3.22,0,0,1,.67,1,3.1,3.1,0,0,1,0,2.39,3,3,0,0,1-.67,1,3.16,3.16,0,0,1-1,.65,2.82,2.82,0,0,1-1.19.25,3,3,0,0,1-2.18-.88A3,3,0,0,1,1214.59,613.27Zm4.07-7.72a3,3,0,0,1,.24-1.19,3.16,3.16,0,0,1,.65-1,2.94,2.94,0,0,1,1-.66,3,3,0,0,1,2.4,0,3.13,3.13,0,0,1,1,.66,3.38,3.38,0,0,1,.66,1,3.1,3.1,0,0,1,0,2.39,3.15,3.15,0,0,1-.66,1,3.29,3.29,0,0,1-1,.65,2.9,2.9,0,0,1-1.2.25,3,3,0,0,1-3-3.06Zm4.14,7.72a3,3,0,0,1,.25-1.19,3.16,3.16,0,0,1,.65-1,2.94,2.94,0,0,1,1-.66,2.9,2.9,0,0,1,1.2-.25,2.82,2.82,0,0,1,1.19.25,3,3,0,0,1,1,.66,3.22,3.22,0,0,1,.67,1,3.1,3.1,0,0,1,0,2.39,3,3,0,0,1-.67,1,3.16,3.16,0,0,1-1,.65,2.82,2.82,0,0,1-1.19.25,3,3,0,0,1-2.18-.88A3,3,0,0,1,1222.8,613.27Z"/><path class="cls-4" d="M1231.68,645.89V640.7h9.82a19.26,19.26,0,0,0,3.36-.24,6.22,6.22,0,0,0,2.06-.72,2.66,2.66,0,0,0,1-1.16,3.92,3.92,0,0,0,.28-1.54,7.28,7.28,0,0,0-.82-3.21,18.1,18.1,0,0,0-2.16-3.36,34.87,34.87,0,0,0-3-3.27c-1.11-1.06-2.24-2.06-3.37-3l3.83-3.77a49.82,49.82,0,0,1,3.73,3.58,36.14,36.14,0,0,1,3.29,4,22.26,22.26,0,0,1,2.35,4.28,11.48,11.48,0,0,1,.89,4.32,10.57,10.57,0,0,1-.18,2,9.17,9.17,0,0,0,3.2,1.55,17.3,17.3,0,0,0,4.44.5h.23a2.86,2.86,0,0,1,1.56.35,1.32,1.32,0,0,1,.51,1.18v2a2.14,2.14,0,0,1-.15.88,1.25,1.25,0,0,1-.45.51,1.91,1.91,0,0,1-.66.23,5.13,5.13,0,0,1-.81.06h-.29a17,17,0,0,1-3.08-.26,13.22,13.22,0,0,1-2.48-.72,10.06,10.06,0,0,1-2-1.1,12.53,12.53,0,0,1-1.6-1.35,8.45,8.45,0,0,1-3.47,2.52,15,15,0,0,1-5.61.91Z"/><path class="cls-4" d="M1266.05,623.3c1.13-.33,2.28-.62,3.44-.88a18,18,0,0,1,3.93-.39,10.44,10.44,0,0,1,3.93.69,8.55,8.55,0,0,1,2.94,1.93,9.81,9.81,0,0,1,2,3,14.56,14.56,0,0,1,1.08,3.73c.19,1.23.39,2.41.58,3.54a18.85,18.85,0,0,0,.73,3,6,6,0,0,0,1.13,2.06,2.21,2.21,0,0,0,1.74.76v5.19h-26.88a2.86,2.86,0,0,1-1.56-.35,1.32,1.32,0,0,1-.51-1.18v-2a2.18,2.18,0,0,1,.15-.88,1.16,1.16,0,0,1,.45-.5,1.72,1.72,0,0,1,.66-.23,5.13,5.13,0,0,1,.81-.06h20.48a4.56,4.56,0,0,1-1-1.64,13.83,13.83,0,0,1-.65-2.85c-.15-1.14-.35-2.26-.59-3.38a9.9,9.9,0,0,0-1.15-3,6.15,6.15,0,0,0-2.16-2.17,7.08,7.08,0,0,0-3.62-.82,13.43,13.43,0,0,0-1.44.1c-.54.07-1.08.16-1.64.26s-1.09.23-1.58.36a8.41,8.41,0,0,0-1.27.44Z"/><path class="cls-4" d="M1329.74,636.67a12.81,12.81,0,0,0,.13,1.93,2.41,2.41,0,0,0,.55,1.24,2.47,2.47,0,0,0,1.17.66,8.13,8.13,0,0,0,2,.2h2a2.86,2.86,0,0,1,1.56.35,1.32,1.32,0,0,1,.52,1.18v2a2.13,2.13,0,0,1-.16.88,1.25,1.25,0,0,1-.45.51,1.91,1.91,0,0,1-.66.23,5.13,5.13,0,0,1-.81.06h-3.31a12.88,12.88,0,0,1-3.28-.36,7.68,7.68,0,0,1-2.23-.95,4.49,4.49,0,0,1-1.36-1.39,6.64,6.64,0,0,1-.71-1.65,16.89,16.89,0,0,1-4.06,1.84,14.49,14.49,0,0,1-3.92.55,13.16,13.16,0,0,1-3.48-.49,9.74,9.74,0,0,1-3.19-1.54,8.15,8.15,0,0,1-2.33-2.7,8,8,0,0,1-.91-4,8.18,8.18,0,0,1,.9-3.87,11.33,11.33,0,0,1,2.34-3.07,16,16,0,0,1,3.33-2.36,34.31,34.31,0,0,1,3.85-1.77c1.31-.51,2.6-.95,3.87-1.31s2.42-.69,3.46-1v-3.06h5.18Zm-5.18-10.14a44.84,44.84,0,0,0-5.25,1.29,20,20,0,0,0-4.06,1.75,8.68,8.68,0,0,0-2.63,2.23,4.48,4.48,0,0,0-.94,2.79,4,4,0,0,0,.53,2.13,4.14,4.14,0,0,0,1.4,1.39,6.69,6.69,0,0,0,1.93.75,10.43,10.43,0,0,0,2.16.23,13.14,13.14,0,0,0,3.76-.52,11.91,11.91,0,0,0,3.1-1.44Zm-9.25-14.7a3,3,0,0,1,.24-1.19,3.35,3.35,0,0,1,.65-1,2.88,2.88,0,0,1,1-.66,2.82,2.82,0,0,1,1.19-.25,2.87,2.87,0,0,1,1.2.25,3.13,3.13,0,0,1,1,.66,3,3,0,0,1,.66,1,3,3,0,0,1,0,2.39,2.84,2.84,0,0,1-.66,1,3.29,3.29,0,0,1-1,.65,2.87,2.87,0,0,1-1.2.25,3,3,0,0,1-3-3.06Zm8.21,0a2.82,2.82,0,0,1,.25-1.19,3.14,3.14,0,0,1,.64-1,2.88,2.88,0,0,1,1-.66,3,3,0,0,1,2.39,0,3.13,3.13,0,0,1,1,.66,3,3,0,0,1,.66,1,3,3,0,0,1-.66,3.35,3.29,3.29,0,0,1-1,.65,2.84,2.84,0,0,1-1.2.25,3,3,0,0,1-3-3.06Z"/><path class="cls-4" d="M1344.44,641.91a10.37,10.37,0,0,1-1.29,1.89,6,6,0,0,1-1.47,1.22,5.51,5.51,0,0,1-1.74.66,9.85,9.85,0,0,1-2.13.21h-2.25a2.8,2.8,0,0,1-1.55-.35,1.3,1.3,0,0,1-.52-1.18v-2a2,2,0,0,1,.16-.88,1.08,1.08,0,0,1,.44-.5,1.84,1.84,0,0,1,.67-.23,5,5,0,0,1,.8-.06h1.36a6.12,6.12,0,0,0,3.18-.82,4.17,4.17,0,0,0,1.89-2.61,33.14,33.14,0,0,1,1.87-5.31,23.71,23.71,0,0,1,2.17-3.81,13.78,13.78,0,0,1,2.32-2.53,11.54,11.54,0,0,1,2.34-1.51,8.77,8.77,0,0,1,2.2-.74,11.66,11.66,0,0,1,1.95-.19,10.86,10.86,0,0,1,3.51.55,10,10,0,0,1,2.82,1.49,10.58,10.58,0,0,1,2.16,2.17,13.68,13.68,0,0,1,1.53,2.58,13.11,13.11,0,0,1,.89,2.72,12.35,12.35,0,0,1,.29,2.62,10.23,10.23,0,0,1-.29,2.38,11.3,11.3,0,0,1-2.34,4.74,10.26,10.26,0,0,1-5,3.25,11.9,11.9,0,0,1-3.55.49,15.58,15.58,0,0,1-3.5-.38,16.34,16.34,0,0,1-2.94-1,12.77,12.77,0,0,1-2.33-1.37A11.1,11.1,0,0,1,1344.44,641.91Zm16.94-6a8.84,8.84,0,0,0-.39-2.42,9.28,9.28,0,0,0-1.21-2.57,7.49,7.49,0,0,0-2.09-2,5.54,5.54,0,0,0-3-.82,5.66,5.66,0,0,0-3.07.89,9.27,9.27,0,0,0-2.46,2.35,14.25,14.25,0,0,0-1.78,3.33,19.15,19.15,0,0,0-1,3.86,3.25,3.25,0,0,0,1.12.85,11.93,11.93,0,0,0,2,.81,19.37,19.37,0,0,0,2.36.59,13.6,13.6,0,0,0,2.4.23,18.17,18.17,0,0,0,3-.23,7,7,0,0,0,2.29-.79,3.8,3.8,0,0,0,1.45-1.55A5.37,5.37,0,0,0,1361.38,635.92Z"/><path class="cls-4" d="M1374.4,604.52h5.18v30.91a20.51,20.51,0,0,0,.13,2.58,4.55,4.55,0,0,0,.46,1.61,1.92,1.92,0,0,0,.9.84,3.68,3.68,0,0,0,1.45.24h1.93a2.86,2.86,0,0,1,1.56.35,1.32,1.32,0,0,1,.52,1.18v2a2.13,2.13,0,0,1-.16.88,1.25,1.25,0,0,1-.45.51,1.91,1.91,0,0,1-.66.23,5.13,5.13,0,0,1-.81.06h-2.71a7.86,7.86,0,0,1-3.28-.64,6.17,6.17,0,0,1-2.29-1.76,7.21,7.21,0,0,1-1.34-2.65,12,12,0,0,1-.43-3.31Z"/><path class="cls-4" d="M1391.85,634.3a11.82,11.82,0,0,1,.9-4.62,11.64,11.64,0,0,1,2.46-3.74,11.24,11.24,0,0,1,3.74-2.51,12.89,12.89,0,0,1,9.2-.12,9.08,9.08,0,0,1,3.33,2.28,10,10,0,0,1,2.1,3.64,15.39,15.39,0,0,1,.72,4.87v11.79h-29.85a2.86,2.86,0,0,1-1.56-.35,1.32,1.32,0,0,1-.51-1.18v-2a2.18,2.18,0,0,1,.15-.88,1.16,1.16,0,0,1,.45-.5,1.72,1.72,0,0,1,.66-.23,5.13,5.13,0,0,1,.81-.06h9.25v-.17a4.83,4.83,0,0,1-.71-1,8.92,8.92,0,0,1-.59-1.45,11.35,11.35,0,0,1-.4-1.78A12.46,12.46,0,0,1,1391.85,634.3Zm3.78-21a3,3,0,0,1,.24-1.19,3.35,3.35,0,0,1,.65-1,2.88,2.88,0,0,1,1-.66,2.82,2.82,0,0,1,1.19-.25,2.9,2.9,0,0,1,1.2.25,3.13,3.13,0,0,1,1,.66,3.19,3.19,0,0,1,.66,1,3,3,0,0,1-.66,3.35,3.29,3.29,0,0,1-1,.65,3.08,3.08,0,0,1-3.37-.63A3,3,0,0,1,1395.63,613.27Zm13.48,27.43v-5.42a12,12,0,0,0-.5-3.71,6.31,6.31,0,0,0-1.36-2.39,4.72,4.72,0,0,0-2-1.27,7.1,7.1,0,0,0-2.29-.38,6.33,6.33,0,0,0-2.47.49,6.21,6.21,0,0,0-2,1.36,6.31,6.31,0,0,0-1.34,2.09,7.28,7.28,0,0,0-.49,2.69,6.51,6.51,0,0,0,.54,2.68,5.74,5.74,0,0,0,1.51,2.06,6.82,6.82,0,0,0,2.39,1.32,9.92,9.92,0,0,0,3.2.48Zm-5.27-27.43a3,3,0,0,1,.24-1.19,3.35,3.35,0,0,1,.65-1,2.88,2.88,0,0,1,1-.66,2.82,2.82,0,0,1,1.19-.25,2.9,2.9,0,0,1,1.2.25,3.13,3.13,0,0,1,1,.66,3,3,0,0,1,.66,1,3.1,3.1,0,0,1,0,2.39,2.84,2.84,0,0,1-.66,1,3.29,3.29,0,0,1-1,.65,3.08,3.08,0,0,1-3.37-.63A3,3,0,0,1,1403.84,613.27Z"/><path class="cls-4" d="M1455.72,604.49v41.4h-32.81V640.7h12.76v-25h5.19v25h9.68V604.49ZM1442,652.68l-.69-.11a8,8,0,0,0-1-.06,3.87,3.87,0,0,0-2,.49,1.79,1.79,0,0,0-.8,1.64,2.46,2.46,0,0,0,.26,1.1,2.87,2.87,0,0,0,.78,1,4,4,0,0,0,1.31.7,5.52,5.52,0,0,0,1.88.28h.84v2.42h-8.93V657.7h3.28a4.44,4.44,0,0,1-.57-.49,3.92,3.92,0,0,1-.61-.79,5.21,5.21,0,0,1-.49-1.09,4.35,4.35,0,0,1-.2-1.35,3.66,3.66,0,0,1,.3-1.45,3.53,3.53,0,0,1,.94-1.26,5,5,0,0,1,1.6-.88,7,7,0,0,1,2.26-.33l1.05,0a9.86,9.86,0,0,1,1.22.15Z"/><path class="cls-4" d="M1481.33,604.52h5.19v30.91a20.51,20.51,0,0,0,.13,2.58,4.55,4.55,0,0,0,.46,1.61,2,2,0,0,0,.89.84,3.77,3.77,0,0,0,1.46.24h1.93a2.8,2.8,0,0,1,1.55.35,1.3,1.3,0,0,1,.52,1.18v2a2,2,0,0,1-.16.88,1.16,1.16,0,0,1-.44.51,2,2,0,0,1-.66.23,5.13,5.13,0,0,1-.81.06h-2.71a7.83,7.83,0,0,1-3.28-.64,6.09,6.09,0,0,1-2.29-1.76,7.06,7.06,0,0,1-1.34-2.65,12,12,0,0,1-.44-3.31Z"/><path class="cls-4" d="M1504.38,638.91a9.23,9.23,0,0,0,3.07,1.34,17.32,17.32,0,0,0,4.22.45h.23a2.86,2.86,0,0,1,1.56.35,1.32,1.32,0,0,1,.51,1.18v2a2.14,2.14,0,0,1-.15.88,1.25,1.25,0,0,1-.45.51,1.91,1.91,0,0,1-.66.23,5.13,5.13,0,0,1-.81.06h-.29a13.7,13.7,0,0,1-5-.78,12,12,0,0,1-3.4-2,6.09,6.09,0,0,1-1.91,1.94,5.45,5.45,0,0,1-3,.8h-6.88a2.86,2.86,0,0,1-1.56-.35,1.32,1.32,0,0,1-.52-1.18v-2a2.16,2.16,0,0,1,.16-.88,1.16,1.16,0,0,1,.45-.5,1.72,1.72,0,0,1,.66-.23,5.13,5.13,0,0,1,.81-.06h5.82a1.65,1.65,0,0,0,1.45-.81,4.43,4.43,0,0,0,.54-2.45V623.65h5.18Zm-5.88-25.64a2.82,2.82,0,0,1,.25-1.19,3.16,3.16,0,0,1,.65-1,2.94,2.94,0,0,1,1-.66,2.87,2.87,0,0,1,1.2-.25,2.82,2.82,0,0,1,1.19.25,3.08,3.08,0,0,1,1.64,1.64,3,3,0,0,1-.66,3.35,3.16,3.16,0,0,1-1,.65,2.82,2.82,0,0,1-1.19.25,3,3,0,0,1-2.18-.88A3,3,0,0,1,1498.5,613.27Z"/><path class="cls-4" d="M1524.26,639.32a15.74,15.74,0,0,1-2.47-2.28c-.79-.9-1.54-1.81-2.23-2.72s-1.31-1.77-1.87-2.57-1-1.38-1.35-1.77a12.24,12.24,0,0,1,.34-1.36q.22-.76.51-1.5a9.91,9.91,0,0,1,.57-1.29,2,2,0,0,1,.59-.72c.6-.32,1.32-.67,2.16-1a22.8,22.8,0,0,1,2.84-1,34.58,34.58,0,0,1,3.43-.75,24.68,24.68,0,0,1,3.93-.3,16.85,16.85,0,0,1,3.14.3,12.63,12.63,0,0,1,2.88.91,6.45,6.45,0,0,1,2.12,1.54,3.24,3.24,0,0,1,.82,2.21,11.81,11.81,0,0,1-.22,2.11,12.19,12.19,0,0,1-.89,2.77,20.5,20.5,0,0,1-2,3.41,29.93,29.93,0,0,1-3.44,4.07,8.66,8.66,0,0,0,1.64.56q1,.24,2.16.42c.79.11,1.63.2,2.54.27s1.83.1,2.79.1h2.39a2.84,2.84,0,0,1,1.56.35,1.32,1.32,0,0,1,.52,1.18v2a2.13,2.13,0,0,1-.16.88,1.25,1.25,0,0,1-.45.51,1.91,1.91,0,0,1-.66.23,5.13,5.13,0,0,1-.81.06h-3.89a23.5,23.5,0,0,1-4.33-.38,31,31,0,0,1-3.62-.89,21.37,21.37,0,0,1-2.79-1.1c-.79-.38-1.4-.71-1.84-1a26.75,26.75,0,0,1-2.57,1.27,25.15,25.15,0,0,1-3,1.07,27.05,27.05,0,0,1-3.35.73,24.4,24.4,0,0,1-3.68.28h-3.71a2.86,2.86,0,0,1-1.56-.35,1.32,1.32,0,0,1-.52-1.18v-2a2.16,2.16,0,0,1,.16-.88,1.16,1.16,0,0,1,.45-.5,1.72,1.72,0,0,1,.66-.23,5.13,5.13,0,0,1,.81-.06H1516c1.06,0,2,0,3-.13s1.74-.19,2.46-.32a10.87,10.87,0,0,0,1.8-.43A3.46,3.46,0,0,0,1524.26,639.32Zm10.37-9.51a2.16,2.16,0,0,0-.4-1.21,3.86,3.86,0,0,0-1.19-1,7,7,0,0,0-1.88-.73,10.67,10.67,0,0,0-2.52-.28,16.82,16.82,0,0,0-3.55.42,21.53,21.53,0,0,0-4.17,1.43,18.32,18.32,0,0,0,1.19,1.9,30.83,30.83,0,0,0,1.92,2.45c.73.84,1.51,1.67,2.33,2.46a15.44,15.44,0,0,0,2.42,1.95,12.91,12.91,0,0,0,2.43-1.86,16.38,16.38,0,0,0,1.85-2.08,10,10,0,0,0,1.17-1.93A4,4,0,0,0,1534.63,629.81Z"/><path class="cls-4" d="M1553.56,641.91a9.89,9.89,0,0,1-1.29,1.89,6.12,6.12,0,0,1-1.46,1.22,5.66,5.66,0,0,1-1.75.66,9.85,9.85,0,0,1-2.13.21h-2.25a2.8,2.8,0,0,1-1.55-.35,1.3,1.3,0,0,1-.52-1.18v-2a2,2,0,0,1,.16-.88,1.08,1.08,0,0,1,.44-.5,1.84,1.84,0,0,1,.67-.23,5.1,5.1,0,0,1,.8-.06H1546a6.12,6.12,0,0,0,3.18-.82,4.17,4.17,0,0,0,1.89-2.61A34.14,34.14,0,0,1,1553,632a23,23,0,0,1,2.18-3.81,13.41,13.41,0,0,1,2.31-2.53,11.54,11.54,0,0,1,2.34-1.51,8.77,8.77,0,0,1,2.2-.74,11.66,11.66,0,0,1,2-.19,10.81,10.81,0,0,1,3.51.55,10,10,0,0,1,2.82,1.49,10.88,10.88,0,0,1,2.17,2.17A14.18,14.18,0,0,1,1574,630a13.14,13.14,0,0,1,.9,2.72,13,13,0,0,1,.28,2.62,10.76,10.76,0,0,1-.28,2.38,12.35,12.35,0,0,1-.87,2.45,11.16,11.16,0,0,1-1.48,2.29,10.22,10.22,0,0,1-2.15,1.93,10.46,10.46,0,0,1-2.82,1.32,11.9,11.9,0,0,1-3.55.49,15.65,15.65,0,0,1-3.5-.38,16,16,0,0,1-2.93-1,12.53,12.53,0,0,1-2.34-1.37A11.1,11.1,0,0,1,1553.56,641.91Zm16.94-6a8.84,8.84,0,0,0-.39-2.42,9.28,9.28,0,0,0-1.21-2.57,7.49,7.49,0,0,0-2.09-2,5.51,5.51,0,0,0-3-.82,5.6,5.6,0,0,0-3.06.89,9.16,9.16,0,0,0-2.47,2.35,14.25,14.25,0,0,0-1.78,3.33,19.15,19.15,0,0,0-1,3.86,3.35,3.35,0,0,0,1.12.85,11.93,11.93,0,0,0,2,.81,19.37,19.37,0,0,0,2.36.59,13.71,13.71,0,0,0,2.41.23,18.13,18.13,0,0,0,3-.23,7,7,0,0,0,2.29-.79,3.74,3.74,0,0,0,1.45-1.55A5.37,5.37,0,0,0,1570.5,635.92Z"/><path class="cls-4" d="M1623.71,604.49h5.18v33.85a8.77,8.77,0,0,0,3.3,1.78,16.36,16.36,0,0,0,4.71.58h.23a2.86,2.86,0,0,1,1.56.35,1.32,1.32,0,0,1,.52,1.18v2a2.13,2.13,0,0,1-.16.88,1.25,1.25,0,0,1-.45.51,1.91,1.91,0,0,1-.66.23,5.13,5.13,0,0,1-.81.06h-.29a14,14,0,0,1-4.79-.71,11.81,11.81,0,0,1-3.3-1.8,18.57,18.57,0,0,1-1.69,6,14.86,14.86,0,0,1-3.5,4.7,15.81,15.81,0,0,1-5.25,3,20.52,20.52,0,0,1-7,1.1,18.36,18.36,0,0,1-7.11-1.26,14.32,14.32,0,0,1-5-3.35,13.59,13.59,0,0,1-3-4.86,17.16,17.16,0,0,1-1-5.78,17.72,17.72,0,0,1,.25-3,26.58,26.58,0,0,1,.65-3,21.23,21.23,0,0,1,1-2.75,16.39,16.39,0,0,1,1.23-2.33l4.39,2.45a11,11,0,0,0-.83,1.68,17,17,0,0,0-.64,2,18.28,18.28,0,0,0-.4,2.11,15.55,15.55,0,0,0-.15,2.12,12.18,12.18,0,0,0,.72,4.22,9.67,9.67,0,0,0,2.12,3.43,10.06,10.06,0,0,0,3.45,2.31,12.36,12.36,0,0,0,4.71.85,14.24,14.24,0,0,0,5.06-.85,10.19,10.19,0,0,0,3.74-2.45,10.69,10.69,0,0,0,2.33-3.91,15.61,15.61,0,0,0,.81-5.21Z"/><path class="cls-4" d="M1657.64,645.89a18.43,18.43,0,0,1-2.35-.16,15.13,15.13,0,0,1-2.29-.51,11.5,11.5,0,0,1-2.14-.89A8.75,8.75,0,0,1,1649,643a6.38,6.38,0,0,1-2,2,5.48,5.48,0,0,1-3.14.84h-6.8a2.8,2.8,0,0,1-1.55-.35,1.3,1.3,0,0,1-.52-1.18v-2a2,2,0,0,1,.16-.88,1.08,1.08,0,0,1,.44-.5,1.79,1.79,0,0,1,.66-.23,5.13,5.13,0,0,1,.81-.06h5.73a1.66,1.66,0,0,0,1.46-.81,4.52,4.52,0,0,0,.53-2.45v-8.23H1650v9.44a9.24,9.24,0,0,0,3.43,1.59,18.13,18.13,0,0,0,4.24.46,35.94,35.94,0,0,1,1.47-3.77,35,35,0,0,1,2.22-4.21,34.47,34.47,0,0,1,3-4.15,22.82,22.82,0,0,1,3.71-3.58,18.67,18.67,0,0,1,4.45-2.53,13.8,13.8,0,0,1,5.13-1,13.32,13.32,0,0,1,5.66,1.1,10.35,10.35,0,0,1,3.86,3,12.62,12.62,0,0,1,2.22,4.53,21.28,21.28,0,0,1,.71,5.61v10.12Zm27.26-9.54a15.18,15.18,0,0,0-.62-4.67,8.12,8.12,0,0,0-1.69-3,6,6,0,0,0-2.51-1.61,9.95,9.95,0,0,0-6.51.14,13,13,0,0,0-3.08,1.69,16.66,16.66,0,0,0-2.66,2.46,22,22,0,0,0-2.21,3,26.06,26.06,0,0,0-1.7,3.21,22,22,0,0,0-1.12,3.17h22.1Z"/><path class="cls-4" d="M1699.59,604.52h5.18v41.4h-5.18Z"/><path class="cls-4" d="M1726.93,645.89a15.7,15.7,0,0,1-6-1,11.07,11.07,0,0,1-3.93-2.61,9.6,9.6,0,0,1-2.16-3.62,12.48,12.48,0,0,1-.67-4,12.63,12.63,0,0,1,.87-4.7,11.21,11.21,0,0,1,2.48-3.81,11.39,11.39,0,0,1,3.88-2.55,13.3,13.3,0,0,1,5.09-.92,14.27,14.27,0,0,1,2.37.21,10.11,10.11,0,0,1,2.43.78,9,9,0,0,1,4.14,3.92,13.59,13.59,0,0,1,1.29,3.48,21.31,21.31,0,0,1,.47,4.71v4.93h6.22a2.84,2.84,0,0,1,1.56.35,1.3,1.3,0,0,1,.52,1.18v2a2,2,0,0,1-.16.88,1.18,1.18,0,0,1-.45.51,1.91,1.91,0,0,1-.66.23,5.13,5.13,0,0,1-.81.06h-6.59a14.15,14.15,0,0,1-2.44,5.33,14.41,14.41,0,0,1-4.08,3.61,21.24,21.24,0,0,1-5.48,2.22,43.14,43.14,0,0,1-6.55,1.14l-.55-5a23.67,23.67,0,0,0,9.43-2.29,8.41,8.41,0,0,0,4.48-5Zm5.1-5.19v-3.26a18.25,18.25,0,0,0-.57-5,8.23,8.23,0,0,0-1.46-3,4.65,4.65,0,0,0-2.08-1.47,7.38,7.38,0,0,0-2.35-.39,6.33,6.33,0,0,0-2.47.49,6,6,0,0,0-2,1.39,6.65,6.65,0,0,0-1.34,2.14,7.68,7.68,0,0,0-.49,2.75,7.24,7.24,0,0,0,.42,2.47,5.19,5.19,0,0,0,1.34,2,6.63,6.63,0,0,0,2.36,1.38,10.37,10.37,0,0,0,3.52.52Z"/><path class="cls-4" d="M1743.41,645.89a2.84,2.84,0,0,1-1.56-.35,1.3,1.3,0,0,1-.52-1.18v-2a2,2,0,0,1,.16-.88,1.1,1.1,0,0,1,.45-.5,1.72,1.72,0,0,1,.66-.23,5.13,5.13,0,0,1,.81-.06h9.47V623.62h5.19v22.27Zm4.35-32.62a3,3,0,0,1,.24-1.19,3.16,3.16,0,0,1,.65-1,2.94,2.94,0,0,1,1-.66,2.9,2.9,0,0,1,1.2-.25,2.82,2.82,0,0,1,1.19.25,2.92,2.92,0,0,1,1,.66,3.22,3.22,0,0,1,.67,1,3.1,3.1,0,0,1,0,2.39,3,3,0,0,1-.67,1,3.05,3.05,0,0,1-1,.65,2.82,2.82,0,0,1-1.19.25,3,3,0,0,1-3-3.06Zm8.21,0a3,3,0,0,1,.24-1.19,3.16,3.16,0,0,1,.65-1,2.94,2.94,0,0,1,1-.66,2.9,2.9,0,0,1,1.2-.25,2.82,2.82,0,0,1,1.19.25,2.92,2.92,0,0,1,1,.66,3.22,3.22,0,0,1,.67,1,3.1,3.1,0,0,1,0,2.39,3,3,0,0,1-.67,1,3.05,3.05,0,0,1-1,.65,2.82,2.82,0,0,1-1.19.25,3,3,0,0,1-3-3.06Z"/><path class="cls-5" d="M367,621.61c5.34.76,15.41,2.42,24.57,3.94,6.5,1,12.61,2,16.31,2.81,1.14.25,2.42.38,3.69.63a104,104,0,0,1,10.7,2.17c9.93,2.29,16.17,3.44,24.19,7a151.39,151.39,0,0,1,13.37,7.26c11.85,7.26,25.6,11,41.39,10.83a83.49,83.49,0,0,0,11-.77l-4.21,34a73.27,73.27,0,0,1-17.75-.76q-8-1.28-16-3.18-4.82-1.15-9.59-2.55c-11.71-3.44-12.48-4.71-44.7-16.56a247.23,247.23,0,0,0-37.31-9.93,65.21,65.21,0,0,0-12-.89,33.79,33.79,0,0,0-3.69.13,61.53,61.53,0,0,0-10.7,1.65c-.26,0-.38.13-.64,0,0,0,7.39-36.29,7.39-36.42a1,1,0,0,1,.38.13Z"/><path class="cls-5" d="M393.74,376.9,375.5,363.6q13.67-30,38.74-30,9.11,0,26.59,5.3t25.64,5.32q8.14,0,15.38-12.15l20.5,11q-12.54,33-39.11,33-8,0-24.69-5.14T415,365.88c-4.56,0-8.25.71-11,2.09S397.79,372.34,393.74,376.9Z"/><path class="cls-5" d="M448.14,400.44Q489,400.17,516.76,429T545,517.17q.42,59.46-26.8,90.15t-73.89,31q-46.71.33-73.45-29.82t-27.16-88.07q-.22-31.69,8.93-55.72t24.2-37.24Q407.31,400.73,448.14,400.44Zm-61.41,118q.6,85.5,59.87,85.07,31.71-.19,44.3-26.48,11.53-23.19,11.33-56.61-.21-30-10.72-55.09a48,48,0,0,0-17.91-21.59c-8-5.25-18.25-7.8-30.89-7.73a46.77,46.77,0,0,0-32.5,12.65,64.28,64.28,0,0,0-18.58,30.1Q386.56,496.37,386.73,518.41Z"/><path class="cls-6" d="M510.75,274.94a24.87,24.87,0,0,1,11-2.1c4.56,0,12.39,1.72,23.55,5.14s19.36,5.13,24.68,5.13q26.57,0,39.11-33l-20.5-11c-4.83,8.11-9.94,12.15-15.38,12.15s-14-1.76-25.64-5.32-20.51-5.3-26.58-5.3q-25.06,0-38.74,30l18.24,13.29Q506.56,277,510.75,274.94Z"/><path class="cls-6" d="M623.51,335.91q-27.78-28.79-68.62-28.51t-71.35,27q-15.07,13.2-24.21,37.24t-8.92,55.72q.38,57.92,27.15,88.06a84.86,84.86,0,0,0,20.64,17c-9.12-1.52-19.1-3.16-24.42-3.92l-3.57-.51a1,1,0,0,0-.38-.13c0,.13-7.39,36.43-7.39,36.43.26.12.39,0,.64,0a61.57,61.57,0,0,1,10.7-1.66,33.88,33.88,0,0,1,3.69-.13,64.93,64.93,0,0,1,12,.9,247.55,247.55,0,0,1,37.32,9.93c32.22,11.84,33,13.12,44.7,16.55q4.75,1.39,9.59,2.56c5.27,1.26,10.6,2.32,16,3.17a73.84,73.84,0,0,0,17.76.77l4.2-34a83.26,83.26,0,0,1-11,.76c-15.79.13-29.55-3.57-41.39-10.82-5.26-3.13-9.41-5.4-13.17-7.17q45-1.07,71.46-30.94,27.18-30.7,26.79-90.15T623.51,335.91ZM597.65,484q-12.58,26.28-44.29,26.49-59.28.41-59.87-85.08-.15-22.06,4.89-39.68A64.46,64.46,0,0,1,517,355.59,46.82,46.82,0,0,1,549.46,343q19-.12,30.89,7.73a47.93,47.93,0,0,1,17.91,21.59q10.53,25.1,10.72,55.09Q609.22,460.77,597.65,484Z"/><path class="cls-6" d="M284.43,489.66c2.77-1.38,6.46-2.09,11-2.09s12.39,1.71,23.55,5.13,19.36,5.13,24.68,5.13q26.57,0,39.11-33l-20.5-11Q355,465.94,346.9,465.93t-25.64-5.32q-17.46-5.31-26.58-5.31-25.06,0-38.74,30l18.24,13.29Q280.24,491.76,284.43,489.66Z"/><path class="cls-6" d="M397.19,550.63q-27.78-28.78-68.62-28.51t-71.35,27Q242.15,562.38,233,586.4t-8.92,55.72q.38,57.92,27.15,88.06a84.86,84.86,0,0,0,20.64,17c-9.12-1.52-19.1-3.16-24.42-3.92l-3.57-.51a1,1,0,0,0-.38-.12c0,.12-7.38,36.42-7.38,36.42.25.13.38,0,.63,0a61.57,61.57,0,0,1,10.7-1.66,36.69,36.69,0,0,1,3.69-.12,65.13,65.13,0,0,1,12,.89,247.55,247.55,0,0,1,37.32,9.93c32.22,11.84,33,13.12,44.7,16.56q4.75,1.38,9.59,2.55,7.9,1.89,16,3.17a73.23,73.23,0,0,0,17.75.77l4.2-34a83.26,83.26,0,0,1-10.95.76c-15.79.13-29.55-3.56-41.39-10.82-5.26-3.13-9.4-5.4-13.17-7.17q45-1.07,71.46-30.94,27.18-30.69,26.79-90.15T397.19,550.63Zm-25.86,148Q358.75,725,327,725.17q-59.28.41-59.87-85.08Q267,618,272.06,600.42a64.52,64.52,0,0,1,18.58-30.11,46.82,46.82,0,0,1,32.5-12.64q19-.12,30.89,7.73A47.93,47.93,0,0,1,371.94,587q10.53,25.1,10.72,55.09Q382.9,675.5,371.33,698.68Z"/><path class="cls-3" d="M1731.88,776.91a34.35,34.35,0,1,1,34.34-34.35A34.39,34.39,0,0,1,1731.88,776.91Zm0-65a30.66,30.66,0,1,0,30.65,30.66A30.7,30.7,0,0,0,1731.88,711.9Z"/><path class="cls-3" d="M1747.93,750.17v5.92a2.57,2.57,0,0,1-2.55,2.55,29.64,29.64,0,0,1-29.56-29.6,2.58,2.58,0,0,1,2.55-2.56h5.88a2.54,2.54,0,0,1,2.55,2.56,19.23,19.23,0,0,0,.91,5.77,2.59,2.59,0,0,1-.62,2.6l-2.65,3.56a20.27,20.27,0,0,0,9,9l3.66-2.74a2.32,2.32,0,0,1,2.5-.53,18.93,18.93,0,0,0,5.73.91A2.53,2.53,0,0,1,1747.93,750.17Z"/><path class="cls-3" d="M1218.35,775.24a32.83,32.83,0,1,1,32.82-32.82A32.87,32.87,0,0,1,1218.35,775.24Zm0-62.12a29.3,29.3,0,1,0,29.3,29.3A29.33,29.33,0,0,0,1218.35,713.12Z"/><path class="cls-3" d="M1237.21,730.44a15.64,15.64,0,0,1-3.86,1.1c.62-.1,1.54-1.23,1.91-1.69a7,7,0,0,0,1.28-2.34c0-.07.06-.15,0-.2a.2.2,0,0,0-.2,0,19.36,19.36,0,0,1-4.59,1.76.33.33,0,0,1-.32-.08,3.12,3.12,0,0,0-.4-.41,8.22,8.22,0,0,0-2.22-1.37,8,8,0,0,0-3.41-.55,8.32,8.32,0,0,0-5.85,3.05,8,8,0,0,0-1.56,3.12,8.53,8.53,0,0,0-.08,3.3c0,.18,0,.21-.16.18-6.3-.93-11.53-3.19-15.77-8-.19-.21-.29-.21-.44,0-1.85,2.78-1,7.25,1.37,9.45.3.29.62.59,1,.86a8.3,8.3,0,0,1-3-.86c-.18-.11-.28,0-.29.16a4.62,4.62,0,0,0,0,.9,8.06,8.06,0,0,0,5,6.45,4.53,4.53,0,0,0,1,.31,8.73,8.73,0,0,1-3,.09c-.22,0-.3.07-.22.28,1.32,3.58,4.15,4.65,6.27,5.25.29,0,.57,0,.86.12l0,0c-.71,1.07-3.15,1.87-4.29,2.27a15.28,15.28,0,0,1-6.5.83c-.35-.05-.43,0-.52,0s0,.15.1.24c.44.29.89.55,1.35.8a21.48,21.48,0,0,0,4.35,1.74c7.82,2.16,16.62.57,22.49-5.26,4.61-4.58,6.23-10.89,6.23-17.21,0-.25.29-.39.46-.52a15.34,15.34,0,0,0,3.05-3.18.93.93,0,0,0,.19-.61v0C1237.36,730.33,1237.37,730.37,1237.21,730.44Z"/><path class="cls-7" d="M1210.46,758Z"/><path class="cls-7" d="M1211.75,758.07c0-.06.68,0,0,0C1211.75,758,1211.83,758.07,1211.75,758.07Z"/><path class="cls-7" d="M1225.28,726.7a.12.12,0,0,1-.16,0Z"/><path class="cls-3" d="M1301,775a32.62,32.62,0,1,1,32.61-32.61A32.65,32.65,0,0,1,1301,775Zm0-62.13a29.52,29.52,0,1,0,29.51,29.52A29.55,29.55,0,0,0,1301,712.9Zm11,16.28a2.42,2.42,0,1,0,2.41,2.42A2.42,2.42,0,0,0,1312,729.18Zm-10.73,3.1a10.14,10.14,0,1,0,10.14,10.14A10.15,10.15,0,0,0,1301.27,732.28Zm0,16.63a6.5,6.5,0,1,1,6.49-6.49A6.5,6.5,0,0,1,1301.27,748.91ZM1321.72,734a12.36,12.36,0,0,0-12.36-12.36H1293A12.36,12.36,0,0,0,1280.68,734v16.32A12.36,12.36,0,0,0,1293,762.67h16.32a12.36,12.36,0,0,0,12.36-12.36Zm-3.87,16.32a8.49,8.49,0,0,1-8.49,8.49H1293a8.49,8.49,0,0,1-8.49-8.49V734a8.49,8.49,0,0,1,8.49-8.49h16.32a8.49,8.49,0,0,1,8.49,8.49Z"/><path class="cls-4" d="M947.55,747c-.08.3-.16.61-.23.92a3.94,3.94,0,0,0-.1.87,2.46,2.46,0,0,0,.16.75.59.59,0,0,0,.6.31,3.25,3.25,0,0,0,1.84-.64,6.57,6.57,0,0,0,1.68-1.72,10.13,10.13,0,0,0,1.21-2.54,9.9,9.9,0,0,0,.47-3.06,10.47,10.47,0,0,0-.89-4.42,9.36,9.36,0,0,0-2.44-3.23,10.58,10.58,0,0,0-3.58-2,13.84,13.84,0,0,0-4.37-.68,12.1,12.1,0,0,0-4.92,1,11.36,11.36,0,0,0-3.8,2.65,11.88,11.88,0,0,0-2.46,4,13.62,13.62,0,0,0-.87,4.9,14.13,14.13,0,0,0,.93,5.33,10.57,10.57,0,0,0,2.6,3.84,11,11,0,0,0,4,2.34,15,15,0,0,0,5,.79,13.47,13.47,0,0,0,5.13-1,11.32,11.32,0,0,0,4.12-2.78h3.22a14.54,14.54,0,0,1-5.42,5,15.1,15.1,0,0,1-7.21,1.79,18.14,18.14,0,0,1-6.16-1,13.94,13.94,0,0,1-8.41-7.83,17.48,17.48,0,0,1-.66-10.87,14.94,14.94,0,0,1,1.58-3.75,13.85,13.85,0,0,1,2.45-3.05,14.59,14.59,0,0,1,3.17-2.28,16.48,16.48,0,0,1,3.7-1.42,16.91,16.91,0,0,1,4.12-.5,15.69,15.69,0,0,1,3.64.42,15,15,0,0,1,3.36,1.19,14.82,14.82,0,0,1,2.91,1.89,11.83,11.83,0,0,1,2.28,2.52,11.5,11.5,0,0,1,1.49,3.07,11.8,11.8,0,0,1,.53,3.54A11.43,11.43,0,0,1,955,746.5a12.78,12.78,0,0,1-2.7,3.7,10.79,10.79,0,0,1-3.31,2.16,8,8,0,0,1-2.93.71,2.46,2.46,0,0,1-1.69-.61,2.49,2.49,0,0,1-.78-1.78h-.08a9.4,9.4,0,0,1-2.1,1.64,4.8,4.8,0,0,1-2.54.75,5.8,5.8,0,0,1-2.48-.55,6.42,6.42,0,0,1-2-1.49,7.12,7.12,0,0,1-1.83-4.78,12.3,12.3,0,0,1,.65-3.92,11.31,11.31,0,0,1,1.86-3.42,9.27,9.27,0,0,1,2.9-2.42,7.77,7.77,0,0,1,3.75-.92,5.51,5.51,0,0,1,2.7.66,5.86,5.86,0,0,1,2.14,2.15l.65-2.23h3.2Zm-7.75,2.6a3.89,3.89,0,0,0,2.18-.67,6.57,6.57,0,0,0,1.72-1.69,8.51,8.51,0,0,0,1.14-2.25,7.37,7.37,0,0,0,.4-2.33,3.62,3.62,0,0,0-1-2.56,3.09,3.09,0,0,0-2.33-1,4.4,4.4,0,0,0-2.33.63,6.1,6.1,0,0,0-1.77,1.59,7.24,7.24,0,0,0-1.15,2.14,6.93,6.93,0,0,0-.4,2.27,4.92,4.92,0,0,0,.24,1.57,3.38,3.38,0,0,0,.69,1.22,3.42,3.42,0,0,0,1.1.81A3.59,3.59,0,0,0,939.8,749.58Z"/><path class="cls-4" d="M977.2,759.13c-.39.06-.78.1-1.17.14s-.78.05-1.2.05a15.49,15.49,0,0,1-6.07-1.13,12.62,12.62,0,0,1-4.49-3.17,14,14,0,0,1-2.78-4.86,19.26,19.26,0,0,1-1-6.21,18.73,18.73,0,0,1,1-6.11,14.36,14.36,0,0,1,2.79-4.87,12.87,12.87,0,0,1,4.49-3.22,15.08,15.08,0,0,1,6.05-1.16,14.88,14.88,0,0,1,6,1.16,12.77,12.77,0,0,1,4.49,3.23,14.12,14.12,0,0,1,2.82,4.86,18.51,18.51,0,0,1,1,6.11,17.4,17.4,0,0,1-2.07,8.71,12.42,12.42,0,0,1-5.93,5.38l6.9,6.25h-5.27ZM965,744a16.29,16.29,0,0,0,.57,4.31,11.28,11.28,0,0,0,1.77,3.71,9,9,0,0,0,3,2.61,9.26,9.26,0,0,0,4.41,1,8.85,8.85,0,0,0,7.44-3.6,11.08,11.08,0,0,0,1.77-3.71,16.29,16.29,0,0,0,.58-4.31,16.7,16.7,0,0,0-.63-4.36,11.28,11.28,0,0,0-1.82-3.73,8.79,8.79,0,0,0-3-2.59,9.21,9.21,0,0,0-11.64,2.59,11.28,11.28,0,0,0-1.82,3.73A15.52,15.52,0,0,0,965,744Z"/><path class="cls-4" d="M1014,758.8h-3.86v-3.45H1010a6.46,6.46,0,0,1-2.85,2.93,9.06,9.06,0,0,1-4.26,1q-4.2,0-6.17-2.47a10.77,10.77,0,0,1-2-6.86V737.11h4v11.22a12.92,12.92,0,0,0,1,5.71,4,4,0,0,0,3.64,2,6.23,6.23,0,0,0,3-.66,5.54,5.54,0,0,0,2-1.83,8.26,8.26,0,0,0,1.2-2.83,15.65,15.65,0,0,0,.38-3.62v-10h4Z"/><path class="cls-4" d="M1020.77,726.89h4v13.19h.08a8.11,8.11,0,0,1,2.64-2.49,10.42,10.42,0,0,1,8.67-.11,8.39,8.39,0,0,1,2.92,2.41,10.56,10.56,0,0,1,1.75,3.5,14.74,14.74,0,0,1,.58,4.17,18,18,0,0,1-.53,4.37,11.41,11.41,0,0,1-1.66,3.75,8.52,8.52,0,0,1-2.9,2.63,8.61,8.61,0,0,1-4.22,1,9.53,9.53,0,0,1-2.66-.34,10.44,10.44,0,0,1-2.11-.86,8.58,8.58,0,0,1-1.59-1.16,8.48,8.48,0,0,1-1.06-1.21h-.08v3h-3.82Zm16.37,21a11.42,11.42,0,0,0-.28-2.9,8,8,0,0,0-1-2.58,5.67,5.67,0,0,0-1.86-1.85,5.15,5.15,0,0,0-2.76-.71,5.55,5.55,0,0,0-2.85.7,6.1,6.1,0,0,0-2,1.85,8.32,8.32,0,0,0-1.2,2.61,11.67,11.67,0,0,0-.39,3,11.35,11.35,0,0,0,.36,2.78,8.5,8.5,0,0,0,1.13,2.61,6.43,6.43,0,0,0,2,1.93,5.36,5.36,0,0,0,2.92.76,4.69,4.69,0,0,0,2.74-.8,6.53,6.53,0,0,0,1.88-2,9,9,0,0,0,1.06-2.66A11.44,11.44,0,0,0,1037.14,747.87Z"/><path class="cls-4" d="M1046.76,726.89h4v13.19h.08a8.11,8.11,0,0,1,2.64-2.49,10.44,10.44,0,0,1,8.68-.11,8.57,8.57,0,0,1,2.92,2.41,10.73,10.73,0,0,1,1.74,3.5,14.74,14.74,0,0,1,.58,4.17,17.5,17.5,0,0,1-.53,4.37,11.2,11.2,0,0,1-1.66,3.75,8.43,8.43,0,0,1-2.9,2.63,8.61,8.61,0,0,1-4.22,1,9.41,9.41,0,0,1-2.65-.34,10.21,10.21,0,0,1-2.11-.86,8,8,0,0,1-1.59-1.16,7.38,7.38,0,0,1-1.06-1.21h-.09v3h-3.82Zm16.37,21a11.42,11.42,0,0,0-.28-2.9,8,8,0,0,0-1-2.58,5.55,5.55,0,0,0-1.85-1.85,5.21,5.21,0,0,0-2.77-.71,5.58,5.58,0,0,0-2.85.7,6.1,6.1,0,0,0-2,1.85,8.3,8.3,0,0,0-1.19,2.61,11.22,11.22,0,0,0,0,5.79,8.52,8.52,0,0,0,1.14,2.61,6.29,6.29,0,0,0,2,1.93,5.36,5.36,0,0,0,2.92.76,4.66,4.66,0,0,0,2.74-.8,6.53,6.53,0,0,0,1.88-2,8.72,8.72,0,0,0,1.06-2.66A11,11,0,0,0,1063.13,747.87Z"/><path class="cls-4" d="M1073.77,738.63a15.51,15.51,0,0,1,3.28-1.47,12.7,12.7,0,0,1,3.87-.57q4.68,0,6.69,2.26t2,6.72v9c0,1.25,0,2.19,0,2.83a12,12,0,0,0,.12,1.43h-3.74V756H1086a9.23,9.23,0,0,1-.94,1.08,7.54,7.54,0,0,1-1.42,1.08,8.76,8.76,0,0,1-1.93.83,8.42,8.42,0,0,1-2.44.33,12.85,12.85,0,0,1-3.21-.38,7,7,0,0,1-2.53-1.22,5.63,5.63,0,0,1-1.64-2.11,7.3,7.3,0,0,1-.58-3.06,6.5,6.5,0,0,1,.26-1.87,5.33,5.33,0,0,1,.73-1.54,5.89,5.89,0,0,1,1.11-1.23,8.32,8.32,0,0,1,1.39-.95,11.17,11.17,0,0,1,3.28-1.19,16.08,16.08,0,0,1,3.33-.37h2.12l1,0,1.13.06a6.51,6.51,0,0,0-1.17-4.22c-.77-1-2.17-1.43-4.19-1.43a10.15,10.15,0,0,0-3.38.59A9.69,9.69,0,0,0,1074,742Zm11.87,9.82c-.42,0-.84,0-1.27,0s-.85,0-1.27,0l-.93,0-1.17.07a9.27,9.27,0,0,0-2.49.54,5.37,5.37,0,0,0-2.08,1.25,3.06,3.06,0,0,0-.87,2.29,2.93,2.93,0,0,0,.37,1.5,3.43,3.43,0,0,0,1,1.1,4.44,4.44,0,0,0,1.31.69,4.38,4.38,0,0,0,1.4.24,5.48,5.48,0,0,0,6-5.71Z"/><path class="cls-4" d="M1096.42,726.89h4v13.32h.08a7.58,7.58,0,0,1,2.9-2.7,8.79,8.79,0,0,1,4.08-.92q4.2,0,6.17,2.47a10.69,10.69,0,0,1,2,6.84v12.9h-4V747.56a12.86,12.86,0,0,0-1-5.69,4,4,0,0,0-3.61-2,6.33,6.33,0,0,0-3,.66,5.54,5.54,0,0,0-2,1.83,8.46,8.46,0,0,0-1.2,2.83,16.22,16.22,0,0,0-.38,3.62v10h-4Z"/><path class="cls-4" d="M1136.19,740.77a11.91,11.91,0,0,0-2.25-.71,10.45,10.45,0,0,0-2.1-.23,6.18,6.18,0,0,0-2.95.69,6.83,6.83,0,0,0-2.18,1.82,8.48,8.48,0,0,0-1.36,2.6,9.88,9.88,0,0,0-.47,3,10.71,10.71,0,0,0,.41,2.88,7.8,7.8,0,0,0,1.28,2.62,6.56,6.56,0,0,0,2.24,1.89,6.94,6.94,0,0,0,3.31.73,8.59,8.59,0,0,0,2.19-.32,8.2,8.2,0,0,0,2.11-.91l.29,3.58a8.44,8.44,0,0,1-2.58.73,19.94,19.94,0,0,1-2.45.16,10.8,10.8,0,0,1-10.24-7,11.93,11.93,0,0,1-.82-4.39,12.79,12.79,0,0,1,.8-4.57,10.73,10.73,0,0,1,2.25-3.59,10.26,10.26,0,0,1,3.48-2.36,11.61,11.61,0,0,1,4.53-.85,13.17,13.17,0,0,1,2.62.27,11.07,11.07,0,0,1,2.24.58Z"/><path class="cls-4" d="M1139.84,748a12.79,12.79,0,0,1,.8-4.57,10.73,10.73,0,0,1,2.25-3.59,10.21,10.21,0,0,1,3.49-2.36,11.66,11.66,0,0,1,4.54-.85,11.54,11.54,0,0,1,4.51.85,10.26,10.26,0,0,1,3.48,2.36,10.38,10.38,0,0,1,2.23,3.59,12.79,12.79,0,0,1,.79,4.57,11.93,11.93,0,0,1-.81,4.39,11.09,11.09,0,0,1-2.26,3.61,10.72,10.72,0,0,1-3.48,2.46,11,11,0,0,1-12.45-2.46,11.14,11.14,0,0,1-2.28-3.61A11.93,11.93,0,0,1,1139.84,748Zm4.26,0a10.71,10.71,0,0,0,.41,2.88,8.12,8.12,0,0,0,1.24,2.62,6.39,6.39,0,0,0,2.11,1.89,6.08,6.08,0,0,0,3.06.73,6,6,0,0,0,3-.73,6.36,6.36,0,0,0,2.1-1.89,8.31,8.31,0,0,0,1.23-2.62,10.69,10.69,0,0,0,.4-2.88,9.87,9.87,0,0,0-.46-3,8.2,8.2,0,0,0-1.33-2.6,6.54,6.54,0,0,0-2.13-1.82,5.76,5.76,0,0,0-2.83-.69,5.91,5.91,0,0,0-2.87.69,6.58,6.58,0,0,0-2.14,1.82,8.66,8.66,0,0,0-1.34,2.6A9.88,9.88,0,0,0,1144.1,748Z"/></svg>