<svg id="Layer_1" data-name="Layer 1" xmlns="http://www.w3.org/2000/svg" xmlns:xlink="http://www.w3.org/1999/xlink" viewBox="0 0 1920 1080"><defs><style>.cls-1,.cls-10,.cls-5,.cls-7{fill:none;}.cls-2,.cls-3,.cls-4{fill:#2a2a68;}.cls-3{font-size:41.91px;font-family:UniversLTStd-Bold, Univers LT Std;font-weight:700;}.cls-4{font-size:16.16px;font-family:UniversLTStd, Univers LT Std;}.cls-5{stroke:#2a2a68;stroke-width:0.5px;}.cls-10,.cls-5,.cls-7{stroke-miterlimit:10;}.cls-6{clip-path:url(#clip-path);}.cls-7{stroke:#22a4dc;stroke-width:0.38px;}.cls-8{fill:#999eac;}.cls-9{fill:#cd4055;}.cls-10{stroke:#999eac;stroke-width:0.3px;}.cls-11{fill:#22a4dc;}</style><clipPath id="clip-path"><rect class="cls-1" x="1.5" y="-6.15" width="1920.5" height="1086.14"/></clipPath></defs><rect class="cls-2" y="0.84" width="1920.5" height="1079.16"/><text class="cls-3" transform="translate(74.32 1022.82)">4</text><text class="cls-4" transform="translate(163.05 1017.3)">Qubbah Profle</text><line class="cls-5" x1="327.79" y1="1013.49" x2="1748.16" y2="1005.41"/><g class="cls-6"><path class="cls-7" d="M-112.26,1477.64c-161.89,84-313.67,80.95-367,11.48-21.37-27.82-29.58-69.71-25.59-105.48,7.45-66.83,59.8-111.51,107.91-152.37l190.5-161.8C-131.83,1006.07-53.85,961.9,39,930.93c109.17-36.42,228.23-47.66,343.33-34.21a822.26,822.26,0,0,1,172.87,39.42c53.06,18.32,106.86,32.79,160.88,49,83.37,25,167.08,55,254.85,58.6q119.34,4.86,232.26-168.45l293.31,173.16q-203.17,475.41-591.82,459.6-116.74-4.75-358-89.7-241.62-84.84-341.33-89c-66.64-2.71-121,5.53-162.37,24Q-19.42,1381.4-112.26,1477.64Z"/></g><path class="cls-8" d="M230.58,1016h4.92c1.79,0,3,.11,4,1.18a4,4,0,0,1,1.08,2.85,3.91,3.91,0,0,1-1.16,2.87c-.77.77-1.79,1.26-4.43,1.26h-2.38v6.52h-2Zm2,6.45H235c1.34,0,3.39-.1,3.39-2.5s-1.91-2.3-3-2.3h-2.84Z"/><path class="cls-8" d="M242.71,1022.55c0-.69,0-1.4-.1-2.07h1.93l0,2a2.76,2.76,0,0,1,2.44-2,5.58,5.58,0,0,1,1.32,0v1.87a1.19,1.19,0,0,0-.36-.09,4.45,4.45,0,0,0-.55,0c-2.26,0-2.79,1.34-2.79,3.09v5.43h-1.93Z"/><path class="cls-8" d="M255,1020.21c4.09,0,5,3.21,5,5.35,0,3-1.69,5.47-5.17,5.47s-5-2.34-5-5.33C249.77,1023.18,251,1020.21,255,1020.21Zm-.12,9.39c1.45,0,3.09-1,3.09-4.1,0-2.54-1.18-3.88-3-3.88-1.22,0-3.19.77-3.19,4C251.76,1027.67,252.66,1029.6,254.83,1029.6Z"/><path class="cls-8" d="M261.14,1033.24c1.51.06,1.87-.2,1.87-1.83v-10.93h1.91v11.15c0,1,0,3-2.6,3a11.19,11.19,0,0,1-1.18-.08Zm1.69-17.19h2.32v2.11h-2.32Z"/><path class="cls-8" d="M269.77,1025.92c0,2.12.83,3.68,2.93,3.68a2.22,2.22,0,0,0,2.4-2.11H277a3.46,3.46,0,0,1-.88,2.13,4.39,4.39,0,0,1-3.52,1.36c-3.21,0-4.74-2-4.74-5.22,0-2,.41-3.68,2-4.8a4.88,4.88,0,0,1,2.78-.75c4.58,0,4.48,4,4.44,5.71Zm5.39-1.34c0-1-.17-3-2.53-3a2.74,2.74,0,0,0-2.78,3Z"/><path class="cls-8" d="M285.74,1023.75a2,2,0,0,0-2-2.13c-2.64,0-2.64,3.06-2.64,3.84,0,2.09.51,4,2.54,4a2.12,2.12,0,0,0,2.22-2.21h1.93a3.86,3.86,0,0,1-4.13,3.65,4.58,4.58,0,0,1-3.35-1.32,5.47,5.47,0,0,1-1.23-3.9c0-4.25,2.61-5.51,4.64-5.51a4.13,4.13,0,0,1,3.13,1.26,3.52,3.52,0,0,1,.86,2.28Z"/><path class="cls-8" d="M288.53,1020.44h1.81v-2.14l1.89-.61v2.75h2.28v1.4h-2.28V1028c0,.5,0,1.36,1.36,1.36a4.37,4.37,0,0,0,.92-.1v1.48a9.69,9.69,0,0,1-1.59.12c-1.75,0-2.58-.51-2.58-2.17v-6.81h-1.81Z"/><path class="cls-8" d="M142.8,989h4.89c1.78,0,3,.1,4,1.17a4,4,0,0,1,1.07,2.83,3.85,3.85,0,0,1-1.15,2.85c-.77.77-1.78,1.25-4.41,1.25h-2.36v6.49h-2Zm2,6.41h2.41c1.33,0,3.37-.11,3.37-2.49s-1.9-2.28-2.95-2.28h-2.83Z"/><path class="cls-8" d="M160.73,1003.56a5.55,5.55,0,0,1-.18-1.52,3.28,3.28,0,0,1-3.13,1.84c-2.33,0-3.58-1.31-3.58-3a3.33,3.33,0,0,1,1.78-3,7.86,7.86,0,0,1,3.51-.67c.49,0,.79,0,1.38.06,0-1.25,0-1.79-.36-2.24a2.36,2.36,0,0,0-1.76-.66c-1.92,0-2,1.31-2,1.71h-1.9a3.22,3.22,0,0,1,.71-1.92,4.57,4.57,0,0,1,3.28-1.09c1.47,0,3,.47,3.6,1.5a3,3,0,0,1,.34,1.55l-.08,4.85a23.85,23.85,0,0,0,.16,2.55Zm-1.31-5c-.77,0-3.66,0-3.66,2.06,0,.64.4,1.75,2.1,1.75a2.42,2.42,0,0,0,2.16-1.09,4.68,4.68,0,0,0,.49-2.66A8.49,8.49,0,0,0,159.42,998.57Z"/><path class="cls-8" d="M167.61,1004.34c.08,1.14.56,2,2.36,2,2.65,0,2.69-1.91,2.69-4.66a3.53,3.53,0,0,1-3.33,1.72,3.93,3.93,0,0,1-3.12-1.26,5.67,5.67,0,0,1-1.15-3.74c0-3.43,2-5.11,4.51-5.11a3.52,3.52,0,0,1,3.19,1.54l0-1.39h1.84l0,1.83,0,6.35c0,2.44-.08,3.43-.48,4.2-.85,1.62-2.83,1.82-4.23,1.82-4.06,0-4.18-1.9-4.27-3.28ZM172,1001c.41-.53.69-1.07.69-2.91a3.33,3.33,0,0,0-.79-2.52,3,3,0,0,0-2.18-.89c-2.41,0-2.73,2.42-2.73,3.71,0,1.56.47,3.62,2.79,3.62A2.54,2.54,0,0,0,172,1001Z"/><path class="cls-8" d="M179.29,998.83c0,2.1.83,3.66,2.91,3.66a2.21,2.21,0,0,0,2.39-2.11h1.9a3.44,3.44,0,0,1-.87,2.13,4.4,4.4,0,0,1-3.5,1.35c-3.19,0-4.71-2-4.71-5.19,0-2,.41-3.66,2-4.77a4.89,4.89,0,0,1,2.77-.75c4.55,0,4.45,4,4.41,5.68Zm5.36-1.33c0-1-.16-3-2.51-3a2.72,2.72,0,0,0-2.77,3Z"/><path class="cls-9" d="M158,1029v-3.27l6.79-10h3.61l0,10.44h2.31V1029h-2.31v3.68h-3.59V1029Zm2.71-2.71H165v-4.46c0-.22,0-1.43.05-1.87Z"/><line class="cls-10" x1="204.53" y1="1028.78" x2="204.53" y2="990.02"/><path class="cls-11" d="M925.43,395.18H940v2.72H925.43Zm0,6.29H940v2.72H925.43Z"/><path class="cls-11" d="M897.44,451.34h14.92V422.13h6.07v29.21h9a1.92,1.92,0,0,0,1.69-.94,5.2,5.2,0,0,0,.63-2.86V409h6.06v39.41a10.7,10.7,0,0,0,3.89,2.17,18.8,18.8,0,0,0,5.61.72h.27a3.32,3.32,0,0,1,1.82.4,1.54,1.54,0,0,1,.6,1.38v2.32a2.47,2.47,0,0,1-.18,1,1.37,1.37,0,0,1-.52.59,2.4,2.4,0,0,1-.78.27,6.91,6.91,0,0,1-.94.07h-.34a19.62,19.62,0,0,1-3.49-.29,14.73,14.73,0,0,1-2.83-.79,11.87,11.87,0,0,1-2.27-1.2,13.55,13.55,0,0,1-1.85-1.49,7.3,7.3,0,0,1-2.28,2.66,6.38,6.38,0,0,1-3.87,1.11H897.44Z"/><path class="cls-11" d="M955.08,451.34a16.85,16.85,0,0,1-2.06-8.08,14.71,14.71,0,0,1,1.5-6.58,12.86,12.86,0,0,1,4.36-5c-.42-.12-.8-.21-1.12-.29l-.63-.15a10.27,10.27,0,0,1,.64-1.58c.27-.54.54-1.05.81-1.52s.53-.89.78-1.27.43-.68.57-.88a97.13,97.13,0,0,1,12.63,3.3,30,30,0,0,1,8.52,4.37,15.63,15.63,0,0,1,4.84,6,20.09,20.09,0,0,1,1.53,8.19v.47q0,.32,0,1.23t-.12,2.76c-.06,1.23-.13,2.91-.22,5.07H945.61a3.31,3.31,0,0,1-1.82-.41,1.54,1.54,0,0,1-.6-1.38v-2.32a2.5,2.5,0,0,1,.18-1,1.4,1.4,0,0,1,.52-.58,2,2,0,0,1,.78-.27,5.53,5.53,0,0,1,.94-.07Zm13.4,0a12.3,12.3,0,0,0,.83-1.73,20,20,0,0,0,.74-2.26c.21-.79.39-1.59.54-2.39a11.73,11.73,0,0,0,.22-2.17,13.5,13.5,0,0,0-.54-4.12,8.12,8.12,0,0,0-1.4-2.71,5.3,5.3,0,0,0-1.9-1.5,5.18,5.18,0,0,0-2.06-.45,5,5,0,0,0-2.88.82,7.12,7.12,0,0,0-2,2.11,10,10,0,0,0-1.25,2.81,11.1,11.1,0,0,0-.42,2.94,11.71,11.71,0,0,0,.44,3.32,11.22,11.22,0,0,0,1.09,2.54,8.48,8.48,0,0,0,1.42,1.78,5.33,5.33,0,0,0,1.43,1Zm13.07,0c.09-.65.17-1.31.22-2s.09-1.34.09-2a16.32,16.32,0,0,0-.34-3.31,9.88,9.88,0,0,0-1.21-3.13,9.61,9.61,0,0,0-2.43-2.66,12,12,0,0,0-4-1.9,10,10,0,0,1,1.24,3.13,16.45,16.45,0,0,1,.37,3.53,20.89,20.89,0,0,1-.13,2.39c-.09.79-.22,1.55-.37,2.27s-.34,1.41-.54,2a13.61,13.61,0,0,1-.64,1.65Z"/><path class="cls-11" d="M1006,396.18c-.17,0-.44-.08-.8-.13a10.71,10.71,0,0,0-1.18-.07,4.43,4.43,0,0,0-2.39.58,2.06,2.06,0,0,0-.95,1.91,2.84,2.84,0,0,0,.31,1.28,3.29,3.29,0,0,0,.91,1.15,4.81,4.81,0,0,0,1.53.82,6.81,6.81,0,0,0,2.2.32h1v2.83H996.21V402h3.84a3.92,3.92,0,0,1-.67-.57,4.73,4.73,0,0,1-.71-.93,6.1,6.1,0,0,1-.58-1.26,5.19,5.19,0,0,1-.23-1.58,4.38,4.38,0,0,1,.35-1.7,4,4,0,0,1,1.1-1.46,5.48,5.48,0,0,1,1.87-1,8.07,8.07,0,0,1,2.64-.39c.38,0,.79,0,1.23,0a11.16,11.16,0,0,1,1.43.16Zm-7.47,12.89h6.06v48.36h-6.06Z"/></svg>