<svg id="Layer_1" data-name="Layer 1" xmlns="http://www.w3.org/2000/svg" xmlns:xlink="http://www.w3.org/1999/xlink" viewBox="0 0 1920 1080"><defs><style>.cls-1,.cls-6,.cls-9{fill:none;}.cls-2,.cls-3,.cls-4{fill:#2a2a68;}.cls-3{font-size:41.91px;font-family:UniversLTStd-Bold, Univers LT Std;font-weight:700;}.cls-4{font-size:16.16px;font-family:UniversLTStd, Univers LT Std;}.cls-5{clip-path:url(#clip-path);}.cls-6{stroke:#22a4dc;stroke-width:0.38px;}.cls-6,.cls-9{stroke-miterlimit:10;}.cls-7{fill:#999eac;}.cls-8{fill:#cd4055;}.cls-9{stroke:#999eac;stroke-width:0.3px;}.cls-10{fill:#22a4dc;}</style><clipPath id="clip-path"><rect class="cls-1" x="1.5" y="-6.15" width="1920.5" height="1086.14"/></clipPath></defs><rect class="cls-2" y="0.84" width="1920.5" height="1079.16"/><text class="cls-3" transform="translate(74.32 1022.82)">4</text><text class="cls-4" transform="translate(163.05 1017.3)">Qubbah Profle</text><g class="cls-5"><path class="cls-6" d="M-112.26,1477.64c-161.89,84-313.67,80.95-367,11.48-21.37-27.82-29.58-69.71-25.59-105.48,7.45-66.83,59.8-111.51,107.91-152.37l190.5-161.8C-131.83,1006.07-53.85,961.9,39,930.93c109.17-36.42,228.23-47.66,343.33-34.21a822.26,822.26,0,0,1,172.87,39.42c53.06,18.32,106.86,32.79,160.88,49,83.37,25,167.08,55,254.85,58.6q119.34,4.86,232.26-168.45l293.31,173.16q-203.17,475.41-591.82,459.6-116.74-4.75-358-89.7-241.62-84.84-341.33-89c-66.64-2.71-121,5.53-162.37,24Q-19.42,1381.4-112.26,1477.64Z"/></g><path class="cls-7" d="M230.58,1016h4.92c1.79,0,3,.11,4,1.18a4,4,0,0,1,1.08,2.85,3.91,3.91,0,0,1-1.16,2.87c-.77.77-1.79,1.26-4.43,1.26h-2.38v6.52h-2Zm2,6.45H235c1.34,0,3.39-.1,3.39-2.5s-1.91-2.3-3-2.3h-2.84Z"/><path class="cls-7" d="M242.71,1022.55c0-.69,0-1.4-.1-2.07h1.93l0,2a2.76,2.76,0,0,1,2.44-2,5.58,5.58,0,0,1,1.32,0v1.87a1.19,1.19,0,0,0-.36-.09,4.45,4.45,0,0,0-.55,0c-2.26,0-2.79,1.34-2.79,3.09v5.43h-1.93Z"/><path class="cls-7" d="M255,1020.21c4.09,0,5,3.21,5,5.35,0,3-1.69,5.47-5.17,5.47s-5-2.34-5-5.33C249.77,1023.18,251,1020.21,255,1020.21Zm-.12,9.39c1.45,0,3.09-1,3.09-4.1,0-2.54-1.18-3.88-3-3.88-1.22,0-3.19.77-3.19,4C251.76,1027.67,252.66,1029.6,254.83,1029.6Z"/><path class="cls-7" d="M261.14,1033.24c1.51.06,1.87-.2,1.87-1.83v-10.93h1.91v11.15c0,1,0,3-2.6,3a11.19,11.19,0,0,1-1.18-.08Zm1.69-17.19h2.32v2.11h-2.32Z"/><path class="cls-7" d="M269.77,1025.92c0,2.12.83,3.68,2.93,3.68a2.22,2.22,0,0,0,2.4-2.11H277a3.46,3.46,0,0,1-.88,2.13,4.39,4.39,0,0,1-3.52,1.36c-3.21,0-4.74-2-4.74-5.22,0-2,.41-3.68,2-4.8a4.88,4.88,0,0,1,2.78-.75c4.58,0,4.48,4,4.44,5.71Zm5.39-1.34c0-1-.17-3-2.53-3a2.74,2.74,0,0,0-2.78,3Z"/><path class="cls-7" d="M285.74,1023.75a2,2,0,0,0-2-2.13c-2.64,0-2.64,3.06-2.64,3.84,0,2.09.51,4,2.54,4a2.12,2.12,0,0,0,2.22-2.21h1.93a3.86,3.86,0,0,1-4.13,3.65,4.58,4.58,0,0,1-3.35-1.32,5.47,5.47,0,0,1-1.23-3.9c0-4.25,2.61-5.51,4.64-5.51a4.13,4.13,0,0,1,3.13,1.26,3.52,3.52,0,0,1,.86,2.28Z"/><path class="cls-7" d="M288.53,1020.44h1.81v-2.14l1.89-.61v2.75h2.28v1.4h-2.28V1028c0,.5,0,1.36,1.36,1.36a4.37,4.37,0,0,0,.92-.1v1.48a9.69,9.69,0,0,1-1.59.12c-1.75,0-2.58-.51-2.58-2.17v-6.81h-1.81Z"/><path class="cls-7" d="M142.8,989h4.89c1.78,0,3,.1,4,1.17a4,4,0,0,1,1.08,2.83,3.86,3.86,0,0,1-1.16,2.85c-.77.77-1.78,1.25-4.4,1.25h-2.37v6.49h-2Zm2,6.41h2.41c1.33,0,3.37-.11,3.37-2.49s-1.9-2.28-2.95-2.28h-2.83Z"/><path class="cls-7" d="M160.73,1003.56a5.55,5.55,0,0,1-.18-1.52,3.27,3.27,0,0,1-3.13,1.84c-2.33,0-3.58-1.31-3.58-3a3.33,3.33,0,0,1,1.78-3,8,8,0,0,1,3.51-.67c.49,0,.79,0,1.38.07,0-1.26,0-1.8-.36-2.25a2.36,2.36,0,0,0-1.76-.66c-1.92,0-2,1.31-2,1.71h-1.9a3.29,3.29,0,0,1,.71-1.92,4.63,4.63,0,0,1,3.28-1.09c1.47,0,3,.47,3.6,1.5a3,3,0,0,1,.34,1.55l-.08,4.85a23.85,23.85,0,0,0,.16,2.55Zm-1.31-5c-.77,0-3.66,0-3.66,2.06,0,.64.4,1.76,2.1,1.76a2.43,2.43,0,0,0,2.16-1.1,4.68,4.68,0,0,0,.49-2.66A8.49,8.49,0,0,0,159.42,998.57Z"/><path class="cls-7" d="M167.61,1004.35c.08,1.13.56,2,2.36,2,2.65,0,2.69-1.92,2.69-4.67a3.53,3.53,0,0,1-3.33,1.72,3.93,3.93,0,0,1-3.12-1.26,5.66,5.66,0,0,1-1.15-3.73c0-3.44,2-5.12,4.51-5.12a3.52,3.52,0,0,1,3.19,1.54l0-1.39h1.84l0,1.83,0,6.35c0,2.44-.08,3.43-.48,4.2-.85,1.62-2.83,1.82-4.23,1.82-4.06,0-4.18-1.9-4.26-3.27ZM172,1001c.41-.52.69-1.07.69-2.91a3.33,3.33,0,0,0-.79-2.52,3,3,0,0,0-2.18-.89c-2.41,0-2.73,2.42-2.73,3.72,0,1.55.47,3.61,2.79,3.61A2.54,2.54,0,0,0,172,1001Z"/><path class="cls-7" d="M179.29,998.83c0,2.1.83,3.66,2.92,3.66a2.21,2.21,0,0,0,2.38-2.1h1.9a3.43,3.43,0,0,1-.87,2.12,4.4,4.4,0,0,1-3.5,1.35c-3.19,0-4.71-2-4.71-5.19,0-2,.41-3.66,2-4.77a4.86,4.86,0,0,1,2.77-.75c4.54,0,4.44,4,4.4,5.68Zm5.36-1.33c0-1-.16-3-2.51-3a2.71,2.71,0,0,0-2.76,3Z"/><path class="cls-8" d="M161.92,1028.48a1.9,1.9,0,0,0,2,1.89c1.31,0,2.5-.95,2.5-3.18,0-1.62-.63-3-2.26-3a2.18,2.18,0,0,0-2.16,1.7l-3.51-.1.38-10h10.27v2.77h-7.06l-.22,4.19a4.26,4.26,0,0,1,3.2-1.21c2.72,0,5,2,5,5.38,0,2.88-1.7,6.13-6,6.13a6,6,0,0,1-4.73-1.84,4.17,4.17,0,0,1-.95-2.69Z"/><line class="cls-9" x1="204.53" y1="1028.78" x2="204.53" y2="990.02"/><path class="cls-10" d="M1195.16,375.48a12.09,12.09,0,0,1-1.43-2.27,14.22,14.22,0,0,1-.87-2.27,12.64,12.64,0,0,1-.44-2.15,17.25,17.25,0,0,1-.12-2,14.8,14.8,0,0,1,1-5.41A13.63,13.63,0,0,1,1196,357a13.06,13.06,0,0,1,9.69-4.12c.47,0,1,0,1.61.07s1.23.1,1.86.17,1.21.15,1.75.25a7.3,7.3,0,0,1,1.31.35l-.6,6.33c-.45-.14-1-.27-1.55-.39s-1.19-.22-1.81-.3-1.23-.15-1.83-.2-1.15-.09-1.62-.09a9.42,9.42,0,0,0-2.36.32,6,6,0,0,0-2.22,1.13,6.3,6.3,0,0,0-1.67,2.15,7.64,7.64,0,0,0-.65,3.37,8.55,8.55,0,0,0,.64,3.35,7.59,7.59,0,0,0,1.81,2.64,8.41,8.41,0,0,0,2.82,1.73,10,10,0,0,0,3.62.62H1215v6.06h-15.16a8.52,8.52,0,0,0-3.35.66,8,8,0,0,0-2.75,1.9,9.18,9.18,0,0,0-1.87,3.06,11.5,11.5,0,0,0-.69,4.11,10.65,10.65,0,0,0,.63,3.56,8.77,8.77,0,0,0,2,3.2,10.2,10.2,0,0,0,3.42,2.31,12.93,12.93,0,0,0,5,.89,23.72,23.72,0,0,0,3.25-.24c1.16-.16,2.27-.34,3.32-.54v5.52c-.65.18-1.26.33-1.82.44l-1.65.3c-.54.09-1.07.15-1.6.19s-1.09,0-1.7,0a20.64,20.64,0,0,1-5.3-.64,17,17,0,0,1-4.25-1.75,14.55,14.55,0,0,1-3.23-2.58,14,14,0,0,1-2.24-3.14,15.58,15.58,0,0,1-1.32-3.47,14.7,14.7,0,0,1-.43-3.5,18.79,18.79,0,0,1,.75-5.47,15.54,15.54,0,0,1,2.11-4.39,14.37,14.37,0,0,1,3.15-3.26A16.1,16.1,0,0,1,1195.16,375.48Z"/><path class="cls-10" d="M1244.14,379.18a12.49,12.49,0,0,1-1.72.64,14.78,14.78,0,0,1-1.81.42,16.26,16.26,0,0,1-1.76.22c-.56.05-1.07.07-1.55.07a16,16,0,0,1-6.5-1.19,12.78,12.78,0,0,1-4.33-3.08,11.75,11.75,0,0,1-2.42-4.26,15.23,15.23,0,0,1-.76-4.69,14.88,14.88,0,0,1,1-5.49,13.23,13.23,0,0,1,2.9-4.46,13.58,13.58,0,0,1,4.54-3,15.81,15.81,0,0,1,6-1.07,16,16,0,0,1,2.77.25,11.17,11.17,0,0,1,5.5,2.67,10.87,10.87,0,0,1,2.19,2.81,15.86,15.86,0,0,1,1.5,4.07,24.38,24.38,0,0,1,.56,5.5v5.66a22.56,22.56,0,0,1-1.65,9.18,16,16,0,0,1-4.58,6.08,20.24,20.24,0,0,1-7,3.58,46.39,46.39,0,0,1-8.91,1.68l-.64-5.82a33.4,33.4,0,0,0,6.62-1.08,19.32,19.32,0,0,0,5-2.07,12.05,12.05,0,0,0,3.35-2.94A10.07,10.07,0,0,0,1244.14,379.18Zm-5.86-4.71a16.76,16.76,0,0,0,1.72-.08c.58-.06,1.14-.13,1.67-.23s1-.22,1.45-.34a7.31,7.31,0,0,0,1-.35v-2.92a21.9,21.9,0,0,0-.65-5.86,9.61,9.61,0,0,0-1.72-3.53,5.38,5.38,0,0,0-2.43-1.71,8.7,8.7,0,0,0-2.74-.46,7.36,7.36,0,0,0-2.9.58,6.8,6.8,0,0,0-2.34,1.61,7.59,7.59,0,0,0-1.57,2.5,8.73,8.73,0,0,0-.57,3.21,8.43,8.43,0,0,0,.5,2.88,6.2,6.2,0,0,0,1.61,2.42,7.65,7.65,0,0,0,2.81,1.66A12,12,0,0,0,1238.28,374.47Z"/><path class="cls-10" d="M1254.59,388.71a21.25,21.25,0,0,0,5.74-1.43,7.5,7.5,0,0,0,4.7-6,28.62,28.62,0,0,0,.34-4.58V354.42h6.06v19.95h7.91a3.29,3.29,0,0,1,1.82.41,1.52,1.52,0,0,1,.61,1.38v2.32a2.31,2.31,0,0,1-.19,1,1.28,1.28,0,0,1-.52.58,1.91,1.91,0,0,1-.77.27,5.65,5.65,0,0,1-1,.07h-8.25a19.93,19.93,0,0,1-1.7,6,12.27,12.27,0,0,1-3.17,4.09,14.44,14.44,0,0,1-4.71,2.58,36.34,36.34,0,0,1-6.32,1.43Z"/><path class="cls-10" d="M1297.6,372.46a10.56,10.56,0,0,0,3.89,1.53,25.6,25.6,0,0,0,4.45.38h2.34a1.94,1.94,0,0,0,1.7-.94,5.2,5.2,0,0,0,.63-2.86V358.09h6.06v14a10.57,10.57,0,0,0,3.95,1.78,21.08,21.08,0,0,0,4.9.54h2.33a1.92,1.92,0,0,0,1.7-.94,5.2,5.2,0,0,0,.63-2.86V354.42h6.06v17.4a10.65,10.65,0,0,0,3.77,1.91,19.24,19.24,0,0,0,5.36.64h.27a3.31,3.31,0,0,1,1.82.41,1.54,1.54,0,0,1,.6,1.38v2.32a2.47,2.47,0,0,1-.18,1,1.34,1.34,0,0,1-.52.58,2,2,0,0,1-.78.27,5.53,5.53,0,0,1-.94.07h-.34a16.17,16.17,0,0,1-6.11-1,13,13,0,0,1-4-2.54,7.37,7.37,0,0,1-2.29,2.5,6.45,6.45,0,0,1-3.77,1h-3.64a19.7,19.7,0,0,1-5.3-.74,11.63,11.63,0,0,1-4.7-2.59,7.43,7.43,0,0,1-2.27,2.37,6.43,6.43,0,0,1-3.65,1h-3.64a18.59,18.59,0,0,1-2.57-.17,16.7,16.7,0,0,1-2.55-.52,13.66,13.66,0,0,1-2.4-.92,11.49,11.49,0,0,1-2.18-1.42,7.39,7.39,0,0,1-2.22,2.16,6.44,6.44,0,0,1-3.5.87h-11.12a3.28,3.28,0,0,1-1.81-.4,1.52,1.52,0,0,1-.61-1.38v-2.32a2.47,2.47,0,0,1,.18-1,1.33,1.33,0,0,1,.53-.59,2.27,2.27,0,0,1,.77-.27,6.91,6.91,0,0,1,.94-.07h9.87a2,2,0,0,0,1.71-.94,5.3,5.3,0,0,0,.62-2.86V361h6.06Zm8.05-30.12a3.47,3.47,0,0,1,.29-1.4,3.61,3.61,0,0,1,.76-1.14,3.36,3.36,0,0,1,1.13-.78,3.42,3.42,0,0,1,1.39-.28,3.47,3.47,0,0,1,1.4.28,3.65,3.65,0,0,1,1.92,1.92,3.47,3.47,0,0,1,.29,1.4,3.43,3.43,0,0,1-.29,1.39,3.48,3.48,0,0,1-.77,1.13,3.78,3.78,0,0,1-1.15.76,3.54,3.54,0,0,1-5-3.28Zm4.75-9a3.51,3.51,0,0,1,.29-1.4,3.61,3.61,0,0,1,.76-1.14,3.51,3.51,0,0,1,1.13-.78,3.42,3.42,0,0,1,1.39-.28,3.47,3.47,0,0,1,1.4.28,3.83,3.83,0,0,1,1.15.78,3.64,3.64,0,0,1,.77,1.14,3.52,3.52,0,0,1,0,2.8,3.55,3.55,0,0,1-.77,1.12,3.78,3.78,0,0,1-1.15.76,3.54,3.54,0,0,1-5-3.28Zm4.85,9a3.47,3.47,0,0,1,.29-1.4,3.61,3.61,0,0,1,.76-1.14,3.36,3.36,0,0,1,1.13-.78,3.47,3.47,0,0,1,1.4-.28,3.42,3.42,0,0,1,1.39.28,3.65,3.65,0,0,1,1.92,1.92,3.47,3.47,0,0,1,.29,1.4,3.43,3.43,0,0,1-.29,1.39,3.48,3.48,0,0,1-.77,1.13,3.78,3.78,0,0,1-1.15.76,3.42,3.42,0,0,1-1.39.28,3.5,3.5,0,0,1-3.58-3.56Z"/><path class="cls-10" d="M1356.05,375.79a11.4,11.4,0,0,1-1.5,2.2,6.76,6.76,0,0,1-3.76,2.21,12.56,12.56,0,0,1-2.49.23h-2.63a3.32,3.32,0,0,1-1.82-.4,1.54,1.54,0,0,1-.6-1.38v-2.32a2.47,2.47,0,0,1,.18-1,1.33,1.33,0,0,1,.53-.59,2.27,2.27,0,0,1,.77-.27,6.91,6.91,0,0,1,.94-.07h1.59a7.21,7.21,0,0,0,3.72-1,4.81,4.81,0,0,0,2.2-3,39.89,39.89,0,0,1,2.2-6.21,25.9,25.9,0,0,1,2.54-4.44,15.49,15.49,0,0,1,2.71-3,13.72,13.72,0,0,1,2.73-1.77,10.28,10.28,0,0,1,2.58-.86,13.47,13.47,0,0,1,2.27-.22,12.75,12.75,0,0,1,4.11.64,12.07,12.07,0,0,1,3.3,1.74,12.69,12.69,0,0,1,2.53,2.54A15.94,15.94,0,0,1,1381,365a15.36,15.36,0,0,1,.33,3.06,12.83,12.83,0,0,1-.67,3.94,11.14,11.14,0,0,0,3.72,1.76,19.41,19.41,0,0,0,5.17.59h.27a3.29,3.29,0,0,1,1.82.41,1.52,1.52,0,0,1,.61,1.38v2.32a2.31,2.31,0,0,1-.19,1,1.34,1.34,0,0,1-.52.58,2,2,0,0,1-.77.27,5.73,5.73,0,0,1-1,.07h-.34a18.58,18.58,0,0,1-3.75-.34,13.92,13.92,0,0,1-3-.92,11.8,11.8,0,0,1-2.36-1.38,14.09,14.09,0,0,1-1.89-1.7,12.46,12.46,0,0,1-10.2,4.68,17.28,17.28,0,0,1-4.1-.46,18.14,18.14,0,0,1-3.43-1.16,15,15,0,0,1-2.73-1.6A12.51,12.51,0,0,1,1356.05,375.79Zm19.81-7a10.57,10.57,0,0,0-.46-2.83,10.34,10.34,0,0,0-1.41-3,8.43,8.43,0,0,0-2.45-2.38,6.32,6.32,0,0,0-3.53-1,6.49,6.49,0,0,0-3.59,1.05,10.67,10.67,0,0,0-2.88,2.74,16.56,16.56,0,0,0-2.09,3.89,21.93,21.93,0,0,0-1.21,4.51,3.89,3.89,0,0,0,1.31,1,13.63,13.63,0,0,0,2.28.94,21.4,21.4,0,0,0,2.76.69,15.43,15.43,0,0,0,2.81.27,20.7,20.7,0,0,0,3.49-.27,8.14,8.14,0,0,0,2.68-.92,4.43,4.43,0,0,0,1.7-1.81A6.37,6.37,0,0,0,1375.86,368.79Z"/><path class="cls-10" d="M1389.8,380.43a3.32,3.32,0,0,1-1.82-.4,1.54,1.54,0,0,1-.6-1.38v-2.32a2.47,2.47,0,0,1,.18-1,1.37,1.37,0,0,1,.52-.59,2.4,2.4,0,0,1,.78-.27,6.79,6.79,0,0,1,.94-.07H1399v-42.3H1405v48.36Z"/><path class="cls-10" d="M1416.48,332.11h6.06v48.35h-6.06Z"/><path class="cls-10" d="M1474.59,369.66a14.27,14.27,0,0,0,.15,2.26,2.52,2.52,0,0,0,2,2.22,9.6,9.6,0,0,0,2.32.23h2.36a3.31,3.31,0,0,1,1.82.41,1.54,1.54,0,0,1,.6,1.38v2.32a2.47,2.47,0,0,1-.18,1,1.34,1.34,0,0,1-.52.58,2,2,0,0,1-.78.27,5.53,5.53,0,0,1-.94.07h-3.88a15.08,15.08,0,0,1-3.83-.42,8.81,8.81,0,0,1-2.6-1.11,5.1,5.1,0,0,1-1.59-1.62,7.13,7.13,0,0,1-.83-1.93,19.41,19.41,0,0,1-4.75,2.15,16.68,16.68,0,0,1-4.59.64,15.19,15.19,0,0,1-4.07-.57,11.27,11.27,0,0,1-3.72-1.8,9.48,9.48,0,0,1-2.73-3.15,9.35,9.35,0,0,1-1.06-4.61,9.56,9.56,0,0,1,1-4.52,13.22,13.22,0,0,1,2.75-3.59,18.89,18.89,0,0,1,3.89-2.76,42.31,42.31,0,0,1,4.49-2.07q2.31-.88,4.53-1.53l4-1.14v-3.57h6.06Zm-6.06-11.84a52.38,52.38,0,0,0-6.13,1.51,23.2,23.2,0,0,0-4.75,2,10.16,10.16,0,0,0-3.09,2.61,5.25,5.25,0,0,0-1.09,3.26,4.69,4.69,0,0,0,.62,2.49,4.77,4.77,0,0,0,1.64,1.61,7.19,7.19,0,0,0,2.25.88,12,12,0,0,0,2.53.27,15,15,0,0,0,4.4-.61,13.49,13.49,0,0,0,3.62-1.68Zm-10.82-17.17a3.46,3.46,0,0,1,.29-1.39,3.78,3.78,0,0,1,.76-1.15,3.48,3.48,0,0,1,1.13-.77,3.5,3.5,0,0,1,2.79,0,3.56,3.56,0,0,1,1.92,1.92,3.5,3.5,0,0,1,0,2.79,3.59,3.59,0,0,1-.77,1.13,4,4,0,0,1-1.15.76,3.43,3.43,0,0,1-1.4.28,3.5,3.5,0,0,1-3.57-3.57Zm9.6,0a3.46,3.46,0,0,1,.29-1.39,3.78,3.78,0,0,1,.76-1.15,3.48,3.48,0,0,1,1.13-.77,3.5,3.5,0,0,1,2.79,0,3.56,3.56,0,0,1,1.92,1.92,3.5,3.5,0,0,1,0,2.79,3.59,3.59,0,0,1-.77,1.13,4,4,0,0,1-1.15.76,3.43,3.43,0,0,1-1.4.28,3.5,3.5,0,0,1-3.57-3.57Z"/><path class="cls-10" d="M1490.05,366.9a13.83,13.83,0,0,1,1-5.4,13.57,13.57,0,0,1,2.88-4.37,13.22,13.22,0,0,1,4.37-2.93,15.13,15.13,0,0,1,10.76-.14,10.79,10.79,0,0,1,3.9,2.66,11.72,11.72,0,0,1,2.44,4.26,18,18,0,0,1,.84,5.69v13.76H1481.4a3.3,3.3,0,0,1-1.82-.4,1.52,1.52,0,0,1-.61-1.38v-2.32a2.31,2.31,0,0,1,.19-1,1.25,1.25,0,0,1,.52-.59,2.27,2.27,0,0,1,.77-.27,6.94,6.94,0,0,1,1-.07h10.81v-.2a5.67,5.67,0,0,1-.83-1.21,10.91,10.91,0,0,1-.69-1.7,13.68,13.68,0,0,1-.47-2.07A15.52,15.52,0,0,1,1490.05,366.9Zm4.42-24.56a3.47,3.47,0,0,1,.28-1.4,3.79,3.79,0,0,1,.76-1.14,3.36,3.36,0,0,1,1.13-.78,3.47,3.47,0,0,1,1.4-.28,3.42,3.42,0,0,1,1.39.28,3.66,3.66,0,0,1,1.15.78,3.62,3.62,0,0,1,1.06,2.54,3.43,3.43,0,0,1-.29,1.39,3.33,3.33,0,0,1-.77,1.13,3.78,3.78,0,0,1-1.15.76,3.42,3.42,0,0,1-1.39.28,3.49,3.49,0,0,1-3.57-3.56Zm15.76,32v-6.32a13.79,13.79,0,0,0-.59-4.34,7.45,7.45,0,0,0-1.58-2.8,5.66,5.66,0,0,0-2.29-1.48,8.41,8.41,0,0,0-2.68-.44,7.4,7.4,0,0,0-2.9.58,7.06,7.06,0,0,0-3.9,4,8.2,8.2,0,0,0-.58,3.14,7.74,7.74,0,0,0,.62,3.13,6.77,6.77,0,0,0,1.77,2.41,8.32,8.32,0,0,0,2.8,1.55,11.72,11.72,0,0,0,3.74.55Zm-6.16-32a3.47,3.47,0,0,1,.28-1.4,3.79,3.79,0,0,1,.76-1.14,3.36,3.36,0,0,1,1.13-.78,3.64,3.64,0,0,1,2.8,0,3.73,3.73,0,0,1,1.14.78,3.67,3.67,0,0,1,.78,1.14,3.47,3.47,0,0,1,.28,1.4,3.42,3.42,0,0,1-.28,1.39,3.51,3.51,0,0,1-.78,1.13,3.85,3.85,0,0,1-1.14.76,3.53,3.53,0,0,1-5-3.28Z"/><path class="cls-10" d="M1526.7,332.11h6.07v36.11a24.94,24.94,0,0,0,.15,3,5.2,5.2,0,0,0,.54,1.88,2.14,2.14,0,0,0,1,1,4.34,4.34,0,0,0,1.7.28h2.26a3.29,3.29,0,0,1,1.82.41,1.54,1.54,0,0,1,.6,1.38v2.32a2.47,2.47,0,0,1-.18,1,1.34,1.34,0,0,1-.52.58,2,2,0,0,1-.78.27,5.53,5.53,0,0,1-.94.07h-3.17a9.23,9.23,0,0,1-3.84-.74,7.27,7.27,0,0,1-2.67-2.05,8.64,8.64,0,0,1-1.57-3.1,14,14,0,0,1-.51-3.87Z"/><path class="cls-10" d="M1538.46,380.43a3.3,3.3,0,0,1-1.82-.4,1.55,1.55,0,0,1-.61-1.38v-2.32a2.46,2.46,0,0,1,.19-1,1.31,1.31,0,0,1,.52-.59,2.4,2.4,0,0,1,.78-.27,6.79,6.79,0,0,1,.94-.07h8.12a33,33,0,0,1,1.25-3.38c.51-1.22,1.13-2.49,1.85-3.82v-35.1h6.06v26.66a29.49,29.49,0,0,1,3-2.7,20.73,20.73,0,0,1,3.35-2.15,17.39,17.39,0,0,1,3.72-1.41,16.12,16.12,0,0,1,4.08-.51,15.63,15.63,0,0,1,6.62,1.28,12.15,12.15,0,0,1,4.51,3.53,14.79,14.79,0,0,1,2.6,5.29,24.87,24.87,0,0,1,.82,6.56v5.75h6.91a3.31,3.31,0,0,1,1.82.41,1.54,1.54,0,0,1,.6,1.38v2.32a2.47,2.47,0,0,1-.18,1,1.4,1.4,0,0,1-.52.58,2,2,0,0,1-.78.27,5.61,5.61,0,0,1-.94.07Zm39.92-11.14a17.36,17.36,0,0,0-.73-5.45,9.37,9.37,0,0,0-2-3.52,6.94,6.94,0,0,0-2.93-1.88,11.6,11.6,0,0,0-7.61.17,14.7,14.7,0,0,0-3.6,2,19.64,19.64,0,0,0-3.12,2.87,27.14,27.14,0,0,0-2.58,3.47,30.69,30.69,0,0,0-2,3.75,26.18,26.18,0,0,0-1.31,3.7h25.84Z"/><path class="cls-10" d="M1591.35,380.43a3.3,3.3,0,0,1-1.82-.4,1.52,1.52,0,0,1-.61-1.38v-2.32a2.31,2.31,0,0,1,.19-1,1.31,1.31,0,0,1,.52-.59,2.27,2.27,0,0,1,.77-.27,7.06,7.06,0,0,1,.95-.07h11.08V354.42h6.06v26Zm10.57,10.1a3.47,3.47,0,0,1,.29-1.4A3.61,3.61,0,0,1,1603,388a3.36,3.36,0,0,1,1.13-.78,3.47,3.47,0,0,1,1.4-.28,3.42,3.42,0,0,1,1.39.28,3.65,3.65,0,0,1,1.92,1.92,3.47,3.47,0,0,1,.29,1.4,3.43,3.43,0,0,1-.29,1.39,3.48,3.48,0,0,1-.77,1.13,4,4,0,0,1-1.15.76,3.42,3.42,0,0,1-1.39.28,3.5,3.5,0,0,1-3.58-3.56Z"/></svg>