<svg id="Layer_1" data-name="Layer 1" xmlns="http://www.w3.org/2000/svg" xmlns:xlink="http://www.w3.org/1999/xlink" viewBox="0 0 1920 1080"><defs><style>.cls-1,.cls-3,.cls-5{fill:none;}.cls-2{clip-path:url(#clip-path);}.cls-3{stroke:#22a4dc;stroke-width:0.38px;}.cls-3,.cls-5{stroke-miterlimit:10;}.cls-4{fill:#999eac;}.cls-5{stroke:#999eac;stroke-width:0.3px;}.cls-6{fill:#fff;}</style><clipPath id="clip-path"><rect class="cls-1" x="3" y="-6.57" width="1920" height="1086.99"/></clipPath></defs><g class="cls-2"><path class="cls-3" d="M-110.73,1478.37c-161.85,84.07-313.59,81-366.94,11.49C-499,1462-507.25,1420.1-503.26,1384.3c7.45-66.88,59.79-111.59,107.88-152.49l190.45-161.92c74.64-63.46,152.59-107.65,245.41-138.65,109.14-36.45,228.17-47.7,343.24-34.24a821.25,821.25,0,0,1,172.82,39.45c53.05,18.33,106.84,32.81,160.84,49,83.35,25.06,167,55.08,254.78,58.65q119.33,4.86,232.21-168.57l293.24,173.29q-203.14,475.77-591.68,460Q789.23,1504.07,548,1419,306.5,1334.14,206.81,1330c-66.62-2.71-121,5.53-162.33,24Q-17.92,1382.05-110.73,1478.37Z"/></g><path class="cls-4" d="M232,1016.38H237c1.79,0,3,.1,4,1.18a4,4,0,0,1,1.08,2.85,3.88,3.88,0,0,1-1.16,2.86c-.77.78-1.79,1.26-4.43,1.26h-2.38v6.53h-2Zm2,6.45h2.42c1.34,0,3.39-.11,3.39-2.51s-1.91-2.29-3-2.29h-2.84Z"/><path class="cls-4" d="M244.15,1022.93a20.39,20.39,0,0,0-.11-2.08H246l0,2a2.74,2.74,0,0,1,2.44-2,6.17,6.17,0,0,1,1.32,0v1.87a1.58,1.58,0,0,0-.37-.08,4.28,4.28,0,0,0-.55,0c-2.25,0-2.78,1.34-2.78,3.09v5.43h-1.93Z"/><path class="cls-4" d="M256.39,1020.59c4.09,0,5,3.21,5,5.35,0,3-1.68,5.47-5.16,5.47s-5-2.34-5-5.33C251.2,1023.56,252.38,1020.59,256.39,1020.59Zm-.12,9.4c1.44,0,3.09-1,3.09-4.11,0-2.55-1.18-3.89-3-3.89-1.22,0-3.19.77-3.19,4C253.2,1028.05,254.09,1030,256.27,1030Z"/><path class="cls-4" d="M262.57,1033.63c1.51.06,1.88-.21,1.88-1.83v-10.95h1.91V1032c0,1,0,3-2.61,3a11.19,11.19,0,0,1-1.18-.08Zm1.69-17.21h2.32v2.11h-2.32Z"/><path class="cls-4" d="M271.2,1026.3c0,2.12.83,3.69,2.93,3.69a2.23,2.23,0,0,0,2.4-2.12h1.91a3.44,3.44,0,0,1-.88,2.14,4.42,4.42,0,0,1-3.51,1.36c-3.22,0-4.74-2-4.74-5.23,0-2,.4-3.68,2-4.8a4.93,4.93,0,0,1,2.79-.75c4.57,0,4.47,4.05,4.43,5.71Zm5.39-1.34c0-1-.16-3-2.52-3a2.74,2.74,0,0,0-2.79,3Z"/><path class="cls-4" d="M287.17,1024.13a2,2,0,0,0-2-2.14c-2.64,0-2.64,3.07-2.64,3.85,0,2.09.51,4,2.54,4a2.12,2.12,0,0,0,2.22-2.21h1.93a3.86,3.86,0,0,1-4.13,3.66,4.61,4.61,0,0,1-3.36-1.32,5.55,5.55,0,0,1-1.22-3.91c0-4.25,2.61-5.51,4.64-5.51a4.13,4.13,0,0,1,3.13,1.26,3.5,3.5,0,0,1,.86,2.28Z"/><path class="cls-4" d="M290,1020.81h1.81v-2.13l1.89-.61v2.74h2.28v1.41h-2.28v6.12c0,.51,0,1.36,1.37,1.36a4.26,4.26,0,0,0,.91-.1v1.48a9.23,9.23,0,0,1-1.58.13c-1.75,0-2.59-.51-2.59-2.18v-6.81H290Z"/><path class="cls-4" d="M144.26,989.32h4.89c1.78,0,3,.1,4,1.18a3.92,3.92,0,0,1,1.07,2.83,3.85,3.85,0,0,1-1.15,2.85c-.77.76-1.78,1.25-4.41,1.25h-2.37v6.49h-2Zm2,6.41h2.41c1.33,0,3.38-.1,3.38-2.48s-1.9-2.29-3-2.29h-2.83Z"/><path class="cls-4" d="M162.19,1003.92a5.55,5.55,0,0,1-.18-1.52,3.27,3.27,0,0,1-3.13,1.84c-2.33,0-3.58-1.31-3.58-3a3.33,3.33,0,0,1,1.78-3,7.88,7.88,0,0,1,3.52-.67c.48,0,.78,0,1.37.06,0-1.25,0-1.8-.36-2.24a2.33,2.33,0,0,0-1.76-.67c-1.92,0-2,1.32-2,1.72h-1.9a3.25,3.25,0,0,1,.7-1.92,4.59,4.59,0,0,1,3.28-1.09c1.47,0,3.05.46,3.6,1.49a3,3,0,0,1,.34,1.56l-.08,4.85a23.85,23.85,0,0,0,.16,2.55Zm-1.31-5c-.77,0-3.66,0-3.66,2.06,0,.65.4,1.76,2.1,1.76a2.47,2.47,0,0,0,2.17-1.09A4.84,4.84,0,0,0,162,999,8.49,8.49,0,0,0,160.88,998.93Z"/><path class="cls-4" d="M169.07,1004.71c.08,1.13.56,2,2.36,2,2.65,0,2.69-1.92,2.69-4.67a3.52,3.52,0,0,1-3.34,1.72,3.88,3.88,0,0,1-3.11-1.26,5.67,5.67,0,0,1-1.15-3.74c0-3.43,2-5.11,4.51-5.11a3.52,3.52,0,0,1,3.19,1.54l0-1.4h1.84l0,1.84,0,6.35c0,2.45-.08,3.44-.48,4.2-.85,1.62-2.84,1.82-4.23,1.82-4.06,0-4.19-1.9-4.27-3.27Zm4.42-3.4c.41-.52.69-1.07.69-2.91a3.37,3.37,0,0,0-.79-2.53,3,3,0,0,0-2.18-.89c-2.41,0-2.73,2.43-2.73,3.72,0,1.56.46,3.62,2.79,3.62A2.54,2.54,0,0,0,173.49,1001.31Z"/><path class="cls-4" d="M180.75,999.19c0,2.1.83,3.66,2.91,3.66a2.22,2.22,0,0,0,2.39-2.1H188a3.43,3.43,0,0,1-.87,2.12,4.43,4.43,0,0,1-3.5,1.35c-3.19,0-4.71-2-4.71-5.19,0-2,.4-3.66,2-4.77a4.86,4.86,0,0,1,2.77-.75c4.55,0,4.45,4,4.41,5.68Zm5.36-1.34c0-1-.17-3-2.51-3a2.72,2.72,0,0,0-2.77,3Z"/><line class="cls-5" x1="205.97" y1="1029.16" x2="205.97" y2="990.38"/><path class="cls-6" d="M832.48,727a5.89,5.89,0,0,0,.07.93,1.11,1.11,0,0,0,.26.59,1.07,1.07,0,0,0,.56.32,3.54,3.54,0,0,0,1,.1h1a1.39,1.39,0,0,1,.75.16.64.64,0,0,1,.24.57v.95a1,1,0,0,1-.07.42.54.54,0,0,1-.22.25,1,1,0,0,1-.31.11,2.42,2.42,0,0,1-.39,0H833.7a5.93,5.93,0,0,1-1.57-.17,3.67,3.67,0,0,1-1.07-.45,2.07,2.07,0,0,1-.65-.67,2.74,2.74,0,0,1-.34-.79,8,8,0,0,1-2,.88,6.67,6.67,0,0,1-1.88.26,6.06,6.06,0,0,1-1.67-.23,4.72,4.72,0,0,1-1.53-.74,4.12,4.12,0,0,1-1.12-1.29,4.3,4.3,0,0,1,0-3.75A5.31,5.31,0,0,1,823,723a7.83,7.83,0,0,1,1.6-1.14,18,18,0,0,1,1.84-.85q.94-.36,1.86-.63L830,720v-1.47h2.48ZM830,722.18a21.13,21.13,0,0,0-2.52.62,9.5,9.5,0,0,0-1.94.84,4.16,4.16,0,0,0-1.27,1.07,2.15,2.15,0,0,0-.45,1.34,1.93,1.93,0,0,0,.26,1,1.84,1.84,0,0,0,.67.66,2.76,2.76,0,0,0,.92.36,4.54,4.54,0,0,0,1,.11,6.42,6.42,0,0,0,1.8-.24,5.52,5.52,0,0,0,1.49-.7Zm-4.44-7a1.39,1.39,0,0,1,.12-.57,1.54,1.54,0,0,1,.31-.47,1.52,1.52,0,0,1,.46-.32,1.43,1.43,0,0,1,.58-.11,1.38,1.38,0,0,1,.57.11,1.52,1.52,0,0,1,.79.79,1.44,1.44,0,0,1,0,1.15,1.52,1.52,0,0,1-.32.46,1.54,1.54,0,0,1-.47.31,1.39,1.39,0,0,1-.57.12,1.44,1.44,0,0,1-1-.42A1.42,1.42,0,0,1,825.56,715.13Zm3.94,0a1.39,1.39,0,0,1,.12-.57,1.54,1.54,0,0,1,.31-.47,1.52,1.52,0,0,1,.46-.32,1.38,1.38,0,0,1,.57-.11,1.4,1.4,0,0,1,.58.11,1.7,1.7,0,0,1,.47.32,1.51,1.51,0,0,1,.32,1.62,1.52,1.52,0,0,1-.32.46,1.67,1.67,0,0,1-.47.31,1.4,1.4,0,0,1-.58.12,1.44,1.44,0,0,1-1.46-1.47Z"/><path class="cls-6" d="M841.51,728.12a4.29,4.29,0,0,0,1.47.64,8,8,0,0,0,2,.22h.11a1.39,1.39,0,0,1,.75.16.65.65,0,0,1,.25.57v.95a1,1,0,0,1-.08.42.58.58,0,0,1-.21.25,1.1,1.1,0,0,1-.32.11,2.42,2.42,0,0,1-.39,0H845a6.63,6.63,0,0,1-2.39-.37,5.8,5.8,0,0,1-1.62-.94,3,3,0,0,1-.92.93,2.56,2.56,0,0,1-1.46.38h-3.3a1.37,1.37,0,0,1-.75-.16.62.62,0,0,1-.25-.57v-1a1,1,0,0,1,.08-.42.5.5,0,0,1,.21-.24.82.82,0,0,1,.32-.12l.39,0h2.79a.79.79,0,0,0,.69-.39,2.16,2.16,0,0,0,.26-1.17V720.8h2.49Zm-4.84,7.49a1.35,1.35,0,0,1,.12-.57,1.54,1.54,0,0,1,.31-.47,1.36,1.36,0,0,1,.46-.32,1.44,1.44,0,0,1,1.15,0,1.51,1.51,0,0,1,.47.32,1.56,1.56,0,0,1,.32.47,1.52,1.52,0,0,1,.11.57,1.42,1.42,0,0,1-.43,1,1.92,1.92,0,0,1-.47.31,1.56,1.56,0,0,1-.57.11,1.44,1.44,0,0,1-1.47-1.46Zm3.94,0a1.35,1.35,0,0,1,.12-.57,1.38,1.38,0,0,1,.31-.47,1.36,1.36,0,0,1,.46-.32,1.44,1.44,0,0,1,1.15,0,1.51,1.51,0,0,1,.47.32,1.38,1.38,0,0,1,.31.47,1.35,1.35,0,0,1,.12.57,1.53,1.53,0,0,1-.43,1,1.92,1.92,0,0,1-.47.31,1.58,1.58,0,0,1-.58.11,1.43,1.43,0,0,1-1.46-1.46Z"/><path class="cls-6" d="M845.13,731.46a1.37,1.37,0,0,1-.75-.16.62.62,0,0,1-.25-.57v-1a1,1,0,0,1,.08-.42.5.5,0,0,1,.21-.24.82.82,0,0,1,.32-.12l.39,0h3.75V711.61h2.49v19.85Z"/><path class="cls-6" d="M855.79,711.62h2.49v14.83a10.56,10.56,0,0,0,.06,1.24,2.28,2.28,0,0,0,.22.77.92.92,0,0,0,.43.4,1.73,1.73,0,0,0,.7.12h.92a1.37,1.37,0,0,1,.75.16.62.62,0,0,1,.25.57v.95a1,1,0,0,1-.08.42.58.58,0,0,1-.21.25,1,1,0,0,1-.32.11,2.42,2.42,0,0,1-.39,0h-1.29a3.81,3.81,0,0,1-1.58-.3,3,3,0,0,1-1.1-.84,3.62,3.62,0,0,1-.64-1.27,5.77,5.77,0,0,1-.21-1.59Z"/><path class="cls-6" d="M864.87,729.56a4.3,4.3,0,0,1-.62.9,2.75,2.75,0,0,1-.7.59,2.82,2.82,0,0,1-.84.32,5.23,5.23,0,0,1-1,.09h-1.08a1.33,1.33,0,0,1-.74-.16.62.62,0,0,1-.25-.57v-1a.83.83,0,0,1,.08-.42.5.5,0,0,1,.21-.24.82.82,0,0,1,.32-.12l.38,0h.65a2.91,2.91,0,0,0,1.53-.4,2,2,0,0,0,.91-1.25,16,16,0,0,1,.89-2.55,10.53,10.53,0,0,1,1-1.82,6.36,6.36,0,0,1,1.11-1.22,5.69,5.69,0,0,1,1.12-.72,4,4,0,0,1,1-.35,5.41,5.41,0,0,1,.94-.09,5.24,5.24,0,0,1,1.68.26,4.75,4.75,0,0,1,1.36.71,5.34,5.34,0,0,1,1,1,6.88,6.88,0,0,1,.74,1.24,6.24,6.24,0,0,1,.42,1.31,5.63,5.63,0,0,1,.14,1.25A5.38,5.38,0,0,1,875,728a4.77,4.77,0,0,0,1.52.73,8.14,8.14,0,0,0,2.12.24h.11a1.39,1.39,0,0,1,.75.16.65.65,0,0,1,.25.57v.95a1,1,0,0,1-.08.42.58.58,0,0,1-.21.25,1,1,0,0,1-.32.11,2.42,2.42,0,0,1-.39,0h-.13a8.08,8.08,0,0,1-1.55-.13,6.48,6.48,0,0,1-1.22-.38,4.85,4.85,0,0,1-1-.57,6.47,6.47,0,0,1-.77-.7,5.5,5.5,0,0,1-1.69,1.38,5.34,5.34,0,0,1-2.5.54,7.44,7.44,0,0,1-1.67-.18,8.31,8.31,0,0,1-1.41-.48,5.51,5.51,0,0,1-1.12-.66A4.91,4.91,0,0,1,864.87,729.56Zm8.12-2.88a4.44,4.44,0,0,0-.18-1.16,4.6,4.6,0,0,0-.58-1.23,3.6,3.6,0,0,0-1-1,2.6,2.6,0,0,0-1.45-.39,2.73,2.73,0,0,0-1.47.42,4.67,4.67,0,0,0-1.18,1.13,7.37,7.37,0,0,0-.86,1.6,8.84,8.84,0,0,0-.49,1.85,1.5,1.5,0,0,0,.54.4,4.49,4.49,0,0,0,.93.39,7.47,7.47,0,0,0,1.13.28,5.94,5.94,0,0,0,1.16.12A7.87,7.87,0,0,0,871,729a3.12,3.12,0,0,0,1.09-.38,1.7,1.7,0,0,0,.7-.73A2.69,2.69,0,0,0,873,726.68Z"/><path class="cls-6" d="M886.2,728.19a4.42,4.42,0,0,0,1.59.63,10.93,10.93,0,0,0,1.83.16h1a.8.8,0,0,0,.7-.39,2.17,2.17,0,0,0,.25-1.17v-5.13H894V728a4.3,4.3,0,0,0,1.62.74,9.1,9.1,0,0,0,2,.22h1a.79.79,0,0,0,.69-.39,2.07,2.07,0,0,0,.26-1.17v-6.64h2.49v7.15a4.27,4.27,0,0,0,1.55.78,7.65,7.65,0,0,0,2.19.27h.11a1.39,1.39,0,0,1,.75.16.65.65,0,0,1,.25.57v.95a1,1,0,0,1-.08.42.58.58,0,0,1-.21.25,1.1,1.1,0,0,1-.32.11,2.42,2.42,0,0,1-.39,0h-.14a6.65,6.65,0,0,1-2.5-.4,5.29,5.29,0,0,1-1.67-1,3,3,0,0,1-.93,1,2.67,2.67,0,0,1-1.55.42h-1.49a8.18,8.18,0,0,1-2.18-.3,4.78,4.78,0,0,1-1.92-1.06,3,3,0,0,1-.94,1,2.62,2.62,0,0,1-1.49.39H889.6a9.42,9.42,0,0,1-1.06-.06,7.4,7.4,0,0,1-1-.22,5.94,5.94,0,0,1-1-.38,4.69,4.69,0,0,1-.89-.58,2.84,2.84,0,0,1-.91.88,2.65,2.65,0,0,1-1.44.36h-4.56a1.33,1.33,0,0,1-.74-.16.62.62,0,0,1-.25-.57v-1a1,1,0,0,1,.07-.42.52.52,0,0,1,.22-.24.82.82,0,0,1,.32-.12l.38,0h4a.79.79,0,0,0,.7-.39,2.17,2.17,0,0,0,.25-1.17v-4h2.49Zm3.3-12.37a1.39,1.39,0,0,1,.12-.57,1.67,1.67,0,0,1,.31-.47,1.52,1.52,0,0,1,.46-.32,1.47,1.47,0,0,1,1.62.32,1.7,1.7,0,0,1,.32.47,1.44,1.44,0,0,1,0,1.15,1.52,1.52,0,0,1-.32.46,1.54,1.54,0,0,1-.47.31,1.39,1.39,0,0,1-.57.12,1.44,1.44,0,0,1-1.05-.42A1.42,1.42,0,0,1,889.5,715.82Zm2-3.7a1.39,1.39,0,0,1,.12-.57,1.54,1.54,0,0,1,.31-.47,1.52,1.52,0,0,1,.46-.32,1.44,1.44,0,0,1,1.15,0,1.46,1.46,0,0,1,.9,1.36,1.62,1.62,0,0,1-.11.58,1.52,1.52,0,0,1-.32.46,1.54,1.54,0,0,1-.47.31,1.39,1.39,0,0,1-.57.12,1.42,1.42,0,0,1-1-.42A1.44,1.44,0,0,1,891.45,712.12Zm2,3.7a1.39,1.39,0,0,1,.12-.57,1.67,1.67,0,0,1,.31-.47,1.52,1.52,0,0,1,.46-.32,1.56,1.56,0,0,1,1.15,0,1.52,1.52,0,0,1,.79.79,1.56,1.56,0,0,1,0,1.15,1.52,1.52,0,0,1-.32.46,1.67,1.67,0,0,1-.47.31,1.39,1.39,0,0,1-.57.12,1.44,1.44,0,0,1-1.47-1.47Z"/><path class="cls-6" d="M905.92,731.46a1.37,1.37,0,0,1-.75-.16.62.62,0,0,1-.25-.57v-1a1,1,0,0,1,.08-.42.5.5,0,0,1,.21-.24.82.82,0,0,1,.32-.12l.39,0h3.75V711.61h2.49v19.85Z"/><path class="cls-6" d="M916.86,711.62h2.48v19.86h-2.48Z"/><path class="cls-6" d="M929.43,734.86a8.81,8.81,0,0,0,2.36-.58,3.35,3.35,0,0,0,1.33-1,3.3,3.3,0,0,0,.59-1.45,10.67,10.67,0,0,0,.14-1.88v-9.16h2.49V729h3.25a1.33,1.33,0,0,1,.74.16.62.62,0,0,1,.25.57v.95a1,1,0,0,1-.08.42.58.58,0,0,1-.21.25,1,1,0,0,1-.32.11,2.36,2.36,0,0,1-.38,0H936.2a8.24,8.24,0,0,1-.7,2.46,5,5,0,0,1-1.3,1.67,5.62,5.62,0,0,1-1.93,1.06,14,14,0,0,1-2.59.59Z"/><path class="cls-6" d="M942.17,720.63c.54-.15,1.09-.3,1.65-.42a9,9,0,0,1,1.89-.19,4.81,4.81,0,0,1,1.88.34,4.15,4.15,0,0,1,1.41.92,4.93,4.93,0,0,1,1,1.42,7.15,7.15,0,0,1,.51,1.79c.09.59.19,1.15.28,1.7a9.07,9.07,0,0,0,.35,1.43,2.72,2.72,0,0,0,.54,1,1.07,1.07,0,0,0,.84.37h1.28a1.39,1.39,0,0,1,.75.16.65.65,0,0,1,.25.57v.95a1,1,0,0,1-.08.42.58.58,0,0,1-.21.25,1.1,1.1,0,0,1-.32.11,2.42,2.42,0,0,1-.39,0H939.59a1.37,1.37,0,0,1-.75-.16.62.62,0,0,1-.25-.57v-1a1,1,0,0,1,.08-.42.5.5,0,0,1,.21-.24.82.82,0,0,1,.32-.12l.39,0h9.82a2.41,2.41,0,0,1-.48-.79,6.89,6.89,0,0,1-.31-1.37c-.07-.54-.17-1.08-.28-1.61a5,5,0,0,0-.55-1.45,2.93,2.93,0,0,0-1-1,3.28,3.28,0,0,0-1.73-.4,5.89,5.89,0,0,0-.69,0c-.26,0-.53.07-.79.12s-.52.11-.76.18a4,4,0,0,0-.61.2Z"/><path class="cls-6" d="M953.76,731.46a1.39,1.39,0,0,1-.75-.16.64.64,0,0,1-.24-.57v-1a1,1,0,0,1,.07-.42.47.47,0,0,1,.22-.24.77.77,0,0,1,.31-.12l.39,0h4.55v-8.2h2.48v10.68Zm4.34,4.15a1.35,1.35,0,0,1,.12-.57,1.38,1.38,0,0,1,.31-.47,1.36,1.36,0,0,1,.46-.32,1.44,1.44,0,0,1,1.15,0,1.51,1.51,0,0,1,.47.32,1.38,1.38,0,0,1,.31.47,1.35,1.35,0,0,1,.12.57,1.53,1.53,0,0,1-.43,1,1.92,1.92,0,0,1-.47.31,1.58,1.58,0,0,1-.58.11,1.43,1.43,0,0,1-1.46-1.46Z"/><path class="cls-6" d="M968.81,706.33l-.34-.05a3.43,3.43,0,0,0-.48,0,1.82,1.82,0,0,0-1,.24.82.82,0,0,0-.39.78,1.15,1.15,0,0,0,.13.53,1.48,1.48,0,0,0,.37.47,2.09,2.09,0,0,0,.63.34,3,3,0,0,0,.9.13h.4v1.16h-4.28v-1.16h1.58a1.9,1.9,0,0,1-.28-.24,2,2,0,0,1-.29-.38,2.8,2.8,0,0,1-.24-.52,2.15,2.15,0,0,1-.09-.64,1.82,1.82,0,0,1,.14-.7,1.64,1.64,0,0,1,.45-.6,2.38,2.38,0,0,1,.77-.43,3.52,3.52,0,0,1,1.08-.15h.51a4.68,4.68,0,0,1,.59.07Zm-3.07,5.29h2.49v19.86h-2.49Z"/><path class="cls-6" d="M979.65,722.77h7.27v2.16h-7.27Z"/><path class="cls-6" d="M1009.48,711.61H1012v16.23a4.11,4.11,0,0,0,1.58.86,7.69,7.69,0,0,0,2.26.28h.11a1.33,1.33,0,0,1,.74.16.62.62,0,0,1,.25.57v.95a1,1,0,0,1-.07.42.6.6,0,0,1-.22.25,1,1,0,0,1-.32.11,2.24,2.24,0,0,1-.38,0h-.14a6.87,6.87,0,0,1-2.3-.33,5.82,5.82,0,0,1-1.58-.87,9,9,0,0,1-.81,2.89,7.1,7.1,0,0,1-1.68,2.25,7.48,7.48,0,0,1-2.52,1.47,9.82,9.82,0,0,1-3.33.52,8.84,8.84,0,0,1-3.41-.6,7,7,0,0,1-2.4-1.61,6.56,6.56,0,0,1-1.42-2.33,8,8,0,0,1-.47-2.77,8.57,8.57,0,0,1,.12-1.41,11.36,11.36,0,0,1,.31-1.43,10.8,10.8,0,0,1,.46-1.32,9,9,0,0,1,.59-1.12l2.11,1.18a5.09,5.09,0,0,0-.4.81,6.88,6.88,0,0,0-.3.94,8.75,8.75,0,0,0-.2,1,7,7,0,0,0-.07,1,5.89,5.89,0,0,0,.35,2,4.66,4.66,0,0,0,1,1.64,4.75,4.75,0,0,0,1.66,1.11,5.9,5.9,0,0,0,2.25.41,6.8,6.8,0,0,0,2.43-.41,4.74,4.74,0,0,0,1.8-1.18,5.06,5.06,0,0,0,1.11-1.87,7.5,7.5,0,0,0,.39-2.5Z"/><path class="cls-6" d="M1022.14,728.12a4.29,4.29,0,0,0,1.47.64,8,8,0,0,0,2,.22h.11a1.39,1.39,0,0,1,.75.16.65.65,0,0,1,.25.57v.95a1,1,0,0,1-.08.42.58.58,0,0,1-.21.25,1.1,1.1,0,0,1-.32.11,2.42,2.42,0,0,1-.39,0h-.14a6.59,6.59,0,0,1-2.39-.37,5.8,5.8,0,0,1-1.62-.94,3,3,0,0,1-.92.93,2.58,2.58,0,0,1-1.46.38h-3.31a1.33,1.33,0,0,1-.74-.16.62.62,0,0,1-.25-.57v-1a.83.83,0,0,1,.08-.42.5.5,0,0,1,.21-.24.82.82,0,0,1,.32-.12l.38,0h2.8a.79.79,0,0,0,.69-.39,2.16,2.16,0,0,0,.26-1.17V720.8h2.49Zm-4.84,7.49a1.35,1.35,0,0,1,.12-.57,1.54,1.54,0,0,1,.31-.47,1.36,1.36,0,0,1,.46-.32,1.44,1.44,0,0,1,1.15,0,1.51,1.51,0,0,1,.47.32,1.38,1.38,0,0,1,.31.47,1.35,1.35,0,0,1,.12.57,1.53,1.53,0,0,1-.43,1,1.92,1.92,0,0,1-.47.31,1.58,1.58,0,0,1-.58.11,1.43,1.43,0,0,1-1.46-1.46Zm3.94,0a1.52,1.52,0,0,1,.11-.57,1.56,1.56,0,0,1,.32-.47,1.27,1.27,0,0,1,.46-.32,1.39,1.39,0,0,1,.57-.12,1.43,1.43,0,0,1,.58.12,1.51,1.51,0,0,1,.47.32,1.54,1.54,0,0,1,.31.47,1.35,1.35,0,0,1,.12.57,1.39,1.39,0,0,1-.12.57,1.54,1.54,0,0,1-.31.47,1.92,1.92,0,0,1-.47.31,1.62,1.62,0,0,1-.58.11,1.43,1.43,0,0,1-1.46-1.46Z"/><path class="cls-6" d="M1028.34,720.63c.54-.15,1.09-.3,1.65-.42a9,9,0,0,1,1.89-.19,4.85,4.85,0,0,1,1.88.34,4.15,4.15,0,0,1,1.41.92,4.71,4.71,0,0,1,.95,1.42,6.76,6.76,0,0,1,.52,1.79c.09.59.19,1.15.28,1.7a9.07,9.07,0,0,0,.35,1.43,2.72,2.72,0,0,0,.54,1,1.05,1.05,0,0,0,.84.37h1.28a1.39,1.39,0,0,1,.75.16.64.64,0,0,1,.24.57v.95a1,1,0,0,1-.07.42.54.54,0,0,1-.22.25,1,1,0,0,1-.31.11,2.42,2.42,0,0,1-.39,0h-14.18a1.33,1.33,0,0,1-.74-.16.62.62,0,0,1-.25-.57v-1a1,1,0,0,1,.08-.42.5.5,0,0,1,.21-.24.82.82,0,0,1,.32-.12l.38,0h9.83a2.25,2.25,0,0,1-.48-.79,6.89,6.89,0,0,1-.31-1.37c-.07-.54-.17-1.08-.28-1.61a5,5,0,0,0-.55-1.45,2.93,2.93,0,0,0-1-1,3.3,3.3,0,0,0-1.74-.4,6.21,6.21,0,0,0-.69,0l-.78.12c-.27.06-.52.11-.76.18a4,4,0,0,0-.61.2Zm1.67-4.81a1.39,1.39,0,0,1,.12-.57,1.67,1.67,0,0,1,.31-.47,1.52,1.52,0,0,1,.46-.32,1.56,1.56,0,0,1,1.15,0,1.52,1.52,0,0,1,.79.79,1.56,1.56,0,0,1,0,1.15,1.52,1.52,0,0,1-.32.46,1.67,1.67,0,0,1-.47.31,1.4,1.4,0,0,1-.58.12,1.44,1.44,0,0,1-1.46-1.47Z"/><path class="cls-6" d="M1046.16,728.12a4.46,4.46,0,0,0,1.47.64,8,8,0,0,0,2,.22h.11a1.33,1.33,0,0,1,.74.16.62.62,0,0,1,.25.57v.95a1,1,0,0,1-.07.42.6.6,0,0,1-.22.25,1,1,0,0,1-.32.11,2.3,2.3,0,0,1-.38,0h-.14a6.59,6.59,0,0,1-2.39-.37,5.72,5.72,0,0,1-1.63-.94,2.92,2.92,0,0,1-.92.93,2.54,2.54,0,0,1-1.46.38h-3.3a1.39,1.39,0,0,1-.75-.16.64.64,0,0,1-.24-.57v-1a1,1,0,0,1,.07-.42.47.47,0,0,1,.22-.24.77.77,0,0,1,.31-.12l.39,0h2.79a.79.79,0,0,0,.7-.39,2.17,2.17,0,0,0,.25-1.17V720.8h2.49Zm-2.82-12.3a1.39,1.39,0,0,1,.12-.57,1.67,1.67,0,0,1,.31-.47,1.52,1.52,0,0,1,.46-.32,1.47,1.47,0,0,1,1.62.32,1.7,1.7,0,0,1,.32.47,1.44,1.44,0,0,1,0,1.15,1.52,1.52,0,0,1-.32.46,1.54,1.54,0,0,1-.47.31,1.39,1.39,0,0,1-.57.12,1.44,1.44,0,0,1-1-.42A1.42,1.42,0,0,1,1043.34,715.82Z"/><path class="cls-6" d="M1049.78,731.46a1.33,1.33,0,0,1-.74-.16.62.62,0,0,1-.25-.57v-1a1,1,0,0,1,.07-.42.47.47,0,0,1,.22-.24.77.77,0,0,1,.31-.12l.39,0h3.76V711.61H1056v19.85Z"/><path class="cls-6" d="M1060.72,711.62h2.49v19.86h-2.49Z"/><path class="cls-6" d="M1079.67,729.81a6.11,6.11,0,0,0-1.31.27,3.31,3.31,0,0,0-1.18.64,3.35,3.35,0,0,0-.86,1.21,4.86,4.86,0,0,0-.33,1.92,12.82,12.82,0,0,0,.1,1.56c.06.56.16,1.16.29,1.79s.29,1.27.49,1.93.43,1.33.7,2l-2.33.78c-.21-.62-.41-1.29-.62-2s-.38-1.45-.54-2.17-.28-1.4-.38-2.06a12.6,12.6,0,0,1-.14-1.68,7.47,7.47,0,0,1,.25-2.05,6.2,6.2,0,0,1,.64-1.54,4.73,4.73,0,0,1,.9-1.14,9.14,9.14,0,0,1,1-.83,10.44,10.44,0,0,1,1-.61c.33-.17.61-.33.85-.48a17,17,0,0,1,.9-2.55,11.23,11.23,0,0,1,1-1.82,6.73,6.73,0,0,1,1.12-1.22,5.42,5.42,0,0,1,1.12-.72,3.81,3.81,0,0,1,1-.35,5.39,5.39,0,0,1,.93-.09,5.3,5.3,0,0,1,1.69.26,4.57,4.57,0,0,1,1.35.71,5.39,5.39,0,0,1,1,1,6.82,6.82,0,0,1,.73,1.24,5.74,5.74,0,0,1,.43,1.31,6.3,6.3,0,0,1,.14,1.25,5.22,5.22,0,0,1-.14,1.14,5.7,5.7,0,0,1-.41,1.18,5.77,5.77,0,0,1-.72,1.1,5,5,0,0,1-1,.92,5.17,5.17,0,0,1-1.36.64,6,6,0,0,1-1.7.23,7.62,7.62,0,0,1-1.55-.15,7.54,7.54,0,0,1-1.32-.41,6.53,6.53,0,0,1-1.89-1.23Zm7.87-3.13a4.1,4.1,0,0,0-.19-1.16,4.06,4.06,0,0,0-.58-1.23,3.43,3.43,0,0,0-1-1,2.62,2.62,0,0,0-1.45-.39,2.73,2.73,0,0,0-1.47.42,4.51,4.51,0,0,0-1.18,1.13,7,7,0,0,0-.86,1.6,9.52,9.52,0,0,0-.5,1.85,1.7,1.7,0,0,0,.54.4,4.83,4.83,0,0,0,.94.39,7.47,7.47,0,0,0,1.13.28,5.84,5.84,0,0,0,1.15.12,7.79,7.79,0,0,0,1.43-.12,3.1,3.1,0,0,0,1.1-.38,1.76,1.76,0,0,0,.7-.73A2.69,2.69,0,0,0,1087.54,726.68Z"/><path class="cls-6" d="M1091.31,734.86a8.81,8.81,0,0,0,2.36-.58,3.35,3.35,0,0,0,1.33-1,3.3,3.3,0,0,0,.59-1.45,10.67,10.67,0,0,0,.14-1.88v-9.16h2.49v8.46a13.07,13.07,0,0,1-.4,3.52,5.81,5.81,0,0,1-1.22,2.33,5.31,5.31,0,0,1-2.07,1.42,13.17,13.17,0,0,1-3,.73Z"/><path class="cls-6" d="M1102.64,711.62h2.49v14.83a10.56,10.56,0,0,0,.06,1.24,2.28,2.28,0,0,0,.22.77.92.92,0,0,0,.43.4,1.73,1.73,0,0,0,.7.12h.92a1.39,1.39,0,0,1,.75.16.62.62,0,0,1,.25.57v.95a1,1,0,0,1-.08.42.58.58,0,0,1-.21.25,1,1,0,0,1-.32.11,2.42,2.42,0,0,1-.39,0h-1.3a3.79,3.79,0,0,1-1.57-.3,3,3,0,0,1-1.1-.84,3.62,3.62,0,0,1-.64-1.27,5.77,5.77,0,0,1-.21-1.59Z"/><path class="cls-6" d="M1107.46,731.46a1.33,1.33,0,0,1-.74-.16.62.62,0,0,1-.25-.57v-1a1,1,0,0,1,.07-.42.52.52,0,0,1,.22-.24.82.82,0,0,1,.32-.12l.38,0h4.16a8.81,8.81,0,0,0,1.61-.12,2.71,2.71,0,0,0,1-.35,1.25,1.25,0,0,0,.5-.55,1.88,1.88,0,0,0,.13-.74,2.6,2.6,0,0,0-.38-1.34,5.77,5.77,0,0,0-1.07-1.34,12.26,12.26,0,0,0-1.64-1.33c-.64-.44-1.33-.87-2.09-1.31l5.52-9.47,1.81,1.27-4.22,7.37a14.45,14.45,0,0,1,1.76,1.23,9.12,9.12,0,0,1,1.37,1.42,6.38,6.38,0,0,1,.89,1.58,4.88,4.88,0,0,1,.32,1.74,4.8,4.8,0,0,1-.1,1.05,4.67,4.67,0,0,0,1.5.67,8.73,8.73,0,0,0,2,.22h.11a1.39,1.39,0,0,1,.75.16.65.65,0,0,1,.25.57v.95a1,1,0,0,1-.08.42.58.58,0,0,1-.21.25,1.1,1.1,0,0,1-.32.11,2.42,2.42,0,0,1-.39,0h-.14a9,9,0,0,1-1.44-.11,5.27,5.27,0,0,1-1.16-.34,4.53,4.53,0,0,1-.93-.49,5.85,5.85,0,0,1-.76-.62,3.92,3.92,0,0,1-1.66,1.16,7.41,7.41,0,0,1-2.64.4Z"/><path class="cls-6" d="M1124.93,729.56a4.71,4.71,0,0,1-.62.9,2.71,2.71,0,0,1-1.54.91,5.23,5.23,0,0,1-1,.09h-1.08a1.39,1.39,0,0,1-.75-.16.64.64,0,0,1-.24-.57v-1a1,1,0,0,1,.07-.42.47.47,0,0,1,.22-.24.77.77,0,0,1,.31-.12l.39,0h.65a2.91,2.91,0,0,0,1.53-.4,2,2,0,0,0,.9-1.25,17,17,0,0,1,.9-2.55,11.23,11.23,0,0,1,1-1.82,7.09,7.09,0,0,1,1.11-1.22,6,6,0,0,1,1.12-.72,4,4,0,0,1,1.06-.35,5.39,5.39,0,0,1,.93-.09,5.3,5.3,0,0,1,1.69.26,4.57,4.57,0,0,1,1.35.71,5.39,5.39,0,0,1,1,1,6.82,6.82,0,0,1,.73,1.24,5.74,5.74,0,0,1,.43,1.31,6.3,6.3,0,0,1,.14,1.25,5.22,5.22,0,0,1-.14,1.14,5.7,5.7,0,0,1-.41,1.18,5.77,5.77,0,0,1-.72,1.1,5,5,0,0,1-1,.92,5.17,5.17,0,0,1-1.36.64,6,6,0,0,1-1.7.23,7.46,7.46,0,0,1-1.68-.18,8.31,8.31,0,0,1-1.41-.48,5.8,5.8,0,0,1-1.12-.66A5.24,5.24,0,0,1,1124.93,729.56Zm8.12-2.88a4.1,4.1,0,0,0-.19-1.16,4.06,4.06,0,0,0-.58-1.23,3.43,3.43,0,0,0-1-1,2.62,2.62,0,0,0-1.45-.39,2.73,2.73,0,0,0-1.47.42,4.51,4.51,0,0,0-1.18,1.13,7,7,0,0,0-.86,1.6,9.52,9.52,0,0,0-.5,1.85,1.7,1.7,0,0,0,.54.4,4.83,4.83,0,0,0,.94.39,7.47,7.47,0,0,0,1.13.28,5.84,5.84,0,0,0,1.15.12A7.79,7.79,0,0,0,1131,729a3.1,3.1,0,0,0,1.1-.38,1.76,1.76,0,0,0,.7-.73A2.69,2.69,0,0,0,1133.05,726.68Z"/></svg>