<svg id="Layer_1" data-name="Layer 1" xmlns="http://www.w3.org/2000/svg" viewBox="0 0 1920 1080"><defs><style>.cls-1{fill:#ca4055;}.cls-2{fill:none;stroke:#fff;stroke-miterlimit:10;}.cls-3{fill:#fff;}</style></defs><rect class="cls-1" y="-0.72" width="1920" height="1081.44"/><path class="cls-2" d="M1724.19,896.42l-15.55-11.33q11.65-25.56,33-25.57,7.75,0,22.66,4.53c9.93,3,17.2,4.53,21.86,4.53s9-3.45,13.11-10.36l17.48,9.39q-10.69,28.17-33.35,28.17-6.79,0-21-4.37T1742.32,887a21.28,21.28,0,0,0-9.39,1.78Q1729.36,890.6,1724.19,896.42Z"/><path class="cls-3" d="M1380.43,970.33q0-8.16,4.15-12.26t12.79-4.1h10.91v16.85a23.11,23.11,0,0,0,.27,4,5.67,5.67,0,0,0,.82,2.26,2.55,2.55,0,0,0,1.38,1,6.43,6.43,0,0,0,1.92.25h3.94a4.06,4.06,0,0,1,2.22.49,1.87,1.87,0,0,1,.73,1.68v2.83a2.92,2.92,0,0,1-.22,1.25,1.56,1.56,0,0,1-.64.72,2.39,2.39,0,0,1-.94.33,8.31,8.31,0,0,1-1.15.08h-5.17a12.41,12.41,0,0,1-3.89-.61,8.88,8.88,0,0,1-3.37-2,10.28,10.28,0,0,1-2.38-3.67,15.32,15.32,0,0,1-.9-5.6V961h-1.48a28.28,28.28,0,0,0-4.84.37,8.53,8.53,0,0,0-3.65,1.48,6.86,6.86,0,0,0-2.31,3.09,14.12,14.12,0,0,0-.8,5.23v12.1a17.61,17.61,0,0,1-1.7,7.47,19.93,19.93,0,0,1-4.93,6.5,24.82,24.82,0,0,1-7.87,4.59,30.06,30.06,0,0,1-10.56,1.74,39.28,39.28,0,0,1-9.83-1.1,28.07,28.07,0,0,1-7.26-2.94,20,20,0,0,1-5-4.16,22.21,22.21,0,0,1-3.16-4.76,19.91,19.91,0,0,1-1.64-4.71,20.92,20.92,0,0,1-.47-4.06,29,29,0,0,1,1.34-8.74,22.65,22.65,0,0,1,1.52-3.71,20.63,20.63,0,0,1,1.92-3l6.09,3.32a15,15,0,0,0-1.42,2.45,23.06,23.06,0,0,0-1.1,2.89,20.38,20.38,0,0,0-.72,3.09,19.52,19.52,0,0,0-.25,3.1,16.24,16.24,0,0,0,.31,3,12.62,12.62,0,0,0,1.12,3.28,13.45,13.45,0,0,0,5.9,5.88,21.69,21.69,0,0,0,5.35,1.87,34.5,34.5,0,0,0,7.36.7,25.25,25.25,0,0,0,7.41-1,17.93,17.93,0,0,0,5.55-2.69,12.37,12.37,0,0,0,3.49-3.81,8.91,8.91,0,0,0,1.2-4.43Zm-27.64,43.31a4.24,4.24,0,0,1,.35-1.7,4.61,4.61,0,0,1,.92-1.39,4.3,4.3,0,0,1,4.78-.95,4.52,4.52,0,0,1,1.39.95,4.35,4.35,0,0,1,1,1.39,4.24,4.24,0,0,1,.35,1.7,4.29,4.29,0,0,1-.35,1.71,4.16,4.16,0,0,1-1,1.37,4.61,4.61,0,0,1-1.39.92,4.08,4.08,0,0,1-1.7.35,4.27,4.27,0,0,1-4.35-4.35Zm11.69,0a4.24,4.24,0,0,1,.35-1.7,4.61,4.61,0,0,1,.92-1.39,4.25,4.25,0,0,1,3.08-1.3,4.24,4.24,0,0,1,1.7.35,4.56,4.56,0,0,1,2.34,2.34,4.24,4.24,0,0,1,.35,1.7,4.25,4.25,0,0,1-1.3,3.08,4.61,4.61,0,0,1-1.39.92,4.08,4.08,0,0,1-1.7.35,4.27,4.27,0,0,1-4.35-4.35Z"/><path class="cls-3" d="M1416.61,985.71a4,4,0,0,1-2.21-.49,1.86,1.86,0,0,1-.74-1.68v-2.83a2.92,2.92,0,0,1,.22-1.25,1.61,1.61,0,0,1,.64-.72,2.76,2.76,0,0,1,.94-.33,8.31,8.31,0,0,1,1.15-.08h11.16V926.77h7.38v58.94Z"/><path class="cls-3" d="M1448.27,926.81h7.39v44a30.77,30.77,0,0,0,.18,3.67,6.24,6.24,0,0,0,.66,2.3,2.65,2.65,0,0,0,1.27,1.19,5.25,5.25,0,0,0,2.07.35h2.75a4,4,0,0,1,2.21.49,1.86,1.86,0,0,1,.74,1.68v2.83a2.92,2.92,0,0,1-.22,1.25,1.61,1.61,0,0,1-.64.72,2.39,2.39,0,0,1-.94.33,8.31,8.31,0,0,1-1.15.08h-3.86a11.15,11.15,0,0,1-4.67-.9,8.92,8.92,0,0,1-3.26-2.5,10.54,10.54,0,0,1-1.91-3.78,17.25,17.25,0,0,1-.62-4.71Z"/><path class="cls-3" d="M1475.22,980.05a14.15,14.15,0,0,1-1.82,2.69,8.72,8.72,0,0,1-2.1,1.74,8.12,8.12,0,0,1-2.48.94,14,14,0,0,1-3,.29h-3.2a4,4,0,0,1-2.22-.49,1.87,1.87,0,0,1-.73-1.68v-2.83a2.92,2.92,0,0,1,.22-1.25,1.56,1.56,0,0,1,.64-.72,2.68,2.68,0,0,1,.94-.33,8.31,8.31,0,0,1,1.15-.08h1.93a8.79,8.79,0,0,0,4.53-1.17,5.91,5.91,0,0,0,2.69-3.71,47.8,47.8,0,0,1,2.66-7.57,33.07,33.07,0,0,1,3.1-5.41,19,19,0,0,1,3.3-3.61,16.42,16.42,0,0,1,3.32-2.16,12.55,12.55,0,0,1,3.14-1,15.69,15.69,0,0,1,2.77-.27,15.2,15.2,0,0,1,5,.78,14.23,14.23,0,0,1,4,2.11,15.34,15.34,0,0,1,3.08,3.1,20,20,0,0,1,2.17,3.67,19,19,0,0,1,1.68,7.61,15.61,15.61,0,0,1-.82,4.8,13.53,13.53,0,0,0,4.54,2.15,23.82,23.82,0,0,0,6.29.72h.33a4,4,0,0,1,2.21.49,1.86,1.86,0,0,1,.74,1.68v2.83a2.92,2.92,0,0,1-.22,1.25,1.61,1.61,0,0,1-.64.72,2.39,2.39,0,0,1-.94.33,8.31,8.31,0,0,1-1.15.08h-.41a22.62,22.62,0,0,1-4.57-.41,16.65,16.65,0,0,1-3.63-1.13,14.42,14.42,0,0,1-2.88-1.68,17.53,17.53,0,0,1-2.29-2.07,15.79,15.79,0,0,1-5,4.08,15.59,15.59,0,0,1-7.4,1.62,21.29,21.29,0,0,1-5-.55,22.13,22.13,0,0,1-4.19-1.42,18.58,18.58,0,0,1-3.32-1.94A16.33,16.33,0,0,1,1475.22,980.05Zm24.12-8.53a12.93,12.93,0,0,0-.55-3.44,12.77,12.77,0,0,0-1.73-3.66,10.49,10.49,0,0,0-3-2.89,7.74,7.74,0,0,0-4.31-1.17,8,8,0,0,0-4.37,1.28,13,13,0,0,0-3.5,3.34,20.56,20.56,0,0,0-2.55,4.74,27.3,27.3,0,0,0-1.47,5.49,4.59,4.59,0,0,0,1.6,1.21,16.05,16.05,0,0,0,2.77,1.15,26.6,26.6,0,0,0,3.36.84,18.82,18.82,0,0,0,3.42.33,25,25,0,0,0,4.25-.33,9.42,9.42,0,0,0,3.26-1.13,5.33,5.33,0,0,0,2.07-2.19A7.76,7.76,0,0,0,1499.34,971.52Z"/><path class="cls-3" d="M1516.32,985.71a4,4,0,0,1-2.22-.49,1.87,1.87,0,0,1-.73-1.68v-2.83a2.92,2.92,0,0,1,.22-1.25,1.56,1.56,0,0,1,.64-.72,2.76,2.76,0,0,1,.94-.33,8.31,8.31,0,0,1,1.15-.08h11.16V926.77h7.38v58.94Z"/><path class="cls-3" d="M1548.8,926.81h7.39v58.94h-7.39Z"/><path class="cls-3" d="M1645.19,985.71a24,24,0,0,1-5.64-.67,16.16,16.16,0,0,1-5.15-2.24,26.18,26.18,0,0,1-2.52,8.33,21.4,21.4,0,0,1-5,6.48,22.37,22.37,0,0,1-7.41,4.2,29.43,29.43,0,0,1-9.72,1.5,26.2,26.2,0,0,1-10.11-1.79,20.49,20.49,0,0,1-7.11-4.77,19.41,19.41,0,0,1-4.23-6.92,24.3,24.3,0,0,1-1.39-8.22,25.32,25.32,0,0,1,.35-4.2,37,37,0,0,1,.93-4.23,29.19,29.19,0,0,1,1.38-3.92,23.44,23.44,0,0,1,1.75-3.32l6.25,3.49a15.78,15.78,0,0,0-1.19,2.4,23.1,23.1,0,0,0-.9,2.81,25,25,0,0,0-.57,3,22.34,22.34,0,0,0-.21,3,17.52,17.52,0,0,0,1,6,13.84,13.84,0,0,0,3,4.88,14.25,14.25,0,0,0,4.91,3.28,17.56,17.56,0,0,0,6.7,1.21,20.18,20.18,0,0,0,7.21-1.21,14.29,14.29,0,0,0,5.32-3.49,15.1,15.1,0,0,0,3.32-5.56,22.23,22.23,0,0,0,1.15-7.42,23.85,23.85,0,0,0-.21-2.85c-.13-1.14-.32-2.33-.57-3.59s-.56-2.53-.94-3.81a26.29,26.29,0,0,0-1.32-3.53l7.26-2.05c.3.85.6,1.78.91,2.81s.58,2.1.86,3.24.51,2.29.71,3.46.37,2.34.48,3.49a13.53,13.53,0,0,0,4.84,2.15,25.41,25.41,0,0,0,5.9.64,46.26,46.26,0,0,1,2.07-5.37,55.4,55.4,0,0,1,3.18-6,49.41,49.41,0,0,1,4.23-5.91A32.69,32.69,0,0,1,1660,956a25.79,25.79,0,0,1,6.31-3.59,19.47,19.47,0,0,1,7.31-1.36,18.89,18.89,0,0,1,8,1.56,14.8,14.8,0,0,1,5.5,4.31,17.88,17.88,0,0,1,3.16,6.44,30.33,30.33,0,0,1,1,8v14.39Zm38.8-13.57a21.38,21.38,0,0,0-.88-6.65,11.42,11.42,0,0,0-2.4-4.28,8.34,8.34,0,0,0-3.57-2.3,14.22,14.22,0,0,0-9.27.2,18.24,18.24,0,0,0-4.39,2.4,24.06,24.06,0,0,0-3.79,3.51,33,33,0,0,0-3.14,4.22,36.57,36.57,0,0,0-2.42,4.58,32.28,32.28,0,0,0-1.6,4.51H1684Zm-25.67-32.86a4.23,4.23,0,0,1,.34-1.7,4.64,4.64,0,0,1,.93-1.39,4.16,4.16,0,0,1,1.37-1,4.24,4.24,0,0,1,1.7-.35,4.32,4.32,0,0,1,1.71.35,4.46,4.46,0,0,1,1.39,1,4.32,4.32,0,0,1,.94,1.39,4.33,4.33,0,0,1-.94,4.78,4.74,4.74,0,0,1-1.39.92,4.32,4.32,0,0,1-1.71.35,4.27,4.27,0,0,1-4.34-4.35Z"/><path class="cls-3" d="M1696.75,995.8a25.52,25.52,0,0,0,7-1.74,9.12,9.12,0,0,0,5.72-7.28,33.45,33.45,0,0,0,.41-5.58V954h7.38v24.32h9.64a4,4,0,0,1,2.22.49,1.88,1.88,0,0,1,.74,1.68v2.83a2.91,2.91,0,0,1-.23,1.25,1.59,1.59,0,0,1-.63.72,2.44,2.44,0,0,1-1,.33,8.2,8.2,0,0,1-1.15.08h-10.05a24.45,24.45,0,0,1-2.07,7.28,15,15,0,0,1-3.85,5,17.62,17.62,0,0,1-5.74,3.13,42.48,42.48,0,0,1-7.69,1.75Z"/><path class="cls-3" d="M1744.45,976.36a21.81,21.81,0,0,1-3.51-3.24q-1.7-1.93-3.18-3.88t-2.66-3.65a30.8,30.8,0,0,0-1.93-2.52,19.83,19.83,0,0,1,.49-2q.33-1.08.72-2.13a12.58,12.58,0,0,1,.82-1.82,2.74,2.74,0,0,1,.84-1c.85-.47,1.87-1,3.08-1.48a32.1,32.1,0,0,1,4-1.41,42.27,42.27,0,0,1,4.88-1.07,34.49,34.49,0,0,1,5.6-.43,23.65,23.65,0,0,1,4.47.43,17.74,17.74,0,0,1,4.1,1.29,9.07,9.07,0,0,1,3,2.2,4.6,4.6,0,0,1,1.17,3.14,17.16,17.16,0,0,1-1.58,7,30.35,30.35,0,0,1-2.79,4.86,42.68,42.68,0,0,1-4.9,5.78,12.44,12.44,0,0,0,2.34.8c.93.23,2,.43,3.08.6s2.32.29,3.61.39,2.61.14,4,.14h3.41a4,4,0,0,1,2.21.49,1.86,1.86,0,0,1,.74,1.68v2.83a2.92,2.92,0,0,1-.22,1.25,1.61,1.61,0,0,1-.64.72,2.39,2.39,0,0,1-.94.33,8.31,8.31,0,0,1-1.15.08H1768a34.1,34.1,0,0,1-6.17-.53,43.61,43.61,0,0,1-5.15-1.27,29.56,29.56,0,0,1-4-1.56c-1.12-.55-2-1-2.62-1.4-1.12.63-2.34,1.23-3.65,1.81a36.11,36.11,0,0,1-4.23,1.52,38.64,38.64,0,0,1-4.78,1,34.13,34.13,0,0,1-5.23.39h-5.29a4,4,0,0,1-2.21-.49,1.88,1.88,0,0,1-.74-1.68v-2.83a2.91,2.91,0,0,1,.23-1.25,1.59,1.59,0,0,1,.63-.72,2.81,2.81,0,0,1,1-.33,8,8,0,0,1,1.14-.08h5.79c1.5,0,2.91-.06,4.22-.19s2.48-.27,3.51-.45a16.72,16.72,0,0,0,2.56-.61A4.71,4.71,0,0,0,1744.45,976.36Zm14.76-13.53a3,3,0,0,0-.57-1.73,5.23,5.23,0,0,0-1.68-1.47,9.93,9.93,0,0,0-2.69-1,15,15,0,0,0-3.59-.39,23.75,23.75,0,0,0-5,.6,29.76,29.76,0,0,0-6,2,27.52,27.52,0,0,0,1.7,2.7,42.06,42.06,0,0,0,2.73,3.49q1.56,1.8,3.32,3.51a22.39,22.39,0,0,0,3.45,2.76,18.18,18.18,0,0,0,3.46-2.64,25.52,25.52,0,0,0,2.63-2.95,15,15,0,0,0,1.66-2.75A5.56,5.56,0,0,0,1759.21,962.83Z"/><path class="cls-3" d="M1773.53,985.71a4,4,0,0,1-2.22-.49,1.87,1.87,0,0,1-.73-1.68v-2.83a2.92,2.92,0,0,1,.22-1.25,1.56,1.56,0,0,1,.64-.72,2.68,2.68,0,0,1,.94-.33,8.31,8.31,0,0,1,1.15-.08h11.15V926.77h7.39v58.94Z"/><path class="cls-3" d="M1806,926.81h7.39v58.94H1806Z"/><path class="cls-3" d="M1663.57,637.93a9,9,0,0,0-9.77-.8L1436.35,754.92a9,9,0,0,0,1.7,16.47L1496,788.77c2.18,17.27,7.32,57.89,8.3,65.78,1.13,9,7.36,10.46,13.44,2.18,4-5.53,27.38-38.57,28-39.52l51.59,51.59a9,9,0,0,0,6.35,2.63,8.57,8.57,0,0,0,2.39-.34,9,9,0,0,0,6.3-6.46l54.36-217.44A9,9,0,0,0,1663.57,637.93Zm-64.72,207-51.34-51.34,74.31-103.25L1506,773.06l-42.14-12.64,180.56-97.81Z"/></svg>