<svg id="Layer_1" data-name="Layer 1" xmlns="http://www.w3.org/2000/svg" xmlns:xlink="http://www.w3.org/1999/xlink" viewBox="0 0 1920 1080"><defs><style>.cls-1,.cls-5,.cls-7{fill:none;}.cls-2,.cls-3{fill:#2a2a68;}.cls-3{font-size:16.22px;font-family:UniversLTStd, Univers LT Std;}.cls-4{clip-path:url(#clip-path);}.cls-5{stroke:#22a4dc;stroke-width:0.38px;}.cls-5,.cls-7{stroke-miterlimit:10;}.cls-6{fill:#999eac;}.cls-7{stroke:#999eac;stroke-width:0.3px;}.cls-8{fill:#22a4dc;}</style><clipPath id="clip-path"><rect class="cls-1" x="2" y="-9" width="1920" height="1090.41"/></clipPath></defs><rect class="cls-2" x="-1" y="-0.49" width="1923" height="1083.4"/><text class="cls-3" transform="translate(163.51 1018.47)">Qubbah Profle</text><g class="cls-4"><path class="cls-5" d="M-111.73,1480.62c-161.85,84.33-313.59,81.27-366.94,11.52-21.36-27.92-29.58-70-25.59-105.89,7.45-67.09,59.79-111.94,107.88-153l190.45-162.43c74.64-63.66,152.59-108,245.41-139.09,109.14-36.56,228.17-47.85,343.24-34.34A818.4,818.4,0,0,1,555.54,937c53.05,18.39,106.84,32.92,160.84,49.2,83.35,25.13,167,55.25,254.78,58.83q119.33,4.88,232.21-169.11l293.24,173.84Q1293.47,1527,904.93,1511.16q-116.7-4.77-357.89-90.06-241.54-85.17-341.23-89.37c-66.62-2.72-121,5.55-162.33,24.09Q-18.92,1384-111.73,1480.62Z"/></g><path class="cls-6" d="M231,1017.17H236c1.79,0,3,.1,4,1.19a4,4,0,0,1,1.08,2.85,3.89,3.89,0,0,1-1.16,2.88c-.77.77-1.79,1.26-4.43,1.26h-2.38v6.55h-2Zm2,6.47h2.42c1.34,0,3.4-.1,3.4-2.51s-1.92-2.3-3-2.3h-2.85Z"/><path class="cls-6" d="M243.15,1023.74a20.39,20.39,0,0,0-.11-2.08H245l0,2a2.74,2.74,0,0,1,2.44-2,6.18,6.18,0,0,1,1.32,0v1.88a1.58,1.58,0,0,0-.37-.08,2.81,2.81,0,0,0-.54,0c-2.26,0-2.79,1.35-2.79,3.11v5.44h-1.93Z"/><path class="cls-6" d="M255.39,1021.4c4.09,0,5,3.22,5,5.36,0,3-1.68,5.49-5.16,5.49s-5-2.35-5-5.35C250.2,1024.37,251.38,1021.4,255.39,1021.4Zm-.12,9.42c1.44,0,3.09-1,3.09-4.12,0-2.55-1.18-3.9-3-3.9-1.22,0-3.19.78-3.19,4C252.2,1028.88,253.09,1030.82,255.27,1030.82Z"/><path class="cls-6" d="M261.57,1034.47c1.51.06,1.88-.2,1.88-1.83v-11h1.91v11.2c0,1,0,3.06-2.61,3.06a11.19,11.19,0,0,1-1.18-.08Zm1.69-17.26h2.32v2.12h-2.32Z"/><path class="cls-6" d="M270.2,1027.13c0,2.12.83,3.69,2.93,3.69a2.22,2.22,0,0,0,2.4-2.12h1.91a3.46,3.46,0,0,1-.87,2.14,4.43,4.43,0,0,1-3.52,1.37c-3.22,0-4.74-2-4.74-5.25,0-2,.4-3.69,2-4.81a4.93,4.93,0,0,1,2.79-.75c4.57,0,4.47,4.06,4.43,5.73Zm5.39-1.35c0-1-.16-3-2.52-3a2.75,2.75,0,0,0-2.79,3Z"/><path class="cls-6" d="M286.17,1025a2,2,0,0,0-2-2.15c-2.64,0-2.64,3.08-2.64,3.86,0,2.1.51,4.06,2.54,4.06a2.13,2.13,0,0,0,2.22-2.22h1.93a3.86,3.86,0,0,1-4.13,3.67,4.63,4.63,0,0,1-3.36-1.33,5.54,5.54,0,0,1-1.22-3.92c0-4.26,2.61-5.52,4.64-5.52a4.13,4.13,0,0,1,3.13,1.26,3.53,3.53,0,0,1,.86,2.29Z"/><path class="cls-6" d="M289,1021.62h1.81v-2.14l1.89-.61v2.75h2.28V1023h-2.28v6.14c0,.51,0,1.37,1.37,1.37a4.12,4.12,0,0,0,.91-.11v1.49a9.45,9.45,0,0,1-1.58.12c-1.75,0-2.59-.5-2.59-2.18V1023H289Z"/><path class="cls-6" d="M143.26,990h4.9c1.77,0,3,.1,4,1.18a4,4,0,0,1,1.07,2.84,3.89,3.89,0,0,1-1.15,2.86c-.77.77-1.78,1.25-4.41,1.25h-2.37v6.51h-2Zm2,6.43h2.41c1.33,0,3.38-.1,3.38-2.5s-1.9-2.29-3-2.29h-2.83Z"/><path class="cls-6" d="M161.19,1004.67a5.5,5.5,0,0,1-.18-1.52,3.29,3.29,0,0,1-3.13,1.85c-2.33,0-3.58-1.32-3.58-3a3.36,3.36,0,0,1,1.78-3,8,8,0,0,1,3.52-.67c.48,0,.79,0,1.37.07,0-1.26,0-1.81-.36-2.26a2.36,2.36,0,0,0-1.76-.66c-1.92,0-2,1.31-2,1.72h-1.9a3.27,3.27,0,0,1,.7-1.93,4.59,4.59,0,0,1,3.28-1.09c1.47,0,3.05.46,3.6,1.5a3,3,0,0,1,.34,1.56l-.08,4.87a23.85,23.85,0,0,0,.16,2.55Zm-1.31-5c-.77,0-3.66,0-3.66,2.07,0,.65.4,1.77,2.1,1.77a2.45,2.45,0,0,0,2.17-1.1,4.86,4.86,0,0,0,.48-2.68A8.49,8.49,0,0,0,159.88,999.66Z"/><path class="cls-6" d="M168.07,1005.46c.08,1.14.56,2,2.36,2,2.65,0,2.69-1.93,2.69-4.68a3.52,3.52,0,0,1-3.34,1.72,3.88,3.88,0,0,1-3.11-1.26,5.7,5.7,0,0,1-1.15-3.75c0-3.45,2-5.13,4.51-5.13a3.52,3.52,0,0,1,3.19,1.54l0-1.4h1.84l0,1.85,0,6.37c0,2.45-.08,3.44-.48,4.21-.85,1.62-2.83,1.83-4.23,1.83-4.06,0-4.19-1.91-4.27-3.29Zm4.42-3.4c.41-.53.69-1.08.69-2.92a3.38,3.38,0,0,0-.79-2.54,3,3,0,0,0-2.18-.89c-2.41,0-2.73,2.43-2.73,3.73,0,1.56.46,3.63,2.79,3.63A2.56,2.56,0,0,0,172.49,1002.06Z"/><path class="cls-6" d="M179.75,999.93c0,2.11.83,3.67,2.91,3.67a2.22,2.22,0,0,0,2.39-2.11H187a3.44,3.44,0,0,1-.87,2.13,4.43,4.43,0,0,1-3.5,1.36c-3.19,0-4.71-2-4.71-5.22,0-2,.4-3.67,2-4.78a4.86,4.86,0,0,1,2.77-.75c4.55,0,4.45,4,4.41,5.7Zm5.36-1.34c0-1-.16-3-2.51-3a2.73,2.73,0,0,0-2.77,3Z"/><line class="cls-7" x1="204.97" y1="1029.99" x2="204.97" y2="991.09"/><path class="cls-8" d="M1372.89,148.24q0-6.72,3.4-10.1t10.51-3.38h9v13.88a18.91,18.91,0,0,0,.22,3.28,4.66,4.66,0,0,0,.67,1.86,2.06,2.06,0,0,0,1.13.84,5.3,5.3,0,0,0,1.58.21h3.23a3.3,3.3,0,0,1,1.82.4,1.53,1.53,0,0,1,.61,1.39V159a2.31,2.31,0,0,1-.19,1,1.3,1.3,0,0,1-.52.59,1.91,1.91,0,0,1-.77.27,5.65,5.65,0,0,1-1,.07h-4.24a10.16,10.16,0,0,1-3.2-.51,7.37,7.37,0,0,1-2.76-1.65,8.26,8.26,0,0,1-2-3,12.48,12.48,0,0,1-.74-4.61V140.54h-1.22a23.68,23.68,0,0,0-4,.3,7,7,0,0,0-3,1.22,5.67,5.67,0,0,0-1.9,2.55,11.7,11.7,0,0,0-.66,4.3v10a14.33,14.33,0,0,1-1.4,6.15,16.19,16.19,0,0,1-4,5.35,20.34,20.34,0,0,1-6.46,3.79,24.71,24.71,0,0,1-8.67,1.43,31.69,31.69,0,0,1-8.07-.91,23.1,23.1,0,0,1-6-2.41,16.57,16.57,0,0,1-4.14-3.43,18.63,18.63,0,0,1-2.6-3.92,16.36,16.36,0,0,1-1.34-3.89,16.74,16.74,0,0,1-.39-3.34,23,23,0,0,1,.29-3.72,23.87,23.87,0,0,1,.81-3.48,20.16,20.16,0,0,1,1.25-3.06,16,16,0,0,1,1.58-2.48l5,2.74a11.93,11.93,0,0,0-1.16,2,19.23,19.23,0,0,0-.91,2.38,18.16,18.16,0,0,0-.59,2.55,17.26,17.26,0,0,0-.2,2.55,13.47,13.47,0,0,0,.25,2.5,10.31,10.31,0,0,0,.93,2.7,11.05,11.05,0,0,0,4.84,4.85,17.57,17.57,0,0,0,4.39,1.54,28.24,28.24,0,0,0,6,.57,20.73,20.73,0,0,0,6.09-.82,15.14,15.14,0,0,0,4.56-2.22,10.17,10.17,0,0,0,2.86-3.14,7.34,7.34,0,0,0,1-3.65Zm-22.7,35.67a3.51,3.51,0,0,1,.29-1.4,3.78,3.78,0,0,1,.76-1.15,3.55,3.55,0,0,1,1.12-.77,3.52,3.52,0,0,1,2.8,0,3.65,3.65,0,0,1,1.92,1.92,3.55,3.55,0,0,1,0,2.81,3.46,3.46,0,0,1-.78,1.13,3.79,3.79,0,0,1-1.14.76,3.51,3.51,0,0,1-1.4.29,3.53,3.53,0,0,1-3.57-3.59Zm9.6,0a3.35,3.35,0,0,1,.29-1.4,3.94,3.94,0,0,1,.75-1.15,3.59,3.59,0,0,1,1.13-.77,3.52,3.52,0,0,1,2.8,0,3.65,3.65,0,0,1,1.92,1.92,3.67,3.67,0,0,1,0,2.81,3.46,3.46,0,0,1-.78,1.13,3.79,3.79,0,0,1-1.14.76,3.51,3.51,0,0,1-1.4.29,3.53,3.53,0,0,1-3.57-3.59Z"/><path class="cls-8" d="M1402.59,160.91a3.27,3.27,0,0,1-1.81-.41,1.52,1.52,0,0,1-.61-1.38v-2.33a2.31,2.31,0,0,1,.19-1,1.33,1.33,0,0,1,.52-.6,2.27,2.27,0,0,1,.77-.27,7,7,0,0,1,.94-.06h9.16V112.36h6.07v48.55Z"/><path class="cls-8" d="M1428.59,112.39h6.07v36.25a25.18,25.18,0,0,0,.15,3,5.2,5.2,0,0,0,.54,1.89,2.14,2.14,0,0,0,1,1,4.29,4.29,0,0,0,1.7.29h2.26a3.32,3.32,0,0,1,1.82.4,1.55,1.55,0,0,1,.6,1.39V159a2.47,2.47,0,0,1-.18,1,1.38,1.38,0,0,1-.53.59,1.91,1.91,0,0,1-.77.27,5.61,5.61,0,0,1-.94.07h-3.17a9.07,9.07,0,0,1-3.84-.75,7.11,7.11,0,0,1-2.67-2.06,8.56,8.56,0,0,1-1.57-3.1,14.19,14.19,0,0,1-.51-3.89Z"/><path class="cls-8" d="M1450.72,156.25a11.82,11.82,0,0,1-1.5,2.21,6.93,6.93,0,0,1-1.72,1.43,6.8,6.8,0,0,1-2,.78,12,12,0,0,1-2.5.24h-2.62a3.29,3.29,0,0,1-1.82-.41,1.52,1.52,0,0,1-.61-1.38v-2.33a2.31,2.31,0,0,1,.19-1,1.39,1.39,0,0,1,.52-.6,2.27,2.27,0,0,1,.77-.27,7.12,7.12,0,0,1,.95-.06h1.58a7.12,7.12,0,0,0,3.72-1,4.88,4.88,0,0,0,2.21-3.05,39.35,39.35,0,0,1,2.19-6.24,26.53,26.53,0,0,1,2.54-4.46,16.22,16.22,0,0,1,2.71-3,13.72,13.72,0,0,1,2.73-1.77,9.71,9.71,0,0,1,2.57-.86,12.7,12.7,0,0,1,2.28-.22,12.48,12.48,0,0,1,4.11.64,12.07,12.07,0,0,1,3.3,1.74,12.69,12.69,0,0,1,2.52,2.55,16.66,16.66,0,0,1,1.79,3,15.13,15.13,0,0,1,1,3.2,14.71,14.71,0,0,1,.34,3.07,12.87,12.87,0,0,1-.68,4,11.22,11.22,0,0,0,3.73,1.78,19.72,19.72,0,0,0,5.17.59h.26a3.3,3.3,0,0,1,1.82.4,1.53,1.53,0,0,1,.61,1.39V159a2.31,2.31,0,0,1-.19,1,1.3,1.3,0,0,1-.52.59,1.91,1.91,0,0,1-.77.27,5.65,5.65,0,0,1-1,.07h-.33a18.68,18.68,0,0,1-3.76-.34,13.54,13.54,0,0,1-3-.93,12.09,12.09,0,0,1-2.36-1.38,14.7,14.7,0,0,1-1.88-1.71,13,13,0,0,1-4.13,3.36,12.79,12.79,0,0,1-6.08,1.34,17.73,17.73,0,0,1-4.09-.46,17.46,17.46,0,0,1-3.43-1.17,15,15,0,0,1-2.73-1.6A13.55,13.55,0,0,1,1450.72,156.25Zm19.8-7a10.58,10.58,0,0,0-.45-2.84,10.75,10.75,0,0,0-1.42-3,8.52,8.52,0,0,0-2.44-2.38,6.38,6.38,0,0,0-3.54-1,6.49,6.49,0,0,0-3.58,1.05,10.56,10.56,0,0,0-2.88,2.75,16.83,16.83,0,0,0-2.09,3.9,23,23,0,0,0-1.21,4.53,3.89,3.89,0,0,0,1.31,1,14.53,14.53,0,0,0,2.28.94,21.4,21.4,0,0,0,2.76.69,15.43,15.43,0,0,0,2.81.27,20.5,20.5,0,0,0,3.48-.27,8,8,0,0,0,2.68-.92,4.42,4.42,0,0,0,1.7-1.81A6.36,6.36,0,0,0,1470.52,149.22Z"/><path class="cls-8" d="M1484.46,160.91a3.27,3.27,0,0,1-1.81-.41,1.52,1.52,0,0,1-.61-1.38v-2.33a2.31,2.31,0,0,1,.19-1,1.33,1.33,0,0,1,.52-.6,2.27,2.27,0,0,1,.77-.27,7,7,0,0,1,.94-.06h9.16V112.36h6.07v48.55Z"/><path class="cls-8" d="M1511.14,112.39h6.06v48.55h-6.06Z"/><path class="cls-8" d="M1590.28,160.91a19.74,19.74,0,0,1-4.63-.56,12.93,12.93,0,0,1-4.23-1.84,21.26,21.26,0,0,1-2.07,6.86,17.43,17.43,0,0,1-4.11,5.34,18.18,18.18,0,0,1-6.08,3.46,24.14,24.14,0,0,1-8,1.23,21.45,21.45,0,0,1-8.3-1.47A16.78,16.78,0,0,1,1547,170a16.05,16.05,0,0,1-3.47-5.7,20.18,20.18,0,0,1-1.15-6.77,21.73,21.73,0,0,1,.29-3.46,32.55,32.55,0,0,1,.76-3.48,25,25,0,0,1,1.14-3.23,20.07,20.07,0,0,1,1.44-2.74l5.13,2.88a13.39,13.39,0,0,0-1,2,18,18,0,0,0-.74,2.32,22.17,22.17,0,0,0-.47,2.48,19.14,19.14,0,0,0-.17,2.48,14.37,14.37,0,0,0,.84,4.95,11.37,11.37,0,0,0,2.48,4,11.52,11.52,0,0,0,4,2.7,14.2,14.2,0,0,0,5.5,1,16.29,16.29,0,0,0,5.92-1,11.6,11.6,0,0,0,4.37-2.87,12.52,12.52,0,0,0,2.73-4.57,18.51,18.51,0,0,0,.94-6.12,21,21,0,0,0-.17-2.35c-.11-.93-.27-1.92-.47-2.95s-.46-2.09-.77-3.15a23.77,23.77,0,0,0-1.08-2.9l6-1.69c.25.7.49,1.47.74,2.31s.48,1.74.71,2.67.42,1.89.59,2.86.29,1.92.38,2.87a11.31,11.31,0,0,0,4,1.77,21.08,21.08,0,0,0,4.85.53,36.65,36.65,0,0,1,1.7-4.43,46.31,46.31,0,0,1,2.61-4.93,40.24,40.24,0,0,1,3.47-4.87,27.34,27.34,0,0,1,4.34-4.2,21.52,21.52,0,0,1,5.19-3,16.07,16.07,0,0,1,6-1.11,15.48,15.48,0,0,1,6.62,1.28,12.2,12.2,0,0,1,4.51,3.55,14.84,14.84,0,0,1,2.6,5.3,25.15,25.15,0,0,1,.82,6.59v11.86Zm31.86-11.18a17.52,17.52,0,0,0-.73-5.48,9.41,9.41,0,0,0-2-3.53,6.87,6.87,0,0,0-2.93-1.89,11.6,11.6,0,0,0-7.61.17,14.41,14.41,0,0,0-3.6,2,20.11,20.11,0,0,0-3.12,2.88,27.88,27.88,0,0,0-2.57,3.48,29,29,0,0,0-2,3.77,24.8,24.8,0,0,0-1.31,3.72h25.83Zm-21.08-27.07a3.5,3.5,0,0,1,.28-1.4,4,4,0,0,1,.76-1.15,3.59,3.59,0,0,1,1.13-.77,3.47,3.47,0,0,1,1.4-.29,3.43,3.43,0,0,1,1.39.29,3.56,3.56,0,0,1,1.92,1.92,3.55,3.55,0,0,1,0,2.81,3.59,3.59,0,0,1-.77,1.13,4,4,0,0,1-1.15.76,3.43,3.43,0,0,1-1.39.29,3.5,3.5,0,0,1-3.57-3.59Z"/><path class="cls-8" d="M1632.61,169.22a21.11,21.11,0,0,0,5.74-1.44,8,8,0,0,0,3.25-2.46,8.07,8.07,0,0,0,1.45-3.53,27.76,27.76,0,0,0,.34-4.6v-22.4h6.06v20h7.92a3.28,3.28,0,0,1,1.81.4,1.53,1.53,0,0,1,.61,1.39V159a2.31,2.31,0,0,1-.19,1,1.3,1.3,0,0,1-.52.59,1.91,1.91,0,0,1-.77.27,5.61,5.61,0,0,1-.94.07h-8.26a19.87,19.87,0,0,1-1.7,6,12.22,12.22,0,0,1-3.16,4.11,14.6,14.6,0,0,1-4.72,2.58,35.29,35.29,0,0,1-6.31,1.44Z"/><path class="cls-8" d="M1671.78,153.21a18.21,18.21,0,0,1-2.88-2.67c-.93-1.06-1.8-2.13-2.61-3.2s-1.54-2.07-2.19-3a22.82,22.82,0,0,0-1.58-2.08,16.32,16.32,0,0,1,.4-1.61c.18-.59.38-1.18.59-1.75a11.47,11.47,0,0,1,.67-1.51,2.3,2.3,0,0,1,.7-.84c.69-.38,1.53-.79,2.52-1.22a28.36,28.36,0,0,1,3.32-1.16,35.82,35.82,0,0,1,4-.88,28,28,0,0,1,4.59-.35,19.08,19.08,0,0,1,3.67.35,14.46,14.46,0,0,1,3.37,1.06,7.55,7.55,0,0,1,2.48,1.81,3.79,3.79,0,0,1,1,2.59,14.63,14.63,0,0,1-.26,2.48,13.81,13.81,0,0,1-1,3.24,25.37,25.37,0,0,1-2.29,4,36,36,0,0,1-4,4.76,9.69,9.69,0,0,0,1.92.66c.76.19,1.6.35,2.52.49s1.91.24,3,.32,2.15.12,3.27.12h2.8a3.34,3.34,0,0,1,1.82.4,1.55,1.55,0,0,1,.6,1.39V159a2.47,2.47,0,0,1-.18,1,1.38,1.38,0,0,1-.53.59,1.91,1.91,0,0,1-.77.27,5.61,5.61,0,0,1-.94.07h-4.55a27.75,27.75,0,0,1-5.07-.44,32.92,32.92,0,0,1-4.22-1.05,24,24,0,0,1-3.27-1.28c-.92-.45-1.64-.84-2.16-1.15-.92.52-1.92,1-3,1.49a29.4,29.4,0,0,1-3.47,1.25,32.38,32.38,0,0,1-3.93.86,28.48,28.48,0,0,1-4.29.32h-4.34a3.29,3.29,0,0,1-1.82-.41,1.52,1.52,0,0,1-.61-1.38v-2.33a2.31,2.31,0,0,1,.19-1,1.33,1.33,0,0,1,.52-.6,2.27,2.27,0,0,1,.77-.27,7,7,0,0,1,.95-.06h4.74a34.29,34.29,0,0,0,3.47-.16c1.08-.1,2-.22,2.88-.37a14,14,0,0,0,2.11-.5A4.37,4.37,0,0,0,1671.78,153.21Zm12.12-11.15a2.39,2.39,0,0,0-.47-1.42,4.28,4.28,0,0,0-1.38-1.22,8,8,0,0,0-2.21-.86,12.43,12.43,0,0,0-2.94-.32,19.35,19.35,0,0,0-4.14.49,24.87,24.87,0,0,0-4.89,1.67,21.6,21.6,0,0,0,1.4,2.23,36,36,0,0,0,2.24,2.87c.85,1,1.76,2,2.73,2.89a17.25,17.25,0,0,0,2.83,2.28,15.39,15.39,0,0,0,2.84-2.18,21.21,21.21,0,0,0,2.16-2.43,12,12,0,0,0,1.36-2.26A4.45,4.45,0,0,0,1683.9,142.06Z"/><path class="cls-8" d="M1695.66,160.91a3.29,3.29,0,0,1-1.82-.41,1.52,1.52,0,0,1-.61-1.38v-2.33a2.31,2.31,0,0,1,.19-1,1.33,1.33,0,0,1,.52-.6,2.27,2.27,0,0,1,.77-.27,7,7,0,0,1,1-.06h9.16V112.36h6.06v48.55Z"/><path class="cls-8" d="M1722.33,112.39h6.06v48.55h-6.06Z"/></svg>