<svg xmlns="http://www.w3.org/2000/svg" viewBox="0 0 59.82 262.97"><defs><style>.cls-1,.cls-3{fill:#fff;}.cls-1,.cls-2{stroke:#d1d2d3;}.cls-1,.cls-2,.cls-3,.cls-4,.cls-8{stroke-linecap:round;stroke-linejoin:round;stroke-width:0.75px;}.cls-2,.cls-6{fill:#d1d2d3;}.cls-3,.cls-4,.cls-8{stroke:#808081;}.cls-4,.cls-7{fill:#808081;}.cls-5{opacity:0.31;}.cls-8{fill:#faba2e;}.cls-9{fill:#fc8883;opacity:0.36;}</style></defs><g id="Layer_2" data-name="Layer 2"><g id="Layer_1-2" data-name="Layer 1"><path class="cls-1" d="M22.28,124.91a8.52,8.52,0,0,0-1.66,6l6.76,62.75a5.57,5.57,0,0,0,5.78,5h0a5.57,5.57,0,0,0,5.33-5.4l2-64a5.55,5.55,0,0,0-1.62-4.1l-2.62-2.62a8.34,8.34,0,0,0-12,.2l-2,2.08Z"/><polyline class="cls-1" points="27.11 191.21 31.32 255.73 37.66 255.73 38.34 192.12 37.27 190.53"/><polygon class="cls-2" points="37.57 255.37 26.99 258.49 27.15 257.23 31.49 254.98 19.77 261.05 37.56 259.45 37.82 255.38 37.57 255.37"/><polyline class="cls-1" points="31.49 254.98 27.15 257.23 26.99 258.49 37.57 255.37"/><path class="cls-1" d="M26.58,125.59a8.5,8.5,0,0,0-1.66,6l6.76,62.76a5.57,5.57,0,0,0,5.78,5h0a5.57,5.57,0,0,0,5.33-5.4l2-64a5.55,5.55,0,0,0-1.62-4.1l-2.62-2.62a8.34,8.34,0,0,0-12,.19l-2,2.09Z"/><polyline class="cls-1" points="31.41 191.87 34.68 256.38 41.02 256.47 42.85 192.16"/><path class="cls-3" d="M20.62,120l11.46.29,17.32-.44,2.08,3.78a24.52,24.52,0,0,1,3,13.2l-2.34,41.87H20.62Z"/><path class="cls-4" d="M18.09,45.79A5,5,0,0,1,17.76,44a23.51,23.51,0,0,1,1.82-4.28c.69-1.65-1.72-9.39.52-9.39H48.49c1.55,0,1.86,1.38.81,2.53-8.83,9.61,17.25,19.68,8.21,29.29A12.51,12.51,0,0,1,50.79,65q-7,0-13.93,0A17,17,0,0,1,21.07,54.28C20,51.48,18.93,48.66,18.09,45.79Z"/><path class="cls-4" d="M26.75.38h3.62A21.58,21.58,0,0,1,52,22h0A21.58,21.58,0,0,1,30.37,43.54H26.29Z"/><path class="cls-4" d="M6.62.6H47.95a.36.36,0,0,1,.36.36V12.05A13.9,13.9,0,0,1,34.41,26H19.9A13.27,13.27,0,0,1,6.62,12.68V.6A0,0,0,0,1,6.62.6Z" transform="translate(54.93 26.56) rotate(-180)"/><path class="cls-1" d="M26.9,34.81l3.71,16.93,2.94,13.48c.18.83,1,1.25,1.58.81l4.74-3.66A4.87,4.87,0,0,0,40.93,58L38.22,45.58,35.46,32.94Z"/><g class="cls-5"><path class="cls-6" d="M26.9,34.81l3.71,16.93c2.65-2.12,5.39-4.34,7.61-6.16L35.46,32.94Z"/></g><path class="cls-1" d="M12,24.32l2.35,25.4.56,1.5c1.92,5.22,17-3.84,19.27-5.83a10.65,10.65,0,0,0,3.69-8V23.78l-5.74-8.69Z"/><path class="cls-1" d="M14.52,34l.12-.16L10.57,36a1.09,1.09,0,0,0-.49.43c-.15.36.15.74.43,1a19.9,19.9,0,0,0,3.75,2.82"/><path class="cls-4" d="M6.56,26.11,30,15.84l4.82,14a3.61,3.61,0,0,0,4.8,2.89h0a3.62,3.62,0,0,0,2.37-3.51l-.52-14.44L38.71,7.54,30.26,4.83,18.18,8.45l-6,9.66Z"/><path class="cls-1" d="M14.08,47c2.11-.26,3.89-2.05,4.79-4.56.14-.39-.05-.88-.34-.88h-5Z"/><path class="cls-7" d="M18,33.39h0a1.63,1.63,0,0,0,1.63-1.63V30.31A1.63,1.63,0,0,0,18,28.68h0a1.64,1.64,0,0,0-1.63,1.63v1.45A1.64,1.64,0,0,0,18,33.39Z"/><path class="cls-7" d="M19.73,26.52l.25-1a6,6,0,0,0-3.78.31l.42,1A4.81,4.81,0,0,1,19.73,26.52Z"/><path class="cls-3" d="M22.25,63.71c1.82-1.83,8.87-8,11.64-8,5.54,0,6,2.73,6,8.27l-.45,24.22A10,10,0,0,1,38,93.39v27.79l-17.3-.37V93.39a10,10,0,0,1-1.42-5.14V70.82A10,10,0,0,1,22.25,63.71Z"/><path class="cls-8" d="M26,60.84c4.59-4.58,7.43-10.37,14.78-6.47l1,.55A26.33,26.33,0,0,1,46.2,75.5l-.36,1.8a63.6,63.6,0,0,0,3.27,36.4,50.92,50.92,0,0,1,2,5.89L53,126.84l-17.83-.14H24.49V90.53a9.94,9.94,0,0,1-1.43-5.15V68A10,10,0,0,1,26,60.84Z"/><path class="cls-1" d="M33.44,31.86a4.44,4.44,0,0,0,8.85,0,4.44,4.44,0,0,0-8.85,0Z"/><path class="cls-9" d="M18.86,38.1a1.81,1.81,0,1,0,1.81-1.81A1.82,1.82,0,0,0,18.86,38.1Z"/><polygon class="cls-2" points="40.95 255.8 30.59 259.58 30.67 258.32 34.86 255.8 23.54 262.59 41.2 259.88 41.2 255.8 40.95 255.8"/><polyline class="cls-1" points="34.86 255.8 30.67 258.32 30.59 259.58 40.95 255.8"/><path class="cls-8" d="M32,69.22l-2.26,38.42a3.87,3.87,0,0,0,2.79,3.93h0a3.86,3.86,0,0,0,4.88-3.09l6.11-37.95A5.8,5.8,0,0,0,39.25,64h0A5.81,5.81,0,0,0,32,69.22Z"/><path class="cls-1" d="M9.58,83.75a2,2,0,0,0-2.72.35,2.06,2.06,0,0,0-.3.54,2,2,0,0,0,.46,2L18.42,98l3.73-4.54Z"/><path class="cls-8" d="M36.63,109.51a4.15,4.15,0,0,0,.49-1A4,4,0,0,0,35.79,104L22.15,93.49,18.42,98l12.07,12A4,4,0,0,0,36.63,109.51Z"/><path class="cls-4" d="M6.11,76.27,3,73.69A2.2,2.2,0,0,1,2.46,71h0l5,4.33Z"/><path class="cls-1" d="M.65,77.21h0l3.78,7.55.12,0,.11.47,3.71,2.62L10.59,87a1,1,0,0,0,.63-1.16L9.37,76.55,3.59,69.08l-.1.13a2.39,2.39,0,0,0-.23,2.44L5,75.29l-.11,5.87L2.33,77.35A1.07,1.07,0,0,0,.65,77.21Z"/><path class="cls-1" d="M3.58,68.69l6,7.76,1.86,9.32a1.26,1.26,0,0,1-.78,1.41l-2.33.91L4.45,85.35,4.37,85H4.3L.38,77.17l.1-.12a1.32,1.32,0,0,1,1.06-.41,1.27,1.27,0,0,1,1,.58l2.12,3.19.1-5.07L3.05,71.75a2.64,2.64,0,0,1,.25-2.68Zm5.58,8L3.59,69.47a2.17,2.17,0,0,0-.12,2.08l1.74,3.69L5.07,81.9,2.14,77.47a.87.87,0,0,0-.63-.37.82.82,0,0,0-.57.16L4.56,84.5l.16,0,.14.6,3.54,2.5,2.1-.82a.78.78,0,0,0,.49-.89Z"/></g></g></svg>