<svg xmlns="http://www.w3.org/2000/svg" viewBox="0 0 67.48 283.82"><defs><style>.cls-1,.cls-11{fill:#d1d2d3;}.cls-1,.cls-3{stroke:#d1d2d3;}.cls-1,.cls-10,.cls-2,.cls-3,.cls-8{stroke-linecap:round;stroke-linejoin:round;stroke-width:0.75px;}.cls-2,.cls-3,.cls-5{fill:#fff;}.cls-10,.cls-2,.cls-8{stroke:#808081;}.cls-4{opacity:0.38;}.cls-6{opacity:0.33;}.cls-7{fill:#6ecbd0;}.cls-8{fill:#faba2e;}.cls-10,.cls-9{fill:#808081;}</style></defs><g id="Layer_2" data-name="Layer 2"><g id="Layer_1-2" data-name="Layer 1"><text/><path class="cls-1" d="M24.12,275H32l8.75,4.16,7.11,3,.81.21c.15.06-.58,1-.75,1L23.22,282.2Z"/><path class="cls-2" d="M22.18,157.38l3.14-2.32a12.55,12.55,0,0,1,14.35.17l2.39,1.85,0,0a6.21,6.21,0,0,1,2,5.35l-1.53,11-3.12,45.29a1.86,1.86,0,0,1,.19.22l-.39,4.36-.49,5.47-.3,3.24-4,43.38,0,.24H23.67v-.24l-.62-43.38L23,228.62l-.09-6,0-1.34h0a3.71,3.71,0,0,1-.22-1.09L20.73,173l-.49-12A4.35,4.35,0,0,1,22.18,157.38Z"/><path class="cls-2" d="M15.54,144.94V156c0,4,2.59,7.21,5.79,7.21h22c3.21,0,5.8-3.23,5.8-7.21V144.09H15.4S15.74,144.69,15.54,144.94Z"/><path class="cls-3" d="M43.34,61.77l-.68,2.5-.33,1.19-3.2,11.77-1.25,4.55-.42,1.55-.06.19-.09.33-.17-.07L20.36,76.59h0l-.28-.12.08-.28h0l.18-.65,3.92-14.07,2-7.33,1.3-4.68L30,53l3,1.7Z"/><g class="cls-4"><path class="cls-5" d="M27.05,50.85l4.22,2.39L43.42,61l-.32,1.19L39.89,74l-1.25,4.55L36.71,77C31,72.47,26.07,64.86,25,58.17Z"/></g><path class="cls-3" d="M37.43,83.48c-.41,1.09-4.61.25-9.38-1.89s-8.31-4.74-7.9-5.83,4.61-.25,9.38,1.88S37.84,82.38,37.43,83.48Z"/><path class="cls-3" d="M27.57,61.69H50.33v-.5l0-.71v-.2l2-.61a1.29,1.29,0,0,0,1-1.57l-6.58-29,3.36-1-12.68-1L25.31,30.92l-2,7.34L22.16,45.8,26.1,59.49Z"/><g class="cls-6"><path class="cls-3" d="M41,55.34A2.08,2.08,0,1,1,38.9,53.5,2,2,0,0,1,41,55.34Z"/></g><path class="cls-7" d="M49.63,121A9.67,9.67,0,0,1,45,122.16a9.86,9.86,0,0,1-9.84-9.82V99.63A9.86,9.86,0,0,1,45,89.8Z"/><path class="cls-8" d="M51,105.49q0,.54,0,1.08a14.37,14.37,0,0,1-.09,1.72l-.18,3.89,0,.64-1.93,45.51a1.25,1.25,0,0,1-1.36,1.13L18.05,158a2.87,2.87,0,0,1-2.86-2.87l.82-17a63.92,63.92,0,0,0-1.87-19.48L11.5,108.27V99.68A39.54,39.54,0,0,1,15.68,82a.33.33,0,0,0,0-.06l.58-1.15.07-.12,1.73-3.47.21-.41,2-4,.09-.18,0,0,.09,0,.46.22,7.94,3.68,2.94,1.35,6.32,2.93C41,84.56,44.69,90.46,48.1,96a19.66,19.66,0,0,1,2.71,7.65A13.81,13.81,0,0,1,51,105.49Z"/><polygon class="cls-8" points="19.83 77 22.77 68.95 39.61 76.7 38.94 85.44 19.83 77"/><path class="cls-8" d="M38.38,94.21l1.45-7.27-8-1L20,75.72l.85-2.26,16.91,7.82c3,4.24,7,10.55,9.75,15.12a18.83,18.83,0,0,1,2.61,7.36,13.94,13.94,0,0,1,.14,1.75c0,.35,0,.69,0,1v0Z"/><path class="cls-2" d="M21.22,74.44l7.12,3.3,2.93,1.35,6,2.77c.93,1.31,2,2.82,3,4.41l-1.09-.14-7-.9L20.82,75.5l.4-1.06M40.59,86.8c2.2,3.36,4.48,7,6.28,10a18.25,18.25,0,0,1,2.51,7.1c0,.28.07.57.1.87L39.16,94l1.22-6.15.21-1M20.45,72.48l0,0-.09.18-1.22,3.24L31.49,86.6l7.48,1L37.6,94.44l13.26,13.85a14.37,14.37,0,0,0,.09-1.72q0-.54,0-1.08a13.81,13.81,0,0,0-.14-1.82A19.66,19.66,0,0,0,48.1,96C44.69,90.46,41,84.56,38.2,80.71l-6.32-2.93-2.94-1.35L21,72.75l-.46-.22-.09,0Z"/><path class="cls-9" d="M46.76,52.22h0a1.29,1.29,0,0,1-1.28-1.28v-1.2a1.28,1.28,0,0,1,1.28-1.28h0A1.28,1.28,0,0,1,48,49.74v1.2A1.29,1.29,0,0,1,46.76,52.22Z"/><path class="cls-9" d="M44.06,45.91l.44,1.54s2.43-1.54,3.75-.44l.22-2.2S45.16,43.92,44.06,45.91Z"/><path class="cls-10" d="M50.45,68l-.1-5.22,0-1.58,0-.71L47,59.56c-3.65-1.16-7,1.74-10.55,1.73a3.66,3.66,0,0,1-2.83-.95A3.41,3.41,0,0,1,32.93,58c.06-1.93,1-3.76,1.07-5.69.22-3.67-2-5.67-4.73-7.47-2.13-1.38-2.28-1-1.69,1.45.75,3.11,1.86,5.92,1.49,9.18-.23,2-2.48,1.6-3.14,2.84l1.66,4.79a9.12,9.12,0,0,0,3.8,4.78l8.43,5.2C44.47,76,50.58,75.29,50.45,68Z"/><path class="cls-10" d="M53.12,27.07c-.17-.93-.38-1.86-.62-2.81L27.12,29c-.37.09-.73.2-1.08.32l-.34.07a11.63,11.63,0,0,0-6.65,16l4,8.44,1.1,1.46,7.9-3.36c1.33-.57,2.38-2.33,1.43-3.39C31.24,46,26.69,42.34,29,38.33a4.29,4.29,0,0,1,.89-1.09,2.92,2.92,0,0,0,.31.25C39.41,43.26,55.57,40.23,53.12,27.07Z"/><path class="cls-3" d="M29.9,50.07l-.5-1A4.08,4.08,0,0,0,26,46.72l-.73-.06a4,4,0,0,0-3.55,1.68h0a4.31,4.31,0,0,0-.8,2.85l.19,2.55a4.17,4.17,0,0,0,.5,1.73l.28.52a4.05,4.05,0,0,0,3.56,2.17h.19a4.11,4.11,0,0,0,3.92-3l.56-2A4.36,4.36,0,0,0,29.9,50.07Z"/><path class="cls-5" d="M50.45,66.57a6.18,6.18,0,0,1-3.75-4.2c-.12-.37,0-.83.31-.83h3.34Z"/><g id="Íîâûé_ñèìâîë_37" data-name="Íîâûé ñèìâîë 37"><polygon class="cls-3" points="49.3 135.26 13.84 138.03 42.99 135.75 49.3 135.26"/><path class="cls-3" d="M55,128.44a2.68,2.68,0,0,1,2.24,2.49l.06,1a2.69,2.69,0,0,1-2.47,2.85l-5.5.43,0-7.81Z"/><path class="cls-8" d="M1.34,126a6,6,0,0,1,7-5.62l35,6.05L43,135.75,13.84,138A11.51,11.51,0,0,1,1.34,126Z"/><polygon class="cls-2" points="43.38 126.43 49.26 127.45 49.3 135.26 42.99 135.75 43.38 126.43"/></g><g id="Íîâûé_ñèìâîë_36" data-name="Íîâûé ñèìâîë 36"><path class="cls-8" d="M30.41,96.45,23.6,115.19l-.11.33-5.92,16.27a7.7,7.7,0,0,1-9.32,4.78l-.62-.18A10,10,0,0,1,.84,123.82l4.44-14.15,0-.08,6.36-20.26a9.65,9.65,0,0,1,11.5-6.47A10.35,10.35,0,0,1,30.41,96.45Z"/></g><path class="cls-3" d="M60.23,126.22l1.87,3.42,0,.08.09,0h0l4,1.3.86,1.64-.66,1.9h0l-.26.76L65.61,137l-.22.66-.45,1.28-6.62,1.21-7.73-6.09a1.23,1.23,0,0,1-.43-1.25l.06-.18.78-2.91a2.93,2.93,0,0,1,1.79-1.86l6-2.16A1.15,1.15,0,0,1,60.23,126.22Z"/><polygon class="cls-11" points="62.51 129.98 57.2 129.43 57.28 128.86 62 129.55 62.51 129.98"/></g></g></svg>