<svg id="Layer_1" data-name="Layer 1" xmlns="http://www.w3.org/2000/svg" viewBox="0 0 1920 1080"><defs><style>.cls-1,.cls-4{fill:none;}.cls-1{stroke:#d1d2d3;stroke-linecap:round;stroke-linejoin:round;stroke-width:2px;}.cls-2{fill:#fff;}.cls-3{fill:#cf3339;}.cls-4{stroke:#fff;stroke-miterlimit:10;}.cls-5{fill:#3eb871;}</style></defs><line class="cls-1" x1="1694.79" y1="999.9" x2="1673.32" y2="999.9"/><rect x="420.62" y="-420" width="1078.75" height="1920" transform="translate(1500 -420) rotate(90)"/><polygon class="cls-2" points="75.16 1006.9 93.11 1033.99 45.14 1033.99 45.14 993.72 54.36 979.81 93.11 979.81 75.16 1006.9"/><path class="cls-3" d="M1507.75,156.29q-.84,5.06-6,7.73a24,24,0,0,1-11,2.26q-9.2,0-13.78-5.2a13.87,13.87,0,0,1-3.42-9.47,13.5,13.5,0,0,1,1.74-6.9l8.2-1.73a15.13,15.13,0,0,0-1.78,7.1q0,8.31,9,8.31,6.16,0,7.9-2.1h-4.84l4.36-8.42h9.74v8.42Zm-21.52,21.83a4.21,4.21,0,0,1-3.16-1.24,4.37,4.37,0,0,1-1.21-3.18,4.2,4.2,0,0,1,1.21-3.13,4.33,4.33,0,0,1,3.16-1.18,4.06,4.06,0,0,1,4.31,4.31,4.4,4.4,0,0,1-1.18,3.21A4.17,4.17,0,0,1,1486.23,178.12Zm9.47,0a4.21,4.21,0,0,1-3.16-1.24,4.37,4.37,0,0,1-1.21-3.18,4.2,4.2,0,0,1,1.21-3.13,4.33,4.33,0,0,1,3.16-1.18,4.06,4.06,0,0,1,4.31,4.31,4.4,4.4,0,0,1-1.18,3.21A4.17,4.17,0,0,1,1495.7,178.12Z"/><path class="cls-3" d="M1506.33,156.29v-8.42h2.78a3.66,3.66,0,0,0,2.71-.76,4.27,4.27,0,0,0,.71-2.87V127l8.68-4.63v21.94a11.84,11.84,0,0,1-3.41,8.89,11.37,11.37,0,0,1-8.32,3.11Z"/><path class="cls-3" d="M1540.89,156.29a9.75,9.75,0,0,1-7.73-3.16,10.37,10.37,0,0,1-2.48-7.15v-19l8.69-4.58v23.21a2.63,2.63,0,0,0,.47,1.84,2.66,2.66,0,0,0,1.84.47h4.89v8.42Z"/><path class="cls-3" d="M1577.45,147.87h4.9v8.42h-5.68a10.51,10.51,0,0,1-5.58-1.42,11.6,11.6,0,0,1-14.31,0,10.37,10.37,0,0,1-5.58,1.42h-5.68v-8.42h4.89a2.66,2.66,0,0,0,1.84-.47,2.62,2.62,0,0,0,.48-1.84v-1.37q0-6.27,3.36-9.79a10.42,10.42,0,0,1,7.84-3.1,10,10,0,0,1,8.58,4,14.57,14.57,0,0,1,2.63,8.84v1.37a1.86,1.86,0,0,0,2.31,2.31Zm-13.52,1q2.53,0,2.53-4.94,0-4.53-2.53-4.53t-2.52,4.53Q1561.41,148.92,1563.93,148.92Z"/><path class="cls-3" d="M1581.29,156.29v-8.42h2.79a3.66,3.66,0,0,0,2.71-.76,4.27,4.27,0,0,0,.71-2.87V127l8.68-4.63v21.94a11.8,11.8,0,0,1-3.42,8.89,11.33,11.33,0,0,1-8.31,3.11Z"/><path class="cls-3" d="M1605.65,156.29V127l8.68-4.63v33.94Z"/><path class="cls-3" d="M1667.57,147.87a30.11,30.11,0,0,1,7.58-11.73,17.32,17.32,0,0,1,12-4.84,12.91,12.91,0,0,1,10.32,4.47,13.55,13.55,0,0,1,3.31,9.26V146a9.91,9.91,0,0,1-3.16,7.84,10.14,10.14,0,0,1-7,2.47H1667a11.54,11.54,0,0,1-2-.16,12.39,12.39,0,0,1-5.37,7.68,15.92,15.92,0,0,1-9,2.47q-7.37,0-11.41-5.2a14.82,14.82,0,0,1-3.16-9.47,13.5,13.5,0,0,1,1.74-6.9L1646,143a15.14,15.14,0,0,0-1.79,7.1,8.68,8.68,0,0,0,1.74,5.66,5.73,5.73,0,0,0,4.68,2.13q6.16,0,6.16-5.48V139l8.68-4.57v11.1a2.75,2.75,0,0,0,.42,1.78A2.33,2.33,0,0,0,1667.57,147.87Zm24.52-2.31V145a5.94,5.94,0,0,0-1.34-4.05,4.5,4.5,0,0,0-3.55-1.53,9.85,9.85,0,0,0-6.08,2.26,17,17,0,0,0-4.81,6.16h14c.84,0,1.35-.11,1.53-.34A4.32,4.32,0,0,0,1692.09,145.56Zm-4.74-17.42a4.22,4.22,0,0,1-3.15-1.23,4.37,4.37,0,0,1-1.21-3.19,4.17,4.17,0,0,1,1.21-3.13,4.3,4.3,0,0,1,3.15-1.18,4.07,4.07,0,0,1,4.32,4.31,4.39,4.39,0,0,1-1.19,3.21A4.15,4.15,0,0,1,1687.35,128.14Z"/><path class="cls-3" d="M1722.18,147.87h4.89v8.42h-5.68c-.45,0-1.07,0-1.84-.11q-1.32,6.63-6.73,9.26a11.78,11.78,0,0,1-5,1.11,14.21,14.21,0,0,1-7-1.9v-7.52a10.93,10.93,0,0,0,5.36,1.58,7.07,7.07,0,0,0,1.95-.26q3.11-1,3.11-5.32v-16.2l8.68-4.58v13.21a2.63,2.63,0,0,0,.47,1.84A2.68,2.68,0,0,0,1722.18,147.87Z"/><path class="cls-3" d="M1764.79,156.29h-14.41a17.6,17.6,0,0,0-10.1,0H1726v-8.42h8.89a55.55,55.55,0,0,1-3.47-5.16v-2.94a19.41,19.41,0,0,1,6.29-6.1,13.26,13.26,0,0,1,15.2.05,19.83,19.83,0,0,1,6.34,6.15v2.84a48.66,48.66,0,0,1-3.52,5.16h8.94Zm-14.57-14.89a7.84,7.84,0,0,0-4.89-2,7,7,0,0,0-4.89,2,4.89,4.89,0,1,0,9.78,0Z"/><path class="cls-3" d="M1763.74,156.29v-8.42h2.79a3.67,3.67,0,0,0,2.71-.76,4.33,4.33,0,0,0,.71-2.87V127l8.68-4.63v21.94a11.8,11.8,0,0,1-3.42,8.89,11.33,11.33,0,0,1-8.31,3.11Z"/><path class="cls-3" d="M1788.1,156.29V127l8.68-4.63v33.94Z"/><line class="cls-4" x1="631.05" y1="399.34" x2="1920" y2="399.34"/><path class="cls-5" d="M902.17,431.75,900,429.54a6.79,6.79,0,0,1-3.89,1.16,6.84,6.84,0,1,1,7-6.84,6.74,6.74,0,0,1-1.67,4.45l2.16,2.15Zm-5.68-5.68,1.38-1.26L900,427a4.9,4.9,0,0,0,1-3.1,5,5,0,1,0-2.45,4.35Z"/><path class="cls-5" d="M915.39,421v9.5h-1.8v-1.27a7,7,0,0,1-4.11,1.46,3.24,3.24,0,0,1-3.55-3.49V421h1.79v5.7a2.27,2.27,0,0,0,2.47,2.51,5.17,5.17,0,0,0,3.4-1.39V421Z"/><path class="cls-5" d="M927,430.51h-1.79v-1a5.65,5.65,0,0,1-3.55,1.21c-2.3,0-3.7-1.21-3.7-3s1.46-3,3.82-3h3.43v-.09c0-1.47-.87-2.24-2.6-2.24a5.73,5.73,0,0,0-3.27,1.08l-.62-1.33a7.62,7.62,0,0,1,4.23-1.24c2.59,0,4,1.3,4,3.56Zm-1.79-4.58H922c-1.46,0-2.32.61-2.32,1.68s.8,1.61,2.25,1.61a6.17,6.17,0,0,0,3.24-1Z"/><path class="cls-5" d="M939.43,430.51h-1.79v-5.7a2.27,2.27,0,0,0-2.47-2.5,5.21,5.21,0,0,0-3.4,1.38v6.82H930V421h1.8v1.28a7,7,0,0,1,4.1-1.47,3.24,3.24,0,0,1,3.56,3.5Z"/><path class="cls-5" d="M948.41,430.11a4.83,4.83,0,0,1-2.26.59,3.06,3.06,0,0,1-3.19-3.3v-4.9h-1.63V421H943v-2.73h1.79V421h2.88v1.49h-2.88v4.65a1.82,1.82,0,0,0,1.88,2,3.48,3.48,0,0,0,1.52-.34Z"/><path class="cls-5" d="M951.8,419.59a1.06,1.06,0,0,1-1-1,1,1,0,0,1,1-1,1,1,0,0,1,1,1A1,1,0,0,1,951.8,419.59Zm.89,10.92H950.9V421h1.79Z"/><path class="cls-5" d="M962,430.11a4.83,4.83,0,0,1-2.26.59,3.05,3.05,0,0,1-3.19-3.3v-4.9h-1.64V421h1.64v-2.73h1.78V421h2.89v1.49h-2.89v4.65a1.83,1.83,0,0,0,1.88,2,3.45,3.45,0,0,0,1.52-.34Z"/><path class="cls-5" d="M969,431.46c-.83,2-2,3-3.65,3a6.7,6.7,0,0,1-2.18-.44l.51-1.29a3.77,3.77,0,0,0,1.48.3c1,0,1.58-.49,2.25-1.78l.19-.38-4.3-9.81h1.9l3.19,7.56,3.06-7.56h1.86Z"/><path class="cls-5" d="M1025.68,430.59h-5.24v-13.3h5.24a6.66,6.66,0,1,1,0,13.3ZM1022.36,419v9.84h3.27a4.92,4.92,0,1,0,0-9.84Z"/><path class="cls-5" d="M1044.21,430.59h-1.79v-1a5.6,5.6,0,0,1-3.55,1.22c-2.3,0-3.7-1.22-3.7-3s1.46-3,3.81-3h3.44v-.1c0-1.46-.87-2.24-2.6-2.24a5.67,5.67,0,0,0-3.27,1.09l-.63-1.33a7.68,7.68,0,0,1,4.24-1.24c2.59,0,4,1.29,4,3.55Zm-1.79-4.58h-3.17c-1.46,0-2.32.61-2.32,1.67s.8,1.62,2.24,1.62a6.21,6.21,0,0,0,3.25-.95Z"/><path class="cls-5" d="M1051.85,431.54c-.84,2-2,2.94-3.65,2.94a6.67,6.67,0,0,1-2.19-.43l.52-1.29a3.88,3.88,0,0,0,1.48.3c1,0,1.57-.49,2.24-1.79l.19-.38-4.29-9.8h1.9l3.19,7.56,3.06-7.56h1.86Z"/><path class="cls-5" d="M1064.61,423.16a6.81,6.81,0,0,0-3.26-.91c-1.26,0-1.89.44-1.89,1.29,0,.67.4.91,1.94,1.35l1.12.31c2.23.6,3,1.31,3,2.65,0,1.85-1.44,2.93-3.89,2.93a8,8,0,0,1-4.33-1.24l.63-1.21a7.18,7.18,0,0,0,3.78,1.1c1.4,0,2.1-.47,2.1-1.44,0-.72-.32-.93-1.74-1.35l-1.24-.34a7.47,7.47,0,0,1-2.43-1.05,1.89,1.89,0,0,1-.68-1.56c0-1.74,1.4-2.79,3.68-2.79a7.56,7.56,0,0,1,3.82,1Z"/><path class="cls-5" d="M648.7,420.67a5,5,0,0,0-3.87-1.84,5,5,0,0,0,0,10.07A5.06,5.06,0,0,0,648.7,427l1.54,1.1a6.85,6.85,0,0,1-5.43,2.58,6.84,6.84,0,1,1,0-13.68,6.82,6.82,0,0,1,5.43,2.59Z"/><path class="cls-5" d="M658.81,422.48a5.57,5.57,0,0,0-4.16,1.82v6.21h-1.8V421h1.8v1.81a5.76,5.76,0,0,1,4.16-2Z"/><path class="cls-5" d="M670.21,426.43h-8.07a3,3,0,0,0,3.17,2.77,4.38,4.38,0,0,0,3.15-1.12l1,1a6,6,0,0,1-4.16,1.63,4.92,4.92,0,0,1-5-5,4.94,4.94,0,0,1,9.88,0Zm-1.73-1.33a3,3,0,0,0-3.21-2.79,3,3,0,0,0-3.15,2.79Z"/><path class="cls-5" d="M683.28,430.51h-1.95l-2.26-6.89-2.25,6.89h-2l-3.21-9.5h1.8l2.49,7.58,2.41-7.58h1.47l2.41,7.58,2.49-7.58h1.8Z"/><path class="cls-5" d="M1115.23,420.41a5,5,0,0,0-3.88-1.84,5,5,0,0,0,0,10.07,5.1,5.1,0,0,0,3.88-1.88l1.53,1.1a6.83,6.83,0,0,1-5.43,2.58,6.84,6.84,0,1,1,0-13.67,6.8,6.8,0,0,1,5.43,2.58Z"/><path class="cls-5" d="M1124.14,430.44a4.95,4.95,0,1,1,5.22-4.94A5,5,0,0,1,1124.14,430.44Zm0-1.54a3.4,3.4,0,1,0-3.44-3.4A3.38,3.38,0,0,0,1124.14,428.9Z"/><path class="cls-5" d="M1138.54,422.83a6.74,6.74,0,0,0-3.27-.92c-1.25,0-1.88.44-1.88,1.3,0,.66.4.91,1.94,1.34l1.12.31c2.22.61,3,1.31,3,2.66,0,1.84-1.44,2.92-3.89,2.92a8,8,0,0,1-4.34-1.23l.63-1.22a7.12,7.12,0,0,0,3.78,1.1c1.41,0,2.11-.47,2.11-1.44,0-.72-.32-.93-1.75-1.35l-1.23-.34a7.19,7.19,0,0,1-2.43-1,1.92,1.92,0,0,1-.69-1.56c0-1.75,1.41-2.8,3.69-2.8a7.56,7.56,0,0,1,3.82,1Z"/><path class="cls-5" d="M1148.1,429.85a4.83,4.83,0,0,1-2.26.59,3.06,3.06,0,0,1-3.2-3.3v-4.9H1141v-1.49h1.63V418h1.79v2.73h2.89v1.49h-2.89v4.65a1.83,1.83,0,0,0,1.88,2,3.46,3.46,0,0,0,1.52-.35Z"/><path class="cls-5" d="M1161,417c3.81,0,5.56,1.42,5.56,4.54s-1.75,4.54-5.53,4.54h-3.55v4.21h-1.92V417Zm-3.52,1.71v5.69H1161c2.49,0,3.61-.87,3.61-2.85s-1.12-2.84-3.63-2.84Z"/><path class="cls-5" d="M1178.76,426.17h-8.07a3,3,0,0,0,3.17,2.77,4.36,4.36,0,0,0,3.15-1.12l1,1a6,6,0,0,1-4.16,1.63,4.92,4.92,0,0,1-5-4.95,4.94,4.94,0,0,1,9.88,0Zm-1.73-1.33a3,3,0,0,0-3.21-2.79,3,3,0,0,0-3.15,2.79Z"/><path class="cls-5" d="M1187.31,422.22a5.6,5.6,0,0,0-4.16,1.82v6.21h-1.8v-9.5h1.8v1.81a5.8,5.8,0,0,1,4.16-2Z"/><path class="cls-5" d="M1203.35,417v13.29h-1.79v-1.14a4.17,4.17,0,0,1-3.21,1.33,4.94,4.94,0,0,1,0-9.88,4.21,4.21,0,0,1,3.21,1.33V417Zm-1.79,6.57a3.65,3.65,0,0,0-3-1.43,3.26,3.26,0,0,0-3.19,3.4,3.2,3.2,0,0,0,3.19,3.4,3.67,3.67,0,0,0,3-1.42Z"/><path class="cls-5" d="M1215,430.25h-1.79v-1a5.67,5.67,0,0,1-3.55,1.21c-2.3,0-3.71-1.21-3.71-3s1.47-3,3.82-3h3.44v-.09c0-1.46-.87-2.24-2.6-2.24a5.7,5.7,0,0,0-3.27,1.08l-.63-1.33a7.68,7.68,0,0,1,4.24-1.24c2.58,0,4,1.3,4,3.56Zm-1.79-4.57H1210c-1.47,0-2.32.6-2.32,1.67s.8,1.61,2.24,1.61a6.23,6.23,0,0,0,3.25-.95Z"/><path class="cls-5" d="M1222.61,431.2c-.83,2-2,2.95-3.64,2.95a6.45,6.45,0,0,1-2.19-.44l.51-1.29a3.78,3.78,0,0,0,1.49.3c1,0,1.57-.49,2.24-1.78l.19-.38-4.29-9.81h1.89l3.2,7.57,3-7.57h1.87Z"/><path class="cls-5" d="M1238.45,418.94a20.84,20.84,0,0,0-1.29,3.89,19.32,19.32,0,0,0-.51,4.31,19,19,0,0,0,.53,4.37,21.49,21.49,0,0,0,1.31,3.95l-1.54.86a22.27,22.27,0,0,1-1.58-4.35,19.4,19.4,0,0,1-.64-4.83,19.7,19.7,0,0,1,.62-4.76,22,22,0,0,1,1.56-4.3Z"/><path class="cls-5" d="M1250,421.18a9.87,9.87,0,0,0-4.58-1.26c-1.69,0-2.86.67-2.86,2,0,.86.47,1.25,2.88,1.9l1.56.42c2.83.78,4.22,1.5,4.22,3.68a3.41,3.41,0,0,1-1.48,3,6.74,6.74,0,0,1-3.9,1,10.85,10.85,0,0,1-5.93-1.71l.9-1.46a10.7,10.7,0,0,0,5.18,1.46c1.9,0,3.2-.68,3.2-2.18-.08-1.12-.61-1.43-2.7-2l-1.6-.4c-3.17-.81-4.41-1.61-4.41-3.62a3.19,3.19,0,0,1,1.41-2.83,6.51,6.51,0,0,1,3.67-1,10.45,10.45,0,0,1,5.3,1.41Z"/><path class="cls-5" d="M1263.59,428.49h-7.13l-1.38,3.21H1253l5.77-13.29h2.53l5.79,13.29H1265Zm-.71-1.65-2.85-6.55-2.85,6.55Z"/><path class="cls-5" d="M1279.3,431.7l-3.16-4.63a3.57,3.57,0,0,1-.53,0h-3.91v4.61h-1.92V418.41h5.74c3.93,0,5.56,1.32,5.56,4.23,0,2.21-.95,3.57-2.86,4.12l3.38,4.94Zm-7.6-6.32h3.91c2.49,0,3.48-.74,3.48-2.62s-1-2.64-3.48-2.64h-3.91Z"/><path class="cls-5" d="M1285.74,432a22.31,22.31,0,0,1-1.56,4.35l-1.54-.86a20.79,20.79,0,0,0,1.3-3.95,19,19,0,0,0,.55-4.37,18.27,18.27,0,0,0-.53-4.31,19.5,19.5,0,0,0-1.28-3.89l1.54-.86a20.81,20.81,0,0,1,1.54,4.3,18.39,18.39,0,0,1,.65,4.76A19,19,0,0,1,1285.74,432Z"/><path class="cls-5" d="M1365.79,422.86h-4.44v11.59h-1.92V422.86H1355v-1.71h10.81Z"/><path class="cls-5" d="M1372.81,434.64a4.95,4.95,0,1,1,5.22-4.94A5,5,0,0,1,1372.81,434.64Zm0-1.54a3.4,3.4,0,1,0-3.44-3.4A3.38,3.38,0,0,0,1372.81,433.1Z"/><path class="cls-5" d="M1386.73,434.05a4.83,4.83,0,0,1-2.26.59,3.07,3.07,0,0,1-3.19-3.31v-4.9h-1.63V425h1.63v-2.74h1.79V425H1386v1.48h-2.88v4.65a1.82,1.82,0,0,0,1.88,2,3.63,3.63,0,0,0,1.52-.34Z"/><path class="cls-5" d="M1397.52,434.45h-1.78v-1a5.63,5.63,0,0,1-3.56,1.22c-2.29,0-3.7-1.22-3.7-3s1.46-3,3.82-3h3.44v-.1c0-1.46-.88-2.24-2.61-2.24a5.67,5.67,0,0,0-3.26,1.08l-.63-1.33a7.75,7.75,0,0,1,4.24-1.23c2.58,0,4,1.29,4,3.55Zm-1.78-4.58h-3.18c-1.46,0-2.31.61-2.31,1.67s.79,1.61,2.24,1.61a6.23,6.23,0,0,0,3.25-.95Z"/><path class="cls-5" d="M1402.29,434.45h-1.8v-13.3h1.8Z"/><path class="cls-5" d="M1420.91,424.61a5,5,0,0,0-3.87-1.85,5,5,0,0,0,0,10.07,5.08,5.08,0,0,0,3.87-1.88l1.54,1.1a6.82,6.82,0,0,1-5.43,2.59,6.84,6.84,0,1,1,0-13.68,6.85,6.85,0,0,1,5.43,2.58Z"/><path class="cls-5" d="M1429.82,434.64a4.95,4.95,0,1,1,5.23-4.94A5,5,0,0,1,1429.82,434.64Zm0-1.54a3.4,3.4,0,1,0-3.44-3.4A3.39,3.39,0,0,0,1429.82,433.1Z"/><path class="cls-5" d="M1444.22,427a6.81,6.81,0,0,0-3.26-.91c-1.26,0-1.88.43-1.88,1.29,0,.66.4.91,1.93,1.35l1.12.3c2.23.61,3,1.31,3,2.66,0,1.84-1.45,2.93-3.9,2.93a8,8,0,0,1-4.33-1.24l.63-1.21a7.18,7.18,0,0,0,3.78,1.1c1.4,0,2.11-.48,2.11-1.45,0-.72-.33-.93-1.75-1.35l-1.24-.34a7.29,7.29,0,0,1-2.43-1,1.94,1.94,0,0,1-.68-1.56c0-1.75,1.4-2.79,3.68-2.79a7.65,7.65,0,0,1,3.82,1Z"/><path class="cls-5" d="M1453.78,434.05a4.83,4.83,0,0,1-2.26.59,3.07,3.07,0,0,1-3.19-3.31v-4.9h-1.63V425h1.63v-2.74h1.79V425H1453v1.48h-2.88v4.65a1.82,1.82,0,0,0,1.88,2,3.63,3.63,0,0,0,1.52-.34Z"/><path class="cls-5" d="M1462.31,421.13A20.82,20.82,0,0,0,1461,425a19.4,19.4,0,0,0-.51,4.32,19,19,0,0,0,.53,4.37,21.49,21.49,0,0,0,1.31,4l-1.53.85a22,22,0,0,1-1.58-4.35,18.9,18.9,0,0,1-.65-4.82,19.26,19.26,0,0,1,.63-4.77,22.24,22.24,0,0,1,1.56-4.3Z"/><path class="cls-5" d="M1473.84,423.37a9.89,9.89,0,0,0-4.58-1.25c-1.69,0-2.87.66-2.87,2,0,.86.48,1.26,2.89,1.9l1.56.42c2.83.78,4.21,1.5,4.21,3.69a3.37,3.37,0,0,1-1.48,3,6.73,6.73,0,0,1-3.89,1,10.93,10.93,0,0,1-5.93-1.71l.89-1.47a10.64,10.64,0,0,0,5.19,1.47c1.9,0,3.19-.69,3.19-2.19-.07-1.12-.61-1.42-2.7-2l-1.59-.4c-3.17-.82-4.41-1.62-4.41-3.63a3.19,3.19,0,0,1,1.41-2.83,6.48,6.48,0,0,1,3.66-.95,10.42,10.42,0,0,1,5.3,1.4Z"/><path class="cls-5" d="M1487.44,430.69h-7.12l-1.39,3.21h-2.09l5.78-13.3h2.52l5.8,13.3h-2.09Zm-.7-1.66-2.85-6.55L1481,429Z"/><path class="cls-5" d="M1503.16,433.9l-3.16-4.64a3.57,3.57,0,0,1-.53,0h-3.91v4.62h-1.92V420.6h5.73c3.94,0,5.57,1.33,5.57,4.23,0,2.21-1,3.58-2.87,4.13l3.38,4.94Zm-7.6-6.33h3.91c2.49,0,3.48-.74,3.48-2.62s-1-2.64-3.48-2.64h-3.91Z"/><path class="cls-5" d="M1509.6,434.16a22.07,22.07,0,0,1-1.56,4.35l-1.54-.85a21.55,21.55,0,0,0,1.29-4,19.08,19.08,0,0,0,.55-4.37,18.35,18.35,0,0,0-.53-4.32,19.52,19.52,0,0,0-1.27-3.89l1.54-.86a21,21,0,0,1,1.54,4.3,18.82,18.82,0,0,1,.64,4.77A19.38,19.38,0,0,1,1509.6,434.16Z"/><path class="cls-2" d="M148.38,498.75h24.81V513.5H131.88v-53h16.5Z"/><path class="cls-2" d="M198.75,514.25c-12.18.23-22-8.54-21.78-19.67-.23-11.12,9.6-19.89,21.78-19.67,12.18-.22,22,8.55,21.79,19.67C220.77,505.71,210.93,514.48,198.75,514.25Zm-.07-13a6.66,6.66,0,1,0-6.58-6.66A6.28,6.28,0,0,0,198.68,501.24Z"/><path class="cls-2" d="M267.75,475.67V512c0,6-1.9,10.29-5.6,13.09s-8.55,4.16-14.53,4.16c-7.79,0-15.73-1.59-22.09-4.84l4.31-9.91a33.88,33.88,0,0,0,14.53,3.18c4.92,0,8-1.74,8-5.68v-3.1A15.5,15.5,0,0,1,241,513.65c-9.31,0-16-7.79-16-19.37s6.65-19.37,16-19.37a15.52,15.52,0,0,1,11.35,4.85v-4.09ZM252.39,491.1a7,7,0,0,0-6-3.4,6.59,6.59,0,0,0,0,13.16,7,7,0,0,0,6-3.4Z"/><path class="cls-2" d="M282.87,473.17c-4.46,0-7.94-2.95-7.94-6.65s3.63-6.74,7.94-6.74,8,3,8,6.74S287.33,473.17,282.87,473.17Zm7.72,40.33H275.23V475.67h15.36Z"/><path class="cls-2" d="M326,488.53c-3.71-2-8.47-3.48-11.42-3.48-1.67,0-2.5.46-2.5,1.44,0,.68.45,1,3.1,1.66l3.33.84c9.31,2.42,13.16,6.05,13.16,12.48,0,8.17-6.12,12.78-16.79,12.78a34.45,34.45,0,0,1-18.76-5.44L301.4,500a27.8,27.8,0,0,0,13.85,4.16c1.43,0,2.19-.53,2.19-1.52,0-.83-.45-1.06-2.57-1.66l-4.54-1.21c-9.08-2.5-12.56-5.75-12.56-11.88,0-8.17,6.13-12.94,16.65-12.94A34.1,34.1,0,0,1,331,479.23Z"/><path class="cls-2" d="M366,510.77a26.28,26.28,0,0,1-12.86,3.48c-7.65,0-13.24-4.46-13.24-13.24V487.32h-4.47V475.67h4.47v-9.46h15.35v9.46h8.55v11.65h-8.55v11.05c0,2.34,1.59,3.48,3.94,3.48a9.69,9.69,0,0,0,4.92-1.44Z"/><path class="cls-2" d="M379.55,473.17c-4.47,0-7.95-2.95-7.95-6.65s3.63-6.74,7.95-6.74,8,3,8,6.74S384,473.17,379.55,473.17Zm7.71,40.33H371.9V475.67h15.36Z"/><path class="cls-2" d="M419.94,490.27a6.46,6.46,0,0,0-5.29-2.34c-3.33,0-6.06,2.72-6.06,6.65s2.73,6.66,6.06,6.66a6.49,6.49,0,0,0,5.29-2.34l11.73,6.43a21,21,0,0,1-17.4,8.92c-11.12.23-21-9-20.73-19.67-.23-10.66,9.61-19.89,20.73-19.67a21,21,0,0,1,17.4,8.93Z"/><path class="cls-2" d="M464.88,488.53c-3.71-2-8.48-3.48-11.43-3.48-1.66,0-2.49.46-2.49,1.44,0,.68.45,1,3.1,1.66l3.33.84c9.3,2.42,13.16,6.05,13.16,12.48,0,8.17-6.13,12.78-16.8,12.78A34.47,34.47,0,0,1,435,508.81l5.3-8.85a27.73,27.73,0,0,0,13.84,4.16c1.44,0,2.2-.53,2.2-1.52,0-.83-.46-1.06-2.58-1.66l-4.54-1.21c-9.07-2.5-12.55-5.75-12.55-11.88,0-8.17,6.13-12.94,16.64-12.94a34.14,34.14,0,0,1,16.57,4.32Z"/><path class="cls-3" d="M139.81,538.39a9.28,9.28,0,0,1-7.41-3.16,10.64,10.64,0,0,1-2.37-7.15v-4.31l8.63-4.58v8.47A1.86,1.86,0,0,0,141,530h16.84a2.63,2.63,0,0,0,1.84-.47,2.68,2.68,0,0,0,.47-1.84V519l8.68-4.58v13.63a9.64,9.64,0,0,1-10.2,10.31Zm4.79-24.46a4.21,4.21,0,0,1-3.16-1.24,4.37,4.37,0,0,1-1.21-3.18,4.2,4.2,0,0,1,1.21-3.13,4.33,4.33,0,0,1,3.16-1.19,4.09,4.09,0,0,1,4.32,4.32,4.4,4.4,0,0,1-1.19,3.21A4.2,4.2,0,0,1,144.6,513.93Zm9.47,0a4.21,4.21,0,0,1-3.16-1.24,4.37,4.37,0,0,1-1.21-3.18,4.2,4.2,0,0,1,1.21-3.13,4.33,4.33,0,0,1,3.16-1.19,4.09,4.09,0,0,1,4.32,4.32,4.4,4.4,0,0,1-1.19,3.21A4.2,4.2,0,0,1,154.07,513.93Z"/><path class="cls-3" d="M188.48,538.39a9.78,9.78,0,0,1-7.74-3.16,10.39,10.39,0,0,1-2.47-7.15V509l8.68-4.57v23.2a2.62,2.62,0,0,0,.48,1.84,2.59,2.59,0,0,0,1.84.47h4.89v8.42Z"/><path class="cls-3" d="M193.11,538.39V530h7.15v8.42Z"/><path class="cls-3" d="M199.21,538.39V530h7.15v8.42Z"/><path class="cls-3" d="M205.31,538.39V530h7.16v8.42Z"/><path class="cls-3" d="M211.41,538.39V530h7.16v8.42Z"/><path class="cls-3" d="M217.52,538.39V530h7.15v8.42Z"/><path class="cls-3" d="M223.62,538.39V530h7.15v8.42Z"/><path class="cls-3" d="M229.72,538.39V530h7.16v8.42Z"/><path class="cls-3" d="M235.83,538.39V530H243v8.42Z"/><path class="cls-3" d="M241.93,538.39V530h7.15v8.42Z"/><path class="cls-3" d="M248,538.39V530h7.16v8.42Z"/><path class="cls-3" d="M257.55,542.65a4.09,4.09,0,0,1,4.32,4.32,4.4,4.4,0,0,1-1.19,3.21,4.67,4.67,0,0,1-6.28,0,4.36,4.36,0,0,1-1.21-3.18,4.15,4.15,0,0,1,1.21-3.13A4.29,4.29,0,0,1,257.55,542.65ZM272.34,530h4.89v8.42h-5.68a10.52,10.52,0,0,1-5.84-1.58,11,11,0,0,1-5.9,1.58h-5.68V530H259a2.63,2.63,0,0,0,1.84-.47,2.68,2.68,0,0,0,.47-1.84V519l8.68-4.58v13.21a2.68,2.68,0,0,0,.47,1.84A2.64,2.64,0,0,0,272.34,530ZM267,542.65a4.09,4.09,0,0,1,4.32,4.32,4.4,4.4,0,0,1-1.19,3.21,4.67,4.67,0,0,1-6.28,0,4.36,4.36,0,0,1-1.21-3.18,4.15,4.15,0,0,1,1.21-3.13A4.29,4.29,0,0,1,267,542.65Z"/><path class="cls-3" d="M283.49,506.88a4.44,4.44,0,0,1-1.18,3.21,4.65,4.65,0,0,1-6.29,0,4.33,4.33,0,0,1-1.21-3.18,4.17,4.17,0,0,1,1.21-3.13,4.31,4.31,0,0,1,3.15-1.19,4.07,4.07,0,0,1,4.32,4.32ZM294.38,530h4.89v8.42h-5.68a10.57,10.57,0,0,1-5.84-1.58,11,11,0,0,1-5.89,1.58h-5.68V530h4.89a1.86,1.86,0,0,0,2.31-2.31V519l8.68-4.58v13.21a1.87,1.87,0,0,0,2.32,2.31Zm-5.74-18.67a4.23,4.23,0,0,1-3.15-1.24,4.33,4.33,0,0,1-1.21-3.18,4.17,4.17,0,0,1,1.21-3.13,4.31,4.31,0,0,1,3.15-1.19,4.09,4.09,0,0,1,4.32,4.32,4.4,4.4,0,0,1-1.19,3.21A4.19,4.19,0,0,1,288.64,511.3Z"/><path class="cls-3" d="M298.22,538.39V530h5.42a2.63,2.63,0,0,0,1.84-.47,2.68,2.68,0,0,0,.47-1.84v-6.53l8.68-4.57v11.1A1.87,1.87,0,0,0,317,530h4.63a2.63,2.63,0,0,0,1.84-.47,2.68,2.68,0,0,0,.47-1.84v-7.58l8.68-4.57v12.15a1.87,1.87,0,0,0,2.32,2.31h4.68a1.87,1.87,0,0,0,2.32-2.31V519l8.68-4.58v11.89a4.25,4.25,0,0,0,.71,2.87A3.66,3.66,0,0,0,354,530h4.31v8.42h-4.68a12.28,12.28,0,0,1-6.89-1.89,10.57,10.57,0,0,1-5.9,1.89H334.1a11,11,0,0,1-5.89-1.58,10.61,10.61,0,0,1-5.32,1.58h-6.73a11,11,0,0,1-5.89-1.58,10.57,10.57,0,0,1-5.84,1.58Z"/><path class="cls-3" d="M357.25,538.39V530h7.36q7.84,0,12.68-4.05-3-4.47-6.94-4.47T360.88,526v-7.42q4.51-5.21,10.47-5.21h.1a13.4,13.4,0,0,1,8.26,3.08,27.07,27.07,0,0,1,7.05,8.65v3a25.65,25.65,0,0,1-9.63,7.63,29.51,29.51,0,0,1-12.57,2.68Zm16.2,13a4.24,4.24,0,0,1-3.16-1.23,4.4,4.4,0,0,1-1.21-3.18,4.19,4.19,0,0,1,1.21-3.13,4.33,4.33,0,0,1,3.16-1.19,4.07,4.07,0,0,1,4.31,4.32,4.4,4.4,0,0,1-1.18,3.21A4.2,4.2,0,0,1,373.45,551.38Z"/><path class="cls-3" d="M419.48,530v8.42h-5.31a10.17,10.17,0,0,1-4.42,7.68,12.79,12.79,0,0,1-7.63,2.32,13.31,13.31,0,0,1-7-2.16v-7.52a12.63,12.63,0,0,0,6.26,2,5.08,5.08,0,0,0,2.71-.77,2.84,2.84,0,0,0,1.44-1.81c-.63,0-1.42-.13-2.36-.26a12.28,12.28,0,0,1-8.11-4.64,11.7,11.7,0,0,1-2.52-7.36q0-5.94,3.31-9.37a10.44,10.44,0,0,1,7.84-3.1c3.47,0,6.16,1.05,8.05,3.16a9.9,9.9,0,0,1,2.47,7V530Zm-13.94-6.42c0-1.33-.61-2-1.84-2q-2.62,0-2.63,4c0,2.18.88,3.49,2.63,4,.25.07.67.16,1.26.26a2.19,2.19,0,0,1,.58.06Z"/><path class="cls-3" d="M435.64,530h4.89v8.42h-5.68a10.63,10.63,0,0,1-6.37-1.89,12.33,12.33,0,0,1-6.89,1.89h-3.16V530h2.79a3.67,3.67,0,0,0,2.71-.76,4.31,4.31,0,0,0,.71-2.87V509.09l8.68-4.63v23.2a2.68,2.68,0,0,0,.47,1.84A2.64,2.64,0,0,0,435.64,530Z"/><path class="cls-3" d="M439.48,538.39V530h2.78a3.66,3.66,0,0,0,2.71-.76,4.25,4.25,0,0,0,.71-2.87V509.09l8.68-4.63V526.4a11.82,11.82,0,0,1-3.42,8.89,11.32,11.32,0,0,1-8.31,3.1Z"/><path class="cls-3" d="M463.83,538.39v-29.3l8.68-4.63v33.93Z"/><polyline class="cls-4" points="624.58 315.46 630.39 399.63 630.39 399.63 688.44 399.63 694.24 315.46"/><polygon class="cls-4" points="700.05 297.01 618.78 297.01 615.88 315.46 702.95 315.46 700.05 297.01"/><polyline class="cls-4" points="679.73 297.01 679.73 288.3 691.34 273.79"/><line class="cls-4" x1="675.71" y1="338.26" x2="641.63" y2="338.26"/><line class="cls-4" x1="669.52" y1="357.54" x2="646.51" y2="357.54"/><line class="cls-4" x1="666.29" y1="376.82" x2="651.05" y2="376.82"/></svg>