<svg id="Layer_1" data-name="Layer 1" xmlns="http://www.w3.org/2000/svg" viewBox="0 0 1920 1080"><defs><style>.cls-1,.cls-4{fill:none;}.cls-1{stroke:#d1d2d3;stroke-linecap:round;stroke-linejoin:round;stroke-width:2px;}.cls-2{fill:#fff;}.cls-3{fill:#cf3339;}.cls-4{stroke:#fff;stroke-miterlimit:10;}.cls-5{fill:#3eb871;}</style></defs><line class="cls-1" x1="1694.74" y1="999.9" x2="1673.28" y2="999.9"/><rect x="420.58" y="-420" width="1078.75" height="1920" transform="translate(1499.95 -419.95) rotate(90)"/><polygon class="cls-2" points="75.11 1006.9 93.07 1033.99 45.09 1033.99 45.09 993.72 54.31 979.81 93.07 979.81 75.11 1006.9"/><path class="cls-3" d="M1507.7,156.29q-.84,5.06-6,7.73a23.93,23.93,0,0,1-11,2.26q-9.21,0-13.79-5.2a13.87,13.87,0,0,1-3.42-9.47,13.5,13.5,0,0,1,1.74-6.9l8.21-1.73a15,15,0,0,0-1.79,7.1q0,8.31,9,8.31,6.15,0,7.89-2.1h-4.84l4.36-8.42h9.74v8.42Zm-21.52,21.83a4.17,4.17,0,0,1-3.15-1.24,4.33,4.33,0,0,1-1.21-3.18,4.17,4.17,0,0,1,1.21-3.13,4.29,4.29,0,0,1,3.15-1.18,4.07,4.07,0,0,1,4.32,4.31,4.4,4.4,0,0,1-1.19,3.21A4.17,4.17,0,0,1,1486.18,178.12Zm9.47,0a4.17,4.17,0,0,1-3.15-1.24,4.33,4.33,0,0,1-1.21-3.18,4.17,4.17,0,0,1,1.21-3.13,4.29,4.29,0,0,1,3.15-1.18,4.07,4.07,0,0,1,4.32,4.31,4.4,4.4,0,0,1-1.19,3.21A4.17,4.17,0,0,1,1495.65,178.12Z"/><path class="cls-3" d="M1506.28,156.29v-8.42h2.79a3.69,3.69,0,0,0,2.71-.76,4.33,4.33,0,0,0,.71-2.87V127l8.68-4.63v21.94a11.8,11.8,0,0,1-3.42,8.89,11.36,11.36,0,0,1-8.31,3.11Z"/><path class="cls-3" d="M1540.84,156.29a9.77,9.77,0,0,1-7.73-3.16,10.36,10.36,0,0,1-2.47-7.15v-19l8.68-4.58v23.21a1.86,1.86,0,0,0,2.31,2.31h4.9v8.42Z"/><path class="cls-3" d="M1577.41,147.87h4.89v8.42h-5.68a11.62,11.62,0,0,0-12.73,1.05,10.62,10.62,0,0,1-7.16-2.47,10.37,10.37,0,0,1-5.58,1.42h-5.68v-8.42h4.9a1.86,1.86,0,0,0,2.31-2.31v-1.37q0-6.27,3.37-9.79a10.4,10.4,0,0,1,7.84-3.1,10,10,0,0,1,8.57,4,14.5,14.5,0,0,1,2.63,8.84v1.37a1.87,1.87,0,0,0,2.32,2.31Zm-13.52,1q2.52,0,2.52-4.94,0-4.53-2.52-4.53t-2.53,4.53Q1561.36,148.92,1563.89,148.92Z"/><path class="cls-3" d="M1581.25,156.29v-8.42H1584a3.69,3.69,0,0,0,2.71-.76,4.33,4.33,0,0,0,.71-2.87V127l8.68-4.63v21.94a11.8,11.8,0,0,1-3.42,8.89,11.37,11.37,0,0,1-8.32,3.11Z"/><path class="cls-3" d="M1605.6,156.29V127l8.69-4.63v33.94Z"/><path class="cls-3" d="M1667.53,147.87a30,30,0,0,1,7.57-11.73,17.33,17.33,0,0,1,12-4.84,12.91,12.91,0,0,1,10.31,4.47,13.55,13.55,0,0,1,3.31,9.26V146a9.93,9.93,0,0,1-3.15,7.84,10.17,10.17,0,0,1-7,2.47H1667a11.66,11.66,0,0,1-2-.16,12.39,12.39,0,0,1-5.37,7.68,15.91,15.91,0,0,1-9,2.47q-7.38,0-11.42-5.2a14.82,14.82,0,0,1-3.16-9.47,13.5,13.5,0,0,1,1.74-6.9L1646,143a15,15,0,0,0-1.79,7.1,8.73,8.73,0,0,0,1.73,5.66,5.74,5.74,0,0,0,4.69,2.13q6.15,0,6.15-5.48V139l8.68-4.57v11.1a2.75,2.75,0,0,0,.42,1.78A2.34,2.34,0,0,0,1667.53,147.87Zm24.51-2.31V145a5.94,5.94,0,0,0-1.34-4.05,4.49,4.49,0,0,0-3.55-1.53,9.85,9.85,0,0,0-6.08,2.26,17.15,17.15,0,0,0-4.81,6.16h14c.84,0,1.35-.11,1.53-.34A4.32,4.32,0,0,0,1692,145.56Zm-4.73-17.42a4.24,4.24,0,0,1-3.16-1.23,4.37,4.37,0,0,1-1.21-3.19,4.17,4.17,0,0,1,1.21-3.13,4.33,4.33,0,0,1,3.16-1.18,4.06,4.06,0,0,1,4.31,4.31,4.38,4.38,0,0,1-1.18,3.21A4.18,4.18,0,0,1,1687.31,128.14Z"/><path class="cls-3" d="M1722.13,147.87h4.9v8.42h-5.69c-.45,0-1.07,0-1.84-.11q-1.3,6.63-6.73,9.26a11.75,11.75,0,0,1-5,1.11,14.21,14.21,0,0,1-7-1.9v-7.52a10.94,10.94,0,0,0,5.37,1.58,7,7,0,0,0,1.94-.26q3.1-1,3.11-5.32v-16.2l8.68-4.58v13.21a1.86,1.86,0,0,0,2.31,2.31Z"/><path class="cls-3" d="M1764.75,156.29h-14.42a17.6,17.6,0,0,0-10.1,0H1726v-8.42h8.9a55.17,55.17,0,0,1-3.48-5.16v-2.94a19.51,19.51,0,0,1,6.29-6.1,13.26,13.26,0,0,1,15.2.05,19.73,19.73,0,0,1,6.34,6.15v2.84a47.18,47.18,0,0,1-3.52,5.16h8.94Zm-14.58-14.89a7.82,7.82,0,0,0-4.89-2,7,7,0,0,0-4.89,2,4.89,4.89,0,1,0,9.78,0Z"/><path class="cls-3" d="M1763.7,156.29v-8.42h2.78a3.66,3.66,0,0,0,2.71-.76,4.27,4.27,0,0,0,.71-2.87V127l8.68-4.63v21.94a11.8,11.8,0,0,1-3.42,8.89,11.33,11.33,0,0,1-8.31,3.11Z"/><path class="cls-3" d="M1788.05,156.29V127l8.68-4.63v33.94Z"/><line class="cls-4" x1="631" y1="399.34" x2="1919.95" y2="399.34"/><path class="cls-5" d="M902.12,431.75l-2.2-2.21a6.8,6.8,0,0,1-3.9,1.16,6.84,6.84,0,1,1,7-6.84,6.74,6.74,0,0,1-1.67,4.45l2.17,2.15Zm-5.68-5.68,1.39-1.26L900,427a4.85,4.85,0,0,0,1-3.1,5,5,0,1,0-2.45,4.35Z"/><path class="cls-5" d="M915.34,421v9.5h-1.8v-1.27a7,7,0,0,1-4.1,1.46,3.24,3.24,0,0,1-3.56-3.49V421h1.79v5.7a2.27,2.27,0,0,0,2.47,2.51,5.17,5.17,0,0,0,3.4-1.39V421Z"/><path class="cls-5" d="M927,430.51h-1.78v-1a5.67,5.67,0,0,1-3.55,1.21c-2.3,0-3.71-1.21-3.71-3s1.46-3,3.82-3h3.44v-.09c0-1.47-.88-2.24-2.6-2.24a5.68,5.68,0,0,0-3.27,1.08l-.63-1.33a7.68,7.68,0,0,1,4.24-1.24c2.58,0,4,1.3,4,3.56Zm-1.78-4.58H922c-1.47,0-2.32.61-2.32,1.68s.8,1.61,2.24,1.61a6.23,6.23,0,0,0,3.25-1Z"/><path class="cls-5" d="M939.38,430.51h-1.79v-5.7a2.27,2.27,0,0,0-2.47-2.5,5.23,5.23,0,0,0-3.4,1.38v6.82h-1.8V421h1.8v1.28a7,7,0,0,1,4.11-1.47,3.24,3.24,0,0,1,3.55,3.5Z"/><path class="cls-5" d="M948.37,430.11a4.83,4.83,0,0,1-2.26.59,3.05,3.05,0,0,1-3.19-3.3v-4.9h-1.64V421h1.64v-2.73h1.78V421h2.89v1.49H944.7v4.65a1.83,1.83,0,0,0,1.88,2,3.45,3.45,0,0,0,1.52-.34Z"/><path class="cls-5" d="M951.75,419.59a1.06,1.06,0,0,1-1-1,1,1,0,0,1,1-1,1,1,0,0,1,1,1A1,1,0,0,1,951.75,419.59Zm.89,10.92h-1.78V421h1.78Z"/><path class="cls-5" d="M962,430.11a4.83,4.83,0,0,1-2.26.59,3.06,3.06,0,0,1-3.19-3.3v-4.9h-1.63V421h1.63v-2.73h1.78V421h2.89v1.49h-2.89v4.65a1.83,1.83,0,0,0,1.89,2,3.41,3.41,0,0,0,1.51-.34Z"/><path class="cls-5" d="M968.92,431.46c-.83,2-2,3-3.64,3a6.7,6.7,0,0,1-2.19-.44l.52-1.29a3.7,3.7,0,0,0,1.48.3c1,0,1.57-.49,2.24-1.78l.19-.38L963.23,421h1.89l3.2,7.56,3.06-7.56h1.86Z"/><path class="cls-5" d="M1025.64,430.59h-5.25v-13.3h5.25a6.66,6.66,0,1,1,0,13.3ZM1022.31,419v9.84h3.27a4.92,4.92,0,1,0,0-9.84Z"/><path class="cls-5" d="M1044.16,430.59h-1.78v-1a5.65,5.65,0,0,1-3.56,1.22c-2.3,0-3.7-1.22-3.7-3s1.46-3,3.82-3h3.44v-.1c0-1.46-.88-2.24-2.61-2.24a5.67,5.67,0,0,0-3.27,1.09l-.62-1.33a7.62,7.62,0,0,1,4.23-1.24c2.59,0,4.05,1.29,4.05,3.55Zm-1.78-4.58h-3.18c-1.46,0-2.32.61-2.32,1.67s.8,1.62,2.25,1.62a6.23,6.23,0,0,0,3.25-.95Z"/><path class="cls-5" d="M1051.8,431.54c-.84,2-2,2.94-3.65,2.94a6.62,6.62,0,0,1-2.18-.43l.51-1.29a3.91,3.91,0,0,0,1.48.3c1,0,1.58-.49,2.24-1.79l.19-.38-4.29-9.8h1.9l3.19,7.56,3.06-7.56h1.86Z"/><path class="cls-5" d="M1064.57,423.16a6.84,6.84,0,0,0-3.27-.91c-1.26,0-1.88.44-1.88,1.29,0,.67.4.91,1.94,1.35l1.12.31c2.22.6,3,1.31,3,2.65,0,1.85-1.45,2.93-3.9,2.93a8,8,0,0,1-4.33-1.24l.63-1.21a7.21,7.21,0,0,0,3.78,1.1c1.4,0,2.11-.47,2.11-1.44,0-.72-.33-.93-1.75-1.35l-1.24-.34a7.57,7.57,0,0,1-2.43-1.05,1.92,1.92,0,0,1-.68-1.56c0-1.74,1.41-2.79,3.69-2.79a7.52,7.52,0,0,1,3.81,1Z"/><path class="cls-5" d="M648.66,420.67a5,5,0,0,0-3.88-1.84,5,5,0,0,0,0,10.07,5.1,5.1,0,0,0,3.88-1.88l1.54,1.1a6.85,6.85,0,1,1,0-8.51Z"/><path class="cls-5" d="M658.76,422.48a5.57,5.57,0,0,0-4.16,1.82v6.21h-1.8V421h1.8v1.81a5.76,5.76,0,0,1,4.16-2Z"/><path class="cls-5" d="M670.16,426.43h-8.07a3,3,0,0,0,3.17,2.77,4.4,4.4,0,0,0,3.16-1.12l1,1a6,6,0,0,1-4.16,1.63,4.91,4.91,0,0,1-5-5,4.94,4.94,0,0,1,9.87,0Zm-1.72-1.33a3,3,0,0,0-3.21-2.79,3,3,0,0,0-3.16,2.79Z"/><path class="cls-5" d="M683.24,430.51h-2L679,423.62l-2.24,6.89h-2l-3.21-9.5h1.81l2.48,7.58L678.3,421h1.46l2.41,7.58,2.49-7.58h1.81Z"/><path class="cls-5" d="M1115.18,420.41a5,5,0,0,0-3.88-1.84,5,5,0,0,0,0,10.07,5.1,5.1,0,0,0,3.88-1.88l1.54,1.1a6.84,6.84,0,1,1,0-8.51Z"/><path class="cls-5" d="M1124.09,430.44a4.95,4.95,0,1,1,0-9.88,4.95,4.95,0,1,1,0,9.88Zm0-1.54a3.4,3.4,0,1,0-3.44-3.4A3.39,3.39,0,0,0,1124.09,428.9Z"/><path class="cls-5" d="M1138.49,422.83a6.71,6.71,0,0,0-3.27-.92c-1.25,0-1.88.44-1.88,1.3,0,.66.4.91,1.94,1.34l1.12.31c2.22.61,3,1.31,3,2.66,0,1.84-1.44,2.92-3.89,2.92a8,8,0,0,1-4.33-1.23l.62-1.22a7.14,7.14,0,0,0,3.78,1.1c1.41,0,2.11-.47,2.11-1.44,0-.72-.32-.93-1.74-1.35l-1.24-.34a7.19,7.19,0,0,1-2.43-1,1.92,1.92,0,0,1-.69-1.56c0-1.75,1.41-2.8,3.69-2.8a7.56,7.56,0,0,1,3.82,1Z"/><path class="cls-5" d="M1148.05,429.85a4.83,4.83,0,0,1-2.26.59,3.06,3.06,0,0,1-3.19-3.3v-4.9H1141v-1.49h1.64V418h1.78v2.73h2.89v1.49h-2.89v4.65a1.83,1.83,0,0,0,1.88,2,3.43,3.43,0,0,0,1.52-.35Z"/><path class="cls-5" d="M1161,417c3.82,0,5.57,1.42,5.57,4.54S1164.79,426,1161,426h-3.56v4.21h-1.91V417Zm-3.52,1.71v5.69h3.48c2.49,0,3.61-.87,3.61-2.85s-1.12-2.84-3.63-2.84Z"/><path class="cls-5" d="M1178.71,426.17h-8.07a3,3,0,0,0,3.17,2.77,4.4,4.4,0,0,0,3.16-1.12l1,1a6,6,0,0,1-4.16,1.63,4.91,4.91,0,0,1-5-4.95,4.94,4.94,0,1,1,9.87,0Zm-1.72-1.33a3,3,0,0,0-3.21-2.79,3,3,0,0,0-3.16,2.79Z"/><path class="cls-5" d="M1187.26,422.22a5.6,5.6,0,0,0-4.16,1.82v6.21h-1.8v-9.5h1.8v1.81a5.8,5.8,0,0,1,4.16-2Z"/><path class="cls-5" d="M1203.3,417v13.29h-1.79v-1.14a4.17,4.17,0,0,1-3.21,1.33,4.94,4.94,0,0,1,0-9.88,4.21,4.21,0,0,1,3.21,1.33V417Zm-1.79,6.57a3.63,3.63,0,0,0-3-1.43,3.26,3.26,0,0,0-3.19,3.4,3.2,3.2,0,0,0,3.19,3.4,3.65,3.65,0,0,0,3-1.42Z"/><path class="cls-5" d="M1214.93,430.25h-1.79v-1a5.65,5.65,0,0,1-3.55,1.21c-2.3,0-3.7-1.21-3.7-3s1.46-3,3.81-3h3.44v-.09c0-1.46-.87-2.24-2.6-2.24a5.73,5.73,0,0,0-3.27,1.08l-.62-1.33a7.62,7.62,0,0,1,4.23-1.24c2.59,0,4,1.3,4,3.56Zm-1.79-4.57H1210c-1.46,0-2.32.6-2.32,1.67s.8,1.61,2.24,1.61a6.21,6.21,0,0,0,3.25-.95Z"/><path class="cls-5" d="M1222.57,431.2c-.84,2-2,2.95-3.65,2.95a6.45,6.45,0,0,1-2.19-.44l.52-1.29a3.7,3.7,0,0,0,1.48.3c1,0,1.58-.49,2.24-1.78l.19-.38-4.29-9.81h1.9l3.19,7.57,3.06-7.57h1.86Z"/><path class="cls-5" d="M1238.4,418.94a20.84,20.84,0,0,0-1.29,3.89,19.32,19.32,0,0,0-.51,4.31,19,19,0,0,0,.53,4.37,21.49,21.49,0,0,0,1.31,3.95l-1.54.86a22.27,22.27,0,0,1-1.58-4.35,18.42,18.42,0,0,1,0-9.59,22,22,0,0,1,1.55-4.3Z"/><path class="cls-5" d="M1249.94,421.18a9.9,9.9,0,0,0-4.58-1.26c-1.69,0-2.87.67-2.87,2,0,.86.47,1.25,2.89,1.9l1.55.42c2.83.78,4.22,1.5,4.22,3.68a3.38,3.38,0,0,1-1.48,3,6.74,6.74,0,0,1-3.9,1,10.82,10.82,0,0,1-5.92-1.71l.89-1.46a10.71,10.71,0,0,0,5.19,1.46c1.9,0,3.19-.68,3.19-2.18-.08-1.12-.61-1.43-2.7-2l-1.6-.4c-3.17-.81-4.4-1.61-4.4-3.62a3.18,3.18,0,0,1,1.4-2.83,6.51,6.51,0,0,1,3.67-1,10.42,10.42,0,0,1,5.3,1.41Z"/><path class="cls-5" d="M1263.54,428.49h-7.13L1255,431.7h-2.09l5.77-13.29h2.53L1267,431.7h-2.09Zm-.7-1.65-2.85-6.55-2.85,6.55Z"/><path class="cls-5" d="M1279.25,431.7l-3.15-4.63a3.72,3.72,0,0,1-.53,0h-3.92v4.61h-1.92V418.41h5.74c3.93,0,5.57,1.32,5.57,4.23,0,2.21-1,3.57-2.87,4.12l3.38,4.94Zm-7.6-6.32h3.92c2.48,0,3.47-.74,3.47-2.62s-1-2.64-3.47-2.64h-3.92Z"/><path class="cls-5" d="M1285.69,432a22.33,22.33,0,0,1-1.55,4.35l-1.54-.86a21.55,21.55,0,0,0,1.29-3.95,19,19,0,0,0,.55-4.37,18.27,18.27,0,0,0-.53-4.31,18.87,18.87,0,0,0-1.28-3.89l1.54-.86a20.81,20.81,0,0,1,1.54,4.3,18.39,18.39,0,0,1,.65,4.76A19,19,0,0,1,1285.69,432Z"/><path class="cls-5" d="M1365.75,422.86h-4.45v11.59h-1.92V422.86h-4.44v-1.71h10.81Z"/><path class="cls-5" d="M1372.76,434.64a4.95,4.95,0,1,1,5.22-4.94A5,5,0,0,1,1372.76,434.64Zm0-1.54a3.4,3.4,0,1,0-3.44-3.4A3.39,3.39,0,0,0,1372.76,433.1Z"/><path class="cls-5" d="M1386.69,434.05a4.83,4.83,0,0,1-2.27.59,3.07,3.07,0,0,1-3.19-3.31v-4.9h-1.63V425h1.63v-2.74H1383V425h2.89v1.48H1383v4.65a1.83,1.83,0,0,0,1.88,2,3.63,3.63,0,0,0,1.52-.34Z"/><path class="cls-5" d="M1397.48,434.45h-1.79v-1a5.6,5.6,0,0,1-3.55,1.22c-2.3,0-3.71-1.22-3.71-3s1.47-3,3.82-3h3.44v-.1c0-1.46-.87-2.24-2.6-2.24a5.73,5.73,0,0,0-3.27,1.08l-.63-1.33a7.75,7.75,0,0,1,4.24-1.23c2.58,0,4,1.29,4,3.55Zm-1.79-4.58h-3.17c-1.46,0-2.32.61-2.32,1.67s.8,1.61,2.24,1.61a6.21,6.21,0,0,0,3.25-.95Z"/><path class="cls-5" d="M1402.25,434.45h-1.81v-13.3h1.81Z"/><path class="cls-5" d="M1420.87,424.61a5.06,5.06,0,0,0-3.88-1.85,5,5,0,0,0,0,10.07,5.1,5.1,0,0,0,3.88-1.88l1.53,1.1a6.82,6.82,0,0,1-5.43,2.59,6.84,6.84,0,1,1,0-13.68,6.85,6.85,0,0,1,5.43,2.58Z"/><path class="cls-5" d="M1429.78,434.64a4.95,4.95,0,1,1,5.22-4.94A5,5,0,0,1,1429.78,434.64Zm0-1.54a3.4,3.4,0,1,0-3.44-3.4A3.38,3.38,0,0,0,1429.78,433.1Z"/><path class="cls-5" d="M1444.18,427a6.84,6.84,0,0,0-3.27-.91c-1.25,0-1.88.43-1.88,1.29,0,.66.4.91,1.94,1.35l1.12.3c2.22.61,3,1.31,3,2.66,0,1.84-1.44,2.93-3.9,2.93a8,8,0,0,1-4.33-1.24l.63-1.21a7.21,7.21,0,0,0,3.78,1.1c1.41,0,2.11-.48,2.11-1.45,0-.72-.32-.93-1.75-1.35l-1.23-.34a7.36,7.36,0,0,1-2.44-1,1.94,1.94,0,0,1-.68-1.56c0-1.75,1.41-2.79,3.69-2.79a7.61,7.61,0,0,1,3.81,1Z"/><path class="cls-5" d="M1453.74,434.05a4.83,4.83,0,0,1-2.27.59,3.07,3.07,0,0,1-3.19-3.31v-4.9h-1.63V425h1.63v-2.74h1.79V425H1453v1.48h-2.89v4.65a1.83,1.83,0,0,0,1.88,2,3.63,3.63,0,0,0,1.52-.34Z"/><path class="cls-5" d="M1462.26,421.13A20.84,20.84,0,0,0,1461,425a19.43,19.43,0,0,0-.52,4.32,19,19,0,0,0,.54,4.37,20.76,20.76,0,0,0,1.31,4l-1.54.85a22,22,0,0,1-1.58-4.35,18.87,18.87,0,0,1-.64-4.82,19.23,19.23,0,0,1,.62-4.77,22.24,22.24,0,0,1,1.56-4.3Z"/><path class="cls-5" d="M1473.79,423.37a9.85,9.85,0,0,0-4.58-1.25c-1.69,0-2.87.66-2.87,2,0,.86.48,1.26,2.89,1.9l1.56.42c2.83.78,4.22,1.5,4.22,3.69a3.38,3.38,0,0,1-1.49,3,6.68,6.68,0,0,1-3.89,1,10.93,10.93,0,0,1-5.93-1.71l.9-1.47a10.61,10.61,0,0,0,5.18,1.47c1.9,0,3.19-.69,3.19-2.19-.07-1.12-.6-1.42-2.69-2l-1.6-.4c-3.17-.82-4.41-1.62-4.41-3.63a3.19,3.19,0,0,1,1.41-2.83,6.51,6.51,0,0,1,3.67-.95,10.44,10.44,0,0,1,5.3,1.4Z"/><path class="cls-5" d="M1487.4,430.69h-7.13l-1.39,3.21h-2.09l5.78-13.3h2.53l5.79,13.3h-2.09Zm-.71-1.66-2.85-6.55L1481,429Z"/><path class="cls-5" d="M1503.11,433.9l-3.16-4.64a3.57,3.57,0,0,1-.53,0h-3.91v4.62h-1.92V420.6h5.74c3.93,0,5.56,1.33,5.56,4.23,0,2.21-1,3.58-2.87,4.13l3.39,4.94Zm-7.6-6.33h3.91c2.49,0,3.48-.74,3.48-2.62s-1-2.64-3.48-2.64h-3.91Z"/><path class="cls-5" d="M1509.55,434.16a22.07,22.07,0,0,1-1.56,4.35l-1.54-.85a20.81,20.81,0,0,0,1.29-4,18.58,18.58,0,0,0,.56-4.37,18.38,18.38,0,0,0-.54-4.32,19.52,19.52,0,0,0-1.27-3.89l1.54-.86a21,21,0,0,1,1.54,4.3,18.39,18.39,0,0,1,.64,4.77A18.92,18.92,0,0,1,1509.55,434.16Z"/><path class="cls-2" d="M138.84,480.23H110.92v4.69h26v13.7h-26V504h28.29v14.6H94.43v-53h44.41Z"/><path class="cls-2" d="M186.42,480.76v52.58H171.06V514.43a15.38,15.38,0,0,1-11.35,4.92c-9.3,0-16-8-16-19.67s6.66-19.67,16-19.67a15.37,15.37,0,0,1,11.35,4.91v-4.16Zm-15.36,15.66a7,7,0,0,0-6-3.4,6.67,6.67,0,0,0,0,13.31,7,7,0,0,0,6-3.4Z"/><path class="cls-2" d="M234.15,480.76v37.83H218.79v-3.71a23.6,23.6,0,0,1-13.31,4.47c-7.65,0-12.64-4.54-12.64-12V480.76H208.2v21.87c0,2.72,1.59,4.31,4.39,4.31a10.91,10.91,0,0,0,6.2-2.19v-24Z"/><path class="cls-2" d="M249.65,478.27c-4.46,0-7.94-2.95-7.94-6.66s3.63-6.73,7.94-6.73c4.47,0,8,3,8,6.73S254.12,478.27,249.65,478.27Zm7.72,40.32H242V480.76h15.36Z"/><path class="cls-2" d="M291.86,519.35a15.36,15.36,0,0,1-11.34-4.92v18.91H265.16V480.76h15.36v4.16A15.35,15.35,0,0,1,291.86,480c9.31,0,16,7.94,16,19.67S301.17,519.35,291.86,519.35ZM286.49,493a7,7,0,0,0-6,3.4v6.51a7,7,0,0,0,6,3.4,6.67,6.67,0,0,0,0-13.31Z"/><path class="cls-2" d="M366.6,480c7.65,0,13.17,4.08,13.17,12v26.55H364.33V496.73c0-2.73-1.58-4.31-4-4.31a10.94,10.94,0,0,0-5.75,1.58c.07,1.06.07,2.42.07,4.09v20.5H339.29V496.73c0-2.73-1.58-4.31-4-4.31a10.69,10.69,0,0,0-5.67,1.58v24.59H314.25V480.76h15.36V485a19.58,19.58,0,0,1,12.71-5c4.62,0,8.47,1.74,10.59,5.14C358.06,481.14,361.54,480,366.6,480Z"/><path class="cls-2" d="M426.21,503.31h-25.8c.69,3.33,2.8,5,7,5a11.92,11.92,0,0,0,7.49-2.57l8.25,7.11a24.9,24.9,0,0,1-17.1,6.51c-12.18,0-21-8.7-21-19.67S393.6,480,405.63,480c12.64,0,20.58,8.62,20.58,19.67Zm-15-7.11a5.06,5.06,0,0,0-5.29-5.37c-3.1,0-5,1.81-5.6,5.37Z"/><path class="cls-2" d="M473.26,518.59H457.91V496.73c0-2.73-1.59-4.31-4.39-4.31a10.89,10.89,0,0,0-6.21,2.19v24H432V480.76h15.35v3.71A23.64,23.64,0,0,1,460.63,480c7.64,0,12.63,4.54,12.63,12Z"/><path class="cls-2" d="M508.36,515.87a26.39,26.39,0,0,1-12.86,3.48c-7.64,0-13.24-4.47-13.24-13.24V492.42H477.8V480.76h4.46v-9.45h15.36v9.45h8.55v11.66h-8.55v11c0,2.35,1.59,3.48,3.93,3.48a9.57,9.57,0,0,0,4.92-1.44Z"/><path class="cls-3" d="M107.8,543.48a9.34,9.34,0,0,1-7.42-3.15A10.68,10.68,0,0,1,98,533.17v-4.31l8.62-4.58v8.47a1.88,1.88,0,0,0,2.32,2.32h16.83a2.64,2.64,0,0,0,1.85-.48,2.66,2.66,0,0,0,.47-1.84v-8.63l8.68-4.57v13.62a9.65,9.65,0,0,1-10.21,10.31ZM112.59,519a4.21,4.21,0,0,1-3.16-1.24,4.33,4.33,0,0,1-1.21-3.18,4.17,4.17,0,0,1,1.21-3.13,4.33,4.33,0,0,1,3.16-1.18,4.06,4.06,0,0,1,4.31,4.31,4.4,4.4,0,0,1-1.18,3.21A4.17,4.17,0,0,1,112.59,519Zm9.47,0a4.21,4.21,0,0,1-3.16-1.24,4.33,4.33,0,0,1-1.21-3.18,4.17,4.17,0,0,1,1.21-3.13,4.33,4.33,0,0,1,3.16-1.18,4.06,4.06,0,0,1,4.31,4.31,4.4,4.4,0,0,1-1.18,3.21A4.17,4.17,0,0,1,122.06,519Z"/><path class="cls-3" d="M146.26,543.48v-29.3l8.68-4.63v33.93Z"/><path class="cls-3" d="M160.2,543.48l4.37-8.41h7.31a1.4,1.4,0,0,0,1.58-1.58q0-4.53-4.79-7.26l4.26-7.31q8.06,4.68,9,12.52a5.82,5.82,0,0,0,1,3,3.75,3.75,0,0,0,2.57.63h3.79v8.41h-4.15a12.45,12.45,0,0,1-6.32-1.57,8.46,8.46,0,0,1-5.31,1.57Z"/><path class="cls-3" d="M188.24,543.48v-8.41h7.16v8.41Z"/><path class="cls-3" d="M194.34,543.48v-8.41h7.16v8.41Z"/><path class="cls-3" d="M200.45,543.48v-8.41h7.15v8.41Z"/><path class="cls-3" d="M206.55,543.48v-8.41h7.15v8.41Z"/><path class="cls-3" d="M212.65,543.48v-8.41h7.16v8.41Z"/><path class="cls-3" d="M218.75,543.48v-8.41h7.16v8.41Z"/><path class="cls-3" d="M224.86,543.48v-8.41H232v8.41Z"/><path class="cls-3" d="M231,543.48v-8.41h7.15v8.41Z"/><path class="cls-3" d="M237.06,543.48v-8.41h7.16v8.41Z"/><path class="cls-3" d="M243.16,543.48v-8.41h7.16v8.41Z"/><path class="cls-3" d="M249.27,543.48v-8.41h7.15v8.41Z"/><path class="cls-3" d="M255.37,543.48v-8.41h7.15v8.41Z"/><path class="cls-3" d="M261.47,543.48v-8.41h7.16v8.41Z"/><path class="cls-3" d="M267.57,543.48v-8.41h7.16v8.41Z"/><path class="cls-3" d="M273.68,543.48v-8.41h7.15v8.41Z"/><path class="cls-3" d="M279.78,543.48v-8.41h7.15v8.41Z"/><path class="cls-3" d="M285.88,543.48v-8.41H293v8.41Z"/><path class="cls-3" d="M292,543.48v-8.41h7.16v8.41Z"/><path class="cls-3" d="M298.09,543.48v-8.41h7.15v8.41Z"/><path class="cls-3" d="M304.19,543.48v-8.41h7.15v8.41Z"/><path class="cls-3" d="M310.29,543.48v-8.41h7.16v8.41Z"/><path class="cls-3" d="M316.4,543.48v-8.41h7.15v8.41Z"/><path class="cls-3" d="M322.5,543.48v-8.41h7.15v8.41Z"/><path class="cls-3" d="M328.6,543.48v-8.41h7.15v8.41Z"/><path class="cls-3" d="M334.7,543.48v-8.41h7.16v8.41Z"/><path class="cls-3" d="M340.81,543.48v-8.41H348v8.41Z"/><path class="cls-3" d="M346.91,543.48v-8.41h7.15v8.41Z"/><path class="cls-3" d="M353,543.48v-8.41h7.16v8.41Z"/><path class="cls-3" d="M359.11,543.48v-8.41h7.16v8.41Z"/><path class="cls-3" d="M365.22,543.48v-8.41h7.15v8.41Z"/><path class="cls-3" d="M371.32,543.48v-8.41h7.15v8.41Z"/><path class="cls-3" d="M377.42,543.48v-8.41h7.16v8.41Z"/><path class="cls-3" d="M383.52,543.48v-8.41h7.16v8.41Z"/><path class="cls-3" d="M389.63,543.48v-8.41h7.15v8.41Z"/><path class="cls-3" d="M434.5,543.48H420.09a16.89,16.89,0,0,1-5-.73,17,17,0,0,1-5.05.73H395.73v-8.41h8.89a57,57,0,0,1-3.47-5.16V527a19.58,19.58,0,0,1,6.28-6.1,13.27,13.27,0,0,1,15.21,0,20.07,20.07,0,0,1,6.34,6.16v2.84a48,48,0,0,1-3.53,5.16h8.95ZM419.93,528.6a7.78,7.78,0,0,0-4.89-2,7,7,0,0,0-4.9,2,14.42,14.42,0,0,0,4.9,5.1A14.32,14.32,0,0,0,419.93,528.6Z"/><path class="cls-3" d="M465.38,535.07h4.9v8.41H464.6a10.42,10.42,0,0,1-5.58-1.42,11.56,11.56,0,0,1-14.31,0,10.28,10.28,0,0,1-5.58,1.42h-5.68v-8.41h4.89a1.88,1.88,0,0,0,2.32-2.32v-1.37q0-6.25,3.36-9.78a10.42,10.42,0,0,1,7.84-3.11,10,10,0,0,1,8.58,4,14.59,14.59,0,0,1,2.63,8.84v1.37a2.66,2.66,0,0,0,.47,1.84A2.62,2.62,0,0,0,465.38,535.07Zm-13.52,1q2.53,0,2.53-5,0-4.51-2.53-4.52t-2.52,4.52Q449.34,536.12,451.86,536.12Z"/><path class="cls-3" d="M469.22,543.48v-8.41H472a3.65,3.65,0,0,0,2.71-.77,4.24,4.24,0,0,0,.71-2.86V514.18l8.68-4.63v21.94a11.8,11.8,0,0,1-3.42,8.89,11.32,11.32,0,0,1-8.31,3.1Z"/><path class="cls-3" d="M493.58,543.48v-29.3l8.68-4.63v33.93Z"/><rect class="cls-4" x="617.02" y="277.97" width="112.29" height="74.49"/><polyline class="cls-4" points="729.3 304.43 769.97 279.68 769.97 354.17 729.3 326.63"/><line class="cls-4" x1="680.88" y1="352.47" x2="716.08" y2="399.75"/><line class="cls-4" x1="666.15" y1="352.47" x2="630.95" y2="399.75"/><line class="cls-4" x1="654.02" y1="292.89" x2="654.02" y2="334.71"/><line class="cls-4" x1="688.57" y1="292.89" x2="688.57" y2="334.71"/></svg>