<svg id="Layer_1" data-name="Layer 1" xmlns="http://www.w3.org/2000/svg" viewBox="0 0 1920 1080"><defs><style>.cls-1{fill:#fff;}.cls-2{fill:#cf3339;}.cls-3,.cls-4{fill:none;}.cls-3{stroke:#fff;stroke-miterlimit:10;}.cls-5{fill:#3eb871;}</style></defs><rect x="420.62" y="-420" width="1078.75" height="1920" transform="translate(1500 -420) rotate(90)"/><polygon class="cls-1" points="75.16 1007.37 93.11 1034.46 45.14 1034.46 45.14 994.18 54.36 980.27 93.11 980.27 75.16 1007.37"/><path class="cls-2" d="M1338.34,341a19.06,19.06,0,0,1-10.42,3.05,15,15,0,0,1-10.78-4,13.35,13.35,0,0,1-4-10.1,13.51,13.51,0,0,1,3.94-9.89,13.05,13.05,0,0,1-3.15-8.94,11.25,11.25,0,0,1,4-9,11.61,11.61,0,0,1,7.63-2.74,11.13,11.13,0,0,1,9.52,5.21V312q-4.05-4.47-8.47-4.47h-.27q-3.78.11-3.78,3.94c0,3,1.85,4.47,5.57,4.47h9.47v8.42h-9.36q-6.74,0-6.74,5.63a5.12,5.12,0,0,0,1.82,4.18,7.75,7.75,0,0,0,5.08,1.5h.15a20.19,20.19,0,0,0,9.74-2.94Z"/><path class="cls-2" d="M1356.49,322.72c-.39,0-1,0-1.74,0a9.92,9.92,0,0,1-8.1-3.73,11,11,0,0,1-2.53-7.21q0-5.9,3.32-9.37a10.19,10.19,0,0,1,7.73-3.1,9.7,9.7,0,0,1,7.68,3.16,10,10,0,0,1,2.42,7v11.05q0,7.26-4.1,10.95a11.52,11.52,0,0,1-8,2.84,13.31,13.31,0,0,1-7-2.16v-7.52a12.63,12.63,0,0,0,6.26,2Q1355.91,326.67,1356.49,322.72Zm.1-13.52c0-1.12-.47-1.68-1.42-1.68q-2.52,0-2.52,4c0,2.63.87,3.95,2.63,3.95a2.33,2.33,0,0,0,1.31-.32Z"/><path class="cls-2" d="M1387.74,315.93h4.89v8.42H1387c-.46,0-1.07,0-1.84-.1q-1.32,6.62-6.74,9.25a11.75,11.75,0,0,1-5,1.11,14.29,14.29,0,0,1-7-1.89v-7.53a10.87,10.87,0,0,0,5.36,1.58,7.13,7.13,0,0,0,2-.26q3.1-1,3.1-5.32V305l8.68-4.58v13.21a2.62,2.62,0,0,0,.48,1.84A2.59,2.59,0,0,0,1387.74,315.93Z"/><path class="cls-2" d="M1391.58,324.35v-8.42H1397a2.63,2.63,0,0,0,1.84-.47,2.68,2.68,0,0,0,.47-1.84v-6.53l8.68-4.57v11.1a2.62,2.62,0,0,0,.48,1.84,2.59,2.59,0,0,0,1.84.47h4.63a2.63,2.63,0,0,0,1.84-.47,2.68,2.68,0,0,0,.47-1.84V306l8.68-4.57v12.15a2.62,2.62,0,0,0,.48,1.84,2.59,2.59,0,0,0,1.84.47h4.68a1.86,1.86,0,0,0,2.31-2.31V305l8.68-4.58V312.3a4.31,4.31,0,0,0,.71,2.87,3.69,3.69,0,0,0,2.71.76h4.32v8.42H1447a12.34,12.34,0,0,1-6.9-1.89,10.51,10.51,0,0,1-5.89,1.89h-6.73a11.11,11.11,0,0,1-5.9-1.58,10.54,10.54,0,0,1-5.31,1.58h-6.73a11.11,11.11,0,0,1-5.9-1.58,10.6,10.6,0,0,1-5.83,1.58Zm25.09-28.15a4.2,4.2,0,0,1-3.15-1.23,4.36,4.36,0,0,1-1.21-3.18,4.19,4.19,0,0,1,1.21-3.14,4.33,4.33,0,0,1,3.15-1.18,4.07,4.07,0,0,1,4.32,4.32,4.36,4.36,0,0,1-1.19,3.2A4.17,4.17,0,0,1,1416.67,296.2Zm4.68-9.26a3.85,3.85,0,0,1-2.86-1.07,4,4,0,0,1-1.08-2.92,3.77,3.77,0,0,1,1.08-2.84,4.4,4.4,0,0,1,5.73,0,3.77,3.77,0,0,1,1.08,2.84,4,4,0,0,1-1.08,2.89A3.8,3.8,0,0,1,1421.35,286.94Zm4.79,9.26A4.2,4.2,0,0,1,1423,295a4.36,4.36,0,0,1-1.21-3.18,4.19,4.19,0,0,1,1.21-3.14,4.33,4.33,0,0,1,3.15-1.18,4.07,4.07,0,0,1,4.32,4.32,4.36,4.36,0,0,1-1.19,3.2A4.17,4.17,0,0,1,1426.14,296.2Z"/><path class="cls-2" d="M1482.54,315.93h4.89v8.42h-5.68a10.47,10.47,0,0,1-5.58-1.42,11.6,11.6,0,0,1-14.31,0,10.22,10.22,0,0,1-5.57,1.42h-5.68v-8.42h4.89a2.63,2.63,0,0,0,1.84-.47,2.68,2.68,0,0,0,.47-1.84v-1.37q.06-6.25,3.37-9.79a10.44,10.44,0,0,1,7.84-3.1,10,10,0,0,1,8.57,4.05,14.5,14.5,0,0,1,2.63,8.84v1.37a1.87,1.87,0,0,0,2.32,2.31ZM1469,317q2.52,0,2.52-4.95c0-3-.84-4.52-2.52-4.52s-2.53,1.5-2.53,4.52C1466.49,315.34,1467.34,317,1469,317Z"/><path class="cls-2" d="M1486.38,324.35v-8.42h2.79a3.69,3.69,0,0,0,2.71-.76,4.31,4.31,0,0,0,.71-2.87V295.05l8.68-4.63v21.94a11.82,11.82,0,0,1-3.42,8.89,11.35,11.35,0,0,1-8.31,3.1Z"/><path class="cls-2" d="M1510.74,324.35v-29.3l8.68-4.63v33.93Z"/><path class="cls-2" d="M1562.5,315.93h4.9v8.42h-5.68a10.09,10.09,0,0,1-7.21-2.63,10.84,10.84,0,0,1-12.94-2.63,10.92,10.92,0,0,1-2.53-7.21,11.47,11.47,0,0,1,3.63-8.73,9.76,9.76,0,0,1,6.73-2.74,9.35,9.35,0,0,1,2.11.21v-.73l8.68-4.58v18.31a2.68,2.68,0,0,0,.47,1.84A2.63,2.63,0,0,0,1562.5,315.93ZM1545,294.63a4.25,4.25,0,0,1-3.16-1.24,4.34,4.34,0,0,1-1.21-3.18,4.17,4.17,0,0,1,1.21-3.13,4.33,4.33,0,0,1,3.16-1.19,4.07,4.07,0,0,1,4.31,4.32,4.4,4.4,0,0,1-1.18,3.21A4.22,4.22,0,0,1,1545,294.63Zm6.52,14.25a3.78,3.78,0,0,0-1.42-.26,2.16,2.16,0,0,0-1.84.95,4.18,4.18,0,0,0-.69,2.52q0,3.42,2.63,3.42a3,3,0,0,0,1.37-.31,10.49,10.49,0,0,1,0-1.16Zm3-14.25a4.25,4.25,0,0,1-3.16-1.24,4.34,4.34,0,0,1-1.21-3.18,4.17,4.17,0,0,1,1.21-3.13,4.33,4.33,0,0,1,3.16-1.19,4.07,4.07,0,0,1,4.31,4.32,4.4,4.4,0,0,1-1.18,3.21A4.22,4.22,0,0,1,1554.46,294.63Z"/><path class="cls-2" d="M1566.34,324.35v-8.42h6.37a11.46,11.46,0,0,1-.74-4.1q0-5.9,3.32-9.37a10.19,10.19,0,0,1,7.73-3.1,9.7,9.7,0,0,1,7.68,3.16,10,10,0,0,1,2.42,7V314a10.32,10.32,0,0,1-2.73,7.47,9.92,9.92,0,0,1-7.47,2.84Zm12-27.09a4.25,4.25,0,0,1-3.16-1.24,4.37,4.37,0,0,1-1.21-3.18,4.2,4.2,0,0,1,1.21-3.13,4.33,4.33,0,0,1,3.16-1.19,4.07,4.07,0,0,1,4.31,4.32,4.4,4.4,0,0,1-1.18,3.21A4.2,4.2,0,0,1,1578.34,297.26Zm6.1,11.94c0-1.12-.47-1.68-1.42-1.68q-2.52,0-2.52,4,0,4.42,2.52,4.42c1,0,1.42-.56,1.42-1.68Zm3.37-11.94a4.25,4.25,0,0,1-3.16-1.24,4.37,4.37,0,0,1-1.21-3.18,4.2,4.2,0,0,1,1.21-3.13,4.33,4.33,0,0,1,3.16-1.19,4.07,4.07,0,0,1,4.31,4.32,4.4,4.4,0,0,1-1.18,3.21A4.2,4.2,0,0,1,1587.81,297.26Z"/><path class="cls-2" d="M1612.27,324.35a9.77,9.77,0,0,1-7.73-3.16,10.35,10.35,0,0,1-2.47-7.15V295l8.68-4.57v23.2a1.86,1.86,0,0,0,2.31,2.31H1618v8.42Z"/><path class="cls-2" d="M1616.9,324.35v-8.42h8V295.05l8.68-4.63v12.83a17.25,17.25,0,0,1,10.89-3.89,12.89,12.89,0,0,1,10.31,4.47,13.58,13.58,0,0,1,3.32,9.26v1q0,1.89,2.31,1.89h4.9v8.42h-5.69a10.33,10.33,0,0,1-5.84-1.58,10.55,10.55,0,0,1-5.89,1.58Zm16.78-8.42h14c.84,0,1.35-.11,1.52-.34a4.1,4.1,0,0,0,.27-2v-.53a5.94,5.94,0,0,0-1.34-4,4.49,4.49,0,0,0-3.55-1.52,9.79,9.79,0,0,0-6.08,2.26A17.14,17.14,0,0,0,1633.68,315.93Z"/><path class="cls-2" d="M1664.3,324.35v-8.42h4.9a2.63,2.63,0,0,0,1.84-.47,2.68,2.68,0,0,0,.47-1.84V305l8.68-4.58V314A9.65,9.65,0,0,1,1670,324.35Zm9.31,13a4.23,4.23,0,0,1-3.15-1.24,4.36,4.36,0,0,1-1.21-3.18,4.15,4.15,0,0,1,1.21-3.13,4.31,4.31,0,0,1,3.15-1.19,4.07,4.07,0,0,1,4.32,4.32,4.44,4.44,0,0,1-1.18,3.21A4.23,4.23,0,0,1,1673.61,337.35Z"/><line class="cls-3" x1="334.2" y1="479.9" x2="1594.17" y2="479.9"/><line class="cls-3" x1="1594.17" y1="557.46" x2="334.2" y2="557.46"/><rect class="cls-4" x="1442.13" y="408.48" width="139.2" height="53.56"/><rect class="cls-4" x="1172.29" y="487.48" width="409.04" height="53.56"/><rect class="cls-4" x="807.21" y="408.48" width="229.1" height="53.56"/><rect class="cls-4" x="422.71" y="491.22" width="613.6" height="53.56"/><line class="cls-3" x1="334.2" y1="635.01" x2="1594.17" y2="635.01"/><line class="cls-3" x1="1594.17" y1="712.57" x2="334.2" y2="712.57"/><rect class="cls-4" x="1442.13" y="566.96" width="139.2" height="53.56"/><rect class="cls-4" x="1172.29" y="643.96" width="409.04" height="53.56"/><rect class="cls-4" x="729.52" y="566.96" width="306.8" height="53.56"/><path class="cls-5" d="M1545.63,452.21h3.07v5.28h-3.57a6.66,6.66,0,0,1-4-1.19,7.73,7.73,0,0,1-4.32,1.19h-13.53l2.73-5.28H1530V443.4l5.45-2.91v11.72h1.18a2.29,2.29,0,0,0,1.7-.48,2.68,2.68,0,0,0,.45-1.8V439.11l5.44-2.91v14.55a1.18,1.18,0,0,0,1.46,1.46Z"/><path class="cls-5" d="M1551.27,447.06a8.49,8.49,0,0,1,3.13-4.32,8.6,8.6,0,0,1,5.15-1.59,8.93,8.93,0,0,1,6.6,2.54,8.41,8.41,0,0,1,2.38,6.17V451a6.28,6.28,0,0,1-2,5,6.73,6.73,0,0,1-4.56,1.52h-4.75a6.61,6.61,0,0,1-2.11-.33,6.84,6.84,0,0,1-2.11.33h-5v-5.28h2.11a8,8,0,0,1-.17-1.55A5.23,5.23,0,0,1,1551.27,447.06Zm3.83,4.88a1.87,1.87,0,0,0,1.48-1.81,1.49,1.49,0,1,0-3,0A1.88,1.88,0,0,0,1555.1,451.94Zm8-1.19v-.89a3.6,3.6,0,0,0-.95-2.64,3.65,3.65,0,0,0-2.68-1,5.16,5.16,0,0,0-1.25.16,4.85,4.85,0,0,1,2,4.23,7.92,7.92,0,0,1-.16,1.55H1562c.53,0,.85-.08,1-.22A2.65,2.65,0,0,0,1563.08,450.75Z"/><path class="cls-5" d="M1572.09,435.64l1.29-2.41h1.09a2.81,2.81,0,0,1-.4-1.45,2.7,2.7,0,0,1,.89-2,2.78,2.78,0,0,1,2-.76,3.07,3.07,0,0,1,2.15.9v2.34a2.75,2.75,0,0,0-1.78-.83,1.07,1.07,0,0,0-.8.27.81.81,0,0,0-.23.59,1.64,1.64,0,0,0,.43,1h3.5l-1.29,2.41Zm1.39,21.85V440.43l5.44-2.91v20Z"/><path class="cls-5" d="M1516.53,606.78a1.92,1.92,0,0,0,0-.39,2.5,2.5,0,0,0-.53-1.57,30.85,30.85,0,0,0-2.7-2.79,7.65,7.65,0,0,1-2.64-5.61,5.34,5.34,0,0,1,1.94-4.26,6.84,6.84,0,0,1,4.53-1.48,8.07,8.07,0,0,1,5.21,2v4.78a6.57,6.57,0,0,0-4.49-2.11c-1.3,0-1.94.56-1.94,1.68a3.12,3.12,0,0,0,1,2l.72.72.07,0a14.38,14.38,0,0,1,2.77,3.31,6.57,6.57,0,0,1,.76,3.19v.49Zm5.77,4v.07a3,3,0,0,1-.87,2.2,3.44,3.44,0,0,1-4.55,0,3,3,0,0,1-.88-2.26v-.13a3,3,0,0,1,1-2.08,3.16,3.16,0,0,1,2.2-.79,3.06,3.06,0,0,1,2.26.86A2.92,2.92,0,0,1,1522.3,610.77Z"/><path class="cls-5" d="M1548.77,612.89a6.56,6.56,0,0,1-3.76,4.85,15.14,15.14,0,0,1-6.9,1.42q-5.77,0-8.65-3.27a8.69,8.69,0,0,1-2.14-5.94,8.4,8.4,0,0,1,1.09-4.32l5.15-1.09a9.46,9.46,0,0,0-1.13,4.45c0,3.48,1.9,5.22,5.68,5.22q3.86,0,5-1.32h-3l2.74-5.28h6.11v5.28Z"/><path class="cls-5" d="M1552.47,593.12a2.72,2.72,0,0,1-.75,2,2.6,2.6,0,0,1-2,.76,2.68,2.68,0,0,1-2-.77,2.74,2.74,0,0,1-.76-2,2.6,2.6,0,0,1,.76-2,2.71,2.71,0,0,1,2-.75,2.57,2.57,0,0,1,2.71,2.71Zm6.83,14.49h3.07v5.28h-3.57a6.64,6.64,0,0,1-3.66-1,6.94,6.94,0,0,1-3.7,1h-3.56v-5.28H1551a1.18,1.18,0,0,0,1.45-1.46v-5.41l5.44-2.87v8.28a1.18,1.18,0,0,0,1.46,1.46Zm-3.6-11.72a2.68,2.68,0,0,1-2-.77,2.74,2.74,0,0,1-.76-2,2.6,2.6,0,0,1,.76-2,2.71,2.71,0,0,1,2-.75,2.57,2.57,0,0,1,2.71,2.71,2.72,2.72,0,0,1-.75,2A2.6,2.6,0,0,1,1555.7,595.89Z"/><path class="cls-5" d="M1566.23,603.58a6.18,6.18,0,0,1,1.94-4.85,6.41,6.41,0,0,1,4.39-1.52,6.25,6.25,0,0,1,5.31,2.51,8.48,8.48,0,0,1,1.62,5.31,8.29,8.29,0,0,1-2,5.91,6,6,0,0,1-4.62,1.95,9.13,9.13,0,0,1-4.16-.83,6.9,6.9,0,0,1-3.4.83h-3.57v-5.28h3.07a1.18,1.18,0,0,0,1.46-1.46Zm5.44,3.33c0,.47.29.7.86.7,1.08,0,1.62-.93,1.62-2.78,0-1.67-.53-2.5-1.59-2.5-.59,0-.89.35-.89,1Z"/><path class="cls-5" d="M865.68,456.93a6.54,6.54,0,0,1-3.76,4.85,15,15,0,0,1-6.9,1.42q-5.78,0-8.64-3.27a8.7,8.7,0,0,1-2.15-5.94,8.5,8.5,0,0,1,1.09-4.32l5.15-1.09a9.49,9.49,0,0,0-1.12,4.46q0,5.2,5.67,5.21,3.87,0,5-1.32h-3l2.74-5.28h6.1v5.28Z"/><path class="cls-5" d="M875.58,451.65h3.07v5.28h-3.56a6.67,6.67,0,0,1-4-1.19,7.73,7.73,0,0,1-4.32,1.19h-2v-5.28h1.75a2.3,2.3,0,0,0,1.7-.48,2.68,2.68,0,0,0,.45-1.8V438.55l5.44-2.91V450.2a1.18,1.18,0,0,0,1.45,1.45Z"/><path class="cls-5" d="M896.08,451.65v5.28H878v-5.28h3.7a8.66,8.66,0,0,1-.5-3,7.07,7.07,0,0,1,2.54-5.68,7.33,7.33,0,0,1,4.79-1.72,7,7,0,0,1,6,3.27v4.65q-2.54-2.81-5.31-2.8H889a2.18,2.18,0,0,0-2.37,2.47c0,1.87,1.16,2.81,3.5,2.81Z"/><path class="cls-5" d="M929.57,451.65h3.7v5.28H929.7a8.91,8.91,0,0,1-2.08-.26,8.82,8.82,0,0,1-3.72,5,10.51,10.51,0,0,1-5.75,1.58,9.54,9.54,0,0,1-7.69-3.2,8.65,8.65,0,0,1-2.08-5.77,9.14,9.14,0,0,1,1-4.36l5.38-1.22a9,9,0,0,0-1.19,4.72,4.73,4.73,0,0,0,7.84,3.38,4.28,4.28,0,0,0,1.2-3.22v-15l5.45-2.91v14.72a1.31,1.31,0,0,0,.31,1A1.79,1.79,0,0,0,929.57,451.65Z"/><path class="cls-5" d="M956.93,456.93h-9a11.15,11.15,0,0,0-6.34,0h-8.94v-5.28h5.57a35.2,35.2,0,0,1-2.17-3.23v-1.85a12.12,12.12,0,0,1,3.94-3.83,8.31,8.31,0,0,1,9.54,0,12.52,12.52,0,0,1,4,3.86v1.79a30.38,30.38,0,0,1-2.21,3.23h5.61Zm-9.14-9.34a4.89,4.89,0,0,0-3.07-1.25,4.36,4.36,0,0,0-3.07,1.25,8.94,8.94,0,0,0,3.07,3.2A9,9,0,0,0,947.79,447.59Zm-3.14-8.32a2.64,2.64,0,0,1-2-.77,2.72,2.72,0,0,1-.76-2,2.6,2.6,0,0,1,.76-2,2.7,2.7,0,0,1,2-.74,2.56,2.56,0,0,1,2.71,2.7,2.72,2.72,0,0,1-.75,2A2.6,2.6,0,0,1,944.65,439.27Z"/><path class="cls-5" d="M960.85,437.16a2.71,2.71,0,0,1-.74,2,2.92,2.92,0,0,1-3.94,0,2.72,2.72,0,0,1-.76-2,2.6,2.6,0,0,1,.76-2,2.67,2.67,0,0,1,2-.74,2.54,2.54,0,0,1,2.7,2.7Zm6.84,14.49h3.06v5.28h-3.56a6.64,6.64,0,0,1-3.66-1,6.94,6.94,0,0,1-3.7,1h-3.56v-5.28h3.07a1.18,1.18,0,0,0,1.45-1.45v-5.41l5.44-2.88v8.29a1.18,1.18,0,0,0,1.46,1.45Zm-3.6-11.72a2.61,2.61,0,0,1-2-.77,2.72,2.72,0,0,1-.76-2,2.6,2.6,0,0,1,.76-2,2.67,2.67,0,0,1,2-.74,2.54,2.54,0,0,1,2.7,2.7,2.71,2.71,0,0,1-.74,2A2.6,2.6,0,0,1,964.09,439.93Z"/><path class="cls-5" d="M970.09,456.93v-5.28h3.4a1.67,1.67,0,0,0,1.16-.3,1.64,1.64,0,0,0,.29-1.15v-4.1l5.45-2.87v7a1.64,1.64,0,0,0,.3,1.15,1.62,1.62,0,0,0,1.15.3h2.91a1.18,1.18,0,0,0,1.45-1.45v-4.76l5.44-2.87v7.63a1.18,1.18,0,0,0,1.45,1.45H996a1.67,1.67,0,0,0,1.16-.3,1.7,1.7,0,0,0,.29-1.15v-5.41l5.45-2.88v7.46a2.74,2.74,0,0,0,.44,1.8,2.32,2.32,0,0,0,1.7.48h2.71v5.28h-2.94a7.73,7.73,0,0,1-4.32-1.19,6.6,6.6,0,0,1-3.7,1.19H992.6a6.94,6.94,0,0,1-3.7-1,6.73,6.73,0,0,1-3.33,1h-4.22a6.94,6.94,0,0,1-3.7-1,6.64,6.64,0,0,1-3.66,1Zm15.74-17.66a2.64,2.64,0,0,1-2-.77,2.76,2.76,0,0,1-.75-2,2.63,2.63,0,0,1,.75-2,2.7,2.7,0,0,1,2-.74,2.54,2.54,0,0,1,2.71,2.7,2.75,2.75,0,0,1-.74,2A2.62,2.62,0,0,1,985.83,439.27Zm2.94-5.8a2.44,2.44,0,0,1-1.8-.68,2.47,2.47,0,0,1-.67-1.83,2.37,2.37,0,0,1,.67-1.78,2.78,2.78,0,0,1,3.6,0,2.37,2.37,0,0,1,.68,1.78,2.48,2.48,0,0,1-.68,1.81A2.41,2.41,0,0,1,988.77,433.47Zm3,5.8a2.64,2.64,0,0,1-2-.77,2.76,2.76,0,0,1-.75-2,2.63,2.63,0,0,1,.75-2,2.7,2.7,0,0,1,2-.74,2.54,2.54,0,0,1,2.71,2.7,2.75,2.75,0,0,1-.74,2A2.62,2.62,0,0,1,991.77,439.27Z"/><path class="cls-5" d="M1018.54,451.65h3.07v5.28H1018a6.64,6.64,0,0,1-3.66-1,6.94,6.94,0,0,1-3.7,1h-3.56v-5.28h3.07a1.62,1.62,0,0,0,1.15-.3,1.64,1.64,0,0,0,.3-1.15v-5.41l5.45-2.88v8.29a1.7,1.7,0,0,0,.29,1.15A1.67,1.67,0,0,0,1018.54,451.65Zm-5.38-12.38a2.61,2.61,0,0,1-2-.77,2.72,2.72,0,0,1-.76-2,2.6,2.6,0,0,1,.76-2,2.67,2.67,0,0,1,2-.74,2.54,2.54,0,0,1,2.7,2.7,2.71,2.71,0,0,1-.74,2A2.6,2.6,0,0,1,1013.16,439.27Z"/><path class="cls-5" d="M1021,456.93v-5.28H1024a1.18,1.18,0,0,0,1.45-1.45v-5.41l5.44-2.88v8.55a6.29,6.29,0,0,1-2,4.92,6.35,6.35,0,0,1-4.42,1.55Zm5.84,8.15a2.62,2.62,0,0,1-2-.78,2.7,2.7,0,0,1-.76-2,2.62,2.62,0,0,1,.76-2,2.71,2.71,0,0,1,2-.74,2.54,2.54,0,0,1,2.7,2.71,2.74,2.74,0,0,1-.74,2A2.6,2.6,0,0,1,1026.79,465.08Z"/><path class="cls-5" d="M861.17,612.2v-5.28h4.49v5.28Z"/><path class="cls-5" d="M865,612.2v-5.28h3.07a1.17,1.17,0,0,0,1.45-1.45v-5.41l5.45-2.87v8.55a6.27,6.27,0,0,1-2,4.91,6.33,6.33,0,0,1-4.43,1.55Zm5.84,8.15a2.64,2.64,0,0,1-2-.77,2.72,2.72,0,0,1-.76-2,2.6,2.6,0,0,1,.76-2,2.7,2.7,0,0,1,2-.74,2.54,2.54,0,0,1,2.71,2.7,2.75,2.75,0,0,1-.74,2A2.64,2.64,0,0,1,870.84,620.35Z"/><path class="cls-5" d="M906.78,606.92h3.07v5.28h-3.57a6.9,6.9,0,0,1-3.4-.82,9.1,9.1,0,0,1-4.15.82h-4.89a1.62,1.62,0,0,0-1.15.3,1.65,1.65,0,0,0-.3,1.16v6.07l-5.45,2.87v-9.21a6.41,6.41,0,0,1,1.69-4.62,5.86,5.86,0,0,1,3.76-1.78,9.83,9.83,0,0,1-.33-2.64,8.13,8.13,0,0,1,2.08-5.87,6.37,6.37,0,0,1,4.85-2,6.1,6.1,0,0,1,4.82,2,6.3,6.3,0,0,1,1.52,4.39v2.57a1.67,1.67,0,0,0,.29,1.16A1.73,1.73,0,0,0,906.78,606.92Zm-6.9-.69V602.7c0-.7-.3-1.06-.89-1.06-1.06,0-1.58.84-1.58,2.51,0,1.85.53,2.77,1.61,2.77C899.59,606.92,899.88,606.69,899.88,606.23Z"/><path class="cls-5" d="M917.47,597.16a9.05,9.05,0,0,1,3.46,1.38,7.88,7.88,0,0,1,3.7,7v.33a6,6,0,0,1-2,4.82,6.38,6.38,0,0,1-4.39,1.51h-9.07v-5.28h8.54a1.8,1.8,0,0,0,1.14-.26,1.22,1.22,0,0,0,.32-1v-.1a2.88,2.88,0,0,0-1.72-2.7,5.27,5.27,0,0,0-2.54-.56,10.44,10.44,0,0,0-3.53.69v-5.25l6.17-6.86H923Z"/><path class="cls-5" d="M926.94,612.2l2.74-5.28h4.59a.88.88,0,0,0,1-1c0-1.89-1-3.41-3-4.55l2.68-4.59q5,2.94,5.67,7.86a3.54,3.54,0,0,0,.6,1.88,2.36,2.36,0,0,0,1.61.39h2.38v5.28h-2.61a7.81,7.81,0,0,1-4-1,5.32,5.32,0,0,1-3.33,1Z"/><path class="cls-5" d="M944.53,612.2v-5.28h3.07a1.17,1.17,0,0,0,1.45-1.45v-5.41l5.44-2.87v8.55a6,6,0,0,1-6.4,6.46ZM952,594.55a2.65,2.65,0,0,1-2-.78,2.7,2.7,0,0,1-.76-2,2.62,2.62,0,0,1,.76-2,2.74,2.74,0,0,1,2-.74,2.56,2.56,0,0,1,2.71,2.71,2.75,2.75,0,0,1-.75,2A2.6,2.6,0,0,1,952,594.55Z"/><path class="cls-5" d="M966.84,612.2a6.12,6.12,0,0,1-4.85-2,6.47,6.47,0,0,1-1.56-4.48v-12l5.45-2.87v14.55a1.17,1.17,0,0,0,1.45,1.45h3.07v5.28Z"/><path class="cls-5" d="M969.74,612.2v-5.28h3.4a1.17,1.17,0,0,0,1.45-1.45v-4.09l5.45-2.87v7a1.16,1.16,0,0,0,1.45,1.45h2.9a1.16,1.16,0,0,0,1.45-1.45v-4.75l5.45-2.87v7.62a1.17,1.17,0,0,0,1.45,1.45h2.94a1.17,1.17,0,0,0,1.45-1.45v-5.41l5.44-2.87v7.46a2.63,2.63,0,0,0,.45,1.79,2.3,2.3,0,0,0,1.7.48h2.71v5.28h-2.94a7.65,7.65,0,0,1-4.32-1.19,6.55,6.55,0,0,1-3.7,1.19h-4.22a6.94,6.94,0,0,1-3.7-1,6.53,6.53,0,0,1-3.33,1H981a6.91,6.91,0,0,1-3.69-1,6.69,6.69,0,0,1-3.67,1Z"/><path class="cls-5" d="M1018.18,606.92h3.07v5.28h-3.56a6.64,6.64,0,0,1-3.66-1,6.94,6.94,0,0,1-3.7,1h-3.56v-5.28h3.07a1.7,1.7,0,0,0,1.15-.29,1.67,1.67,0,0,0,.3-1.16v-5.41l5.44-2.87v8.28a1.67,1.67,0,0,0,.3,1.16A1.7,1.7,0,0,0,1018.18,606.92Zm-5.37-12.37a2.66,2.66,0,0,1-2-.78,2.73,2.73,0,0,1-.75-2,2.65,2.65,0,0,1,.75-2,2.75,2.75,0,0,1,2-.74,2.54,2.54,0,0,1,2.7,2.71,2.78,2.78,0,0,1-.74,2A2.61,2.61,0,0,1,1012.81,594.55Z"/><path class="cls-5" d="M1020.59,612.2v-5.28h3.07a1.16,1.16,0,0,0,1.45-1.45v-5.41l5.45-2.87v8.55a6.05,6.05,0,0,1-6.4,6.46Zm5.84,8.15a2.64,2.64,0,0,1-2-.77,2.76,2.76,0,0,1-.76-2,2.64,2.64,0,0,1,.76-2,2.7,2.7,0,0,1,2-.74,2.54,2.54,0,0,1,2.71,2.7,2.75,2.75,0,0,1-.74,2A2.62,2.62,0,0,1,1026.43,620.35Z"/></svg>