<svg id="Layer_1" data-name="Layer 1" xmlns="http://www.w3.org/2000/svg" viewBox="0 0 1920 1080"><defs><style>.cls-1{fill:#cf3339;}.cls-2{fill:#181617;}.cls-3{fill:#3eb871;}.cls-4{fill:#231f20;}.cls-5,.cls-6{fill:none;stroke-miterlimit:10;stroke-width:3px;}.cls-5{stroke:#3eb871;}.cls-6{stroke:#cf3339;}</style></defs><path class="cls-1" d="M734.4,295.9a6.44,6.44,0,0,0,.12-1.45,9.39,9.39,0,0,0-1.93-5.74q-1.94-2.61-9.92-10.23Q713,269.16,713,257.91a19.55,19.55,0,0,1,7.13-15.61q6.54-5.45,16.58-5.44,10.29,0,19.12,7.26v17.54q-8.1-7.74-16.46-7.74-7.14,0-7.13,6.17c0,2.26,1.24,4.72,3.75,7.38l2.66,2.66.24.12q7.38,7,10.16,12.16a24.1,24.1,0,0,1,2.79,11.68v1.81Zm21.18,14.65v.24a10.63,10.63,0,0,1-3.21,8,12.64,12.64,0,0,1-16.7-.12,11.23,11.23,0,0,1-3.2-8.29v-.48a11,11,0,0,1,3.57-7.62,11.5,11.5,0,0,1,8-2.91,11.33,11.33,0,0,1,8.29,3.15A10.71,10.71,0,0,1,755.58,310.55Z"/><path class="cls-1" d="M787.89,299.17a36,36,0,0,1-1.21-9.68q0-13.55,7.62-21.54,6.78-7.14,17.79-7.14,11.25,0,17.66,7.26,5.57,6.18,5.57,16.1V300q-.26,18.27-24.2,18.27H793.21c-2.1,0-3.51.36-4.24,1.09s-1.08,2.14-1.08,4.23v22.27l-20,10.52V322.65q0-10.53,6.17-16.94A21.5,21.5,0,0,1,787.89,299.17Zm27.46-2.78V283.44q0-3.87-3.26-3.87-5.82,0-5.81,9.2,0,10.16,5.93,10.16C814.3,298.93,815.35,298.08,815.35,296.39Z"/><path class="cls-1" d="M884.56,226.21,895.7,220v15.24a10.08,10.08,0,0,1-3.51,7.93,13.24,13.24,0,0,1-9.08,3.08,13.72,13.72,0,0,1-7-1.69,16,16,0,0,1-7.26,1.69,12.81,12.81,0,0,1-8.89-3.08,10.16,10.16,0,0,1-3.45-7.93v-6.65l11.13-6.17v12c0,.8.49,1.21,1.46,1.21s1.45-.41,1.45-1.21v-7l11.13-6.17v13.19c0,.8.48,1.21,1.45,1.21s1.45-.41,1.45-1.21Z"/><path class="cls-1" d="M846.21,318.29l10-19.36h16.82q3.63,0,3.63-3.63,0-10.41-11-16.7l9.8-16.82q18.51,10.77,20.81,28.8c.49,3.63,1.21,5.93,2.18,6.9s2.94,1.45,5.93,1.45h8.71v19.36h-9.56A28.51,28.51,0,0,1,889,314.66q-4.72,3.63-12.22,3.63Z"/><path class="cls-1" d="M910.7,318.29V298.93h16.46v19.36Z"/><path class="cls-1" d="M924.74,318.29V298.93h16.45v19.36Z"/><path class="cls-1" d="M938.77,318.29V298.93h16.46v19.36Z"/><path class="cls-1" d="M952.81,318.29V298.93h16.45v19.36Z"/><path class="cls-1" d="M966.84,318.29V298.93H983.3v19.36Z"/><path class="cls-1" d="M980.88,318.29V298.93h16.45v19.36Z"/><path class="cls-1" d="M994.91,318.29V298.93h16.46v19.36Z"/><path class="cls-1" d="M1009,318.29V298.93h16.46v19.36Z"/><path class="cls-1" d="M1023,318.29V298.93h16.46v19.36Z"/><path class="cls-1" d="M1037,318.29V298.93h16.46v19.36Z"/><path class="cls-1" d="M1110.35,298.93h14.27v19.36H1099a53.47,53.47,0,0,1-11.13-1,53.54,53.54,0,0,1-11.13,1h-25.65V298.93h14.27a27.22,27.22,0,0,1-2.54-11.13q0-12.35,7.38-20,6.9-7,17.67-7,12.35,0,19.36,9,5.68,7.38,5.69,18A27.22,27.22,0,0,1,1110.35,298.93ZM1077,256a9.67,9.67,0,0,1-7.26-2.84,10,10,0,0,1-2.78-7.32,9.61,9.61,0,0,1,2.78-7.2,9.94,9.94,0,0,1,7.26-2.72,9.35,9.35,0,0,1,9.92,9.92,10.1,10.1,0,0,1-2.72,7.38A9.61,9.61,0,0,1,1077,256Zm10.89,41a11.91,11.91,0,0,0,5.69-10.52q0-6.9-5.69-6.9t-5.69,6.78A11.85,11.85,0,0,0,1087.84,297Zm10.89-41a9.69,9.69,0,0,1-7.26-2.84,10,10,0,0,1-2.78-7.32,9.61,9.61,0,0,1,2.78-7.2,10,10,0,0,1,7.26-2.72,9.35,9.35,0,0,1,9.92,9.92,10.1,10.1,0,0,1-2.72,7.38A9.61,9.61,0,0,1,1098.73,256Z"/><path class="cls-1" d="M1122.2,318.29V298.93h11.26c2.09,0,3.5-.36,4.23-1.09s1.09-2.14,1.09-4.23V273.76l20-10.53v31.34q0,11.51-7.26,18-6.3,5.7-16.22,5.69Zm27.47-64.74a9.7,9.7,0,0,1-7.26-2.84,10,10,0,0,1-2.78-7.32,9.61,9.61,0,0,1,2.78-7.2,10,10,0,0,1,7.26-2.72,9.35,9.35,0,0,1,9.92,9.92,10.06,10.06,0,0,1-2.72,7.38A9.61,9.61,0,0,1,1149.67,253.55Z"/><path class="cls-1" d="M1211.14,318.29v-67.4l20-10.65v78.05Z"/><path class="cls-1" d="M1243.2,318.29l10-19.36h16.82q3.63,0,3.63-3.63,0-10.41-11-16.7l9.8-16.82q21.18,12.35,21.18,33.76,0,12.46-6.54,18.27-5,4.49-13.31,4.48Zm29.4-64.74a9.7,9.7,0,0,1-7.26-2.84,10,10,0,0,1-2.78-7.32,9.65,9.65,0,0,1,2.78-7.2,10,10,0,0,1,7.26-2.72,9.36,9.36,0,0,1,9.93,9.92,10.07,10.07,0,0,1-2.73,7.38A9.58,9.58,0,0,1,1272.6,253.55Z"/><path class="cls-1" d="M1336.37,318.29q-11.37,0-17.79-7.26-5.68-6.42-5.69-16.46v-43.8l20-10.53v53.37c0,2.09.36,3.5,1.09,4.23s2.13,1.09,4.23,1.09h11.26v19.36Z"/><path class="cls-1" d="M1363.59,284.17q0-11.37,7.14-17.79,6.29-5.56,16.09-5.57,12.59,0,19.48,9.2,5.94,7.74,5.93,19.48,0,13.68-7.5,21.66-6.52,7.14-16.94,7.14-9.32,0-15.25-3a25.15,25.15,0,0,1-12.46,3H1347V298.93h11.26c2.09,0,3.51-.36,4.23-1.09s1.09-2.14,1.09-4.23Zm20,12.22c0,1.69,1,2.54,3.14,2.54q5.92,0,5.93-10.16,0-9.19-5.81-9.2-3.25,0-3.26,3.87Z"/><polygon class="cls-2" points="100.78 1001.01 118.74 1028.1 70.77 1028.1 70.77 987.82 79.98 973.92 118.74 973.92 100.78 1001.01"/><path class="cls-3" d="M1087.82,420H1090v3.83h-2.58a4.6,4.6,0,0,1-3.29-1.2,4.44,4.44,0,0,1-2.2.51,4.5,4.5,0,0,1-3.69-1.71,5,5,0,0,1-1.16-3.28,5.25,5.25,0,0,1,1.66-4,4.44,4.44,0,0,1,3.07-1.25,4.57,4.57,0,0,1,1,.1v-.33l4-2.09V419a1.16,1.16,0,0,0,.22.84A1.21,1.21,0,0,0,1087.82,420Zm-8-9.71a1.91,1.91,0,0,1-1.43-.56,2,2,0,0,1-.56-1.45,1.9,1.9,0,0,1,.56-1.43,2,2,0,0,1,3.4,1.43,2,2,0,0,1-.54,1.46A1.91,1.91,0,0,1,1079.83,410.33Zm3,6.49a1.71,1.71,0,0,0-.65-.12,1,1,0,0,0-.84.44,1.89,1.89,0,0,0-.31,1.15c0,1,.4,1.55,1.2,1.55a1.31,1.31,0,0,0,.62-.14,3.65,3.65,0,0,1,0-.53Zm1.34-6.49a2,2,0,0,1-1.44-.56,2,2,0,0,1-.55-1.45,1.89,1.89,0,0,1,.55-1.43,2,2,0,0,1,1.44-.54,1.86,1.86,0,0,1,2,2,2,2,0,0,1-.54,1.46A1.88,1.88,0,0,1,1084.15,410.33Z"/><path class="cls-3" d="M1091.12,425.81a1.86,1.86,0,0,1,2,2,2,2,0,0,1-.54,1.46,1.91,1.91,0,0,1-1.43.55,2,2,0,0,1-1.44-.56,2,2,0,0,1-.55-1.45,1.94,1.94,0,0,1,.55-1.43A2,2,0,0,1,1091.12,425.81Zm6.74-5.77h2.23v3.83h-2.59a4.84,4.84,0,0,1-2.66-.72,5.06,5.06,0,0,1-2.69.72h-2.58V420h2.22a1.21,1.21,0,0,0,.84-.22,1.16,1.16,0,0,0,.22-.84v-3.93l4-2.09v6a.86.86,0,0,0,1.06,1.06Zm-2.42,5.77a1.91,1.91,0,0,1,1.42.54,1.94,1.94,0,0,1,.54,1.43,2,2,0,0,1-.54,1.46,1.88,1.88,0,0,1-1.42.55,2,2,0,0,1-1.44-.56,2,2,0,0,1-.55-1.45,1.91,1.91,0,0,1,.55-1.43A2,2,0,0,1,1095.44,425.81Z"/><path class="cls-3" d="M1099.61,423.87V420h2.23a1.25,1.25,0,0,0,.84-.22,1.22,1.22,0,0,0,.21-.84v-3.93l4-2.09v6.21a4.39,4.39,0,0,1-4.65,4.7Zm1.65-13.54.94-1.75h.79a2.14,2.14,0,0,1-.29-1.06,1.94,1.94,0,0,1,.65-1.48,2,2,0,0,1,1.44-.55,2.21,2.21,0,0,1,1.55.64v1.71a2,2,0,0,0-1.29-.6.78.78,0,0,0-.58.19.57.57,0,0,0-.16.43,1.18,1.18,0,0,0,.31.72h2.54l-.94,1.75Z"/><path class="cls-3" d="M1115.81,423.87a4.44,4.44,0,0,1-3.52-1.44,4.72,4.72,0,0,1-1.13-3.26V410.5l4-2.09V419a.85.85,0,0,0,1.05,1.06h2.23v3.83Z"/><path class="cls-3" d="M1132.47,420h2.23v3.83h-2.59a4.68,4.68,0,0,1-2.54-.65,5.27,5.27,0,0,1-6.52,0,4.64,4.64,0,0,1-2.54.65h-2.59V420h2.23a1.25,1.25,0,0,0,.84-.22,1.22,1.22,0,0,0,.21-.84v-.62a6.35,6.35,0,0,1,1.54-4.46,4.74,4.74,0,0,1,3.57-1.41,4.59,4.59,0,0,1,3.91,1.84,6.6,6.6,0,0,1,1.19,4V419a.86.86,0,0,0,1.06,1.06Zm-6.16.48c.77,0,1.15-.76,1.15-2.26s-.38-2.06-1.15-2.06-1.15.69-1.15,2.06S1125.54,420.52,1126.31,420.52Z"/><path class="cls-3" d="M1142.51,420h2.23v3.83h-2.59a4.84,4.84,0,0,1-2.66-.72,5,5,0,0,1-2.68.72h-2.59V420h2.23a1.25,1.25,0,0,0,.84-.22,1.22,1.22,0,0,0,.21-.84v-3.93l4-2.09v6a1.22,1.22,0,0,0,.21.84A1.25,1.25,0,0,0,1142.51,420Zm-3.9-9a1.91,1.91,0,0,1-1.44-.57,2,2,0,0,1-.55-1.45,1.88,1.88,0,0,1,.55-1.42,2,2,0,0,1,1.44-.54,1.85,1.85,0,0,1,2,2,2,2,0,0,1-.54,1.47A1.92,1.92,0,0,1,1138.61,411.05Z"/><path class="cls-3" d="M1145.82,425.81a1.86,1.86,0,0,1,2,2,2,2,0,0,1-.54,1.46,1.91,1.91,0,0,1-1.43.55,2,2,0,0,1-1.44-.56,2,2,0,0,1-.55-1.45,1.91,1.91,0,0,1,.55-1.43A2,2,0,0,1,1145.82,425.81Zm6.74-5.77h2.23v3.83h-2.59a4.81,4.81,0,0,1-2.66-.72,5.06,5.06,0,0,1-2.69.72h-2.59V420h2.23a.86.86,0,0,0,1.06-1.06v-3.93l4-2.09v6a1.16,1.16,0,0,0,.22.84A1.21,1.21,0,0,0,1152.56,420Zm-2.43,5.77a1.86,1.86,0,0,1,2,2,2,2,0,0,1-.54,1.46,1.89,1.89,0,0,1-1.43.55,1.91,1.91,0,0,1-1.43-.56,2,2,0,0,1-.55-1.45,1.91,1.91,0,0,1,.55-1.43A1.94,1.94,0,0,1,1150.13,425.81Z"/><path class="cls-3" d="M1154.31,423.87V420h2.46a1.21,1.21,0,0,0,.84-.22,1.16,1.16,0,0,0,.22-.84v-3l4-2.09V419a.86.86,0,0,0,1.06,1.06H1165a1.25,1.25,0,0,0,.84-.22,1.22,1.22,0,0,0,.21-.84v-3.45l4-2.09V419a1.22,1.22,0,0,0,.21.84,1.25,1.25,0,0,0,.84.22h2.14a1.2,1.2,0,0,0,.83-.22,1.16,1.16,0,0,0,.22-.84v-3.93l4-2.09v6.21a4.36,4.36,0,0,1-4.44,4.7h-3.07a5,5,0,0,1-2.68-.72,4.89,4.89,0,0,1-2.42.72h-3.07a5.06,5.06,0,0,1-2.69-.72,4.81,4.81,0,0,1-2.66.72Z"/><path class="cls-3" d="M1193,423.87a4.24,4.24,0,0,1-3.38-1.44,4.84,4.84,0,0,1-1.08-3.26v-2l3.93-2.09V419a.86.86,0,0,0,1.06,1.06h7.67a1.25,1.25,0,0,0,.84-.22,1.22,1.22,0,0,0,.21-.84v-3.93l4-2.09v6.21a4.39,4.39,0,0,1-4.65,4.7Zm2.18-11.14a1.92,1.92,0,0,1-1.44-.57,2,2,0,0,1-.55-1.45,1.92,1.92,0,0,1,.55-1.42,2,2,0,0,1,1.44-.54,1.94,1.94,0,0,1,1.43.54,1.91,1.91,0,0,1,.54,1.42,2,2,0,0,1-.54,1.46A1.91,1.91,0,0,1,1195.17,412.73Zm4.32,0a1.92,1.92,0,0,1-1.44-.57,2,2,0,0,1-.55-1.45,1.88,1.88,0,0,1,.55-1.42,2,2,0,0,1,1.44-.54,1.85,1.85,0,0,1,2,2,2,2,0,0,1-.54,1.46A1.89,1.89,0,0,1,1199.49,412.73Z"/><path class="cls-3" d="M1210.51,423.87V410.52l4-2.11v15.46Z"/><path class="cls-3" d="M1224.46,405.63l2.21-1.22v3a2,2,0,0,1-.7,1.57,2.59,2.59,0,0,1-1.79.61,2.63,2.63,0,0,1-1.39-.34,3.12,3.12,0,0,1-1.44.34,2.51,2.51,0,0,1-1.76-.61,2,2,0,0,1-.69-1.57v-1.32l2.21-1.22v2.37c0,.16.09.24.29.24s.28-.08.28-.24v-1.39l2.21-1.22v2.61c0,.16.09.24.29.24s.28-.08.28-.24Z"/><path class="cls-3" d="M1216.86,423.87l2-3.83h3.34a.64.64,0,0,0,.72-.72,3.72,3.72,0,0,0-2.19-3.31l2-3.33a7.62,7.62,0,0,1,4.12,5.7,2.59,2.59,0,0,0,.43,1.37,1.7,1.7,0,0,0,1.17.29h1.73v3.83h-1.89a5.65,5.65,0,0,1-2.88-.72,3.85,3.85,0,0,1-2.42.72Z"/><path class="cls-3" d="M1247.31,423.87h-6.57a8.18,8.18,0,0,0-4.6,0h-6.5V420h4a27.55,27.55,0,0,1-1.58-2.35v-1.35a8.94,8.94,0,0,1,2.86-2.78,6.7,6.7,0,0,1,3.47-1.07,6.53,6.53,0,0,1,3.46,1.1,9.1,9.1,0,0,1,2.89,2.8v1.3a22.59,22.59,0,0,1-1.61,2.35h4.08Zm-6.64-6.78a3.55,3.55,0,0,0-2.23-.91,3.17,3.17,0,0,0-2.23.91,6.39,6.39,0,0,0,2.23,2.32A6.56,6.56,0,0,0,1240.67,417.09Z"/><path class="cls-3" d="M1250.11,417.11a4.5,4.5,0,0,1,1.41-3.52,4.62,4.62,0,0,1,3.19-1.1,4.53,4.53,0,0,1,3.86,1.82,6.18,6.18,0,0,1,1.18,3.86,6,6,0,0,1-1.49,4.29,4.34,4.34,0,0,1-3.36,1.41,6.65,6.65,0,0,1-3-.6,5,5,0,0,1-2.47.6h-2.58V420h2.22a1.21,1.21,0,0,0,.84-.22,1.16,1.16,0,0,0,.22-.84Zm4,2.42q0,.51.63.51c.78,0,1.17-.67,1.17-2s-.38-1.82-1.15-1.82c-.43,0-.65.26-.65.77Z"/><path class="cls-4" d="M518.75,469.33a4,4,0,0,1-3.22-1.34,4.42,4.42,0,0,1-1-2.93V455l2.07-1.1V465a2.1,2.1,0,0,0,2.34,2.4h1.59v1.94Z"/><path class="cls-4" d="M519.13,469.33v-1.94h4.22v1.94Z"/><path class="cls-4" d="M519.13,469.33v-1.94h4.22v1.94Z"/><path class="cls-4" d="M538.23,467.39h1.58v1.94H538a3.9,3.9,0,0,1-3.11-1.25,4.16,4.16,0,0,1-3.19,1.25H529.1a4.76,4.76,0,0,1-1.53-.24,5,5,0,0,1-1.54.24h-4.12v-1.94H525a4.52,4.52,0,0,1-.91-2.78,4,4,0,0,1,.7-2.4,5.79,5.79,0,0,1,2.27-3.38,5.36,5.36,0,0,1,3.09-.93,5.56,5.56,0,0,1,4.2,1.72,5.84,5.84,0,0,1,1.56,4.2V465A2.09,2.09,0,0,0,538.23,467.39Zm-10.66-.22a2.61,2.61,0,0,0,2-2.68,2.37,2.37,0,0,0-.54-1.62,2,2,0,0,0-2.85,0,2.37,2.37,0,0,0-.54,1.62A2.61,2.61,0,0,0,527.57,467.17Zm4,.22a2.16,2.16,0,0,0,1.69-.59,2.86,2.86,0,0,0,.51-1.9v-1.08a3.85,3.85,0,0,0-1.27-3.09,3.59,3.59,0,0,0-2.47-.91,3.25,3.25,0,0,0-2.59,1.07h.08a3.27,3.27,0,0,1,2.52,1,3.77,3.77,0,0,1,.95,2.7,4.34,4.34,0,0,1-.93,2.78Z"/><path class="cls-4" d="M538.38,469.33v-1.94H540a2.1,2.1,0,0,0,2.35-2.4v-5l2.06-1.1v6.13a4.29,4.29,0,0,1-1.22,3.22,4.18,4.18,0,0,1-2.95,1.05Zm1.84-13.3a1,1,0,0,1-1.17-1.2,1.16,1.16,0,1,1,2.32,0C541.37,455.63,541,456,540.22,456Zm3,0a1.05,1.05,0,0,1-1.18-1.2,1.17,1.17,0,1,1,2.33,0C544.42,455.63,544,456,543.27,456Z"/><path class="cls-4" d="M552.85,469.33a4,4,0,0,1-3.21-1.34,4.42,4.42,0,0,1-1-2.93V455l2.06-1.1V465a2.1,2.1,0,0,0,2.35,2.4h1.58v1.94Z"/><path class="cls-4" d="M563.71,467.39h4.46v1.94h-5.85a6.58,6.58,0,0,1-1.63-.17,6.42,6.42,0,0,1-1.63.17h-5.82v-1.94h4.46a5.56,5.56,0,0,1-1.49-3.76,5.19,5.19,0,0,1,1.32-3.74,4.55,4.55,0,0,1,6.64.36,5.42,5.42,0,0,1,1,3.38A5.61,5.61,0,0,1,563.71,467.39Zm-4.53-11.19a1.19,1.19,0,0,1,0-2.38,1,1,0,0,1,1.15,1.18C560.33,455.8,560,456.2,559.18,456.2Zm1.54,11a3.5,3.5,0,0,0,1.79-1.4,3.86,3.86,0,0,0,.7-2.24,3.28,3.28,0,0,0-.68-2.19,2.29,2.29,0,0,0-1.84-.81,2.26,2.26,0,0,0-1.83.82,3.26,3.26,0,0,0-.69,2.18,3.82,3.82,0,0,0,.72,2.23A3.6,3.6,0,0,0,560.72,467.17Zm1.51-11a1.19,1.19,0,0,1,0-2.38,1,1,0,0,1,1.15,1.18C563.38,455.8,563,456.2,562.23,456.2Z"/><path class="cls-4" d="M582.36,467.39h1.56v1.94h-1.59a9.13,9.13,0,0,1-3.11-.44,5.67,5.67,0,0,1-2.18-1.57,12.43,12.43,0,0,1-7,2h-3.26v-1.94H570a9.74,9.74,0,0,0,7.7-3.21q-2-3.68-4.84-3.67a5.88,5.88,0,0,0-4,2.06v-1.92a6,6,0,0,1,4.27-2A5.76,5.76,0,0,1,576.7,460a11.51,11.51,0,0,1,3,3.8v1.05a11.15,11.15,0,0,1-1.42,1.51A6.24,6.24,0,0,0,582.36,467.39Z"/><path class="cls-4" d="M590.65,467.39h1.58v1.94h-1.82a4,4,0,0,1-3.18-1.32,4.26,4.26,0,0,1-3.31,1.32h-1.44v-1.94h1.27q2.49,0,2.49-2.61V455l2.09-1.1V464.8a2.94,2.94,0,0,0,.54,2A2.29,2.29,0,0,0,590.65,467.39Z"/><path class="cls-4" d="M594.73,462.83a3.83,3.83,0,0,1,4.12-4.21,4.09,4.09,0,0,1,3.5,1.67,6.08,6.08,0,0,1,1,3.7,5.76,5.76,0,0,1-1.34,4.05,4,4,0,0,1-3.07,1.29,4.28,4.28,0,0,1-3.28-1.2,4.09,4.09,0,0,1-3.09,1.2H590.8v-1.94h1.58a2.1,2.1,0,0,0,2.35-2.4Zm2.06,2.33a2,2,0,0,0,2.18,2.23,2,2,0,0,0,1.76-.91,4.44,4.44,0,0,0,.64-2.54,4.18,4.18,0,0,0-.67-2.51,2.19,2.19,0,0,0-1.85-.9c-1.38,0-2.06.8-2.06,2.4Z"/><path class="cls-4" d="M626.63,467.39h1.58v1.94h-1.82a4.48,4.48,0,0,1-2.16-.5,5.28,5.28,0,0,1-2.13,3.81,6.62,6.62,0,0,1-4.1,1.24,5.79,5.79,0,0,1-4.84-2.2,6.4,6.4,0,0,1-1.32-4,5.81,5.81,0,0,1,1-3.45l2-.43a6.79,6.79,0,0,0-1.07,3.67,4.59,4.59,0,0,0,1.24,3.31,4.05,4.05,0,0,0,3,1.19,4.24,4.24,0,0,0,3.26-1.22,3.78,3.78,0,0,0,1-2.68v-8l2.06-1.1V465A2.1,2.1,0,0,0,626.63,467.39Zm-8.75-8.87a1,1,0,0,1-1.17-1.2,1.16,1.16,0,1,1,2.32,0C619,458.12,618.65,458.52,617.88,458.52Z"/><path class="cls-4" d="M626.77,469.33v-1.94H631v1.94Z"/><path class="cls-4" d="M626.77,469.33v-1.94H631v1.94Z"/><path class="cls-4" d="M633.48,462.83a4.2,4.2,0,0,1,1.25-3.23,4.12,4.12,0,0,1,2.88-1,4.07,4.07,0,0,1,3.49,1.67,6,6,0,0,1,1.06,3.7,5.8,5.8,0,0,1-1.34,4.05,4,4,0,0,1-3.07,1.29,4.31,4.31,0,0,1-3.29-1.2,4.06,4.06,0,0,1-3.09,1.2h-1.82v-1.94h1.58a2.1,2.1,0,0,0,2.35-2.4Zm2.06,2.33a2,2,0,0,0,2.18,2.23,2,2,0,0,0,1.77-.91,4.44,4.44,0,0,0,.63-2.54,4.11,4.11,0,0,0-.67-2.51,2.17,2.17,0,0,0-1.84-.9q-2.07,0-2.07,2.4Z"/><path class="cls-4" d="M652,468.56a6.09,6.09,0,0,1-2.23.36,4,4,0,0,1-3.35-1.6,6.37,6.37,0,0,1,.33-7.41,4.23,4.23,0,0,1,3.21-1.29,3.91,3.91,0,0,1,3.14,1.27,4.29,4.29,0,0,1,1,2.94v5.23a6.2,6.2,0,0,1-1.42,4.29,4.57,4.57,0,0,1-3.57,1.49,5.82,5.82,0,0,1-2.8-.7v-1.82a5.28,5.28,0,0,0,2.51.67,2.94,2.94,0,0,0,2.26-.9A3.94,3.94,0,0,0,652,468.56Zm0-5.63q0-2.4-2-2.4a2.25,2.25,0,0,0-1.88.89,3.91,3.91,0,0,0-.68,2.42,4,4,0,0,0,.66,2.41,2.09,2.09,0,0,0,1.78.9,2.38,2.38,0,0,0,2.16-.89Z"/><path class="cls-4" d="M667.3,469.33a4,4,0,0,1-3.21-1.34,4.42,4.42,0,0,1-1-2.93V455l2.06-1.1V465a2.1,2.1,0,0,0,2.35,2.4h1.58v1.94Z"/><path class="cls-4" d="M667.68,469.33v-1.94h4.22v1.94Z"/><path class="cls-4" d="M667.68,469.33v-1.94h4.22v1.94Z"/><path class="cls-4" d="M686.79,467.39h1.58v1.94h-1.82a3.93,3.93,0,0,1-3.12-1.25,4.13,4.13,0,0,1-3.19,1.25h-2.58a4.82,4.82,0,0,1-1.54-.24,4.94,4.94,0,0,1-1.53.24h-4.13v-1.94h3.1a4.52,4.52,0,0,1-.91-2.78,4.09,4.09,0,0,1,.69-2.4,5.85,5.85,0,0,1,2.28-3.38,5.36,5.36,0,0,1,3.09-.93,5.55,5.55,0,0,1,4.19,1.72,5.84,5.84,0,0,1,1.56,4.2V465A2.09,2.09,0,0,0,686.79,467.39Zm-10.67-.22a2.62,2.62,0,0,0,2-2.68,2.37,2.37,0,0,0-.54-1.62,1.81,1.81,0,0,0-1.43-.61,1.78,1.78,0,0,0-1.42.61,2.37,2.37,0,0,0-.54,1.62A2.61,2.61,0,0,0,676.12,467.17Zm4,.22a2.14,2.14,0,0,0,1.69-.59,2.8,2.8,0,0,0,.52-1.9v-1.08a3.88,3.88,0,0,0-1.27-3.09,3.59,3.59,0,0,0-2.47-.91,3.24,3.24,0,0,0-2.59,1.07h.07a3.28,3.28,0,0,1,2.53,1,3.82,3.82,0,0,1,1,2.7,4.29,4.29,0,0,1-.94,2.78Z"/><path class="cls-4" d="M695.27,467.39h1.58v1.94H695a4.52,4.52,0,0,0-6.28,0h-1.82v-1.94h1.58a2.1,2.1,0,0,0,2.35-2.4v-5l2.06-1.1V465A2.1,2.1,0,0,0,695.27,467.39ZM691.49,456a1.05,1.05,0,0,1-1.18-1.2,1.17,1.17,0,1,1,2.33,0C692.64,455.63,692.25,456,691.49,456Z"/><path class="cls-4" d="M699.35,462.83a3.83,3.83,0,0,1,4.12-4.21,4.08,4.08,0,0,1,3.5,1.67,6.08,6.08,0,0,1,1,3.7,5.76,5.76,0,0,1-1.34,4.05,3.94,3.94,0,0,1-3.07,1.29,4.29,4.29,0,0,1-3.28-1.2,4.09,4.09,0,0,1-3.09,1.2h-1.82v-1.94H697a2.1,2.1,0,0,0,2.35-2.4Zm2.06,2.33a2,2,0,0,0,2.18,2.23,2,2,0,0,0,1.76-.91,4.36,4.36,0,0,0,.64-2.54,4.18,4.18,0,0,0-.67-2.51,2.19,2.19,0,0,0-1.85-.9c-1.37,0-2.06.8-2.06,2.4Z"/><path class="cls-4" d="M715,469.33l1-1.94h4.26a1.69,1.69,0,0,0,1.36-.48,2.66,2.66,0,0,0,.39-1.65,5.16,5.16,0,0,0-2.94-4.8l1-1.77a7.16,7.16,0,0,1,3.93,6.09,3,3,0,0,0,.64,2,2.5,2.5,0,0,0,1.88.61H728v1.94h-1.58a4,4,0,0,1-3.12-1.27,2.87,2.87,0,0,1-2.66,1.27Z"/><path class="cls-4" d="M726.57,469.33v-1.94h4.22v1.94Z"/><path class="cls-4" d="M726.57,469.33v-1.94h4.22v1.94Z"/><path class="cls-4" d="M734.08,459.19h.14a5.93,5.93,0,0,1,4.39,1.68,5.19,5.19,0,0,1,1.53,3.86v.41a4.11,4.11,0,0,1-1.27,3.21,4.28,4.28,0,0,1-2.9,1h-6.62v-1.94h6.43c1.53,0,2.3-.81,2.3-2.42v-.22a3.11,3.11,0,0,0-1.39-2.73,4.75,4.75,0,0,0-2.69-.74,7.76,7.76,0,0,0-2.56.45v-2l5.25-5.83h2.11Z"/><path class="cls-4" d="M742.46,453.54l.56-1h.64a1.82,1.82,0,0,1-.24-.91,1.66,1.66,0,0,1,.53-1.21,1.7,1.7,0,0,1,1.22-.51,2,2,0,0,1,1.15.38v1.06a1.54,1.54,0,0,0-1-.41c-.59,0-.89.27-.89.81a1.2,1.2,0,0,0,.36.79H747l-.55,1Zm5.45,15.79a4,4,0,0,1-3.22-1.34,4.41,4.41,0,0,1-1-2.93v-9.13l2.06-1.1V465a2.1,2.1,0,0,0,2.35,2.4h1.58v1.94Z"/><path class="cls-4" d="M756.63,467.39h1.58v1.94h-1.82a4.52,4.52,0,0,0-6.28,0h-1.82v-1.94h1.58a2.1,2.1,0,0,0,2.35-2.4v-5l2.06-1.1V465A2.1,2.1,0,0,0,756.63,467.39ZM751,456.2a1.19,1.19,0,0,1,0-2.38,1,1,0,0,1,1.15,1.18C752.12,455.8,751.74,456.2,751,456.2Zm3.07,0a1.19,1.19,0,0,1,0-2.38,1,1,0,0,1,1.15,1.18C755.19,455.8,754.81,456.2,754,456.2Z"/><path class="cls-4" d="M756.78,469.33v-1.94h1.27q2.49,0,2.49-2.61V455l2.08-1.1V464.8a4.51,4.51,0,0,1-1.27,3.38,4.32,4.32,0,0,1-3.14,1.15Z"/><path class="cls-4" d="M766.94,469.33V455l2.06-1.1v15.46Z"/><path class="cls-4" d="M792.1,469.33a4.48,4.48,0,0,1-2.3,3.38,9.27,9.27,0,0,1-4.89,1.17,7.14,7.14,0,0,1-5.7-2.2,6.41,6.41,0,0,1-.41-7.48l2-.43a6.72,6.72,0,0,0-1.08,3.67,4.21,4.21,0,0,0,1.39,3.35,5.49,5.49,0,0,0,3.81,1.23,7.11,7.11,0,0,0,3.4-.72,3,3,0,0,0,1.63-2h-2.39l1-1.94h3.62v1.94Z"/><path class="cls-4" d="M790.9,469.33v-1.94h4.22v1.94Z"/><path class="cls-4" d="M790.9,469.33v-1.94h4.22v1.94Z"/><path class="cls-4" d="M801.86,467.39h1.58v1.94h-1.82a4,4,0,0,1-3.19-1.32,4.24,4.24,0,0,1-3.31,1.32h-1.44v-1.94H795q2.49,0,2.49-2.61V455l2.08-1.1V464.8a2.94,2.94,0,0,0,.54,2A2.31,2.31,0,0,0,801.86,467.39Z"/><path class="cls-4" d="M814.92,467.39v1.94H802v-1.94h4.15a5.85,5.85,0,0,1-1.18-3.72,4.84,4.84,0,0,1,4.84-5.05,4.55,4.55,0,0,1,4,2v2a4.51,4.51,0,0,0-3.72-2.07,2.88,2.88,0,0,0-2.19.88,3.26,3.26,0,0,0-.83,2.34,3.44,3.44,0,0,0,3.65,3.64Z"/><path class="cls-4" d="M836.75,467.32a14.36,14.36,0,0,1,3.17-6,7.59,7.59,0,0,1,5.75-2.66,5.46,5.46,0,0,1,4.36,1.89,5.9,5.9,0,0,1,1.37,3.95v.63a3.92,3.92,0,0,1-4.17,4.24h-9.92a4.42,4.42,0,0,1-2.16-.5,5.26,5.26,0,0,1-2.14,3.81,6.59,6.59,0,0,1-4.09,1.24,5.8,5.8,0,0,1-4.85-2.2,6.45,6.45,0,0,1-1.31-4,5.87,5.87,0,0,1,1-3.45l2-.43a6.72,6.72,0,0,0-1.08,3.67,4.6,4.6,0,0,0,1.25,3.31,4,4,0,0,0,3,1.19,4.25,4.25,0,0,0,3.26-1.22,3.82,3.82,0,0,0,1-2.68v-6.4l2.07-1.11V465C835.2,466.33,835.71,467.11,836.75,467.32Zm12.59-2.42v-.44a4,4,0,0,0-1.15-3,3.47,3.47,0,0,0-2.5-1,6,6,0,0,0-4.6,2.33,12.19,12.19,0,0,0-2.37,4.53h8.39C848.59,467.39,849.34,466.56,849.34,464.9Z"/><path class="cls-4" d="M861.11,467.39h1.58v1.94h-1.82a4.36,4.36,0,0,1-2.11-.48,5.89,5.89,0,0,1-1.66,3.79,4.53,4.53,0,0,1-3.3,1.29,6,6,0,0,1-2.81-.72v-1.79a5.14,5.14,0,0,0,2.45.67,3,3,0,0,0,2.39-1,4.31,4.31,0,0,0,.87-2.86V460l2.06-1.1v0l0,0v6.54A2,2,0,0,0,861.11,467.39Z"/><path class="cls-4" d="M861.25,469.33v-1.94h4.22v1.94Z"/><path class="cls-4" d="M861.25,469.33v-1.94h4.22v1.94Z"/><path class="cls-4" d="M879.66,467.39h1.56v1.94h-1.59a9.13,9.13,0,0,1-3.11-.44,5.67,5.67,0,0,1-2.18-1.57,12.43,12.43,0,0,1-7.05,2H864v-1.94h3.28a9.74,9.74,0,0,0,7.7-3.21q-2-3.68-4.84-3.67a5.88,5.88,0,0,0-4,2.06v-1.92a6,6,0,0,1,4.27-2A5.76,5.76,0,0,1,874,460a11.51,11.51,0,0,1,3,3.8v1.05a11.15,11.15,0,0,1-1.42,1.51A6.24,6.24,0,0,0,879.66,467.39Z"/><path class="cls-4" d="M879.78,469.33v-1.94h1.58a2.1,2.1,0,0,0,2.35-2.4v-5l2.06-1.1v6.13a4.29,4.29,0,0,1-1.22,3.22,4.16,4.16,0,0,1-2.95,1.05Zm4.89-13.3a1.05,1.05,0,0,1-1.18-1.2,1.17,1.17,0,1,1,2.33,0C885.82,455.63,885.43,456,884.67,456Z"/><path class="cls-4" d="M896,468.56a6.09,6.09,0,0,1-2.23.36,4,4,0,0,1-3.35-1.6,6.37,6.37,0,0,1,.33-7.41,4.23,4.23,0,0,1,3.21-1.29,3.91,3.91,0,0,1,3.14,1.27,4.29,4.29,0,0,1,1,2.94v5.23a6.15,6.15,0,0,1-1.42,4.29,4.57,4.57,0,0,1-3.57,1.49,5.84,5.84,0,0,1-2.8-.7v-1.82a5.28,5.28,0,0,0,2.51.67,2.94,2.94,0,0,0,2.26-.9A3.89,3.89,0,0,0,896,468.56Zm0-5.63q0-2.4-2-2.4a2.25,2.25,0,0,0-1.88.89,3.91,3.91,0,0,0-.68,2.42,4,4,0,0,0,.66,2.41,2.09,2.09,0,0,0,1.78.9,2.38,2.38,0,0,0,2.16-.89Z"/><path class="cls-4" d="M908.13,466.53a1.23,1.23,0,0,1,1.37,1.36,1.57,1.57,0,0,1-.42,1.12,1.46,1.46,0,0,1-1.09.44c-1,0-1.49-.61-1.49-1.82v-3.09l1-.29,0,2.28Z"/><path class="cls-4" d="M922.56,467.39h1.58v1.94h-1.82a3.81,3.81,0,0,1-3.55-1.82,4,4,0,0,1-2.85,1.1,4,4,0,0,1-3.35-1.58,5.23,5.23,0,0,1-1-3.28A5.07,5.07,0,0,1,913,460a3.92,3.92,0,0,1,2.92-1.23,3.87,3.87,0,0,1,2.28.68v-1l2.09-1.1V465A2.09,2.09,0,0,0,922.56,467.39Zm-4.41-5.71a2.84,2.84,0,0,0-2.18-1,2.14,2.14,0,0,0-1.73.85,4,4,0,0,0,0,4.45,2.14,2.14,0,0,0,1.75.84,2.7,2.7,0,0,0,2.21-1.1c0-.29-.05-.52-.05-.68Zm-3.09-5.89a1.05,1.05,0,0,1-1.18-1.2,1,1,0,0,1,1.18-1.17,1,1,0,0,1,1.15,1.17C916.21,455.39,915.83,455.79,915.06,455.79Zm3,0a1,1,0,0,1-1.17-1.2,1.16,1.16,0,1,1,2.32,0C919.25,455.39,918.87,455.79,918.1,455.79Z"/><path class="cls-4" d="M931,467.39h1.59v1.94h-1.82a4.52,4.52,0,0,0-6.28,0H922.7v-1.94h1.59a2.1,2.1,0,0,0,2.34-2.4v-5l2.07-1.1V465A2.1,2.1,0,0,0,931,467.39Zm-5.72,4.34c.76,0,1.15.4,1.15,1.2a1.17,1.17,0,1,1-2.33,0A1.05,1.05,0,0,1,925.32,471.73Zm3,0c.77,0,1.15.4,1.15,1.2a1.16,1.16,0,1,1-2.32,0A1,1,0,0,1,928.36,471.73Z"/><path class="cls-4" d="M931.19,469.33v-1.94h1.58a2.1,2.1,0,0,0,2.35-2.4v-5l2.06-1.1v6.13a4.29,4.29,0,0,1-1.22,3.22,4.16,4.16,0,0,1-3,1.05Zm2-13.47.55-1h.65a1.85,1.85,0,0,1-.24-.91,1.65,1.65,0,0,1,.53-1.21,1.71,1.71,0,0,1,1.25-.52,2,2,0,0,1,1.15.39v1.05a1.71,1.71,0,0,0-1-.41c-.59,0-.89.27-.89.79a1.25,1.25,0,0,0,.34.82h2.18l-.55,1Z"/><path class="cls-4" d="M945.36,469.33a4,4,0,0,1-3.22-1.34,4.42,4.42,0,0,1-1-2.93V455l2.07-1.1V465a2.1,2.1,0,0,0,2.34,2.4h1.59v1.94Z"/><path class="cls-4" d="M961.17,467.39h1.61v1.94H961a4,4,0,0,1-3.14-1.27,4.08,4.08,0,0,1-3.57,1.75,4.54,4.54,0,0,0-6.69-.48h-1.82v-1.94h1.58a2.1,2.1,0,0,0,2.35-2.4v-.79a6.07,6.07,0,0,1,1.37-4.27,4.56,4.56,0,0,1,6.75.39,6.44,6.44,0,0,1,1.06,3.88V465A2.09,2.09,0,0,0,961.17,467.39Zm-6.92.48a2.14,2.14,0,0,0,1.85-1,4.67,4.67,0,0,0,.69-2.71q0-3.65-2.54-3.65t-2.52,3.65Q951.73,467.87,954.25,467.87Z"/><path class="cls-4" d="M969.68,467.39h1.59v1.94h-1.83a4.52,4.52,0,0,0-6.28,0h-1.82v-1.94h1.58a2.1,2.1,0,0,0,2.35-2.4v-5l2.06-1.1V465A2.1,2.1,0,0,0,969.68,467.39ZM965.9,456a1.05,1.05,0,0,1-1.18-1.2,1.17,1.17,0,1,1,2.33,0C967.05,455.63,966.66,456,965.9,456Z"/><path class="cls-4" d="M978.17,467.39h1.58v1.94h-1.82a4.52,4.52,0,0,0-6.28,0h-1.82v-1.94h1.58a2.1,2.1,0,0,0,2.35-2.4v-5l2.06-1.1V465A2.1,2.1,0,0,0,978.17,467.39Zm-5.73,4.34c.77,0,1.15.4,1.15,1.2a1,1,0,0,1-1.15,1.17,1,1,0,0,1-1.18-1.17A1.05,1.05,0,0,1,972.44,471.73Zm3,0c.77,0,1.15.4,1.15,1.2a1.16,1.16,0,1,1-2.32,0A1,1,0,0,1,975.48,471.73Z"/><path class="cls-4" d="M978.31,469.33v-1.94h4.22v1.94Z"/><path class="cls-4" d="M978.31,469.33v-1.94h4.22v1.94Z"/><path class="cls-4" d="M981.09,469.33v-1.94h2.16a2.09,2.09,0,0,0,2.33-2.4v-3.35l2.06-1.11V465a2.1,2.1,0,0,0,2.35,2.4h1.1a2.1,2.1,0,0,0,2.35-2.4v-4.17l2.06-1.08V465a2.09,2.09,0,0,0,2.32,2.4H999a2.1,2.1,0,0,0,2.35-2.4v-5l2.06-1.1v5.85q0,2.61,2.49,2.61h2v1.94h-2.15a3.91,3.91,0,0,1-3.29-1.46,3.6,3.6,0,0,1-3.14,1.46h-1.65a4.12,4.12,0,0,0-6.21,0h-1.65a3.69,3.69,0,0,1-3.14-1.41,3.64,3.64,0,0,1-3.14,1.41Z"/><path class="cls-4" d="M1006.4,469.33v-1.94h1.27c1.67,0,2.5-.87,2.5-2.61V455l2.08-1.1V464.8a4.51,4.51,0,0,1-1.27,3.38,4.32,4.32,0,0,1-3.14,1.15Z"/><path class="cls-4" d="M1016.57,469.33V455l2.06-1.1v15.46Z"/><path class="cls-4" d="M1031.9,469.33a3.78,3.78,0,0,1-3-1.29,4.4,4.4,0,0,1-1-3v-2.9l2.06-1.11v3.82c0,1.66.78,2.49,2.33,2.49h8c1.55,0,2.32-.83,2.32-2.49V460l2.06-1.1v6.16a4.11,4.11,0,0,1-1.27,3.23,4.15,4.15,0,0,1-2.9,1Zm2.43-11.15a1.19,1.19,0,0,1,0-2.37,1.19,1.19,0,0,1,0,2.37Zm3,0a1.19,1.19,0,0,1,0-2.37,1,1,0,0,1,1.15,1.18C1038.52,457.79,1038.14,458.18,1037.37,458.18Z"/><path class="cls-4" d="M1048.47,469.33V455l2.06-1.1v15.46Z"/><path class="cls-4" d="M1059.49,452.24l1.15-.65v2a1.47,1.47,0,0,1-.45,1.1,1.69,1.69,0,0,1-1.18.43,1.76,1.76,0,0,1-1.08-.34,1.86,1.86,0,0,1-2.26-.09,1.45,1.45,0,0,1-.47-1.1v-.75l1.18-.65v1.32a.42.42,0,0,0,.48.48c.32,0,.47-.13.47-.4v-1.06l1.18-.65v1.71c0,.27.17.4.5.4a.42.42,0,0,0,.48-.48Z"/><path class="cls-4" d="M1052.92,469.33l1-1.94h4.27a1.65,1.65,0,0,0,1.35-.48,2.59,2.59,0,0,0,.4-1.65,5.16,5.16,0,0,0-3-4.8l1-1.77a7.19,7.19,0,0,1,3.94,6.09,3,3,0,0,0,.63,2,2.5,2.5,0,0,0,1.88.61h1.42v1.94h-1.59a3.93,3.93,0,0,1-3.11-1.27,2.89,2.89,0,0,1-2.66,1.27Z"/><path class="cls-4" d="M1064.48,469.33v-1.94h4.22v1.94Z"/><path class="cls-4" d="M1064.48,469.33v-1.94h4.22v1.94Z"/><path class="cls-4" d="M1079.1,467.39h6.33v1.94h-6.52a6.91,6.91,0,0,0-5.16,0h-6.49v-1.94h6.66a19.08,19.08,0,0,1-3.55-4.15v-1.05a8.84,8.84,0,0,1,2.75-2.61,5.8,5.8,0,0,1,6.41,0,9.08,9.08,0,0,1,2.78,2.65v1a18.32,18.32,0,0,1-3.57,4.15Zm-6.81-4.65a13.15,13.15,0,0,0,4,4,13.43,13.43,0,0,0,4.05-4,5.29,5.29,0,0,0-4.07-2.2A5.06,5.06,0,0,0,1072.29,462.74Z"/><path class="cls-4" d="M1099.42,467.39H1101v1.94h-1.82a4,4,0,0,1-3.14-1.27,4.08,4.08,0,0,1-3.57,1.75,4.54,4.54,0,0,0-6.69-.48H1084v-1.94h1.58a2.1,2.1,0,0,0,2.35-2.4v-.79a6.12,6.12,0,0,1,1.37-4.27,4.57,4.57,0,0,1,6.76.39,6.51,6.51,0,0,1,1,3.88V465A2.09,2.09,0,0,0,1099.42,467.39Zm-6.92.48a2.17,2.17,0,0,0,1.86-1,4.74,4.74,0,0,0,.68-2.71q0-3.65-2.54-3.65t-2.52,3.65Q1090,467.87,1092.5,467.87Z"/><path class="cls-4" d="M1099.59,469.33v-1.94h1.27c1.66,0,2.5-.87,2.5-2.61V455l2.08-1.1V464.8a4.51,4.51,0,0,1-1.27,3.38,4.32,4.32,0,0,1-3.14,1.15Z"/><path class="cls-4" d="M1109.76,469.33V455l2.06-1.1v15.46Z"/><path class="cls-4" d="M1125.09,469.33a3.78,3.78,0,0,1-3-1.29,4.4,4.4,0,0,1-1-3v-2.9l2.06-1.11v3.82c0,1.66.78,2.49,2.33,2.49h8c1.55,0,2.33-.83,2.33-2.49V460l2.06-1.1v6.16a4.11,4.11,0,0,1-1.27,3.23,4.15,4.15,0,0,1-2.9,1Zm2.66-11.15a1.19,1.19,0,0,1,0-2.37,1,1,0,0,1,1.15,1.18C1128.9,457.79,1128.52,458.18,1127.75,458.18Zm1.51-2.85a1.12,1.12,0,1,1,0-2.23,1,1,0,0,1,1.08,1.11C1130.34,455,1130,455.33,1129.26,455.33Zm1.54,2.85a1.19,1.19,0,0,1,0-2.37,1.19,1.19,0,0,1,0,2.37Z"/><path class="cls-4" d="M1139.74,469.33l1-1.94H1145a1.69,1.69,0,0,0,1.36-.48,2.66,2.66,0,0,0,.39-1.65,5.16,5.16,0,0,0-3-4.8l1.06-1.77a7.16,7.16,0,0,1,3.93,6.09,3,3,0,0,0,.63,2,2.53,2.53,0,0,0,1.89.61h1.41v1.94h-1.58a3.94,3.94,0,0,1-3.12-1.27,2.88,2.88,0,0,1-2.66,1.27Z"/><path class="cls-4" d="M1151.29,469.33v-1.94h4.22v1.94Z"/><path class="cls-4" d="M1151.29,469.33v-1.94h4.22v1.94Z"/><path class="cls-4" d="M1154.07,469.33v-1.94h3.28a9.74,9.74,0,0,0,7.7-3.21q-2-3.68-4.84-3.67a5.88,5.88,0,0,0-4,2.06v-1.92a6,6,0,0,1,4.27-2A5.76,5.76,0,0,1,1164,460a11.51,11.51,0,0,1,3,3.8v1.05a11.67,11.67,0,0,1-9.76,4.53Z"/><path class="cls-4" d="M1169.17,453.54l.55-1h.65a1.77,1.77,0,0,1-.24-.88,1.7,1.7,0,0,1,.53-1.24,1.71,1.71,0,0,1,1.24-.51,2,2,0,0,1,1.15.38v1.06a1.61,1.61,0,0,0-1-.41c-.59,0-.89.26-.89.79a1.25,1.25,0,0,0,.34.81h2.18l-.55,1Zm1.27,15.79v-13.4l2.06-1.1v14.5Z"/><path class="cls-4" d="M1200.83,467.39h1.59v1.94h-1.83a3.9,3.9,0,0,1-3.11-1.25,4.09,4.09,0,0,1-3.14,1.25h-8.56a3.78,3.78,0,0,1-3-1.29,4.4,4.4,0,0,1-1-3v-2.9l2.06-1.11v3.82c0,1.66.77,2.49,2.32,2.49h8c1.54,0,2.3-.83,2.3-2.49V455l2.09-1.1V465A2.09,2.09,0,0,0,1200.83,467.39Zm-10.57-9.73c1.38.06,2.06.74,2.06,2a1.84,1.84,0,0,1-.49,1.34,1.76,1.76,0,0,1-1.3.5h-3.17l.55-1h2.52a.76.76,0,0,0,.86-.86c0-.71-.44-1.06-1.34-1.06a2.42,2.42,0,0,0-1.27.34v-1l2-2.23H1192Z"/><path class="cls-4" d="M1201,469.33v-1.94h4.22v1.94Z"/><path class="cls-4" d="M1201,469.33v-1.94h4.22v1.94Z"/><path class="cls-4" d="M1203.76,469.33v-1.94H1205q2.49,0,2.49-2.61V455l2.09-1.1V464.8a4.51,4.51,0,0,1-1.28,3.38,4.31,4.31,0,0,1-3.14,1.15Z"/><path class="cls-4" d="M1224.75,467.39h1.58v1.94h-1.82a4.38,4.38,0,0,1-2.11-.48,5.83,5.83,0,0,1-1.65,3.79,4.54,4.54,0,0,1-3.31,1.29,5.92,5.92,0,0,1-2.8-.72v-1.79a5.1,5.1,0,0,0,2.44.67,3,3,0,0,0,2.4-1,4.36,4.36,0,0,0,.86-2.86V460l2.06-1.1v0l0,0v6.54A2,2,0,0,0,1224.75,467.39Z"/><path class="cls-4" d="M1224.89,469.33v-1.94h4.22v1.94Z"/><path class="cls-4" d="M1224.89,469.33v-1.94h4.22v1.94Z"/><path class="cls-4" d="M1236.81,447.71l1.15-.65V449a1.45,1.45,0,0,1-.46,1.11,1.65,1.65,0,0,1-1.17.43,1.89,1.89,0,0,0-2.16,0,1.74,1.74,0,0,1-1.19-.43,1.45,1.45,0,0,1-.46-1.11v-.74l1.17-.65v1.32a.42.42,0,0,0,.48.48c.32,0,.48-.13.48-.41V448l1.17-.65V449c0,.28.17.41.51.41a.42.42,0,0,0,.48-.48Z"/><path class="cls-4" d="M1227.67,469.33v-1.94H1232a4.88,4.88,0,0,1-1.1-3.4,5.75,5.75,0,0,1,1.36-4.08,4.14,4.14,0,0,1,3.19-1.29,4,4,0,0,1,3.16,1.27,4.37,4.37,0,0,1,1,2.94v2.28a4.26,4.26,0,0,1-1.17,3.14,4.15,4.15,0,0,1-3,1.08Zm9.83-6.4c0-1.6-.69-2.4-2.06-2.4a2.19,2.19,0,0,0-1.85.9,4.18,4.18,0,0,0-.67,2.51,4.34,4.34,0,0,0,.65,2.51,2,2,0,0,0,1.73.94c1.47,0,2.2-.77,2.2-2.3Zm-2-6.76a1.05,1.05,0,0,1-1.18-1.2,1,1,0,0,1,1.18-1.17,1,1,0,0,1,1.15,1.17C1236.64,455.77,1236.26,456.17,1235.49,456.17Z"/><path class="cls-4" d="M1254.83,467.39v1.94h-3a4.42,4.42,0,0,1-1.77,3.4,5.09,5.09,0,0,1-3.21,1.11,5.85,5.85,0,0,1-2.81-.7v-1.82a5.35,5.35,0,0,0,2.52.67,3.33,3.33,0,0,0,2.21-.79,2.43,2.43,0,0,0,1-1.89c-.83,0-1.44-.07-1.84-.1a5.14,5.14,0,0,1-3.91-1.75,5.3,5.3,0,0,1-1.1-3.47,5.67,5.67,0,0,1,1.39-4.08,4.36,4.36,0,0,1,3.28-1.29,4.2,4.2,0,0,1,3.29,1.27,4.33,4.33,0,0,1,1,2.94v4.56Zm-5.06-4.41c0-1.63-.72-2.45-2.18-2.45a2.32,2.32,0,0,0-1.94.9,4,4,0,0,0-.69,2.51q0,3.13,3.07,3.33.57.08,1.74.12Z"/><path class="cls-4" d="M1253.39,469.33v-1.94H1255a2.1,2.1,0,0,0,2.34-2.4v-5l2.07-1.1v6.13a4.26,4.26,0,0,1-1.23,3.22,4.14,4.14,0,0,1-3,1.05Zm4.89-13.3a1,1,0,0,1-1.17-1.2,1.16,1.16,0,1,1,2.32,0C1259.43,455.63,1259.05,456,1258.28,456Z"/><path class="cls-4" d="M991.34,513.64v0a1.27,1.27,0,1,1,1.27,1.32A1.12,1.12,0,0,1,991.34,513.59Z"/><path class="cls-4" d="M1004,512.85h1.59v1.94h-1.83a4.34,4.34,0,0,1-2.1-.48,5.91,5.91,0,0,1-1.66,3.79,4.54,4.54,0,0,1-3.31,1.29,6,6,0,0,1-2.8-.72v-1.79a5.1,5.1,0,0,0,2.44.67,3,3,0,0,0,2.4-1,4.3,4.3,0,0,0,.86-2.86v-8.17l2.07-1.1v0l0,0v6.54A2,2,0,0,0,1004,512.85Z"/><path class="cls-4" d="M1004.19,514.79v-1.94h1.58a2.1,2.1,0,0,0,2.35-2.4v-5l2.06-1.1v6.13a4.29,4.29,0,0,1-1.22,3.22,4.16,4.16,0,0,1-3,1Zm1.27,4.77a1.05,1.05,0,0,1-1.18-1.2,1,1,0,0,1,1.18-1.17,1,1,0,0,1,1.15,1.17C1006.61,519.16,1006.23,519.56,1005.46,519.56Zm3,0a1,1,0,0,1-1.17-1.2,1.16,1.16,0,1,1,2.32,0C1009.65,519.16,1009.27,519.56,1008.5,519.56Z"/><path class="cls-4" d="M1025.69,512.85v1.94h-3a4.47,4.47,0,0,1-1.78,3.4,5,5,0,0,1-3.21,1.11,5.93,5.93,0,0,1-2.8-.7v-1.82a5.28,5.28,0,0,0,2.51.67,3.34,3.34,0,0,0,2.22-.79,2.49,2.49,0,0,0,1-1.89l-1.84-.1a5.17,5.17,0,0,1-3.91-1.75,5.26,5.26,0,0,1-1.1-3.48,5.64,5.64,0,0,1,1.39-4.07,4.35,4.35,0,0,1,3.28-1.29,4.18,4.18,0,0,1,3.28,1.27,4.29,4.29,0,0,1,1,2.94v4.56Zm-5.06-4.41c0-1.63-.73-2.45-2.18-2.45a2.31,2.31,0,0,0-1.94.9,4,4,0,0,0-.7,2.51q0,3.14,3.07,3.33c.38,0,1,.09,1.75.12Z"/><path class="cls-4" d="M1048.79,512.85h1.59v1.94h-1.83a4,4,0,0,1-3.13-1.25,4,4,0,0,1-3.15,1.25h-9.92a4.52,4.52,0,0,0-6.28,0h-1.82v-1.94h1.58a2.1,2.1,0,0,0,2.35-2.4V507.1l2.06-1.11v4.46c0,1.34.52,2.12,1.56,2.33a14.13,14.13,0,0,1,3.16-6,7.62,7.62,0,0,1,5.76-2.66,5.47,5.47,0,0,1,4.36,1.89,5.9,5.9,0,0,1,1.37,3.95v.58A2.07,2.07,0,0,0,1048.79,512.85Zm-6.63,0q2.22,0,2.22-2.49v-.44a3.92,3.92,0,0,0-1.15-3,3.47,3.47,0,0,0-2.49-1,6,6,0,0,0-4.58,2.35,12.2,12.2,0,0,0-2.39,4.51Z"/><path class="cls-4" d="M1057.28,512.85h1.58v1.94H1057a4.52,4.52,0,0,0-6.28,0h-1.82v-1.94h1.58a2.1,2.1,0,0,0,2.35-2.4v-5l2.06-1.1v6.06A2.1,2.1,0,0,0,1057.28,512.85Zm-5.66-11.2a1.19,1.19,0,0,1,0-2.37,1.19,1.19,0,0,1,0,2.37Zm3.07,0a1.19,1.19,0,0,1,0-2.37,1.19,1.19,0,0,1,0,2.37Z"/><path class="cls-4" d="M1057.42,514.79v-1.94h1.27c1.67,0,2.5-.87,2.5-2.61v-9.81l2.08-1.1v10.93a4.51,4.51,0,0,1-1.27,3.38,4.32,4.32,0,0,1-3.14,1.15Z"/><path class="cls-4" d="M1067.59,514.79V500.43l2.06-1.1v15.46Z"/><path class="cls-4" d="M1084.92,514.21a17.56,17.56,0,0,0-2.76,1.87,3.13,3.13,0,0,0-1,2.33,3.18,3.18,0,0,0,1,2.48,4,4,0,0,0,2.74,1,7.68,7.68,0,0,0,4.41-1.27v1.94a8.51,8.51,0,0,1-4.51,1.27,5.53,5.53,0,0,1-4.27-1.75,5.19,5.19,0,0,1-1.39-3.67,4.43,4.43,0,0,1,.87-2.77,10.08,10.08,0,0,1,3-2.38,18,18,0,0,1-4-4.51v-1.05a9.16,9.16,0,0,1,2.76-2.63,6.22,6.22,0,0,1,3.21-.94,6.13,6.13,0,0,1,3.21,1,8.8,8.8,0,0,1,2.76,2.65v1a19,19,0,0,1-4,4.1c.35,0,.63.05.84.05h6.33l0,1.94h-6.52A6.79,6.79,0,0,1,1084.92,514.21Zm-3.89-6a13.45,13.45,0,0,0,3.93,3.91,18.56,18.56,0,0,0,4.17-4,5.24,5.24,0,0,0-4.05-2.18A5.08,5.08,0,0,0,1081,508.2Z"/><path class="cls-4" d="M1092.75,514.79v-1.94h4.32a4.89,4.89,0,0,1-1.1-3.41,5.72,5.72,0,0,1,1.36-4.07,4.14,4.14,0,0,1,3.19-1.29,4,4,0,0,1,3.16,1.27,4.37,4.37,0,0,1,1,2.94v2.28a4.28,4.28,0,0,1-1.17,3.14,4.15,4.15,0,0,1-3,1.08Zm6.26-13.14a1.19,1.19,0,0,1,0-2.37,1.19,1.19,0,0,1,0,2.37Zm3.57,6.74c0-1.6-.69-2.4-2.06-2.4a2.19,2.19,0,0,0-1.85.9,4.18,4.18,0,0,0-.67,2.51,4.34,4.34,0,0,0,.65,2.51,2,2,0,0,0,1.73.94c1.47,0,2.2-.77,2.2-2.3Zm-.53-6.74a1.19,1.19,0,0,1,0-2.37,1.19,1.19,0,0,1,0,2.37Z"/><path class="cls-4" d="M1119.91,512.85v1.94h-3a4.49,4.49,0,0,1-1.77,3.4,5.1,5.1,0,0,1-3.22,1.11,6,6,0,0,1-2.8-.7v-1.82a5.32,5.32,0,0,0,2.52.67,3.33,3.33,0,0,0,2.21-.79,2.46,2.46,0,0,0,1-1.89l-1.84-.1a5.17,5.17,0,0,1-3.91-1.75,5.31,5.31,0,0,1-1.1-3.48,5.64,5.64,0,0,1,1.39-4.07,4.35,4.35,0,0,1,3.28-1.29,4.21,4.21,0,0,1,3.29,1.27,4.33,4.33,0,0,1,1,2.94v4.56Zm-5.06-4.41c0-1.63-.72-2.45-2.18-2.45a2.31,2.31,0,0,0-1.94.9,4,4,0,0,0-.69,2.51q0,3.14,3.06,3.33c.39,0,1,.09,1.75.12Z"/><path class="cls-4" d="M1122.4,508.29a4.18,4.18,0,0,1,1.25-3.23,4.12,4.12,0,0,1,2.88-1,4.08,4.08,0,0,1,3.5,1.67,6.06,6.06,0,0,1,1,3.69,5.81,5.81,0,0,1-1.34,4.06,4,4,0,0,1-3.07,1.29,4.28,4.28,0,0,1-3.28-1.2,4.1,4.1,0,0,1-3.1,1.2h-1.82v-1.94h1.58a2.1,2.1,0,0,0,2.35-2.4Zm2.06,2.33a2,2,0,0,0,2.19,2.23,2.05,2.05,0,0,0,1.76-.91,4.44,4.44,0,0,0,.63-2.54,4.11,4.11,0,0,0-.67-2.51,2.17,2.17,0,0,0-1.84-.9q-2.07,0-2.07,2.4Z"/><path class="cls-4" d="M1155.38,512.85H1157v1.94h-1.83a4.62,4.62,0,0,1-2.32-.58,5.59,5.59,0,0,1-2.23,3.89,6.77,6.77,0,0,1-4.15,1.24,6,6,0,0,1-5-2.15,6.26,6.26,0,0,1-1.34-4,6.05,6.05,0,0,1,1-3.47l2.06-.46a6.77,6.77,0,0,0-1.1,3.72,4.42,4.42,0,0,0,1.27,3.26,4.19,4.19,0,0,0,3.09,1.17,4.3,4.3,0,0,0,3.36-1.29,4.05,4.05,0,0,0,1-2.83V500.43l2.08-1.1v11.12Q1152.89,512.85,1155.38,512.85Z"/><path class="cls-4" d="M1180.07,512.85h1.58v1.94h-1.82a4.57,4.57,0,0,0-6.28,0h-9.92a4.52,4.52,0,0,0-6.28,0h-1.82v-1.94h1.58a2.1,2.1,0,0,0,2.35-2.4V507.1l2.06-1.11v4.46c0,1.34.52,2.12,1.56,2.33a14.13,14.13,0,0,1,3.16-6,7.62,7.62,0,0,1,5.76-2.66,5.47,5.47,0,0,1,4.36,1.89,5.89,5.89,0,0,1,1.36,3.95v.58A2.08,2.08,0,0,0,1180.07,512.85Zm-6.64,0c1.49,0,2.23-.83,2.23-2.49v-.44a3.92,3.92,0,0,0-1.15-3,3.47,3.47,0,0,0-2.49-1,6,6,0,0,0-4.58,2.35,12.36,12.36,0,0,0-2.4,4.51Z"/><path class="cls-4" d="M1180.22,514.79v-1.94h1.58a2.1,2.1,0,0,0,2.35-2.4v-5l2.06-1.1v6.13a4.29,4.29,0,0,1-1.22,3.22,4.16,4.16,0,0,1-3,1Zm1.84-13.3a1.19,1.19,0,0,1,0-2.38,1,1,0,0,1,1.15,1.18C1183.21,501.09,1182.83,501.49,1182.06,501.49Zm3,0a1.19,1.19,0,0,1,0-2.38,1,1,0,0,1,1.15,1.18C1186.26,501.09,1185.87,501.49,1185.11,501.49Z"/><path class="cls-4" d="M1208.07,513.5a5.46,5.46,0,0,1-1.92,4.38,6.42,6.42,0,0,1-4.36,1.46,5.79,5.79,0,0,1-4.84-2.2,6.4,6.4,0,0,1-1.32-4,5.87,5.87,0,0,1,1-3.45l2-.43a6.79,6.79,0,0,0-1.07,3.67,4.55,4.55,0,0,0,1.24,3.3,4,4,0,0,0,3,1.2,4.25,4.25,0,0,0,3.26-1.22,3.78,3.78,0,0,0,1-2.68v-8l2.06-1.1Zm-6.28-9.33a1.05,1.05,0,0,1-1.18-1.2,1,1,0,0,1,1.18-1.17,1,1,0,0,1,1.15,1.17C1202.94,503.77,1202.56,504.17,1201.79,504.17Z"/><path class="cls-4" d="M1211.11,499l.55-1h.65a1.77,1.77,0,0,1-.24-.88,1.7,1.7,0,0,1,.53-1.24,1.73,1.73,0,0,1,1.24-.51,2.06,2.06,0,0,1,1.16.38v1.05a1.69,1.69,0,0,0-1-.4c-.59,0-.89.26-.89.79a1.25,1.25,0,0,0,.34.81h2.18l-.55,1Zm1.27,15.8v-13.4l2.06-1.1v14.5Z"/><path class="cls-4" d="M1239.11,512.85h1.58v1.94h-1.82a4.63,4.63,0,0,1-2.33-.58,5.56,5.56,0,0,1-2.23,3.89,6.74,6.74,0,0,1-4.14,1.24,6,6,0,0,1-5-2.15,6.21,6.21,0,0,1-1.35-4,6,6,0,0,1,1-3.47l2.06-.46a6.7,6.7,0,0,0-1.11,3.72,4.42,4.42,0,0,0,1.28,3.26,4.18,4.18,0,0,0,3.09,1.17,4.3,4.3,0,0,0,3.35-1.29,4.05,4.05,0,0,0,1-2.83V500.43l2.09-1.1v11.12Q1236.62,512.85,1239.11,512.85Z"/><path class="cls-4" d="M1247.59,512.85h1.58v1.94h-1.82a4.52,4.52,0,0,0-6.28,0h-1.82v-1.94h1.58a2.1,2.1,0,0,0,2.35-2.4v-5l2.06-1.1v6.06A2.1,2.1,0,0,0,1247.59,512.85Zm-3.52,4.34a1,1,0,0,1,1.15,1.17c0,.8-.38,1.2-1.15,1.2a1.05,1.05,0,0,1-1.18-1.2A1,1,0,0,1,1244.07,517.19Z"/><path class="cls-4" d="M1247.74,514.79v-1.94h4.31a4.94,4.94,0,0,1-1.1-3.41,5.68,5.68,0,0,1,1.37-4.07,4.12,4.12,0,0,1,3.18-1.29,4,4,0,0,1,3.17,1.27,4.37,4.37,0,0,1,1,2.94v2.28a4.33,4.33,0,0,1-1.18,3.14,4.14,4.14,0,0,1-3,1.08Zm6.25-13.14a1.19,1.19,0,0,1,0-2.37,1.19,1.19,0,0,1,0,2.37Zm3.57,6.74c0-1.6-.68-2.4-2.06-2.4a2.16,2.16,0,0,0-1.84.9,4.11,4.11,0,0,0-.67,2.51,4.34,4.34,0,0,0,.64,2.51,2,2,0,0,0,1.73.94c1.47,0,2.2-.77,2.2-2.3Zm-.52-6.74a1.19,1.19,0,0,1,0-2.37,1.19,1.19,0,0,1,0,2.37Z"/><path class="cls-3" d="M1172.07,584.25a4.78,4.78,0,0,1-2.74,3.53,11,11,0,0,1-5,1c-2.79,0-4.89-.79-6.28-2.37a6.38,6.38,0,0,1-1.55-4.32,6.13,6.13,0,0,1,.79-3.14l3.74-.79a6.84,6.84,0,0,0-.82,3.24c0,2.52,1.38,3.78,4.12,3.78q2.81,0,3.6-1h-2.21l2-3.83h4.44v3.83Zm-9.81,10a1.91,1.91,0,0,1-1.43-.56,2,2,0,0,1-.56-1.45,1.91,1.91,0,0,1,.56-1.43,2,2,0,0,1,3.4,1.43,2,2,0,0,1-.54,1.46A1.91,1.91,0,0,1,1162.26,594.2Zm4.32,0a2,2,0,0,1-1.44-.56,2,2,0,0,1-.55-1.45,1.91,1.91,0,0,1,.55-1.43,2,2,0,0,1,1.44-.54,1.91,1.91,0,0,1,1.42.54,1.94,1.94,0,0,1,.54,1.43,2,2,0,0,1-.54,1.46A1.88,1.88,0,0,1,1166.58,594.2Z"/><path class="cls-3" d="M1177.41,560.76l2.21-1.22v3a2,2,0,0,1-.7,1.57,2.6,2.6,0,0,1-1.8.61,2.78,2.78,0,0,1-1.39-.33,3.17,3.17,0,0,1-1.44.33,2.55,2.55,0,0,1-1.76-.61,2,2,0,0,1-.68-1.57v-1.32l2.2-1.22v2.37c0,.16.1.24.29.24s.29-.08.29-.24V561l2.2-1.22v2.61c0,.16.1.24.29.24s.29-.08.29-.24Z"/><path class="cls-3" d="M1179.71,580.42h2.23v3.83h-2.59a4.92,4.92,0,0,1-2.66-.71,5.11,5.11,0,0,1-2.68.71h-2.59v-3.83h2.23a1.19,1.19,0,0,0,.84-.22,1.22,1.22,0,0,0,.21-.84v-3.93l4-2.08v6a1.22,1.22,0,0,0,.21.84A1.19,1.19,0,0,0,1179.71,580.42Zm-3.91-9a1.91,1.91,0,0,1-1.43-.56,2,2,0,0,1-.55-1.45,1.91,1.91,0,0,1,.55-1.43,2,2,0,0,1,3.4,1.43,2,2,0,0,1-.54,1.46A1.89,1.89,0,0,1,1175.8,571.43Z"/><path class="cls-3" d="M1181.46,584.25v-3.83h2.9a5.29,5.29,0,0,1-.33-1.87,5.93,5.93,0,0,1,1.51-4.27,4.63,4.63,0,0,1,3.52-1.41,4.42,4.42,0,0,1,3.5,1.44,4.58,4.58,0,0,1,1.1,3.19v2.06a4.7,4.7,0,0,1-1.24,3.4,4.54,4.54,0,0,1-3.41,1.29Zm7.55-12.36a1.92,1.92,0,0,1-1.44-.57,2,2,0,0,1-.55-1.45,1.92,1.92,0,0,1,.55-1.42,2,2,0,0,1,1.44-.54,1.94,1.94,0,0,1,1.43.54,1.91,1.91,0,0,1,.54,1.42,2,2,0,0,1-.54,1.46A1.91,1.91,0,0,1,1189,571.89Zm.7,5.46c0-.51-.22-.77-.65-.77-.77,0-1.15.61-1.15,1.83s.38,2,1.15,2c.43,0,.65-.26.65-.77Z"/><path class="cls-3" d="M1216.53,580.42h2.23v3.83h-2.59a5.1,5.1,0,0,1-2.47-.59,6.76,6.76,0,0,1-3,.59h-3.55a1.25,1.25,0,0,0-.84.22,1.22,1.22,0,0,0-.21.84v4.41l-4,2.08v-6.68a4.64,4.64,0,0,1,1.23-3.36,4.2,4.2,0,0,1,2.73-1.29,7.21,7.21,0,0,1-.24-1.92,5.93,5.93,0,0,1,1.51-4.27,4.63,4.63,0,0,1,3.52-1.41,4.42,4.42,0,0,1,3.5,1.44,4.53,4.53,0,0,1,1.1,3.19v1.86a1.21,1.21,0,0,0,.22.84A1.16,1.16,0,0,0,1216.53,580.42Zm-5-.5v-2.57c0-.51-.22-.77-.65-.77-.77,0-1.15.61-1.15,1.83s.39,2,1.18,2C1211.31,580.42,1211.52,580.25,1211.52,579.92Z"/><path class="cls-3" d="M1218.28,584.25v-3.83h2.9a5.09,5.09,0,0,1-.34-1.87,6,6,0,0,1,1.51-4.27,4.65,4.65,0,0,1,3.53-1.41,4.44,4.44,0,0,1,3.5,1.44,4.58,4.58,0,0,1,1.1,3.19v2.06a4.7,4.7,0,0,1-1.25,3.4,4.5,4.5,0,0,1-3.4,1.29Zm5.46-12.34a2,2,0,0,1-1.44-.56,2,2,0,0,1-.55-1.45,1.94,1.94,0,0,1,.55-1.43,2,2,0,0,1,1.44-.54,1.86,1.86,0,0,1,2,2,2,2,0,0,1-.54,1.46A1.91,1.91,0,0,1,1223.74,571.91Zm2.78,5.44c0-.51-.21-.77-.64-.77-.77,0-1.15.61-1.15,1.83s.38,2,1.15,2c.43,0,.64-.26.64-.77Zm1.54-5.44a2,2,0,0,1-1.44-.56,2,2,0,0,1-.55-1.45,1.91,1.91,0,0,1,.55-1.43,2,2,0,0,1,1.44-.54,1.91,1.91,0,0,1,1.42.54,1.94,1.94,0,0,1,.54,1.43,2,2,0,0,1-.54,1.46A1.88,1.88,0,0,1,1228.06,571.91Z"/><path class="cls-3" d="M1239.2,584.25a4.48,4.48,0,0,1-3.52-1.43,4.75,4.75,0,0,1-1.13-3.26v-8.68l4-2.09v10.57a1.22,1.22,0,0,0,.21.84,1.19,1.19,0,0,0,.84.22h2.23v3.83Z"/><path class="cls-3" d="M1241.31,584.25v-3.83H1245V570.9l4-2.11v5.85a7.88,7.88,0,0,1,5-1.77,5.86,5.86,0,0,1,4.69,2,6.15,6.15,0,0,1,1.51,4.21v.44a4.55,4.55,0,0,1-1.43,3.57,4.64,4.64,0,0,1-3.22,1.12Zm7.65-3.83h6.37c.39,0,.62,0,.7-.16a1.9,1.9,0,0,0,.12-.9v-.24a2.67,2.67,0,0,0-.61-1.84,2.07,2.07,0,0,0-1.62-.7,4.52,4.52,0,0,0-2.77,1A7.73,7.73,0,0,0,1249,580.42Z"/><path class="cls-4" d="M524.16,627.77h1.58v1.94h-1.82a3.77,3.77,0,0,1-3.54-1.82,4,4,0,0,1-2.86,1.1,4,4,0,0,1-3.35-1.58,5.2,5.2,0,0,1-1-3.28,5.06,5.06,0,0,1,1.41-3.74,3.91,3.91,0,0,1,2.92-1.22,3.86,3.86,0,0,1,2.28.67v-1l2.09-1.1v7.67A2.08,2.08,0,0,0,524.16,627.77Zm-4.41-5.7a2.82,2.82,0,0,0-2.18-1,2.12,2.12,0,0,0-1.73.86,4,4,0,0,0,0,4.44,2.15,2.15,0,0,0,1.75.84,2.7,2.7,0,0,0,2.21-1.1c0-.29,0-.51,0-.67Zm-3.09-5.9a1,1,0,0,1-1.17-1.2,1.16,1.16,0,1,1,2.32,0C517.81,615.77,517.43,616.17,516.66,616.17Zm3,0a1,1,0,0,1-1.17-1.2,1.16,1.16,0,1,1,2.32,0C520.85,615.77,520.47,616.17,519.7,616.17Z"/><path class="cls-4" d="M524.31,629.71v-1.94h4.21v1.94Z"/><path class="cls-4" d="M524.65,629.71v-1.94h4.22v1.94Z"/><path class="cls-4" d="M535.61,627.77h1.58v1.94h-1.82a4,4,0,0,1-3.19-1.31,4.27,4.27,0,0,1-3.31,1.31h-1.44v-1.94h1.28q2.49,0,2.49-2.61v-9.8l2.08-1.11v10.93a2.94,2.94,0,0,0,.54,2A2.31,2.31,0,0,0,535.61,627.77Z"/><path class="cls-4" d="M535.75,629.71v-1.94h1.58a2.09,2.09,0,0,0,2.35-2.39v-5l2.06-1.1v6.14a4.21,4.21,0,0,1-1.22,3.21,4.14,4.14,0,0,1-2.95,1.05Zm1.27,4.77a1.19,1.19,0,0,1,0-2.37,1.19,1.19,0,0,1,0,2.37Zm3.05,0a1.19,1.19,0,0,1,0-2.37,1.19,1.19,0,0,1,0,2.37Z"/><path class="cls-4" d="M557.25,627.77v1.94h-3a4.48,4.48,0,0,1-1.77,3.41,5.15,5.15,0,0,1-3.22,1.1,5.84,5.84,0,0,1-2.8-.7V631.7a5.35,5.35,0,0,0,2.52.67,3.33,3.33,0,0,0,2.21-.79,2.41,2.41,0,0,0,1-1.89c-.83,0-1.44-.06-1.84-.1a5.11,5.11,0,0,1-3.91-1.75,5.3,5.3,0,0,1-1.1-3.47,5.69,5.69,0,0,1,1.39-4.08A4.36,4.36,0,0,1,550,619a4.2,4.2,0,0,1,3.29,1.27,4.34,4.34,0,0,1,1,3v4.55Zm-5.06-4.41c0-1.63-.72-2.44-2.18-2.44a2.32,2.32,0,0,0-1.94.9,4,4,0,0,0-.69,2.5q0,3.13,3.07,3.33.57.08,1.74.12Z"/><path class="cls-4" d="M562.41,623q2.73-4,6.78-4a5.44,5.44,0,0,1,4.34,1.89,5.87,5.87,0,0,1,1.39,4v.77a4.37,4.37,0,0,1-1,3,3.48,3.48,0,0,1-2.73,1.06H555.81v-1.94h4.46l.07-.26V615.36l2.07-1.11Zm10.42,2.49v-.67a3.89,3.89,0,0,0-1.15-3,3.39,3.39,0,0,0-2.47-1,5.89,5.89,0,0,0-4.46,2.23,12,12,0,0,0-2.34,4.19v.43h8.65a1.69,1.69,0,0,0,1.4-.48A3,3,0,0,0,572.83,625.52Z"/><path class="cls-4" d="M588.39,629.71a4.19,4.19,0,0,1-3.41-1.46,4.9,4.9,0,0,1-1.05-3.23,6,6,0,0,1,1.19-3.71,6.91,6.91,0,0,1,3.39-2.31,6.78,6.78,0,0,1,3.5,2.49,6,6,0,0,1,1,3.53,4.77,4.77,0,0,1-1.34,3.57,4.33,4.33,0,0,1-3.09,1.12Zm-1.56-13.54a1,1,0,0,1-1.17-1.2,1.16,1.16,0,1,1,2.32,0C588,615.77,587.6,616.17,586.83,616.17Zm1.49,11.6h.36a2.15,2.15,0,0,0,1.71-.74,3,3,0,0,0,.63-2,2.82,2.82,0,1,0-5,0,3.07,3.07,0,0,0,.62,2A2.14,2.14,0,0,0,588.32,627.77Zm1.58-11.6a1.05,1.05,0,0,1-1.18-1.2,1,1,0,0,1,1.18-1.17,1,1,0,0,1,1.15,1.17C591.05,615.77,590.67,616.17,589.9,616.17Z"/><path class="cls-4" d="M602.7,627.77h1.58v1.94h-1.82a4.36,4.36,0,0,1-2.11-.48A5.86,5.86,0,0,1,598.7,633a4.56,4.56,0,0,1-3.31,1.3,6,6,0,0,1-2.81-.72v-1.8a5,5,0,0,0,2.45.67,2.93,2.93,0,0,0,2.39-1,4.29,4.29,0,0,0,.87-2.85v-8.18l2.06-1.1v0l0,0v6.54A2,2,0,0,0,602.7,627.77Z"/><path class="cls-4" d="M602.84,629.71v-1.94h4.22v1.94Z"/><path class="cls-4" d="M603.19,629.71v-1.94h4.22v1.94Z"/><path class="cls-4" d="M614.31,627.77h1.58v1.94h-1.82a4.52,4.52,0,0,0-6.28,0H606v-1.94h1.58a2.09,2.09,0,0,0,2.35-2.39v-5l2.06-1.1v6.07A2.1,2.1,0,0,0,614.31,627.77Zm-3.52,4.34a1.19,1.19,0,0,1,0,2.37,1.19,1.19,0,0,1,0-2.37Z"/><path class="cls-4" d="M614.46,629.71v-1.94h3.28a9.72,9.72,0,0,0,7.69-3.21c-1.32-2.44-2.94-3.67-4.84-3.67a5.86,5.86,0,0,0-4,2.06V621a6,6,0,0,1,4.26-2,5.79,5.79,0,0,1,3.58,1.33,11.59,11.59,0,0,1,3,3.8v1a11.67,11.67,0,0,1-9.76,4.53Zm7.26-13.3a1.05,1.05,0,0,1-1.18-1.2,1.17,1.17,0,1,1,2.33,0C622.87,616,622.48,616.41,621.72,616.41Z"/><path class="cls-4" d="M655.47,627.77h1.58v1.94h-1.82a3.93,3.93,0,0,1-3.12-1.24,4.11,4.11,0,0,1-3.14,1.24h-8.56a3.78,3.78,0,0,1-3-1.29,4.38,4.38,0,0,1-1-2.95v-2.9l2.06-1.1v3.81c0,1.66.78,2.49,2.33,2.49h8q2.31,0,2.31-2.49v-9.92l2.08-1.11v11.13A2.09,2.09,0,0,0,655.47,627.77ZM644.9,618c1.37.06,2.06.74,2.06,2a1.87,1.87,0,0,1-.49,1.34,1.74,1.74,0,0,1-1.31.5H642l.55-1h2.51a.76.76,0,0,0,.87-.86q0-1-1.35-1a2.53,2.53,0,0,0-1.27.33v-1l2-2.23h1.27Z"/><path class="cls-4" d="M655.61,629.71v-1.94h4.22v1.94Z"/><path class="cls-4" d="M656,629.71v-1.94h4.22v1.94Z"/><path class="cls-4" d="M666.91,627.77h1.58v1.94h-1.82a4,4,0,0,1-3.18-1.31,4.29,4.29,0,0,1-3.31,1.31h-1.44v-1.94H660q2.49,0,2.49-2.61v-9.8l2.09-1.11v10.93a2.94,2.94,0,0,0,.54,2A2.29,2.29,0,0,0,666.91,627.77Z"/><path class="cls-4" d="M682.49,627.77h1.61v1.94h-1.82a4,4,0,0,1-3.14-1.27,4.09,4.09,0,0,1-3.58,1.75,4.54,4.54,0,0,0-6.68-.48h-1.82v-1.94h1.58a2.1,2.1,0,0,0,2.35-2.39v-.8a6.07,6.07,0,0,1,1.36-4.26,4.56,4.56,0,0,1,6.76.38,6.53,6.53,0,0,1,1.06,3.88v.8A2.08,2.08,0,0,0,682.49,627.77Zm-6.93.48a2.15,2.15,0,0,0,1.86-1,4.67,4.67,0,0,0,.69-2.71q0-3.64-2.55-3.64t-2.51,3.64Q673.05,628.25,675.56,628.25Z"/><path class="cls-4" d="M682.66,629.71v-1.94h1.58a2.09,2.09,0,0,0,2.35-2.39v-5l2.06-1.1v6.14a4.21,4.21,0,0,1-1.22,3.21,4.14,4.14,0,0,1-2.95,1.05Zm1.27,4.77a1.19,1.19,0,0,1,0-2.37,1.19,1.19,0,0,1,0,2.37Zm3,0a1.19,1.19,0,0,1,0-2.37,1.19,1.19,0,0,1,0,2.37Z"/><path class="cls-4" d="M698.86,629a6.09,6.09,0,0,1-2.23.36,4,4,0,0,1-3.35-1.61,6.37,6.37,0,0,1,.33-7.41,4.24,4.24,0,0,1,3.22-1.29,3.91,3.91,0,0,1,3.13,1.27,4.3,4.3,0,0,1,1,3v5.22a6.15,6.15,0,0,1-1.42,4.29,4.57,4.57,0,0,1-3.57,1.49,5.84,5.84,0,0,1-2.8-.7V631.7a5.28,5.28,0,0,0,2.51.67,3,3,0,0,0,2.26-.89A3.91,3.91,0,0,0,698.86,629Zm0-5.64c0-1.59-.68-2.39-2-2.39a2.26,2.26,0,0,0-1.89.88,3.93,3.93,0,0,0-.68,2.42,4,4,0,0,0,.66,2.41,2.1,2.1,0,0,0,1.79.9,2.37,2.37,0,0,0,2.15-.88Z"/><path class="cls-4" d="M711.64,626.91a1.23,1.23,0,0,1,1.36,1.37,1.57,1.57,0,0,1-.42,1.11,1.41,1.41,0,0,1-1.09.44c-1,0-1.48-.6-1.48-1.82v-3.09l1-.29,0,2.28Z"/><path class="cls-4" d="M720.65,629.71a3.94,3.94,0,0,1-3.21-1.34,4.41,4.41,0,0,1-1-2.92V615.36l2.06-1.11v11.13a2.09,2.09,0,0,0,2.35,2.39h1.58v1.94Z"/><path class="cls-4" d="M736.47,627.77h1.61v1.94h-1.83a4.52,4.52,0,0,0-6.71.48,4.54,4.54,0,0,0-6.68-.48H721v-1.94h1.59a2.09,2.09,0,0,0,2.34-2.39v-.8a6.08,6.08,0,0,1,1.37-4.26,4.56,4.56,0,0,1,6.76.38,6.53,6.53,0,0,1,1.06,3.88v.8A2.08,2.08,0,0,0,736.47,627.77Zm-6.93.48a2.15,2.15,0,0,0,1.86-1,4.67,4.67,0,0,0,.68-2.71c0-2.43-.84-3.64-2.54-3.64s-2.51,1.21-2.51,3.64S727.87,628.25,729.54,628.25Z"/><path class="cls-4" d="M745,627.77h1.58v1.94h-1.82a4.52,4.52,0,0,0-6.28,0h-1.82v-1.94h1.58a2.09,2.09,0,0,0,2.35-2.39v-5l2.06-1.1v6.07A2.09,2.09,0,0,0,745,627.77Zm-3.79-11.36a1,1,0,0,1-1.17-1.2,1.16,1.16,0,1,1,2.32,0C742.34,616,742,616.41,741.19,616.41Z"/><path class="cls-4" d="M753.46,627.77h1.59v1.94h-1.83a4.52,4.52,0,0,0-6.28,0h-1.82v-1.94h1.59a2.09,2.09,0,0,0,2.34-2.39v-5l2.07-1.1v6.07A2.09,2.09,0,0,0,753.46,627.77Zm-5.72,4.34c.76,0,1.15.4,1.15,1.2a1.17,1.17,0,1,1-2.33,0A1.05,1.05,0,0,1,747.74,632.11Zm3,0c.77,0,1.15.4,1.15,1.2a1.16,1.16,0,1,1-2.32,0A1,1,0,0,1,750.78,632.11Z"/><path class="cls-4" d="M753.61,629.71v-1.94h4.22v1.94Z"/><path class="cls-4" d="M754,629.71v-1.94h4.21v1.94Z"/><path class="cls-4" d="M756.74,629.71v-1.94h2.15a2.09,2.09,0,0,0,2.33-2.39V622l2.06-1.1v4.46a2.09,2.09,0,0,0,2.35,2.39h1.1a2.09,2.09,0,0,0,2.35-2.39V621.2l2.06-1.07v5.25a2.09,2.09,0,0,0,2.33,2.39h1.12a2.09,2.09,0,0,0,2.35-2.39v-5l2.06-1.1v5.85c0,1.74.83,2.61,2.5,2.61h2v1.94h-2.16a3.9,3.9,0,0,1-3.29-1.46,3.59,3.59,0,0,1-3.13,1.46h-1.66a4.12,4.12,0,0,0-6.21,0h-1.65a3.71,3.71,0,0,1-3.14-1.41,3.64,3.64,0,0,1-3.14,1.41Z"/><path class="cls-4" d="M782.05,629.71v-1.94h1.27q2.49,0,2.49-2.61v-9.8l2.09-1.11v10.93a4.53,4.53,0,0,1-1.27,3.38,4.34,4.34,0,0,1-3.14,1.15Z"/><path class="cls-4" d="M792.21,629.71V615.36l2.06-1.11v15.46Z"/><path class="cls-4" d="M804.48,629a6.06,6.06,0,0,1-2.23.36,4,4,0,0,1-3.35-1.61,6.37,6.37,0,0,1,.33-7.41,4.24,4.24,0,0,1,3.22-1.29,3.91,3.91,0,0,1,3.13,1.27,4.3,4.3,0,0,1,1,3v5.22a6.15,6.15,0,0,1-1.42,4.29,4.57,4.57,0,0,1-3.57,1.49,5.84,5.84,0,0,1-2.8-.7V631.7a5.28,5.28,0,0,0,2.51.67,3,3,0,0,0,2.26-.89A3.91,3.91,0,0,0,804.48,629Zm0-5.64c0-1.59-.68-2.39-2-2.39a2.26,2.26,0,0,0-1.89.88,3.93,3.93,0,0,0-.68,2.42,4,4,0,0,0,.66,2.41,2.1,2.1,0,0,0,1.79.9,2.37,2.37,0,0,0,2.15-.88Z"/><path class="cls-4" d="M820.23,629.71a3.78,3.78,0,0,1-3-1.29,4.38,4.38,0,0,1-1-2.95v-2.9l2.06-1.1v3.81c0,1.66.77,2.49,2.32,2.49h8c1.55,0,2.33-.83,2.33-2.49v-4.87l2.06-1.1v6.16a3.91,3.91,0,0,1-4.17,4.24Zm2.42-11.14a1,1,0,0,1-1.17-1.2,1.16,1.16,0,1,1,2.32,0C823.8,618.17,823.42,618.57,822.65,618.57Zm3.05,0a1.05,1.05,0,0,1-1.18-1.2,1.17,1.17,0,1,1,2.33,0C826.85,618.17,826.46,618.57,825.7,618.57Z"/><path class="cls-4" d="M841,629.71a3.94,3.94,0,0,1-3.21-1.34,4.41,4.41,0,0,1-1-2.92V615.36l2.06-1.11v11.13a2.1,2.1,0,0,0,2.35,2.39h1.59v1.94Z"/><path class="cls-4" d="M841.35,629.71v-1.94h4.22v1.94Z"/><path class="cls-4" d="M841.7,629.71v-1.94h4.22v1.94Z"/><path class="cls-4" d="M844.48,629.71v-1.94h1.58a2.1,2.1,0,0,0,2.35-2.39v-5l2.06-1.1v6.14a4.25,4.25,0,0,1-1.22,3.21,4.16,4.16,0,0,1-3,1.05Zm4.89-13.3a1.05,1.05,0,0,1-1.18-1.2,1.17,1.17,0,1,1,2.33,0C850.52,616,850.13,616.41,849.37,616.41Z"/><path class="cls-4" d="M868.09,627.77h1.58v1.94h-1.82a4,4,0,0,1-3.19-1.31,4.27,4.27,0,0,1-3.31,1.31h-8.24l1-1.94h3.5v-9.3l2.06-1.1v10.4h1.51c1.66,0,2.5-.87,2.5-2.61v-9.8l2.08-1.11v10.93a2.94,2.94,0,0,0,.54,2A2.3,2.3,0,0,0,868.09,627.77Z"/><path class="cls-4" d="M881.15,627.77v1.94H868.23v-1.94h4.15a5.8,5.8,0,0,1-1.18-3.71A4.84,4.84,0,0,1,876,619a4.55,4.55,0,0,1,4,2V623a4.5,4.5,0,0,0-3.72-2.06,2.88,2.88,0,0,0-2.19.87,3.28,3.28,0,0,0-.83,2.34,3.42,3.42,0,0,0,3.65,3.64Z"/><path class="cls-4" d="M893.4,615.36l2.08-1.11v10.93a4.49,4.49,0,0,1-1.27,3.38,4.32,4.32,0,0,1-3.14,1.15h-8.24l1-1.94h3.5v-9.3l2.06-1.1v10.4h1.51c1.67,0,2.5-.87,2.5-2.61ZM889.75,633a1.67,1.67,0,0,0-1-.41c-.59,0-.89.27-.89.79a1.27,1.27,0,0,0,.34.82h2.18l-.55,1h-4l.55-1h.65a1.85,1.85,0,0,1-.24-.91,1.63,1.63,0,0,1,.53-1.21,1.69,1.69,0,0,1,1.24-.52,2,2,0,0,1,1.15.38Z"/><path class="cls-4" d="M899.8,629.71V615.36l2.06-1.11v15.46Z"/><path class="cls-4" d="M926.07,627.77h1.58v1.94h-1.82a4.36,4.36,0,0,1-2.16-.5,5.28,5.28,0,0,1-2.13,3.81,6.64,6.64,0,0,1-4.1,1.25,5.79,5.79,0,0,1-4.84-2.21,6.35,6.35,0,0,1-1.32-4,5.88,5.88,0,0,1,1-3.46l2-.43a6.73,6.73,0,0,0-1.07,3.67,4.59,4.59,0,0,0,1.24,3.31,4,4,0,0,0,3,1.2,4.26,4.26,0,0,0,3.26-1.23,3.76,3.76,0,0,0,1-2.68v-8l2.06-1.1v6.07A2.09,2.09,0,0,0,926.07,627.77Zm-8.75-8.87a1.19,1.19,0,0,1,0-2.37,1.19,1.19,0,0,1,0,2.37Z"/><path class="cls-4" d="M926.21,629.71v-1.94h4.22v1.94Z"/><path class="cls-4" d="M926.56,629.71v-1.94h4.22v1.94Z"/><path class="cls-4" d="M945.66,627.77h1.59v1.94h-1.83a3.92,3.92,0,0,1-3.11-1.24,4.19,4.19,0,0,1-3.19,1.24h-2.59a4.81,4.81,0,0,1-1.53-.24,5,5,0,0,1-1.54.24h-4.12v-1.94h3.09a4.5,4.5,0,0,1-.91-2.78,4,4,0,0,1,.7-2.4,5.84,5.84,0,0,1,2.27-3.38,5.36,5.36,0,0,1,3.09-.93,5.56,5.56,0,0,1,4.2,1.73,5.79,5.79,0,0,1,1.56,4.19v1.18A2.08,2.08,0,0,0,945.66,627.77ZM935,627.56a2.63,2.63,0,0,0,2-2.69,2.37,2.37,0,0,0-.54-1.62,1.82,1.82,0,0,0-1.42-.61,1.84,1.84,0,0,0-1.43.61,2.37,2.37,0,0,0-.54,1.62A2.64,2.64,0,0,0,935,627.56Zm4,.21a2.13,2.13,0,0,0,1.69-.59,2.86,2.86,0,0,0,.51-1.9V624.2a3.85,3.85,0,0,0-1.27-3.09,3.59,3.59,0,0,0-2.47-.91,3.26,3.26,0,0,0-2.59,1.08H935a3.34,3.34,0,0,1,2.53,1,3.81,3.81,0,0,1,.94,2.7,4.34,4.34,0,0,1-.93,2.78Z"/><path class="cls-4" d="M954.15,627.77h1.58v1.94h-1.82a4.52,4.52,0,0,0-6.28,0h-1.82v-1.94h1.58a2.1,2.1,0,0,0,2.35-2.39v-5l2.06-1.1v6.07A2.09,2.09,0,0,0,954.15,627.77Zm-5.66-11.19a1,1,0,0,1-1.17-1.2,1.16,1.16,0,1,1,2.32,0C949.64,616.18,949.26,616.58,948.49,616.58Zm3.07,0a1.05,1.05,0,0,1-1.18-1.2,1,1,0,0,1,1.18-1.17,1,1,0,0,1,1.15,1.17C952.71,616.18,952.33,616.58,951.56,616.58Z"/><path class="cls-4" d="M969.73,627.77h1.6v1.94h-1.82a4.52,4.52,0,0,0-6.71.48,4.56,4.56,0,0,0-6.69-.48h-1.82v-1.94h1.58a2.09,2.09,0,0,0,2.35-2.39v-.8a6.08,6.08,0,0,1,1.37-4.26,4.56,4.56,0,0,1,6.76.38,6.53,6.53,0,0,1,1,3.88v.8A2.09,2.09,0,0,0,969.73,627.77Zm-6.93.48a2.17,2.17,0,0,0,1.86-1,4.74,4.74,0,0,0,.68-2.71q0-3.64-2.54-3.64t-2.52,3.64Q960.28,628.25,962.8,628.25Z"/><path class="cls-4" d="M969.9,629.71v-1.94h1.58a2.1,2.1,0,0,0,2.35-2.39v-5l2.06-1.1v6.14a4.25,4.25,0,0,1-1.22,3.21,4.18,4.18,0,0,1-2.95,1.05Zm1.27,4.77a1.19,1.19,0,0,1,0-2.37,1.19,1.19,0,0,1,0,2.37Zm3,0a1.19,1.19,0,0,1,0-2.37,1.19,1.19,0,0,1,0,2.37Z"/><path class="cls-4" d="M986.82,626.91a1.23,1.23,0,0,1,1.36,1.37,1.57,1.57,0,0,1-.42,1.11,1.41,1.41,0,0,1-1.09.44c-1,0-1.48-.6-1.48-1.82v-3.09l1-.29,0,2.28Z"/><path class="cls-4" d="M995.9,629.71a4,4,0,0,1-3.21-1.36,4.68,4.68,0,0,1-1-3.12v-2.87l2.06-1.11V625q0,2.73,2.52,2.73h6.54a4.88,4.88,0,0,1-1.13-3.4,5.77,5.77,0,0,1,1.37-4.08,4.23,4.23,0,0,1,3.21-1.29,3.91,3.91,0,0,1,3.14,1.27,4.3,4.3,0,0,1,1,3v2.25a3.93,3.93,0,0,1-4.2,4.24Zm12.39-6.4c0-1.59-.68-2.39-2.06-2.39a2.14,2.14,0,0,0-1.85.9,4.15,4.15,0,0,0-.66,2.5,4.38,4.38,0,0,0,.64,2.52,2,2,0,0,0,1.73.93c1.47,0,2.2-.8,2.2-2.39Zm-1.87-6.73a1,1,0,0,1-1.17-1.2,1.17,1.17,0,1,1,2.33,0A1,1,0,0,1,1006.42,616.58Z"/><path class="cls-4" d="M1020.3,627.77h1.58v1.94h-1.82a4.38,4.38,0,0,1-2.11-.48,5.81,5.81,0,0,1-1.65,3.79,4.55,4.55,0,0,1-3.31,1.3,5.92,5.92,0,0,1-2.8-.72v-1.8a5,5,0,0,0,2.44.67,3,3,0,0,0,2.4-1,4.35,4.35,0,0,0,.86-2.85v-8.18l2.06-1.1v0l0,0v6.54A2,2,0,0,0,1020.3,627.77Z"/><path class="cls-4" d="M1020.45,629.71v-1.94h4.22v1.94Z"/><path class="cls-4" d="M1020.79,629.71v-1.94H1025v1.94Z"/><path class="cls-4" d="M1031.92,627.77h1.58v1.94h-1.82a4.52,4.52,0,0,0-6.28,0h-1.82v-1.94h1.58a2.1,2.1,0,0,0,2.35-2.39v-5l2.06-1.1v6.07A2.09,2.09,0,0,0,1031.92,627.77Zm-5.66-11.19a1.05,1.05,0,0,1-1.18-1.2,1,1,0,0,1,1.18-1.17,1,1,0,0,1,1.15,1.17C1027.41,616.18,1027,616.58,1026.26,616.58Zm3.07,0a1.05,1.05,0,0,1-1.18-1.2,1.17,1.17,0,1,1,2.33,0C1030.48,616.18,1030.09,616.58,1029.33,616.58Z"/><path class="cls-4" d="M1047.69,627.77h1.56v1.94h-1.59a8.89,8.89,0,0,1-3.11-.44,5.6,5.6,0,0,1-2.18-1.57,12.46,12.46,0,0,1-7,2h-3.26v-1.94h3.28a9.74,9.74,0,0,0,7.7-3.21c-1.33-2.44-2.94-3.67-4.84-3.67a5.88,5.88,0,0,0-4,2.06V621a6,6,0,0,1,4.27-2,5.76,5.76,0,0,1,3.57,1.33,11.47,11.47,0,0,1,3,3.8v1a10,10,0,0,1-1.41,1.51A6.22,6.22,0,0,0,1047.69,627.77Z"/><path class="cls-4" d="M1051.74,623.22a3.83,3.83,0,0,1,4.12-4.22,4.06,4.06,0,0,1,3.5,1.68,6,6,0,0,1,1.06,3.69,5.76,5.76,0,0,1-1.35,4,3.94,3.94,0,0,1-3.07,1.29,4.32,4.32,0,0,1-3.28-1.19,4.12,4.12,0,0,1-3.09,1.19h-1.82v-1.94h1.58a2.09,2.09,0,0,0,2.35-2.39Zm2.06,2.32a2,2,0,0,0,2.18,2.23,2,2,0,0,0,1.76-.91,4.34,4.34,0,0,0,.64-2.54,4.15,4.15,0,0,0-.67-2.5,2.19,2.19,0,0,0-1.85-.9c-1.37,0-2.06.8-2.06,2.39Z"/><path class="cls-4" d="M1083.79,629.71a4.45,4.45,0,0,1-2.31,3.38,9.13,9.13,0,0,1-4.89,1.18,7.15,7.15,0,0,1-5.7-2.21,6.46,6.46,0,0,1-.41-7.48l2-.43a6.74,6.74,0,0,0-1.08,3.67,4.28,4.28,0,0,0,1.39,3.36,5.54,5.54,0,0,0,3.81,1.22,7.18,7.18,0,0,0,3.41-.72,3,3,0,0,0,1.63-2h-2.4l1-1.94h3.62v1.94Zm-8.8,8.8a1.05,1.05,0,0,1-1.18-1.2,1,1,0,0,1,1.18-1.17,1,1,0,0,1,1.15,1.17C1076.14,638.11,1075.76,638.51,1075,638.51Zm3,0a1,1,0,0,1-1.17-1.2,1.16,1.16,0,1,1,2.32,0C1079.18,638.11,1078.8,638.51,1078,638.51Z"/><path class="cls-4" d="M1082.59,629.71v-1.94h4.22v1.94Z"/><path class="cls-4" d="M1082.94,629.71v-1.94h4.21v1.94Z"/><path class="cls-4" d="M1091.68,607.78l1.15-.65v2a1.47,1.47,0,0,1-.45,1.1,1.63,1.63,0,0,1-1.17.43,1.72,1.72,0,0,1-1.08-.34,1.76,1.76,0,0,1-1.08.34,1.67,1.67,0,0,1-1.19-.43,1.45,1.45,0,0,1-.47-1.1v-.75l1.18-.64V609a.42.42,0,0,0,.48.48c.32,0,.48-.13.48-.4V608l1.17-.65v1.71c0,.27.17.4.51.4a.42.42,0,0,0,.47-.48Z"/><path class="cls-4" d="M1094.06,627.77h1.58v1.94h-1.82a4.52,4.52,0,0,0-6.28,0h-1.82v-1.94h1.58a2.1,2.1,0,0,0,2.35-2.39v-5l2.06-1.1v6.07A2.09,2.09,0,0,0,1094.06,627.77Zm-3.79-11.36a1.05,1.05,0,0,1-1.18-1.2,1,1,0,0,1,1.18-1.17,1,1,0,0,1,1.15,1.17C1091.42,616,1091,616.41,1090.27,616.41Z"/><path class="cls-4" d="M1094.2,629.71v-1.94h4.32a4.87,4.87,0,0,1-1.11-3.4,5.77,5.77,0,0,1,1.37-4.08A4.14,4.14,0,0,1,1102,619a4,4,0,0,1,3.16,1.27,4.38,4.38,0,0,1,1,3v2.28a4.34,4.34,0,0,1-1.17,3.13,4.17,4.17,0,0,1-3,1.08Zm9.83-6.4c0-1.59-.69-2.39-2.06-2.39a2.18,2.18,0,0,0-1.85.9,4.08,4.08,0,0,0-.67,2.5,4.38,4.38,0,0,0,.65,2.52,2,2,0,0,0,1.72.93c1.47,0,2.21-.77,2.21-2.3Zm-2-6.76a1.19,1.19,0,1,1,1.16-1.19A1,1,0,0,1,1102,616.55Z"/><path class="cls-4" d="M1128.12,627.77h1.6v1.94h-1.82a4.12,4.12,0,0,1-3.09-1.19,4.42,4.42,0,0,1-3.19,1.19h-3.14a2.1,2.1,0,0,0-2.35,2.4v4l-2.06,1.1V632a4.23,4.23,0,0,1,1.15-3.14,3.92,3.92,0,0,1,2.73-1.13,6.36,6.36,0,0,1-.86-3.4,5.77,5.77,0,0,1,1.37-4.08,4.2,4.2,0,0,1,3.21-1.29,3.93,3.93,0,0,1,3.14,1.27,4.34,4.34,0,0,1,1,3v2.16A2.09,2.09,0,0,0,1128.12,627.77Zm-4.39-2.23v-2.23c0-1.59-.69-2.39-2.06-2.39a2.17,2.17,0,0,0-1.86.9,4.15,4.15,0,0,0-.66,2.5,4.42,4.42,0,0,0,.63,2.54,2.18,2.18,0,0,0,4-1.32Z"/><path class="cls-4" d="M1128.28,629.71v-1.94h4.22v1.94Z"/><path class="cls-4" d="M1128.63,629.71v-1.94h4.22v1.94Z"/><path class="cls-4" d="M1131.41,629.71v-1.94h4.32a4.86,4.86,0,0,1-1.1-3.4,5.76,5.76,0,0,1,1.36-4.08,4.14,4.14,0,0,1,3.19-1.29,4,4,0,0,1,3.16,1.27,4.38,4.38,0,0,1,1,3v2.28a4.26,4.26,0,0,1-1.17,3.13,4.15,4.15,0,0,1-3,1.08Zm6.26-13.13a1,1,0,0,1-1.17-1.2,1.16,1.16,0,1,1,2.32,0C1138.82,616.18,1138.44,616.58,1137.67,616.58Zm3.57,6.73c0-1.59-.69-2.39-2.06-2.39a2.19,2.19,0,0,0-1.85.9,4.15,4.15,0,0,0-.67,2.5,4.38,4.38,0,0,0,.65,2.52,2,2,0,0,0,1.73.93c1.47,0,2.2-.77,2.2-2.3Zm-.53-6.73a1,1,0,0,1-1.17-1.2,1.16,1.16,0,1,1,2.32,0C1141.86,616.18,1141.48,616.58,1140.71,616.58Z"/><path class="cls-4" d="M1151.55,629.71a3.94,3.94,0,0,1-3.21-1.34,4.41,4.41,0,0,1-1-2.92V615.36l2.06-1.11v11.13a2.09,2.09,0,0,0,2.35,2.39h1.58v1.94Z"/><path class="cls-4" d="M1158.52,623c1.82-2.69,4.09-4,6.79-4a5.42,5.42,0,0,1,4.33,1.89,5.83,5.83,0,0,1,1.4,4v.77a4.42,4.42,0,0,1-1,3,3.49,3.49,0,0,1-2.74,1.06h-15.41v-1.94h4.46l.07-.26V615.36l2.06-1.11Zm10.43,2.49v-.67a3.89,3.89,0,0,0-1.15-3,3.4,3.4,0,0,0-2.47-1,5.88,5.88,0,0,0-4.46,2.23,12.18,12.18,0,0,0-2.35,4.19v.43h8.66a1.7,1.7,0,0,0,1.4-.48A3,3,0,0,0,1169,625.52Z"/><path class="cls-4" d="M1199.51,627.77h1.58v1.94h-1.82a4,4,0,0,1-3.12-1.24,4.11,4.11,0,0,1-3.14,1.24h-8.55a3.8,3.8,0,0,1-3-1.29,4.38,4.38,0,0,1-1-2.95v-2.9l2.07-1.1v3.81c0,1.66.77,2.49,2.32,2.49h8c1.53,0,2.3-.83,2.3-2.49v-9.92l2.08-1.11v11.13A2.09,2.09,0,0,0,1199.51,627.77ZM1188.94,618c1.37.06,2.06.74,2.06,2a1.83,1.83,0,0,1-.49,1.34,1.73,1.73,0,0,1-1.31.5H1186l.55-1h2.52a.76.76,0,0,0,.86-.86c0-.7-.45-1-1.34-1a2.48,2.48,0,0,0-1.27.33v-1l2-2.23h1.27Z"/><path class="cls-4" d="M1199.65,629.71v-1.94h4.22v1.94Z"/><path class="cls-4" d="M1200,629.71v-1.94h4.22v1.94Z"/><path class="cls-4" d="M1202.78,629.71v-1.94h1.27q2.49,0,2.49-2.61v-9.8l2.09-1.11v10.93a4.49,4.49,0,0,1-1.27,3.38,4.34,4.34,0,0,1-3.14,1.15Z"/><path class="cls-4" d="M1224.4,627.77H1226v1.94h-1.82a4.38,4.38,0,0,1-2.11-.48,5.81,5.81,0,0,1-1.65,3.79,4.55,4.55,0,0,1-3.31,1.3,5.92,5.92,0,0,1-2.8-.72v-1.8a5,5,0,0,0,2.44.67,3,3,0,0,0,2.4-1,4.35,4.35,0,0,0,.86-2.85v-8.18l2.06-1.1v0l0,0v6.54A2,2,0,0,0,1224.4,627.77Z"/><path class="cls-4" d="M1224.55,629.71v-1.94h4.21v1.94Z"/><path class="cls-4" d="M1224.89,629.71v-1.94h4.22v1.94Z"/><path class="cls-4" d="M1236.81,608.09l1.15-.64v1.94a1.44,1.44,0,0,1-.46,1.1,1.61,1.61,0,0,1-1.17.43,1.93,1.93,0,0,0-2.16,0,1.69,1.69,0,0,1-1.19-.43,1.44,1.44,0,0,1-.46-1.1v-.75l1.17-.64v1.32a.42.42,0,0,0,.48.47c.32,0,.48-.13.48-.4v-1.06l1.17-.64v1.7c0,.27.17.4.51.4a.42.42,0,0,0,.48-.47Z"/><path class="cls-4" d="M1227.67,629.71v-1.94H1232a4.86,4.86,0,0,1-1.1-3.4,5.76,5.76,0,0,1,1.36-4.08,4.14,4.14,0,0,1,3.19-1.29,4,4,0,0,1,3.16,1.27,4.38,4.38,0,0,1,1,3v2.28a4.26,4.26,0,0,1-1.17,3.13,4.15,4.15,0,0,1-3,1.08Zm9.83-6.4c0-1.59-.69-2.39-2.06-2.39a2.19,2.19,0,0,0-1.85.9,4.15,4.15,0,0,0-.67,2.5,4.38,4.38,0,0,0,.65,2.52,2,2,0,0,0,1.73.93c1.47,0,2.2-.77,2.2-2.3Zm-2-6.76a1.19,1.19,0,0,1,0-2.37,1,1,0,0,1,1.15,1.18C1236.64,616.16,1236.26,616.55,1235.49,616.55Z"/><path class="cls-4" d="M1254.83,627.77v1.94h-3a4.51,4.51,0,0,1-1.77,3.41,5.15,5.15,0,0,1-3.22,1.1,5.84,5.84,0,0,1-2.8-.7V631.7a5.32,5.32,0,0,0,2.52.67,3.33,3.33,0,0,0,2.21-.79,2.44,2.44,0,0,0,1-1.89c-.83,0-1.44-.06-1.84-.1a5.11,5.11,0,0,1-3.91-1.75,5.3,5.3,0,0,1-1.1-3.47,5.69,5.69,0,0,1,1.39-4.08,4.35,4.35,0,0,1,3.28-1.29,4.21,4.21,0,0,1,3.29,1.27,4.34,4.34,0,0,1,1,3v4.55Zm-5.06-4.41c0-1.63-.72-2.44-2.18-2.44a2.31,2.31,0,0,0-1.94.9,4,4,0,0,0-.69,2.5q0,3.13,3.06,3.33c.39.05,1,.09,1.75.12Z"/><path class="cls-4" d="M1253.39,629.71v-1.94H1255a2.09,2.09,0,0,0,2.34-2.39v-5l2.07-1.1v6.14a4.22,4.22,0,0,1-1.23,3.21,4.14,4.14,0,0,1-3,1.05Zm4.89-13.3a1,1,0,0,1-1.17-1.2,1.16,1.16,0,1,1,2.32,0C1259.43,616,1259.05,616.41,1258.28,616.41Z"/><path class="cls-4" d="M1142.42,674v0a1.27,1.27,0,1,1,1.27,1.32A1.11,1.11,0,0,1,1142.42,674Z"/><path class="cls-4" d="M1158.84,673.23h1.58v1.94h-1.82a3.79,3.79,0,0,1-3.55-1.82,4,4,0,0,1-2.85,1.1,4,4,0,0,1-3.36-1.58,5.2,5.2,0,0,1-1-3.28,5.06,5.06,0,0,1,1.41-3.74,3.93,3.93,0,0,1,2.93-1.22,3.86,3.86,0,0,1,2.28.67v-1l2.08-1.11v7.67A2.09,2.09,0,0,0,1158.84,673.23Zm-4.41-5.7a2.83,2.83,0,0,0-2.18-1,2.12,2.12,0,0,0-1.73.85,4,4,0,0,0,0,4.45,2.14,2.14,0,0,0,1.75.84,2.68,2.68,0,0,0,2.2-1.1,6.62,6.62,0,0,1,0-.67Zm-3.1-5.9a1,1,0,0,1-1.17-1.2,1.17,1.17,0,1,1,2.33,0A1,1,0,0,1,1151.33,661.63Zm3.05,0a1.05,1.05,0,0,1-1.18-1.2,1,1,0,0,1,1.18-1.17,1,1,0,0,1,1.15,1.17C1155.53,661.23,1155.15,661.63,1154.38,661.63Z"/><path class="cls-4" d="M1171.9,673.23v1.94H1159v-1.94h4.15a5.82,5.82,0,0,1-1.18-3.71,4.84,4.84,0,0,1,4.84-5.06,4.54,4.54,0,0,1,4,2v1.94a4.5,4.5,0,0,0-3.72-2.06,2.88,2.88,0,0,0-2.19.87,3.26,3.26,0,0,0-.83,2.34,3.42,3.42,0,0,0,3.65,3.64Z"/><path class="cls-4" d="M1179.43,675.17a4,4,0,0,1-3.22-1.34,4.41,4.41,0,0,1-1-2.92v-10.1l2.07-1.1v11.12a2.1,2.1,0,0,0,2.35,2.4h1.58v1.94Z"/><path class="cls-4" d="M1188.15,673.23h1.58v1.94h-1.82a4.52,4.52,0,0,0-6.28,0h-1.82v-1.94h1.58a2.1,2.1,0,0,0,2.35-2.4v-5l2.06-1.1v6.06A2.1,2.1,0,0,0,1188.15,673.23Zm-3.79-11.36a1,1,0,0,1-1.17-1.2,1.16,1.16,0,1,1,2.32,0C1185.51,661.47,1185.13,661.87,1184.36,661.87Z"/><path class="cls-4" d="M1212.84,673.23h1.58v1.94h-1.82a4.6,4.6,0,0,0-6.28,0h-9.92a4.52,4.52,0,0,0-6.28,0h-1.83v-1.94h1.59a2.1,2.1,0,0,0,2.35-2.4v-3.35l2.06-1.1v4.45c0,1.35.52,2.12,1.55,2.33a14.21,14.21,0,0,1,3.17-6,7.59,7.59,0,0,1,5.75-2.66,5.46,5.46,0,0,1,4.36,1.89,5.86,5.86,0,0,1,1.37,4v.57A2.07,2.07,0,0,0,1212.84,673.23Zm-6.64,0c1.49,0,2.23-.83,2.23-2.49v-.43a4,4,0,0,0-1.15-3,3.5,3.5,0,0,0-2.49-1,6,6,0,0,0-4.58,2.34,12.44,12.44,0,0,0-2.4,4.51Z"/><path class="cls-4" d="M1213,675.17v-1.94h1.27c1.67,0,2.5-.87,2.5-2.61v-9.81l2.08-1.1v10.93a4.51,4.51,0,0,1-1.27,3.38,4.32,4.32,0,0,1-3.14,1.15Z"/><path class="cls-4" d="M1223.15,675.17V660.81l2.06-1.1v15.46Z"/><path class="cls-4" d="M1248.94,675.17a4.45,4.45,0,0,1-2.31,3.38,9.21,9.21,0,0,1-4.88,1.18,7.16,7.16,0,0,1-5.71-2.21,6.46,6.46,0,0,1-.41-7.48l2-.43a6.74,6.74,0,0,0-1.08,3.67,4.24,4.24,0,0,0,1.39,3.35,5.52,5.52,0,0,0,3.82,1.23,7.17,7.17,0,0,0,3.4-.72,3,3,0,0,0,1.63-2h-2.4l1-1.94H1249v1.94Zm-8.8,8.8a1.05,1.05,0,0,1-1.18-1.2,1,1,0,0,1,1.18-1.17,1,1,0,0,1,1.15,1.17C1241.29,683.57,1240.91,684,1240.14,684Zm3,0a1,1,0,0,1-1.17-1.2,1.16,1.16,0,1,1,2.32,0C1244.33,683.57,1244,684,1243.18,684Z"/><path class="cls-4" d="M1247.74,675.17v-1.94h4.31a4.91,4.91,0,0,1-1.1-3.4,5.72,5.72,0,0,1,1.37-4.08,4.12,4.12,0,0,1,3.18-1.29,4,4,0,0,1,3.17,1.27,4.38,4.38,0,0,1,1,2.95V671a4.31,4.31,0,0,1-1.18,3.14,4.14,4.14,0,0,1-3,1.08Zm9.82-6.4c0-1.6-.68-2.39-2.06-2.39a2.18,2.18,0,0,0-1.84.89,4.11,4.11,0,0,0-.67,2.51,4.4,4.4,0,0,0,.64,2.52,2,2,0,0,0,1.73.93c1.47,0,2.2-.77,2.2-2.3Zm-2-6.76a1,1,0,0,1-1.17-1.2,1.16,1.16,0,1,1,2.32,0C1256.7,661.61,1256.32,662,1255.55,662Z"/><polygon class="cls-5" points="1421.31 414.46 1421.31 506.5 1400.14 521.93 1313.84 521.93 1313.84 429.49 1334.45 414.46 1421.31 414.46"/><rect class="cls-6" x="1338.24" y="450.21" width="46.07" height="30.56"/><polyline class="cls-6" points="1384.31 461.07 1401 450.91 1401 481.48 1384.31 470.18"/><line class="cls-6" x1="1364.45" y1="480.78" x2="1378.89" y2="500.18"/><line class="cls-6" x1="1358.4" y1="480.78" x2="1343.96" y2="500.18"/><line class="cls-6" x1="1353.43" y1="456.33" x2="1353.43" y2="473.49"/><line class="cls-6" x1="1367.6" y1="456.33" x2="1367.6" y2="473.49"/><polygon class="cls-5" points="1422.22 572.42 1422.22 665.16 1400.89 680.72 1313.92 680.72 1313.92 587.55 1334.69 572.42 1422.22 572.42"/><rect class="cls-6" x="1345.19" y="603.64" width="45.75" height="17.59"/><rect class="cls-6" x="1351.76" y="621.24" width="32.61" height="15.17"/><line class="cls-6" x1="1353.61" y1="636.32" x2="1379.44" y2="662.52"/><line class="cls-6" x1="1382.66" y1="636.32" x2="1356.69" y2="662.52"/><line class="cls-6" x1="1384.37" y1="603.64" x2="1384.37" y2="596.16"/><line class="cls-6" x1="1351.76" y1="603.64" x2="1351.76" y2="596.16"/><polygon class="cls-5" points="1422.22 731.2 1422.22 823.95 1400.89 839.51 1313.92 839.51 1313.92 746.34 1334.69 731.2 1422.22 731.2"/><polyline class="cls-6" points="1349.39 773.95 1352.5 819.1 1352.5 819.1 1383.64 819.1 1386.75 773.95"/><polygon class="cls-6" points="1389.87 764.06 1346.27 764.06 1344.72 773.95 1391.42 773.95 1389.87 764.06"/><polyline class="cls-6" points="1378.97 764.06 1378.97 759.39 1385.19 751.61"/><line class="cls-6" x1="1376.81" y1="786.19" x2="1358.53" y2="786.19"/><line class="cls-6" x1="1373.49" y1="796.53" x2="1361.15" y2="796.53"/><line class="cls-6" x1="1371.76" y1="806.87" x2="1363.59" y2="806.87"/><path class="cls-3" d="M1124.87,752.24a9.08,9.08,0,0,1-4.91,1.39,6.4,6.4,0,0,1-4.8-1.85,6.81,6.81,0,0,1-1.77-5,6.53,6.53,0,0,1,1.85-5,11.12,11.12,0,0,1,5-2.18,16.15,16.15,0,0,0,2.06-.6,3.86,3.86,0,0,0-3.21-2.11q-1.83,0-4.32,2.08v-3.38a6.23,6.23,0,0,1,4.82-2.37,6.11,6.11,0,0,1,3.76,1.39,12.05,12.05,0,0,1,3.21,4v1.34a4.71,4.71,0,0,1-1.73,2,13,13,0,0,1-3.54,1.33,9.18,9.18,0,0,0-3.12,1.22,2.89,2.89,0,0,0-1,2.33c0,2,1,3,3.11,3a9,9,0,0,0,4.53-1.34Zm-4.41-3.94a1.62,1.62,0,0,1-1.2-.46,1.68,1.68,0,0,1-.45-1.21,1.61,1.61,0,0,1,.45-1.18,1.65,1.65,0,0,1,1.2-.45,1.54,1.54,0,0,1,1.63,1.63,1.71,1.71,0,0,1-.44,1.22A1.6,1.6,0,0,1,1120.46,748.3Z"/><path class="cls-3" d="M1134.58,744.64a4.44,4.44,0,0,1-3.52-1.44,4.69,4.69,0,0,1-1.13-3.26v-8.68l4-2.08v10.57a1.25,1.25,0,0,0,.22.84,1.22,1.22,0,0,0,.84.21h2.23v3.84Z"/><path class="cls-3" d="M1140,730.28a2,2,0,0,1-.54,1.46,2.12,2.12,0,0,1-2.86,0,2,2,0,0,1-.56-1.45,1.91,1.91,0,0,1,.56-1.43,2,2,0,0,1,3.4,1.43Zm5,10.52h2.23v3.84h-2.59a4.84,4.84,0,0,1-2.66-.72,5,5,0,0,1-2.68.72h-2.59V740.8h2.23a.84.84,0,0,0,1-1v-3.93l4-2.09v6a.84.84,0,0,0,1,1Zm-2.61-8.51a1.91,1.91,0,0,1-1.44-.56,2,2,0,0,1-.55-1.45,1.91,1.91,0,0,1,.55-1.43,2,2,0,0,1,1.44-.54,1.9,1.9,0,0,1,1.42.54,1.94,1.94,0,0,1,.54,1.43,2,2,0,0,1-.54,1.46A1.87,1.87,0,0,1,1142.37,732.29Z"/><path class="cls-3" d="M1146.73,744.64V740.8H1149a1.22,1.22,0,0,0,.84-.21,1.25,1.25,0,0,0,.21-.84v-3.93l4-2.09v6.21a4.55,4.55,0,0,1-1.44,3.57,4.61,4.61,0,0,1-3.21,1.13Zm5.44-12.83a1.91,1.91,0,0,1-1.44-.56,2,2,0,0,1-.55-1.45,1.94,1.94,0,0,1,.55-1.43,2,2,0,0,1,1.44-.54,1.86,1.86,0,0,1,2,2,2,2,0,0,1-.54,1.46A1.91,1.91,0,0,1,1152.17,731.81Z"/><path class="cls-3" d="M1167.82,731.29l4-2.11v10a5.36,5.36,0,0,1-1.56,4.05,5.15,5.15,0,0,1-3.79,1.42h-9.82l2-3.84h2.85v-6.4l4-2.11v8.51h.87a1.63,1.63,0,0,0,1.23-.35,1.91,1.91,0,0,0,.32-1.3Zm-2.25,16.49a2,2,0,0,0-1.29-.6.78.78,0,0,0-.58.19.58.58,0,0,0-.17.43,1.24,1.24,0,0,0,.31.72h2.55l-.94,1.75h-5l.93-1.75h.79a2.12,2.12,0,0,1-.28-1,1.91,1.91,0,0,1,.65-1.49,2,2,0,0,1,1.43-.55,2.19,2.19,0,0,1,1.56.65Z"/><path class="cls-3" d="M1176.09,744.64V731.29l4-2.11v15.46Z"/><path class="cls-3" d="M1194.88,744.64a4.22,4.22,0,0,1-3.37-1.44,4.86,4.86,0,0,1-1.08-3.26v-2l3.93-2.08v3.86a.84.84,0,0,0,1.05,1h7.67a1.22,1.22,0,0,0,.84-.21,1.19,1.19,0,0,0,.22-.84v-3.93l3.95-2.09v6.21a4.55,4.55,0,0,1-1.44,3.57,4.61,4.61,0,0,1-3.21,1.13Zm2.19-11.15a1.94,1.94,0,0,1-1.44-.56,2,2,0,0,1-.55-1.45,1.91,1.91,0,0,1,.55-1.43,2,2,0,0,1,1.44-.54,1.91,1.91,0,0,1,1.42.54,1.94,1.94,0,0,1,.54,1.43,2,2,0,0,1-.54,1.46A1.88,1.88,0,0,1,1197.07,733.49Zm4.31,0a2,2,0,0,1-1.44-.56,2,2,0,0,1-.55-1.45,1.94,1.94,0,0,1,.55-1.43,2,2,0,0,1,1.44-.54,1.86,1.86,0,0,1,2,2,2,2,0,0,1-.54,1.46A1.91,1.91,0,0,1,1201.38,733.49Z"/><path class="cls-3" d="M1217.06,744.64a4.46,4.46,0,0,1-3.53-1.44,4.73,4.73,0,0,1-1.12-3.26v-8.68l3.95-2.08v10.57a1.19,1.19,0,0,0,.22.84,1.22,1.22,0,0,0,.84.21h2.23v3.84Z"/><path class="cls-3" d="M1222.45,737.88a4.52,4.52,0,0,1,1.41-3.53,4.67,4.67,0,0,1,3.19-1.1,4.55,4.55,0,0,1,3.86,1.82,6.2,6.2,0,0,1,1.17,3.86,6,6,0,0,1-1.48,4.29,4.32,4.32,0,0,1-3.36,1.42,6.65,6.65,0,0,1-3-.6,5,5,0,0,1-2.47.6h-2.58V740.8h2.22a1.22,1.22,0,0,0,.84-.21,1.19,1.19,0,0,0,.22-.84Zm4,2.42c0,.33.21.5.63.5q1.17,0,1.17-2c0-1.22-.38-1.82-1.15-1.82-.43,0-.65.25-.65.76Z"/><path class="cls-3" d="M1234.12,744.64l2-3.84h3.33a.64.64,0,0,0,.72-.72,3.71,3.71,0,0,0-2.18-3.3l1.94-3.34a7.64,7.64,0,0,1,4.13,5.71,2.55,2.55,0,0,0,.43,1.36,1.65,1.65,0,0,0,1.17.29h1.73v3.84h-1.9a5.64,5.64,0,0,1-2.87-.72,3.87,3.87,0,0,1-2.42.72Z"/><path class="cls-3" d="M1246.9,744.64V740.8h3.35A8.71,8.71,0,0,0,1256,739a3.85,3.85,0,0,0-3.16-2q-1.83,0-4.32,2.08v-3.38a6.19,6.19,0,0,1,4.77-2.37h0a6.12,6.12,0,0,1,3.76,1.4,12.22,12.22,0,0,1,3.21,4v1.34a11.57,11.57,0,0,1-4.38,3.47,13.4,13.4,0,0,1-5.73,1.23Zm7.12-12.83a1.91,1.91,0,0,1-1.44-.56,2,2,0,0,1-.55-1.45,1.91,1.91,0,0,1,.55-1.43,2,2,0,0,1,1.44-.54,1.91,1.91,0,0,1,1.42.54,1.94,1.94,0,0,1,.54,1.43,2,2,0,0,1-.54,1.46A1.88,1.88,0,0,1,1254,731.81Z"/><path class="cls-4" d="M519.94,789.52a17.26,17.26,0,0,0-2.75,1.87,3.11,3.11,0,0,0-1,2.33,3.18,3.18,0,0,0,1,2.48,4,4,0,0,0,2.74.94,7.6,7.6,0,0,0,4.41-1.27v1.94a8.43,8.43,0,0,1-4.51,1.27,5.51,5.51,0,0,1-4.27-1.75,5.18,5.18,0,0,1-1.39-3.66,4.43,4.43,0,0,1,.87-2.77,10.24,10.24,0,0,1,3-2.39,17.94,17.94,0,0,1-4-4.5V783a9,9,0,0,1,2.76-2.62,5.85,5.85,0,0,1,6.42,0,9,9,0,0,1,2.76,2.65v1a19.43,19.43,0,0,1-4.05,4.1c.35,0,.63,0,.84,0h6.33l0,1.94H522.7A7,7,0,0,1,519.94,789.52Zm-3.88-6a13.33,13.33,0,0,0,3.93,3.91,18.29,18.29,0,0,0,4.17-3.95,5.21,5.21,0,0,0-4-2.18A5.09,5.09,0,0,0,516.06,783.5Z"/><path class="cls-4" d="M527.78,790.1v-1.94H532v1.94Z"/><path class="cls-4" d="M528.64,790.1v-1.94h4.22v1.94Z"/><path class="cls-4" d="M535.35,783.6a4.17,4.17,0,0,1,1.25-3.23,4.12,4.12,0,0,1,2.87-1,4.06,4.06,0,0,1,3.5,1.68,6,6,0,0,1,1.06,3.69,5.77,5.77,0,0,1-1.34,4,4,4,0,0,1-3.07,1.3,4.3,4.3,0,0,1-3.29-1.2,4.06,4.06,0,0,1-3.09,1.2h-1.82v-1.94H533a2.1,2.1,0,0,0,2.35-2.4Zm2.06,2.33a2,2,0,0,0,2.18,2.23,2,2,0,0,0,1.76-.92,4.32,4.32,0,0,0,.64-2.54,4.08,4.08,0,0,0-.67-2.5,2.18,2.18,0,0,0-1.85-.9c-1.37,0-2.06.8-2.06,2.4Z"/><path class="cls-4" d="M572.65,788.16h1.1v1.94h-1.34a4,4,0,0,1-3.14-1.25,4,4,0,0,1-3.14,1.25h-8.56a3.76,3.76,0,0,1-3-1.3,4.38,4.38,0,0,1-1-2.95V783l2.06-1.1v3.81c0,1.66.77,2.5,2.32,2.5h8c1.55,0,2.33-.84,2.33-2.5V780.8l2.06-1.11v6.07A2.1,2.1,0,0,0,572.65,788.16Zm-11.58,4.33a1,1,0,0,1,1.15,1.18c0,.8-.38,1.2-1.15,1.2a1.19,1.19,0,0,1,0-2.38Z"/><path class="cls-4" d="M572.31,790.1v-1.94h4.22v1.94Z"/><path class="cls-4" d="M573.17,790.1v-1.94h4.22v1.94Z"/><path class="cls-4" d="M576,790.1v-1.94h2.16a2.09,2.09,0,0,0,2.32-2.4V782.4l2.06-1.1v4.46a2.1,2.1,0,0,0,2.35,2.4H586a2.1,2.1,0,0,0,2.34-2.4v-4.17l2.07-1.08v5.25a2.09,2.09,0,0,0,2.32,2.4h1.13a2.1,2.1,0,0,0,2.35-2.4v-5l2.06-1.11v6.14A4.19,4.19,0,0,1,597,789a4.06,4.06,0,0,1-2.88,1.08h-1.66a3.62,3.62,0,0,1-3.13-1.42,3.66,3.66,0,0,1-3.07,1.42H584.6a3.73,3.73,0,0,1-3.14-1.42,3.63,3.63,0,0,1-3.14,1.42Z"/><path class="cls-4" d="M606.7,790.1a3.94,3.94,0,0,1-3.21-1.35,4.39,4.39,0,0,1-1-2.92V775.74l2.06-1.1v11.12a2.1,2.1,0,0,0,2.35,2.4h1.58v1.94Z"/><path class="cls-4" d="M615.43,788.16H617v1.94h-1.82a4.52,4.52,0,0,0-6.28,0h-1.82v-1.94h1.58a2.1,2.1,0,0,0,2.35-2.4v-5l2.06-1.11v6.07A2.1,2.1,0,0,0,615.43,788.16Zm-3.79-11.37a1.05,1.05,0,0,1-1.18-1.2,1,1,0,0,1,1.18-1.17,1,1,0,0,1,1.15,1.17C612.79,776.39,612.41,776.79,611.64,776.79Z"/><path class="cls-4" d="M623.91,788.16h1.58v1.94h-1.82a4.52,4.52,0,0,0-6.28,0h-1.82v-1.94h1.58a2.1,2.1,0,0,0,2.35-2.4v-5l2.06-1.11v6.07A2.1,2.1,0,0,0,623.91,788.16ZM618.26,777a1.05,1.05,0,0,1-1.18-1.2,1.17,1.17,0,1,1,2.33,0C619.41,776.56,619,777,618.26,777Zm3.06,0a1,1,0,0,1-1.17-1.2,1.16,1.16,0,1,1,2.32,0C622.47,776.56,622.09,777,621.32,777Z"/><path class="cls-4" d="M624.06,790.1v-1.94h1.58a2.1,2.1,0,0,0,2.35-2.4v-5l2.06-1.11v6.14a4.25,4.25,0,0,1-1.22,3.21,4.14,4.14,0,0,1-3,1.06Zm1.84-13.31a1,1,0,0,1-1.17-1.2,1.16,1.16,0,1,1,2.32,0C627.05,776.39,626.67,776.79,625.9,776.79Zm3.05,0a1.05,1.05,0,0,1-1.18-1.2,1.17,1.17,0,1,1,2.33,0C630.1,776.39,629.71,776.79,629,776.79Z"/><path class="cls-4" d="M649.54,788.16h1.58v1.94h-1.83a3.79,3.79,0,0,1-3.54-1.83,4,4,0,0,1-2.85,1.11,4,4,0,0,1-3.36-1.59,5.18,5.18,0,0,1-1-3.28,5.08,5.08,0,0,1,1.41-3.74,4,4,0,0,1,2.93-1.22,3.81,3.81,0,0,1,2.27.67v-1l2.09-1.1v7.67A2.09,2.09,0,0,0,649.54,788.16Zm-4.42-5.71a2.79,2.79,0,0,0-2.18-1,2.09,2.09,0,0,0-1.72.85,3.46,3.46,0,0,0-.67,2.22,3.42,3.42,0,0,0,.67,2.22,2.14,2.14,0,0,0,1.75.84,2.66,2.66,0,0,0,2.2-1.1c0-.29,0-.51,0-.67Zm-3.09-5.9a1.19,1.19,0,0,1,0-2.37,1.19,1.19,0,0,1,0,2.37Zm3.05,0a1.19,1.19,0,0,1,0-2.37,1.19,1.19,0,0,1,0,2.37Z"/><path class="cls-4" d="M649.68,790.1v-1.94h4.22v1.94Z"/><path class="cls-4" d="M650.54,790.1v-1.94h4.22v1.94Z"/><path class="cls-4" d="M663.79,788.16h4.46v1.94H662.4a7.1,7.1,0,0,1-1.63-.17,6.91,6.91,0,0,1-1.63.17h-5.82v-1.94h4.46a5.57,5.57,0,0,1-1.49-3.77,5.22,5.22,0,0,1,1.32-3.74,4.16,4.16,0,0,1,3.16-1.27,4.12,4.12,0,0,1,3.48,1.63,5.44,5.44,0,0,1,1,3.38A5.62,5.62,0,0,1,663.79,788.16Zm-3-.22a3.55,3.55,0,0,0,1.79-1.4,3.86,3.86,0,0,0,.7-2.24,3.33,3.33,0,0,0-.68-2.2,2.31,2.31,0,0,0-1.84-.8,2.26,2.26,0,0,0-1.83.81,3.28,3.28,0,0,0-.69,2.19,3.85,3.85,0,0,0,.72,2.23A3.71,3.71,0,0,0,660.8,787.94Zm0-11a1.19,1.19,0,0,1,0-2.38,1,1,0,0,1,1.15,1.18C662,776.54,661.59,776.94,660.82,776.94Z"/><path class="cls-4" d="M675,788.16h1.59v1.94h-1.82a4,4,0,0,1-3.19-1.32,4.24,4.24,0,0,1-3.31,1.32h-1.44v-1.94h1.27c1.66,0,2.49-.88,2.49-2.62v-9.8l2.09-1.1v10.93a3,3,0,0,0,.54,2A2.29,2.29,0,0,0,675,788.16Z"/><path class="cls-4" d="M683.47,788.16h1.58v1.94h-1.82a4.52,4.52,0,0,0-6.28,0h-1.82v-1.94h1.58a2.1,2.1,0,0,0,2.35-2.4v-5l2.06-1.11v6.07A2.1,2.1,0,0,0,683.47,788.16ZM677.81,777a1,1,0,0,1-1.17-1.2,1.16,1.16,0,1,1,2.32,0C679,776.56,678.58,777,677.81,777Zm3.07,0a1,1,0,0,1-1.17-1.2,1.16,1.16,0,1,1,2.32,0C682,776.56,681.65,777,680.88,777Z"/><path class="cls-4" d="M699.24,788.16h1.56v1.94h-1.58a8.88,8.88,0,0,1-3.12-.45,5.57,5.57,0,0,1-2.18-1.57,12.42,12.42,0,0,1-7,2h-3.26v-1.94h3.29a9.73,9.73,0,0,0,7.69-3.22q-2-3.66-4.84-3.66a5.82,5.82,0,0,0-4,2.06v-1.92a6,6,0,0,1,4.26-2,5.82,5.82,0,0,1,3.57,1.33,11.72,11.72,0,0,1,3,3.8v1.06a11.78,11.78,0,0,1-1.42,1.51A6.3,6.3,0,0,0,699.24,788.16Zm-8.36-11.37a1.05,1.05,0,0,1-1.18-1.2,1.17,1.17,0,1,1,2.33,0C692,776.39,691.64,776.79,690.88,776.79Z"/><path class="cls-4" d="M703.29,783.6a3.86,3.86,0,0,1,4.13-4.22,4.05,4.05,0,0,1,3.49,1.68,6,6,0,0,1,1.06,3.69,5.77,5.77,0,0,1-1.34,4,4,4,0,0,1-3.07,1.3,4.31,4.31,0,0,1-3.29-1.2,4.06,4.06,0,0,1-3.09,1.2h-1.82v-1.94h1.58a2.1,2.1,0,0,0,2.35-2.4Zm2.06,2.33a2,2,0,0,0,2.18,2.23,2,2,0,0,0,1.77-.92,4.39,4.39,0,0,0,.63-2.54,4.08,4.08,0,0,0-.67-2.5,2.17,2.17,0,0,0-1.84-.9q-2.07,0-2.07,2.4Z"/><path class="cls-4" d="M725.51,790.1a3.76,3.76,0,0,1-3-1.3,4.38,4.38,0,0,1-1-2.95V783l2.06-1.1v3.81c0,1.66.77,2.5,2.32,2.5h8c1.55,0,2.33-.84,2.33-2.5V780.8l2.06-1.11v6.16a3.92,3.92,0,0,1-4.17,4.25ZM727.93,779a1,1,0,0,1-1.17-1.2,1.16,1.16,0,1,1,2.32,0C729.08,778.55,728.7,779,727.93,779Zm3.05,0a1.05,1.05,0,0,1-1.18-1.2,1.17,1.17,0,1,1,2.33,0C732.13,778.55,731.74,779,731,779Z"/><path class="cls-4" d="M746.25,790.1a4,4,0,0,1-3.22-1.35,4.39,4.39,0,0,1-1-2.92V775.74l2.07-1.1v11.12a2.1,2.1,0,0,0,2.34,2.4h1.59v1.94Z"/><path class="cls-4" d="M746.63,790.1v-1.94h4.22v1.94Z"/><path class="cls-4" d="M747.49,790.1v-1.94h4.22v1.94Z"/><path class="cls-4" d="M758.61,788.16h1.58v1.94h-1.82a4.52,4.52,0,0,0-6.28,0h-1.82v-1.94h1.58a2.1,2.1,0,0,0,2.35-2.4v-5l2.06-1.11v6.07A2.1,2.1,0,0,0,758.61,788.16Zm-1.85-12.57-.55,1h-4l.55-1h.64a1.82,1.82,0,0,1-.24-.91,1.66,1.66,0,0,1,.53-1.21A1.74,1.74,0,0,1,755,773a2,2,0,0,1,1.15.38v1.06a1.63,1.63,0,0,0-1-.41c-.59,0-.88.26-.88.79a1.28,1.28,0,0,0,.33.81Z"/><path class="cls-4" d="M769.23,788.16h4.45v1.94h-5.84a7.9,7.9,0,0,0-3.26,0h-5.83v-1.94h4.46a5.62,5.62,0,0,1-1.49-3.77,5.22,5.22,0,0,1,1.32-3.74,4.19,4.19,0,0,1,3.17-1.27,4.09,4.09,0,0,1,3.47,1.63,5.38,5.38,0,0,1,1,3.38A5.6,5.6,0,0,1,769.23,788.16Zm-3-.22a3.62,3.62,0,0,0,1.8-1.4,3.92,3.92,0,0,0,.69-2.24,3.27,3.27,0,0,0-.68-2.2,2.49,2.49,0,0,0-3.67,0,3.33,3.33,0,0,0-.68,2.19,3.85,3.85,0,0,0,.72,2.23A3.73,3.73,0,0,0,766.23,787.94Zm0-11a1.19,1.19,0,0,1,0-2.38,1,1,0,0,1,1.15,1.18C767.4,776.54,767,776.94,766.25,776.94Z"/><path class="cls-4" d="M772.25,790.1v-1.94h1.58a2.1,2.1,0,0,0,2.35-2.4v-5l2.06-1.11v6.14A4.25,4.25,0,0,1,777,789a4.14,4.14,0,0,1-2.95,1.06Zm3.85,4.77a1.19,1.19,0,0,1,0-2.38,1,1,0,0,1,1.16,1.18A1,1,0,0,1,776.1,794.87Z"/><path class="cls-4" d="M788.45,789.33a6.09,6.09,0,0,1-2.23.36,4,4,0,0,1-3.36-1.61,6.34,6.34,0,0,1,.34-7.4,4.18,4.18,0,0,1,3.21-1.3,4,4,0,0,1,3.14,1.27,4.31,4.31,0,0,1,1,3v5.23a6.23,6.23,0,0,1-1.41,4.29,4.56,4.56,0,0,1-3.57,1.48,6,6,0,0,1-2.81-.69v-1.82a5.47,5.47,0,0,0,2.52.67,2.92,2.92,0,0,0,2.25-.9A4,4,0,0,0,788.45,789.33Zm0-5.63q0-2.4-2-2.4a2.25,2.25,0,0,0-1.88.89,3.89,3.89,0,0,0-.68,2.42,4,4,0,0,0,.66,2.41,2.09,2.09,0,0,0,1.78.9,2.38,2.38,0,0,0,2.16-.89Z"/><path class="cls-4" d="M801.22,787.29a1.24,1.24,0,0,1,1.37,1.37,1.53,1.53,0,0,1-.42,1.11,1.42,1.42,0,0,1-1.09.45c-1,0-1.49-.61-1.49-1.83V785.3l1-.29,0,2.28Z"/><path class="cls-4" d="M825.12,788.16h1.58v1.94h-1.82a3.93,3.93,0,0,1-3.11-1.25,4.13,4.13,0,0,1-3.14,1.25h-8.56a3.76,3.76,0,0,1-3-1.3,4.38,4.38,0,0,1-1-2.95V783l2.06-1.1v3.81c0,1.66.77,2.5,2.32,2.5h8c1.53,0,2.3-.84,2.3-2.5v-9.92l2.09-1.1v11.12A2.09,2.09,0,0,0,825.12,788.16Zm-10.57-9.74c1.38.07,2.06.75,2.06,2a1.81,1.81,0,0,1-.49,1.34,1.72,1.72,0,0,1-1.3.51h-3.17l.55-1h2.52a.77.77,0,0,0,.86-.87c0-.7-.45-1-1.34-1a2.51,2.51,0,0,0-1.27.33v-1l2-2.23h1.27Z"/><path class="cls-4" d="M838.18,788.16v1.94H825.27v-1.94h4.14a5.9,5.9,0,0,1-1.17-3.72,4.86,4.86,0,0,1,4.84-5.06,4.53,4.53,0,0,1,3.95,2v1.94a4.52,4.52,0,0,0-3.71-2.06,2.88,2.88,0,0,0-2.19.87,3.25,3.25,0,0,0-.83,2.34,3.42,3.42,0,0,0,3.64,3.65Z"/><path class="cls-4" d="M847.44,789.33a6.09,6.09,0,0,1-2.23.36,4,4,0,0,1-3.36-1.61,6.34,6.34,0,0,1,.34-7.4,4.18,4.18,0,0,1,3.21-1.3,4,4,0,0,1,3.14,1.27,4.36,4.36,0,0,1,1,3v5.23a6.23,6.23,0,0,1-1.41,4.29,4.59,4.59,0,0,1-3.57,1.48,6,6,0,0,1-2.81-.69v-1.82a5.47,5.47,0,0,0,2.52.67,2.93,2.93,0,0,0,2.25-.9A4,4,0,0,0,847.44,789.33Zm0-5.63q0-2.4-2-2.4a2.24,2.24,0,0,0-1.88.89,3.83,3.83,0,0,0-.69,2.42,4,4,0,0,0,.66,2.41,2.11,2.11,0,0,0,1.79.9,2.4,2.4,0,0,0,2.16-.89Z"/><path class="cls-4" d="M859.47,788.16h1.58v1.94h-1.82a4.38,4.38,0,0,1-2.11-.48,5.85,5.85,0,0,1-1.65,3.78,4.52,4.52,0,0,1-3.31,1.3,6,6,0,0,1-2.81-.72v-1.8a5,5,0,0,0,2.45.67,3,3,0,0,0,2.4-1,4.35,4.35,0,0,0,.86-2.85V780.8l2.06-1.11v0l0,0v6.55A2,2,0,0,0,859.47,788.16Z"/><path class="cls-4" d="M859.61,790.1v-1.94h4.22v1.94Z"/><path class="cls-4" d="M860.47,790.1v-1.94h4.22v1.94Z"/><path class="cls-4" d="M863.25,790.1v-1.94h2.16a2.09,2.09,0,0,0,2.32-2.4V782.4l2.06-1.1v4.46a2.1,2.1,0,0,0,2.35,2.4h1.11a2.1,2.1,0,0,0,2.34-2.4v-4.17l2.07-1.08v5.25a2.09,2.09,0,0,0,2.32,2.4h1.13a2.1,2.1,0,0,0,2.35-2.4v-5l2.06-1.11v5.85c0,1.74.83,2.62,2.49,2.62h2v1.94h-2.16a3.89,3.89,0,0,1-3.28-1.47,3.63,3.63,0,0,1-3.14,1.47h-1.65a4.1,4.1,0,0,0-6.21,0H871.9a3.73,3.73,0,0,1-3.14-1.42,3.63,3.63,0,0,1-3.14,1.42Zm11.67-12.66a1,1,0,0,1-1.17-1.2,1.16,1.16,0,1,1,2.32,0C876.07,777,875.69,777.44,874.92,777.44Zm1.51-2.85a.94.94,0,0,1-1-1.08,1.06,1.06,0,0,1,2.11,0A.94.94,0,0,1,876.43,774.59Zm1.54,2.85a1.05,1.05,0,0,1-1.18-1.2,1,1,0,0,1,1.18-1.17,1,1,0,0,1,1.15,1.17C879.12,777,878.74,777.44,878,777.44Z"/><path class="cls-4" d="M904,788.16h1.61v1.94h-1.83a4.52,4.52,0,0,0-6.71.48,4.06,4.06,0,0,1-3.55-1.73,4,4,0,0,1-3.14,1.25h-1.82v-1.94h1.59a2.1,2.1,0,0,0,2.34-2.4V785a6.09,6.09,0,0,1,1.37-4.27,4.56,4.56,0,0,1,6.76.38,6.54,6.54,0,0,1,1,3.89v.79A2.09,2.09,0,0,0,904,788.16Zm-6.93.47a2.14,2.14,0,0,0,1.86-1,4.65,4.65,0,0,0,.68-2.71c0-2.43-.84-3.64-2.54-3.64s-2.51,1.21-2.51,3.64S895.39,788.63,897.07,788.63Z"/><path class="cls-4" d="M904.17,790.1v-1.94h1.58a2.1,2.1,0,0,0,2.35-2.4v-5l2.06-1.11v6.14a4.25,4.25,0,0,1-1.22,3.21,4.12,4.12,0,0,1-3,1.06Zm3.86,4.77a1.19,1.19,0,0,1,0-2.38,1,1,0,0,1,1.15,1.18C909.18,794.47,908.79,794.87,908,794.87Z"/><path class="cls-4" d="M929.65,788.16h1.58v1.94h-1.82a3.8,3.8,0,0,1-3.55-1.83,4,4,0,0,1-2.85,1.11,4,4,0,0,1-3.36-1.59,5.18,5.18,0,0,1-1-3.28,5.08,5.08,0,0,1,1.41-3.74,4,4,0,0,1,2.93-1.22,3.86,3.86,0,0,1,2.28.67v-1l2.08-1.1v7.67A2.09,2.09,0,0,0,929.65,788.16Zm-4.41-5.71a2.83,2.83,0,0,0-2.19-1,2.09,2.09,0,0,0-1.72.85,3.46,3.46,0,0,0-.67,2.22,3.42,3.42,0,0,0,.67,2.22,2.14,2.14,0,0,0,1.75.84,2.66,2.66,0,0,0,2.2-1.1,6.62,6.62,0,0,1,0-.67Zm-3.1-5.9a1.19,1.19,0,0,1,0-2.37,1.19,1.19,0,0,1,0,2.37Zm3.05,0a1.19,1.19,0,0,1,0-2.37,1.19,1.19,0,0,1,0,2.37Z"/><path class="cls-4" d="M929.79,790.1v-1.94H934v1.94Z"/><path class="cls-4" d="M930.65,790.1v-1.94h4.22v1.94Z"/><path class="cls-4" d="M951.67,773l1.15-.65v1.94a1.41,1.41,0,0,1-.46,1.1,1.61,1.61,0,0,1-1.17.43,1.93,1.93,0,0,0-2.16,0,1.69,1.69,0,0,1-1.19-.43,1.41,1.41,0,0,1-.46-1.1v-.74l1.17-.65v1.32a.42.42,0,0,0,.48.48c.32,0,.48-.14.48-.41v-1l1.17-.65v1.7c0,.27.17.41.51.41a.42.42,0,0,0,.48-.48Z"/><path class="cls-4" d="M941,788.08a14.25,14.25,0,0,1,3.16-6,7.65,7.65,0,0,1,5.75-2.66,5.46,5.46,0,0,1,4.37,1.9,5.89,5.89,0,0,1,1.36,4v.62a3.92,3.92,0,0,1-4.17,4.25h-9.92a4.52,4.52,0,0,0-6.28,0h-1.82v-1.94H935a2.1,2.1,0,0,0,2.35-2.4V782.4l2.06-1.1v4.46C939.42,787.1,939.94,787.88,941,788.08Zm12.58-2.42v-.43a3.89,3.89,0,0,0-1.15-3,3.47,3.47,0,0,0-2.49-1,6,6,0,0,0-4.58,2.35,12.36,12.36,0,0,0-2.4,4.51h8.39C952.82,788.16,953.56,787.32,953.56,785.66Z"/><path class="cls-4" d="M963.63,790.1a3.94,3.94,0,0,1-3.21-1.35,4.39,4.39,0,0,1-1-2.92V775.74l2.06-1.1v11.12a2.1,2.1,0,0,0,2.35,2.4h1.58v1.94Z"/><path class="cls-4" d="M979.64,788.16h1.56v1.94h-1.58a8.88,8.88,0,0,1-3.12-.45,5.57,5.57,0,0,1-2.18-1.57,12.42,12.42,0,0,1-7.05,2H964v-1.94h3.29a9.74,9.74,0,0,0,7.69-3.22q-2-3.66-4.84-3.66a5.8,5.8,0,0,0-4,2.06v-1.92a6,6,0,0,1,4.26-2,5.82,5.82,0,0,1,3.57,1.33,11.72,11.72,0,0,1,3,3.8v1.06a11.78,11.78,0,0,1-1.42,1.51A6.3,6.3,0,0,0,979.64,788.16Zm-8.36-11.37a1.05,1.05,0,0,1-1.18-1.2,1.17,1.17,0,1,1,2.33,0C972.43,776.39,972,776.79,971.28,776.79Z"/><path class="cls-4" d="M979.76,790.1v-1.94H981c1.66,0,2.49-.88,2.49-2.62v-9.8l2.09-1.1v10.93a4.51,4.51,0,0,1-1.27,3.38,4.38,4.38,0,0,1-3.14,1.15Z"/><path class="cls-4" d="M989.92,790.1V775.74l2.06-1.1V790.1Z"/><path class="cls-4" d="M1016.19,788.16h1.58v1.94H1016a4.3,4.3,0,0,1-2.15-.51,5.32,5.32,0,0,1-2.14,3.81,6.56,6.56,0,0,1-4.1,1.25,5.8,5.8,0,0,1-4.84-2.2,6.4,6.4,0,0,1-1.32-4,5.88,5.88,0,0,1,1-3.45l2-.43a6.68,6.68,0,0,0-1.08,3.66,4.58,4.58,0,0,0,1.25,3.31,4,4,0,0,0,3,1.2,4.26,4.26,0,0,0,3.26-1.22,3.8,3.8,0,0,0,1-2.69v-8l2.06-1.11v6.07A2.1,2.1,0,0,0,1016.19,788.16Zm-8.75-8.87a1.19,1.19,0,0,1,0-2.38,1,1,0,0,1,1.15,1.18C1008.59,778.89,1008.21,779.29,1007.44,779.29Z"/><path class="cls-4" d="M1016.34,790.1v-1.94h4.22v1.94Z"/><path class="cls-4" d="M1017.2,790.1v-1.94h4.21v1.94Z"/><path class="cls-4" d="M1020,790.1v-1.94h1.58a2.1,2.1,0,0,0,2.35-2.4v-5l2.06-1.11v6.14a4.25,4.25,0,0,1-1.22,3.21,4.14,4.14,0,0,1-3,1.06Zm1.27,4.77a1.19,1.19,0,0,1,0-2.38,1,1,0,0,1,1.15,1.18C1022.4,794.47,1022,794.87,1021.25,794.87Zm3,0a1.19,1.19,0,0,1,0-2.38,1,1,0,0,1,1.15,1.18C1025.44,794.47,1025.06,794.87,1024.29,794.87Z"/><path class="cls-4" d="M1041.47,788.16v1.94h-3a4.43,4.43,0,0,1-1.77,3.4,5,5,0,0,1-3.21,1.1,6,6,0,0,1-2.81-.69v-1.82a5.47,5.47,0,0,0,2.52.67,3.39,3.39,0,0,0,2.22-.79,2.49,2.49,0,0,0,1-1.9c-.83,0-1.45-.06-1.85-.09a5.15,5.15,0,0,1-3.9-1.75,5.3,5.3,0,0,1-1.11-3.48,5.69,5.69,0,0,1,1.39-4.07,4.34,4.34,0,0,1,3.29-1.3,4.23,4.23,0,0,1,3.28,1.27,4.36,4.36,0,0,1,1,3v4.56Zm-5-4.42c0-1.63-.73-2.44-2.18-2.44a2.34,2.34,0,0,0-2,.9,4,4,0,0,0-.69,2.5q0,3.15,3.07,3.34c.38,0,1,.08,1.75.12Z"/><path class="cls-4" d="M1055.47,788.16h1.61v1.94h-1.82a4,4,0,0,1-3.14-1.27,4.11,4.11,0,0,1-3.57,1.75,4.54,4.54,0,0,0-6.69-.48H1040v-1.94h1.58a2.1,2.1,0,0,0,2.35-2.4V785a6.08,6.08,0,0,1,1.36-4.27,4.56,4.56,0,0,1,6.76.38,6.47,6.47,0,0,1,1.06,3.89v.79A2.09,2.09,0,0,0,1055.47,788.16Zm-6.92.47a2.12,2.12,0,0,0,1.85-1,4.64,4.64,0,0,0,.69-2.71q0-3.65-2.54-3.64t-2.52,3.64Q1046,788.63,1048.55,788.63Z"/><path class="cls-4" d="M1064,788.16h1.58v1.94h-1.82a4.52,4.52,0,0,0-6.28,0h-1.82v-1.94h1.58a2.1,2.1,0,0,0,2.35-2.4v-5l2.06-1.11v6.07A2.1,2.1,0,0,0,1064,788.16Zm-5.65-11.2a1.05,1.05,0,0,1-1.18-1.2,1.17,1.17,0,1,1,2.33,0C1059.48,776.56,1059.09,777,1058.33,777Zm3.06,0a1,1,0,0,1-1.17-1.2,1.16,1.16,0,1,1,2.32,0C1062.54,776.56,1062.16,777,1061.39,777Z"/><path class="cls-4" d="M1064.13,790.1v-1.94h1.27c1.66,0,2.49-.88,2.49-2.62v-9.8l2.08-1.1v10.93a4.51,4.51,0,0,1-1.27,3.38,4.37,4.37,0,0,1-3.14,1.15Z"/><path class="cls-4" d="M1074.29,790.1V775.74l2.06-1.1V790.1Z"/><path class="cls-4" d="M1090.25,790.1a3.76,3.76,0,0,1-3-1.3,4.38,4.38,0,0,1-1-2.95V783l2.06-1.1v3.81c0,1.66.77,2.5,2.33,2.5h7.95c1.55,0,2.33-.84,2.33-2.5V780.8l2.06-1.11v6.16a4.15,4.15,0,0,1-1.27,3.24,4.2,4.2,0,0,1-2.9,1Zm2.42-11.15a1,1,0,0,1-1.17-1.2,1.16,1.16,0,1,1,2.32,0C1093.82,778.55,1093.44,779,1092.67,779Zm3,0a1.05,1.05,0,0,1-1.18-1.2,1.17,1.17,0,1,1,2.33,0C1096.87,778.55,1096.48,779,1095.72,779Z"/><path class="cls-4" d="M1106.81,790.1V775.74l2.07-1.1V790.1Z"/><path class="cls-4" d="M1119.06,788.16h1.58v1.94h-1.82a4.38,4.38,0,0,1-2.11-.48,5.81,5.81,0,0,1-1.65,3.78,4.51,4.51,0,0,1-3.31,1.3,5.92,5.92,0,0,1-2.8-.72v-1.8a5,5,0,0,0,2.44.67,3,3,0,0,0,2.4-1,4.35,4.35,0,0,0,.86-2.85V780.8l2.06-1.11v0l0,0v6.55A2,2,0,0,0,1119.06,788.16Zm-3.71-11.37a1.05,1.05,0,0,1-1.18-1.2,1.17,1.17,0,1,1,2.33,0C1116.5,776.39,1116.11,776.79,1115.35,776.79Z"/><path class="cls-4" d="M1119.21,790.1v-1.94h4.21v1.94Z"/><path class="cls-4" d="M1120.06,790.1v-1.94h4.22v1.94Z"/><path class="cls-4" d="M1131.19,788.16h1.58v1.94H1131a4.52,4.52,0,0,0-6.28,0h-1.83v-1.94h1.59a2.1,2.1,0,0,0,2.35-2.4v-5l2.06-1.11v6.07A2.1,2.1,0,0,0,1131.19,788.16Zm-5.73,4.33c.76,0,1.15.4,1.15,1.2a1.17,1.17,0,1,1-2.33,0A1.05,1.05,0,0,1,1125.46,792.49Zm3,0c.77,0,1.15.4,1.15,1.2a1.16,1.16,0,1,1-2.32,0A1,1,0,0,1,1128.5,792.49Z"/><path class="cls-4" d="M1147.65,788.16h1.58v1.94h-1.82a3.93,3.93,0,0,1-3.11-1.25,4.19,4.19,0,0,1-3.19,1.25h-2.59a4.76,4.76,0,0,1-1.53-.24,5,5,0,0,1-1.54.24h-4.12v-1.94h3.09a4.55,4.55,0,0,1-.91-2.79,4,4,0,0,1,.7-2.39,5.76,5.76,0,0,1,2.27-3.38,5.3,5.3,0,0,1,3.09-.94,5.56,5.56,0,0,1,4.2,1.73,5.81,5.81,0,0,1,1.56,4.19v1.18A2.09,2.09,0,0,0,1147.65,788.16Zm-10.66-.22a2.62,2.62,0,0,0,2-2.69,2.32,2.32,0,0,0-.54-1.61,2,2,0,0,0-2.85,0,2.32,2.32,0,0,0-.54,1.61A2.62,2.62,0,0,0,1137,787.94Zm4,.22a2.16,2.16,0,0,0,1.69-.59,2.89,2.89,0,0,0,.51-1.91v-1.08a3.88,3.88,0,0,0-1.27-3.09,3.59,3.59,0,0,0-2.47-.91,3.26,3.26,0,0,0-2.59,1.08h.08a3.27,3.27,0,0,1,2.52,1,3.76,3.76,0,0,1,1,2.69,4.37,4.37,0,0,1-.93,2.79Z"/><path class="cls-4" d="M1163.42,788.16H1165v1.94h-1.58a9,9,0,0,1-3.12-.45,5.57,5.57,0,0,1-2.18-1.57,12.41,12.41,0,0,1-7,2h-3.26v-1.94h3.28a9.73,9.73,0,0,0,7.69-3.22c-1.32-2.44-2.94-3.66-4.84-3.66a5.82,5.82,0,0,0-4,2.06v-1.92a6,6,0,0,1,4.27-2,5.82,5.82,0,0,1,3.57,1.33,11.7,11.7,0,0,1,3,3.8v1.06a11.77,11.77,0,0,1-1.41,1.51A6.25,6.25,0,0,0,1163.42,788.16Zm-7.83,4.33a1,1,0,0,1,1.15,1.18c0,.8-.39,1.2-1.15,1.2a1.19,1.19,0,0,1,0-2.38Z"/><path class="cls-4" d="M1163.54,790.1v-1.94h1.59a2.1,2.1,0,0,0,2.34-2.4v-5l2.07-1.11v6.14a4.22,4.22,0,0,1-1.23,3.21,4.1,4.1,0,0,1-2.94,1.06Zm1.85-13.31a1.05,1.05,0,0,1-1.18-1.2,1,1,0,0,1,1.18-1.17,1,1,0,0,1,1.15,1.17C1166.54,776.39,1166.16,776.79,1165.39,776.79Zm3,0a1,1,0,0,1-1.17-1.2,1.16,1.16,0,1,1,2.32,0C1169.58,776.39,1169.2,776.79,1168.43,776.79Z"/><path class="cls-4" d="M1198.49,788.16h1.58v1.94h-1.82a3.93,3.93,0,0,1-3.11-1.25,4.13,4.13,0,0,1-3.14,1.25h-8.56a3.78,3.78,0,0,1-3-1.3,4.38,4.38,0,0,1-1-2.95V783l2.06-1.1v3.81c0,1.66.77,2.5,2.32,2.5h8c1.53,0,2.3-.84,2.3-2.5v-9.92l2.09-1.1v11.12A2.09,2.09,0,0,0,1198.49,788.16Zm-10.57-9.74c1.37.07,2.06.75,2.06,2a1.81,1.81,0,0,1-.49,1.34,1.73,1.73,0,0,1-1.31.51H1185l.55-1h2.52a.77.77,0,0,0,.86-.87c0-.7-.45-1-1.34-1a2.51,2.51,0,0,0-1.27.33v-1l2-2.23h1.27Z"/><path class="cls-4" d="M1198.63,790.1v-1.94h4.22v1.94Z"/><path class="cls-4" d="M1199.49,790.1v-1.94h4.22v1.94Z"/><path class="cls-4" d="M1202.27,790.1v-1.94h1.27c1.67,0,2.5-.88,2.5-2.62v-9.8l2.08-1.1v10.93a4.51,4.51,0,0,1-1.27,3.38,4.37,4.37,0,0,1-3.14,1.15Z"/><path class="cls-4" d="M1223.89,788.16h1.58v1.94h-1.82a4.38,4.38,0,0,1-2.11-.48,5.81,5.81,0,0,1-1.65,3.78,4.51,4.51,0,0,1-3.31,1.3,5.92,5.92,0,0,1-2.8-.72v-1.8a5,5,0,0,0,2.44.67,3,3,0,0,0,2.4-1,4.29,4.29,0,0,0,.86-2.85V780.8l2.06-1.11v0l0,0v6.55A2,2,0,0,0,1223.89,788.16Z"/><path class="cls-4" d="M1224,790.1v-1.94h4.21v1.94Z"/><path class="cls-4" d="M1224.9,790.1v-1.94h4.21v1.94Z"/><path class="cls-4" d="M1236.81,768.48l1.15-.65v1.94a1.43,1.43,0,0,1-.46,1.1,1.61,1.61,0,0,1-1.17.43,1.93,1.93,0,0,0-2.16,0,1.69,1.69,0,0,1-1.19-.43,1.43,1.43,0,0,1-.46-1.1V769l1.17-.65v1.32a.42.42,0,0,0,.48.48c.32,0,.48-.14.48-.41v-1l1.17-.65v1.7c0,.27.17.41.51.41a.42.42,0,0,0,.48-.48Z"/><path class="cls-4" d="M1227.67,790.1v-1.94H1232a4.89,4.89,0,0,1-1.1-3.41,5.72,5.72,0,0,1,1.36-4.07,4.12,4.12,0,0,1,3.19-1.3,4,4,0,0,1,3.16,1.27,4.4,4.4,0,0,1,1,3v2.28a4.3,4.3,0,0,1-1.17,3.14,4.15,4.15,0,0,1-3,1.08Zm9.83-6.4c0-1.6-.69-2.4-2.06-2.4a2.19,2.19,0,0,0-1.85.9,4.15,4.15,0,0,0-.67,2.5,4.35,4.35,0,0,0,.65,2.52,2,2,0,0,0,1.73.94c1.47,0,2.2-.77,2.2-2.31Zm-2-6.76a1.19,1.19,0,0,1,0-2.38,1,1,0,0,1,1.15,1.18C1236.64,776.54,1236.26,776.94,1235.49,776.94Z"/><path class="cls-4" d="M1254.83,788.16v1.94h-3a4.43,4.43,0,0,1-1.77,3.4,5.08,5.08,0,0,1-3.21,1.1,6,6,0,0,1-2.81-.69v-1.82a5.47,5.47,0,0,0,2.52.67,3.38,3.38,0,0,0,2.21-.79,2.43,2.43,0,0,0,1-1.9c-.83,0-1.44-.06-1.84-.09a5.17,5.17,0,0,1-3.91-1.75,5.35,5.35,0,0,1-1.1-3.48,5.64,5.64,0,0,1,1.39-4.07,4.33,4.33,0,0,1,3.28-1.3,4.23,4.23,0,0,1,3.29,1.27,4.36,4.36,0,0,1,1,3v4.56Zm-5.06-4.42c0-1.63-.72-2.44-2.18-2.44a2.32,2.32,0,0,0-1.94.9,4,4,0,0,0-.69,2.5q0,3.15,3.07,3.34.57.06,1.74.12Z"/><path class="cls-4" d="M1253.39,790.1v-1.94H1255a2.1,2.1,0,0,0,2.34-2.4v-5l2.07-1.11v6.14a4.22,4.22,0,0,1-1.23,3.21,4.11,4.11,0,0,1-3,1.06Zm4.89-13.31a1,1,0,0,1-1.17-1.2,1.16,1.16,0,1,1,2.32,0C1259.43,776.39,1259.05,776.79,1258.28,776.79Z"/><path class="cls-4" d="M1036.57,834.41v0a1.27,1.27,0,1,1,1.27,1.31A1.12,1.12,0,0,1,1036.57,834.36Z"/><path class="cls-4" d="M1048.77,835a16.85,16.85,0,0,0-2.76,1.87,3.14,3.14,0,0,0-1,2.32,3.2,3.2,0,0,0,1,2.49,3.92,3.92,0,0,0,2.73.94,7.56,7.56,0,0,0,4.41-1.27v1.94a8.37,8.37,0,0,1-4.5,1.27,5.5,5.5,0,0,1-4.27-1.75,5.14,5.14,0,0,1-1.39-3.66,4.48,4.48,0,0,1,.86-2.77,10.15,10.15,0,0,1,3-2.39,17.93,17.93,0,0,1-4-4.5v-1.06a8.9,8.9,0,0,1,2.76-2.62,5.85,5.85,0,0,1,6.42,0,9,9,0,0,1,2.76,2.65v1a19.67,19.67,0,0,1-4.05,4.1c.35,0,.63,0,.83,0H1058l0,1.95h-6.52A7,7,0,0,1,1048.77,835Zm-3.88-6a13.33,13.33,0,0,0,3.93,3.91,18.29,18.29,0,0,0,4.17-4,5.26,5.26,0,0,0-4-2.19A5.08,5.08,0,0,0,1044.89,829Z"/><path class="cls-4" d="M1056.61,835.56v-1.95h1.58a2.09,2.09,0,0,0,2.35-2.39v-5l2.06-1.1v6.14a4.25,4.25,0,0,1-1.22,3.21,4.17,4.17,0,0,1-3,1.06Zm1.27,4.77a1.19,1.19,0,0,1,0-2.38,1,1,0,0,1,1.15,1.18C1059,839.93,1058.65,840.33,1057.88,840.33Zm3,0a1.19,1.19,0,0,1,0-2.38,1,1,0,0,1,1.15,1.18C1062.07,839.93,1061.69,840.33,1060.92,840.33Z"/><path class="cls-4" d="M1070.46,834.29a6.37,6.37,0,0,1-1.41,4.31,4.49,4.49,0,0,1-3.57,1.56,6,6,0,0,1-2.81-.72v-1.8a5,5,0,0,0,2.45.67,2.93,2.93,0,0,0,2.39-1,4.29,4.29,0,0,0,.87-2.85v-8.18l2.08-1.1Z"/><path class="cls-4" d="M1079,835.56a3.94,3.94,0,0,1-3.21-1.35,4.39,4.39,0,0,1-1-2.92V821.2l2.06-1.11v11.13a2.09,2.09,0,0,0,2.35,2.39h1.58v1.95Z"/><path class="cls-4" d="M1079.33,835.56v-1.95h2.16a2.08,2.08,0,0,0,2.32-2.39v-3.36l2.06-1.1v4.46a2.09,2.09,0,0,0,2.35,2.39h1.11a2.09,2.09,0,0,0,2.34-2.39v-4.17l2.07-1.08v5.25a2.08,2.08,0,0,0,2.32,2.39h1.13a2.09,2.09,0,0,0,2.35-2.39v-5l2.06-1.1V831q0,2.61,2.49,2.61h2v1.95h-2.16a3.89,3.89,0,0,1-3.28-1.47,3.63,3.63,0,0,1-3.14,1.47h-1.65a4.1,4.1,0,0,0-6.21,0H1088a3.73,3.73,0,0,1-3.14-1.42,3.63,3.63,0,0,1-3.14,1.42ZM1091,822.9a1,1,0,0,1-1.17-1.2,1.16,1.16,0,1,1,2.32,0C1092.15,822.5,1091.77,822.9,1091,822.9Zm1.51-2.85a1.07,1.07,0,1,1,1.06-1.08A.94.94,0,0,1,1092.51,820.05Zm1.54,2.85a1.05,1.05,0,0,1-1.18-1.2,1,1,0,0,1,1.18-1.17,1,1,0,0,1,1.15,1.17C1095.2,822.5,1094.82,822.9,1094.05,822.9Z"/><path class="cls-4" d="M1120.08,833.61h1.6v1.95h-1.82a4.52,4.52,0,0,0-6.71.48,4.54,4.54,0,0,0-6.69-.48h-1.82v-1.95h1.58a2.09,2.09,0,0,0,2.35-2.39v-.79a6.09,6.09,0,0,1,1.37-4.27,4.56,4.56,0,0,1,6.76.38,6.54,6.54,0,0,1,1,3.89v.79A2.09,2.09,0,0,0,1120.08,833.61Zm-6.93.48a2.15,2.15,0,0,0,1.86-1,4.72,4.72,0,0,0,.68-2.71q0-3.64-2.54-3.64t-2.52,3.64Q1110.63,834.09,1113.15,834.09Z"/><path class="cls-4" d="M1120.25,835.56v-1.95h1.27q2.49,0,2.49-2.61v-9.8l2.08-1.11V831a4.52,4.52,0,0,1-1.27,3.38,4.37,4.37,0,0,1-3.14,1.15Z"/><path class="cls-4" d="M1130.41,835.56V821.2l2.06-1.11v15.47Z"/><path class="cls-4" d="M1152.48,843.27a8.22,8.22,0,0,1-4.5,1.27,6.2,6.2,0,0,1-4.63-1.79,5.25,5.25,0,0,1-1.46-3.74,5,5,0,0,1,.71-2.64,4.84,4.84,0,0,1,1.93-1.85,5.08,5.08,0,0,1-2.26-4.62,4.9,4.9,0,0,1,4.87-5.06,4.61,4.61,0,0,1,3.95,2v1.94a4.54,4.54,0,0,0-3.69-2.06,2.91,2.91,0,0,0-2.2.87,3.26,3.26,0,0,0-.84,2.34,3.41,3.41,0,0,0,3.64,3.64h4.24v1.95h-4.19a4.32,4.32,0,0,0-3.33,1.19,3.12,3.12,0,0,0-.84,2.23,3.31,3.31,0,0,0,1.16,2.63,4.56,4.56,0,0,0,3.06,1,7.37,7.37,0,0,0,4.38-1.27Z"/><path class="cls-4" d="M1155.84,835.56V821.2l2.06-1.11v15.47Z"/><path class="cls-4" d="M1173.41,833.61v1.95h-3a4.49,4.49,0,0,1-1.78,3.4,5.1,5.1,0,0,1-3.21,1.1,6,6,0,0,1-2.8-.69v-1.83a5.3,5.3,0,0,0,2.51.68,3.35,3.35,0,0,0,2.22-.8,2.43,2.43,0,0,0,1-1.89c-.83,0-1.44-.06-1.84-.09a5.17,5.17,0,0,1-3.91-1.75,5.3,5.3,0,0,1-1.1-3.48,5.64,5.64,0,0,1,1.39-4.07,4.32,4.32,0,0,1,3.28-1.3,4.21,4.21,0,0,1,3.29,1.27,4.36,4.36,0,0,1,1,2.95v4.55Zm-5.06-4.41c0-1.63-.73-2.44-2.18-2.44a2.31,2.31,0,0,0-1.94.9,4,4,0,0,0-.7,2.5c0,2.1,1,3.21,3.07,3.33.39,0,1,.09,1.75.12Z"/><path class="cls-4" d="M1172,835.56v-1.95h1.58a2.09,2.09,0,0,0,2.35-2.39v-5l2.06-1.1v6.14a4.21,4.21,0,0,1-1.22,3.21,4.15,4.15,0,0,1-3,1.06Zm4.89-13.31a1,1,0,0,1-1.17-1.2,1.16,1.16,0,1,1,2.32,0C1178,821.85,1177.63,822.25,1176.86,822.25Z"/><path class="cls-4" d="M1181,819.76l.55-1h.65a1.8,1.8,0,0,1-.24-.89,1.65,1.65,0,0,1,.52-1.23,1.71,1.71,0,0,1,1.25-.52,2,2,0,0,1,1.15.39v1a1.69,1.69,0,0,0-1-.41c-.59,0-.88.27-.88.79a1.29,1.29,0,0,0,.33.82h2.18l-.55,1Zm1.27,15.8v-13.4l2.06-1.11v14.51Z"/><path class="cls-4" d="M1211.74,833.61H1216v1.95h-5.66a6.91,6.91,0,0,1-1.63-.17,7.1,7.1,0,0,1-1.63.17h-8.87a3.79,3.79,0,0,1-3-1.3,4.38,4.38,0,0,1-1-3v-2.9l2.06-1.1v3.81c0,1.66.77,2.49,2.32,2.49h7.1a5.57,5.57,0,0,1-1.49-3.76,5.16,5.16,0,0,1,1.35-3.74,4.55,4.55,0,0,1,6.64.36,5.49,5.49,0,0,1,1,3.38A5.56,5.56,0,0,1,1211.74,833.61Zm-3-.21a3.63,3.63,0,0,0,1.81-1.42,3.86,3.86,0,0,0,.71-2.23,3.27,3.27,0,0,0-.69-2.18,2.48,2.48,0,0,0-3.66,0,3.27,3.27,0,0,0-.69,2.19,3.86,3.86,0,0,0,.71,2.23A3.59,3.59,0,0,0,1208.74,833.4Zm.12-11a1,1,0,0,1-1.17-1.2,1.16,1.16,0,1,1,2.32,0C1210,822,1209.63,822.42,1208.86,822.42Z"/><path class="cls-4" d="M1222.76,833.61h1.58v1.95h-1.82a4,4,0,0,1-3.19-1.32,4.24,4.24,0,0,1-3.3,1.32h-1.44v-1.95h1.27q2.49,0,2.49-2.61v-9.8l2.09-1.11V831a2.91,2.91,0,0,0,.54,2A2.27,2.27,0,0,0,1222.76,833.61Z"/><path class="cls-4" d="M1231.25,833.61h1.58v1.95H1231a4.52,4.52,0,0,0-6.28,0h-1.82v-1.95h1.58a2.09,2.09,0,0,0,2.35-2.39v-5l2.06-1.1v6.07A2.09,2.09,0,0,0,1231.25,833.61Zm-5.66-11.19a1,1,0,0,1-1.17-1.2,1.16,1.16,0,1,1,2.32,0C1226.74,822,1226.36,822.42,1225.59,822.42Zm3.07,0a1.05,1.05,0,0,1-1.18-1.2,1.17,1.17,0,1,1,2.33,0C1229.81,822,1229.42,822.42,1228.66,822.42Z"/><path class="cls-4" d="M1247,833.61h1.56v1.95H1247a8.86,8.86,0,0,1-3.11-.45,5.5,5.5,0,0,1-2.18-1.57,12.46,12.46,0,0,1-7,2h-3.26v-1.95h3.28a9.74,9.74,0,0,0,7.7-3.21c-1.33-2.44-2.94-3.67-4.84-3.67a5.86,5.86,0,0,0-4,2.07v-1.92a6,6,0,0,1,4.27-2,5.76,5.76,0,0,1,3.57,1.33,11.57,11.57,0,0,1,3,3.8V831a11.11,11.11,0,0,1-1.41,1.51A6.28,6.28,0,0,0,1247,833.61Zm-8.37-11.36a1,1,0,0,1-1.17-1.2,1.16,1.16,0,1,1,2.32,0C1239.8,821.85,1239.42,822.25,1238.65,822.25Z"/><path class="cls-4" d="M1251.07,829.06a3.83,3.83,0,0,1,4.12-4.22,4.06,4.06,0,0,1,3.5,1.68,6,6,0,0,1,1.06,3.69,5.73,5.73,0,0,1-1.35,4,4,4,0,0,1-3.07,1.3,4.29,4.29,0,0,1-3.28-1.2,4.09,4.09,0,0,1-3.09,1.2h-1.82v-1.95h1.58a2.09,2.09,0,0,0,2.35-2.39Zm2.06,2.32a2,2,0,0,0,2.18,2.23,2,2,0,0,0,1.76-.91,4.32,4.32,0,0,0,.64-2.54,4.15,4.15,0,0,0-.67-2.5,2.19,2.19,0,0,0-1.85-.9c-1.37,0-2.06.8-2.06,2.4Z"/></svg>