<svg id="Layer_1" data-name="Layer 1" xmlns="http://www.w3.org/2000/svg" viewBox="0 0 1920 1080"><defs><style>.cls-1{fill:#181617;}.cls-2{fill:#cf3339;}.cls-3{fill:#231f20;}</style></defs><polygon class="cls-1" points="101.72 1001.01 119.67 1028.1 71.7 1028.1 71.7 987.82 80.92 973.92 119.67 973.92 101.72 1001.01"/><path class="cls-2" d="M1080.55,439.16l6.76-3.56V454a7.53,7.53,0,0,1-8,8h-14.64a7.26,7.26,0,0,1-5.78-2.46,8.32,8.32,0,0,1-1.84-5.58v-3.36l6.72-3.56v6.6a1.46,1.46,0,0,0,1.8,1.8h13.12a2,2,0,0,0,1.44-.37,2.06,2.06,0,0,0,.37-1.43Zm-6.44,1.36a3.67,3.67,0,0,1,3,4,4.16,4.16,0,0,1-1,3,3.79,3.79,0,0,1-2.85,1.08h-6.73l1.6-3h4.8a1.1,1.1,0,0,0,1.23-1.27c0-1-.66-1.52-2-1.52a3.41,3.41,0,0,0-2.42,1v-2.7l3.65-4h3.86Z"/><path class="cls-2" d="M1104.41,430.84l3.77-2.09v5.16a3.4,3.4,0,0,1-1.19,2.69,4.45,4.45,0,0,1-3.07,1,4.69,4.69,0,0,1-2.38-.58,5.46,5.46,0,0,1-2.46.58,4.33,4.33,0,0,1-3-1,3.44,3.44,0,0,1-1.17-2.69v-2.25l3.77-2.09v4.06c0,.27.16.41.49.41s.49-.14.49-.41v-2.38l3.78-2.09v4.47c0,.27.16.41.49.41s.49-.14.49-.41Z"/><path class="cls-2" d="M1091.41,462l3.41-6.56h5.69a1.09,1.09,0,0,0,1.24-1.23q0-3.53-3.74-5.66l3.32-5.7q6.29,3.66,7.06,9.76a4.56,4.56,0,0,0,.73,2.34,2.93,2.93,0,0,0,2,.49h3V462h-3.24a9.66,9.66,0,0,1-4.92-1.23,6.62,6.62,0,0,1-4.14,1.23Z"/><path class="cls-2" d="M1115.93,465.36a3.16,3.16,0,0,1,3.36,3.36,3.44,3.44,0,0,1-.92,2.5,3.61,3.61,0,0,1-4.9,0,3.39,3.39,0,0,1-.94-2.48,3.26,3.26,0,0,1,.94-2.44A3.39,3.39,0,0,1,1115.93,465.36Zm11.52-9.88h3.81V462h-4.42a8.26,8.26,0,0,1-4.55-1.23,8.63,8.63,0,0,1-4.6,1.23h-4.43v-6.56h3.82a1.46,1.46,0,0,0,1.8-1.8V447l6.77-3.56v10.29a1.46,1.46,0,0,0,1.8,1.8Zm-4.14,9.88a3.16,3.16,0,0,1,3.36,3.36,3.44,3.44,0,0,1-.92,2.5,3.61,3.61,0,0,1-4.9,0,3.39,3.39,0,0,1-.94-2.48,3.26,3.26,0,0,1,.94-2.44A3.39,3.39,0,0,1,1123.31,465.36Z"/><path class="cls-2" d="M1130.44,462v-6.56h3.82a1.46,1.46,0,0,0,1.8-1.8V447l6.77-3.56V454a7.79,7.79,0,0,1-2.46,6.11,7.89,7.89,0,0,1-5.5,1.93Zm7.26,10.13a3.27,3.27,0,0,1-2.46-1,3.39,3.39,0,0,1-.94-2.48,3.26,3.26,0,0,1,.94-2.44,3.39,3.39,0,0,1,2.46-.92,3.16,3.16,0,0,1,3.36,3.36,3.44,3.44,0,0,1-.92,2.5A3.25,3.25,0,0,1,1137.7,472.17Z"/><path class="cls-2" d="M1168.53,462a7.63,7.63,0,0,1-6-2.46,8.12,8.12,0,0,1-1.92-5.58V439.16l6.76-3.56v18.08a1.46,1.46,0,0,0,1.81,1.8H1173V462Z"/><path class="cls-2" d="M1172.14,462v-6.56H1176a1.46,1.46,0,0,0,1.81-1.8V447l6.76-3.56V454a7.53,7.53,0,0,1-8,8Zm9.31-21.94a3.3,3.3,0,0,1-2.46-1,3.39,3.39,0,0,1-1-2.48,3.27,3.27,0,0,1,1-2.44,3.39,3.39,0,0,1,2.46-.92,3.16,3.16,0,0,1,3.36,3.36,3.44,3.44,0,0,1-.92,2.5A3.26,3.26,0,0,1,1181.45,440.1Z"/><path class="cls-2" d="M1188.62,462l3.4-6.56h5.7a1.09,1.09,0,0,0,1.23-1.23q0-3.53-3.73-5.66l3.32-5.7c4.18,2.44,6.54,5.69,7,9.76a4.54,4.54,0,0,0,.74,2.34,2.93,2.93,0,0,0,2,.49h3V462h-3.24a9.71,9.71,0,0,1-4.92-1.23A6.58,6.58,0,0,1,1199,462Z"/><path class="cls-2" d="M1211.91,472.17a3.27,3.27,0,0,1-2.46-1,3.39,3.39,0,0,1-.94-2.48,3.26,3.26,0,0,1,.94-2.44,3.39,3.39,0,0,1,2.46-.92,3.16,3.16,0,0,1,3.36,3.36,3.44,3.44,0,0,1-.92,2.5A3.27,3.27,0,0,1,1211.91,472.17ZM1210.47,462v-6.56h3.82a1.46,1.46,0,0,0,1.8-1.8V447l6.77-3.56V454a7.79,7.79,0,0,1-2.46,6.11,7.89,7.89,0,0,1-5.5,1.93Zm8.82,10.13a3.27,3.27,0,0,1-2.46-1,3.39,3.39,0,0,1-.94-2.48,3.26,3.26,0,0,1,.94-2.44,3.39,3.39,0,0,1,2.46-.92,3.16,3.16,0,0,1,3.36,3.36,3.44,3.44,0,0,1-.92,2.5A3.27,3.27,0,0,1,1219.29,472.17Z"/><path class="cls-3" d="M567.67,505.56h1.58v1.94h-1.82a4.63,4.63,0,0,1-2.33-.58,5.59,5.59,0,0,1-2.23,3.89,6.77,6.77,0,0,1-4.15,1.24,6,6,0,0,1-5-2.15,6.26,6.26,0,0,1-1.34-4,6.05,6.05,0,0,1,1-3.47l2.06-.46a6.75,6.75,0,0,0-1.1,3.72,4.46,4.46,0,0,0,1.27,3.26,4.21,4.21,0,0,0,3.09,1.17,4.3,4.3,0,0,0,3.36-1.29,4.05,4.05,0,0,0,1-2.83V493.14l2.08-1.1v11.12C565.17,504.76,566,505.56,567.67,505.56Z"/><path class="cls-3" d="M567.81,507.5v-1.94H572v1.94Z"/><path class="cls-3" d="M569.56,507.5v-1.94h4.22v1.94Z"/><path class="cls-3" d="M584.18,505.56h6.33v1.94H584a6.91,6.91,0,0,0-5.16,0h-6.49v-1.94H579a19.32,19.32,0,0,1-3.55-4.15v-1.05a9,9,0,0,1,2.75-2.62,5.78,5.78,0,0,1,6.41,0,9.16,9.16,0,0,1,2.78,2.64v1a18.54,18.54,0,0,1-3.57,4.15Zm-6.81-4.65a13.15,13.15,0,0,0,4,4,13.43,13.43,0,0,0,4.05-4,5.26,5.26,0,0,0-4.07-2.2A5.06,5.06,0,0,0,577.37,500.91Z"/><path class="cls-3" d="M589.07,507.5v-1.94h3.28a9.74,9.74,0,0,0,7.7-3.21q-2-3.68-4.84-3.67a5.88,5.88,0,0,0-4,2.06v-1.92a6,6,0,0,1,4.27-2,5.78,5.78,0,0,1,3.57,1.34,11.42,11.42,0,0,1,3,3.79V503a11.65,11.65,0,0,1-9.75,4.53Zm7,4.77a1,1,0,0,1-1.17-1.2,1.16,1.16,0,1,1,2.32,0C597.24,511.87,596.86,512.27,596.09,512.27Z"/><path class="cls-3" d="M615.2,507.5a4,4,0,0,1-3.22-1.34,4.42,4.42,0,0,1-1-2.93V493.14l2.07-1.1v11.12a2.1,2.1,0,0,0,2.34,2.4H617v1.94Z"/><path class="cls-3" d="M615.58,507.5v-1.94h4.22v1.94Z"/><path class="cls-3" d="M617.33,507.5v-1.94h4.22v1.94Z"/><path class="cls-3" d="M624,501a4.17,4.17,0,0,1,1.25-3.23,4.12,4.12,0,0,1,2.87-1,4.06,4.06,0,0,1,3.5,1.68,6,6,0,0,1,1.06,3.69,5.77,5.77,0,0,1-1.34,4.05,4,4,0,0,1-3.07,1.3,4.3,4.3,0,0,1-3.29-1.2,4.07,4.07,0,0,1-3.09,1.2h-1.82v-1.94h1.58a2.1,2.1,0,0,0,2.35-2.4Zm2.06,2.33a2,2,0,0,0,2.18,2.23,2,2,0,0,0,1.76-.91,4.36,4.36,0,0,0,.64-2.54,4.11,4.11,0,0,0-.67-2.51,2.18,2.18,0,0,0-1.85-.9c-1.37,0-2.06.8-2.06,2.4Z"/><path class="cls-3" d="M642.26,507.5V493.14l2.06-1.1V507.5Z"/><path class="cls-3" d="M646.71,507.5l1-1.94H652a1.65,1.65,0,0,0,1.35-.48,2.6,2.6,0,0,0,.4-1.66,5.17,5.17,0,0,0-3-4.79l1.05-1.77a7.16,7.16,0,0,1,3.93,6.08,3.06,3.06,0,0,0,.64,2,2.54,2.54,0,0,0,1.88.61h1.42v1.94h-1.59a3.93,3.93,0,0,1-3.11-1.27,2.89,2.89,0,0,1-2.66,1.27Zm5.21-13.3a1.19,1.19,0,0,1,0-2.38,1,1,0,0,1,1.15,1.18C653.07,493.8,652.68,494.2,651.92,494.2Z"/><path class="cls-3" d="M658.27,507.5v-1.94h4.22v1.94Z"/><path class="cls-3" d="M660,507.5v-1.94h4.22v1.94Z"/><path class="cls-3" d="M665.67,500.38A5.82,5.82,0,0,1,668,497a5.36,5.36,0,0,1,3.09-.93,5.57,5.57,0,0,1,4.2,1.72,5.83,5.83,0,0,1,1.55,4.2v1.27a4.09,4.09,0,0,1-1.29,3.23,4.23,4.23,0,0,1-2.92,1H670a4.82,4.82,0,0,1-1.54-.24,4.9,4.9,0,0,1-1.53.24H662.8v-1.94h3.09a4.52,4.52,0,0,1-.91-2.78A4.07,4.07,0,0,1,665.67,500.38Zm2.78,5a2.63,2.63,0,0,0,2-2.68,2.37,2.37,0,0,0-.54-1.62,1.81,1.81,0,0,0-1.43-.61A1.79,1.79,0,0,0,667,501a2.37,2.37,0,0,0-.54,1.62A2.62,2.62,0,0,0,668.45,505.34Zm6.26-2.28V502a3.88,3.88,0,0,0-1.27-3.1A3.64,3.64,0,0,0,671,498a3.24,3.24,0,0,0-2.59,1.08h.07a3.28,3.28,0,0,1,2.53,1,3.82,3.82,0,0,1,.95,2.7,4.31,4.31,0,0,1-.94,2.78h1.51a2.14,2.14,0,0,0,1.69-.59A2.83,2.83,0,0,0,674.71,503.06Z"/><path class="cls-3" d="M687.25,504.69a1.24,1.24,0,0,1,1.36,1.37,1.57,1.57,0,0,1-.42,1.12,1.45,1.45,0,0,1-1.09.44c-1,0-1.48-.61-1.48-1.82v-3.09l1-.29,0,2.27Z"/><path class="cls-3" d="M699.25,490.6l1.15-.65v1.95A1.47,1.47,0,0,1,700,493a1.65,1.65,0,0,1-1.18.43,1.71,1.71,0,0,1-1.07-.34,1.76,1.76,0,0,1-1.08.34,1.67,1.67,0,0,1-1.19-.43,1.45,1.45,0,0,1-.47-1.1v-.75l1.18-.65v1.32a.42.42,0,0,0,.48.48c.32,0,.48-.13.48-.4v-1.06l1.17-.65v1.71c0,.27.17.4.5.4a.42.42,0,0,0,.48-.48Z"/><path class="cls-3" d="M704.46,505.56h1.6v1.94h-1.82a4.07,4.07,0,0,1-3.09-1.2,4.4,4.4,0,0,1-3.19,1.2h-3.14a2.1,2.1,0,0,0-2.35,2.4V514l-2.06,1.1v-5.23a4.25,4.25,0,0,1,1.15-3.14,3.92,3.92,0,0,1,2.73-1.12,6.39,6.39,0,0,1-.86-3.41,5.68,5.68,0,0,1,1.37-4.07,4.21,4.21,0,0,1,3.21-1.3,3.93,3.93,0,0,1,3.14,1.28,4.33,4.33,0,0,1,1,2.94v2.16A2.09,2.09,0,0,0,704.46,505.56Zm-4.39-2.23V501.1c0-1.6-.69-2.4-2.06-2.4a2.17,2.17,0,0,0-1.86.9,4.18,4.18,0,0,0-.66,2.51,4.52,4.52,0,0,0,.62,2.54,2,2,0,0,0,1.75.91A2,2,0,0,0,700.07,503.33Z"/><path class="cls-3" d="M704.62,507.5v-1.94h4.22v1.94Z"/><path class="cls-3" d="M706.37,507.5v-1.94h4.22v1.94Z"/><path class="cls-3" d="M712,500.38a5.82,5.82,0,0,1,2.28-3.38,5.36,5.36,0,0,1,3.09-.93,5.55,5.55,0,0,1,4.19,1.72,5.84,5.84,0,0,1,1.56,4.2v1.27a4.09,4.09,0,0,1-1.29,3.23,4.24,4.24,0,0,1-2.93,1h-2.59a4.81,4.81,0,0,1-1.53-.24,5,5,0,0,1-1.53.24h-4.13v-1.94h3.1a4.53,4.53,0,0,1-.92-2.78A4.08,4.08,0,0,1,712,500.38Zm2.78,5a2.63,2.63,0,0,0,2-2.68,2.37,2.37,0,0,0-.54-1.62,2,2,0,0,0-2.86,0,2.37,2.37,0,0,0-.54,1.62A2.63,2.63,0,0,0,714.81,505.34Zm6.26-2.28V502a3.92,3.92,0,0,0-1.27-3.1,3.64,3.64,0,0,0-2.47-.91,3.23,3.23,0,0,0-2.59,1.08h.07a3.29,3.29,0,0,1,2.53,1,3.82,3.82,0,0,1,.95,2.7,4.37,4.37,0,0,1-.94,2.78h1.51a2.15,2.15,0,0,0,1.69-.59A2.89,2.89,0,0,0,721.07,503.06Z"/><path class="cls-3" d="M735.88,493.14,738,492V503a4.51,4.51,0,0,1-1.27,3.38,4.32,4.32,0,0,1-3.14,1.15h-8.24l1-1.94h3.5v-9.3l2.07-1.11v10.41h1.5c1.67,0,2.5-.87,2.5-2.62Zm-3-.84-.56,1h-4l.55-1h.65a1.85,1.85,0,0,1-.24-.91,1.61,1.61,0,0,1,.53-1.21,1.71,1.71,0,0,1,1.24-.51,1.93,1.93,0,0,1,1.15.38v1.05a1.65,1.65,0,0,0-1-.4c-.6,0-.89.26-.89.79a1.28,1.28,0,0,0,.33.81Z"/><path class="cls-3" d="M742.28,507.5V493.14l2.06-1.1V507.5Z"/><path class="cls-3" d="M758.41,507.5a4,4,0,0,1-3.21-1.34,4.42,4.42,0,0,1-1-2.93V493.14l2.06-1.1v11.12a2.1,2.1,0,0,0,2.35,2.4h1.58v1.94Z"/><path class="cls-3" d="M767.13,505.56h1.59v1.94h-1.83a4.52,4.52,0,0,0-6.28,0h-1.82v-1.94h1.59a2.1,2.1,0,0,0,2.34-2.4v-5l2.07-1.1v6.06A2.1,2.1,0,0,0,767.13,505.56Zm-3.78-11.36a1.19,1.19,0,0,1,0-2.38A1,1,0,0,1,764.5,493C764.5,493.8,764.11,494.2,763.35,494.2Z"/><path class="cls-3" d="M780.2,505.56v1.94H767.28v-1.94h4.14a5.9,5.9,0,0,1-1.17-3.72,4.86,4.86,0,0,1,4.84-5.06,4.56,4.56,0,0,1,4,2v1.94a4.55,4.55,0,0,0-3.72-2.06,2.85,2.85,0,0,0-2.19.88,3.26,3.26,0,0,0-.83,2.33,3.44,3.44,0,0,0,3.64,3.65Z"/><path class="cls-3" d="M789.45,506.73a6.09,6.09,0,0,1-2.23.36,4,4,0,0,1-3.36-1.6,5.61,5.61,0,0,1-1-3.43,5.54,5.54,0,0,1,1.37-4,4.21,4.21,0,0,1,3.21-1.3,3.92,3.92,0,0,1,3.14,1.28,4.28,4.28,0,0,1,1,2.94v5.23a6.23,6.23,0,0,1-1.41,4.29,4.6,4.6,0,0,1-3.57,1.49,6,6,0,0,1-2.81-.7v-1.82a5.35,5.35,0,0,0,2.52.67,2.93,2.93,0,0,0,2.25-.9A4,4,0,0,0,789.45,506.73Zm0-5.63q0-2.4-2-2.4a2.24,2.24,0,0,0-1.88.89,3.85,3.85,0,0,0-.68,2.42,4,4,0,0,0,.65,2.41,2.11,2.11,0,0,0,1.79.9,2.39,2.39,0,0,0,2.16-.89Z"/><path class="cls-3" d="M801.48,505.56h1.58v1.94h-1.82a4.38,4.38,0,0,1-2.11-.48,5.85,5.85,0,0,1-1.65,3.79,4.54,4.54,0,0,1-3.31,1.29,5.92,5.92,0,0,1-2.8-.72v-1.8a5,5,0,0,0,2.44.68,3,3,0,0,0,2.4-1,4.31,4.31,0,0,0,.86-2.85V498.2l2.06-1.1v0l0,0v6.54A2,2,0,0,0,801.48,505.56Z"/><path class="cls-3" d="M801.62,507.5v-1.94h4.22v1.94Z"/><path class="cls-3" d="M803.37,507.5v-1.94h4.22v1.94Z"/><path class="cls-3" d="M806.15,507.5v-1.94h2.16a2.09,2.09,0,0,0,2.33-2.4V499.8l2.06-1.1v4.46a2.1,2.1,0,0,0,2.35,2.4h1.1a2.1,2.1,0,0,0,2.35-2.4V499l2.06-1.08v5.25a2.09,2.09,0,0,0,2.32,2.4H824a2.1,2.1,0,0,0,2.35-2.4v-5l2.06-1.1v5.84c0,1.75.83,2.62,2.49,2.62h2v1.94h-2.15a3.91,3.91,0,0,1-3.29-1.46,3.62,3.62,0,0,1-3.14,1.46h-1.65a4.1,4.1,0,0,0-6.21,0h-1.65a3.69,3.69,0,0,1-3.14-1.42,3.63,3.63,0,0,1-3.14,1.42Zm11.68-12.66a1.05,1.05,0,0,1-1.18-1.2,1.17,1.17,0,1,1,2.33,0C819,494.44,818.59,494.84,817.83,494.84Zm1.51-2.85a.94.94,0,0,1-1.06-1.08,1.06,1.06,0,0,1,2.11,0A.94.94,0,0,1,819.34,492Zm1.53,2.85a1,1,0,0,1-1.17-1.2,1.16,1.16,0,1,1,2.32,0C822,494.44,821.64,494.84,820.87,494.84Z"/><path class="cls-3" d="M835.4,501a3.85,3.85,0,0,1,4.12-4.22,4.07,4.07,0,0,1,3.5,1.68,6.06,6.06,0,0,1,1.05,3.69,5.72,5.72,0,0,1-1.34,4.05,3.93,3.93,0,0,1-3.07,1.3,4.28,4.28,0,0,1-3.28-1.2,4.09,4.09,0,0,1-3.09,1.2h-1.82v-1.94h1.58a2.1,2.1,0,0,0,2.35-2.4Zm2.06,2.33a2,2,0,0,0,2.18,2.23,2,2,0,0,0,1.76-.91,4.44,4.44,0,0,0,.64-2.54,4.18,4.18,0,0,0-.67-2.51,2.19,2.19,0,0,0-1.85-.9c-1.38,0-2.06.8-2.06,2.4Z"/><path class="cls-3" d="M857.59,507.5a4.2,4.2,0,0,1-3.4-1.46,4.93,4.93,0,0,1-1.06-3.24,6,6,0,0,1,1.19-3.7,6.86,6.86,0,0,1,3.39-2.32,6.7,6.7,0,0,1,3.5,2.5,5.93,5.93,0,0,1,1.06,3.52,4.7,4.7,0,0,1-1.35,3.57,4.34,4.34,0,0,1-3.09,1.13Zm-.07-1.94h.36a2.12,2.12,0,0,0,1.71-.75,2.89,2.89,0,0,0,.64-2,2.83,2.83,0,1,0-5,0,3,3,0,0,0,.62,2A2.08,2.08,0,0,0,857.52,505.56Z"/><path class="cls-3" d="M872,505.56h1.59v1.94h-1.83a4.41,4.41,0,0,1-2.11-.48,5.85,5.85,0,0,1-1.65,3.79,4.54,4.54,0,0,1-3.31,1.29,6,6,0,0,1-2.8-.72v-1.8a5,5,0,0,0,2.44.68,2.94,2.94,0,0,0,2.4-1,4.26,4.26,0,0,0,.86-2.85V498.2l2.06-1.1v0l0,0v6.54A2,2,0,0,0,872,505.56Z"/><path class="cls-3" d="M872.12,507.5v-1.94h4.22v1.94Z"/><path class="cls-3" d="M873.87,507.5v-1.94h4.22v1.94Z"/><path class="cls-3" d="M885,505.56h1.58v1.94h-1.82a4.52,4.52,0,0,0-6.28,0h-1.82v-1.94h1.58a2.1,2.1,0,0,0,2.35-2.4v-5l2.06-1.1v6.06A2.1,2.1,0,0,0,885,505.56Zm-3.53,4.34a1,1,0,0,1,1.16,1.17,1.17,1.17,0,1,1-2.33,0A1,1,0,0,1,881.46,509.9Z"/><path class="cls-3" d="M893.47,505.56h1.58v1.94h-1.82a4.52,4.52,0,0,0-6.28,0h-1.82v-1.94h1.58a2.1,2.1,0,0,0,2.35-2.4v-5l2.06-1.1v6.06A2.1,2.1,0,0,0,893.47,505.56Zm-5.65-11.2a1.19,1.19,0,0,1,0-2.37,1.19,1.19,0,0,1,0,2.37Zm3.06,0a1.19,1.19,0,1,1,1.16-1.19A1,1,0,0,1,890.88,494.36Z"/><path class="cls-3" d="M905.46,505.56h6.33v1.94h-6.52a6.91,6.91,0,0,0-5.16,0h-6.49v-1.94h6.66a19.32,19.32,0,0,1-3.55-4.15v-1.05a8.89,8.89,0,0,1,2.75-2.62,5.78,5.78,0,0,1,6.41,0,9.16,9.16,0,0,1,2.78,2.64v1a18.8,18.8,0,0,1-3.57,4.15Zm-6.81-4.65a13.15,13.15,0,0,0,4.05,4,13.43,13.43,0,0,0,4-4,5.28,5.28,0,0,0-4.07-2.2A5.06,5.06,0,0,0,898.65,500.91Z"/><path class="cls-3" d="M910.35,507.5v-1.94h1.58a2.1,2.1,0,0,0,2.35-2.4v-5l2.06-1.1v6.13a4.25,4.25,0,0,1-1.22,3.21,4.12,4.12,0,0,1-3,1.06Zm4.89-13.3a1.19,1.19,0,0,1,0-2.38,1,1,0,0,1,1.15,1.18C916.39,493.8,916,494.2,915.24,494.2Z"/><path class="cls-3" d="M926.55,506.73a6.09,6.09,0,0,1-2.23.36,4,4,0,0,1-3.35-1.6,6.37,6.37,0,0,1,.33-7.41,4.24,4.24,0,0,1,3.21-1.3,3.92,3.92,0,0,1,3.14,1.28,4.29,4.29,0,0,1,1,2.94v5.23a6.19,6.19,0,0,1-1.42,4.29,4.57,4.57,0,0,1-3.57,1.49,5.93,5.93,0,0,1-2.8-.7v-1.82a5.28,5.28,0,0,0,2.51.67,2.94,2.94,0,0,0,2.26-.9A3.94,3.94,0,0,0,926.55,506.73Zm0-5.63q0-2.4-2-2.4a2.25,2.25,0,0,0-1.88.89A3.91,3.91,0,0,0,922,502a4,4,0,0,0,.66,2.41,2.09,2.09,0,0,0,1.78.9,2.38,2.38,0,0,0,2.16-.89Z"/><path class="cls-3" d="M939.33,504.69a1.24,1.24,0,0,1,1.36,1.37,1.57,1.57,0,0,1-.42,1.12,1.45,1.45,0,0,1-1.09.44c-1,0-1.48-.61-1.48-1.82v-3.09l1-.29,0,2.27Z"/><path class="cls-3" d="M963.22,505.56h1.59v1.94H963a3.93,3.93,0,0,1-3.11-1.25,4.13,4.13,0,0,1-3.14,1.25h-8.56a3.76,3.76,0,0,1-3-1.3,4.37,4.37,0,0,1-1-2.94v-2.9l2.06-1.11v3.81c0,1.67.77,2.5,2.32,2.5h8c1.54,0,2.3-.83,2.3-2.5v-9.92l2.09-1.1v11.12A2.09,2.09,0,0,0,963.22,505.56Zm-10.57-9.73c1.38.06,2.06.74,2.06,2a1.85,1.85,0,0,1-.49,1.35,1.74,1.74,0,0,1-1.3.5h-3.17l.55-1h2.52a.76.76,0,0,0,.86-.86c0-.71-.44-1.06-1.34-1.06a2.44,2.44,0,0,0-1.27.34v-1l2-2.23h1.28Z"/><path class="cls-3" d="M976.29,505.56v1.94H963.37v-1.94h4.14a5.9,5.9,0,0,1-1.17-3.72,4.86,4.86,0,0,1,4.84-5.06,4.56,4.56,0,0,1,4,2v1.94a4.55,4.55,0,0,0-3.72-2.06,2.85,2.85,0,0,0-2.19.88,3.26,3.26,0,0,0-.83,2.33,3.44,3.44,0,0,0,3.64,3.65Z"/><path class="cls-3" d="M985.54,506.73a6.09,6.09,0,0,1-2.23.36,4,4,0,0,1-3.36-1.6,5.61,5.61,0,0,1-1-3.43,5.54,5.54,0,0,1,1.37-4,4.21,4.21,0,0,1,3.21-1.3,3.92,3.92,0,0,1,3.14,1.28,4.28,4.28,0,0,1,1,2.94v5.23a6.23,6.23,0,0,1-1.41,4.29,4.6,4.6,0,0,1-3.57,1.49,6,6,0,0,1-2.81-.7v-1.82a5.35,5.35,0,0,0,2.52.67,2.93,2.93,0,0,0,2.25-.9A4,4,0,0,0,985.54,506.73Zm0-5.63q0-2.4-2-2.4a2.24,2.24,0,0,0-1.88.89,3.85,3.85,0,0,0-.68,2.42,4,4,0,0,0,.65,2.41,2.11,2.11,0,0,0,1.79.9,2.39,2.39,0,0,0,2.16-.89Z"/><path class="cls-3" d="M997.57,505.56h1.58v1.94h-1.82a4.38,4.38,0,0,1-2.11-.48,5.85,5.85,0,0,1-1.65,3.79,4.54,4.54,0,0,1-3.31,1.29,5.92,5.92,0,0,1-2.8-.72v-1.8a5,5,0,0,0,2.44.68,3,3,0,0,0,2.4-1,4.31,4.31,0,0,0,.86-2.85V498.2l2.06-1.1v0l0,0v6.54A2,2,0,0,0,997.57,505.56Z"/><path class="cls-3" d="M997.71,507.5v-1.94h4.22v1.94Z"/><path class="cls-3" d="M999.46,507.5v-1.94h4.22v1.94Z"/><path class="cls-3" d="M1002.24,507.5v-1.94h2.16a2.09,2.09,0,0,0,2.33-2.4V499.8l2.06-1.1v4.46a2.1,2.1,0,0,0,2.35,2.4h1.1a2.1,2.1,0,0,0,2.35-2.4V499l2.06-1.08v5.25a2.09,2.09,0,0,0,2.32,2.4h1.13a2.1,2.1,0,0,0,2.35-2.4v-5l2.06-1.1v5.84c0,1.75.83,2.62,2.49,2.62h2v1.94h-2.15a3.91,3.91,0,0,1-3.29-1.46,3.63,3.63,0,0,1-3.14,1.46h-1.65a4.1,4.1,0,0,0-6.21,0h-1.65a3.69,3.69,0,0,1-3.14-1.42,3.63,3.63,0,0,1-3.14,1.42Zm11.68-12.66a1.05,1.05,0,0,1-1.18-1.2,1.17,1.17,0,1,1,2.33,0C1015.07,494.44,1014.68,494.84,1013.92,494.84Zm1.51-2.85a.94.94,0,0,1-1.06-1.08,1.06,1.06,0,0,1,2.11,0A.94.94,0,0,1,1015.43,492Zm1.53,2.85a1,1,0,0,1-1.17-1.2,1.16,1.16,0,1,1,2.32,0C1018.11,494.44,1017.73,494.84,1017,494.84Z"/><path class="cls-3" d="M1031.49,501a3.85,3.85,0,0,1,4.12-4.22,4.07,4.07,0,0,1,3.5,1.68,6.06,6.06,0,0,1,1.05,3.69,5.72,5.72,0,0,1-1.34,4.05,3.93,3.93,0,0,1-3.07,1.3,4.28,4.28,0,0,1-3.28-1.2,4.09,4.09,0,0,1-3.09,1.2h-1.82v-1.94h1.58a2.1,2.1,0,0,0,2.35-2.4Zm2.06,2.33a2,2,0,0,0,2.18,2.23,2,2,0,0,0,1.76-.91,4.44,4.44,0,0,0,.64-2.54,4.18,4.18,0,0,0-.67-2.51,2.19,2.19,0,0,0-1.85-.9c-1.38,0-2.06.8-2.06,2.4Z"/><path class="cls-3" d="M1055.07,506.92a17.26,17.26,0,0,0-2.75,1.87,3.13,3.13,0,0,0-1,2.33,3.18,3.18,0,0,0,1.05,2.48,4,4,0,0,0,2.73.95,7.63,7.63,0,0,0,4.41-1.27v1.94a8.46,8.46,0,0,1-4.5,1.27,5.53,5.53,0,0,1-4.27-1.75,5.16,5.16,0,0,1-1.39-3.67,4.48,4.48,0,0,1,.86-2.77,10.15,10.15,0,0,1,3-2.38,18,18,0,0,1-4-4.51v-1.05a8.94,8.94,0,0,1,2.76-2.63,5.82,5.82,0,0,1,6.42,0,9,9,0,0,1,2.76,2.64v1a19.43,19.43,0,0,1-4,4.1c.35,0,.63.05.84.05h6.32l0,1.94h-6.52A6.87,6.87,0,0,1,1055.07,506.92Zm-3.88-6a13.27,13.27,0,0,0,3.93,3.9,18.29,18.29,0,0,0,4.17-3.95,5.21,5.21,0,0,0-4-2.18A5.08,5.08,0,0,0,1051.19,500.91Z"/><path class="cls-3" d="M1062.91,507.5v-1.94h4.22v1.94Z"/><path class="cls-3" d="M1064.66,507.5v-1.94h4.22v1.94Z"/><path class="cls-3" d="M1071.37,501a4.17,4.17,0,0,1,1.25-3.23,4.12,4.12,0,0,1,2.87-1,4.06,4.06,0,0,1,3.5,1.68,6,6,0,0,1,1.06,3.69,5.77,5.77,0,0,1-1.34,4.05,4,4,0,0,1-3.07,1.3,4.3,4.3,0,0,1-3.29-1.2,4.06,4.06,0,0,1-3.09,1.2h-1.82v-1.94H1069a2.1,2.1,0,0,0,2.35-2.4Zm2.06,2.33a2,2,0,0,0,2.18,2.23,2.07,2.07,0,0,0,1.77-.91,4.44,4.44,0,0,0,.63-2.54,4.11,4.11,0,0,0-.67-2.51,2.18,2.18,0,0,0-1.85-.9c-1.37,0-2.06.8-2.06,2.4Z"/><path class="cls-3" d="M1108.67,505.56h1.1v1.94h-1.34a4.57,4.57,0,0,0-6.28,0h-8.56a3.76,3.76,0,0,1-3-1.3,4.37,4.37,0,0,1-1-2.94v-2.9l2.06-1.11v3.81c0,1.67.77,2.5,2.32,2.5h8c1.55,0,2.33-.83,2.33-2.5V498.2l2.06-1.1v6.06A2.1,2.1,0,0,0,1108.67,505.56ZM1096,496.35a1,1,0,0,1-1.17-1.2,1.16,1.16,0,1,1,2.32,0C1097.16,496,1096.78,496.35,1096,496.35Zm3,0a1,1,0,0,1-1.17-1.2,1.17,1.17,0,1,1,2.33,0A1,1,0,0,1,1099.05,496.35Z"/><path class="cls-3" d="M1108.33,507.5v-1.94h4.22v1.94Z"/><path class="cls-3" d="M1110.08,507.5v-1.94h4.22v1.94Z"/><path class="cls-3" d="M1121.2,505.56h1.58v1.94H1121a4.52,4.52,0,0,0-6.28,0h-1.82v-1.94h1.58a2.1,2.1,0,0,0,2.35-2.4v-5l2.06-1.1v6.06A2.1,2.1,0,0,0,1121.2,505.56Zm-5.73,4.34a1.19,1.19,0,1,1-1.17,1.19A1,1,0,0,1,1115.47,509.9Zm3,0a1.19,1.19,0,1,1-1.18,1.19A1,1,0,0,1,1118.52,509.9Z"/><path class="cls-3" d="M1126.07,497.36h.14a5.93,5.93,0,0,1,4.39,1.68,5.18,5.18,0,0,1,1.53,3.86v.4a4.12,4.12,0,0,1-1.27,3.22,4.28,4.28,0,0,1-2.9,1h-6.61v-1.94h6.42c1.53,0,2.3-.81,2.3-2.42v-.22a3.11,3.11,0,0,0-1.39-2.73,4.64,4.64,0,0,0-2.68-.74,7.78,7.78,0,0,0-2.57.45v-2l5.25-5.82h2.11Z"/><path class="cls-3" d="M1155.14,507.5a4.49,4.49,0,0,1-2.3,3.38,9.27,9.27,0,0,1-4.89,1.17,7.14,7.14,0,0,1-5.7-2.2,6.41,6.41,0,0,1-.41-7.48l2-.43a6.72,6.72,0,0,0-1.08,3.67,4.21,4.21,0,0,0,1.39,3.35,5.49,5.49,0,0,0,3.81,1.22,7.11,7.11,0,0,0,3.4-.72,2.93,2.93,0,0,0,1.63-2h-2.39l1-1.94h3.62v1.94Zm-8.8,8.8a1.19,1.19,0,0,1,0-2.38,1,1,0,0,1,1.16,1.18A1,1,0,0,1,1146.34,516.3Zm3.05,0a1.19,1.19,0,0,1,0-2.38,1,1,0,0,1,1.15,1.18C1150.54,515.9,1150.16,516.3,1149.39,516.3Z"/><path class="cls-3" d="M1153.94,507.5v-1.94h4.22v1.94Z"/><path class="cls-3" d="M1155.69,507.5v-1.94h4.22v1.94Z"/><path class="cls-3" d="M1158.47,507.5v-1.94h4.32a4.89,4.89,0,0,1-1.1-3.41,5.72,5.72,0,0,1,1.36-4.07,4.15,4.15,0,0,1,3.19-1.3,4,4,0,0,1,3.16,1.28,4.37,4.37,0,0,1,1,2.94v2.28a4.28,4.28,0,0,1-1.17,3.14,4.15,4.15,0,0,1-3,1.08Zm9.83-6.4c0-1.6-.69-2.4-2.06-2.4a2.19,2.19,0,0,0-1.85.9,4.18,4.18,0,0,0-.67,2.51,4.34,4.34,0,0,0,.65,2.51,2,2,0,0,0,1.73.94c1.47,0,2.2-.77,2.2-2.3Zm-2-6.76a1.05,1.05,0,0,1-1.18-1.2,1.17,1.17,0,1,1,2.33,0C1167.44,493.94,1167.05,494.34,1166.29,494.34Z"/><path class="cls-3" d="M1197.52,505.56h4.29v1.94h-5.66a6.91,6.91,0,0,1-1.63-.17,7,7,0,0,1-1.63.17H1184a3.76,3.76,0,0,1-3-1.3,4.37,4.37,0,0,1-1-2.94v-2.9l2.06-1.11v3.81c0,1.67.78,2.5,2.33,2.5h7.09a5.6,5.6,0,0,1-1.48-3.77,5.11,5.11,0,0,1,1.34-3.73,4.53,4.53,0,0,1,6.64.35,5.51,5.51,0,0,1,1,3.38A5.6,5.6,0,0,1,1197.52,505.56Zm-3-.22a3.57,3.57,0,0,0,1.81-1.41,3.88,3.88,0,0,0,.71-2.23,3.31,3.31,0,0,0-.68-2.18,2.47,2.47,0,0,0-3.67,0,3.23,3.23,0,0,0-.68,2.19,3.87,3.87,0,0,0,.7,2.23A3.61,3.61,0,0,0,1194.52,505.34Zm.12-11a1.19,1.19,0,0,1,0-2.37,1.19,1.19,0,0,1,0,2.37Z"/><path class="cls-3" d="M1200.37,507.5v-1.94h4.22v1.94Z"/><path class="cls-3" d="M1202.12,507.5v-1.94h4.22v1.94Z"/><path class="cls-3" d="M1215.38,505.56h4.45v1.94H1214a7.9,7.9,0,0,0-3.26,0h-5.83v-1.94h4.46a5.62,5.62,0,0,1-1.49-3.77,5.18,5.18,0,0,1,1.32-3.73,4.14,4.14,0,0,1,3.17-1.28,4.09,4.09,0,0,1,3.47,1.63,5.4,5.4,0,0,1,1,3.38A5.6,5.6,0,0,1,1215.38,505.56Zm-4.53-11.2a1.19,1.19,0,0,1,0-2.37,1.19,1.19,0,0,1,0,2.37Zm1.53,11a3.57,3.57,0,0,0,1.8-1.4,3.92,3.92,0,0,0,.69-2.24,3.28,3.28,0,0,0-.68-2.19,2.47,2.47,0,0,0-3.67,0,3.31,3.31,0,0,0-.68,2.18,3.82,3.82,0,0,0,.72,2.23A3.63,3.63,0,0,0,1212.38,505.34Zm1.51-11a1.19,1.19,0,0,1,0-2.37,1.19,1.19,0,0,1,0,2.37Z"/><path class="cls-3" d="M1218.4,507.5v-1.94H1220a2.1,2.1,0,0,0,2.35-2.4v-5l2.06-1.1v6.13a4.25,4.25,0,0,1-1.22,3.21,4.14,4.14,0,0,1-3,1.06Zm4.89-13.3a1.19,1.19,0,0,1,0-2.38,1,1,0,0,1,1.15,1.18C1224.44,493.8,1224.05,494.2,1223.29,494.2Z"/><path class="cls-3" d="M768.79,551.81v0a1.27,1.27,0,1,1,1.27,1.32A1.12,1.12,0,0,1,768.79,551.76Z"/><path class="cls-3" d="M785.21,551h1.58V553H785a3.81,3.81,0,0,1-3.55-1.82,4,4,0,0,1-2.85,1.1,4.06,4.06,0,0,1-3.36-1.58,5.23,5.23,0,0,1-1-3.29,5.08,5.08,0,0,1,1.41-3.74,4,4,0,0,1,2.93-1.22,3.93,3.93,0,0,1,2.28.67v-1l2.08-1.1v7.67A2.09,2.09,0,0,0,785.21,551Zm-4.41-5.71a2.86,2.86,0,0,0-2.19-1,2.09,2.09,0,0,0-1.72.85,4,4,0,0,0,0,4.45,2.14,2.14,0,0,0,1.75.84,2.67,2.67,0,0,0,2.2-1.11,6.47,6.47,0,0,1,0-.67Zm-3.1-5.89a1.19,1.19,0,0,1,0-2.38,1,1,0,0,1,1.15,1.18C778.85,539,778.47,539.42,777.7,539.42Zm3,0a1.19,1.19,0,0,1,0-2.38,1,1,0,0,1,1.15,1.18C781.9,539,781.51,539.42,780.75,539.42Z"/><path class="cls-3" d="M793.69,551h1.58V553h-1.82a4.52,4.52,0,0,0-6.28,0h-1.82V551h1.58a2.1,2.1,0,0,0,2.35-2.4v-5l2.06-1.1v6.06A2.1,2.1,0,0,0,793.69,551Zm-3.79-11.36a1.19,1.19,0,0,1,0-2.38,1,1,0,0,1,1.15,1.18C791.05,539.26,790.67,539.66,789.9,539.66Z"/><path class="cls-3" d="M802.17,551h1.59V553h-1.82a4,4,0,0,1-3.15-1.27,4,4,0,0,1-3.13,1.27h-1.83V551h1.59a2.1,2.1,0,0,0,2.34-2.4v-5l2.07-1.1v6.06A2.1,2.1,0,0,0,802.17,551Zm-5.72,4.34a1.19,1.19,0,1,1-1.18,1.19A1,1,0,0,1,796.45,555.36Zm3,0c.77,0,1.15.39,1.15,1.19a1.16,1.16,0,1,1-2.32,0A1,1,0,0,1,799.49,555.36Z"/><path class="cls-3" d="M817.75,551h1.61V553h-1.82a4,4,0,0,1-3.14-1.27,4.11,4.11,0,0,1-3.57,1.75,4.54,4.54,0,0,0-6.69-.48h-1.82V551h1.58a2.1,2.1,0,0,0,2.35-2.4v-.79a6.1,6.1,0,0,1,1.37-4.27,4.55,4.55,0,0,1,6.76.39,6.51,6.51,0,0,1,1,3.88v.79A2.09,2.09,0,0,0,817.75,551Zm-6.92.48a2.16,2.16,0,0,0,1.86-1,4.69,4.69,0,0,0,.68-2.7q0-3.64-2.54-3.65t-2.52,3.65Q808.31,551.5,810.83,551.5Z"/><path class="cls-3" d="M826.26,551h1.59V553H826a4.52,4.52,0,0,0-6.28,0h-1.82V551h1.58a2.1,2.1,0,0,0,2.35-2.4v-5l2.07-1.1v6.06A2.1,2.1,0,0,0,826.26,551Zm-5.58-11.2a1.05,1.05,0,0,1-1.18-1.2,1,1,0,0,1,1.18-1.17,1,1,0,0,1,1.15,1.17C821.83,539.42,821.45,539.82,820.68,539.82Zm1.51-2.85c-.74,0-1.1-.37-1.1-1.13a1.1,1.1,0,1,1,2.2,0A1,1,0,0,1,822.19,537Zm.36,1.65a1.16,1.16,0,1,1,2.32,0c0,.8-.38,1.2-1.15,1.2A1,1,0,0,1,822.55,538.62Z"/><path class="cls-3" d="M826.41,553V551h1.27c1.66,0,2.49-.87,2.49-2.62v-9.8l2.09-1.1v10.93a4.55,4.55,0,0,1-1.27,3.38,4.34,4.34,0,0,1-3.14,1.15Z"/><path class="cls-3" d="M836.57,553V538.6l2.06-1.1V553Z"/><path class="cls-3" d="M860.9,551h1.6V553h-1.82a4.09,4.09,0,0,1-3.09-1.2,4.39,4.39,0,0,1-3.19,1.2h-3.14a2.1,2.1,0,0,0-2.35,2.4v4l-2.06,1.1v-5.23a4.29,4.29,0,0,1,1.15-3.14,3.88,3.88,0,0,1,2.74-1.12,6.31,6.31,0,0,1-.87-3.41,5.73,5.73,0,0,1,1.37-4.07,4.21,4.21,0,0,1,3.21-1.3,4,4,0,0,1,3.14,1.27,4.33,4.33,0,0,1,1,3v2.16A2.09,2.09,0,0,0,860.9,551Zm-4.39-2.23v-2.23c0-1.6-.68-2.4-2.06-2.4a2.17,2.17,0,0,0-1.86.9,4.18,4.18,0,0,0-.66,2.51,4.44,4.44,0,0,0,.63,2.54,2,2,0,0,0,1.75.91A2,2,0,0,0,856.51,548.79Z"/><path class="cls-3" d="M877.39,551H879V553h-1.82a4,4,0,0,1-3.12-1.25,4.16,4.16,0,0,1-3.18,1.25h-2.59a4.82,4.82,0,0,1-1.54-.24,4.9,4.9,0,0,1-1.53.24h-4.12V551h3.09a4.52,4.52,0,0,1-.91-2.78,4.07,4.07,0,0,1,.69-2.4,5.82,5.82,0,0,1,2.28-3.38,5.37,5.37,0,0,1,3.09-.94,5.59,5.59,0,0,1,4.2,1.73,5.87,5.87,0,0,1,1.55,4.2v1.17A2.09,2.09,0,0,0,877.39,551Zm-10.67-.22a2.63,2.63,0,0,0,2-2.68,2.37,2.37,0,0,0-.54-1.62,1.81,1.81,0,0,0-1.43-.61,1.79,1.79,0,0,0-1.42.61,2.37,2.37,0,0,0-.54,1.62A2.62,2.62,0,0,0,866.72,550.8Zm4,.22a2.14,2.14,0,0,0,1.69-.59,2.83,2.83,0,0,0,.52-1.91v-1.07a3.88,3.88,0,0,0-1.27-3.1,3.64,3.64,0,0,0-2.47-.91,3.24,3.24,0,0,0-2.59,1.08h.07a3.28,3.28,0,0,1,2.53,1,3.82,3.82,0,0,1,1,2.7,4.31,4.31,0,0,1-.94,2.78Z"/><path class="cls-3" d="M885.87,551h1.59V553h-1.83a4.52,4.52,0,0,0-6.28,0h-1.82V551h1.59a2.1,2.1,0,0,0,2.34-2.4v-5l2.07-1.1v6.06A2.1,2.1,0,0,0,885.87,551Zm-5.65-11.2a1.05,1.05,0,0,1-1.18-1.2,1.17,1.17,0,1,1,2.33,0C881.37,539.42,881,539.82,880.22,539.82Zm3.07,0a1.05,1.05,0,0,1-1.18-1.2,1.17,1.17,0,1,1,2.33,0C884.44,539.42,884.05,539.82,883.29,539.82Z"/><path class="cls-3" d="M896.49,551H901V553H895.1a7.16,7.16,0,0,1-1.63-.17,6.85,6.85,0,0,1-1.63.17H886V551h4.46a5.62,5.62,0,0,1-1.49-3.77,5.22,5.22,0,0,1,1.32-3.74,4.16,4.16,0,0,1,3.16-1.27,4.12,4.12,0,0,1,3.48,1.63,5.46,5.46,0,0,1,1,3.38A5.62,5.62,0,0,1,896.49,551ZM892,539.82a1,1,0,0,1-1.17-1.2,1.16,1.16,0,1,1,2.32,0C893.11,539.42,892.73,539.82,892,539.82Zm1.54,11a3.5,3.5,0,0,0,1.79-1.4,3.86,3.86,0,0,0,.7-2.24,3.33,3.33,0,0,0-.68-2.2,2.31,2.31,0,0,0-1.84-.8,2.25,2.25,0,0,0-1.83.82,3.25,3.25,0,0,0-.68,2.18,3.88,3.88,0,0,0,.71,2.23A3.66,3.66,0,0,0,893.5,550.8Zm1.51-11a1.05,1.05,0,0,1-1.18-1.2,1.17,1.17,0,1,1,2.33,0C896.16,539.42,895.77,539.82,895,539.82Z"/><path class="cls-3" d="M899.51,553V551h1.58a2.1,2.1,0,0,0,2.35-2.4v-5l2.06-1.1v6.13a4.21,4.21,0,0,1-1.22,3.21,4.11,4.11,0,0,1-2.95,1.06Zm1.85-13.3a1.19,1.19,0,0,1,0-2.38,1,1,0,0,1,1.15,1.18C902.51,539.26,902.12,539.66,901.36,539.66Zm1.51-2.86a1,1,0,0,1-1.06-1.08,1.06,1.06,0,1,1,1.06,1.08Zm1.53,2.86a1.19,1.19,0,0,1,0-2.38,1,1,0,0,1,1.15,1.18C905.55,539.26,905.17,539.66,904.4,539.66Z"/><path class="cls-3" d="M934.48,551h1.11V553h-1.35a4.57,4.57,0,0,0-6.28,0h-8.55a3.78,3.78,0,0,1-3-1.3,4.37,4.37,0,0,1-1-2.94v-2.9l2.07-1.11v3.81c0,1.67.77,2.5,2.32,2.5h8c1.55,0,2.32-.83,2.32-2.5v-4.86l2.06-1.1v6.06A2.1,2.1,0,0,0,934.48,551Zm-12.65-9.21a1.05,1.05,0,0,1-1.18-1.2,1.17,1.17,0,1,1,2.33,0C923,541.41,922.59,541.81,921.83,541.81Zm3,0a1,1,0,0,1-1.17-1.2,1.16,1.16,0,1,1,2.32,0C926,541.41,925.64,541.81,924.87,541.81Z"/><path class="cls-3" d="M942.49,551h1.58V553h-1.82a4.52,4.52,0,0,0-6.28,0h-1.82V551h1.58a2.1,2.1,0,0,0,2.35-2.4v-5l2.06-1.1v6.06A2.1,2.1,0,0,0,942.49,551Zm-5.73,4.34c.77,0,1.15.39,1.15,1.19a1.16,1.16,0,1,1-2.32,0A1,1,0,0,1,936.76,555.36Zm3,0a1.19,1.19,0,1,1-1.17,1.19A1,1,0,0,1,939.8,555.36Z"/><path class="cls-3" d="M947.35,542.82h.15a5.91,5.91,0,0,1,4.38,1.68,5.15,5.15,0,0,1,1.54,3.86v.4a4.12,4.12,0,0,1-1.27,3.22,4.28,4.28,0,0,1-2.9,1h-6.62V551h6.43c1.53,0,2.3-.81,2.3-2.42v-.22a3.14,3.14,0,0,0-1.39-2.73,4.68,4.68,0,0,0-2.69-.75,7.78,7.78,0,0,0-2.56.46v-2L950,537.5h2.11Z"/><path class="cls-3" d="M974.56,551.66a5.47,5.47,0,0,1-1.92,4.39,6.47,6.47,0,0,1-4.36,1.46,5.79,5.79,0,0,1-4.84-2.2,6.4,6.4,0,0,1-1.32-4,5.88,5.88,0,0,1,1-3.45l2-.43a6.68,6.68,0,0,0-1.08,3.66,4.56,4.56,0,0,0,1.24,3.31,4,4,0,0,0,3,1.2,4.28,4.28,0,0,0,3.26-1.22,3.79,3.79,0,0,0,1-2.69v-8l2.06-1.1Zm-6.28-9.32a1.05,1.05,0,0,1-1.18-1.2,1,1,0,0,1,1.18-1.17,1,1,0,0,1,1.15,1.17C969.43,541.94,969.05,542.34,968.28,542.34Z"/><path class="cls-3" d="M990.07,551V553h-3a4.47,4.47,0,0,1-1.78,3.4,5,5,0,0,1-3.21,1.1,5.92,5.92,0,0,1-2.8-.69V555a5.28,5.28,0,0,0,2.51.67,3.34,3.34,0,0,0,2.22-.79,2.49,2.49,0,0,0,1-1.9c-.83,0-1.45-.06-1.84-.09a5.17,5.17,0,0,1-3.91-1.75,5.28,5.28,0,0,1-1.1-3.48,5.68,5.68,0,0,1,1.38-4.07,4.39,4.39,0,0,1,3.29-1.3,4.21,4.21,0,0,1,3.28,1.27,4.33,4.33,0,0,1,1,3V551ZM985,546.61c0-1.63-.73-2.45-2.18-2.45a2.31,2.31,0,0,0-1.94.9,4,4,0,0,0-.7,2.51q0,3.13,3.07,3.33c.38,0,1,.09,1.75.12Z"/><path class="cls-3" d="M1004.26,551h1.56V553h-1.59a9.13,9.13,0,0,1-3.11-.44,5.53,5.53,0,0,1-2.18-1.58,12.39,12.39,0,0,1-7.05,2h-3.26V551h3.28a9.74,9.74,0,0,0,7.7-3.21q-2-3.67-4.84-3.67a5.88,5.88,0,0,0-4,2.06v-1.92a6,6,0,0,1,4.27-2,5.82,5.82,0,0,1,3.57,1.33,11.57,11.57,0,0,1,3,3.8v1.06a11.11,11.11,0,0,1-1.41,1.51A6.22,6.22,0,0,0,1004.26,551Z"/><path class="cls-3" d="M1012.72,551h1.58V553h-1.82a4.52,4.52,0,0,0-6.28,0h-1.82V551H1006a2.1,2.1,0,0,0,2.35-2.4v-5l2.06-1.1v6.06A2.1,2.1,0,0,0,1012.72,551Zm-3.79-11.36a1.19,1.19,0,0,1,0-2.38,1,1,0,0,1,1.15,1.18C1010.08,539.26,1009.7,539.66,1008.93,539.66Z"/><path class="cls-3" d="M1028.3,551h1.6V553h-1.82a4,4,0,0,1-3.14-1.27,4.51,4.51,0,0,1-7.12,0,4,4,0,0,1-3.14,1.25h-1.82V551h1.58a2.1,2.1,0,0,0,2.35-2.4v-.79a6.1,6.1,0,0,1,1.37-4.27,4.55,4.55,0,0,1,6.76.39,6.51,6.51,0,0,1,1,3.88v.79A2.09,2.09,0,0,0,1028.3,551Zm-6.93.48a2.16,2.16,0,0,0,1.86-1,4.69,4.69,0,0,0,.68-2.7q0-3.64-2.54-3.65t-2.52,3.65Q1018.85,551.5,1021.37,551.5Z"/><path class="cls-3" d="M1028.47,553V551h1.58a2.1,2.1,0,0,0,2.35-2.4v-5l2.06-1.1v6.13a4.25,4.25,0,0,1-1.22,3.21,4.14,4.14,0,0,1-3,1.06Zm1.27,4.77a1.05,1.05,0,0,1-1.18-1.2,1.17,1.17,0,1,1,2.33,0C1030.89,557.33,1030.5,557.73,1029.74,557.73Zm3,0a1,1,0,0,1-1.17-1.2,1.16,1.16,0,1,1,2.32,0C1033.93,557.33,1033.55,557.73,1032.78,557.73Z"/><path class="cls-3" d="M1043,554.35v-2a5.84,5.84,0,0,1,2.37-.94,6.11,6.11,0,0,1-1.08-3.45,5.09,5.09,0,0,1,1.32-3.66,4,4,0,0,1,3.12-1.3,4.26,4.26,0,0,1,3.45,1.68v2a4.43,4.43,0,0,0-3.36-1.78,2.19,2.19,0,0,0-1.79.81,3.26,3.26,0,0,0-.68,2.17,4.32,4.32,0,0,0,1.37,3.26c.42,0,.71,0,.89,0a8.47,8.47,0,0,0,4.86-1.42v1.92a9.37,9.37,0,0,1-5.32,1.37A8.63,8.63,0,0,0,1043,554.35Z"/><path class="cls-3" d="M1061,553a4,4,0,0,1-3.21-1.34,4.44,4.44,0,0,1-1-2.93V538.6l2.06-1.1v11.12a2.1,2.1,0,0,0,2.35,2.4h1.58V553Z"/><path class="cls-3" d="M1066.15,542.82h.14a6,6,0,0,1,4.39,1.68,5.18,5.18,0,0,1,1.53,3.86v.4a4.12,4.12,0,0,1-1.27,3.22,4.28,4.28,0,0,1-2.9,1h-6.62V551h6.43c1.53,0,2.3-.81,2.3-2.42v-.22a3.14,3.14,0,0,0-1.39-2.73,4.68,4.68,0,0,0-2.69-.75,7.78,7.78,0,0,0-2.56.46v-2l5.25-5.82h2.11Z"/><path class="cls-3" d="M1081.68,551h1.58V553h-1.82a4.36,4.36,0,0,1-2.11-.48,5.91,5.91,0,0,1-1.66,3.79,4.53,4.53,0,0,1-3.3,1.29,6,6,0,0,1-2.81-.72V555a5,5,0,0,0,2.45.67,2.93,2.93,0,0,0,2.39-1,4.26,4.26,0,0,0,.87-2.85v-8.17l2.06-1.1v0l0,0v6.54A2,2,0,0,0,1081.68,551Z"/><path class="cls-3" d="M1081.82,553V551H1084a2.09,2.09,0,0,0,2.32-2.4v-3.36l2.06-1.1v4.46a2.1,2.1,0,0,0,2.35,2.4h1.11a2.1,2.1,0,0,0,2.35-2.4v-4.17l2.06-1.08v5.25a2.09,2.09,0,0,0,2.32,2.4h1.13a2.1,2.1,0,0,0,2.35-2.4v-5l2.06-1.1v5.84c0,1.75.83,2.62,2.49,2.62h2V553h-2.16a3.91,3.91,0,0,1-3.28-1.46A3.63,3.63,0,0,1,1100,553h-1.65a3.6,3.6,0,0,1-3.14-1.42,3.64,3.64,0,0,1-3.07,1.42h-1.66a3.7,3.7,0,0,1-3.14-1.42,3.6,3.6,0,0,1-3.14,1.42Zm11.67-12.66a1,1,0,0,1-1.17-1.2,1.16,1.16,0,1,1,2.32,0C1094.64,539.9,1094.26,540.3,1093.49,540.3Zm1.51-2.85a.94.94,0,0,1-1-1.08,1.06,1.06,0,0,1,2.11,0A.94.94,0,0,1,1095,537.45Zm1.54,2.85a1.05,1.05,0,0,1-1.18-1.2,1,1,0,0,1,1.18-1.17,1,1,0,0,1,1.15,1.17C1097.69,539.9,1097.31,540.3,1096.54,540.3Z"/><path class="cls-3" d="M1107.13,553V551h1.27c1.66,0,2.5-.87,2.5-2.62v-9.8l2.08-1.1v10.93a4.51,4.51,0,0,1-1.27,3.38,4.32,4.32,0,0,1-3.14,1.15Z"/><path class="cls-3" d="M1117.29,553V538.6l2.07-1.1V553Z"/><path class="cls-3" d="M1143.56,551h1.59V553h-1.82a4.42,4.42,0,0,1-2.16-.5,5.31,5.31,0,0,1-2.14,3.81,6.59,6.59,0,0,1-4.09,1.24,5.8,5.8,0,0,1-4.85-2.2,6.39,6.39,0,0,1-1.31-4,5.87,5.87,0,0,1,1-3.45l2-.43a6.68,6.68,0,0,0-1.08,3.66,4.57,4.57,0,0,0,1.25,3.31,4,4,0,0,0,3,1.2,4.29,4.29,0,0,0,3.26-1.22,3.83,3.83,0,0,0,1-2.69v-8l2.07-1.1v6.06A2.1,2.1,0,0,0,1143.56,551Zm-8.74-8.87a1.05,1.05,0,0,1-1.18-1.2,1.17,1.17,0,1,1,2.33,0C1136,541.75,1135.58,542.15,1134.82,542.15Z"/><path class="cls-3" d="M1147.64,546.46a3.86,3.86,0,0,1,4.12-4.22,4.06,4.06,0,0,1,3.5,1.68,6.07,6.07,0,0,1,1.06,3.69,5.73,5.73,0,0,1-1.35,4,3.91,3.91,0,0,1-3.06,1.3,4.3,4.3,0,0,1-3.29-1.2,4.07,4.07,0,0,1-3.09,1.2h-1.82V551h1.58a2.1,2.1,0,0,0,2.35-2.4Zm2.06,2.33a2,2,0,0,0,2.18,2.23,2,2,0,0,0,1.76-.91,4.36,4.36,0,0,0,.64-2.54,4.11,4.11,0,0,0-.67-2.51,2.19,2.19,0,0,0-1.85-.9c-1.37,0-2.06.8-2.06,2.4Z"/><path class="cls-3" d="M1163.94,553l1-1.94h4.26a1.69,1.69,0,0,0,1.36-.48,2.68,2.68,0,0,0,.39-1.66,5.15,5.15,0,0,0-3-4.79l1.06-1.77a7.16,7.16,0,0,1,3.93,6.08,3,3,0,0,0,.63,2,2.57,2.57,0,0,0,1.89.61h1.41V553h-1.58a3.94,3.94,0,0,1-3.12-1.27,2.87,2.87,0,0,1-2.66,1.27Z"/><path class="cls-3" d="M1175.49,553V551h1.58a2.1,2.1,0,0,0,2.35-2.4v-5l2.06-1.1v6.13a4.21,4.21,0,0,1-1.22,3.21,4.11,4.11,0,0,1-3,1.06Zm1.27,4.77a1,1,0,0,1-1.17-1.2,1.16,1.16,0,1,1,2.32,0C1177.91,557.33,1177.53,557.73,1176.76,557.73Zm3,0a1.05,1.05,0,0,1-1.18-1.2,1.17,1.17,0,1,1,2.33,0C1181,557.33,1180.57,557.73,1179.81,557.73Z"/><path class="cls-3" d="M1183.88,553l1-1.94h4.26a1.69,1.69,0,0,0,1.36-.48,2.68,2.68,0,0,0,.39-1.66,5.16,5.16,0,0,0-2.94-4.79l1-1.77a7.16,7.16,0,0,1,3.93,6.08,3,3,0,0,0,.64,2,2.53,2.53,0,0,0,1.88.61h1.41V553h-1.58a3.94,3.94,0,0,1-3.12-1.27,2.87,2.87,0,0,1-2.66,1.27Z"/><path class="cls-3" d="M1207.27,551h6.33V553h-6.52a7,7,0,0,1-2.56-.5,7.1,7.1,0,0,1-2.59.5h-6.5V551h6.67a19,19,0,0,1-3.55-4.15v-1a9,9,0,0,1,2.74-2.62,6.17,6.17,0,0,1,3.2-1,6.28,6.28,0,0,1,3.22,1,9.44,9.44,0,0,1,2.78,2.65v1a19.06,19.06,0,0,1-3.57,4.15Zm-6.8-4.65a13.15,13.15,0,0,0,4,4,13.43,13.43,0,0,0,4-4,5.29,5.29,0,0,0-4.08-2.2A5,5,0,0,0,1200.47,546.37Z"/><path class="cls-3" d="M1212.17,553V551h1.27c1.66,0,2.49-.87,2.49-2.62v-9.8l2.08-1.1v10.93a4.51,4.51,0,0,1-1.27,3.38,4.32,4.32,0,0,1-3.14,1.15Z"/><path class="cls-3" d="M1222.33,553V538.6l2.06-1.1V553Z"/><polygon class="cls-2" points="1343.54 596.84 1343.54 542.74 1343.54 489.78 1343.54 435.68 1262.96 516.26 1343.54 596.84"/></svg>