<svg id="Layer_1" data-name="Layer 1" xmlns="http://www.w3.org/2000/svg" viewBox="0 0 1920 1080"><defs><style>.cls-1{fill:#fff;}.cls-2{fill:#cf3339;}.cls-3{fill:none;stroke:#fff;stroke-miterlimit:10;}.cls-4{fill:#3eb871;}</style></defs><rect x="420.62" y="-420" width="1078.75" height="1920" transform="translate(1500 -420) rotate(90)"/><polygon class="cls-1" points="75.16 1007.37 93.11 1034.46 45.14 1034.46 45.14 994.18 54.36 980.27 93.11 980.27 75.16 1007.37"/><path class="cls-2" d="M1507.75,156.29q-.84,5.06-6,7.73a24,24,0,0,1-11,2.26q-9.2,0-13.78-5.2a13.87,13.87,0,0,1-3.42-9.47,13.5,13.5,0,0,1,1.74-6.9l8.2-1.73a15.13,15.13,0,0,0-1.78,7.1q0,8.31,9,8.31,6.16,0,7.9-2.1h-4.84l4.36-8.42h9.74v8.42Zm-21.52,21.83a4.21,4.21,0,0,1-3.16-1.24,4.37,4.37,0,0,1-1.21-3.18,4.2,4.2,0,0,1,1.21-3.13,4.33,4.33,0,0,1,3.16-1.18,4.06,4.06,0,0,1,4.31,4.31,4.4,4.4,0,0,1-1.18,3.21A4.17,4.17,0,0,1,1486.23,178.12Zm9.47,0a4.21,4.21,0,0,1-3.16-1.24,4.37,4.37,0,0,1-1.21-3.18,4.2,4.2,0,0,1,1.21-3.13,4.33,4.33,0,0,1,3.16-1.18,4.06,4.06,0,0,1,4.31,4.31,4.4,4.4,0,0,1-1.18,3.21A4.17,4.17,0,0,1,1495.7,178.12Z"/><path class="cls-2" d="M1506.33,156.29v-8.42h2.79a3.64,3.64,0,0,0,2.7-.76,4.27,4.27,0,0,0,.71-2.87V127l8.68-4.63v21.94a11.8,11.8,0,0,1-3.42,8.89,11.33,11.33,0,0,1-8.31,3.11Z"/><path class="cls-2" d="M1540.89,156.29a9.75,9.75,0,0,1-7.73-3.16,10.37,10.37,0,0,1-2.48-7.15v-19l8.69-4.58v23.21a2.63,2.63,0,0,0,.47,1.84,2.66,2.66,0,0,0,1.84.47h4.89v8.42Z"/><path class="cls-2" d="M1577.45,147.87h4.9v8.42h-5.68a10.51,10.51,0,0,1-5.58-1.42,11.6,11.6,0,0,1-14.31,0,10.37,10.37,0,0,1-5.58,1.42h-5.68v-8.42h4.89a2.66,2.66,0,0,0,1.84-.47,2.62,2.62,0,0,0,.48-1.84v-1.37q0-6.27,3.36-9.79a10.42,10.42,0,0,1,7.84-3.1,10,10,0,0,1,8.58,4,14.57,14.57,0,0,1,2.63,8.84v1.37a1.86,1.86,0,0,0,2.31,2.31Zm-13.52,1q2.53,0,2.53-4.94,0-4.53-2.53-4.53t-2.52,4.53Q1561.41,148.92,1563.93,148.92Z"/><path class="cls-2" d="M1581.29,156.29v-8.42h2.79a3.66,3.66,0,0,0,2.71-.76,4.27,4.27,0,0,0,.71-2.87V127l8.68-4.63v21.94a11.8,11.8,0,0,1-3.42,8.89,11.33,11.33,0,0,1-8.31,3.11Z"/><path class="cls-2" d="M1605.65,156.29V127l8.68-4.63v33.94Z"/><path class="cls-2" d="M1667.57,147.87a30.11,30.11,0,0,1,7.58-11.73,17.32,17.32,0,0,1,12-4.84,12.93,12.93,0,0,1,10.32,4.47,13.55,13.55,0,0,1,3.31,9.26V146a9.91,9.91,0,0,1-3.16,7.84,10.14,10.14,0,0,1-7,2.47H1667a11.54,11.54,0,0,1-2-.16,12.39,12.39,0,0,1-5.37,7.68,15.92,15.92,0,0,1-9,2.47q-7.37,0-11.41-5.2a14.82,14.82,0,0,1-3.16-9.47,13.5,13.5,0,0,1,1.74-6.9L1646,143a15.14,15.14,0,0,0-1.79,7.1,8.68,8.68,0,0,0,1.74,5.66,5.73,5.73,0,0,0,4.68,2.13q6.16,0,6.16-5.48V139l8.68-4.57v11.1a2.75,2.75,0,0,0,.42,1.78A2.33,2.33,0,0,0,1667.57,147.87Zm24.52-2.31V145a5.94,5.94,0,0,0-1.34-4.05,4.5,4.5,0,0,0-3.55-1.53,9.85,9.85,0,0,0-6.08,2.26,17,17,0,0,0-4.81,6.16h14c.84,0,1.35-.11,1.53-.34A4.32,4.32,0,0,0,1692.09,145.56Zm-4.74-17.42a4.22,4.22,0,0,1-3.15-1.23,4.37,4.37,0,0,1-1.21-3.19,4.17,4.17,0,0,1,1.21-3.13,4.3,4.3,0,0,1,3.15-1.18,4.07,4.07,0,0,1,4.32,4.31,4.39,4.39,0,0,1-1.19,3.21A4.15,4.15,0,0,1,1687.35,128.14Z"/><path class="cls-2" d="M1722.18,147.87h4.89v8.42h-5.68c-.45,0-1.07,0-1.84-.11q-1.32,6.63-6.73,9.26a11.78,11.78,0,0,1-5,1.11,14.21,14.21,0,0,1-7-1.9v-7.52a10.93,10.93,0,0,0,5.36,1.58,7.07,7.07,0,0,0,1.95-.26q3.11-1,3.11-5.32v-16.2l8.68-4.58v13.21a2.63,2.63,0,0,0,.47,1.84A2.68,2.68,0,0,0,1722.18,147.87Z"/><path class="cls-2" d="M1764.79,156.29h-14.41a17.6,17.6,0,0,0-10.1,0H1726v-8.42h8.89a55.55,55.55,0,0,1-3.47-5.16v-2.94a19.41,19.41,0,0,1,6.29-6.1,13.26,13.26,0,0,1,15.2.05,19.83,19.83,0,0,1,6.34,6.15v2.84a48.66,48.66,0,0,1-3.52,5.16h8.94Zm-14.57-14.89a7.84,7.84,0,0,0-4.89-2,7,7,0,0,0-4.89,2,4.89,4.89,0,1,0,9.78,0Z"/><path class="cls-2" d="M1763.74,156.29v-8.42h2.79a3.67,3.67,0,0,0,2.71-.76,4.33,4.33,0,0,0,.71-2.87V127l8.68-4.63v21.94a11.8,11.8,0,0,1-3.42,8.89,11.33,11.33,0,0,1-8.31,3.11Z"/><path class="cls-2" d="M1788.1,156.29V127l8.68-4.63v33.94Z"/><line class="cls-3" x1="631.05" y1="399.34" x2="1920" y2="399.34"/><path class="cls-4" d="M902.17,431.75,900,429.54a6.79,6.79,0,0,1-3.89,1.16,6.84,6.84,0,1,1,7-6.84,6.74,6.74,0,0,1-1.67,4.45l2.16,2.15Zm-5.68-5.68,1.38-1.26L900,427a4.9,4.9,0,0,0,1-3.1,5,5,0,1,0-2.45,4.35Z"/><path class="cls-4" d="M915.39,421v9.5h-1.8v-1.27a7,7,0,0,1-4.11,1.46,3.24,3.24,0,0,1-3.55-3.49V421h1.79v5.7a2.27,2.27,0,0,0,2.47,2.51,5.17,5.17,0,0,0,3.4-1.39V421Z"/><path class="cls-4" d="M927,430.51h-1.79v-1a5.65,5.65,0,0,1-3.55,1.21c-2.3,0-3.7-1.21-3.7-3s1.46-3,3.82-3h3.43v-.09c0-1.47-.87-2.24-2.6-2.24a5.73,5.73,0,0,0-3.27,1.08l-.62-1.33a7.62,7.62,0,0,1,4.23-1.24c2.59,0,4,1.3,4,3.56Zm-1.79-4.58H922c-1.46,0-2.32.61-2.32,1.68s.8,1.61,2.25,1.61a6.17,6.17,0,0,0,3.24-1Z"/><path class="cls-4" d="M939.43,430.51h-1.79v-5.7a2.27,2.27,0,0,0-2.47-2.5,5.21,5.21,0,0,0-3.4,1.38v6.82H930V421h1.8v1.28a7,7,0,0,1,4.1-1.47,3.24,3.24,0,0,1,3.56,3.5Z"/><path class="cls-4" d="M948.41,430.11a4.83,4.83,0,0,1-2.26.59,3.06,3.06,0,0,1-3.19-3.3v-4.9h-1.63V421H943v-2.73h1.79V421h2.88v1.49h-2.88v4.65a1.82,1.82,0,0,0,1.88,2,3.48,3.48,0,0,0,1.52-.34Z"/><path class="cls-4" d="M951.8,419.59a1.06,1.06,0,0,1-1-1,1,1,0,0,1,1-1,1,1,0,0,1,1,1A1,1,0,0,1,951.8,419.59Zm.89,10.92H950.9V421h1.79Z"/><path class="cls-4" d="M962,430.11a4.83,4.83,0,0,1-2.26.59,3.05,3.05,0,0,1-3.19-3.3v-4.9h-1.64V421h1.64v-2.73h1.78V421h2.89v1.49h-2.89v4.65a1.83,1.83,0,0,0,1.88,2,3.45,3.45,0,0,0,1.52-.34Z"/><path class="cls-4" d="M969,431.46c-.83,2-2,3-3.65,3a6.7,6.7,0,0,1-2.18-.44l.51-1.29a3.77,3.77,0,0,0,1.48.3c1,0,1.58-.49,2.25-1.78l.19-.38-4.3-9.81h1.9l3.19,7.56,3.06-7.56h1.86Z"/><path class="cls-4" d="M1025.68,430.59h-5.24v-13.3h5.24a6.66,6.66,0,1,1,0,13.3ZM1022.36,419v9.84h3.27a4.92,4.92,0,1,0,0-9.84Z"/><path class="cls-4" d="M1044.21,430.59h-1.79v-1a5.6,5.6,0,0,1-3.55,1.22c-2.3,0-3.7-1.22-3.7-3s1.46-3,3.81-3h3.44v-.1c0-1.46-.87-2.24-2.6-2.24a5.67,5.67,0,0,0-3.27,1.09l-.63-1.33a7.68,7.68,0,0,1,4.24-1.24c2.59,0,4,1.29,4,3.55Zm-1.79-4.58h-3.17c-1.46,0-2.32.61-2.32,1.67s.8,1.62,2.24,1.62a6.21,6.21,0,0,0,3.25-.95Z"/><path class="cls-4" d="M1051.85,431.54c-.84,2-2,2.94-3.65,2.94a6.67,6.67,0,0,1-2.19-.43l.52-1.29a3.88,3.88,0,0,0,1.48.3c1,0,1.57-.49,2.24-1.79l.19-.38-4.29-9.8h1.9l3.19,7.56,3.06-7.56h1.86Z"/><path class="cls-4" d="M1064.61,423.16a6.81,6.81,0,0,0-3.26-.91c-1.26,0-1.89.44-1.89,1.29,0,.67.4.91,1.94,1.35l1.12.31c2.23.6,3,1.31,3,2.65,0,1.85-1.44,2.93-3.89,2.93a8,8,0,0,1-4.33-1.24l.63-1.21a7.18,7.18,0,0,0,3.78,1.1c1.4,0,2.1-.47,2.1-1.44,0-.72-.32-.93-1.74-1.35l-1.24-.34a7.47,7.47,0,0,1-2.43-1.05,1.89,1.89,0,0,1-.68-1.56c0-1.74,1.4-2.79,3.68-2.79a7.56,7.56,0,0,1,3.82,1Z"/><path class="cls-4" d="M648.7,420.67a5,5,0,0,0-3.87-1.84,5,5,0,0,0,0,10.07A5.06,5.06,0,0,0,648.7,427l1.54,1.1a6.85,6.85,0,0,1-5.43,2.58,6.84,6.84,0,1,1,0-13.68,6.82,6.82,0,0,1,5.43,2.59Z"/><path class="cls-4" d="M658.81,422.48a5.57,5.57,0,0,0-4.16,1.82v6.21h-1.8V421h1.8v1.81a5.8,5.8,0,0,1,4.16-2Z"/><path class="cls-4" d="M670.21,426.43h-8.07a3,3,0,0,0,3.17,2.77,4.38,4.38,0,0,0,3.15-1.12l1,1a6,6,0,0,1-4.16,1.63,4.92,4.92,0,0,1-5-5,4.94,4.94,0,0,1,9.88,0Zm-1.73-1.33a3,3,0,0,0-3.21-2.79,3,3,0,0,0-3.15,2.79Z"/><path class="cls-4" d="M683.28,430.51h-1.95l-2.26-6.89-2.25,6.89h-2l-3.21-9.5h1.8l2.49,7.58,2.41-7.58h1.47l2.41,7.58,2.49-7.58h1.8Z"/><path class="cls-4" d="M1115.23,420.41a5,5,0,0,0-3.88-1.84,5,5,0,0,0,0,10.07,5.1,5.1,0,0,0,3.88-1.88l1.53,1.1a6.83,6.83,0,0,1-5.43,2.58,6.84,6.84,0,1,1,0-13.67,6.8,6.8,0,0,1,5.43,2.58Z"/><path class="cls-4" d="M1124.14,430.44a4.95,4.95,0,1,1,5.22-4.94A5,5,0,0,1,1124.14,430.44Zm0-1.54a3.4,3.4,0,1,0-3.44-3.4A3.38,3.38,0,0,0,1124.14,428.9Z"/><path class="cls-4" d="M1138.54,422.83a6.74,6.74,0,0,0-3.27-.92c-1.25,0-1.88.44-1.88,1.3,0,.66.4.91,1.94,1.34l1.12.31c2.22.61,3,1.31,3,2.66,0,1.84-1.44,2.92-3.89,2.92a8,8,0,0,1-4.34-1.23l.63-1.22a7.12,7.12,0,0,0,3.78,1.1c1.41,0,2.11-.47,2.11-1.44,0-.72-.32-.93-1.75-1.35l-1.23-.34a7.19,7.19,0,0,1-2.43-1,1.92,1.92,0,0,1-.69-1.56c0-1.75,1.41-2.8,3.69-2.8a7.56,7.56,0,0,1,3.82,1Z"/><path class="cls-4" d="M1148.1,429.85a4.83,4.83,0,0,1-2.26.59,3.06,3.06,0,0,1-3.2-3.3v-4.9H1141v-1.49h1.63V418h1.79v2.73h2.89v1.49h-2.89v4.65a1.83,1.83,0,0,0,1.88,2,3.46,3.46,0,0,0,1.52-.35Z"/><path class="cls-4" d="M1161,417c3.81,0,5.56,1.42,5.56,4.54s-1.75,4.54-5.53,4.54h-3.55v4.21h-1.92V417Zm-3.52,1.71v5.69H1161c2.49,0,3.61-.87,3.61-2.85s-1.12-2.84-3.63-2.84Z"/><path class="cls-4" d="M1178.76,426.17h-8.07a3,3,0,0,0,3.17,2.77,4.36,4.36,0,0,0,3.15-1.12l1,1a6,6,0,0,1-4.16,1.63,4.92,4.92,0,0,1-5-4.95,4.94,4.94,0,0,1,9.88,0Zm-1.73-1.33a3,3,0,0,0-3.21-2.79,3,3,0,0,0-3.15,2.79Z"/><path class="cls-4" d="M1187.31,422.22a5.6,5.6,0,0,0-4.16,1.82v6.21h-1.8v-9.5h1.8v1.81a5.8,5.8,0,0,1,4.16-2Z"/><path class="cls-4" d="M1203.35,417v13.29h-1.79v-1.14a4.17,4.17,0,0,1-3.21,1.33,4.94,4.94,0,0,1,0-9.88,4.21,4.21,0,0,1,3.21,1.33V417Zm-1.79,6.57a3.65,3.65,0,0,0-3-1.43,3.26,3.26,0,0,0-3.19,3.4,3.2,3.2,0,0,0,3.19,3.4,3.67,3.67,0,0,0,3-1.42Z"/><path class="cls-4" d="M1215,430.25h-1.79v-1a5.67,5.67,0,0,1-3.55,1.21c-2.3,0-3.71-1.21-3.71-3s1.47-3,3.82-3h3.44v-.09c0-1.46-.87-2.24-2.6-2.24a5.7,5.7,0,0,0-3.27,1.08l-.63-1.33a7.68,7.68,0,0,1,4.24-1.24c2.58,0,4,1.3,4,3.56Zm-1.79-4.57H1210c-1.47,0-2.32.6-2.32,1.67s.8,1.61,2.24,1.61a6.23,6.23,0,0,0,3.25-.95Z"/><path class="cls-4" d="M1222.61,431.2c-.83,2-2,2.95-3.64,2.95a6.45,6.45,0,0,1-2.19-.44l.51-1.29a3.78,3.78,0,0,0,1.49.3c1,0,1.57-.49,2.24-1.78l.19-.38-4.29-9.81h1.89l3.2,7.57,3-7.57h1.87Z"/><path class="cls-4" d="M1238.45,418.94a20.84,20.84,0,0,0-1.29,3.89,19.32,19.32,0,0,0-.51,4.31,19,19,0,0,0,.53,4.37,21.49,21.49,0,0,0,1.31,3.95l-1.54.86a22.27,22.27,0,0,1-1.58-4.35,19.4,19.4,0,0,1-.64-4.83,19.64,19.64,0,0,1,.62-4.76,22,22,0,0,1,1.56-4.3Z"/><path class="cls-4" d="M1250,421.18a9.87,9.87,0,0,0-4.58-1.26c-1.69,0-2.86.67-2.86,2,0,.86.47,1.25,2.88,1.9l1.56.42c2.83.78,4.22,1.5,4.22,3.68a3.41,3.41,0,0,1-1.48,3,6.74,6.74,0,0,1-3.9,1,10.85,10.85,0,0,1-5.93-1.71l.9-1.46a10.7,10.7,0,0,0,5.18,1.46c1.9,0,3.2-.68,3.2-2.18-.08-1.12-.61-1.43-2.7-2l-1.6-.4c-3.17-.81-4.41-1.61-4.41-3.62a3.19,3.19,0,0,1,1.41-2.83,6.51,6.51,0,0,1,3.67-.95,10.44,10.44,0,0,1,5.3,1.4Z"/><path class="cls-4" d="M1263.59,428.49h-7.13l-1.38,3.21H1253l5.77-13.29h2.53l5.79,13.29H1265Zm-.71-1.65-2.85-6.55-2.85,6.55Z"/><path class="cls-4" d="M1279.3,431.7l-3.16-4.63a3.57,3.57,0,0,1-.53,0h-3.91v4.61h-1.92V418.41h5.74c3.93,0,5.56,1.32,5.56,4.23,0,2.21-.95,3.57-2.86,4.12l3.38,4.94Zm-7.6-6.32h3.91c2.49,0,3.48-.74,3.48-2.62s-1-2.65-3.48-2.65h-3.91Z"/><path class="cls-4" d="M1285.74,432a22.31,22.31,0,0,1-1.56,4.35l-1.54-.86a20.79,20.79,0,0,0,1.3-3.95,19,19,0,0,0,.55-4.37,18.27,18.27,0,0,0-.53-4.31,19.5,19.5,0,0,0-1.28-3.89l1.54-.86a20.81,20.81,0,0,1,1.54,4.3,18.34,18.34,0,0,1,.65,4.76A19,19,0,0,1,1285.74,432Z"/><path class="cls-4" d="M1365.79,422.86h-4.44v11.59h-1.92V422.86H1355v-1.71h10.81Z"/><path class="cls-4" d="M1372.81,434.64a4.95,4.95,0,1,1,5.22-4.94A5,5,0,0,1,1372.81,434.64Zm0-1.54a3.4,3.4,0,1,0-3.44-3.4A3.38,3.38,0,0,0,1372.81,433.1Z"/><path class="cls-4" d="M1386.73,434.05a4.83,4.83,0,0,1-2.26.59,3.07,3.07,0,0,1-3.19-3.31v-4.9h-1.63V425h1.63v-2.74h1.79V425H1386v1.48h-2.88v4.65a1.82,1.82,0,0,0,1.88,2,3.63,3.63,0,0,0,1.52-.34Z"/><path class="cls-4" d="M1397.52,434.45h-1.78v-1a5.63,5.63,0,0,1-3.56,1.22c-2.29,0-3.7-1.22-3.7-3s1.46-3,3.82-3h3.44v-.1c0-1.46-.88-2.24-2.61-2.24a5.67,5.67,0,0,0-3.26,1.08l-.63-1.33a7.75,7.75,0,0,1,4.24-1.23c2.58,0,4,1.29,4,3.55Zm-1.78-4.58h-3.18c-1.46,0-2.31.61-2.31,1.67s.79,1.61,2.24,1.61a6.23,6.23,0,0,0,3.25-.95Z"/><path class="cls-4" d="M1402.29,434.45h-1.8v-13.3h1.8Z"/><path class="cls-4" d="M1420.91,424.61a5,5,0,0,0-3.87-1.85,5,5,0,0,0,0,10.07,5.08,5.08,0,0,0,3.87-1.88l1.54,1.1a6.82,6.82,0,0,1-5.43,2.59,6.84,6.84,0,1,1,0-13.68,6.85,6.85,0,0,1,5.43,2.58Z"/><path class="cls-4" d="M1429.82,434.64a4.95,4.95,0,1,1,5.23-4.94A5,5,0,0,1,1429.82,434.64Zm0-1.54a3.4,3.4,0,1,0-3.44-3.4A3.39,3.39,0,0,0,1429.82,433.1Z"/><path class="cls-4" d="M1444.22,427a6.81,6.81,0,0,0-3.26-.91c-1.26,0-1.88.43-1.88,1.29,0,.66.4.91,1.93,1.35l1.12.3c2.23.61,3,1.31,3,2.66,0,1.84-1.45,2.93-3.9,2.93a8,8,0,0,1-4.33-1.24l.63-1.21a7.18,7.18,0,0,0,3.78,1.1c1.4,0,2.11-.48,2.11-1.45,0-.72-.33-.93-1.75-1.35l-1.24-.34a7.29,7.29,0,0,1-2.43-1,1.94,1.94,0,0,1-.68-1.56c0-1.75,1.4-2.79,3.68-2.79a7.65,7.65,0,0,1,3.82,1Z"/><path class="cls-4" d="M1453.78,434.05a4.83,4.83,0,0,1-2.26.59,3.07,3.07,0,0,1-3.19-3.31v-4.9h-1.63V425h1.63v-2.74h1.79V425H1453v1.48h-2.88v4.65a1.82,1.82,0,0,0,1.88,2,3.63,3.63,0,0,0,1.52-.34Z"/><path class="cls-4" d="M1462.31,421.13A20.82,20.82,0,0,0,1461,425a19.4,19.4,0,0,0-.51,4.32,19,19,0,0,0,.53,4.37,21.49,21.49,0,0,0,1.31,4l-1.54.85a22.71,22.71,0,0,1-1.57-4.35,18.9,18.9,0,0,1-.65-4.82,19.26,19.26,0,0,1,.63-4.77,22.24,22.24,0,0,1,1.56-4.3Z"/><path class="cls-4" d="M1473.84,423.37a9.89,9.89,0,0,0-4.58-1.25c-1.69,0-2.87.66-2.87,2,0,.86.48,1.26,2.89,1.9l1.56.42c2.83.78,4.21,1.5,4.21,3.69a3.37,3.37,0,0,1-1.48,3,6.73,6.73,0,0,1-3.89,1,10.93,10.93,0,0,1-5.93-1.71l.89-1.47a10.75,10.75,0,0,0,5.19,1.47c1.9,0,3.19-.69,3.19-2.19-.08-1.12-.61-1.42-2.7-2l-1.59-.4c-3.18-.82-4.41-1.62-4.41-3.63a3.17,3.17,0,0,1,1.41-2.83,6.48,6.48,0,0,1,3.66-.95,10.42,10.42,0,0,1,5.3,1.4Z"/><path class="cls-4" d="M1487.44,430.69h-7.12l-1.39,3.21h-2.09l5.78-13.3h2.52l5.8,13.3h-2.09Zm-.7-1.66-2.85-6.55L1481,429Z"/><path class="cls-4" d="M1503.15,433.9l-3.15-4.64a3.57,3.57,0,0,1-.53,0h-3.92v4.62h-1.91V420.6h5.73c3.94,0,5.57,1.33,5.57,4.23,0,2.21-1,3.58-2.87,4.13l3.38,4.94Zm-7.6-6.33h3.92c2.49,0,3.48-.74,3.48-2.62s-1-2.64-3.48-2.64h-3.92Z"/><path class="cls-4" d="M1509.6,434.16a22.07,22.07,0,0,1-1.56,4.35l-1.54-.85a21.55,21.55,0,0,0,1.29-4,19.08,19.08,0,0,0,.55-4.37,18.35,18.35,0,0,0-.53-4.32,19.52,19.52,0,0,0-1.27-3.89l1.54-.86a21.63,21.63,0,0,1,1.54,4.3,18.82,18.82,0,0,1,.64,4.77A19.38,19.38,0,0,1,1509.6,434.16Z"/><rect class="cls-3" x="609.57" y="291.71" width="83.95" height="32.28"/><rect class="cls-3" x="621.62" y="323.99" width="59.84" height="27.83"/><line class="cls-3" x1="625.01" y1="351.67" x2="672.41" y2="399.75"/><line class="cls-3" x1="678.31" y1="351.67" x2="630.67" y2="399.75"/><line class="cls-3" x1="681.46" y1="291.71" x2="681.46" y2="277.98"/><line class="cls-3" x1="621.62" y1="291.71" x2="621.62" y2="277.98"/><path class="cls-1" d="M235.71,483.16a10.38,10.38,0,0,0-8.7-4.54,10,10,0,0,0-7.87,3.4,13.19,13.19,0,0,0,0,16.8,10,10,0,0,0,7.87,3.4,10.38,10.38,0,0,0,8.7-4.54l14.3,7.95a28.17,28.17,0,0,1-23.15,12c-15.06.3-28.3-12.56-27.92-27.24-.38-14.68,12.86-27.54,27.92-27.23a28.19,28.19,0,0,1,23.15,12Z"/><path class="cls-1" d="M283.29,490.72c-4.31,0-8.55,2.27-11.88,6.43V516.9H256.06V479.07h15.35V486c3.41-4.84,7.87-7.64,11.88-7.64Z"/><path class="cls-1" d="M327.47,501.62h-25.8c.68,3.33,2.8,5,7,5a12,12,0,0,0,7.49-2.57l8.25,7.11a24.92,24.92,0,0,1-17.1,6.51c-12.18,0-21-8.7-21-19.67s8.62-19.67,20.65-19.67c12.63,0,20.58,8.62,20.58,19.67Zm-15-7.11a5.06,5.06,0,0,0-5.3-5.37c-3.1,0-5,1.81-5.6,5.37Z"/><path class="cls-1" d="M381.41,516.9H365l-3.86-15.66-3.78,15.66H340.86l-10.67-37.83h15.28l4.39,21.26,5.44-21.26H367l5.37,21.26,4.39-21.26h15.36Z"/><path class="cls-2" d="M237.42,541.79a12,12,0,0,1-6,7.58,22.2,22.2,0,0,1-10.94,2.42q-9.21,0-13.79-5.21a13.85,13.85,0,0,1-3.42-9.47,13.49,13.49,0,0,1,1.74-6.89l8.21-1.74a15.05,15.05,0,0,0-1.79,7.1q0,7.8,9,7.79,5.57,0,7.52-2l-.63-.15a12.06,12.06,0,0,1-8.05-4.63,11.76,11.76,0,0,1-2.53-7.37q0-5.89,3.32-9.36a10.16,10.16,0,0,1,7.73-3.11,9.74,9.74,0,0,1,7.68,3.16,10,10,0,0,1,2.42,7v6.42h5.26v8.41ZM222.05,514.7a4.2,4.2,0,0,1-3.15-1.24,4.33,4.33,0,0,1-1.21-3.18,4.17,4.17,0,0,1,1.21-3.13,4.32,4.32,0,0,1,3.15-1.18,4.06,4.06,0,0,1,4.32,4.31,4.44,4.44,0,0,1-1.18,3.21A4.19,4.19,0,0,1,222.05,514.7Zm7.21,18.47v-6.53c0-1.12-.47-1.68-1.42-1.68q-2.52,0-2.52,4c0,2.17.87,3.49,2.63,3.94Zm2.26-18.47a4.19,4.19,0,0,1-3.15-1.24,4.33,4.33,0,0,1-1.21-3.18,4.17,4.17,0,0,1,1.21-3.13,4.3,4.3,0,0,1,3.15-1.18,4.07,4.07,0,0,1,4.32,4.31,4.4,4.4,0,0,1-1.19,3.21A4.15,4.15,0,0,1,231.52,514.7Z"/><path class="cls-2" d="M244,554.79a4.17,4.17,0,0,1-3.15-1.24,4.34,4.34,0,0,1-1.22-3.18,4.17,4.17,0,0,1,1.22-3.13,4.29,4.29,0,0,1,3.15-1.19,4.09,4.09,0,0,1,4.32,4.32,4.4,4.4,0,0,1-1.19,3.21A4.2,4.2,0,0,1,244,554.79Zm-1.84-13v-8.41H247a1.88,1.88,0,0,0,2.32-2.32v-8.63l8.68-4.57v13.62a9.65,9.65,0,0,1-10.21,10.31Zm11.31,13a4.21,4.21,0,0,1-3.16-1.24,4.36,4.36,0,0,1-1.2-3.18,4.2,4.2,0,0,1,1.2-3.13,4.33,4.33,0,0,1,3.16-1.19,4.09,4.09,0,0,1,4.32,4.32,4.4,4.4,0,0,1-1.19,3.21A4.2,4.2,0,0,1,253.46,554.79Z"/><path class="cls-2" d="M281,533.38h4.89v8.41h-5.68c-.46,0-1.07,0-1.84-.1q-1.32,6.63-6.74,9.26a11.86,11.86,0,0,1-5.05,1.1,14.29,14.29,0,0,1-7-1.89v-7.53a10.8,10.8,0,0,0,5.36,1.58,7.13,7.13,0,0,0,1.95-.26q3.1-1,3.1-5.31V522.43l8.68-4.57v13.2a1.88,1.88,0,0,0,2.32,2.32Z"/><path class="cls-2" d="M284.87,541.79v-8.41H292v8.41Z"/><path class="cls-2" d="M291,541.79v-8.41h7.16v8.41Z"/><path class="cls-2" d="M297.07,541.79v-8.41h7.16v8.41Z"/><path class="cls-2" d="M303.18,541.79v-8.41h7.15v8.41Z"/><path class="cls-2" d="M309.28,541.79v-8.41h7.15v8.41Z"/><path class="cls-2" d="M315.38,541.79v-8.41h7.16v8.41Z"/><path class="cls-2" d="M321.48,541.79v-8.41h7.16v8.41Z"/><path class="cls-2" d="M353.37,533.38h6.2v8.41H348.42a23.45,23.45,0,0,1-4.84-.42,23.45,23.45,0,0,1-4.84.42H327.59v-8.41h6.2a12.54,12.54,0,0,1,2.11-13.53,10.32,10.32,0,0,1,7.68-3.05,10.11,10.11,0,0,1,8.42,3.9,12.45,12.45,0,0,1,2.47,7.84A12,12,0,0,1,353.37,533.38Zm-9.89-18.68a4.2,4.2,0,0,1-3.16-1.24,4.33,4.33,0,0,1-1.21-3.18,4.17,4.17,0,0,1,1.21-3.13,4.31,4.31,0,0,1,3.16-1.18,4.06,4.06,0,0,1,4.31,4.31,4.44,4.44,0,0,1-1.18,3.21A4.18,4.18,0,0,1,343.48,514.7Zm.1,17.83a5.16,5.16,0,0,0,2.47-4.57c0-2-.82-3-2.47-3s-2.47,1-2.47,2.94A5.14,5.14,0,0,0,343.58,532.53Z"/><path class="cls-2" d="M358.52,541.79v-8.41h2.79a3.67,3.67,0,0,0,2.71-.77,4.29,4.29,0,0,0,.71-2.86V512.49l8.68-4.63V529.8a11.8,11.8,0,0,1-3.42,8.89,11.32,11.32,0,0,1-8.31,3.1Z"/><path class="cls-2" d="M382.88,541.79v-29.3l8.68-4.63v33.93Z"/></svg>