<svg id="Layer_1" data-name="Layer 1" xmlns="http://www.w3.org/2000/svg" viewBox="0 0 1920 1080"><defs><style>.cls-1,.cls-6,.cls-8,.cls-9{fill:#fff;}.cls-2{fill:#cf3339;}.cls-10,.cls-3,.cls-4{fill:none;}.cls-3{stroke:#fff;}.cls-10,.cls-3{stroke-miterlimit:10;}.cls-5{font-size:33px;font-family:Tajawal-Black, Tajawal;font-weight:800;}.cls-11,.cls-5{fill:#3eb871;}.cls-6,.cls-8,.cls-9{font-size:22px;}.cls-6{font-family:Tajawal-Medium, Tajawal;}.cls-6,.cls-9{font-weight:500;}.cls-7{letter-spacing:0.06em;}.cls-8{font-family:NexaRegular;}.cls-9{font-family:LoewNextArabic-Medium, Loew Next Arabic;}.cls-10{stroke:#cf3339;}</style></defs><rect x="420.62" y="-420" width="1078.75" height="1920" transform="translate(1500 -420) rotate(90)"/><polygon class="cls-1" points="75.16 1007.37 93.11 1034.46 45.14 1034.46 45.14 994.18 54.36 980.27 93.11 980.27 75.16 1007.37"/><path class="cls-2" d="M1338.34,341a19.06,19.06,0,0,1-10.42,3.05,15,15,0,0,1-10.78-4,13.35,13.35,0,0,1-4-10.1,13.51,13.51,0,0,1,3.94-9.89,13.05,13.05,0,0,1-3.15-8.94,11.25,11.25,0,0,1,4-9,11.61,11.61,0,0,1,7.63-2.74,11.13,11.13,0,0,1,9.52,5.21V312q-4.05-4.47-8.47-4.47h-.27q-3.78.11-3.78,3.94c0,3,1.85,4.47,5.57,4.47h9.47v8.42h-9.36q-6.74,0-6.74,5.63a5.12,5.12,0,0,0,1.82,4.18,7.75,7.75,0,0,0,5.08,1.5h.15a20.19,20.19,0,0,0,9.74-2.94Z"/><path class="cls-2" d="M1356.49,322.72c-.39,0-1,0-1.74,0a9.92,9.92,0,0,1-8.1-3.73,11,11,0,0,1-2.53-7.21q0-5.9,3.32-9.37a10.19,10.19,0,0,1,7.73-3.1,9.7,9.7,0,0,1,7.68,3.16,10,10,0,0,1,2.42,7v11.05q0,7.26-4.1,10.95a11.52,11.52,0,0,1-8,2.84,13.31,13.31,0,0,1-7-2.16v-7.52a12.63,12.63,0,0,0,6.26,2Q1355.91,326.67,1356.49,322.72Zm.1-13.52c0-1.12-.47-1.68-1.42-1.68q-2.52,0-2.52,4c0,2.63.87,3.95,2.63,3.95a2.33,2.33,0,0,0,1.31-.32Z"/><path class="cls-2" d="M1387.74,315.93h4.89v8.42H1387c-.46,0-1.07,0-1.84-.1q-1.32,6.62-6.74,9.25a11.75,11.75,0,0,1-5,1.11,14.29,14.29,0,0,1-7-1.89v-7.53a10.87,10.87,0,0,0,5.36,1.58,7.13,7.13,0,0,0,2-.26q3.1-1,3.1-5.32V305l8.68-4.58v13.21a2.62,2.62,0,0,0,.48,1.84A2.59,2.59,0,0,0,1387.74,315.93Z"/><path class="cls-2" d="M1391.58,324.35v-8.42H1397a2.63,2.63,0,0,0,1.84-.47,2.68,2.68,0,0,0,.47-1.84v-6.53l8.68-4.57v11.1a2.62,2.62,0,0,0,.48,1.84,2.59,2.59,0,0,0,1.84.47h4.63a2.63,2.63,0,0,0,1.84-.47,2.68,2.68,0,0,0,.47-1.84V306l8.68-4.57v12.15a2.62,2.62,0,0,0,.48,1.84,2.59,2.59,0,0,0,1.84.47h4.68a1.86,1.86,0,0,0,2.31-2.31V305l8.68-4.58V312.3a4.31,4.31,0,0,0,.71,2.87,3.69,3.69,0,0,0,2.71.76h4.32v8.42H1447a12.34,12.34,0,0,1-6.9-1.89,10.51,10.51,0,0,1-5.89,1.89h-6.73a11.11,11.11,0,0,1-5.9-1.58,10.54,10.54,0,0,1-5.31,1.58h-6.73a11.11,11.11,0,0,1-5.9-1.58,10.6,10.6,0,0,1-5.83,1.58Zm25.09-28.15a4.2,4.2,0,0,1-3.15-1.23,4.36,4.36,0,0,1-1.21-3.18,4.19,4.19,0,0,1,1.21-3.14,4.33,4.33,0,0,1,3.15-1.18,4.07,4.07,0,0,1,4.32,4.32,4.36,4.36,0,0,1-1.19,3.2A4.17,4.17,0,0,1,1416.67,296.2Zm4.68-9.26a3.85,3.85,0,0,1-2.86-1.07,4,4,0,0,1-1.08-2.92,3.77,3.77,0,0,1,1.08-2.84,4.4,4.4,0,0,1,5.73,0,3.77,3.77,0,0,1,1.08,2.84,4,4,0,0,1-1.08,2.89A3.8,3.8,0,0,1,1421.35,286.94Zm4.79,9.26A4.2,4.2,0,0,1,1423,295a4.36,4.36,0,0,1-1.21-3.18,4.19,4.19,0,0,1,1.21-3.14,4.33,4.33,0,0,1,3.15-1.18,4.07,4.07,0,0,1,4.32,4.32,4.36,4.36,0,0,1-1.19,3.2A4.17,4.17,0,0,1,1426.14,296.2Z"/><path class="cls-2" d="M1482.54,315.93h4.89v8.42h-5.68a10.47,10.47,0,0,1-5.58-1.42,11.6,11.6,0,0,1-14.31,0,10.22,10.22,0,0,1-5.57,1.42h-5.68v-8.42h4.89a2.63,2.63,0,0,0,1.84-.47,2.68,2.68,0,0,0,.47-1.84v-1.37q.06-6.25,3.37-9.79a10.44,10.44,0,0,1,7.84-3.1,10,10,0,0,1,8.57,4.05,14.5,14.5,0,0,1,2.63,8.84v1.37a1.87,1.87,0,0,0,2.32,2.31ZM1469,317q2.52,0,2.52-4.95c0-3-.84-4.52-2.52-4.52s-2.53,1.5-2.53,4.52C1466.49,315.34,1467.34,317,1469,317Z"/><path class="cls-2" d="M1486.38,324.35v-8.42h2.79a3.69,3.69,0,0,0,2.71-.76,4.31,4.31,0,0,0,.71-2.87V295.05l8.68-4.63v21.94a11.82,11.82,0,0,1-3.42,8.89,11.35,11.35,0,0,1-8.31,3.1Z"/><path class="cls-2" d="M1510.74,324.35v-29.3l8.68-4.63v33.93Z"/><path class="cls-2" d="M1562.5,315.93h4.9v8.42h-5.68a10.09,10.09,0,0,1-7.21-2.63,10.84,10.84,0,0,1-12.94-2.63,10.92,10.92,0,0,1-2.53-7.21,11.47,11.47,0,0,1,3.63-8.73,9.76,9.76,0,0,1,6.73-2.74,9.35,9.35,0,0,1,2.11.21v-.73l8.68-4.58v18.31a2.68,2.68,0,0,0,.47,1.84A2.63,2.63,0,0,0,1562.5,315.93ZM1545,294.63a4.25,4.25,0,0,1-3.16-1.24,4.34,4.34,0,0,1-1.21-3.18,4.17,4.17,0,0,1,1.21-3.13,4.33,4.33,0,0,1,3.16-1.19,4.07,4.07,0,0,1,4.31,4.32,4.4,4.4,0,0,1-1.18,3.21A4.22,4.22,0,0,1,1545,294.63Zm6.52,14.25a3.78,3.78,0,0,0-1.42-.26,2.16,2.16,0,0,0-1.84.95,4.18,4.18,0,0,0-.69,2.52q0,3.42,2.63,3.42a3,3,0,0,0,1.37-.31,10.49,10.49,0,0,1,0-1.16Zm3-14.25a4.25,4.25,0,0,1-3.16-1.24,4.34,4.34,0,0,1-1.21-3.18,4.17,4.17,0,0,1,1.21-3.13,4.33,4.33,0,0,1,3.16-1.19,4.07,4.07,0,0,1,4.31,4.32,4.4,4.4,0,0,1-1.18,3.21A4.22,4.22,0,0,1,1554.46,294.63Z"/><path class="cls-2" d="M1566.34,324.35v-8.42h6.37a11.46,11.46,0,0,1-.74-4.1q0-5.9,3.32-9.37a10.19,10.19,0,0,1,7.73-3.1,9.7,9.7,0,0,1,7.68,3.16,10,10,0,0,1,2.42,7V314a10.32,10.32,0,0,1-2.73,7.47,9.92,9.92,0,0,1-7.47,2.84Zm12-27.09a4.25,4.25,0,0,1-3.16-1.24,4.37,4.37,0,0,1-1.21-3.18,4.2,4.2,0,0,1,1.21-3.13,4.33,4.33,0,0,1,3.16-1.19,4.07,4.07,0,0,1,4.31,4.32,4.4,4.4,0,0,1-1.18,3.21A4.2,4.2,0,0,1,1578.34,297.26Zm6.1,11.94c0-1.12-.47-1.68-1.42-1.68q-2.52,0-2.52,4,0,4.42,2.52,4.42c1,0,1.42-.56,1.42-1.68Zm3.37-11.94a4.25,4.25,0,0,1-3.16-1.24,4.37,4.37,0,0,1-1.21-3.18,4.2,4.2,0,0,1,1.21-3.13,4.33,4.33,0,0,1,3.16-1.19,4.07,4.07,0,0,1,4.31,4.32,4.4,4.4,0,0,1-1.18,3.21A4.2,4.2,0,0,1,1587.81,297.26Z"/><path class="cls-2" d="M1612.27,324.35a9.77,9.77,0,0,1-7.73-3.16,10.35,10.35,0,0,1-2.47-7.15V295l8.68-4.57v23.2a1.86,1.86,0,0,0,2.31,2.31H1618v8.42Z"/><path class="cls-2" d="M1616.9,324.35v-8.42h8V295.05l8.68-4.63v12.83a17.25,17.25,0,0,1,10.89-3.89,12.89,12.89,0,0,1,10.31,4.47,13.58,13.58,0,0,1,3.32,9.26v1q0,1.89,2.31,1.89h4.9v8.42h-5.69a10.33,10.33,0,0,1-5.84-1.58,10.55,10.55,0,0,1-5.89,1.58Zm16.78-8.42h14c.84,0,1.35-.11,1.52-.34a4.1,4.1,0,0,0,.27-2v-.53a5.94,5.94,0,0,0-1.34-4,4.49,4.49,0,0,0-3.55-1.52,9.79,9.79,0,0,0-6.08,2.26A17.14,17.14,0,0,0,1633.68,315.93Z"/><path class="cls-2" d="M1664.3,324.35v-8.42h4.9a2.63,2.63,0,0,0,1.84-.47,2.68,2.68,0,0,0,.47-1.84V305l8.68-4.58V314A9.65,9.65,0,0,1,1670,324.35Zm9.31,13a4.23,4.23,0,0,1-3.15-1.24,4.36,4.36,0,0,1-1.21-3.18,4.15,4.15,0,0,1,1.21-3.13,4.31,4.31,0,0,1,3.15-1.19,4.07,4.07,0,0,1,4.32,4.32,4.44,4.44,0,0,1-1.18,3.21A4.23,4.23,0,0,1,1673.61,337.35Z"/><line class="cls-3" x1="334.2" y1="479.9" x2="1594.17" y2="479.9"/><line class="cls-3" x1="1594.17" y1="557.46" x2="334.2" y2="557.46"/><rect class="cls-4" x="1442.13" y="408.48" width="139.2" height="53.56"/><text class="cls-5"><tspan x="1540.61" y="483.23">لهأ</tspan></text><rect class="cls-4" x="1172.29" y="487.48" width="409.04" height="53.56"/><text class="cls-6"><tspan x="1361.51" y="546.25">نلعلاو ةياعدلل ةميظعلا ةي</tspan><tspan class="cls-7" x="1658.4" y="546.25">ؤ</tspan><tspan x="1670.9" y="546.25">رلا ةكش</tspan></text><rect class="cls-4" x="807.21" y="408.48" width="229.1" height="53.56"/><text class="cls-5"><tspan x="926.96" y="483.23">لع لغتشنب</tspan></text><rect class="cls-4" x="422.71" y="491.22" width="613.6" height="53.56"/><text class="cls-6"><tspan x="705.99" y="549.98">ةصاخلا ةيداصتقلا قطانلاو ندلا ةئيه مليف جاتنإ عوشم</tspan></text><line class="cls-3" x1="334.2" y1="635.01" x2="1594.17" y2="635.01"/><line class="cls-3" x1="1594.17" y1="712.57" x2="334.2" y2="712.57"/><rect class="cls-4" x="1442.13" y="566.96" width="139.2" height="53.56"/><text class="cls-5"><tspan x="1531.17" y="641.72">؟ىتم</tspan></text><rect class="cls-4" x="1172.29" y="643.96" width="409.04" height="53.56"/><text class="cls-8" transform="translate(1558.76 678.55)">01</text><rect class="cls-4" x="729.52" y="566.96" width="306.8" height="53.56"/><text class="cls-5"><tspan x="930.13" y="641.72">ـب مكدناسنب</tspan></text><text class="cls-9" transform="translate(972.84 685.91)">Crew</text><text class="cls-9" transform="translate(556.35 685.91)">Logistics</text><rect class="cls-10" x="919.91" y="664.12" width="29.18" height="29.18"/><rect class="cls-10" x="503.09" y="664.12" width="29.18" height="29.18"/><path class="cls-11" d="M922.27,676.33c2.4,1.81,3.31,2.07,5.32,4.8,3.27,4.47,2.79,6.32,3.76,7.17s5.43,1.54,8.46-2.35,7.78-14.62,13.85-21.06,8.91-8.3,10.73-9.27-3.95-.76-15.3,8.26a70.8,70.8,0,0,0-13.49,14.94,20.87,20.87,0,0,0-5.1-7.89C927,667.77,918.29,673.33,922.27,676.33Z"/><path class="cls-11" d="M504.34,676.33c2.4,1.81,3.31,2.07,5.32,4.8,3.27,4.47,2.79,6.32,3.76,7.17s5.43,1.54,8.46-2.35,7.78-14.62,13.85-21.06,8.91-8.3,10.73-9.27-4-.76-15.3,8.26a70.8,70.8,0,0,0-13.49,14.94,20.87,20.87,0,0,0-5.1-7.89C509.05,667.77,500.36,673.33,504.34,676.33Z"/><text class="cls-9" transform="translate(750.89 685.91)">Equipment</text><rect class="cls-10" x="701.1" y="663.95" width="29.18" height="29.18"/><path class="cls-11" d="M702.35,676.16c2.4,1.82,3.31,2.07,5.32,4.8,3.27,4.47,2.79,6.32,3.76,7.17s5.43,1.54,8.47-2.35,7.77-14.62,13.84-21,8.91-8.3,10.73-9.28-4-.76-15.3,8.26a70.72,70.72,0,0,0-13.49,14.95,20.72,20.72,0,0,0-5.1-7.9C707.06,667.6,698.37,673.16,702.35,676.16Z"/></svg>