<svg id="Layer_1" data-name="Layer 1" xmlns="http://www.w3.org/2000/svg" viewBox="0 0 1920 1080"><defs><style>.cls-1{fill:#fff;}.cls-2{fill:none;stroke:#fff;stroke-miterlimit:10;stroke-width:3px;}.cls-3{fill:#cf3339;}</style></defs><rect x="-0.01" width="1920.03" height="1080"/><path class="cls-1" d="M420.37,90.31a8.31,8.31,0,1,0,8.31,8.31A8.32,8.32,0,0,0,420.37,90.31Zm0,15.55a7.24,7.24,0,1,1,7.24-7.24A7.25,7.25,0,0,1,420.37,105.86Z"/><path class="cls-1" d="M423.9,100.31c0-1.34-.75-1.71-1.25-1.78v0A2,2,0,0,0,424,96.38c0-1.42-1-2.28-2.78-2.28h-4v8.42h1.47V99.06h2.17c1.35,0,1.67.68,1.67,2.22a2.28,2.28,0,0,0,.23,1.24h1.58A3.81,3.81,0,0,1,423.9,100.31Zm-2.77-2.37h-2.42V95.31h2.39c.77,0,1.46.21,1.46,1.28C422.56,97.48,422.06,97.94,421.13,97.94Z"/><polygon class="cls-1" points="163.78 144.5 199.69 198.68 103.74 198.68 103.74 118.13 122.18 90.31 199.69 90.31 163.78 144.5"/><rect class="cls-1" x="224.64" y="90.31" width="49.89" height="108.37"/><polygon class="cls-1" points="395.42 90.31 395.42 140.2 372.05 140.2 372.05 170.87 353.62 198.68 324.08 198.68 324.08 140.2 299.48 140.2 299.48 90.31 395.42 90.31"/><path class="cls-1" d="M412.39,165.93h5.28c2.4,0,3.7,1.33,3.7,3.56s-1.3,3.58-3.7,3.56H414V178h-1.6Zm1.6,5.77h3.14c1.81,0,2.64-.78,2.64-2.21s-.83-2.21-2.64-2.21H414Z"/><path class="cls-1" d="M425,165.93h5.67c2.26,0,3.66,1.23,3.66,3.16a2.89,2.89,0,0,1-2.09,3v0c1.4.27,1.68,1.3,1.8,2.48s0,2.5.71,3.33H433c-.45-.49-.2-1.79-.44-3s-.45-2.18-2-2.18h-3.92V178H425Zm4.94,5.55c1.5,0,2.79-.39,2.79-2.14a1.91,1.91,0,0,0-2.15-2.06h-4v4.2Z"/><path class="cls-1" d="M443.37,165.64c3.83,0,5.77,3,5.77,6.31s-1.94,6.31-5.77,6.31-5.78-3-5.78-6.31S439.53,165.64,443.37,165.64Zm0,11.27c2.93,0,4.16-2.53,4.16-5s-1.23-5-4.16-5-4.17,2.53-4.17,5S440.43,176.91,443.37,176.91Z"/><path class="cls-1" d="M452.79,165.93h4.13c3.71,0,5.79,1.86,5.79,5.74,0,4-1.77,6.31-5.79,6.31h-4.13Zm1.6,10.7h2.67c1.09,0,4.05-.31,4.05-4.74,0-2.87-1.07-4.61-4-4.61h-2.7Z"/><path class="cls-1" d="M476,173.62c0,3-1.74,4.64-4.74,4.64s-4.95-1.43-4.95-4.64v-7.69h1.6v7.69a3,3,0,0,0,3.35,3.29c2,0,3.13-1.16,3.13-3.29v-7.69H476Z"/><path class="cls-1" d="M488.71,169.56a3.18,3.18,0,0,0-3.38-2.57c-2.87,0-4.08,2.37-4.08,4.88,0,2.75,1.21,5,4.1,5a3.4,3.4,0,0,0,3.47-3.47h1.61c-.31,3-2.18,4.82-5.22,4.82-3.74,0-5.57-2.76-5.57-6.27s2-6.35,5.71-6.35c2.51,0,4.59,1.35,5,3.92Z"/><path class="cls-1" d="M496.84,167.28h-4v-1.35h9.63v1.35h-4V178h-1.61Z"/><path class="cls-1" d="M505.56,165.93h1.6v12h-1.6Z"/><path class="cls-1" d="M516.64,165.64c3.83,0,5.78,3,5.78,6.31s-1.95,6.31-5.78,6.31-5.77-3-5.77-6.31S512.81,165.64,516.64,165.64Zm0,11.27c2.94,0,4.17-2.53,4.17-5s-1.23-5-4.17-5-4.16,2.53-4.16,5S513.71,176.91,516.64,176.91Z"/><path class="cls-1" d="M526.05,165.93h1.7l6.35,9.77h0v-9.77h1.52v12H533.9l-6.3-9.67h0V178h-1.52Z"/><path class="cls-1" d="M412.39,186.19h7.92v1.35H414v3.83h5.54v1.35H414v5.51h-1.6Z"/><path class="cls-1" d="M426.11,186.19h1.78l4.7,12h-1.77l-1.31-3.62h-5.1l-1.35,3.62h-1.65Zm-1.19,7.07H429l-2-5.62h0Z"/><path class="cls-1" d="M443.94,189.81a3.18,3.18,0,0,0-3.38-2.56c-2.87,0-4.08,2.36-4.08,4.88,0,2.75,1.21,5,4.1,5a3.41,3.41,0,0,0,3.48-3.48h1.6c-.3,3-2.18,4.83-5.22,4.83-3.74,0-5.56-2.77-5.56-6.28s2-6.34,5.7-6.34c2.51,0,4.59,1.35,5,3.91Z"/><path class="cls-1" d="M449.41,186.19H451v12h-1.6Z"/><path class="cls-1" d="M455.4,186.19H457v10.69h6.37v1.35h-8Z"/><path class="cls-1" d="M466.54,186.19h1.61v12h-1.61Z"/><path class="cls-1" d="M475.27,187.54h-4v-1.35h9.64v1.35h-4v10.69h-1.6Z"/><path class="cls-1" d="M484,186.19h1.6v12H484Z"/><path class="cls-1" d="M490,186.19h8.32v1.35h-6.71v3.83h6.26v1.35h-6.26v4.16h6.76v1.35H490Z"/><path class="cls-1" d="M509,189.71c-.19-1.72-1.34-2.46-3-2.46-1.35,0-2.7.49-2.7,2.06s1.92,1.7,3.86,2.14,3.85,1.11,3.85,3.48c0,2.56-2.51,3.59-4.71,3.59-2.7,0-5-1.32-5-4.25h1.52c0,2,1.69,2.9,3.51,2.9,1.45,0,3.06-.45,3.06-2.19s-1.93-1.94-3.85-2.37-3.86-1-3.86-3.18c0-2.45,2.17-3.53,4.37-3.53,2.46,0,4.33,1.16,4.43,3.81Z"/><polygon class="cls-2" points="553.47 1002.07 553.47 1025.75 548.02 1029.72 525.81 1029.72 525.81 1005.93 531.12 1002.07 553.47 1002.07"/><path class="cls-1" d="M545.19,1009.53c-2.17-.07-3.64,1.15-4.41,3.68a2.94,2.94,0,0,1,1.16-.26q1.2,0,1,1.35a5.94,5.94,0,0,1-1,2.36c-.66,1-1.15,1.56-1.48,1.56s-.81-.8-1.16-2.4c-.12-.47-.33-1.67-.63-3.59s-1-2.62-2.25-2.5a5.12,5.12,0,0,0-2.33,1.4l-2.28,2,.73,1a5.24,5.24,0,0,1,1.23-.74c.54,0,1,.85,1.51,2.54s.85,3.09,1.27,4.64c.63,1.68,1.4,2.53,2.32,2.53q2.21,0,5.4-4.16,3.09-4,3.2-6.27C547.56,1010.62,546.8,1009.58,545.19,1009.53Z"/><path class="cls-1" d="M580.68,1009.24l-4.55,5.3c1.57,1.73,3.38,3.75,4.93,5.52v.2h-3.92l-3.2-3.73v3.73h-3.17v-11.21h3.17v3.68c1-1.18,2-2.49,2.94-3.68h3.8Z"/><path class="cls-1" d="M583.23,1008.83a1.49,1.49,0,1,1-1.66,1.49A1.52,1.52,0,0,1,583.23,1008.83Zm1.48,11.43v-7.78h-3v7.78Z"/><path class="cls-1" d="M590.07,1010.11v2.29h1.77v2.25h-1.79v2.6a.71.71,0,0,0,.79.77,1.69,1.69,0,0,0,.86-.28l.64,2.18a4.58,4.58,0,0,1-2.27.53c-1.57,0-3-.72-2.93-3.2v-2.6h-1.27v-2.25h1.27v-2Z"/><path class="cls-1" d="M592.63,1020.21h7.89v2.34h-7.89Z"/><path class="cls-1" d="M608.69,1012.16a4.17,4.17,0,0,0-2.62-.77c-.77,0-1.52.24-1.52.83,0,.77.75.88,1.85,1,2.23.24,4.55,1.14,4.55,3.72s-2.4,3.63-4.91,3.65a6,6,0,0,1-5-2l1.74-2a4.5,4.5,0,0,0,3.28,1.26c1,0,1.76-.37,1.76-1s-.64-.91-1.87-1c-2.45-.22-4.56-.84-4.56-3.63,0-2.37,2.32-3.39,4.69-3.39a6.32,6.32,0,0,1,4.19,1.33Z"/><path class="cls-1" d="M618.05,1012.35h2.77v7.91H618.1l-.13-.85a3.24,3.24,0,0,1-2.61,1c-2.32-.14-3.61-1.79-3.61-4.1a3.85,3.85,0,0,1,3.84-4.13,2.61,2.61,0,0,1,2.32,1Zm-3.38,3.95a1.57,1.57,0,0,0,1.59,1.73,1.64,1.64,0,0,0,1.63-1.73,1.56,1.56,0,0,0-1.63-1.74A1.59,1.59,0,0,0,614.67,1016.3Z"/><path class="cls-1" d="M625.39,1012.35v4.37c0,1,.56,1.31,1.11,1.31a1.32,1.32,0,0,0,1.36-1.47v-4.21h2.91v7.91h-2.61l-.12-.87a3.23,3.23,0,0,1-2.5,1.06c-1.67,0-3.09-.9-3.09-3.71v-4.39Z"/><path class="cls-1" d="M638.12,1009.05h2.94v11.21h-2.62l-.13-.85a3.24,3.24,0,0,1-2.61,1c-2.32-.14-3.62-1.6-3.62-4.1a3.81,3.81,0,0,1,3.84-4.13,2.75,2.75,0,0,1,2.2.85ZM635,1016.3a1.57,1.57,0,0,0,1.58,1.73,1.59,1.59,0,0,0,1.59-1.65,1.64,1.64,0,0,0-1.59-1.82A1.58,1.58,0,0,0,635,1016.3Z"/><path class="cls-1" d="M644.27,1008.83a1.49,1.49,0,1,1-1.66,1.49A1.52,1.52,0,0,1,644.27,1008.83Zm1.48,11.43v-7.78h-3v7.78Z"/><path class="cls-1" d="M932.92,1010.83a6.79,6.79,0,0,1-1.64.46c.26,0,.65-.52.8-.71a3,3,0,0,0,.55-1s0-.07,0-.09a.08.08,0,0,0-.08,0,8.35,8.35,0,0,1-1.95.74.13.13,0,0,1-.13,0,1.49,1.49,0,0,0-.17-.18,3.48,3.48,0,0,0-.94-.57,3.24,3.24,0,0,0-1.44-.24,3.43,3.43,0,0,0-1.37.39,3.42,3.42,0,0,0-1.77,2.23,3.61,3.61,0,0,0,0,1.39c0,.08,0,.09-.07.08a10.39,10.39,0,0,1-6.68-3.4c-.08-.09-.12-.09-.18,0a3.38,3.38,0,0,0,.57,4c.14.12.27.25.41.36a3.41,3.41,0,0,1-1.28-.36c-.08,0-.12,0-.13.06a2.61,2.61,0,0,0,0,.39,3.43,3.43,0,0,0,2.11,2.73,3.52,3.52,0,0,0,.43.13,4.25,4.25,0,0,1-1.26,0c-.09,0-.13,0-.09.11a3.54,3.54,0,0,0,2.65,2.23c.12,0,.24,0,.36,0l0,0a4.28,4.28,0,0,1-1.81,1,6.64,6.64,0,0,1-2.76.35c-.14,0-.18,0-.22,0s0,.06.05.1.38.23.57.34a9.44,9.44,0,0,0,1.84.74,9.81,9.81,0,0,0,9.52-2.23,10,10,0,0,0,2.63-7.29c0-.1.13-.16.2-.21a6.65,6.65,0,0,0,1.3-1.35.44.44,0,0,0,.08-.26h0C933,1010.78,933,1010.8,932.92,1010.83Z"/><polygon class="cls-2" points="938.71 1002.07 938.71 1025.75 933.26 1029.72 911.05 1029.72 911.05 1005.93 916.36 1002.07 938.71 1002.07"/><path class="cls-1" d="M966.24,1009.24l-4.55,5.3c1.57,1.73,3.38,3.75,4.93,5.52v.2H962.7l-3.2-3.73v3.73h-3.17v-11.21h3.17v3.68c1-1.18,2-2.49,2.94-3.68h3.8Z"/><path class="cls-1" d="M968.79,1008.83a1.49,1.49,0,1,1-1.66,1.49A1.52,1.52,0,0,1,968.79,1008.83Zm1.47,11.43v-7.78h-3v7.78Z"/><path class="cls-1" d="M975.62,1010.11v2.29h1.78v2.25h-1.79v2.6a.7.7,0,0,0,.78.77,1.69,1.69,0,0,0,.87-.28l.64,2.18a4.59,4.59,0,0,1-2.28.53c-1.56,0-3-.72-2.92-3.2v-2.6h-1.27v-2.25h1.27v-2Z"/><path class="cls-1" d="M978.18,1020.21h7.89v2.34h-7.89Z"/><path class="cls-1" d="M994.25,1012.16a4.18,4.18,0,0,0-2.63-.77c-.76,0-1.52.24-1.52.83,0,.77.76.88,1.86,1,2.23.24,4.55,1.14,4.55,3.72s-2.4,3.63-4.92,3.65a6,6,0,0,1-5-2l1.75-2a4.48,4.48,0,0,0,3.28,1.26c1,0,1.76-.37,1.76-1s-.64-.91-1.87-1c-2.45-.22-4.56-.84-4.56-3.63,0-2.37,2.32-3.39,4.68-3.39a6.33,6.33,0,0,1,4.2,1.33Z"/><path class="cls-1" d="M1003.61,1012.35h2.77v7.91h-2.72l-.13-.85a3.24,3.24,0,0,1-2.61,1c-2.32-.14-3.62-1.79-3.62-4.1a3.85,3.85,0,0,1,3.84-4.13,2.6,2.6,0,0,1,2.32,1Zm-3.38,3.95a1.57,1.57,0,0,0,1.59,1.73,1.64,1.64,0,0,0,1.63-1.73,1.56,1.56,0,0,0-1.63-1.74A1.59,1.59,0,0,0,1000.23,1016.3Z"/><path class="cls-1" d="M1011,1012.35v4.37c0,1,.56,1.31,1.11,1.31a1.32,1.32,0,0,0,1.36-1.47v-4.21h2.91v7.91h-2.61l-.13-.87a3.2,3.2,0,0,1-2.49,1.06c-1.67,0-3.09-.9-3.09-3.71v-4.39Z"/><path class="cls-1" d="M1023.67,1009.05h2.95v11.21H1024l-.13-.85a3.22,3.22,0,0,1-2.6,1c-2.32-.14-3.62-1.6-3.62-4.1a3.8,3.8,0,0,1,3.84-4.13,2.72,2.72,0,0,1,2.19.85Zm-3.1,7.25a1.57,1.57,0,0,0,1.58,1.73,1.59,1.59,0,0,0,1.59-1.65,1.64,1.64,0,0,0-1.59-1.82A1.58,1.58,0,0,0,1020.57,1016.3Z"/><path class="cls-1" d="M1029.83,1008.83a1.49,1.49,0,1,1-1.66,1.49A1.52,1.52,0,0,1,1029.83,1008.83Zm1.47,11.43v-7.78h-3v7.78Z"/><polygon class="cls-2" points="1668.72 1002.07 1668.72 1025.75 1663.28 1029.72 1641.07 1029.72 1641.07 1005.93 1646.37 1002.07 1668.72 1002.07"/><path class="cls-1" d="M1657.71,1021.06h-2.39l-.92-4.73-2.53,4.73h-2.26l-1.95-9.87h3a33.62,33.62,0,0,1,.78,5.76l2.84-5.76h1.93l.87,5.76,2.75-5.76h3Z"/><path class="cls-1" d="M1695.7,1012.35l1.39,4.4.59-2.24.74-2.16h3.09l-2.9,7.95h-2.7l-1.11-3-1.09,3H1691l-2.88-7.95h3.07l.75,2.18.61,2.22,1.39-4.4Z"/><path class="cls-1" d="M1709.07,1012.35l1.4,4.4.59-2.24.74-2.16h3.08l-2.89,7.95h-2.71l-1.1-3-1.09,3h-2.74l-2.88-7.95h3.07l.76,2.18.61,2.22,1.39-4.4Z"/><path class="cls-1" d="M1722.45,1012.35l1.39,4.4.6-2.24.73-2.16h3.09l-2.9,7.95h-2.7l-1.11-3-1.08,3h-2.74l-2.88-7.95h3.07l.75,2.18.61,2.22,1.39-4.4Z"/><path class="cls-1" d="M1730,1017.49a1.45,1.45,0,1,1,0,2.89A1.45,1.45,0,1,1,1730,1017.49Z"/><path class="cls-1" d="M1736.11,1009.05v5.62l1.65-2.32H1741v.13l-2.77,3.58,3.22,4v.18h-3.33l-2.05-2.76v2.76h-3v-11.21Z"/><path class="cls-1" d="M1743.74,1008.83a1.49,1.49,0,1,1-1.66,1.49A1.52,1.52,0,0,1,1743.74,1008.83Zm1.48,11.43v-7.78h-3v7.78Z"/><path class="cls-1" d="M1750.58,1010.11v2.29h1.77v2.25h-1.79v2.6a.71.71,0,0,0,.79.77,1.69,1.69,0,0,0,.86-.28l.64,2.18a4.58,4.58,0,0,1-2.27.53c-1.57,0-3-.72-2.93-3.2v-2.6h-1.27v-2.25h1.27v-2Z"/><path class="cls-1" d="M1753.86,1014.45h6.43v2.33h-6.43Z"/><path class="cls-1" d="M1769.19,1012.16a4.18,4.18,0,0,0-2.63-.77c-.77,0-1.52.24-1.52.83,0,.77.75.88,1.86,1,2.22.24,4.54,1.14,4.54,3.72s-2.4,3.63-4.91,3.65a6,6,0,0,1-5-2l1.74-2a4.51,4.51,0,0,0,3.28,1.26c1,0,1.77-.37,1.77-1s-.64-.91-1.88-1c-2.45-.22-4.56-.84-4.56-3.63,0-2.37,2.32-3.39,4.69-3.39a6.32,6.32,0,0,1,4.19,1.33Z"/><path class="cls-1" d="M1778.55,1012.35h2.76v7.91h-2.72l-.12-.85a3.26,3.26,0,0,1-2.61,1c-2.32-.14-3.62-1.79-3.62-4.1a3.85,3.85,0,0,1,3.84-4.13,2.6,2.6,0,0,1,2.32,1Zm-3.38,3.95a1.57,1.57,0,0,0,1.58,1.73,1.64,1.64,0,0,0,1.64-1.73,1.61,1.61,0,1,0-3.22,0Z"/><path class="cls-1" d="M1785.89,1012.35v4.37c0,1,.56,1.31,1.1,1.31a1.31,1.31,0,0,0,1.36-1.47v-4.21h2.92v7.91h-2.61l-.13-.87a3.22,3.22,0,0,1-2.5,1.06c-1.66,0-3.09-.9-3.09-3.72v-4.38Z"/><path class="cls-1" d="M1798.61,1009.05h2.94v11.21h-2.62l-.13-.85a3.24,3.24,0,0,1-2.61,1c-2.32-.14-3.62-1.6-3.62-4.1a3.81,3.81,0,0,1,3.85-4.13,2.73,2.73,0,0,1,2.19.85Zm-3.11,7.25a1.59,1.59,0,1,0,3.17.08,1.63,1.63,0,0,0-1.58-1.82A1.59,1.59,0,0,0,1795.5,1016.3Z"/><path class="cls-1" d="M1804.77,1008.83a1.49,1.49,0,1,1-1.67,1.49A1.52,1.52,0,0,1,1804.77,1008.83Zm1.47,11.43v-7.78h-3v7.78Z"/><path class="cls-1" d="M1809.36,1017.49a1.45,1.45,0,1,1,0,2.89A1.45,1.45,0,1,1,1809.36,1017.49Z"/><path class="cls-1" d="M1819.81,1019.07a4.9,4.9,0,0,1-3.27,1.35c-2.3,0-4.48-1.14-4.48-4.1s2.21-4.15,4.44-4.15a4.34,4.34,0,0,1,3.1,1.24l-1.57,1.69a1.78,1.78,0,0,0-1.36-.57,1.67,1.67,0,0,0-1.73,1.8,1.6,1.6,0,0,0,1.72,1.64,2,2,0,0,0,1.47-.66Z"/><path class="cls-1" d="M1829.2,1016.32c0,2.88-2.29,4.13-4.51,4.13s-4.52-1.25-4.52-4.13,2.23-4.15,4.52-4.15S1829.2,1013.44,1829.2,1016.32Zm-2.88,0a1.63,1.63,0,1,0-3.26,0,1.63,1.63,0,1,0,3.26,0Z"/><path class="cls-1" d="M1835.3,1020.26v-4.39c0-.91-.31-1.22-.84-1.22s-1,.4-1,1.27v4.34h-2.93v-7.91H1833l.2.85a2.62,2.62,0,0,1,2.18-1,2.23,2.23,0,0,1,2,1.12,3.13,3.13,0,0,1,2.62-1.14c1.72,0,3,1.06,3,3.68v4.41h-3v-4.39c0-.83-.38-1.17-.81-1.17a1,1,0,0,0-1,1.2v4.36Z"/><path class="cls-1" d="M1314.19,1010.86a.92.92,0,1,0,.91.92A.92.92,0,0,0,1314.19,1010.86Z"/><path class="cls-1" d="M1310.1,1012a3.86,3.86,0,1,0,3.86,3.86A3.86,3.86,0,0,0,1310.1,1012Zm0,6.33a2.48,2.48,0,1,1,2.47-2.47A2.48,2.48,0,0,1,1310.1,1018.37Z"/><path class="cls-1" d="M1313.17,1023.73h-6.26a4.71,4.71,0,0,1-4.71-4.71v-6.25a4.71,4.71,0,0,1,4.71-4.71h6.26a4.71,4.71,0,0,1,4.7,4.71V1019A4.71,4.71,0,0,1,1313.17,1023.73Zm-6.26-14.19a3.23,3.23,0,0,0-3.23,3.23V1019a3.24,3.24,0,0,0,3.23,3.24h6.26a3.24,3.24,0,0,0,3.23-3.24v-6.25a3.23,3.23,0,0,0-3.23-3.23Z"/><polygon class="cls-2" points="1323.87 1002.07 1323.87 1025.75 1318.42 1029.72 1296.21 1029.72 1296.21 1005.93 1301.52 1002.07 1323.87 1002.07"/><path class="cls-1" d="M1351.87,1009.24l-4.54,5.3c1.57,1.73,3.38,3.75,4.93,5.52v.2h-3.92l-3.21-3.73v3.73H1342v-11.21h3.16v3.68c1-1.18,2-2.49,2.95-3.68h3.79Z"/><path class="cls-1" d="M1354.43,1008.83a1.49,1.49,0,1,1-1.66,1.49A1.52,1.52,0,0,1,1354.43,1008.83Zm1.47,11.43v-7.78h-3v7.78Z"/><path class="cls-1" d="M1361.26,1010.11v2.29H1363v2.25h-1.79v2.6a.7.7,0,0,0,.78.77,1.69,1.69,0,0,0,.87-.28l.64,2.18a4.62,4.62,0,0,1-2.28.53c-1.57,0-3-.72-2.93-3.2v-2.6h-1.26v-2.25h1.26v-2Z"/><path class="cls-1" d="M1363.82,1020.21h7.89v2.34h-7.89Z"/><path class="cls-1" d="M1379.89,1012.16a4.18,4.18,0,0,0-2.63-.77c-.77,0-1.52.24-1.52.83,0,.77.75.88,1.86,1,2.22.24,4.54,1.14,4.54,3.72s-2.4,3.63-4.91,3.65a6,6,0,0,1-5-2l1.75-2a4.48,4.48,0,0,0,3.28,1.26c1,0,1.76-.37,1.76-1s-.64-.91-1.88-1c-2.44-.22-4.56-.84-4.56-3.63,0-2.37,2.32-3.39,4.69-3.39a6.35,6.35,0,0,1,4.2,1.33Z"/><path class="cls-1" d="M1389.25,1012.35H1392v7.91h-2.73l-.12-.85a3.26,3.26,0,0,1-2.61,1c-2.32-.14-3.62-1.79-3.62-4.1a3.85,3.85,0,0,1,3.84-4.13,2.6,2.6,0,0,1,2.32,1Zm-3.38,3.95a1.57,1.57,0,0,0,1.58,1.73,1.64,1.64,0,0,0,1.64-1.73,1.61,1.61,0,1,0-3.22,0Z"/><path class="cls-1" d="M1396.59,1012.35v4.37c0,1,.56,1.31,1.1,1.31a1.31,1.31,0,0,0,1.36-1.47v-4.21H1402v7.91h-2.61l-.13-.87a3.21,3.21,0,0,1-2.5,1.06c-1.66,0-3.09-.9-3.09-3.72v-4.38Z"/><path class="cls-1" d="M1409.31,1009.05h3v11.21h-2.63l-.13-.85a3.24,3.24,0,0,1-2.61,1c-2.32-.14-3.61-1.6-3.61-4.1a3.8,3.8,0,0,1,3.84-4.13,2.72,2.72,0,0,1,2.19.85Zm-3.1,7.25a1.57,1.57,0,0,0,1.58,1.73,1.58,1.58,0,0,0,1.58-1.65,1.63,1.63,0,0,0-1.58-1.82A1.58,1.58,0,0,0,1406.21,1016.3Z"/><path class="cls-1" d="M1415.47,1008.83a1.49,1.49,0,1,1-1.67,1.49A1.52,1.52,0,0,1,1415.47,1008.83Zm1.47,11.43v-7.78h-3v7.78Z"/><path class="cls-1" d="M123.6,1019.17c-1-.87-2-1.39-3-.53l-.6.52c-.43.38-1.24,2.14-4.36-1.45s-1.27-4.15-.83-4.53l.59-.52c1-.86.62-1.94-.09-3.06l-.44-.68c-.71-1.11-1.49-1.84-2.49-1l-.53.47a5,5,0,0,0-2,3.33c-.36,2.36.77,5.07,3.35,8s5.12,4.47,7.51,4.44a5.07,5.07,0,0,0,3.57-1.47l.54-.47c1-.86.38-1.74-.63-2.6Z"/><polygon class="cls-2" points="131.4 1002.07 131.4 1025.75 125.95 1029.72 103.74 1029.72 103.74 1005.93 109.05 1002.07 131.4 1002.07"/><path class="cls-1" d="M150.38,1013.85v-2.11H153v2.11h2.19v2.45H153v2.13h-2.64v-2.13H148.2v-2.45Z"/><path class="cls-1" d="M159.65,1017c.06.67.78,1,1.68,1s1.87-.48,1.87-1.44v-1a3.93,3.93,0,0,1-2.59.77c-2.37,0-4.13-1.26-4.13-3.63,0-2.76,2.41-3.86,4.88-3.86s4.94,1.12,4.94,3.89v3.78c0,2.81-2.48,3.92-4.94,3.92s-4.74-.85-4.74-3.44Zm0-4.29c0,.86.67,1.36,1.71,1.36,1.23,0,1.83-.59,1.83-1.35s-.63-1.28-1.81-1.28C160.4,1011.45,159.63,1011.92,159.63,1012.72Z"/><path class="cls-1" d="M174.56,1012.3c-.07-.67-.79-1-1.68-1s-1.76.49-1.76,1.35v1.06a4.65,4.65,0,0,1,2.59-.77c2.37,0,4.13,1.26,4.13,3.63,0,2.75-2.42,3.86-4.88,3.86s-5-1.12-5-3.89v-3.89c0-2.66,2.39-3.81,4.85-3.81s4.72.85,4.72,3.44Zm.13,4.29c0-.86-.68-1.36-1.72-1.36-1.23,0-1.82.59-1.82,1.34s.62,1.29,1.81,1.29C173.92,1017.86,174.69,1017.39,174.69,1016.59Z"/><path class="cls-1" d="M185.84,1012.3c-.07-.67-.79-1-1.68-1s-1.76.49-1.76,1.35v1.06A4.65,4.65,0,0,1,185,1013c2.37,0,4.13,1.26,4.13,3.63,0,2.75-2.42,3.86-4.88,3.86s-5-1.12-5-3.89v-3.89c0-2.66,2.39-3.81,4.85-3.81s4.72.85,4.72,3.44Zm.13,4.29c0-.86-.68-1.36-1.72-1.36-1.23,0-1.82.59-1.82,1.34s.62,1.29,1.81,1.29C185.2,1017.86,186,1017.39,186,1016.59Z"/><path class="cls-1" d="M202.78,1011.65H197.2V1013h1.5c2.47,0,4.69.68,4.68,3.7,0,2.75-2.5,3.73-4.61,3.73-2.68,0-4.68-1-4.69-3.86h3.09a1.4,1.4,0,0,0,1.56,1.32c.47,0,1.56-.2,1.56-1.19s-1-1.22-1.59-1.22h-4.43v-6.38h8.51Z"/><path class="cls-1" d="M211.36,1012.3c-.07-.67-.79-1-1.68-1s-1.76.49-1.76,1.35v1.06a4.65,4.65,0,0,1,2.59-.77c2.37,0,4.13,1.26,4.13,3.63,0,2.75-2.42,3.86-4.88,3.86s-4.95-1.12-4.95-3.89v-3.89c0-2.66,2.39-3.81,4.85-3.81s4.72.85,4.72,3.44Zm.13,4.29c0-.86-.68-1.36-1.72-1.36-1.23,0-1.82.59-1.82,1.34s.62,1.29,1.81,1.29C210.72,1017.86,211.49,1017.39,211.49,1016.59Z"/><path class="cls-1" d="M221,1014.45a2.76,2.76,0,0,1-1.15-2.23c0-2.27,2-3.41,4.63-3.41s4.93,1.14,4.93,3.38a2.43,2.43,0,0,1-1.19,2.14,2.85,2.85,0,0,1,1.48,2.44c0,2.73-2.2,3.73-5.09,3.73s-5.16-1-5.09-3.73A2.88,2.88,0,0,1,221,1014.45Zm1.8,2.32c0,.77.83,1.18,1.81,1.18s1.8-.37,1.77-1.17-.64-1.2-1.76-1.2S222.8,1016,222.8,1016.77Zm1.76-5.56c-2.07,0-2.07,2.29,0,2.29S226.62,1011.21,224.56,1011.21Z"/><path class="cls-1" d="M239.82,1011.65h-5.58V1013h1.5c2.47,0,4.69.68,4.68,3.7,0,2.75-2.5,3.73-4.61,3.73-2.68,0-4.68-1-4.69-3.86h3.09a1.4,1.4,0,0,0,1.56,1.32c.47,0,1.56-.2,1.56-1.19s-1-1.22-1.59-1.22h-4.43v-6.38h8.51Z"/><path class="cls-1" d="M243.15,1014.45a2.71,2.71,0,0,1-1.15-2.23c0-2.27,2-3.41,4.62-3.41s4.93,1.14,4.93,3.38a2.42,2.42,0,0,1-1.18,2.14,2.86,2.86,0,0,1,1.47,2.44c0,2.73-2.19,3.73-5.09,3.73s-5.15-1-5.09-3.73A2.92,2.92,0,0,1,243.15,1014.45Zm1.79,2.32c0,.77.83,1.18,1.81,1.18s1.81-.37,1.78-1.17-.64-1.2-1.76-1.2S244.94,1016,244.94,1016.77Zm1.76-5.56c-2.06,0-2.06,2.29,0,2.29S248.77,1011.21,246.7,1011.21Z"/><path class="cls-1" d="M263.53,1012.3c-.06-.67-.78-1-1.68-1s-1.76.49-1.76,1.35v1.06a4.69,4.69,0,0,1,2.6-.77c2.37,0,4.13,1.26,4.13,3.63,0,2.75-2.42,3.86-4.89,3.86s-4.94-1.12-4.94-3.89v-3.89c0-2.66,2.38-3.81,4.85-3.81s4.72.85,4.72,3.44Zm.13,4.29c0-.86-.67-1.36-1.71-1.36-1.23,0-1.83.59-1.83,1.34s.63,1.29,1.81,1.29C262.89,1017.86,263.66,1017.39,263.66,1016.59Z"/><path class="cls-1" d="M268.17,1017.87H270v-5.33l-1.69.5v-2.48l4.67-1.7v9h1.67v2.39h-6.44Z"/><path class="cls-1" d="M282.38,1012.3c-.06-.67-.78-1-1.68-1s-1.76.49-1.76,1.35v1.06a4.68,4.68,0,0,1,2.59-.77c2.37,0,4.13,1.26,4.13,3.63,0,2.75-2.41,3.86-4.88,3.86s-4.94-1.12-4.94-3.89v-3.89c0-2.66,2.38-3.81,4.85-3.81s4.72.85,4.72,3.44Zm.13,4.29c0-.86-.67-1.36-1.71-1.36-1.23,0-1.83.59-1.83,1.34s.63,1.29,1.81,1.29C281.74,1017.86,282.51,1017.39,282.51,1016.59Z"/><path class="cls-1" d="M287,1014c0-3.65,2.36-5.06,5.11-5.06s5,1.53,5,5.06v1.52c0,3.58-2.32,5.07-5,5.07s-5.14-1.39-5.14-5.06Zm3.11,1.53c0,1.72.85,2.47,2,2.47s2-.75,2-2.47V1014c0-1.65-.83-2.4-1.95-2.4s-2,.71-2,2.4Z"/><path class="cls-3" d="M122,433.1l-3.53,4.28v5.38h-9.16V413.35h9.16V423.9L126,413.35h12.23L128,425.79l10.46,17H126.7Z"/><path class="cls-3" d="M150.93,442.76h-9.16V413.35h9.16Z"/><path class="cls-3" d="M179.66,421.12h-8.11v21.64h-9.16V421.12h-8.1v-7.77h25.37Z"/><path class="cls-3" d="M206.62,413.35c9,0,13.19,3.41,13.19,10.67s-4.07,10.76-12.1,10.76h-5.08v8h-9.16V413.35Zm-4,7.86v5.71h4c2.81,0,4-.84,4-2.81s-1.26-2.9-4.07-2.9Z"/><path class="cls-3" d="M238.25,428.22a8.59,8.59,0,0,0-6.6,3.57v11h-8.53v-21h8.53v3.83c1.89-2.69,4.37-4.25,6.6-4.25Z"/><path class="cls-3" d="M252,443.18c-6.76.12-12.22-4.75-12.1-10.92-.12-6.18,5.34-11.05,12.1-10.93,6.76-.12,12.22,4.75,12.1,10.93C264.2,438.43,258.74,443.3,252,443.18Zm0-7.23a3.7,3.7,0,1,0-3.66-3.69A3.48,3.48,0,0,0,251.94,436Z"/><path class="cls-3" d="M282.26,443.18a8.55,8.55,0,0,1-6.3-2.73V451h-8.53v-29.2H276v2.32a8.52,8.52,0,0,1,6.3-2.74c5.17,0,8.86,4.42,8.86,10.93S287.43,443.18,282.26,443.18Zm-3-14.62a3.88,3.88,0,0,0-3.32,1.89v3.61a3.88,3.88,0,0,0,3.32,1.89,3.7,3.7,0,0,0,0-7.39Z"/><path class="cls-3" d="M305.74,443.18c-6.76.12-12.23-4.75-12.1-10.92-.13-6.18,5.34-11.05,12.1-10.93,6.76-.12,12.22,4.75,12.1,10.93C318,438.43,312.5,443.3,305.74,443.18Zm0-7.23a3.7,3.7,0,1,0-3.66-3.69A3.48,3.48,0,0,0,305.7,436Z"/><path class="cls-3" d="M336,428.9a15.23,15.23,0,0,0-6.34-1.94c-.93,0-1.39.26-1.39.8,0,.38.25.55,1.72.93l1.85.46c5.17,1.34,7.31,3.36,7.31,6.93,0,4.54-3.4,7.1-9.32,7.1a19.06,19.06,0,0,1-10.42-3l2.94-4.91a15.39,15.39,0,0,0,7.69,2.31c.79,0,1.21-.29,1.21-.84s-.25-.59-1.42-.92l-2.52-.68c-5-1.38-7-3.19-7-6.59,0-4.54,3.41-7.19,9.24-7.19a19,19,0,0,1,9.2,2.4Z"/><path class="cls-3" d="M363.32,442.76h-8.53v-2.44a8.47,8.47,0,0,1-6.3,2.86c-4.07,0-6.8-2.65-6.8-6.47s2.77-6.18,7.43-6.18h5.67V430c0-1.39-1.05-2.14-2.94-2.14a13.17,13.17,0,0,0-5.75,1.64l-2.4-5.42a23.32,23.32,0,0,1,10.63-2.78c5.72,0,9,2.82,9,7.86Zm-8.53-8.82h-2.26c-1.6,0-2.4.67-2.4,2a2.15,2.15,0,0,0,2.4,2.23,4.06,4.06,0,0,0,2.26-.72Z"/><path class="cls-3" d="M375.63,442.76H367.1V413.35h8.53Z"/><path class="cls-1" d="M134.46,704c-1.62,1.58-4.22,2.34-7.8,2.34H109.3V676.48H126c6.18,0,9.77,2.64,9.77,7.63a6.68,6.68,0,0,1-4.18,6.57,7.42,7.42,0,0,1,5.29,7.42A7.86,7.86,0,0,1,134.46,704ZM118.6,688.21h4.65c1.83,0,2.86-.73,2.86-2.09s-1-2.09-2.86-2.09H118.6Zm5.71,6.14H118.6v4.43h5.71c2,0,3-1,3-2.21S126.36,694.35,124.31,694.35Z"/><path class="cls-1" d="M155.11,708.21c-1.71,4.56-4.82,6.87-9.34,6.87a22.23,22.23,0,0,1-7.85-1.71l2.39-5.63a12.13,12.13,0,0,0,4.05,1,3.51,3.51,0,0,0,3.12-1.58l.12-.17-9-22h9.12l3.67,12,3.37-12h9Z"/></svg>