<svg xmlns="http://www.w3.org/2000/svg" viewBox="0 0 374.13 325.02"><defs><style>.cls-1{fill:#fff;}.cls-2{fill:#cf3339;}.cls-3{fill:none;stroke:#fff;stroke-miterlimit:10;}.cls-4{fill:#3eb871;}</style></defs><g id="Layer_2" data-name="Layer 2"><g id="Layer_1-2" data-name="Layer 1"><path class="cls-1" d="M130.68,20a10.38,10.38,0,0,0-8.7-4.54,10,10,0,0,0-7.87,3.4,12.09,12.09,0,0,0-3,8.4,12.09,12.09,0,0,0,3,8.4A10,10,0,0,0,122,39a10.38,10.38,0,0,0,8.7-4.54l14.3,8a28.18,28.18,0,0,1-23.15,12c-15.06.3-28.3-12.56-27.92-27.24C93.53,12.56,106.77-.3,121.83,0A28.2,28.2,0,0,1,145,12Z"/><path class="cls-1" d="M178.26,27.54c-4.31,0-8.55,2.27-11.88,6.43V53.72H151V15.89h15.36v6.89c3.41-4.84,7.87-7.64,11.88-7.64Z"/><path class="cls-1" d="M222.44,38.44h-25.8c.68,3.33,2.8,5,7,5a12,12,0,0,0,7.49-2.57L219.33,48a24.88,24.88,0,0,1-17.09,6.51c-12.18,0-21-8.7-21-19.67s8.63-19.67,20.66-19.67c12.63,0,20.58,8.62,20.58,19.67Zm-15-7.11a5.07,5.07,0,0,0-5.3-5.38c-3.1,0-5,1.82-5.6,5.38Z"/><path class="cls-1" d="M276.37,53.72H260L256.1,38.06l-3.79,15.66H235.82L225.16,15.89h15.28l4.39,21.26,5.44-21.26H262l5.37,21.26,4.39-21.26h15.36Z"/><path class="cls-2" d="M132.38,78.61a12,12,0,0,1-6,7.58,22.24,22.24,0,0,1-11,2.42q-9.21,0-13.78-5.21a13.85,13.85,0,0,1-3.42-9.47A13.46,13.46,0,0,1,100,67l8.2-1.74a15.17,15.17,0,0,0-1.79,7.1q0,7.78,9,7.79,5.58,0,7.53-2l-.64-.15a12.09,12.09,0,0,1-8-4.63,11.75,11.75,0,0,1-2.52-7.37q0-5.9,3.31-9.36a10.2,10.2,0,0,1,7.74-3.11,9.7,9.7,0,0,1,7.68,3.16,10.07,10.07,0,0,1,2.42,7v6.41h5.26v8.42ZM117,51.52a4.21,4.21,0,0,1-3.16-1.24,4.37,4.37,0,0,1-1.21-3.18A4.2,4.2,0,0,1,113.86,44,4.33,4.33,0,0,1,117,42.79a4.07,4.07,0,0,1,4.32,4.31,4.4,4.4,0,0,1-1.19,3.21A4.17,4.17,0,0,1,117,51.52ZM124.23,70V63.46c0-1.12-.47-1.68-1.42-1.68q-2.53,0-2.53,4c0,2.17.88,3.49,2.63,3.94Zm2.26-18.46a4.21,4.21,0,0,1-3.16-1.24,4.37,4.37,0,0,1-1.21-3.18A4.2,4.2,0,0,1,123.33,44a4.33,4.33,0,0,1,3.16-1.18,4.06,4.06,0,0,1,4.31,4.31,4.4,4.4,0,0,1-1.18,3.21A4.17,4.17,0,0,1,126.49,51.52Z"/><path class="cls-2" d="M139,91.61a4.25,4.25,0,0,1-3.16-1.24,4.39,4.39,0,0,1-1.21-3.18,4.2,4.2,0,0,1,1.21-3.13A4.33,4.33,0,0,1,139,82.87a4.07,4.07,0,0,1,4.31,4.32,4.4,4.4,0,0,1-1.18,3.21A4.2,4.2,0,0,1,139,91.61Zm-1.84-13V70.19H142a1.86,1.86,0,0,0,2.31-2.31V59.25L153,54.67V68.3A9.65,9.65,0,0,1,142.8,78.61Zm11.31,13a4.25,4.25,0,0,1-3.16-1.24,4.34,4.34,0,0,1-1.21-3.18,4.17,4.17,0,0,1,1.21-3.13,4.33,4.33,0,0,1,3.16-1.19,4.07,4.07,0,0,1,4.31,4.32,4.4,4.4,0,0,1-1.18,3.21A4.22,4.22,0,0,1,148.43,91.61Z"/><path class="cls-2" d="M176,70.19h4.89v8.42h-5.68c-.46,0-1.07,0-1.85-.1q-1.31,6.63-6.73,9.26a11.89,11.89,0,0,1-5,1.1,14.3,14.3,0,0,1-7-1.89V79.45A10.83,10.83,0,0,0,160,81a7.13,7.13,0,0,0,2-.26c2.06-.67,3.1-2.44,3.1-5.32V59.25l8.68-4.58V67.88A1.86,1.86,0,0,0,176,70.19Z"/><path class="cls-2" d="M179.84,78.61V70.19H187v8.42Z"/><path class="cls-2" d="M185.94,78.61V70.19h7.15v8.42Z"/><path class="cls-2" d="M192,78.61V70.19h7.16v8.42Z"/><path class="cls-2" d="M198.14,78.61V70.19h7.16v8.42Z"/><path class="cls-2" d="M204.25,78.61V70.19h7.15v8.42Z"/><path class="cls-2" d="M210.35,78.61V70.19h7.15v8.42Z"/><path class="cls-2" d="M216.45,78.61V70.19h7.16v8.42Z"/><path class="cls-2" d="M248.33,70.19h6.21v8.42H243.39a23.39,23.39,0,0,1-4.84-.42,23.45,23.45,0,0,1-4.84.42H222.55V70.19h6.21a11.71,11.71,0,0,1-1.1-4.84,12,12,0,0,1,3.21-8.68,10.31,10.31,0,0,1,7.68-3.05,10.09,10.09,0,0,1,8.41,3.9,12.44,12.44,0,0,1,2.48,7.83A11.73,11.73,0,0,1,248.33,70.19Zm-9.89-18.67a4.21,4.21,0,0,1-3.16-1.24,4.36,4.36,0,0,1-1.2-3.18,4.2,4.2,0,0,1,1.2-3.13,4.33,4.33,0,0,1,3.16-1.18,4.07,4.07,0,0,1,4.32,4.31,4.4,4.4,0,0,1-1.19,3.21A4.17,4.17,0,0,1,238.44,51.52Zm.11,17.83A5.18,5.18,0,0,0,241,64.78c0-2-.83-3-2.47-3s-2.48,1-2.48,2.94A5.14,5.14,0,0,0,238.55,69.35Z"/><path class="cls-2" d="M253.49,78.61V70.19h2.79a3.69,3.69,0,0,0,2.71-.76,4.31,4.31,0,0,0,.71-2.87V49.31l8.68-4.63V66.62A11.82,11.82,0,0,1,265,75.51a11.36,11.36,0,0,1-8.32,3.1Z"/><path class="cls-2" d="M277.85,78.61V49.31l8.68-4.63V78.61Z"/><line class="cls-3" x1="0.95" y1="289.87" x2="374.13" y2="289.87"/><rect class="cls-3" x="111.06" y="168.1" width="112.29" height="74.49"/><polyline class="cls-3" points="223.35 194.55 264.02 169.8 264.02 244.29 223.35 216.75"/><line class="cls-3" x1="174.93" y1="242.59" x2="210.13" y2="289.87"/><line class="cls-3" x1="160.19" y1="242.59" x2="125" y2="289.87"/><line class="cls-3" x1="148.07" y1="183.01" x2="148.07" y2="224.83"/><line class="cls-3" x1="182.61" y1="183.01" x2="182.61" y2="224.83"/><path class="cls-4" d="M208.78,322.28l-2.21-2.2a6.86,6.86,0,0,1-3.89,1.15,6.84,6.84,0,1,1,7-6.83,6.73,6.73,0,0,1-1.67,4.44l2.16,2.15Zm-5.68-5.68,1.38-1.25,2.17,2.14a4.89,4.89,0,0,0,1-3.09,5,5,0,1,0-2.45,4.35Z"/><path class="cls-4" d="M222,311.55V321h-1.8v-1.27a7,7,0,0,1-4.11,1.46,3.24,3.24,0,0,1-3.55-3.49v-6.19h1.79v5.69a2.27,2.27,0,0,0,2.47,2.51,5.23,5.23,0,0,0,3.4-1.38v-6.82Z"/><path class="cls-4" d="M233.61,321h-1.79v-1a5.59,5.59,0,0,1-3.55,1.21c-2.3,0-3.7-1.21-3.7-3s1.46-3,3.82-3h3.43v-.09c0-1.46-.87-2.24-2.6-2.24a5.73,5.73,0,0,0-3.27,1.08l-.62-1.33a7.61,7.61,0,0,1,4.23-1.23c2.59,0,4.05,1.29,4.05,3.55Zm-1.79-4.57h-3.17c-1.46,0-2.32.6-2.32,1.67s.8,1.61,2.25,1.61a6.17,6.17,0,0,0,3.24-.95Z"/><path class="cls-4" d="M246,321h-1.79v-5.69a2.27,2.27,0,0,0-2.47-2.51,5.21,5.21,0,0,0-3.4,1.38V321h-1.81v-9.49h1.81v1.27a6.94,6.94,0,0,1,4.1-1.46,3.24,3.24,0,0,1,3.56,3.49Z"/><path class="cls-4" d="M255,320.65a4.93,4.93,0,0,1-2.26.58,3.06,3.06,0,0,1-3.19-3.3V313h-1.63v-1.48h1.63v-2.74h1.79v2.74h2.88V313h-2.88v4.65a1.83,1.83,0,0,0,1.88,2,3.49,3.49,0,0,0,1.52-.35Z"/><path class="cls-4" d="M258.4,310.12a1,1,0,0,1-1-1,1,1,0,0,1,1-1,1,1,0,0,1,1,1A1,1,0,0,1,258.4,310.12Zm.9,10.92h-1.79v-9.49h1.79Z"/><path class="cls-4" d="M268.61,320.65a4.93,4.93,0,0,1-2.26.58,3.06,3.06,0,0,1-3.2-3.3V313h-1.63v-1.48h1.63v-2.74h1.79v2.74h2.89V313h-2.89v4.65a1.83,1.83,0,0,0,1.88,2,3.46,3.46,0,0,0,1.52-.35Z"/><path class="cls-4" d="M275.58,322c-.84,2-2,2.95-3.65,2.95a6.45,6.45,0,0,1-2.18-.44l.51-1.29a3.77,3.77,0,0,0,1.48.3c1,0,1.58-.49,2.24-1.78l.19-.38-4.29-9.8h1.9l3.19,7.56,3.06-7.56h1.86Z"/><path class="cls-4" d="M331.87,321.12h-5.24v-13.3h5.24a6.66,6.66,0,1,1,0,13.3Zm-3.32-11.57v9.84h3.27a4.92,4.92,0,1,0,0-9.84Z"/><path class="cls-4" d="M350.4,321.12h-1.79v-1a5.65,5.65,0,0,1-3.55,1.21c-2.3,0-3.7-1.21-3.7-3s1.46-3,3.81-3h3.44v-.09c0-1.47-.87-2.24-2.6-2.24a5.73,5.73,0,0,0-3.27,1.08l-.62-1.33a7.62,7.62,0,0,1,4.23-1.24c2.59,0,4,1.3,4,3.56Zm-1.79-4.58h-3.17c-1.46,0-2.32.61-2.32,1.68s.8,1.61,2.24,1.61a6.21,6.21,0,0,0,3.25-.95Z"/><path class="cls-4" d="M358,322.07c-.84,2-2,2.95-3.65,2.95a6.45,6.45,0,0,1-2.19-.44l.52-1.29a3.7,3.7,0,0,0,1.48.3c1,0,1.58-.49,2.24-1.78l.19-.38-4.29-9.81h1.9l3.19,7.56,3.06-7.56h1.86Z"/><path class="cls-4" d="M370.8,313.69a6.81,6.81,0,0,0-3.26-.91c-1.26,0-1.88.44-1.88,1.29,0,.67.39.92,1.93,1.35l1.12.31c2.23.6,3,1.31,3,2.66,0,1.84-1.44,2.92-3.89,2.92a8,8,0,0,1-4.33-1.23l.63-1.22a7.18,7.18,0,0,0,3.78,1.1c1.4,0,2.11-.47,2.11-1.44,0-.72-.33-.93-1.75-1.35l-1.24-.34a7.06,7.06,0,0,1-2.43-1.05,1.92,1.92,0,0,1-.68-1.55c0-1.75,1.4-2.8,3.68-2.8a7.56,7.56,0,0,1,3.82,1Z"/><path class="cls-4" d="M10.87,311.2A5,5,0,0,0,7,309.36a5,5,0,0,0,0,10.07,5.1,5.1,0,0,0,3.88-1.88l1.54,1.1A6.84,6.84,0,0,1,7,321.23a6.84,6.84,0,1,1,0-13.67,6.87,6.87,0,0,1,5.44,2.58Z"/><path class="cls-4" d="M21,313a5.59,5.59,0,0,0-4.16,1.82V321H15v-9.49h1.81v1.8a5.77,5.77,0,0,1,4.16-2Z"/><path class="cls-4" d="M32.38,317H24.3a3,3,0,0,0,3.17,2.77,4.4,4.4,0,0,0,3.16-1.12l1,1a6,6,0,0,1-4.17,1.63,4.91,4.91,0,0,1-5-5,4.94,4.94,0,0,1,9.88,0Zm-1.73-1.33a3,3,0,0,0-3.21-2.79,3,3,0,0,0-3.16,2.79Z"/><path class="cls-4" d="M45.45,321h-2l-2.26-6.89L39,321H37l-3.21-9.49h1.81l2.49,7.58,2.41-7.58H42l2.41,7.58,2.49-7.58h1.81Z"/></g></g></svg>