<svg xmlns="http://www.w3.org/2000/svg" viewBox="0 0 415.3 325.41"><defs><style>.cls-1{fill:#fff;}.cls-2{fill:#cf3339;}.cls-3{fill:none;stroke:#fff;stroke-miterlimit:10;}.cls-4{fill:#3eb871;}</style></defs><g id="Layer_2" data-name="Layer 2"><g id="Layer_1-2" data-name="Layer 1"><path class="cls-1" d="M45.77,15.36H17.85v4.69h26V33.74h-26v5.37h28.3v14.6H1.36V.76H45.77Z"/><path class="cls-1" d="M93.35,15.89V68.47H78V49.55a15.32,15.32,0,0,1-11.34,4.92c-9.31,0-16-7.94-16-19.67s6.66-19.67,16-19.67A15.32,15.32,0,0,1,78,20.05V15.89ZM78,31.55a7,7,0,0,0-6-3.41,6.34,6.34,0,0,0-6.21,6.66A6.34,6.34,0,0,0,72,41.46a7,7,0,0,0,6-3.41Z"/><path class="cls-1" d="M141.08,15.89V53.71H125.73V50a23.64,23.64,0,0,1-13.32,4.46c-7.64,0-12.63-4.54-12.63-12V15.89h15.35V37.75c0,2.72,1.59,4.31,4.39,4.31a10.89,10.89,0,0,0,6.21-2.19v-24Z"/><path class="cls-1" d="M156.59,13.39c-4.47,0-8-3-8-6.66s3.63-6.73,8-6.73,8,3,8,6.73S161.05,13.39,156.59,13.39Zm7.71,40.32H148.94V15.89H164.3Z"/><path class="cls-1" d="M198.8,54.47a15.34,15.34,0,0,1-11.35-4.92V68.47H172.09V15.89h15.36v4.16a15.34,15.34,0,0,1,11.35-4.92c9.3,0,16,7.94,16,19.67S208.1,54.47,198.8,54.47Zm-5.37-26.33a7,7,0,0,0-6,3.41v6.5a7,7,0,0,0,6,3.41,6.34,6.34,0,0,0,6.2-6.66A6.34,6.34,0,0,0,193.43,28.14Z"/><path class="cls-1" d="M273.54,15.13c7.64,0,13.16,4.09,13.16,12V53.71H271.27V31.85c0-2.72-1.59-4.31-4-4.31a11,11,0,0,0-5.75,1.59c.07,1.06.07,2.42.07,4.08v20.5H246.23V31.85c0-2.72-1.59-4.31-4-4.31a10.73,10.73,0,0,0-5.68,1.59V53.71H221.19V15.89h15.35v4.23a19.6,19.6,0,0,1,12.71-5c4.62,0,8.48,1.74,10.6,5.15C265,16.27,268.47,15.13,273.54,15.13Z"/><path class="cls-1" d="M333.15,38.43h-25.8c.68,3.33,2.8,5,7,5a12,12,0,0,0,7.49-2.57L330,48A24.88,24.88,0,0,1,313,54.47c-12.18,0-21-8.7-21-19.67s8.63-19.67,20.66-19.67c12.63,0,20.58,8.62,20.58,19.67Zm-15-7.11a5.07,5.07,0,0,0-5.3-5.37c-3.1,0-5,1.81-5.6,5.37Z"/><path class="cls-1" d="M380.2,53.71H364.84V31.85c0-2.72-1.59-4.31-4.39-4.31a10.84,10.84,0,0,0-6.2,2.19v24H338.89V15.89h15.36v3.7a23.58,23.58,0,0,1,13.31-4.46c7.64,0,12.64,4.54,12.64,12Z"/><path class="cls-1" d="M415.3,51a26.29,26.29,0,0,1-12.87,3.48c-7.64,0-13.24-4.46-13.24-13.24V27.54h-4.46V15.89h4.46V6.43h15.36v9.46h8.55V27.54h-8.55v11c0,2.35,1.59,3.48,3.94,3.48a9.64,9.64,0,0,0,4.91-1.43Z"/><path class="cls-2" d="M14.74,78.61a9.31,9.31,0,0,1-7.42-3.16A10.65,10.65,0,0,1,5,68.3V64l8.63-4.58v8.47a2.69,2.69,0,0,0,.47,1.85,2.68,2.68,0,0,0,1.84.47H32.73a2.68,2.68,0,0,0,1.84-.47A2.69,2.69,0,0,0,35,67.87V59.25l8.68-4.58V68.3a10,10,0,0,1-3.15,7.83,10.13,10.13,0,0,1-7,2.48Zm4.78-24.47a4.2,4.2,0,0,1-3.15-1.23,4.37,4.37,0,0,1-1.21-3.19,4.18,4.18,0,0,1,1.21-3.13,4.29,4.29,0,0,1,3.15-1.18,4.07,4.07,0,0,1,4.32,4.31,4.37,4.37,0,0,1-1.19,3.21A4.17,4.17,0,0,1,19.52,54.14Zm9.47,0a4.2,4.2,0,0,1-3.15-1.23,4.37,4.37,0,0,1-1.21-3.19,4.18,4.18,0,0,1,1.21-3.13A4.29,4.29,0,0,1,29,45.41a4.07,4.07,0,0,1,4.32,4.31,4.37,4.37,0,0,1-1.19,3.21A4.17,4.17,0,0,1,29,54.14Z"/><path class="cls-2" d="M53.19,78.61V49.3l8.68-4.63V78.61Z"/><path class="cls-2" d="M67.13,78.61l4.37-8.42h7.31a1.4,1.4,0,0,0,1.58-1.58c0-3-1.6-5.44-4.79-7.26L79.86,54q8.06,4.68,9,12.52a5.74,5.74,0,0,0,1,3,3.76,3.76,0,0,0,2.58.63h3.79v8.42H92.07A12.39,12.39,0,0,1,85.76,77a8.5,8.5,0,0,1-5.32,1.58Z"/><path class="cls-2" d="M95.17,78.61V70.19h7.16v8.42Z"/><path class="cls-2" d="M101.28,78.61V70.19h7.15v8.42Z"/><path class="cls-2" d="M107.38,78.61V70.19h7.15v8.42Z"/><path class="cls-2" d="M113.48,78.61V70.19h7.16v8.42Z"/><path class="cls-2" d="M119.58,78.61V70.19h7.16v8.42Z"/><path class="cls-2" d="M125.69,78.61V70.19h7.15v8.42Z"/><path class="cls-2" d="M131.79,78.61V70.19h7.15v8.42Z"/><path class="cls-2" d="M137.89,78.61V70.19h7.16v8.42Z"/><path class="cls-2" d="M144,78.61V70.19h7.16v8.42Z"/><path class="cls-2" d="M150.1,78.61V70.19h7.15v8.42Z"/><path class="cls-2" d="M156.2,78.61V70.19h7.15v8.42Z"/><path class="cls-2" d="M162.3,78.61V70.19h7.16v8.42Z"/><path class="cls-2" d="M168.4,78.61V70.19h7.16v8.42Z"/><path class="cls-2" d="M174.51,78.61V70.19h7.15v8.42Z"/><path class="cls-2" d="M180.61,78.61V70.19h7.16v8.42Z"/><path class="cls-2" d="M186.71,78.61V70.19h7.16v8.42Z"/><path class="cls-2" d="M192.82,78.61V70.19H200v8.42Z"/><path class="cls-2" d="M198.92,78.61V70.19h7.15v8.42Z"/><path class="cls-2" d="M205,78.61V70.19h7.16v8.42Z"/><path class="cls-2" d="M211.12,78.61V70.19h7.16v8.42Z"/><path class="cls-2" d="M217.23,78.61V70.19h7.15v8.42Z"/><path class="cls-2" d="M223.33,78.61V70.19h7.15v8.42Z"/><path class="cls-2" d="M229.43,78.61V70.19h7.16v8.42Z"/><path class="cls-2" d="M235.53,78.61V70.19h7.16v8.42Z"/><path class="cls-2" d="M241.64,78.61V70.19h7.15v8.42Z"/><path class="cls-2" d="M247.74,78.61V70.19h7.15v8.42Z"/><path class="cls-2" d="M253.84,78.61V70.19H261v8.42Z"/><path class="cls-2" d="M259.94,78.61V70.19h7.16v8.42Z"/><path class="cls-2" d="M266.05,78.61V70.19h7.15v8.42Z"/><path class="cls-2" d="M272.15,78.61V70.19h7.15v8.42Z"/><path class="cls-2" d="M278.25,78.61V70.19h7.16v8.42Z"/><path class="cls-2" d="M284.36,78.61V70.19h7.15v8.42Z"/><path class="cls-2" d="M290.46,78.61V70.19h7.15v8.42Z"/><path class="cls-2" d="M296.56,78.61V70.19h7.16v8.42Z"/><path class="cls-2" d="M341.44,78.61H327a16.94,16.94,0,0,1-5-.74,16.94,16.94,0,0,1-5.05.74H302.66V70.19h8.89A55.55,55.55,0,0,1,308.08,65V62.09A19.54,19.54,0,0,1,314.37,56a14.57,14.57,0,0,1,7.6-2.36,14.41,14.41,0,0,1,7.6,2.42,19.83,19.83,0,0,1,6.34,6.15V65a48.66,48.66,0,0,1-3.52,5.16h8.94ZM326.86,63.72a7.84,7.84,0,0,0-4.89-2,7,7,0,0,0-4.89,2,14.32,14.32,0,0,0,4.89,5.1A14.32,14.32,0,0,0,326.86,63.72Z"/><path class="cls-2" d="M372.32,70.19h4.89v8.42h-5.68A10.51,10.51,0,0,1,366,77.19a11.6,11.6,0,0,1-14.31,0,10.33,10.33,0,0,1-5.57,1.42h-5.69V70.19h4.9a1.86,1.86,0,0,0,2.31-2.32V66.51q.06-6.27,3.37-9.79a10.4,10.4,0,0,1,7.84-3.1,10,10,0,0,1,8.57,4.05A14.48,14.48,0,0,1,370,66.51v1.36a1.87,1.87,0,0,0,2.32,2.32Zm-13.52,1q2.52,0,2.52-4.94,0-4.53-2.52-4.53t-2.53,4.53Q356.27,71.24,358.8,71.24Z"/><path class="cls-2" d="M376.16,78.61V70.19H379a3.69,3.69,0,0,0,2.71-.76,4.33,4.33,0,0,0,.71-2.87V49.3l8.68-4.63V66.61a11.8,11.8,0,0,1-3.42,8.89,11.36,11.36,0,0,1-8.31,3.11Z"/><path class="cls-2" d="M400.52,78.61V49.3l8.68-4.63V78.61Z"/><line class="cls-3" y1="289.87" x2="413.93" y2="289.87"/><rect class="cls-3" x="164.99" y="181.82" width="83.95" height="32.28"/><rect class="cls-3" x="177.05" y="214.11" width="59.84" height="27.83"/><line class="cls-3" x1="180.43" y1="241.79" x2="227.84" y2="289.87"/><line class="cls-3" x1="233.73" y1="241.79" x2="186.09" y2="289.87"/><line class="cls-3" x1="236.88" y1="181.82" x2="236.88" y2="168.09"/><line class="cls-3" x1="177.05" y1="181.82" x2="177.05" y2="168.09"/><path class="cls-4" d="M233.93,321.75l-2.21-2.21a6.79,6.79,0,0,1-3.89,1.16,6.84,6.84,0,1,1,7-6.84,6.76,6.76,0,0,1-1.67,4.45l2.16,2.14Zm-5.68-5.69,1.38-1.25L231.8,317a4.91,4.91,0,0,0,1-3.1,5,5,0,1,0-2.45,4.35Z"/><path class="cls-4" d="M247.15,311v9.5h-1.8v-1.27a7,7,0,0,1-4.11,1.46,3.24,3.24,0,0,1-3.55-3.5V311h1.79v5.7a2.27,2.27,0,0,0,2.47,2.51,5.22,5.22,0,0,0,3.4-1.39V311Z"/><path class="cls-4" d="M258.76,320.51H257v-1a5.6,5.6,0,0,1-3.55,1.22c-2.3,0-3.7-1.22-3.7-3s1.46-3,3.82-3H257v-.1c0-1.46-.87-2.24-2.6-2.24a5.67,5.67,0,0,0-3.27,1.09l-.62-1.33a7.62,7.62,0,0,1,4.23-1.24c2.59,0,4,1.29,4,3.55ZM257,315.93H253.8c-1.46,0-2.32.61-2.32,1.67s.8,1.62,2.25,1.62a6.17,6.17,0,0,0,3.24-1Z"/><path class="cls-4" d="M271.19,320.51H269.4v-5.7a2.27,2.27,0,0,0-2.47-2.51,5.22,5.22,0,0,0-3.4,1.39v6.82h-1.8V311h1.8v1.27a7,7,0,0,1,4.1-1.46,3.24,3.24,0,0,1,3.56,3.5Z"/><path class="cls-4" d="M280.17,320.11a4.83,4.83,0,0,1-2.26.59,3.06,3.06,0,0,1-3.19-3.31v-4.9h-1.63V311h1.63v-2.73h1.79V311h2.88v1.48h-2.88v4.66a1.82,1.82,0,0,0,1.88,2,3.48,3.48,0,0,0,1.52-.34Z"/><path class="cls-4" d="M283.56,309.59a1,1,0,0,1-1-1,1,1,0,0,1,1-1,1,1,0,0,1,1,1A1,1,0,0,1,283.56,309.59Zm.89,10.92h-1.79V311h1.79Z"/><path class="cls-4" d="M293.76,320.11a4.83,4.83,0,0,1-2.26.59,3.06,3.06,0,0,1-3.19-3.31v-4.9h-1.64V311h1.64v-2.73h1.78V311H293v1.48h-2.89v4.66a1.83,1.83,0,0,0,1.88,2,3.45,3.45,0,0,0,1.52-.34Z"/><path class="cls-4" d="M300.73,321.46c-.83,2-2,2.94-3.65,2.94a6.67,6.67,0,0,1-2.18-.43l.51-1.29a4,4,0,0,0,1.48.3c1,0,1.58-.49,2.25-1.79l.18-.38L295,311h1.9l3.19,7.56,3.06-7.56H305Z"/><path class="cls-4" d="M357,320.59h-5.24v-13.3H357a6.66,6.66,0,1,1,0,13.3ZM353.7,309v9.84H357a4.92,4.92,0,1,0,0-9.84Z"/><path class="cls-4" d="M375.55,320.59h-1.79v-1a5.6,5.6,0,0,1-3.55,1.22c-2.3,0-3.7-1.22-3.7-3s1.46-3,3.81-3h3.44v-.1c0-1.46-.87-2.24-2.6-2.24a5.73,5.73,0,0,0-3.27,1.08l-.62-1.33a7.69,7.69,0,0,1,4.23-1.23c2.59,0,4.05,1.29,4.05,3.55ZM373.76,316h-3.17c-1.46,0-2.32.61-2.32,1.67s.8,1.62,2.25,1.62a6.27,6.27,0,0,0,3.24-.95Z"/><path class="cls-4" d="M383.19,321.54c-.84,2-2,2.94-3.65,2.94a6.57,6.57,0,0,1-2.18-.43l.51-1.3a3.75,3.75,0,0,0,1.48.31c1,0,1.58-.5,2.24-1.79l.19-.38-4.29-9.8h1.9l3.19,7.56,3.06-7.56h1.86Z"/><path class="cls-4" d="M396,313.16a6.81,6.81,0,0,0-3.26-.91c-1.26,0-1.88.44-1.88,1.29,0,.66.4.91,1.93,1.35l1.12.3c2.23.61,3,1.31,3,2.66,0,1.84-1.45,2.93-3.9,2.93a8,8,0,0,1-4.33-1.24l.63-1.21a7.21,7.21,0,0,0,3.78,1.1c1.4,0,2.11-.48,2.11-1.44,0-.73-.33-.94-1.75-1.35l-1.24-.35a7.29,7.29,0,0,1-2.43-1,1.92,1.92,0,0,1-.68-1.56c0-1.75,1.4-2.79,3.68-2.79a7.56,7.56,0,0,1,3.82,1Z"/><path class="cls-4" d="M24.05,310.11H15.86v4h7.56v1.67H15.86V320h8.36v1.71H13.94V308.4H24.05Z"/><path class="cls-4" d="M36.12,312.2v13.21H34.31v-4.85a4.17,4.17,0,0,1-3.21,1.33,4.94,4.94,0,0,1,0-9.88,4.21,4.21,0,0,1,3.21,1.33V312.2ZM34.31,315a3.65,3.65,0,0,0-3-1.43,3.41,3.41,0,0,0,0,6.8,3.67,3.67,0,0,0,3-1.42Z"/><path class="cls-4" d="M48.54,312.2v9.5h-1.8v-1.27a7,7,0,0,1-4.11,1.46,3.24,3.24,0,0,1-3.55-3.49v-6.2h1.79v5.7a2.27,2.27,0,0,0,2.47,2.51,5.17,5.17,0,0,0,3.4-1.39V312.2Z"/><path class="cls-4" d="M52.74,310.78a1,1,0,0,1-1-1,1,1,0,0,1,2,0A1,1,0,0,1,52.74,310.78Zm.89,10.92H51.85v-9.5h1.78Z"/><path class="cls-4" d="M62,321.89a4.17,4.17,0,0,1-3.21-1.33v4.85H57V312.2h1.8v1.14A4.21,4.21,0,0,1,62,312a4.94,4.94,0,0,1,0,9.88Zm-.19-8.34a3.65,3.65,0,0,0-3,1.43v3.95a3.67,3.67,0,0,0,3,1.42,3.41,3.41,0,0,0,0-6.8Z"/><path class="cls-4" d="M82.32,312a3.2,3.2,0,0,1,3.42,3.5v6.19h-1.8V316a2.22,2.22,0,0,0-2.28-2.52,4.93,4.93,0,0,0-3.29,1.23,5.63,5.63,0,0,1,.17,1.44v5.55H76.76V316a2.23,2.23,0,0,0-2.3-2.52,4.43,4.43,0,0,0-3.1,1.25v7h-1.8v-9.5h1.8v1.37A5.86,5.86,0,0,1,75.22,312a3.1,3.1,0,0,1,2.91,1.62A6.21,6.21,0,0,1,82.32,312Z"/><path class="cls-4" d="M98.15,317.62H90.08a3,3,0,0,0,3.17,2.77,4.38,4.38,0,0,0,3.15-1.12l1,1a6,6,0,0,1-4.16,1.63,4.92,4.92,0,0,1-5-5,4.94,4.94,0,0,1,9.88,0Zm-1.73-1.33a3,3,0,0,0-3.21-2.8,3,3,0,0,0-3.15,2.8Z"/><path class="cls-4" d="M110.2,321.7h-1.79V316a2.27,2.27,0,0,0-2.47-2.51,5.22,5.22,0,0,0-3.4,1.39v6.82h-1.8v-9.5h1.8v1.28a7,7,0,0,1,4.1-1.47,3.24,3.24,0,0,1,3.56,3.5Z"/><path class="cls-4" d="M119.18,321.3a4.83,4.83,0,0,1-2.26.59,3.06,3.06,0,0,1-3.19-3.3v-4.9H112.1V312.2h1.63v-2.73h1.79v2.73h2.88v1.49h-2.88v4.65a1.82,1.82,0,0,0,1.88,2,3.48,3.48,0,0,0,1.52-.34Z"/></g></g></svg>