<svg xmlns="http://www.w3.org/2000/svg" viewBox="0 0 369.74 325.62"><defs><style>.cls-1{fill:#fff;}.cls-2{fill:#cf3339;}.cls-3{fill:none;stroke:#fff;stroke-miterlimit:10;}.cls-4{fill:#3eb871;}</style></defs><g id="Layer_2" data-name="Layer 2"><g id="Layer_1-2" data-name="Layer 1"><path class="cls-1" d="M30.11,39H54.92V53.71H13.62V.76H30.11Z"/><path class="cls-1" d="M80.49,54.47c-12.18.23-22-8.55-21.79-19.67-.23-11.12,9.61-19.9,21.79-19.67,12.18-.23,22,8.55,21.79,19.67C102.5,45.92,92.67,54.7,80.49,54.47Zm-.08-13a6.28,6.28,0,0,0,6.66-6.66,6.62,6.62,0,1,0-13.24,0A6.26,6.26,0,0,0,80.41,41.46Z"/><path class="cls-1" d="M149.48,15.89V52.2c0,6-1.89,10.29-5.6,13.09s-8.55,4.16-14.53,4.16c-7.79,0-15.73-1.59-22.09-4.84l4.32-9.91a33.83,33.83,0,0,0,14.52,3.18c4.92,0,8-1.75,8-5.68V49.1a15.5,15.5,0,0,1-11.35,4.77c-9.3,0-16-7.8-16-19.37s6.66-19.37,16-19.37A15.54,15.54,0,0,1,134.12,20V15.89ZM134.12,31.32a7,7,0,0,0-6-3.4,6.32,6.32,0,0,0-6.2,6.58,6.32,6.32,0,0,0,6.2,6.58,7,7,0,0,0,6-3.4Z"/><path class="cls-1" d="M164.6,13.39c-4.46,0-7.94-3-7.94-6.66S160.29,0,164.6,0c4.47,0,8,3,8,6.73S169.07,13.39,164.6,13.39Zm7.72,40.32H157V15.89h15.36Z"/><path class="cls-1" d="M207.72,28.75c-3.7-2-8.47-3.48-11.42-3.48-1.66,0-2.5.45-2.5,1.44,0,.68.46,1,3.11,1.66l3.32.83c9.31,2.42,13.17,6.05,13.17,12.48,0,8.18-6.13,12.79-16.8,12.79A34.4,34.4,0,0,1,177.84,49l5.3-8.85A27.63,27.63,0,0,0,197,44.33c1.44,0,2.19-.53,2.19-1.51s-.45-1.06-2.57-1.66L192.06,40C183,37.45,179.5,34.2,179.5,28.07c0-8.17,6.13-12.94,16.65-12.94a34.27,34.27,0,0,1,16.57,4.31Z"/><path class="cls-1" d="M247.74,51a26.28,26.28,0,0,1-12.86,3.48c-7.64,0-13.24-4.46-13.24-13.24V27.54h-4.46V15.89h4.46V6.43H237v9.46h8.55V27.54H237v11c0,2.35,1.59,3.48,3.93,3.48a9.67,9.67,0,0,0,4.92-1.43Z"/><path class="cls-1" d="M261.28,13.39c-4.46,0-7.95-3-7.95-6.66S257,0,261.28,0c4.46,0,8,3,8,6.73S265.74,13.39,261.28,13.39ZM269,53.71H253.64V15.89H269Z"/><path class="cls-1" d="M301.67,30.49a6.47,6.47,0,0,0-5.29-2.35c-3.33,0-6.05,2.73-6.05,6.66s2.72,6.66,6.05,6.66a6.47,6.47,0,0,0,5.29-2.35l11.73,6.43A21,21,0,0,1,296,54.47c-11.12.23-21-9-20.73-19.67C275,24.13,284.88,14.9,296,15.13a21,21,0,0,1,17.4,8.93Z"/><path class="cls-1" d="M346.61,28.75c-3.71-2-8.47-3.48-11.42-3.48-1.67,0-2.5.45-2.5,1.44,0,.68.45,1,3.1,1.66l3.33.83c9.3,2.42,13.16,6.05,13.16,12.48,0,8.18-6.12,12.79-16.79,12.79A34.35,34.35,0,0,1,316.73,49L322,40.17a27.7,27.7,0,0,0,13.85,4.16c1.43,0,2.19-.53,2.19-1.51s-.45-1.06-2.57-1.66L331,40c-9.08-2.5-12.56-5.75-12.56-11.88,0-8.17,6.13-12.94,16.64-12.94a34.21,34.21,0,0,1,16.57,4.31Z"/><path class="cls-2" d="M21.55,78.61a9.3,9.3,0,0,1-7.42-3.16,10.65,10.65,0,0,1-2.37-7.15V64l8.63-4.58v8.48a2.68,2.68,0,0,0,.47,1.84,2.68,2.68,0,0,0,1.84.47H39.54a2.66,2.66,0,0,0,1.84-.47,2.62,2.62,0,0,0,.48-1.84V59.25l8.68-4.58V68.3a10,10,0,0,1-3.16,7.83,10.13,10.13,0,0,1-7.05,2.48Zm4.78-24.47a4.22,4.22,0,0,1-3.15-1.23A4.37,4.37,0,0,1,22,49.72a4.18,4.18,0,0,1,1.21-3.13,4.34,4.34,0,0,1,3.15-1.18,4.07,4.07,0,0,1,4.32,4.31,4.37,4.37,0,0,1-1.19,3.21A4.15,4.15,0,0,1,26.33,54.14Zm9.47,0a4.22,4.22,0,0,1-3.15-1.23,4.37,4.37,0,0,1-1.21-3.19,4.18,4.18,0,0,1,1.21-3.13,4.34,4.34,0,0,1,3.15-1.18,4.06,4.06,0,0,1,4.32,4.31,4.41,4.41,0,0,1-1.18,3.21A4.19,4.19,0,0,1,35.8,54.14Z"/><path class="cls-2" d="M70.21,78.61a9.75,9.75,0,0,1-7.73-3.16A10.36,10.36,0,0,1,60,68.3v-19l8.68-4.58V67.88a2.63,2.63,0,0,0,.47,1.84,2.66,2.66,0,0,0,1.84.47h4.89v8.42Z"/><path class="cls-2" d="M74.84,78.61V70.19H82v8.42Z"/><path class="cls-2" d="M80.94,78.61V70.19H88.1v8.42Z"/><path class="cls-2" d="M87.05,78.61V70.19H94.2v8.42Z"/><path class="cls-2" d="M93.15,78.61V70.19h7.15v8.42Z"/><path class="cls-2" d="M99.25,78.61V70.19h7.16v8.42Z"/><path class="cls-2" d="M105.35,78.61V70.19h7.16v8.42Z"/><path class="cls-2" d="M111.46,78.61V70.19h7.15v8.42Z"/><path class="cls-2" d="M117.56,78.61V70.19h7.15v8.42Z"/><path class="cls-2" d="M123.66,78.61V70.19h7.16v8.42Z"/><path class="cls-2" d="M129.76,78.61V70.19h7.16v8.42Z"/><path class="cls-2" d="M139.29,82.87a4.06,4.06,0,0,1,4.31,4.31,4.42,4.42,0,0,1-1.18,3.21,4.18,4.18,0,0,1-3.13,1.21,4.24,4.24,0,0,1-3.16-1.23,4.37,4.37,0,0,1-1.21-3.19,4.17,4.17,0,0,1,1.21-3.13A4.33,4.33,0,0,1,139.29,82.87Zm14.78-12.68H159v8.42h-5.68A10.65,10.65,0,0,1,147.44,77a11.07,11.07,0,0,1-5.89,1.58h-5.68V70.19h4.89a2.66,2.66,0,0,0,1.84-.47,2.63,2.63,0,0,0,.47-1.84V59.25l8.68-4.58V67.88a2.62,2.62,0,0,0,.48,1.84A2.66,2.66,0,0,0,154.07,70.19Zm-5.31,12.68a4.06,4.06,0,0,1,4.31,4.31,4.38,4.38,0,0,1-1.18,3.21,4.18,4.18,0,0,1-3.13,1.21,4.24,4.24,0,0,1-3.16-1.23,4.37,4.37,0,0,1-1.21-3.19,4.17,4.17,0,0,1,1.21-3.13A4.33,4.33,0,0,1,148.76,82.87Z"/><path class="cls-2" d="M165.22,47.09A4.37,4.37,0,0,1,164,50.3a4.17,4.17,0,0,1-3.13,1.21,4.24,4.24,0,0,1-3.16-1.23,4.41,4.41,0,0,1-1.21-3.19A4.22,4.22,0,0,1,157.75,44a4.33,4.33,0,0,1,3.16-1.18,4.06,4.06,0,0,1,4.31,4.31Zm10.89,23.1H181v8.42h-5.69A10.65,10.65,0,0,1,169.48,77a11,11,0,0,1-5.89,1.58h-5.68V70.19h4.89a2.66,2.66,0,0,0,1.84-.47,2.62,2.62,0,0,0,.48-1.84V59.25l8.68-4.58V67.88a1.86,1.86,0,0,0,2.31,2.31Zm-5.73-18.68a4.24,4.24,0,0,1-3.16-1.23A4.37,4.37,0,0,1,166,47.09,4.18,4.18,0,0,1,167.22,44a4.33,4.33,0,0,1,3.16-1.18,4.06,4.06,0,0,1,4.31,4.31,4.37,4.37,0,0,1-1.18,3.21A4.17,4.17,0,0,1,170.38,51.51Z"/><path class="cls-2" d="M180,78.61V70.19h5.42a2.66,2.66,0,0,0,1.84-.47,2.62,2.62,0,0,0,.48-1.84V61.35l8.68-4.58V67.88a1.86,1.86,0,0,0,2.31,2.31h4.63a2.66,2.66,0,0,0,1.84-.47,2.62,2.62,0,0,0,.48-1.84V60.3l8.68-4.58V67.88a2.63,2.63,0,0,0,.47,1.84,2.68,2.68,0,0,0,1.84.47h4.68a1.86,1.86,0,0,0,2.32-2.31V59.25l8.68-4.58V66.56a4.33,4.33,0,0,0,.71,2.87,3.67,3.67,0,0,0,2.71.76H240v8.42h-4.68a12.25,12.25,0,0,1-6.89-1.9,10.54,10.54,0,0,1-5.89,1.9h-6.74A11.07,11.07,0,0,1,209.94,77a10.64,10.64,0,0,1-5.31,1.58h-6.74A11.07,11.07,0,0,1,192,77a10.65,10.65,0,0,1-5.84,1.58Z"/><path class="cls-2" d="M239,78.61V70.19h7.37q7.83,0,12.68-4-3-4.47-6.95-4.47t-9.47,4.57V58.83q4.53-5.22,10.47-5.21h.11a13.37,13.37,0,0,1,8.26,3.08,27.07,27.07,0,0,1,7,8.65v3a25.67,25.67,0,0,1-9.62,7.62,29.53,29.53,0,0,1-12.58,2.69Zm16.2,13A4.22,4.22,0,0,1,252,90.37a4.37,4.37,0,0,1-1.21-3.19A4.17,4.17,0,0,1,252,84.05a4.3,4.3,0,0,1,3.15-1.18,4.07,4.07,0,0,1,4.32,4.31,4.39,4.39,0,0,1-1.19,3.21A4.15,4.15,0,0,1,255.18,91.6Z"/><path class="cls-2" d="M301.22,70.19v8.42H295.9a10.16,10.16,0,0,1-4.41,7.68,12.88,12.88,0,0,1-7.63,2.31,13.39,13.39,0,0,1-7-2.15V78.92a12.56,12.56,0,0,0,6.26,2,5,5,0,0,0,2.71-.76,2.85,2.85,0,0,0,1.45-1.82c-.63,0-1.42-.12-2.37-.26a12.23,12.23,0,0,1-8.1-4.63,11.67,11.67,0,0,1-2.53-7.36q0-6,3.32-9.37a10.4,10.4,0,0,1,7.84-3.1q5.21,0,8,3.15a9.93,9.93,0,0,1,2.48,7v6.42Zm-13.94-6.42c0-1.33-.62-2-1.84-2-1.76,0-2.64,1.34-2.64,4,0,2.18.88,3.49,2.64,4,.24.07.66.15,1.26.26a2.9,2.9,0,0,1,.58,0Z"/><path class="cls-2" d="M317.37,70.19h4.89v8.42h-5.68a10.58,10.58,0,0,1-6.37-1.9,12.21,12.21,0,0,1-6.89,1.9h-3.15V70.19H303a3.66,3.66,0,0,0,2.71-.76,4.27,4.27,0,0,0,.71-2.87V49.3l8.68-4.63V67.88a2.62,2.62,0,0,0,.48,1.84A2.66,2.66,0,0,0,317.37,70.19Z"/><path class="cls-2" d="M321.21,78.61V70.19H324a3.69,3.69,0,0,0,2.71-.76,4.33,4.33,0,0,0,.71-2.87V49.3l8.68-4.63V66.61a11.8,11.8,0,0,1-3.42,8.89,11.36,11.36,0,0,1-8.31,3.11Z"/><path class="cls-2" d="M345.57,78.61V49.3l8.68-4.63V78.61Z"/><line class="cls-3" y1="289.87" x2="369.74" y2="289.87"/><polyline class="cls-3" points="146.98 205.13 152.79 289.3 152.79 289.3 210.84 289.3 216.64 205.13"/><polygon class="cls-3" points="222.45 186.68 141.18 186.68 138.27 205.13 225.35 205.13 222.45 186.68"/><polyline class="cls-3" points="202.13 186.68 202.13 177.98 213.74 163.46"/><line class="cls-3" x1="198.11" y1="227.94" x2="164.03" y2="227.94"/><line class="cls-3" x1="191.92" y1="247.22" x2="168.91" y2="247.22"/><line class="cls-3" x1="188.69" y1="266.5" x2="173.45" y2="266.5"/><path class="cls-4" d="M206.78,321.75l-2.2-2.21a6.8,6.8,0,0,1-3.9,1.16,6.84,6.84,0,1,1,7-6.84,6.76,6.76,0,0,1-1.67,4.45l2.17,2.14Zm-5.68-5.68,1.39-1.26,2.16,2.15a4.85,4.85,0,0,0,1-3.1,5,5,0,1,0-2.45,4.35Z"/><path class="cls-4" d="M220,311v9.5H218.2v-1.27a6.94,6.94,0,0,1-4.1,1.46,3.23,3.23,0,0,1-3.55-3.49V311h1.78v5.7a2.27,2.27,0,0,0,2.47,2.51,5.17,5.17,0,0,0,3.4-1.39V311Z"/><path class="cls-4" d="M231.62,320.51h-1.79v-1a5.67,5.67,0,0,1-3.55,1.21c-2.3,0-3.71-1.21-3.71-3s1.47-3,3.82-3h3.44v-.09c0-1.47-.88-2.25-2.6-2.25a5.72,5.72,0,0,0-3.27,1.09l-.63-1.33a7.68,7.68,0,0,1,4.24-1.24c2.58,0,4.05,1.29,4.05,3.56Zm-1.79-4.58h-3.17c-1.47,0-2.32.61-2.32,1.67s.8,1.62,2.24,1.62a6.23,6.23,0,0,0,3.25-1Z"/><path class="cls-4" d="M244,320.51h-1.79v-5.7a2.27,2.27,0,0,0-2.46-2.51,5.25,5.25,0,0,0-3.41,1.39v6.82h-1.8V311h1.8v1.28a6.91,6.91,0,0,1,4.11-1.47,3.24,3.24,0,0,1,3.55,3.5Z"/><path class="cls-4" d="M253,320.11a4.83,4.83,0,0,1-2.26.59,3.05,3.05,0,0,1-3.19-3.3v-4.91h-1.64V311h1.64v-2.73h1.78V311h2.89v1.48h-2.89v4.66a1.83,1.83,0,0,0,1.88,2,3.45,3.45,0,0,0,1.52-.34Z"/><path class="cls-4" d="M256.41,309.59a1.06,1.06,0,0,1-1-1,1,1,0,0,1,1-1,1,1,0,0,1,1,1A1,1,0,0,1,256.41,309.59Zm.89,10.92h-1.78V311h1.78Z"/><path class="cls-4" d="M266.61,320.11a4.83,4.83,0,0,1-2.26.59,3.06,3.06,0,0,1-3.19-3.3v-4.91h-1.63V311h1.63v-2.73H263V311h2.88v1.48H263v4.66a1.82,1.82,0,0,0,1.88,2,3.48,3.48,0,0,0,1.52-.34Z"/><path class="cls-4" d="M273.59,321.46c-.84,2-2,3-3.65,3a6.7,6.7,0,0,1-2.19-.44l.52-1.29a3.7,3.7,0,0,0,1.48.3c1,0,1.58-.49,2.24-1.78l.19-.38L267.89,311h1.9l3.19,7.56L276,311h1.86Z"/><path class="cls-4" d="M329.88,320.59h-5.25v-13.3h5.25a6.66,6.66,0,1,1,0,13.3ZM326.55,309v9.84h3.27a4.92,4.92,0,1,0,0-9.84Z"/><path class="cls-4" d="M348.4,320.59h-1.78v-1a5.63,5.63,0,0,1-3.56,1.22c-2.29,0-3.7-1.22-3.7-3s1.46-3,3.82-3h3.44v-.1c0-1.46-.88-2.24-2.6-2.24a5.68,5.68,0,0,0-3.27,1.08l-.63-1.32a7.68,7.68,0,0,1,4.24-1.24c2.58,0,4,1.29,4,3.55ZM346.62,316h-3.17c-1.47,0-2.32.61-2.32,1.67s.8,1.62,2.24,1.62a6.33,6.33,0,0,0,3.25-.95Z"/><path class="cls-4" d="M356,321.54c-.84,2-2,2.94-3.65,2.94a6.67,6.67,0,0,1-2.18-.43l.51-1.3a3.78,3.78,0,0,0,1.48.31c1,0,1.58-.49,2.25-1.79l.18-.38-4.29-9.8h1.9l3.19,7.56,3.06-7.56h1.86Z"/><path class="cls-4" d="M368.81,313.16a6.84,6.84,0,0,0-3.27-.91c-1.25,0-1.88.44-1.88,1.29,0,.67.4.91,1.94,1.35l1.12.3c2.22.61,3,1.31,3,2.66,0,1.85-1.44,2.93-3.89,2.93a8,8,0,0,1-4.34-1.24l.63-1.21a7.21,7.21,0,0,0,3.78,1.1c1.41,0,2.11-.47,2.11-1.44,0-.73-.32-.93-1.75-1.35l-1.23-.34a7.37,7.37,0,0,1-2.43-1.05,1.9,1.9,0,0,1-.69-1.56c0-1.74,1.41-2.79,3.69-2.79a7.56,7.56,0,0,1,3.82,1Z"/><path class="cls-4" d="M2.91,320h7.3v1.73H1V308.4H2.91Z"/><path class="cls-4" d="M17.24,321.89a4.95,4.95,0,1,1,0-9.88,4.95,4.95,0,1,1,0,9.88Zm0-1.54A3.4,3.4,0,1,0,13.8,317,3.39,3.39,0,0,0,17.24,320.35Z"/><path class="cls-4" d="M34.47,312.2v8.67a4.5,4.5,0,0,1-1.35,3.55,5.09,5.09,0,0,1-3.53,1.2,8.16,8.16,0,0,1-4.54-1.24l.63-1.31a6.67,6.67,0,0,0,3.76,1.12,3,3,0,0,0,3.25-3.32v-.31a4.21,4.21,0,0,1-3.22,1.33,4.94,4.94,0,0,1,0-9.88,4.25,4.25,0,0,1,3.22,1.33V312.2ZM32.69,315a3.65,3.65,0,0,0-3-1.43,3.41,3.41,0,0,0,0,6.8,3.67,3.67,0,0,0,3-1.42Z"/><path class="cls-4" d="M38.69,310.78a1.06,1.06,0,0,1-1-1,1,1,0,0,1,1-1,1,1,0,0,1,1,1A1,1,0,0,1,38.69,310.78Zm.89,10.92H37.8v-9.5h1.78Z"/><path class="cls-4" d="M49.37,314.27a6.84,6.84,0,0,0-3.27-.91c-1.25,0-1.88.44-1.88,1.29,0,.67.4.92,1.94,1.35l1.12.31c2.22.61,3,1.31,3,2.66,0,1.84-1.45,2.92-3.9,2.92a8,8,0,0,1-4.33-1.23l.63-1.22a7.21,7.21,0,0,0,3.78,1.1c1.41,0,2.11-.47,2.11-1.44,0-.72-.32-.93-1.75-1.35l-1.23-.34a7.33,7.33,0,0,1-2.44-1.05,1.92,1.92,0,0,1-.68-1.55c0-1.75,1.41-2.8,3.69-2.8A7.52,7.52,0,0,1,50,313Z"/><path class="cls-4" d="M58.92,321.3a4.8,4.8,0,0,1-2.26.59,3.06,3.06,0,0,1-3.19-3.3v-4.9H51.84V312.2h1.63v-2.73h1.79v2.73h2.89v1.49H55.26v4.65a1.83,1.83,0,0,0,1.88,2,3.48,3.48,0,0,0,1.52-.34Z"/><path class="cls-4" d="M62.31,310.78a1.06,1.06,0,0,1-1-1,1,1,0,0,1,1-1,1,1,0,0,1,1,1A1,1,0,0,1,62.31,310.78Zm.89,10.92H61.41v-9.5H63.2Z"/><path class="cls-4" d="M73.78,314.67a3.4,3.4,0,0,0-2.64-1.12,3.4,3.4,0,1,0,2.72,5.59l1.38.78a5.21,5.21,0,0,1-4.1,2,4.94,4.94,0,1,1,0-9.88,5.14,5.14,0,0,1,4,1.88Z"/><path class="cls-4" d="M84.31,314.27a6.84,6.84,0,0,0-3.27-.91c-1.25,0-1.88.44-1.88,1.29,0,.67.4.92,1.94,1.35l1.12.31c2.22.61,3,1.31,3,2.66,0,1.84-1.45,2.92-3.9,2.92A8,8,0,0,1,77,320.66l.63-1.22a7.21,7.21,0,0,0,3.78,1.1c1.41,0,2.11-.47,2.11-1.44,0-.72-.32-.93-1.75-1.35l-1.23-.34a7.33,7.33,0,0,1-2.44-1.05,1.92,1.92,0,0,1-.68-1.55c0-1.75,1.41-2.8,3.69-2.8a7.52,7.52,0,0,1,3.81,1Z"/></g></g></svg>