<svg xmlns="http://www.w3.org/2000/svg" width="36.226" height="25.472" viewBox="0 0 36.226 25.472">
  <g id="email" transform="translate(0 -76)">
    <g id="Group_5238" data-name="Group 5238" transform="translate(0 76)">
      <path id="Path_4517" data-name="Path 4517" d="M33.042,76H3.184A3.188,3.188,0,0,0,0,79.184v19.1a3.188,3.188,0,0,0,3.184,3.184H33.042a3.188,3.188,0,0,0,3.184-3.184v-19.1A3.188,3.188,0,0,0,33.042,76Zm-.489,2.123L18.936,91.785a1.239,1.239,0,0,1-1.645,0L3.673,78.123ZM2.123,97.9V79.574l9.132,9.162Zm1.55,1.452,9.08-9.11,3.034,3.044a3.359,3.359,0,0,0,4.652,0l3.034-3.044,9.08,9.11ZM34.1,97.9l-9.132-9.162L34.1,79.574Z" transform="translate(0 -76)" fill="#960e1e"/>
    </g>
  </g>
</svg>
