<svg xmlns="http://www.w3.org/2000/svg" width="13.24" height="13.234" viewBox="0 0 13.24 13.234">
  <g id="Group_5515" data-name="Group 5515" transform="translate(-6557.619 14895.229)">
    <g id="Group_5397" data-name="Group 5397" transform="translate(6559.825 -14895.229)">
      <path id="Path_4832" data-name="Path 4832" d="M-16.467-8.752c-.033.225-.055.452-.1.675A5.427,5.427,0,0,1-19.41-4.232a5.321,5.321,0,0,1-3.377.582c-.21-.03-.32-.151-.3-.315s.169-.26.381-.229a4.62,4.62,0,0,0,2.146-.16,4.818,4.818,0,0,0,3.479-4.051,4.94,4.94,0,0,0-4.031-5.588,4.972,4.972,0,0,0-5.758,4.006,5.214,5.214,0,0,0-.03,1.609.469.469,0,0,1-.052.267.228.228,0,0,1-.271.1.27.27,0,0,1-.212-.234,5.331,5.331,0,0,1-.041-1.4,5.388,5.388,0,0,1,1.2-2.919,5.358,5.358,0,0,1,3.584-2,5.483,5.483,0,0,1,5.95,3.786,10.667,10.667,0,0,1,.246,1.211c.006.033.015.066.023.1Z" transform="translate(27.501 14.616)" fill="#fff"/>
    </g>
    <g id="Group_5398" data-name="Group 5398" transform="translate(6557.619 -14888.61)">
      <path id="Path_4833" data-name="Path 4833" d="M-.35-9.874c-.276-.142-.3-.321-.078-.545L1.264-12.11c.03-.03.059-.062.095-.1-.034-.037-.065-.071-.1-.1l-1.709-1.71c-.217-.217-.172-.429.112-.532l5.18-1.876A.864.864,0,0,1,6-15.886a.831.831,0,0,1-.012.546q-.951,2.627-1.907,5.252c-.03.083-.124.143-.188.214H3.736c-.069-.057-.143-.108-.207-.171q-.837-.833-1.67-1.671a1.15,1.15,0,0,1-.1-.137c-.054.067-.081.107-.114.14q-.83.831-1.663,1.661a2.3,2.3,0,0,1-.231.179Zm4.057-.8c.013-.034.03-.073.045-.113q.664-1.832,1.326-3.664c.126-.347.254-.694.377-1.044a.311.311,0,0,0-.267-.441.638.638,0,0,0-.223.053q-1.65.6-3.3,1.195l-1.449.524,3.49,3.489" transform="translate(0.584 16.489)" fill="#fff"/>
    </g>
    <g id="Group_5399" data-name="Group 5399" transform="translate(6562.046 -14893.031)">
      <path id="Path_4834" data-name="Path 4834" d="M-4.732,0A3.357,3.357,0,0,1-1.319,2.916,3.3,3.3,0,0,1-4.171,6.593c-.039,0-.077.013-.115.016A.278.278,0,0,1-4.6,6.383a.273.273,0,0,1,.229-.319,5.705,5.705,0,0,0,.881-.233A2.692,2.692,0,0,0-1.871,3,2.733,2.733,0,0,0-4.21.585a2.742,2.742,0,0,0-3.121,2.3c-.01.059-.012.12-.023.179a.272.272,0,0,1-.319.246A.278.278,0,0,1-7.9,2.983a3.215,3.215,0,0,1,.408-1.3A3.229,3.229,0,0,1-4.732,0" transform="translate(7.902)" fill="#fff"/>
    </g>
  </g>
</svg>
