<svg xmlns="http://www.w3.org/2000/svg" width="80.939" height="84.68" viewBox="0 0 80.939 84.68">
  <g id="Group_5227" data-name="Group 5227" transform="translate(0 0)">
    <g id="Group_5222" data-name="Group 5222" transform="translate(0 0)">
      <g id="Group_5221" data-name="Group 5221" transform="translate(0 0)">
        <path id="Path_4510" data-name="Path 4510" d="M89.964,30.176,79.554,21.489V9.164a1.948,1.948,0,0,0-2.012-1.877H62.393L56.317,2.218a9.665,9.665,0,0,0-12.344.019L37.9,7.288H22.555a1.947,1.947,0,0,0-2.012,1.877V21.683L10.327,30.176a1.913,1.913,0,0,0-.658,1.49h.039V74.987a9.657,9.657,0,0,0,9.616,9.693H80.948a9.657,9.657,0,0,0,9.616-9.693V31.666H90.6A1.756,1.756,0,0,0,89.964,30.176ZM79.554,26.52l6.095,5.069-6.095,4.527ZM46.45,5.2a5.809,5.809,0,0,1,7.41.019l2.457,2.07H43.954ZM24.412,11.157H75.685V39L53.647,55.407a5.893,5.893,0,0,1-6.985,0L24.412,38.844V11.157Zm-3.87,15.537v9.268l-5.9-4.392ZM86.713,74.968a5.793,5.793,0,0,1-5.746,5.843H19.323a5.789,5.789,0,0,1-5.746-5.824V35.517l30.8,23.005a9.694,9.694,0,0,0,11.532,0l30.8-23.005Z" transform="translate(-9.668 0)" fill="#960e1e"/>
      </g>
    </g>
    <g id="Group_5224" data-name="Group 5224" transform="translate(26.547 26.636)">
      <g id="Group_5223" data-name="Group 5223">
        <path id="Path_4511" data-name="Path 4511" d="M159.256,137.663H148.808a1.935,1.935,0,1,0,0,3.87h10.448a1.935,1.935,0,1,0,0-3.87Z" transform="translate(-146.873 -137.663)" fill="#960e1e"/>
      </g>
    </g>
    <g id="Group_5226" data-name="Group 5226" transform="translate(26.547 36.31)">
      <g id="Group_5225" data-name="Group 5225">
        <path id="Path_4512" data-name="Path 4512" d="M172.8,187.663H148.808a1.935,1.935,0,0,0,0,3.87H172.8a1.935,1.935,0,1,0,0-3.87Z" transform="translate(-146.873 -187.663)" fill="#960e1e"/>
      </g>
    </g>
  </g>
</svg>
