<svg id="clock" xmlns="http://www.w3.org/2000/svg" width="84.68" height="84.68" viewBox="0 0 84.68 84.68">
  <g id="Group_5235" data-name="Group 5235" transform="translate(39.06 19.645)">
    <g id="Group_5234" data-name="Group 5234">
      <path id="Path_4515" data-name="Path 4515" d="M254.535,148.952,242.728,140.1V122.059a3.28,3.28,0,1,0-6.559,0v19.678a3.273,3.273,0,0,0,1.312,2.624L250.6,154.2a3.28,3.28,0,0,0,3.936-5.248Z" transform="translate(-236.169 -118.779)" fill="#960e1e"/>
    </g>
  </g>
  <g id="Group_5237" data-name="Group 5237">
    <g id="Group_5236" data-name="Group 5236">
      <path id="Path_4516" data-name="Path 4516" d="M42.34,0A42.34,42.34,0,1,0,84.68,42.34,42.386,42.386,0,0,0,42.34,0Zm0,78.121A35.781,35.781,0,1,1,78.121,42.34,35.825,35.825,0,0,1,42.34,78.121Z" fill="#960e1e"/>
    </g>
  </g>
</svg>
