<svg xmlns="http://www.w3.org/2000/svg" width="19.234" height="19.467" viewBox="0 0 19.234 19.467">
  <g id="Group_5512" data-name="Group 5512" transform="translate(-6587.319 14997.772)">
    <path id="Path_4806" data-name="Path 4806" d="M835.559-980.878H817.651v-12.975h17.908ZM831.214-998.3a1.674,1.674,0,0,0-1.626-1.365.336.336,0,0,0-.33.342.336.336,0,0,0,.33.342,1.01,1.01,0,0,1,1,1.023,1.01,1.01,0,0,1-1,1.023.336.336,0,0,0-.33.342.337.337,0,0,0,.33.343,1.675,1.675,0,0,0,1.626-1.366h4.345v3.073H817.651v-3.073h5.637a.337.337,0,0,0,.332-.341.338.338,0,0,0-.332-.342h-.6a1,1,0,0,1,.935-.681,1.009,1.009,0,0,1,.994,1.023,1.009,1.009,0,0,1-.994,1.023.338.338,0,0,0-.332.342.338.338,0,0,0,.332.343,1.684,1.684,0,0,0,1.658-1.708,1.683,1.683,0,0,0-1.658-1.707A1.674,1.674,0,0,0,822-998.3h-5.008v18.1h19.234v-18.1Z" transform="translate(5770.332 -13998.111)" fill="#f2a544"/>
    <g id="Group_5373" data-name="Group 5373" transform="translate(6595.61 -14997.772)">
      <path id="Path_4807" data-name="Path 4807" d="M-.5-1.02A1.009,1.009,0,0,1,.5,0,1.009,1.009,0,0,1-.5,1.027a.337.337,0,0,0-.332.342A.337.337,0,0,0-.5,1.711,1.686,1.686,0,0,0,1.162,0,1.685,1.685,0,0,0-.5-1.7a.337.337,0,0,0-.332.342A.338.338,0,0,0-.5-1.02" transform="translate(0.828 1.704)" fill="#f2a544"/>
    </g>
    <g id="Group_5374" data-name="Group 5374" transform="translate(6597.6 -14997.772)">
      <path id="Path_4808" data-name="Path 4808" d="M-.5-1.02A1.011,1.011,0,0,1,.5,0,1.011,1.011,0,0,1-.5,1.027a.337.337,0,0,0-.332.342A.337.337,0,0,0-.5,1.711,1.686,1.686,0,0,0,1.162,0,1.685,1.685,0,0,0-.5-1.7a.337.337,0,0,0-.332.342A.338.338,0,0,0-.5-1.02" transform="translate(0.828 1.704)" fill="#f2a544"/>
    </g>
    <g id="Group_5375" data-name="Group 5375" transform="translate(6589.641 -14990.601)">
      <path id="Path_4809" data-name="Path 4809" d="M-2.968-1.017A1.35,1.35,0,0,1-1.64.351,1.35,1.35,0,0,1-2.968,1.717,1.349,1.349,0,0,1-4.294.351,1.349,1.349,0,0,1-2.968-1.017m0,3.415A2.021,2.021,0,0,0-.979.351,2.021,2.021,0,0,0-2.968-1.7,2.022,2.022,0,0,0-4.957.351,2.022,2.022,0,0,0-2.968,2.4" transform="translate(4.957 1.698)" fill="#f2a544"/>
    </g>
    <g id="Group_5376" data-name="Group 5376" transform="translate(6594.947 -14990.601)">
      <path id="Path_4810" data-name="Path 4810" d="M-2.969-1.017A1.348,1.348,0,0,1-1.644.351,1.348,1.348,0,0,1-2.969,1.717,1.348,1.348,0,0,1-4.3.351,1.349,1.349,0,0,1-2.969-1.017m0,3.415A2.021,2.021,0,0,0-.98.351,2.021,2.021,0,0,0-2.969-1.7,2.023,2.023,0,0,0-4.959.351,2.022,2.022,0,0,0-2.969,2.4" transform="translate(4.959 1.698)" fill="#f2a544"/>
    </g>
    <g id="Group_5377" data-name="Group 5377" transform="translate(6600.253 -14990.601)">
      <path id="Path_4811" data-name="Path 4811" d="M-2.969-1.017A1.348,1.348,0,0,1-1.644.351,1.348,1.348,0,0,1-2.969,1.717,1.348,1.348,0,0,1-4.3.351,1.348,1.348,0,0,1-2.969-1.017m0,3.415A2.021,2.021,0,0,0-.98.351,2.022,2.022,0,0,0-2.969-1.7,2.022,2.022,0,0,0-4.959.351,2.021,2.021,0,0,0-2.969,2.4" transform="translate(4.959 1.698)" fill="#f2a544"/>
    </g>
    <g id="Group_5378" data-name="Group 5378" transform="translate(6589.641 -14985.136)">
      <path id="Path_4812" data-name="Path 4812" d="M-2.968-1.017A1.35,1.35,0,0,1-1.64.349,1.35,1.35,0,0,1-2.968,1.717,1.349,1.349,0,0,1-4.294.349,1.349,1.349,0,0,1-2.968-1.017m0,3.415A2.021,2.021,0,0,0-.979.349,2.021,2.021,0,0,0-2.968-1.7,2.022,2.022,0,0,0-4.957.349,2.022,2.022,0,0,0-2.968,2.4" transform="translate(4.957 1.698)" fill="#f2a544"/>
    </g>
    <g id="Group_5379" data-name="Group 5379" transform="translate(6594.947 -14985.136)">
      <path id="Path_4813" data-name="Path 4813" d="M-2.969-1.017A1.348,1.348,0,0,1-1.644.349,1.348,1.348,0,0,1-2.969,1.717,1.349,1.349,0,0,1-4.3.349,1.348,1.348,0,0,1-2.969-1.017m0,3.415A2.021,2.021,0,0,0-.98.349,2.021,2.021,0,0,0-2.969-1.7,2.022,2.022,0,0,0-4.959.349,2.023,2.023,0,0,0-2.969,2.4" transform="translate(4.959 1.698)" fill="#f2a544"/>
    </g>
    <g id="Group_5380" data-name="Group 5380" transform="translate(6601.911 -14981.721)">
      <path id="Path_4814" data-name="Path 4814" d="M-.991-.507a.337.337,0,0,1-.332.342.337.337,0,0,1-.332-.342.336.336,0,0,1,.332-.339.336.336,0,0,1,.332.339" transform="translate(1.655 0.846)" fill="#f2a544"/>
    </g>
    <g id="Group_5381" data-name="Group 5381" transform="translate(6600.585 -14982.063)">
      <path id="Path_4815" data-name="Path 4815" d="M-.991-.511a.336.336,0,0,1-.332.339.335.335,0,0,1-.332-.339.336.336,0,0,1,.332-.342.337.337,0,0,1,.332.342" transform="translate(1.655 0.853)" fill="#f2a544"/>
    </g>
    <g id="Group_5382" data-name="Group 5382" transform="translate(6603.237 -14982.063)">
      <path id="Path_4816" data-name="Path 4816" d="M-.991-.511a.335.335,0,0,1-.332.339.335.335,0,0,1-.332-.339.336.336,0,0,1,.332-.342.336.336,0,0,1,.332.342" transform="translate(1.655 0.853)" fill="#f2a544"/>
    </g>
    <g id="Group_5383" data-name="Group 5383" transform="translate(6603.237 -14984.797)">
      <path id="Path_4817" data-name="Path 4817" d="M-.991-.511a.337.337,0,0,1-.332.342.337.337,0,0,1-.332-.342.338.338,0,0,1,.332-.342.338.338,0,0,1,.332.342" transform="translate(1.655 0.853)" fill="#f2a544"/>
    </g>
    <g id="Group_5384" data-name="Group 5384" transform="translate(6600.585 -14984.797)">
      <path id="Path_4818" data-name="Path 4818" d="M-.991-.511a.338.338,0,0,1-.332.342.337.337,0,0,1-.332-.342.338.338,0,0,1,.332-.342.339.339,0,0,1,.332.342" transform="translate(1.655 0.853)" fill="#f2a544"/>
    </g>
    <g id="Group_5385" data-name="Group 5385" transform="translate(6601.25 -14984.112)">
      <path id="Path_4819" data-name="Path 4819" d="M-.987-.51a.337.337,0,0,1-.332.342.336.336,0,0,1-.33-.342.335.335,0,0,1,.33-.342A.336.336,0,0,1-.987-.51" transform="translate(1.649 0.852)" fill="#f2a544"/>
    </g>
    <g id="Group_5386" data-name="Group 5386" transform="translate(6602.576 -14984.112)">
      <path id="Path_4820" data-name="Path 4820" d="M-.987-.51a.337.337,0,0,1-.33.342A.336.336,0,0,1-1.649-.51a.335.335,0,0,1,.332-.342.336.336,0,0,1,.33.342" transform="translate(1.649 0.852)" fill="#f2a544"/>
    </g>
    <g id="Group_5387" data-name="Group 5387" transform="translate(6601.911 -14983.429)">
      <path id="Path_4821" data-name="Path 4821" d="M-.991-.507a.337.337,0,0,1-.332.342.337.337,0,0,1-.332-.342.336.336,0,0,1,.332-.339.336.336,0,0,1,.332.339" transform="translate(1.655 0.846)" fill="#f2a544"/>
    </g>
    <g id="Group_5388" data-name="Group 5388" transform="translate(6601.25 -14982.747)">
      <path id="Path_4822" data-name="Path 4822" d="M-.987-.51a.337.337,0,0,1-.332.342.336.336,0,0,1-.33-.342.336.336,0,0,1,.33-.342A.337.337,0,0,1-.987-.51" transform="translate(1.649 0.852)" fill="#f2a544"/>
    </g>
    <g id="Group_5389" data-name="Group 5389" transform="translate(6602.576 -14982.747)">
      <path id="Path_4823" data-name="Path 4823" d="M-.987-.51a.337.337,0,0,1-.33.342A.336.336,0,0,1-1.649-.51a.336.336,0,0,1,.332-.342.337.337,0,0,1,.33.342" transform="translate(1.649 0.852)" fill="#f2a544"/>
    </g>
    <g id="Group_5390" data-name="Group 5390" transform="translate(6603.569 -14983.429)">
      <path id="Path_4824" data-name="Path 4824" d="M-.991-.507a.337.337,0,0,1-.332.342.337.337,0,0,1-.332-.342.336.336,0,0,1,.332-.339.336.336,0,0,1,.332.339" transform="translate(1.655 0.846)" fill="#f2a544"/>
    </g>
    <g id="Group_5391" data-name="Group 5391" transform="translate(6600.253 -14983.429)">
      <path id="Path_4825" data-name="Path 4825" d="M-.991-.507a.337.337,0,0,1-.332.342.336.336,0,0,1-.332-.342.335.335,0,0,1,.332-.339.336.336,0,0,1,.332.339" transform="translate(1.655 0.846)" fill="#f2a544"/>
    </g>
    <g id="Group_5392" data-name="Group 5392" transform="translate(6601.911 -14985.136)">
      <path id="Path_4826" data-name="Path 4826" d="M-.991-.507a.337.337,0,0,1-.332.342.337.337,0,0,1-.332-.342.336.336,0,0,1,.332-.339.337.337,0,0,1,.332.339" transform="translate(1.655 0.846)" fill="#f2a544"/>
    </g>
  </g>
</svg>
