<svg xmlns="http://www.w3.org/2000/svg" xmlns:xlink="http://www.w3.org/1999/xlink" width="84.276" height="84.68" viewBox="0 0 84.276 84.68">
  <defs>
    <clipPath id="clip-path">
      <path id="Path_4508" data-name="Path 4508" d="M5.279,73.294q0-21.606,0-43.244v-.911H79.016v.894q0,21.631,0,43.244c0,3.758-2.321,6.109-6.043,6.109H11.336c-3.73,0-6.058-2.334-6.058-6.093m0-51.042c0-1.573-.015-3.146,0-4.718a5.466,5.466,0,0,1,4.952-5.546c2.7-.182,5.412-.05,8.213-.05,0,.894-.01,1.689,0,2.5a2.633,2.633,0,1,0,5.26.033c.015-.828,0-1.639,0-2.517h36.87c0,.843-.012,1.672,0,2.483a2.634,2.634,0,1,0,5.263.015c.013-.81,0-1.639,0-2.548,2.008,0,3.944,0,5.884.015a18.521,18.521,0,0,1,2.864.151A5.532,5.532,0,0,1,79,17.086c.022.315.017.613.017.911,0,1.9,0,3.808,0,5.762H5.277ZM62.554,0a3.1,3.1,0,0,0-1.987,3.411c.073,1.043.015,2.084.015,3.162H23.712c0-1.026-.061-2.1.015-3.162A3.12,3.12,0,0,0,21.737,0H20.419a3.1,3.1,0,0,0-1.988,3.411c.075,1.043.015,2.084.015,3.212H13.214a17.132,17.132,0,0,0-6.01.629A10.917,10.917,0,0,0,.02,17.367q-.03,28.259,0,56.539a10.818,10.818,0,0,0,10.7,10.761q31.425.025,62.85,0a10.848,10.848,0,0,0,10.548-9.04,4.658,4.658,0,0,1,.161-.548V16.208c-.207-.762-.371-1.54-.627-2.285a10.8,10.8,0,0,0-10.131-7.3c-2.518-.017-5.035,0-7.675,0,0-1.093-.061-2.154.015-3.212A3.115,3.115,0,0,0,63.872,0Z" transform="translate(-0.004)" fill="#960e1e"/>
    </clipPath>
  </defs>
  <g id="Group_5190" data-name="Group 5190" transform="translate(0)">
    <g id="Group_5189" data-name="Group 5189" transform="translate(0)" clip-path="url(#clip-path)">
      <rect id="Rectangle_1880" data-name="Rectangle 1880" width="84.284" height="84.684" transform="translate(-0.007 0)" fill="#960e1e"/>
    </g>
  </g>
</svg>
