<svg xmlns="http://www.w3.org/2000/svg" width="17.814" height="20.269" viewBox="0 0 17.814 20.269">
  <g id="Group_5514" data-name="Group 5514" transform="translate(-6370.579 14998.174)">
    <g id="Group_5394" data-name="Group 5394" transform="translate(6370.579 -14998.174)">
      <path id="Path_4828" data-name="Path 4828" d="M-15.007-30.251h-2.375c-.02-.013-.039-.035-.059-.037-.376-.03-.753-.046-1.127-.087-.505-.055-1.012-.1-1.511-.2a13.7,13.7,0,0,1-2.515-.707,5.939,5.939,0,0,1-1.622-.918,2.534,2.534,0,0,1-.847-1.3v-.633a2.321,2.321,0,0,1,.867-1.307,7.506,7.506,0,0,1,1.245-.733,11.49,11.49,0,0,1,2.849-.85c.179-.033.357-.071.546-.11-.658-1.035-1.283-2.061-1.952-3.057a6.739,6.739,0,0,1-1.172-3.19,6.139,6.139,0,0,1,.122-1.945,6.292,6.292,0,0,1,1.142-2.508,9.277,9.277,0,0,1,1.111-1.2,5.4,5.4,0,0,1,1.594-.963,11.873,11.873,0,0,1,1.164-.365c.235-.067.477-.108.715-.161h1.267a.647.647,0,0,0,.183.076,5.76,5.76,0,0,1,2.168.65,6.393,6.393,0,0,1,1.857,1.432,6.6,6.6,0,0,1,.92,1.289,6.188,6.188,0,0,1,.769,3.359c-.018.284-.043.568-.079.85a5.706,5.706,0,0,1-.854,2.317c-.656,1.05-1.338,2.085-2.007,3.127-.06.094-.109.2-.162.292l1.22.265a9.606,9.606,0,0,1,2.822,1.028,3.272,3.272,0,0,1,1.114.978,5.444,5.444,0,0,1,.362.766v.594a.862.862,0,0,0-.075.145,2.043,2.043,0,0,1-.461.81,5.573,5.573,0,0,1-2.309,1.381,12.78,12.78,0,0,1-2.867.671c-.656.072-1.313.133-1.969.2a.262.262,0,0,0-.078.037m-1.17-3.786c.04-.053.073-.093.1-.136q.837-1.316,1.673-2.631,1.181-1.851,2.366-3.7a8.414,8.414,0,0,0,.9-1.627,5.844,5.844,0,0,0,.319-1.771,6.327,6.327,0,0,0-.108-1.017,4.543,4.543,0,0,0-.59-1.667,5.4,5.4,0,0,0-1.024-1.3,5.184,5.184,0,0,0-1.861-1.13,5.593,5.593,0,0,0-2.062-.286,5,5,0,0,0-1.93.461,5.274,5.274,0,0,0-2.317,2.069,5.339,5.339,0,0,0-.777,2.323,6.989,6.989,0,0,0,.036,1.175,3.511,3.511,0,0,0,.422,1.5c.5.868,1.028,1.715,1.559,2.562.556.887,1.13,1.763,1.693,2.646.534.838,1.064,1.679,1.6,2.53m2.694-1.989c-.31.482-.616.957-.92,1.433-.431.676-.841,1.368-1.3,2.026a.532.532,0,0,1-.9.016c-.292-.406-.556-.832-.827-1.253-.459-.713-.912-1.429-1.374-2.14a.189.189,0,0,0-.151-.069c-.2.025-.4.061-.6.1-.55.116-1.1.214-1.646.359a5.842,5.842,0,0,0-2.067.911,2.571,2.571,0,0,0-.531.552c-.183.257,0,.72.335.974a6.871,6.871,0,0,0,2.386,1.082,12.969,12.969,0,0,0,2.3.437c.562.049,1.122.134,1.685.149.715.019,1.432-.006,2.147-.034A13,13,0,0,0-13.6-31.6c.678-.1,1.358-.205,2.026-.356a6.663,6.663,0,0,0,2.622-1.11c.642-.487.672-.944.073-1.427a5.631,5.631,0,0,0-1.173-.671,9.2,9.2,0,0,0-2.323-.667l-1.11-.193" transform="translate(25.062 50.52)" fill="#f2a544"/>
    </g>
    <g id="Group_5395" data-name="Group 5395" transform="translate(6376.516 -14994.563)">
      <path id="Path_4829" data-name="Path 4829" d="M0-4.422A2.923,2.923,0,0,1,2.9-7.385a2.856,2.856,0,0,1,2.027.748A2.872,2.872,0,0,1,5.9-4.719,2.985,2.985,0,0,1,3.1-1.451,2.968,2.968,0,0,1,0-4.422m1.188.006A1.779,1.779,0,0,0,3.017-2.641,1.759,1.759,0,0,0,4.731-4.417,1.717,1.717,0,0,0,2.909-6.193,1.722,1.722,0,0,0,1.187-4.417" transform="translate(0.002 7.385)" fill="#f2a544"/>
    </g>
  </g>
</svg>
