<svg id="Group_5232" data-name="Group 5232" xmlns="http://www.w3.org/2000/svg" width="74.426" height="84.68" viewBox="0 0 74.426 84.68">
  <g id="Group_5229" data-name="Group 5229" transform="translate(0)">
    <g id="Group_5228" data-name="Group 5228">
      <path id="Path_4513" data-name="Path 4513" d="M82.35,55.949c9.011-14.14,7.878-12.376,8.138-12.744A27.086,27.086,0,0,0,95.5,27.455a27.289,27.289,0,1,0-49.42,15.951l7.994,12.543C45.529,57.263,31,61.177,31,69.795c0,3.142,2.051,7.619,11.819,11.107,6.821,2.436,15.839,3.778,25.394,3.778,17.866,0,37.213-5.04,37.213-14.885C105.426,61.175,90.914,57.265,82.35,55.949ZM50.226,40.677q-.041-.064-.086-.125A22.328,22.328,0,1,1,86.464,40.3c-.239.315,1.008-1.622-18.252,28.6ZM68.213,79.718c-19.515,0-32.251-5.736-32.251-9.923,0-2.814,6.544-7.442,21.046-9.246l9.113,14.3a2.481,2.481,0,0,0,4.184,0l9.113-14.3c14.5,1.8,21.046,6.431,21.046,9.246C100.464,73.947,87.843,79.718,68.213,79.718Z" transform="translate(-31)" fill="#960e1e"/>
    </g>
  </g>
  <g id="Group_5231" data-name="Group 5231" transform="translate(24.809 15.051)">
    <g id="Group_5230" data-name="Group 5230">
      <path id="Path_4514" data-name="Path 4514" d="M193.4,91a12.4,12.4,0,1,0,12.4,12.4A12.418,12.418,0,0,0,193.4,91Zm0,19.847a7.443,7.443,0,1,1,7.443-7.443A7.451,7.451,0,0,1,193.4,110.847Z" transform="translate(-181 -91)" fill="#960e1e"/>
    </g>
  </g>
</svg>
