<svg xmlns="http://www.w3.org/2000/svg" width="34" height="33.991" viewBox="0 0 34 33.991">
  <g id="XMLID_105_" transform="translate(0 -0.036)">
    <path id="XMLID_106_" d="M18.3,113.37l-5.2,5.2h0a5.518,5.518,0,0,1-7.8-7.8h0l5.2-5.2a1.839,1.839,0,0,0-2.6-2.6l-5.2,5.2h0a9.2,9.2,0,0,0,13.007,13h0l5.2-5.2a1.839,1.839,0,0,0-2.6-2.6Z" transform="translate(0 -89.836)" fill="#960e1e"/>
    <path id="XMLID_107_" d="M123.865,9.228a9.2,9.2,0,0,0-15.7-6.5h0l-5.2,5.2a1.839,1.839,0,1,0,2.6,2.6l5.2-5.2h0a5.518,5.518,0,0,1,7.8,7.8h0l-5.2,5.2a1.839,1.839,0,1,0,2.6,2.6l5.2-5.2h0A9.137,9.137,0,0,0,123.865,9.228Z" transform="translate(-89.865 0)" fill="#960e1e"/>
    <path id="XMLID_108_" d="M81.752,94.758a1.839,1.839,0,0,0,2.6,0l10.4-10.4a1.839,1.839,0,0,0-2.6-2.6l-10.4,10.4A1.839,1.839,0,0,0,81.752,94.758Z" transform="translate(-71.255 -71.223)" fill="#960e1e"/>
  </g>
</svg>
