<svg xmlns="http://www.w3.org/2000/svg" xmlns:xlink="http://www.w3.org/1999/xlink" width="415.276" height="230.564" viewBox="0 0 415.276 230.564">
  <defs>
    <clipPath id="clip-path">
      <rect id="Rectangle_1879" data-name="Rectangle 1879" width="415.276" height="230.564" fill="none"/>
    </clipPath>
  </defs>
  <g id="Group_5188" data-name="Group 5188" transform="translate(0 0)">
    <path id="Path_4490" data-name="Path 4490" d="M97.444,54.786,89.8,62.568l7.888,7.888h1.094l7.531-7.888-7.9-7.782Z" transform="translate(262.424 160.107)" fill="#960e1e"/>
    <path id="Path_4491" data-name="Path 4491" d="M42.014,54.786,35.7,61.231l-6.554-6.444h-.977l-7.653,7.782,7.9,7.888h1.09L35.7,63.9l6.558,6.558h1.09l7.535-7.888-7.9-7.782Z" transform="translate(59.954 160.107)" fill="#960e1e"/>
    <g id="Group_5187" data-name="Group 5187" transform="translate(0 0)">
      <g id="Group_5186" data-name="Group 5186" clip-path="url(#clip-path)">
        <path id="Path_4492" data-name="Path 4492" d="M219.9,33.889h-2.836c-6.472,4.35-7.892,9.41-4.55,14.772l1.518,48.057a34.563,34.563,0,0,1-12.144,2.228c-8.8,0-11.634-1.824-11.634-7.994V81.844h-3.236l-2.428,14.674c-2.734,1.616-6.676,2.428-11.638,2.428-8.7,0-11.736-2.33-11.736-8.9V33.889h-2.734L153.533,43.7l1.314,46.539c.1,2.13.2,3.95.4,5.672-2.714,1.906-21.828,3.016-27.625,3.028-7.629-.027-30.077-3.683-34.007-15.07L86.233,62.522H83.5l-3.546,8.8,7.186,17.706c1.216,2.934,2.33,5.464,3.444,7.688-3.24,2.33-8.5,3.848-14.168,3.848-9.1,0-11.536-1.62-11.94-7.892l-.1-1.62H61.346a37.526,37.526,0,0,0-1.416,8.5c0,7.586,4.448,11.328,14.368,11.328,5.966,0,12.544-2.118,15.882-5.26a56.688,56.688,0,0,0,1.42-6.37H92c4.2,7.4,27.123,10.053,33.281,10.112v0h.2l0,0c5.668-.039,25.746-1.545,28.645-4.146a45.314,45.314,0,0,0,1.42-6.17h.3c1.722,7.488,6.072,10.32,14.874,10.32,5.158,0,9.2-1.314,12.242-3.746.71-1.922,1.114-3.742,1.62-5.562h.2c1.31,5.538,6.735,9.276,14.874,9.308h.1l.008,0a33.71,33.71,0,0,0,17.392-4.856A37.1,37.1,0,0,0,219.9,90.344V51.7l4.954-3.844v-.306l-4.954-6.17Z" transform="translate(175.137 99.038)" fill="#960e1e"/>
        <path id="Path_4493" data-name="Path 4493" d="M108.667,33.889l-4.856,9.818,1.718,65.664h3.236L111.9,97.835V33.889Z" transform="translate(303.373 99.038)" fill="#960e1e"/>
        <path id="Path_4494" data-name="Path 4494" d="M133.2,62.277c2.832-5.064,5.158-6.982,8.092-6.982,5.264,0,11.434,7.084,12.548,14.062a77.962,77.962,0,0,1-20.639-7.08m11.634-17c-4.044,0-7.084,2.734-11.43,10.422l-3.036,5.362c-4.3,7.715-7.566,10.049-13.43,10.2-7.339-.153-9.982-3.252-11.461-12.124l-2.53-15.784h-2.832L98.9,47A39.138,39.138,0,0,1,75.55,59.544C58.9,61.87,47.01,52.138,45.124,50.538H42.39l-3.538,8.9c5.362,9.814,7.484,15.784,7.99,21.451-5.97,5.056-14.874,8.3-24.279,8.3-11.434,0-18.011-5.77-18.011-15.988a38.493,38.493,0,0,1,1.82-10.924l-2.632-.812A51.768,51.768,0,0,0,0,79.473c0,13.356,7.99,21.145,21.647,21.145,10.32,0,20.133-4.048,26.507-10.52a54.739,54.739,0,0,0,2.126-15.988,49,49,0,0,0-.608-7.386,41.859,41.859,0,0,0,48.716-10.12L99.5,62.881c2.412,13.693,5.844,18.368,14.568,18.78V81.7c.133,0,.259-.027.388-.027.31.008.608.027.93.027l.1-.1c5.393-.51,9.727-3.911,13.356-10.524,7.084,4.252,16.494,7.488,22.765,8.1,3.848-4.958,6.272-11.026,6.272-16.188,0-8.7-6.374-17.706-13.05-17.706" transform="translate(0.003 126.704)" fill="#960e1e"/>
        <path id="Path_4495" data-name="Path 4495" d="M56.653,41.609l-.208-.271-1.42.2c-4.06.541-8.123-.137-8.123-1.761,0-.816,1.42-1.894,3.252-2.165L54.076,39.1a5.631,5.631,0,0,0,.679-2.64c0-1.083-.879-2.573-3.11-2.573-2.914,0-6.7,3.589-6.7,6.566a5.1,5.1,0,0,0,1.961,3.66l-3.181,1.961V47.7l12.12-2.169Z" transform="translate(127.768 99.041)" fill="#960e1e"/>
        <path id="Path_4496" data-name="Path 4496" d="M79.186,97.529A87.182,87.182,0,0,1,63.61,98.945h-8.5A133.529,133.529,0,0,0,71.5,85.9c5.06,4.754,7.084,7.892,7.688,11.634m2.836-63.64H79.288c-6.476,4.35-7.892,9.41-4.554,14.874l.914,14.368c.3,4.954-.2,8.9-2.53,12.948-2.024-2.024-4.452-4.146-7.284-6.676L43.575,49.877l-2.73,1.518V65.762h7.488l16.792,14.47c1.012.808,1.922,1.612,2.832,2.424C64.72,86,60.269,89.535,54.3,93.987l-6.778,4.958v10.422H61.382c6.982,0,14.874-1.114,19.22-2.632a37.692,37.692,0,0,0,2.632-13.352c0-4.354-1.314-8-6.472-13.658,3.942-5.672,5.26-11.54,5.26-19.329V51.7l4.954-3.844v-.306l-4.954-6.17Z" transform="translate(119.364 99.038)" fill="#960e1e"/>
        <path id="Path_4497" data-name="Path 4497" d="M54.438,43.7l1.722,65.664h3.232L62.53,97.832V33.89H59.294Z" transform="translate(159.089 99.039)" fill="#960e1e"/>
        <path id="Path_4498" data-name="Path 4498" d="M11.042,41.359,3.39,49.133l7.9,7.892H12.38l7.531-7.892-7.9-7.774Z" transform="translate(9.906 120.868)" fill="#960e1e"/>
        <path id="Path_4499" data-name="Path 4499" d="M24.333,33.9c.188.137-2.134,2.451-3.216,6.743-.883,3.522-.745,8.1,2.044,10.771a3.786,3.786,0,0,0,2.789,1.1C27.761,52.338,29.4,50.35,30,47.455a7.216,7.216,0,0,1,.349,4.825A6.773,6.773,0,0,1,24.482,57.2a7.02,7.02,0,0,1-6.37-4.26,12.073,12.073,0,0,1-.577-7.8c1.408-6.954,6.531-11.442,6.8-11.249" transform="translate(50.125 99.039)" fill="#960e1e"/>
        <path id="Path_4500" data-name="Path 4500" d="M67.527,54.735c-.435,2.349-1.832,4.97-4.079,5.762-12.191,4.3-18.263,5.342-30.406,9.763-.263.1-.526.188-.973.349.667-2.463,1.455-5.719,4.315-6.648,12.03-3.907,17.886-4.723,29.841-8.841.4-.141.824-.243,1.3-.384" transform="translate(93.717 159.957)" fill="#960e1e"/>
        <path id="Path_4501" data-name="Path 4501" d="M123.423,39.464c-.435,2.349-1.832,4.97-4.075,5.762-12.195,4.3-18.266,5.342-30.41,9.763-.263.1-.526.188-.973.349.667-2.463,1.455-5.719,4.319-6.648,12.026-3.907,17.882-4.723,29.837-8.841.4-.137.824-.243,1.3-.384" transform="translate(257.065 115.33)" fill="#960e1e"/>
        <path id="Path_4502" data-name="Path 4502" d="M101.742.029c-.153,2.612-1.306,5.652-3.644,6.821C85.44,13.2,35.058,19.813,22.463,26.289c-.275.137-.545.275-1.008.51.384-2.765.792-6.417,3.777-7.821,12.536-5.9,62.719-12.23,75.145-18.349.424-.212.867-.38,1.365-.6" transform="translate(62.699 0.087)" fill="#960e1e"/>
        <path id="Path_4503" data-name="Path 4503" d="M154.163,22.242c-.153,2.612-1.306,5.652-3.64,6.821-12.661,6.35-47.574,8.323-60.165,14.8-.275.141-.549.275-1.008.51.38-2.765.788-6.417,3.773-7.821,12.536-5.9,47.249-7.59,59.675-13.709.424-.212.867-.38,1.365-.6" transform="translate(261.113 65.001)" fill="#960e1e"/>
        <path id="Path_4504" data-name="Path 4504" d="M25.731,4.477h1.09l8.068,8.068-7.849,7.962H25.95l-8.068-7.962ZM0,84.183c21.914-5.778,33.148-13.74,33.148-23.334,0-5.562-3.052-10.249-12.1-20.063l5.342-12.21h3.82c4.9,8.61,7.739,18.208,7.739,26.166,0,12.43-5.232,26.605-16.246,41.546L0,88.106Z" transform="translate(0 13.085)" fill="#960e1e"/>
        <path id="Path_4505" data-name="Path 4505" d="M198.191,3.737,196.775.03,149.782,19.548l-8.4,17.443,10.249,10.033h.651l2.73-4.577c11.991,6.868,20.169,14.5,23.009,21.479-3.287.741-6.641,1.459-10.033,2.157a283.505,283.505,0,0,1-34.768,4.723c-14.662,1.063-76.9,2.165-98.318-2.3-4.471-.934-8.139-1.9-10.634-2.6-1.573-1.5-2.232-3.722-2.232-6.884V1.772H18.006L11.9,14.645l1.526,44.919c.526,14,3.314,20.694,11.606,22.789l.012.228c13.626,2.546,76.329,4.534,96.545,3.734a229.806,229.806,0,0,0,36-4.295c9.245-1.122,17.329-3.063,22.389-5.664a63.728,63.728,0,0,0,2.62-15.921c0-10.355-6.542-20.059-25.515-32.709l35.109-14.5Z" transform="translate(34.773 0.09)" fill="#960e1e"/>
        <path id="Path_4506" data-name="Path 4506" d="M229.76,29.019c2.5-4.468,5.123-6.433,8.5-6.433,6.1,0,13.3,6.652,15.376,13.956a104.8,104.8,0,0,1-23.879-7.523M242.951,9.176c-4.9,0-8.613,3.381-13.191,11.665L226.7,26.407a36.92,36.92,0,0,1-3.758,5.723c-5.17,6.291-13.273,9.2-21.02,10.786-11.877,2.44-38.592,4.66-55.937,4.507-19.286-.169-36.454-1.745-46.864-6.256-7.692-3.342-12.132-10.006-13.944-18.035H81.476l-5.342,12.21c3.7,7.413,6.978,12.544,10.465,15.811-2.832,7.739-13.956,14.391-32.928,19.3v3.922l21.7,8.182c7.413-10.037,12.21-19.737,14.5-28.786-.8,3.165,37.87,7.633,52.928,8.2,19.859.753,55.658-3,72.568-14.321,1.012-.679,8.488-6.833,9.053-6.531a83.93,83.93,0,0,0,13.917,5.931,68.718,68.718,0,0,0,12.359,2.9c4.577-5.668,7.739-13.52,7.739-20.169,0-10.355-7.629-20.608-15.482-20.608" transform="translate(156.843 26.817)" fill="#960e1e"/>
        <path id="Path_4507" data-name="Path 4507" d="M75.915,3.28A34.5,34.5,0,0,1,98.367,25.771l-4.162.71c-.447-6.735.3-13.72,4.55-19.271,4.118-5.421,11.52-8.347,18.062-6.8l.024.561a30.077,30.077,0,0,0-7.923,3.82c-6.684,4.832-10.249,13.277-10.481,21.385l-4.166.71a31.75,31.75,0,0,0-2.44-7.084,34.275,34.275,0,0,0-16.121-16Z" transform="translate(221.255 0.001)" fill="#960e1e"/>
      </g>
    </g>
  </g>
</svg>
