<svg xmlns="http://www.w3.org/2000/svg" xmlns:xlink="http://www.w3.org/1999/xlink" width="1451.504" height="22.677" viewBox="0 0 1451.504 22.677">
  <defs>
    <clipPath id="clip-path">
      <path id="Path_4722" data-name="Path 4722" d="M0,4.05H1451.5V-18.627H0Z" transform="translate(0 18.627)" fill="none"/>
    </clipPath>
  </defs>
  <g id="Group_5266" data-name="Group 5266" transform="translate(0 18.627)">
    <g id="Group_5295" data-name="Group 5295" transform="translate(0 -18.627)" clip-path="url(#clip-path)">
      <g id="Group_5266-2" data-name="Group 5266" transform="translate(48.151 4.553)">
        <path id="Path_4693" data-name="Path 4693" d="M6.952,0C6.86,1.6,6.168,3.466,4.765,4.184c-7.6,3.893-28.567,5.1-36.13,9.074l-.605.313c.23-1.7.475-3.935,2.268-4.8C-22.176,5.16-1.329,4.121,6.134.366,6.386.239,6.652.135,6.952,0" transform="translate(31.97)" fill="#ce5b28"/>
      </g>
      <g id="Group_5267" data-name="Group 5267" transform="translate(0 0)">
        <path id="Path_4694" data-name="Path 4694" d="M.03.494A28.8,28.8,0,0,1,18.574,19.463s-3.437.6-3.437.6c-.371-5.679.251-11.571,3.757-16.252,3.4-4.572,9.516-7.04,14.919-5.733l.021.472a24.548,24.548,0,0,0-6.543,3.223c-5.522,4.075-8.47,11.2-8.66,18.035l-3.437.6a27.578,27.578,0,0,0-2.017-5.975A28.607,28.607,0,0,0-.138.935L.03.494" transform="translate(0.138 2.272)" fill="#ce5b28"/>
      </g>
      <g id="Group_5268" data-name="Group 5268" transform="translate(149.404 4.553)">
        <path id="Path_4695" data-name="Path 4695" d="M6.952,0c-.09,1.6-.784,3.466-2.187,4.184-7.6,3.893-28.567,5.1-36.13,9.074l-.605.313c.23-1.7.475-3.935,2.268-4.8C-22.176,5.16-1.329,4.121,6.134.366,6.386.239,6.652.135,6.952,0" transform="translate(31.97)" fill="#ce5b28"/>
      </g>
      <g id="Group_5269" data-name="Group 5269" transform="translate(101.253 0)">
        <path id="Path_4696" data-name="Path 4696" d="M.03.494A28.8,28.8,0,0,1,18.574,19.463s-3.437.6-3.437.6c-.371-5.679.251-11.571,3.757-16.252,3.4-4.572,9.516-7.04,14.919-5.733l.021.472a24.548,24.548,0,0,0-6.543,3.223c-5.524,4.075-8.47,11.2-8.66,18.035l-3.437.6a27.578,27.578,0,0,0-2.017-5.975A28.607,28.607,0,0,0-.138.935L.03.494" transform="translate(0.138 2.272)" fill="#ce5b28"/>
      </g>
      <g id="Group_5270" data-name="Group 5270" transform="translate(250.656 4.553)">
        <path id="Path_4697" data-name="Path 4697" d="M6.952,0C6.86,1.6,6.168,3.466,4.765,4.184c-7.6,3.893-28.567,5.1-36.131,9.074l-.6.313c.23-1.7.475-3.935,2.268-4.8C-22.176,5.16-1.329,4.121,6.134.366,6.386.239,6.651.135,6.952,0" transform="translate(31.97)" fill="#ce5b28"/>
      </g>
      <g id="Group_5271" data-name="Group 5271" transform="translate(202.505 0)">
        <path id="Path_4698" data-name="Path 4698" d="M.03.494A28.8,28.8,0,0,1,18.574,19.463s-3.437.6-3.437.6c-.371-5.679.251-11.571,3.757-16.252,3.4-4.572,9.516-7.04,14.919-5.733l.021.472a24.548,24.548,0,0,0-6.543,3.223c-5.524,4.075-8.47,11.2-8.66,18.035l-3.437.6a27.578,27.578,0,0,0-2.017-5.975A28.607,28.607,0,0,0-.138.935L.03.494" transform="translate(0.138 2.272)" fill="#ce5b28"/>
      </g>
      <g id="Group_5272" data-name="Group 5272" transform="translate(351.908 4.553)">
        <path id="Path_4699" data-name="Path 4699" d="M6.952,0C6.86,1.6,6.168,3.466,4.766,4.184c-7.6,3.893-28.569,5.1-36.131,9.074l-.605.313c.23-1.7.475-3.935,2.268-4.8C-22.176,5.16-1.329,4.121,6.134.366,6.386.239,6.652.135,6.952,0" transform="translate(31.97)" fill="#ce5b28"/>
      </g>
      <g id="Group_5273" data-name="Group 5273" transform="translate(303.757 0)">
        <path id="Path_4700" data-name="Path 4700" d="M.03.494A28.8,28.8,0,0,1,18.574,19.463s-3.437.6-3.437.6c-.371-5.679.251-11.571,3.757-16.252,3.4-4.572,9.516-7.04,14.919-5.733l.021.472a24.566,24.566,0,0,0-6.543,3.223c-5.522,4.075-8.47,11.2-8.66,18.035l-3.437.6a27.578,27.578,0,0,0-2.017-5.975A28.607,28.607,0,0,0-.138.935L.03.494" transform="translate(0.138 2.272)" fill="#ce5b28"/>
      </g>
      <g id="Group_5274" data-name="Group 5274" transform="translate(453.161 4.553)">
        <path id="Path_4701" data-name="Path 4701" d="M6.952,0C6.86,1.6,6.168,3.466,4.765,4.184c-7.6,3.893-28.567,5.1-36.131,9.074l-.6.313c.229-1.7.475-3.935,2.268-4.8C-22.176,5.16-1.329,4.121,6.134.366,6.386.239,6.651.135,6.952,0" transform="translate(31.97)" fill="#ce5b28"/>
      </g>
      <g id="Group_5275" data-name="Group 5275" transform="translate(405.009 0)">
        <path id="Path_4702" data-name="Path 4702" d="M.03.494A28.8,28.8,0,0,1,18.574,19.463s-3.437.6-3.437.6c-.371-5.679.251-11.571,3.757-16.252,3.4-4.572,9.516-7.04,14.919-5.733l.021.472a24.548,24.548,0,0,0-6.543,3.223c-5.522,4.075-8.47,11.2-8.66,18.035l-3.437.6a27.578,27.578,0,0,0-2.017-5.975A28.607,28.607,0,0,0-.138.935L.03.494" transform="translate(0.138 2.272)" fill="#ce5b28"/>
      </g>
      <g id="Group_5276" data-name="Group 5276" transform="translate(554.413 4.553)">
        <path id="Path_4703" data-name="Path 4703" d="M6.952,0C6.86,1.6,6.168,3.466,4.765,4.184c-7.6,3.893-28.567,5.1-36.13,9.074l-.605.313c.23-1.7.475-3.935,2.268-4.8C-22.176,5.16-1.329,4.121,6.134.366,6.386.239,6.652.135,6.952,0" transform="translate(31.97)" fill="#ce5b28"/>
      </g>
      <g id="Group_5277" data-name="Group 5277" transform="translate(506.262 0)">
        <path id="Path_4704" data-name="Path 4704" d="M.03.494A28.8,28.8,0,0,1,18.574,19.463s-3.437.6-3.437.6c-.371-5.679.251-11.571,3.757-16.252,3.4-4.572,9.516-7.04,14.919-5.733l.021.472a24.548,24.548,0,0,0-6.543,3.223c-5.522,4.075-8.47,11.2-8.66,18.035l-3.437.6a27.578,27.578,0,0,0-2.017-5.975A28.607,28.607,0,0,0-.138.935L.03.494" transform="translate(0.138 2.272)" fill="#ce5b28"/>
      </g>
      <g id="Group_5278" data-name="Group 5278" transform="translate(655.665 4.553)">
        <path id="Path_4705" data-name="Path 4705" d="M6.952,0C6.86,1.6,6.168,3.466,4.765,4.184c-7.6,3.893-28.567,5.1-36.131,9.074l-.6.313c.23-1.7.475-3.935,2.268-4.8C-22.176,5.16-1.329,4.121,6.134.366,6.386.239,6.652.135,6.952,0" transform="translate(31.97)" fill="#ce5b28"/>
      </g>
      <g id="Group_5279" data-name="Group 5279" transform="translate(607.514 0)">
        <path id="Path_4706" data-name="Path 4706" d="M.03.494A28.8,28.8,0,0,1,18.574,19.463s-3.437.6-3.437.6c-.371-5.679.251-11.571,3.757-16.252,3.4-4.572,9.516-7.04,14.919-5.733l.021.472a24.548,24.548,0,0,0-6.543,3.223c-5.524,4.075-8.47,11.2-8.66,18.035l-3.437.6a27.578,27.578,0,0,0-2.017-5.975A28.607,28.607,0,0,0-.138.935L.03.494" transform="translate(0.138 2.272)" fill="#ce5b28"/>
      </g>
      <g id="Group_5280" data-name="Group 5280" transform="translate(756.917 4.553)">
        <path id="Path_4707" data-name="Path 4707" d="M6.952,0C6.86,1.6,6.168,3.466,4.765,4.184c-7.6,3.893-28.567,5.1-36.131,9.074l-.6.313c.229-1.7.475-3.935,2.268-4.8C-22.176,5.16-1.329,4.121,6.134.366,6.386.239,6.652.135,6.952,0" transform="translate(31.97)" fill="#ce5b28"/>
      </g>
      <g id="Group_5281" data-name="Group 5281" transform="translate(708.766 0)">
        <path id="Path_4708" data-name="Path 4708" d="M.03.494A28.8,28.8,0,0,1,18.574,19.463s-3.437.6-3.437.6c-.371-5.679.251-11.571,3.757-16.252,3.4-4.572,9.516-7.04,14.919-5.733l.021.472a24.566,24.566,0,0,0-6.543,3.223c-5.522,4.075-8.47,11.2-8.66,18.035l-3.437.6a27.578,27.578,0,0,0-2.017-5.975A28.607,28.607,0,0,0-.138.935L.03.494" transform="translate(0.138 2.272)" fill="#ce5b28"/>
      </g>
      <g id="Group_5282" data-name="Group 5282" transform="translate(858.17 4.553)">
        <path id="Path_4709" data-name="Path 4709" d="M6.952,0C6.86,1.6,6.168,3.466,4.765,4.184c-7.6,3.893-28.567,5.1-36.131,9.074l-.6.313c.229-1.7.475-3.935,2.268-4.8C-22.176,5.16-1.329,4.121,6.134.366,6.386.239,6.651.135,6.952,0" transform="translate(31.97)" fill="#ce5b28"/>
      </g>
      <g id="Group_5283" data-name="Group 5283" transform="translate(810.019 0)">
        <path id="Path_4710" data-name="Path 4710" d="M.03.494A28.8,28.8,0,0,1,18.574,19.463s-3.437.6-3.437.6c-.371-5.679.251-11.571,3.757-16.252,3.4-4.572,9.516-7.04,14.919-5.733l.021.472a24.548,24.548,0,0,0-6.543,3.223c-5.522,4.075-8.47,11.2-8.66,18.035l-3.437.6a27.578,27.578,0,0,0-2.017-5.975A28.607,28.607,0,0,0-.138.935L.03.494" transform="translate(0.138 2.272)" fill="#ce5b28"/>
      </g>
      <g id="Group_5284" data-name="Group 5284" transform="translate(959.422 4.553)">
        <path id="Path_4711" data-name="Path 4711" d="M6.952,0C6.86,1.6,6.168,3.466,4.765,4.184c-7.6,3.893-28.567,5.1-36.13,9.074l-.605.313c.23-1.7.475-3.935,2.268-4.8C-22.176,5.16-1.329,4.121,6.134.366,6.386.239,6.652.135,6.952,0" transform="translate(31.97)" fill="#ce5b28"/>
      </g>
      <g id="Group_5285" data-name="Group 5285" transform="translate(911.271 0)">
        <path id="Path_4712" data-name="Path 4712" d="M.03.494A28.8,28.8,0,0,1,18.574,19.463s-3.437.6-3.437.6c-.371-5.679.251-11.571,3.757-16.252,3.4-4.572,9.516-7.04,14.919-5.733l.021.472a24.548,24.548,0,0,0-6.543,3.223c-5.522,4.075-8.47,11.2-8.66,18.035l-3.437.6a27.578,27.578,0,0,0-2.017-5.975A28.607,28.607,0,0,0-.138.935L.03.494" transform="translate(0.138 2.272)" fill="#ce5b28"/>
      </g>
      <g id="Group_5286" data-name="Group 5286" transform="translate(1060.675 4.553)">
        <path id="Path_4713" data-name="Path 4713" d="M6.952,0C6.86,1.6,6.168,3.466,4.765,4.184c-7.6,3.893-28.569,5.1-36.131,9.074l-.6.313c.229-1.7.475-3.935,2.268-4.8C-22.176,5.16-1.329,4.121,6.134.366,6.386.239,6.651.135,6.952,0" transform="translate(31.97)" fill="#ce5b28"/>
      </g>
      <g id="Group_5287" data-name="Group 5287" transform="translate(1012.523 0)">
        <path id="Path_4714" data-name="Path 4714" d="M.03.494A28.8,28.8,0,0,1,18.574,19.463s-3.437.6-3.437.6c-.371-5.679.251-11.571,3.757-16.252,3.4-4.572,9.516-7.04,14.919-5.733l.021.472a24.548,24.548,0,0,0-6.543,3.223c-5.524,4.075-8.47,11.2-8.66,18.035l-3.437.6a27.578,27.578,0,0,0-2.017-5.975A28.607,28.607,0,0,0-.138.935L.03.494" transform="translate(0.138 2.272)" fill="#ce5b28"/>
      </g>
      <g id="Group_5288" data-name="Group 5288" transform="translate(1161.927 4.553)">
        <path id="Path_4715" data-name="Path 4715" d="M6.952,0C6.86,1.6,6.168,3.466,4.765,4.184c-7.6,3.893-28.567,5.1-36.131,9.074l-.6.313c.23-1.7.475-3.935,2.268-4.8C-22.176,5.16-1.329,4.121,6.134.366,6.386.239,6.652.135,6.952,0" transform="translate(31.97)" fill="#ce5b28"/>
      </g>
      <g id="Group_5289" data-name="Group 5289" transform="translate(1113.776 0)">
        <path id="Path_4716" data-name="Path 4716" d="M.03.494A28.8,28.8,0,0,1,18.574,19.463s-3.437.6-3.437.6c-.371-5.679.251-11.571,3.757-16.252,3.4-4.572,9.516-7.04,14.919-5.733l.021.472a24.548,24.548,0,0,0-6.543,3.223c-5.524,4.075-8.47,11.2-8.66,18.035l-3.437.6a27.578,27.578,0,0,0-2.017-5.975A28.607,28.607,0,0,0-.138.935L.03.494" transform="translate(0.138 2.272)" fill="#ce5b28"/>
      </g>
      <g id="Group_5290" data-name="Group 5290" transform="translate(1263.179 4.553)">
        <path id="Path_4717" data-name="Path 4717" d="M6.952,0C6.86,1.6,6.168,3.466,4.765,4.184c-7.6,3.893-28.567,5.1-36.131,9.074l-.6.313c.229-1.7.475-3.935,2.268-4.8C-22.176,5.16-1.329,4.121,6.134.366,6.386.239,6.651.135,6.952,0" transform="translate(31.97)" fill="#ce5b28"/>
      </g>
      <g id="Group_5291" data-name="Group 5291" transform="translate(1215.028 0)">
        <path id="Path_4718" data-name="Path 4718" d="M.03.494A28.8,28.8,0,0,1,18.574,19.463s-3.437.6-3.437.6c-.371-5.679.251-11.571,3.757-16.252,3.4-4.572,9.516-7.04,14.919-5.733l.021.472a24.584,24.584,0,0,0-6.543,3.223c-5.522,4.075-8.47,11.2-8.66,18.035l-3.437.6a27.578,27.578,0,0,0-2.017-5.975A28.607,28.607,0,0,0-.138.935L.03.494" transform="translate(0.138 2.272)" fill="#ce5b28"/>
      </g>
      <g id="Group_5292" data-name="Group 5292" transform="translate(1364.431 4.553)">
        <path id="Path_4719" data-name="Path 4719" d="M6.952,0c-.09,1.6-.784,3.466-2.187,4.184-7.6,3.893-28.567,5.1-36.131,9.074l-.6.313c.23-1.7.475-3.935,2.268-4.8C-22.176,5.16-1.329,4.121,6.134.366,6.386.239,6.652.135,6.952,0" transform="translate(31.97)" fill="#ce5b28"/>
      </g>
      <g id="Group_5293" data-name="Group 5293" transform="translate(1316.28 0)">
        <path id="Path_4720" data-name="Path 4720" d="M.03.494A28.8,28.8,0,0,1,18.574,19.463s-3.437.6-3.437.6c-.371-5.679.251-11.571,3.757-16.252,3.4-4.572,9.516-7.04,14.919-5.733l.021.472a24.566,24.566,0,0,0-6.543,3.223c-5.524,4.075-8.47,11.2-8.66,18.035l-3.437.6a27.578,27.578,0,0,0-2.017-5.975A28.607,28.607,0,0,0-.138.935L.03.494" transform="translate(0.138 2.272)" fill="#ce5b28"/>
      </g>
      <g id="Group_5294" data-name="Group 5294" transform="translate(1417.532 0)">
        <path id="Path_4721" data-name="Path 4721" d="M.03.494A28.8,28.8,0,0,1,18.574,19.463s-3.437.6-3.437.6c-.371-5.679.251-11.571,3.757-16.252,3.4-4.572,9.516-7.04,14.919-5.733l.021.472a24.584,24.584,0,0,0-6.543,3.223c-5.522,4.075-8.47,11.2-8.66,18.035l-3.436.6a27.647,27.647,0,0,0-2.019-5.975A28.607,28.607,0,0,0-.138.935L.03.494" transform="translate(0.138 2.272)" fill="#ce5b28"/>
      </g>
    </g>
  </g>
</svg>
