<svg xmlns="http://www.w3.org/2000/svg" width="55.733" height="6.711" viewBox="0 0 55.733 6.711">
  <g id="Group_5516" data-name="Group 5516" transform="translate(-6609.007 14891.968)">
    <g id="Group_5401" data-name="Group 5401" transform="translate(6609.007 -14890.62)">
      <path id="Path_4836" data-name="Path 4836" d="M-17.192,0a1.484,1.484,0,0,1-.647,1.238c-2.25,1.152-8.454,1.51-10.692,2.685l-.179.093c.068-.5.141-1.165.671-1.419,2.227-1.07,8.4-1.377,10.6-2.488.075-.038.154-.069.242-.109" transform="translate(28.71)" fill="#ce5b28"/>
    </g>
    <g id="Group_5402" data-name="Group 5402" transform="translate(6638.972 -14890.62)">
      <path id="Path_4837" data-name="Path 4837" d="M-17.191,0a1.484,1.484,0,0,1-.647,1.238c-2.25,1.152-8.454,1.51-10.692,2.685l-.179.093c.068-.5.14-1.165.671-1.419,2.227-1.07,8.4-1.377,10.6-2.488.075-.038.154-.069.242-.109" transform="translate(28.709)" fill="#ce5b28"/>
    </g>
    <g id="Group_5403" data-name="Group 5403" transform="translate(6624.722 -14891.968)">
      <path id="Path_4838" data-name="Path 4838" d="M-.074-1.222A8.525,8.525,0,0,1,5.414,4.391L4.4,4.568A7.08,7.08,0,0,1,5.508-.241a4.4,4.4,0,0,1,4.415-1.7l.006.14a7.269,7.269,0,0,0-1.936.954A6.911,6.911,0,0,0,5.431,4.493L4.414,4.67a8.186,8.186,0,0,0-.6-1.768A8.467,8.467,0,0,0-.124-1.092Z" transform="translate(0.124 2.041)" fill="#ce5b28"/>
    </g>
    <g id="Group_5404" data-name="Group 5404" transform="translate(6654.686 -14891.968)">
      <path id="Path_4839" data-name="Path 4839" d="M-.074-1.222A8.525,8.525,0,0,1,5.414,4.391L4.4,4.568A7.08,7.08,0,0,1,5.508-.241a4.4,4.4,0,0,1,4.415-1.7l.006.14a7.272,7.272,0,0,0-1.937.954A6.911,6.911,0,0,0,5.431,4.493L4.414,4.67a8.164,8.164,0,0,0-.6-1.768A8.467,8.467,0,0,0-.124-1.092Z" transform="translate(0.124 2.041)" fill="#ce5b28"/>
    </g>
  </g>
</svg>
