<svg xmlns="http://www.w3.org/2000/svg" viewBox="0 0 1258.1 24.9"><defs><style>.cls-1{fill:#ce5b28;}.cls-2{fill:#e8e5d3;}.cls-3{fill:#422316;}</style></defs><g id="Layer_2" data-name="Layer 2"><g id="Layer_1-2" data-name="Layer 1"><path id="Path_4760" data-name="Path 4760" class="cls-1" d="M433.3,0H0V3.1H433.3Z"/><path id="Path_4761" data-name="Path 4761" class="cls-2" d="M433.3,3.1H0V21.8H433.3Z"/><path id="Path_4762" data-name="Path 4762" class="cls-1" d="M433.3,21.8H0v3.1H433.3Z"/><g id="Group_5359" data-name="Group 5359"><g id="Group_5330" data-name="Group 5330"><path id="Path_4763" data-name="Path 4763" class="cls-3" d="M32.14,10.49a1.43,1.43,0,0,1-.63,1.21c-2.2,1.12-8.25,1.47-10.44,2.62l-.17.09c.07-.49.14-1.14.65-1.38,2.17-1,8.2-1.35,10.36-2.43l.23-.11"/></g><g id="Group_5331" data-name="Group 5331"><path id="Path_4764" data-name="Path 4764" class="cls-3" d="M7,10a8.3,8.3,0,0,1,5.35,5.48l-1,.18a6.91,6.91,0,0,1,1.09-4.7A4.28,4.28,0,0,1,16.8,9.28v.13a7.39,7.39,0,0,0-1.89.93,6.77,6.77,0,0,0-2.5,5.21l-1,.18A8,8,0,0,0,10.83,14,8.21,8.21,0,0,0,7,10.1Z"/></g><g id="Group_5332" data-name="Group 5332"><path id="Path_4765" data-name="Path 4765" class="cls-3" d="M61.39,10.49a1.43,1.43,0,0,1-.63,1.21c-2.2,1.12-8.25,1.47-10.44,2.62l-.17.09c.07-.49.14-1.14.65-1.38C53,12,59,11.68,61.16,10.6l.23-.11"/></g><g id="Group_5333" data-name="Group 5333"><path id="Path_4766" data-name="Path 4766" class="cls-3" d="M36.29,10a8.34,8.34,0,0,1,5.36,5.48l-1,.18a6.91,6.91,0,0,1,1.09-4.7,4.28,4.28,0,0,1,4.31-1.65v.13a7.39,7.39,0,0,0-1.89.93,6.77,6.77,0,0,0-2.5,5.21l-1,.18A8,8,0,0,0,40.08,14a8.21,8.21,0,0,0-3.84-3.9Z"/></g><g id="Group_5334" data-name="Group 5334"><path id="Path_4767" data-name="Path 4767" class="cls-3" d="M90.64,10.49A1.43,1.43,0,0,1,90,11.7c-2.2,1.12-8.25,1.47-10.44,2.62l-.17.09c.07-.49.14-1.14.65-1.38,2.18-1,8.2-1.35,10.36-2.43l.23-.11"/></g><g id="Group_5335" data-name="Group 5335"><path id="Path_4768" data-name="Path 4768" class="cls-3" d="M65.54,10a8.34,8.34,0,0,1,5.36,5.48l-1,.18A6.91,6.91,0,0,1,71,10.93,4.28,4.28,0,0,1,75.3,9.28v.13a7.39,7.39,0,0,0-1.89.93,6.77,6.77,0,0,0-2.5,5.21l-1,.18A8.58,8.58,0,0,0,69.34,14a8.28,8.28,0,0,0-3.85-3.9Z"/></g><g id="Group_5336" data-name="Group 5336"><path id="Path_4769" data-name="Path 4769" class="cls-3" d="M119.89,10.49a1.43,1.43,0,0,1-.63,1.21c-2.2,1.12-8.25,1.47-10.44,2.62l-.17.09c.07-.49.14-1.14.66-1.38,2.17-1,8.19-1.35,10.35-2.43l.23-.11"/></g><g id="Group_5337" data-name="Group 5337"><path id="Path_4770" data-name="Path 4770" class="cls-3" d="M94.79,10a8.34,8.34,0,0,1,5.36,5.48l-1,.18a7,7,0,0,1,1.09-4.7,4.28,4.28,0,0,1,4.31-1.65v.13a7.29,7.29,0,0,0-1.9.93,6.77,6.77,0,0,0-2.5,5.21l-1,.18A8,8,0,0,0,98.59,14a8.28,8.28,0,0,0-3.85-3.9Z"/></g><g id="Group_5338" data-name="Group 5338"><path id="Path_4771" data-name="Path 4771" class="cls-3" d="M149.14,10.49a1.43,1.43,0,0,1-.63,1.21c-2.2,1.12-8.25,1.47-10.43,2.62l-.18.09c.07-.49.14-1.14.66-1.38,2.17-1,8.19-1.35,10.35-2.43l.23-.11"/></g><g id="Group_5339" data-name="Group 5339"><path id="Path_4772" data-name="Path 4772" class="cls-3" d="M124,10a8.34,8.34,0,0,1,5.36,5.48l-1,.18a7,7,0,0,1,1.09-4.7,4.28,4.28,0,0,1,4.31-1.65v.13a7.39,7.39,0,0,0-1.89.93,6.77,6.77,0,0,0-2.5,5.21l-1,.18a8,8,0,0,0-.58-1.73A8.28,8.28,0,0,0,124,10.1Z"/></g><g id="Group_5340" data-name="Group 5340"><path id="Path_4773" data-name="Path 4773" class="cls-3" d="M178.39,10.49a1.43,1.43,0,0,1-.63,1.21c-2.2,1.12-8.25,1.47-10.43,2.62l-.18.09c.07-.49.14-1.14.66-1.38,2.17-1,8.19-1.35,10.35-2.43l.23-.11"/></g><g id="Group_5341" data-name="Group 5341"><path id="Path_4774" data-name="Path 4774" class="cls-3" d="M153.29,10a8.34,8.34,0,0,1,5.36,5.48l-1,.18a7,7,0,0,1,1.09-4.7,4.28,4.28,0,0,1,4.31-1.65v.13a7.39,7.39,0,0,0-1.89.93,6.77,6.77,0,0,0-2.5,5.21l-1,.18a8,8,0,0,0-.58-1.73,8.28,8.28,0,0,0-3.85-3.9Z"/></g><g id="Group_5342" data-name="Group 5342"><path id="Path_4775" data-name="Path 4775" class="cls-3" d="M207.65,10.49A1.48,1.48,0,0,1,207,11.7c-2.2,1.12-8.26,1.47-10.44,2.62l-.18.09c.07-.49.14-1.14.66-1.38,2.17-1,8.19-1.35,10.35-2.43l.24-.11"/></g><g id="Group_5343" data-name="Group 5343"><path id="Path_4776" data-name="Path 4776" class="cls-3" d="M182.54,10a8.34,8.34,0,0,1,5.36,5.48l-1,.18a6.9,6.9,0,0,1,1.08-4.7,4.28,4.28,0,0,1,4.31-1.65v.13a7.29,7.29,0,0,0-1.9.93,6.77,6.77,0,0,0-2.5,5.21l-1,.18a8,8,0,0,0-.58-1.73,8.23,8.23,0,0,0-3.85-3.9Z"/></g><g id="Group_5344" data-name="Group 5344"><path id="Path_4777" data-name="Path 4777" class="cls-3" d="M236.9,10.49a1.48,1.48,0,0,1-.63,1.21c-2.2,1.12-8.26,1.47-10.44,2.62l-.18.09c.07-.49.14-1.14.66-1.38,2.17-1,8.19-1.35,10.35-2.43l.24-.11"/></g><g id="Group_5345" data-name="Group 5345"><path id="Path_4778" data-name="Path 4778" class="cls-3" d="M211.79,10a8.34,8.34,0,0,1,5.36,5.48l-1,.18a6.9,6.9,0,0,1,1.08-4.7,4.28,4.28,0,0,1,4.31-1.65v.13a7.29,7.29,0,0,0-1.9.93,6.77,6.77,0,0,0-2.5,5.21l-1,.18a8,8,0,0,0-.58-1.73,8.23,8.23,0,0,0-3.85-3.9Z"/></g><g id="Group_5346" data-name="Group 5346"><path id="Path_4779" data-name="Path 4779" class="cls-3" d="M266.15,10.49a1.47,1.47,0,0,1-.64,1.21c-2.2,1.12-8.25,1.47-10.43,2.62l-.18.09c.07-.49.14-1.14.66-1.38,2.17-1,8.19-1.35,10.35-2.43l.24-.11"/></g><g id="Group_5347" data-name="Group 5347"><path id="Path_4780" data-name="Path 4780" class="cls-3" d="M241,10a8.34,8.34,0,0,1,5.36,5.48l-1,.18a6.9,6.9,0,0,1,1.08-4.7,4.28,4.28,0,0,1,4.31-1.65v.13a7.29,7.29,0,0,0-1.9.93,6.77,6.77,0,0,0-2.5,5.21l-1,.18a8,8,0,0,0-.58-1.73A8.23,8.23,0,0,0,241,10.1Z"/></g><g id="Group_5348" data-name="Group 5348"><path id="Path_4781" data-name="Path 4781" class="cls-3" d="M295.4,10.49a1.48,1.48,0,0,1-.63,1.21c-2.2,1.12-8.26,1.47-10.44,2.62l-.18.09c.07-.49.14-1.14.66-1.38,2.17-1,8.19-1.35,10.35-2.43l.24-.11"/></g><g id="Group_5349" data-name="Group 5349"><path id="Path_4782" data-name="Path 4782" class="cls-3" d="M270.29,10a8.34,8.34,0,0,1,5.36,5.48l-1,.18a6.9,6.9,0,0,1,1.08-4.7,4.28,4.28,0,0,1,4.31-1.65v.13a7.45,7.45,0,0,0-1.9.93,6.77,6.77,0,0,0-2.5,5.21l-1,.18a8,8,0,0,0-.58-1.73,8.23,8.23,0,0,0-3.85-3.9Z"/></g><g id="Group_5350" data-name="Group 5350"><path id="Path_4783" data-name="Path 4783" class="cls-3" d="M324.65,10.49A1.48,1.48,0,0,1,324,11.7c-2.2,1.12-8.26,1.47-10.44,2.62l-.18.09c.07-.49.14-1.14.66-1.38,2.17-1,8.19-1.35,10.35-2.43l.24-.11"/></g><g id="Group_5351" data-name="Group 5351"><path id="Path_4784" data-name="Path 4784" class="cls-3" d="M299.54,10a8.34,8.34,0,0,1,5.36,5.48l-1,.18a6.9,6.9,0,0,1,1.08-4.7,4.28,4.28,0,0,1,4.31-1.65v.13a7.45,7.45,0,0,0-1.9.93,6.77,6.77,0,0,0-2.5,5.21l-1,.18a8,8,0,0,0-.58-1.73,8.23,8.23,0,0,0-3.85-3.9Z"/></g><g id="Group_5352" data-name="Group 5352"><path id="Path_4785" data-name="Path 4785" class="cls-3" d="M353.9,10.49a1.48,1.48,0,0,1-.63,1.21c-2.2,1.12-8.26,1.47-10.44,2.62l-.18.09c.07-.49.14-1.14.66-1.38,2.17-1,8.19-1.35,10.35-2.43l.24-.11"/></g><g id="Group_5353" data-name="Group 5353"><path id="Path_4786" data-name="Path 4786" class="cls-3" d="M328.79,10a8.34,8.34,0,0,1,5.36,5.48l-1,.18a6.9,6.9,0,0,1,1.08-4.7,4.28,4.28,0,0,1,4.31-1.65v.13a7.45,7.45,0,0,0-1.9.93,6.77,6.77,0,0,0-2.5,5.21l-1,.18a8,8,0,0,0-.58-1.73,8.23,8.23,0,0,0-3.85-3.9Z"/></g><g id="Group_5354" data-name="Group 5354"><path id="Path_4787" data-name="Path 4787" class="cls-3" d="M383.15,10.49a1.46,1.46,0,0,1-.63,1.21c-2.2,1.12-8.26,1.47-10.44,2.62l-.18.09c.07-.49.14-1.14.66-1.38,2.17-1,8.2-1.35,10.35-2.43l.24-.11"/></g><g id="Group_5355" data-name="Group 5355"><path id="Path_4788" data-name="Path 4788" class="cls-3" d="M358,10a8.34,8.34,0,0,1,5.36,5.48l-1,.18a6.9,6.9,0,0,1,1.08-4.7,4.29,4.29,0,0,1,4.31-1.65v.13a7.23,7.23,0,0,0-1.89.93,6.71,6.71,0,0,0-2.5,5.21l-1,.18a8,8,0,0,0-.58-1.73A8.23,8.23,0,0,0,358,10.1Z"/></g><g id="Group_5356" data-name="Group 5356"><path id="Path_4789" data-name="Path 4789" class="cls-3" d="M412.4,10.49a1.46,1.46,0,0,1-.63,1.21c-2.2,1.12-8.26,1.47-10.44,2.62l-.18.09c.07-.49.14-1.14.66-1.38,2.17-1,8.2-1.35,10.35-2.43l.24-.11"/></g><g id="Group_5357" data-name="Group 5357"><path id="Path_4790" data-name="Path 4790" class="cls-3" d="M387.29,10a8.34,8.34,0,0,1,5.36,5.48l-1,.18a6.9,6.9,0,0,1,1.08-4.7,4.29,4.29,0,0,1,4.31-1.65v.13a7.23,7.23,0,0,0-1.89.93,6.71,6.71,0,0,0-2.5,5.21l-1,.18a8,8,0,0,0-.58-1.73,8.23,8.23,0,0,0-3.85-3.9Z"/></g><g id="Group_5358" data-name="Group 5358"><path id="Path_4791" data-name="Path 4791" class="cls-3" d="M416.54,10a8.34,8.34,0,0,1,5.36,5.48l-1,.18a6.9,6.9,0,0,1,1.08-4.7,4.29,4.29,0,0,1,4.31-1.65v.13a7.23,7.23,0,0,0-1.89.93,6.71,6.71,0,0,0-2.5,5.21l-1,.18a8,8,0,0,0-.58-1.73,8.23,8.23,0,0,0-3.85-3.9Z"/></g></g><path id="Path_4760-2" data-name="Path 4760" class="cls-1" d="M845.7,0H412.4V3.1H845.7Z"/><path id="Path_4761-2" data-name="Path 4761" class="cls-2" d="M845.7,3.1H412.4V21.8H845.7Z"/><path id="Path_4762-2" data-name="Path 4762" class="cls-1" d="M845.7,21.8H412.4v3.1H845.7Z"/><g id="Group_5359-2" data-name="Group 5359"><g id="Group_5330-2" data-name="Group 5330"><path id="Path_4763-2" data-name="Path 4763" class="cls-3" d="M444.54,10.49a1.43,1.43,0,0,1-.63,1.21c-2.2,1.13-8.25,1.47-10.44,2.62l-.17.09c.06-.49.13-1.13.65-1.38,2.17-1,8.2-1.35,10.36-2.43l.23-.11"/></g><g id="Group_5331-2" data-name="Group 5331"><path id="Path_4764-2" data-name="Path 4764" class="cls-3" d="M419.44,10a8.34,8.34,0,0,1,5.35,5.48l-1,.18a6.91,6.91,0,0,1,1.09-4.7,4.3,4.3,0,0,1,4.31-1.65v.13a7.39,7.39,0,0,0-1.89.93,6.77,6.77,0,0,0-2.5,5.21l-1,.18a8,8,0,0,0-.59-1.73,8.3,8.3,0,0,0-3.84-3.9Z"/></g><g id="Group_5332-2" data-name="Group 5332"><path id="Path_4765-2" data-name="Path 4765" class="cls-3" d="M473.79,10.49a1.43,1.43,0,0,1-.63,1.21c-2.2,1.13-8.25,1.47-10.44,2.62l-.17.09c.07-.49.14-1.13.65-1.38,2.17-1,8.2-1.35,10.36-2.43l.23-.11"/></g><g id="Group_5333-2" data-name="Group 5333"><path id="Path_4766-2" data-name="Path 4766" class="cls-3" d="M448.69,10A8.32,8.32,0,0,1,454,15.45l-1,.18a6.91,6.91,0,0,1,1.09-4.7,4.3,4.3,0,0,1,4.31-1.65v.13a7.39,7.39,0,0,0-1.89.93,6.77,6.77,0,0,0-2.5,5.21l-1,.18a8,8,0,0,0-.59-1.73,8.3,8.3,0,0,0-3.84-3.9Z"/></g><g id="Group_5334-2" data-name="Group 5334"><path id="Path_4767-2" data-name="Path 4767" class="cls-3" d="M503,10.49a1.43,1.43,0,0,1-.63,1.21c-2.2,1.13-8.25,1.47-10.44,2.62l-.17.09c.06-.49.14-1.13.65-1.38,2.17-1,8.2-1.35,10.36-2.43l.23-.11"/></g><g id="Group_5335-2" data-name="Group 5335"><path id="Path_4768-2" data-name="Path 4768" class="cls-3" d="M477.94,10a8.32,8.32,0,0,1,5.35,5.48l-1,.18a6.91,6.91,0,0,1,1.09-4.7,4.3,4.3,0,0,1,4.31-1.65v.13a7.39,7.39,0,0,0-1.89.93,6.77,6.77,0,0,0-2.5,5.21l-1,.18a8,8,0,0,0-.59-1.73,8.26,8.26,0,0,0-3.84-3.9Z"/></g><g id="Group_5336-2" data-name="Group 5336"><path id="Path_4769-2" data-name="Path 4769" class="cls-3" d="M532.29,10.49a1.43,1.43,0,0,1-.63,1.21c-2.2,1.13-8.25,1.47-10.44,2.62l-.17.09c.07-.49.14-1.13.65-1.38,2.17-1,8.2-1.35,10.36-2.43l.23-.11"/></g><g id="Group_5337-2" data-name="Group 5337"><path id="Path_4770-2" data-name="Path 4770" class="cls-3" d="M507.19,10a8.36,8.36,0,0,1,5.36,5.48l-1,.18a6.91,6.91,0,0,1,1.09-4.7A4.3,4.3,0,0,1,517,9.28v.13a7.39,7.39,0,0,0-1.89.93,6.77,6.77,0,0,0-2.5,5.21l-1,.18A8,8,0,0,0,511,14a8.26,8.26,0,0,0-3.84-3.9Z"/></g><g id="Group_5338-2" data-name="Group 5338"><path id="Path_4771-2" data-name="Path 4771" class="cls-3" d="M561.54,10.49a1.43,1.43,0,0,1-.63,1.21c-2.2,1.13-8.25,1.47-10.44,2.62l-.17.09c.07-.49.14-1.13.65-1.38,2.18-1,8.2-1.35,10.36-2.43l.23-.11"/></g><g id="Group_5339-2" data-name="Group 5339"><path id="Path_4772-2" data-name="Path 4772" class="cls-3" d="M536.44,10a8.36,8.36,0,0,1,5.36,5.48l-1,.18a6.91,6.91,0,0,1,1.09-4.7,4.3,4.3,0,0,1,4.31-1.65v.13a7.39,7.39,0,0,0-1.89.93,6.77,6.77,0,0,0-2.5,5.21l-1,.18a8,8,0,0,0-.59-1.73,8.26,8.26,0,0,0-3.84-3.9Z"/></g><g id="Group_5340-2" data-name="Group 5340"><path id="Path_4773-2" data-name="Path 4773" class="cls-3" d="M590.79,10.49a1.43,1.43,0,0,1-.63,1.21c-2.2,1.13-8.25,1.47-10.44,2.62l-.17.09c.07-.49.14-1.13.65-1.38,2.18-1,8.2-1.35,10.36-2.43l.23-.11"/></g><g id="Group_5341-2" data-name="Group 5341"><path id="Path_4774-2" data-name="Path 4774" class="cls-3" d="M565.69,10a8.36,8.36,0,0,1,5.36,5.48l-1,.18a6.91,6.91,0,0,1,1.09-4.7,4.3,4.3,0,0,1,4.31-1.65v.13a7.39,7.39,0,0,0-1.89.93,6.77,6.77,0,0,0-2.5,5.21l-1,.18a8,8,0,0,0-.59-1.73,8.26,8.26,0,0,0-3.84-3.9Z"/></g><g id="Group_5342-2" data-name="Group 5342"><path id="Path_4775-2" data-name="Path 4775" class="cls-3" d="M620,10.49a1.43,1.43,0,0,1-.63,1.21c-2.2,1.13-8.25,1.47-10.43,2.62l-.18.09c.07-.49.14-1.13.66-1.38,2.17-1,8.19-1.35,10.35-2.43l.23-.11"/></g><g id="Group_5343-2" data-name="Group 5343"><path id="Path_4776-2" data-name="Path 4776" class="cls-3" d="M594.94,10a8.36,8.36,0,0,1,5.36,5.48l-1,.18a7,7,0,0,1,1.09-4.7,4.3,4.3,0,0,1,4.31-1.65v.13a7.39,7.39,0,0,0-1.89.93,6.77,6.77,0,0,0-2.5,5.21l-1,.18a8.58,8.58,0,0,0-.58-1.73,8.32,8.32,0,0,0-3.85-3.9Z"/></g><g id="Group_5344-2" data-name="Group 5344"><path id="Path_4777-2" data-name="Path 4777" class="cls-3" d="M649.29,10.49a1.43,1.43,0,0,1-.63,1.21c-2.2,1.13-8.25,1.47-10.43,2.62l-.18.09c.07-.49.14-1.13.66-1.38,2.17-1,8.19-1.35,10.35-2.43l.23-.11"/></g><g id="Group_5345-2" data-name="Group 5345"><path id="Path_4778-2" data-name="Path 4778" class="cls-3" d="M624.19,10a8.36,8.36,0,0,1,5.36,5.48l-1,.18a7,7,0,0,1,1.09-4.7A4.3,4.3,0,0,1,634,9.28v.13a7.39,7.39,0,0,0-1.89.93,6.77,6.77,0,0,0-2.5,5.21l-1,.18A8.58,8.58,0,0,0,628,14a8.32,8.32,0,0,0-3.85-3.9Z"/></g><g id="Group_5346-2" data-name="Group 5346"><path id="Path_4779-2" data-name="Path 4779" class="cls-3" d="M678.54,10.49a1.43,1.43,0,0,1-.63,1.21c-2.2,1.13-8.25,1.47-10.43,2.62l-.18.09c.07-.49.14-1.13.66-1.38,2.17-1,8.19-1.35,10.35-2.43l.23-.11"/></g><g id="Group_5347-2" data-name="Group 5347"><path id="Path_4780-2" data-name="Path 4780" class="cls-3" d="M653.44,10a8.36,8.36,0,0,1,5.36,5.48l-1,.18a7,7,0,0,1,1.09-4.7,4.3,4.3,0,0,1,4.31-1.65v.13a7.39,7.39,0,0,0-1.89.93,6.77,6.77,0,0,0-2.5,5.21l-1,.18a8.58,8.58,0,0,0-.58-1.73,8.32,8.32,0,0,0-3.85-3.9Z"/></g><g id="Group_5348-2" data-name="Group 5348"><path id="Path_4781-2" data-name="Path 4781" class="cls-3" d="M707.8,10.49a1.47,1.47,0,0,1-.64,1.21c-2.2,1.13-8.25,1.47-10.43,2.62l-.18.09c.07-.49.14-1.13.66-1.38,2.17-1,8.19-1.35,10.35-2.43l.24-.11"/></g><g id="Group_5349-2" data-name="Group 5349"><path id="Path_4782-2" data-name="Path 4782" class="cls-3" d="M682.69,10a8.36,8.36,0,0,1,5.36,5.48l-1,.18a7,7,0,0,1,1.09-4.7,4.3,4.3,0,0,1,4.31-1.65v.13a7.29,7.29,0,0,0-1.9.93,6.77,6.77,0,0,0-2.5,5.21l-1,.18a8,8,0,0,0-.58-1.73,8.32,8.32,0,0,0-3.85-3.9Z"/></g><g id="Group_5350-2" data-name="Group 5350"><path id="Path_4783-2" data-name="Path 4783" class="cls-3" d="M737.05,10.49a1.47,1.47,0,0,1-.64,1.21c-2.2,1.13-8.25,1.47-10.43,2.62l-.18.09c.07-.49.14-1.13.66-1.38,2.17-1,8.19-1.35,10.35-2.43l.24-.11"/></g><g id="Group_5351-2" data-name="Group 5351"><path id="Path_4784-2" data-name="Path 4784" class="cls-3" d="M711.94,10a8.36,8.36,0,0,1,5.36,5.48l-1,.18a7,7,0,0,1,1.09-4.7,4.3,4.3,0,0,1,4.31-1.65v.13a7.29,7.29,0,0,0-1.9.93,6.77,6.77,0,0,0-2.5,5.21l-1,.18a8,8,0,0,0-.58-1.73,8.32,8.32,0,0,0-3.85-3.9Z"/></g><g id="Group_5352-2" data-name="Group 5352"><path id="Path_4785-2" data-name="Path 4785" class="cls-3" d="M766.3,10.49a1.47,1.47,0,0,1-.64,1.21c-2.2,1.13-8.25,1.47-10.43,2.62l-.18.09c.07-.49.14-1.13.66-1.38,2.17-1,8.19-1.35,10.35-2.43l.24-.11"/></g><g id="Group_5353-2" data-name="Group 5353"><path id="Path_4786-2" data-name="Path 4786" class="cls-3" d="M741.19,10a8.36,8.36,0,0,1,5.36,5.48l-1,.18a7,7,0,0,1,1.09-4.7A4.3,4.3,0,0,1,751,9.28v.13a7.29,7.29,0,0,0-1.9.93,6.77,6.77,0,0,0-2.5,5.21l-1,.18A8,8,0,0,0,745,14a8.32,8.32,0,0,0-3.85-3.9Z"/></g><g id="Group_5354-2" data-name="Group 5354"><path id="Path_4787-2" data-name="Path 4787" class="cls-3" d="M795.55,10.49a1.48,1.48,0,0,1-.63,1.21c-2.2,1.13-8.26,1.47-10.44,2.62l-.18.09c.07-.49.14-1.13.66-1.38,2.17-1,8.19-1.35,10.35-2.43l.24-.11"/></g><g id="Group_5355-2" data-name="Group 5355"><path id="Path_4788-2" data-name="Path 4788" class="cls-3" d="M770.44,10a8.36,8.36,0,0,1,5.36,5.48l-1,.18a6.9,6.9,0,0,1,1.08-4.7,4.3,4.3,0,0,1,4.31-1.65v.13a7.29,7.29,0,0,0-1.9.93,6.77,6.77,0,0,0-2.5,5.21l-1,.18a8,8,0,0,0-.58-1.73,8.28,8.28,0,0,0-3.85-3.9Z"/></g><g id="Group_5356-2" data-name="Group 5356"><path id="Path_4789-2" data-name="Path 4789" class="cls-3" d="M824.8,10.49a1.48,1.48,0,0,1-.63,1.21c-2.2,1.13-8.26,1.47-10.44,2.62l-.18.09c.07-.49.14-1.13.66-1.38,2.17-1,8.19-1.35,10.35-2.43l.24-.11"/></g><g id="Group_5357-2" data-name="Group 5357"><path id="Path_4790-2" data-name="Path 4790" class="cls-3" d="M799.69,10a8.36,8.36,0,0,1,5.36,5.48l-1,.18a6.9,6.9,0,0,1,1.08-4.7,4.3,4.3,0,0,1,4.31-1.65v.13a7.29,7.29,0,0,0-1.9.93,6.77,6.77,0,0,0-2.5,5.21l-1,.18a8,8,0,0,0-.58-1.73,8.28,8.28,0,0,0-3.85-3.9Z"/></g><g id="Group_5358-2" data-name="Group 5358"><path id="Path_4791-2" data-name="Path 4791" class="cls-3" d="M828.94,10a8.36,8.36,0,0,1,5.36,5.48l-1,.18a6.9,6.9,0,0,1,1.08-4.7,4.3,4.3,0,0,1,4.31-1.65v.13a7.29,7.29,0,0,0-1.9.93,6.77,6.77,0,0,0-2.5,5.21l-1,.18a8,8,0,0,0-.58-1.73,8.28,8.28,0,0,0-3.85-3.9Z"/></g></g><path id="Path_4760-3" data-name="Path 4760" class="cls-1" d="M1258.09,0H824.8V3.1h433.3Z"/><path id="Path_4761-3" data-name="Path 4761" class="cls-2" d="M1258.09,3.1H824.8V21.8h433.3Z"/><path id="Path_4762-3" data-name="Path 4762" class="cls-1" d="M1258.09,21.8H824.8v3.1h433.3Z"/><g id="Group_5359-3" data-name="Group 5359"><g id="Group_5330-3" data-name="Group 5330"><path id="Path_4763-3" data-name="Path 4763" class="cls-3" d="M856.94,10.49a1.44,1.44,0,0,1-.63,1.21c-2.2,1.13-8.25,1.48-10.44,2.62l-.17.09c.06-.49.13-1.13.65-1.38,2.17-1,8.2-1.35,10.35-2.43l.24-.11"/></g><g id="Group_5331-3" data-name="Group 5331"><path id="Path_4764-3" data-name="Path 4764" class="cls-3" d="M831.83,10a8.31,8.31,0,0,1,5.36,5.48l-1,.17a6.9,6.9,0,0,1,1.08-4.7,4.31,4.31,0,0,1,4.31-1.65v.13a7.11,7.11,0,0,0-1.89.94,6.71,6.71,0,0,0-2.5,5.21l-1,.17a7.49,7.49,0,0,0-.58-1.73,8.28,8.28,0,0,0-3.85-3.9Z"/></g><g id="Group_5332-3" data-name="Group 5332"><path id="Path_4765-3" data-name="Path 4765" class="cls-3" d="M886.19,10.49a1.44,1.44,0,0,1-.63,1.21c-2.2,1.13-8.25,1.48-10.44,2.62l-.17.09c.06-.49.13-1.13.65-1.38,2.17-1,8.2-1.35,10.35-2.43l.24-.11"/></g><g id="Group_5333-3" data-name="Group 5333"><path id="Path_4766-3" data-name="Path 4766" class="cls-3" d="M861.09,10a8.3,8.3,0,0,1,5.35,5.48l-1,.17a7,7,0,0,1,1.08-4.7,4.31,4.31,0,0,1,4.31-1.65v.13a7.11,7.11,0,0,0-1.89.94,6.71,6.71,0,0,0-2.5,5.21l-1,.17a7.49,7.49,0,0,0-.58-1.73A8.28,8.28,0,0,0,861,10.1Z"/></g><g id="Group_5334-3" data-name="Group 5334"><path id="Path_4767-3" data-name="Path 4767" class="cls-3" d="M915.44,10.49a1.44,1.44,0,0,1-.63,1.21c-2.2,1.13-8.25,1.48-10.44,2.62l-.17.09c.06-.49.13-1.13.65-1.38,2.17-1,8.2-1.35,10.35-2.43l.24-.11"/></g><g id="Group_5335-3" data-name="Group 5335"><path id="Path_4768-3" data-name="Path 4768" class="cls-3" d="M890.34,10a8.3,8.3,0,0,1,5.35,5.48l-1,.17a7,7,0,0,1,1.08-4.7,4.31,4.31,0,0,1,4.31-1.65v.13a7.11,7.11,0,0,0-1.89.94,6.71,6.71,0,0,0-2.5,5.21l-1,.17a7.49,7.49,0,0,0-.58-1.73,8.3,8.3,0,0,0-3.84-3.9Z"/></g><g id="Group_5336-3" data-name="Group 5336"><path id="Path_4769-3" data-name="Path 4769" class="cls-3" d="M944.69,10.49a1.44,1.44,0,0,1-.63,1.21c-2.2,1.13-8.25,1.48-10.44,2.62l-.17.09c.06-.49.13-1.13.65-1.38,2.17-1,8.2-1.35,10.35-2.43l.24-.11"/></g><g id="Group_5337-3" data-name="Group 5337"><path id="Path_4770-3" data-name="Path 4770" class="cls-3" d="M919.59,10a8.3,8.3,0,0,1,5.35,5.48l-1,.17a6.91,6.91,0,0,1,1.09-4.7,4.3,4.3,0,0,1,4.31-1.65v.13a7.11,7.11,0,0,0-1.89.94,6.74,6.74,0,0,0-2.5,5.21l-1,.17a8,8,0,0,0-.59-1.73,8.3,8.3,0,0,0-3.84-3.9Z"/></g><g id="Group_5338-3" data-name="Group 5338"><path id="Path_4771-3" data-name="Path 4771" class="cls-3" d="M973.94,10.49a1.42,1.42,0,0,1-.63,1.21c-2.2,1.13-8.25,1.48-10.44,2.62l-.17.09c.06-.49.13-1.13.65-1.38,2.17-1,8.2-1.35,10.36-2.43l.23-.11"/></g><g id="Group_5339-3" data-name="Group 5339"><path id="Path_4772-3" data-name="Path 4772" class="cls-3" d="M948.84,10a8.3,8.3,0,0,1,5.35,5.48l-1,.17a6.91,6.91,0,0,1,1.09-4.7,4.3,4.3,0,0,1,4.31-1.65v.13a7.11,7.11,0,0,0-1.89.94,6.74,6.74,0,0,0-2.5,5.21l-1,.17a8,8,0,0,0-.59-1.73,8.3,8.3,0,0,0-3.84-3.9Z"/></g><g id="Group_5340-3" data-name="Group 5340"><path id="Path_4773-3" data-name="Path 4773" class="cls-3" d="M1003.19,10.49a1.42,1.42,0,0,1-.63,1.21c-2.2,1.13-8.25,1.48-10.44,2.62l-.17.09c.06-.49.13-1.13.65-1.38,2.17-1,8.2-1.35,10.36-2.43l.23-.11"/></g><g id="Group_5341-3" data-name="Group 5341"><path id="Path_4774-3" data-name="Path 4774" class="cls-3" d="M978.09,10a8.3,8.3,0,0,1,5.35,5.48l-1,.17a6.91,6.91,0,0,1,1.09-4.7,4.3,4.3,0,0,1,4.31-1.65v.13a7.11,7.11,0,0,0-1.89.94,6.74,6.74,0,0,0-2.5,5.21l-1,.17a8,8,0,0,0-.59-1.73A8.3,8.3,0,0,0,978,10.1Z"/></g><g id="Group_5342-3" data-name="Group 5342"><path id="Path_4775-3" data-name="Path 4775" class="cls-3" d="M1032.44,10.49a1.42,1.42,0,0,1-.63,1.21c-2.2,1.13-8.25,1.48-10.44,2.62l-.17.09c.07-.49.14-1.13.65-1.38,2.17-1,8.2-1.35,10.36-2.43l.23-.11"/></g><g id="Group_5343-3" data-name="Group 5343"><path id="Path_4776-3" data-name="Path 4776" class="cls-3" d="M1007.34,10a8.28,8.28,0,0,1,5.35,5.48l-1,.17a6.91,6.91,0,0,1,1.09-4.7,4.3,4.3,0,0,1,4.31-1.65v.13a7.11,7.11,0,0,0-1.89.94,6.74,6.74,0,0,0-2.5,5.21l-1,.17a8,8,0,0,0-.59-1.73,8.3,8.3,0,0,0-3.84-3.9Z"/></g><g id="Group_5344-3" data-name="Group 5344"><path id="Path_4777-3" data-name="Path 4777" class="cls-3" d="M1061.69,10.49a1.42,1.42,0,0,1-.63,1.21c-2.2,1.13-8.25,1.48-10.44,2.62l-.17.09c.06-.49.14-1.13.65-1.38,2.17-1,8.2-1.35,10.36-2.43l.23-.11"/></g><g id="Group_5345-3" data-name="Group 5345"><path id="Path_4778-3" data-name="Path 4778" class="cls-3" d="M1036.59,10a8.28,8.28,0,0,1,5.35,5.48l-1,.17a6.91,6.91,0,0,1,1.09-4.7,4.3,4.3,0,0,1,4.31-1.65v.13a7.11,7.11,0,0,0-1.89.94,6.74,6.74,0,0,0-2.5,5.21l-1,.17a8,8,0,0,0-.59-1.73,8.3,8.3,0,0,0-3.84-3.9Z"/></g><g id="Group_5346-3" data-name="Group 5346"><path id="Path_4779-3" data-name="Path 4779" class="cls-3" d="M1090.94,10.49a1.42,1.42,0,0,1-.63,1.21c-2.2,1.13-8.25,1.48-10.44,2.62l-.17.09c.06-.49.14-1.13.65-1.38,2.17-1,8.2-1.35,10.36-2.43l.23-.11"/></g><g id="Group_5347-3" data-name="Group 5347"><path id="Path_4780-3" data-name="Path 4780" class="cls-3" d="M1065.84,10a8.28,8.28,0,0,1,5.35,5.48l-1,.17a6.91,6.91,0,0,1,1.09-4.7,4.3,4.3,0,0,1,4.31-1.65v.13a7.11,7.11,0,0,0-1.89.94,6.74,6.74,0,0,0-2.5,5.21l-1,.17a8,8,0,0,0-.59-1.73,8.3,8.3,0,0,0-3.84-3.9Z"/></g><g id="Group_5348-3" data-name="Group 5348"><path id="Path_4781-3" data-name="Path 4781" class="cls-3" d="M1120.19,10.49a1.42,1.42,0,0,1-.63,1.21c-2.2,1.13-8.25,1.48-10.44,2.62l-.17.09c.07-.49.14-1.13.65-1.38,2.18-1,8.2-1.35,10.36-2.43l.23-.11"/></g><g id="Group_5349-3" data-name="Group 5349"><path id="Path_4782-3" data-name="Path 4782" class="cls-3" d="M1095.09,10a8.31,8.31,0,0,1,5.36,5.48l-1,.17a6.91,6.91,0,0,1,1.09-4.7,4.3,4.3,0,0,1,4.31-1.65v.13a7.11,7.11,0,0,0-1.89.94,6.74,6.74,0,0,0-2.5,5.21l-1,.17a8,8,0,0,0-.59-1.73,8.26,8.26,0,0,0-3.84-3.9Z"/></g><g id="Group_5350-3" data-name="Group 5350"><path id="Path_4783-3" data-name="Path 4783" class="cls-3" d="M1149.44,10.49a1.42,1.42,0,0,1-.63,1.21c-2.2,1.13-8.25,1.48-10.44,2.62l-.17.09c.07-.49.14-1.13.65-1.38,2.18-1,8.2-1.35,10.36-2.43l.23-.11"/></g><g id="Group_5351-3" data-name="Group 5351"><path id="Path_4784-3" data-name="Path 4784" class="cls-3" d="M1124.34,10a8.31,8.31,0,0,1,5.36,5.48l-1,.17a6.91,6.91,0,0,1,1.09-4.7,4.3,4.3,0,0,1,4.31-1.65v.13a7.11,7.11,0,0,0-1.89.94,6.74,6.74,0,0,0-2.5,5.21l-1,.17a8,8,0,0,0-.59-1.73,8.26,8.26,0,0,0-3.84-3.9Z"/></g><g id="Group_5352-3" data-name="Group 5352"><path id="Path_4785-3" data-name="Path 4785" class="cls-3" d="M1178.69,10.49a1.42,1.42,0,0,1-.63,1.21c-2.2,1.13-8.25,1.48-10.44,2.62l-.17.09c.07-.49.14-1.13.65-1.38,2.18-1,8.2-1.35,10.36-2.43l.23-.11"/></g><g id="Group_5353-3" data-name="Group 5353"><path id="Path_4786-3" data-name="Path 4786" class="cls-3" d="M1153.59,10a8.31,8.31,0,0,1,5.36,5.48l-1,.17a6.91,6.91,0,0,1,1.09-4.7,4.3,4.3,0,0,1,4.31-1.65v.13a7.11,7.11,0,0,0-1.89.94,6.74,6.74,0,0,0-2.5,5.21l-1,.17a8,8,0,0,0-.59-1.73,8.26,8.26,0,0,0-3.84-3.9Z"/></g><g id="Group_5354-3" data-name="Group 5354"><path id="Path_4787-3" data-name="Path 4787" class="cls-3" d="M1207.94,10.49a1.42,1.42,0,0,1-.63,1.21c-2.2,1.13-8.25,1.48-10.43,2.62l-.18.09c.07-.49.14-1.13.66-1.38,2.17-1,8.19-1.35,10.35-2.43l.23-.11"/></g><g id="Group_5355-3" data-name="Group 5355"><path id="Path_4788-3" data-name="Path 4788" class="cls-3" d="M1182.84,10a8.31,8.31,0,0,1,5.36,5.48l-1,.17a7,7,0,0,1,1.09-4.7,4.3,4.3,0,0,1,4.31-1.65v.13a7.11,7.11,0,0,0-1.89.94,6.74,6.74,0,0,0-2.5,5.21l-1,.17a8.58,8.58,0,0,0-.58-1.73,8.32,8.32,0,0,0-3.85-3.9Z"/></g><g id="Group_5356-3" data-name="Group 5356"><path id="Path_4789-3" data-name="Path 4789" class="cls-3" d="M1237.19,10.49a1.42,1.42,0,0,1-.63,1.21c-2.2,1.13-8.25,1.48-10.43,2.62l-.18.09c.07-.49.14-1.13.66-1.38,2.17-1,8.19-1.35,10.35-2.43l.23-.11"/></g><g id="Group_5357-3" data-name="Group 5357"><path id="Path_4790-3" data-name="Path 4790" class="cls-3" d="M1212.09,10a8.31,8.31,0,0,1,5.36,5.48l-1,.17a7,7,0,0,1,1.09-4.7,4.3,4.3,0,0,1,4.31-1.65v.13a7.11,7.11,0,0,0-1.89.94,6.74,6.74,0,0,0-2.5,5.21l-1,.17a8.58,8.58,0,0,0-.58-1.73,8.32,8.32,0,0,0-3.85-3.9Z"/></g><g id="Group_5358-3" data-name="Group 5358"><path id="Path_4791-3" data-name="Path 4791" class="cls-3" d="M1241.34,10a8.31,8.31,0,0,1,5.36,5.48l-1,.17a7,7,0,0,1,1.09-4.7,4.3,4.3,0,0,1,4.31-1.65v.13a7.11,7.11,0,0,0-1.89.94,6.74,6.74,0,0,0-2.5,5.21l-1,.17a8.58,8.58,0,0,0-.58-1.73,8.32,8.32,0,0,0-3.85-3.9Z"/></g></g></g></g></svg>