<svg xmlns="http://www.w3.org/2000/svg" width="76.694" height="18.106" viewBox="0 0 76.694 18.106">
  <g id="Groupe_180" data-name="Groupe 180" transform="translate(6599.245 -1427.819)">
    <rect id="Rectangle_17" data-name="Rectangle 17" width="75.694" height="17.106" rx="8.553" transform="translate(-6598.745 1428.319)" fill="none" stroke="#fff" stroke-miterlimit="10" stroke-width="1" stroke-dasharray="12"/>
    <path id="Tracé_909" data-name="Tracé 909" d="M-23.351-.312V-1.375a2.065,2.065,0,0,0,.438.29,3.547,3.547,0,0,0,.537.218,4.276,4.276,0,0,0,.567.137,3.159,3.159,0,0,0,.526.048A2.062,2.062,0,0,0-20.04-.991a1.045,1.045,0,0,0,.411-.889,1.044,1.044,0,0,0-.137-.542,1.543,1.543,0,0,0-.379-.422,3.757,3.757,0,0,0-.572-.365q-.33-.175-.712-.368-.4-.2-.752-.414a3.258,3.258,0,0,1-.607-.462,1.927,1.927,0,0,1-.406-.572,1.771,1.771,0,0,1-.148-.749,1.762,1.762,0,0,1,.231-.916,1.981,1.981,0,0,1,.607-.642,2.752,2.752,0,0,1,.857-.376,3.923,3.923,0,0,1,.98-.124,3.756,3.756,0,0,1,1.66.274v1.015a3.008,3.008,0,0,0-1.751-.473,2.88,2.88,0,0,0-.591.062,1.669,1.669,0,0,0-.526.2,1.166,1.166,0,0,0-.376.36.955.955,0,0,0-.145.537,1.106,1.106,0,0,0,.11.51,1.251,1.251,0,0,0,.325.392,3.236,3.236,0,0,0,.524.344q.309.167.712.365t.784.43a3.584,3.584,0,0,1,.65.5,2.22,2.22,0,0,1,.443.607,1.706,1.706,0,0,1,.164.763,1.934,1.934,0,0,1-.223.964,1.829,1.829,0,0,1-.6.642,2.627,2.627,0,0,1-.873.357,4.78,4.78,0,0,1-1.042.11A4.246,4.246,0,0,1-21.874.1q-.269-.03-.548-.086a4.47,4.47,0,0,1-.529-.14A1.646,1.646,0,0,1-23.351-.312Zm8.282.258a1.7,1.7,0,0,1-.822.172q-1.445,0-1.445-1.611V-4.748h-.945V-5.5h.945V-6.843l.881-.285V-5.5h1.386v.752h-1.386v3.1a1.285,1.285,0,0,0,.188.79.75.75,0,0,0,.623.236.926.926,0,0,0,.575-.183ZM-9.955,0h-.881V-.859h-.021A1.844,1.844,0,0,1-12.55.129a1.808,1.808,0,0,1-1.286-.435A1.507,1.507,0,0,1-14.3-1.461q0-1.542,1.815-1.794l1.649-.231q0-1.4-1.133-1.4a2.708,2.708,0,0,0-1.794.677v-.9a3.408,3.408,0,0,1,1.869-.516q1.939,0,1.939,2.052Zm-.881-2.782-1.327.183a2.154,2.154,0,0,0-.924.3.875.875,0,0,0-.312.771.839.839,0,0,0,.287.658,1.11,1.11,0,0,0,.765.255,1.414,1.414,0,0,0,1.082-.459,1.641,1.641,0,0,0,.427-1.163Zm5.409-1.826a1.077,1.077,0,0,0-.666-.177,1.124,1.124,0,0,0-.943.532A2.458,2.458,0,0,0-7.415-2.8V0H-8.3V-5.5h.881v1.133h.021a1.921,1.921,0,0,1,.575-.905A1.311,1.311,0,0,1-5.954-5.6a1.438,1.438,0,0,1,.526.075ZM-1.92-.054a1.7,1.7,0,0,1-.822.172q-1.445,0-1.445-1.611V-4.748h-.945V-5.5h.945V-6.843l.881-.285V-5.5H-1.92v.752H-3.306v3.1a1.285,1.285,0,0,0,.188.79.75.75,0,0,0,.623.236A.926.926,0,0,0-1.92-.806ZM8.6,0H7.49L3.526-6.139a2.565,2.565,0,0,1-.247-.483H3.247A7.93,7.93,0,0,1,3.29-5.564V0h-.9V-7.7H3.558L7.415-1.66q.242.376.312.516h.021a8.149,8.149,0,0,1-.054-1.133V-7.7h.9Zm4.2.129A2.551,2.551,0,0,1,10.85-.642a2.855,2.855,0,0,1-.728-2.044,2.974,2.974,0,0,1,.757-2.165,2.723,2.723,0,0,1,2.046-.779,2.467,2.467,0,0,1,1.92.757,3,3,0,0,1,.69,2.1,2.955,2.955,0,0,1-.744,2.108A2.607,2.607,0,0,1,12.8.129Zm.064-5.017a1.675,1.675,0,0,0-1.343.577,2.371,2.371,0,0,0-.494,1.593,2.243,2.243,0,0,0,.5,1.542,1.7,1.7,0,0,0,1.337.564,1.61,1.61,0,0,0,1.313-.553,2.4,2.4,0,0,0,.459-1.574,2.442,2.442,0,0,0-.459-1.59A1.6,1.6,0,0,0,12.861-4.888ZM23.872-5.5,22.223,0H21.31L20.177-3.937a2.566,2.566,0,0,1-.086-.51h-.021a2.409,2.409,0,0,1-.113.5L18.726,0h-.881L16.18-5.5H17.1l1.139,4.136a2.491,2.491,0,0,1,.075.494h.043a2.311,2.311,0,0,1,.1-.5L19.725-5.5h.806L21.67-1.354a2.96,2.96,0,0,1,.081.494h.043a2.286,2.286,0,0,1,.091-.494L23-5.5Z" transform="translate(-6562.726 1440.339)" fill="#fff"/>
  </g>
</svg>
