<svg xmlns="http://www.w3.org/2000/svg" width="197.415" height="45.387" viewBox="0 0 197.415 45.387">
  <g id="Groupe_181" data-name="Groupe 181" transform="translate(-254.026 -976.156)">
    <path id="Rectangle_461" data-name="Rectangle 461" d="M12-.5v1a11.415,11.415,0,0,0-4.665.986L6.929.572A12.408,12.408,0,0,1,12-.5Zm0,0H24v1H12Zm24,0H48v1H36Zm24,0H72v1H60Zm24,0H96v1H84Zm24,0h12v1H108Zm24,0h12v1H132Zm24,0h12v1H156Zm24,0h4.415A12.4,12.4,0,0,1,191.8,1.914l-.591.806A11.411,11.411,0,0,0,184.415.5H180ZM-.355,10.092l.988.151A11.636,11.636,0,0,0,.5,12V22.16h-1V12A12.636,12.636,0,0,1-.355,10.092Zm196.27,2.642h1v12h-1ZM.624,34.081a11.446,11.446,0,0,0,6.653,8.795l-.411.912a12.514,12.514,0,0,1-7.231-9.56Zm194.549,2.381.935.354a12.522,12.522,0,0,1-9.1,7.8l-.206-.978A11.6,11.6,0,0,0,195.172,36.462ZM18.921,43.888h12v1h-12Zm24,0h12v1h-12Zm24,0h12v1h-12Zm24,0h12v1h-12Zm24,0h12v1h-12Zm24,0h12v1h-12Zm24,0h12v1h-12Z" transform="translate(254.526 976.656)" fill="#fff"/>
    <path id="Tracé_914" data-name="Tracé 914" d="M-59.438-.793V-3.5a5.257,5.257,0,0,0,1.114.738,9.028,9.028,0,0,0,1.367.554,10.884,10.884,0,0,0,1.442.349,8.042,8.042,0,0,0,1.34.123,5.248,5.248,0,0,0,3.165-.786,2.659,2.659,0,0,0,1.046-2.263,2.657,2.657,0,0,0-.349-1.381,3.927,3.927,0,0,0-.964-1.073,9.564,9.564,0,0,0-1.456-.93q-.841-.444-1.812-.937-1.025-.52-1.914-1.053A8.294,8.294,0,0,1-58-11.334a4.9,4.9,0,0,1-1.032-1.456,4.507,4.507,0,0,1-.376-1.907,4.485,4.485,0,0,1,.588-2.331,5.042,5.042,0,0,1,1.545-1.634,7,7,0,0,1,2.181-.957,9.985,9.985,0,0,1,2.5-.314,9.562,9.562,0,0,1,4.225.7v2.584a7.658,7.658,0,0,0-4.457-1.2,7.33,7.33,0,0,0-1.5.157,4.248,4.248,0,0,0-1.34.513,2.968,2.968,0,0,0-.957.916A2.431,2.431,0,0,0-57-14.9a2.815,2.815,0,0,0,.28,1.3,3.183,3.183,0,0,0,.827,1,8.238,8.238,0,0,0,1.333.875q.786.424,1.812.93,1.053.52,2,1.094A9.124,9.124,0,0,1-49.1-8.436a5.65,5.65,0,0,1,1.128,1.545,4.343,4.343,0,0,1,.417,1.941A4.923,4.923,0,0,1-48.125-2.5,4.657,4.657,0,0,1-49.656-.861a6.688,6.688,0,0,1-2.222.909,12.167,12.167,0,0,1-2.652.28A10.808,10.808,0,0,1-55.679.253q-.684-.075-1.395-.219A11.379,11.379,0,0,1-58.42-.321,4.19,4.19,0,0,1-59.438-.793Zm21.082.656A4.323,4.323,0,0,1-40.448.3q-3.678,0-3.678-4.1v-8.285h-2.406V-14h2.406v-3.418l2.242-.725V-14h3.527v1.914h-3.527V-4.2a3.27,3.27,0,0,0,.479,2.01,1.91,1.91,0,0,0,1.586.6,2.357,2.357,0,0,0,1.463-.465ZM-25.341,0h-2.242V-2.187h-.055A4.694,4.694,0,0,1-31.944.328,4.6,4.6,0,0,1-35.219-.779,3.837,3.837,0,0,1-36.4-3.719q0-3.924,4.621-4.566l4.2-.588q0-3.568-2.885-3.568a6.892,6.892,0,0,0-4.566,1.723v-2.3a8.676,8.676,0,0,1,4.758-1.312q4.936,0,4.936,5.223Zm-2.242-7.082-3.377.465a5.483,5.483,0,0,0-2.352.772A2.228,2.228,0,0,0-34.1-3.883a2.137,2.137,0,0,0,.731,1.675,2.826,2.826,0,0,0,1.948.649A3.6,3.6,0,0,0-28.67-2.728a4.177,4.177,0,0,0,1.087-2.96Zm13.768-4.648a2.742,2.742,0,0,0-1.7-.451,2.861,2.861,0,0,0-2.4,1.354,6.258,6.258,0,0,0-.964,3.691V0h-2.242V-14h2.242v2.885h.055a4.889,4.889,0,0,1,1.463-2.3,3.336,3.336,0,0,1,2.2-.827,3.66,3.66,0,0,1,1.34.191ZM-4.888-.137A4.323,4.323,0,0,1-6.979.3q-3.678,0-3.678-4.1v-8.285h-2.406V-14h2.406v-3.418l2.242-.725V-14h3.527v1.914H-8.415V-4.2a3.27,3.27,0,0,0,.479,2.01,1.91,1.91,0,0,0,1.586.6,2.357,2.357,0,0,0,1.463-.465ZM21.882,0H19.065L8.976-15.627a6.53,6.53,0,0,1-.629-1.23H8.265a20.184,20.184,0,0,1,.109,2.693V0h-2.3V-19.605h2.98L18.874-4.225q.615.957.793,1.313h.055A20.743,20.743,0,0,1,19.585-5.8V-19.605h2.3ZM32.573.328a6.494,6.494,0,0,1-4.956-1.962,7.267,7.267,0,0,1-1.853-5.2,7.57,7.57,0,0,1,1.928-5.51A6.93,6.93,0,0,1,32.9-14.328,6.279,6.279,0,0,1,37.789-12.4a7.644,7.644,0,0,1,1.757,5.346,7.521,7.521,0,0,1-1.894,5.366A6.635,6.635,0,0,1,32.573.328Zm.164-12.77a4.265,4.265,0,0,0-3.418,1.47,6.036,6.036,0,0,0-1.258,4.054,5.709,5.709,0,0,0,1.271,3.924,4.321,4.321,0,0,0,3.4,1.436A4.1,4.1,0,0,0,36.08-2.967a6.111,6.111,0,0,0,1.169-4.006A6.216,6.216,0,0,0,36.08-11.02,4.081,4.081,0,0,0,32.737-12.441ZM60.765-14l-4.2,14H54.243L51.358-10.021a6.531,6.531,0,0,1-.219-1.3h-.055a6.131,6.131,0,0,1-.287,1.271L47.667,0H45.425L41.187-14h2.352l2.9,10.527a6.342,6.342,0,0,1,.191,1.258h.109A5.883,5.883,0,0,1,46.983-3.5L50.21-14h2.051l2.9,10.555a7.536,7.536,0,0,1,.205,1.258h.109a5.818,5.818,0,0,1,.232-1.258L58.55-14Z" transform="translate(352.734 1006.302)" fill="#fff"/>
  </g>
</svg>
