<svg xmlns="http://www.w3.org/2000/svg" viewBox="0 0 133.5 303.97"><defs><style>.cls-1{fill:#fff;}</style></defs><g id="Layer_2" data-name="Layer 2"><g id="Layer_1-2" data-name="Layer 1"><rect x="31.57" y="285.1" width="66" height="12.15"/><path class="cls-1" d="M28.53,287c.14,8.08-4.79,16.26-16,16.26H0v-32H12.56C23.51,271.28,28.4,279.08,28.53,287ZM6,297.44h6.58c7.25,0,10.13-5.3,10-10.5-.13-5-3.05-10-10-10H6Z"/><path class="cls-1" d="M65.24,287.44C65.15,295.7,60.08,304,48.85,304s-16.44-8.08-16.44-16.49c0-10.08,7.31-16.84,16.58-16.84C59.9,270.73,65.33,279.13,65.24,287.44Zm-16.39,11c7.53,0,10.36-5.66,10.45-10.91s-3-11.28-10.31-11.41c-6.81,0-10.82,5.11-10.64,11.46C38.48,292.83,41.32,298.44,48.85,298.44Z"/><path class="cls-1" d="M92.76,292.78v-21.5h6v32H93.91L76.92,282v21.28h-6v-32h4.88Z"/><path class="cls-1" d="M130.29,303.24H106.37v-32h23.92v5.84H112.35v7.35h17.3v5.62h-17.3v7.21h17.94Z"/><path class="cls-1" d="M24.1,160.71H3.26V90.43H24.1a35.14,35.14,0,0,1,0,70.28Zm-7.78-13.06H24.1a22.08,22.08,0,0,0,0-44.16H16.32Z"/><rect class="cls-1" x="82.5" y="195.86" width="34.02" height="13.06"/><polygon class="cls-1" points="73.37 81.1 4.35 81.1 4.35 21.55 73.87 0 77.74 12.47 17.41 31.18 17.41 68.04 60.31 68.04 60.31 30.69 73.37 30.69 73.37 81.1"/><polygon class="cls-1" points="17.14 235.33 4.08 235.33 4.08 169.3 24.31 169.3 46.99 220.25 46.99 169.36 60.05 169.36 60.05 235.18 39.34 235.18 17.14 185.3 17.14 235.33"/><polygon class="cls-1" points="123.12 235.41 73.38 235.41 73.38 169.37 123.12 169.37 123.12 182.43 86.43 182.43 86.43 222.35 123.12 222.35 123.12 235.41"/><path class="cls-1" d="M100.14,160.71c-18.4,0-33.36-15.76-33.36-35.14s15-35.14,33.36-35.14,33.36,15.76,33.36,35.14S118.53,160.71,100.14,160.71Zm0-57.22c-11.2,0-20.3,9.9-20.3,22.08s9.1,22.08,20.3,22.08,20.3-9.9,20.3-22.08S111.33,103.49,100.14,103.49Z"/><path class="cls-1" d="M84.6,73.34v7.74H82.68V73.34H79.84v-1.6h7.47v1.6Z"/><path class="cls-1" d="M90.39,73.81v7.27H88.47V71.74h2.87L93,79.17l1.63-7.43h2.89v9.34H95.64V73.81L94,81.08H92.07Z"/></g></g></svg>