<svg xmlns="http://www.w3.org/2000/svg" xmlns:xlink="http://www.w3.org/1999/xlink" width="74.024" height="79.614" viewBox="0 0 74.024 79.614">
  <defs>
    <clipPath id="clip-path">
      <rect width="74.024" height="79.614" fill="none"/>
    </clipPath>
    <clipPath id="clip-path-2">
      <rect id="Rectangle_519" data-name="Rectangle 519" width="74.024" height="79.614" fill="#e63d64"/>
    </clipPath>
  </defs>
  <g id="Grille_de_répétition_1" data-name="Grille de répétition 1" clip-path="url(#clip-path)">
    <g id="Groupe_202" data-name="Groupe 202">
      <g id="Groupe_189" data-name="Groupe 189" clip-path="url(#clip-path-2)">
        <path id="Tracé_920" data-name="Tracé 920" d="M68.05,79.058c-4.446.417-8.753.556-13.2.556-11.532-.139-22.925-1.389-34.458-1.945a110.884,110.884,0,0,0-19.174.973C-.449,67.109-.171,55.438.663,43.767,1.358,35.152,2.33,26.816,2.608,18.2c10.143-3.612,20.563-5.558,31.54-7.225a17.868,17.868,0,0,0,2.64-.556,10.725,10.725,0,0,1,2.084-.278,127.023,127.023,0,0,0,19.313-5C58.6,5,58.88,4.724,59.3,4.585A68.171,68.171,0,0,0,69.578,0c1.667,4.307,3.057,8.892,4.446,13.338a110.384,110.384,0,0,1-13.2,5.558A106.018,106.018,0,0,1,46.236,22.37c-10.421,1.667-20.563,1.806-30.567,4.307-1.112,7.364-2.5,14.589-3.2,22.092,0,.417-.278.973-.278,1.389a110.452,110.452,0,0,0-.556,13.477c9.726.139,19.174,1.806,28.9,3.057,4.168.556,8.2.834,12.227,1.112-.139-11.81,2.5-23.342,4.446-35.013a89.785,89.785,0,0,0,12.227.139c-1.528,15.284-4.307,30.845-1.389,46.129" transform="translate(0)" fill="#e63d64"/>
      </g>
    </g>
  </g>
</svg>
