<svg xmlns="http://www.w3.org/2000/svg" width="70.804" height="106.958" viewBox="0 0 70.804 106.958">
  <g id="Groupe_179" data-name="Groupe 179" transform="translate(6130.49 -1653.528)">
    <path id="Tracé_8" data-name="Tracé 8" d="M1689.567,1930.107l26.5,39.985h-70.8v-59.445l13.606-20.525h57.2Z" transform="translate(-7775.754 -236.594)" fill="#fff"/>
    <rect id="Rectangle_13" data-name="Rectangle 13" width="28.225" height="5.196" transform="translate(-6109.201 1753.546)"/>
    <path id="Tracé_913" data-name="Tracé 913" d="M-2.013,0H-4.184l-5.14-6.086a3.709,3.709,0,0,1-.353-.464h-.037V0h-1.559V-13.3h1.559v6.253h.037a3.668,3.668,0,0,1,.353-.455l4.973-5.8h1.939L-8.118-6.921ZM1.308,0H-.25V-13.3H1.308ZM12.673-11.894H8.832V0H7.273V-11.894H3.442V-13.3h9.231Z" transform="translate(-6095.483 1760.486)" fill="#fff"/>
  </g>
</svg>
