<svg xmlns="http://www.w3.org/2000/svg" width="162.079" height="113.93" viewBox="0 0 162.079 113.93">
  <g id="Groupe_176" data-name="Groupe 176" transform="translate(6641.938 -1282.125)">
    <rect id="Rectangle_7" data-name="Rectangle 7" width="162.079" height="5.734" transform="translate(-6641.938 1384.105)" fill="#fbbb2e"/>
    <path id="Tracé_910" data-name="Tracé 910" d="M-70.916,0V-13.3h3.674q7.032,0,7.032,6.485a6.535,6.535,0,0,1-1.953,4.949A7.244,7.244,0,0,1-67.391,0Zm1.559-11.894V-1.41h1.985a5.635,5.635,0,0,0,4.073-1.4,5.251,5.251,0,0,0,1.457-3.971q0-5.112-5.437-5.112Zm12.339-.019a.964.964,0,0,1-.7-.278A.939.939,0,0,1-58-12.9a.955.955,0,0,1,.288-.71.956.956,0,0,1,.7-.283.983.983,0,0,1,.71.283.947.947,0,0,1,.292.71.94.94,0,0,1-.292.7A.974.974,0,0,1-57.019-11.912ZM-56.276,0H-57.8V-9.5h1.521Zm11.188-.761q0,5.232-5.01,5.232a6.726,6.726,0,0,1-3.08-.668V2.282a6.326,6.326,0,0,0,3.062.891q3.507,0,3.507-3.729V-1.6h-.037A3.558,3.558,0,0,1-49.912.223a3.566,3.566,0,0,1-2.853-1.266,5.062,5.062,0,0,1-1.081-3.4,5.914,5.914,0,0,1,1.164-3.85,3.89,3.89,0,0,1,3.187-1.429,3.1,3.1,0,0,1,2.848,1.54h.037V-9.5h1.521ZM-46.609-4.3V-5.7a2.718,2.718,0,0,0-.765-1.939,2.52,2.52,0,0,0-1.906-.807,2.642,2.642,0,0,0-2.208,1.025,4.576,4.576,0,0,0-.8,2.871,3.928,3.928,0,0,0,.765,2.537,2.473,2.473,0,0,0,2.027.951,2.648,2.648,0,0,0,2.083-.909A3.389,3.389,0,0,0-46.609-4.3Zm5.381-7.617a.964.964,0,0,1-.7-.278.939.939,0,0,1-.288-.705.955.955,0,0,1,.288-.71.956.956,0,0,1,.7-.283.983.983,0,0,1,.71.283.947.947,0,0,1,.292.71.94.94,0,0,1-.292.7A.974.974,0,0,1-41.229-11.912ZM-40.486,0h-1.521V-9.5h1.521ZM-33-.093a2.933,2.933,0,0,1-1.419.3q-2.5,0-2.5-2.783V-8.2h-1.633V-9.5h1.633v-2.319l1.521-.492V-9.5H-33v1.3h-2.394v5.353a2.219,2.219,0,0,0,.325,1.364,1.3,1.3,0,0,0,1.076.408A1.6,1.6,0,0,0-33-1.392ZM-24.167,0h-1.521V-1.484h-.037A3.185,3.185,0,0,1-28.648.223,3.123,3.123,0,0,1-30.87-.529a2.6,2.6,0,0,1-.8-1.995q0-2.663,3.136-3.1l2.848-.4q0-2.421-1.958-2.421a4.677,4.677,0,0,0-3.1,1.169V-8.832a5.887,5.887,0,0,1,3.229-.891q3.349,0,3.349,3.544Zm-1.521-4.806-2.292.315a3.72,3.72,0,0,0-1.6.524,1.512,1.512,0,0,0-.538,1.331,1.45,1.45,0,0,0,.5,1.136,1.918,1.918,0,0,0,1.322.441,2.442,2.442,0,0,0,1.869-.793,2.834,2.834,0,0,0,.738-2.009ZM-19.779,0H-21.3V-14.064h1.521ZM2.273,0H.724V-8.925q0-1.058.13-2.588H.816a8.275,8.275,0,0,1-.4,1.29L-4.128,0h-.761L-9.426-10.149a7.952,7.952,0,0,1-.4-1.364h-.037q.074.8.074,2.607V0h-1.5V-13.3h2.06l4.082,9.277a11.879,11.879,0,0,1,.612,1.6h.056q.4-1.095.64-1.633L.325-13.3H2.273ZM12.367,0H10.845V-1.484h-.037A3.185,3.185,0,0,1,7.886.223,3.123,3.123,0,0,1,5.664-.529a2.6,2.6,0,0,1-.8-1.995q0-2.663,3.136-3.1l2.848-.4q0-2.421-1.958-2.421a4.677,4.677,0,0,0-3.1,1.169V-8.832a5.887,5.887,0,0,1,3.229-.891q3.349,0,3.349,3.544ZM10.845-4.806,8.554-4.49a3.72,3.72,0,0,0-1.6.524A1.512,1.512,0,0,0,6.42-2.635a1.45,1.45,0,0,0,.5,1.136,1.918,1.918,0,0,0,1.322.441,2.442,2.442,0,0,0,1.869-.793,2.834,2.834,0,0,0,.738-2.009ZM20.188-7.96a1.86,1.86,0,0,0-1.15-.306,1.942,1.942,0,0,0-1.628.918,4.246,4.246,0,0,0-.654,2.5V0H15.233V-9.5h1.521v1.958h.037a3.317,3.317,0,0,1,.993-1.563,2.264,2.264,0,0,1,1.494-.561,2.484,2.484,0,0,1,.909.13ZM29.725,0H27.591L23.4-4.564H23.36V0H21.839V-14.064H23.36v8.916H23.4L27.387-9.5h1.995L24.975-4.917Zm9.194-4.37H32.211a3.553,3.553,0,0,0,.854,2.449,2.942,2.942,0,0,0,2.245.863,4.668,4.668,0,0,0,2.95-1.058V-.687a5.514,5.514,0,0,1-3.312.909,4.015,4.015,0,0,1-3.164-1.294,5.3,5.3,0,0,1-1.15-3.641,5.2,5.2,0,0,1,1.257-3.614,4.031,4.031,0,0,1,3.122-1.4A3.572,3.572,0,0,1,37.9-8.517a5.028,5.028,0,0,1,1.021,3.349ZM37.36-5.659a3.1,3.1,0,0,0-.635-2.05,2.165,2.165,0,0,0-1.74-.733,2.458,2.458,0,0,0-1.828.77,3.494,3.494,0,0,0-.928,2.013ZM45.626-.093a2.933,2.933,0,0,1-1.419.3q-2.5,0-2.5-2.783V-8.2H40.078V-9.5h1.633v-2.319l1.521-.492V-9.5h2.394v1.3H43.232v5.353a2.219,2.219,0,0,0,.325,1.364,1.3,1.3,0,0,0,1.076.408,1.6,1.6,0,0,0,.993-.315Zm2.811-11.819a.964.964,0,0,1-.7-.278.939.939,0,0,1-.288-.705.955.955,0,0,1,.288-.71.956.956,0,0,1,.7-.283.983.983,0,0,1,.71.283.947.947,0,0,1,.292.71.94.94,0,0,1-.292.7A.974.974,0,0,1,48.437-11.912ZM49.179,0H47.658V-9.5h1.521ZM60.145,0H58.624V-5.418q0-3.024-2.208-3.024a2.4,2.4,0,0,0-1.888.858,3.181,3.181,0,0,0-.747,2.166V0H52.259V-9.5h1.521v1.577h.037a3.429,3.429,0,0,1,3.117-1.8,2.906,2.906,0,0,1,2.384,1.007,4.484,4.484,0,0,1,.826,2.908ZM71.12-.761q0,5.232-5.01,5.232A6.726,6.726,0,0,1,63.03,3.8V2.282a6.326,6.326,0,0,0,3.062.891q3.507,0,3.507-3.729V-1.6h-.037A3.558,3.558,0,0,1,66.3.223a3.566,3.566,0,0,1-2.853-1.266,5.062,5.062,0,0,1-1.081-3.4,5.914,5.914,0,0,1,1.164-3.85,3.89,3.89,0,0,1,3.187-1.429,3.1,3.1,0,0,1,2.848,1.54H69.6V-9.5H71.12ZM69.6-4.3V-5.7a2.718,2.718,0,0,0-.765-1.939,2.52,2.52,0,0,0-1.906-.807,2.642,2.642,0,0,0-2.208,1.025,4.576,4.576,0,0,0-.8,2.871,3.928,3.928,0,0,0,.765,2.537,2.473,2.473,0,0,0,2.027.951A2.648,2.648,0,0,0,68.8-1.967,3.389,3.389,0,0,0,69.6-4.3Z" transform="translate(-6562.58 1391.583)" fill="#fff"/>
    <g id="Groupe_4" data-name="Groupe 4" transform="translate(-6587.492 1282.125)">
      <g id="Groupe_3" data-name="Groupe 3">
        <path id="Tracé_3" data-name="Tracé 3" d="M582.843,1056.915a1.947,1.947,0,0,1-1.362-.55,15.864,15.864,0,0,1,0-22.849l8.775-8.55a11.727,11.727,0,0,1,8.234-3.323h26.48a4.785,4.785,0,0,1,4.841,4.716v4.024a4.785,4.785,0,0,1-4.841,4.716H594.82a1.877,1.877,0,1,1,0-3.753h30.15a.978.978,0,0,0,.99-.964v-4.024a.978.978,0,0,0-.99-.964H598.49a7.848,7.848,0,0,0-5.51,2.224l-8.775,8.55a12.181,12.181,0,0,0,0,17.543,1.843,1.843,0,0,1,0,2.653,1.946,1.946,0,0,1-1.362.55" transform="translate(-576.624 -1021.643)" fill="#fff"/>
        <path id="Tracé_4" data-name="Tracé 4" d="M624.97,1146.281H598.49a11.725,11.725,0,0,1-8.234-3.323l-8.775-8.551a15.864,15.864,0,0,1,0-22.849l9.211-8.974a10.23,10.23,0,0,1,7.182-2.9h27.1a4.786,4.786,0,0,1,4.841,4.717v3.787a4.785,4.785,0,0,1-4.841,4.717h-27.1a10.228,10.228,0,0,1-7.182-2.9l-1.086-1.058-5.4,5.263a12.18,12.18,0,0,0,0,17.542l8.775,8.551a7.847,7.847,0,0,0,5.51,2.223h26.48a.978.978,0,0,0,.99-.964V1137.3a.978.978,0,0,0-.99-.964H594.577a1.877,1.877,0,1,1,0-3.752H624.97a4.785,4.785,0,0,1,4.841,4.717v4.261a4.785,4.785,0,0,1-4.841,4.717M592.329,1106.3l1.086,1.058a6.348,6.348,0,0,0,4.459,1.8h27.1a.978.978,0,0,0,.99-.964V1104.4a.978.978,0,0,0-.99-.964h-27.1a6.351,6.351,0,0,0-4.459,1.8Z" transform="translate(-576.624 -1066.311)" fill="#fff"/>
      </g>
    </g>
  </g>
</svg>
