<svg xmlns="http://www.w3.org/2000/svg" width="103.063" height="109.681" viewBox="0 0 103.063 109.681">
  <g id="Groupe_177" data-name="Groupe 177" transform="translate(6146.62 -1282.125)">
    <g id="Groupe_2" data-name="Groupe 2" transform="translate(-6121.682 1282.125)">
      <g id="Groupe_1" data-name="Groupe 1" transform="translate(0)">
        <path id="Tracé_1" data-name="Tracé 1" d="M1672.08,1056.915a1.946,1.946,0,0,1-1.362-.55,15.864,15.864,0,0,1,0-22.849l8.775-8.55a11.729,11.729,0,0,1,8.234-3.323h26.48a4.785,4.785,0,0,1,4.841,4.716v4.024a4.785,4.785,0,0,1-4.841,4.716h-30.15a1.877,1.877,0,1,1,0-3.753h30.15a.978.978,0,0,0,.99-.964v-4.024a.978.978,0,0,0-.99-.964h-26.48a7.846,7.846,0,0,0-5.51,2.224l-8.775,8.55a12.18,12.18,0,0,0,0,17.543,1.843,1.843,0,0,1,0,2.653,1.946,1.946,0,0,1-1.362.55" transform="translate(-1665.861 -1021.643)" fill="#fff"/>
        <path id="Tracé_2" data-name="Tracé 2" d="M1714.207,1146.281h-26.48a11.726,11.726,0,0,1-8.234-3.323l-8.775-8.551a15.864,15.864,0,0,1,0-22.849l9.21-8.974a10.232,10.232,0,0,1,7.183-2.9h27.1a4.786,4.786,0,0,1,4.841,4.717v3.787a4.785,4.785,0,0,1-4.841,4.717h-27.1a10.23,10.23,0,0,1-7.183-2.9l-1.086-1.058-5.4,5.263a12.18,12.18,0,0,0,0,17.542l8.775,8.551a7.845,7.845,0,0,0,5.51,2.223h26.48a.978.978,0,0,0,.99-.964V1137.3a.978.978,0,0,0-.99-.964h-30.393a1.877,1.877,0,1,1,0-3.752h30.393a4.786,4.786,0,0,1,4.841,4.717v4.261a4.785,4.785,0,0,1-4.841,4.717m-32.641-39.985,1.086,1.058a6.347,6.347,0,0,0,4.459,1.8h27.1a.978.978,0,0,0,.99-.964V1104.4a.979.979,0,0,0-.99-.964h-27.1a6.351,6.351,0,0,0-4.459,1.8Z" transform="translate(-1665.861 -1066.311)" fill="#fff"/>
      </g>
    </g>
    <rect id="Rectangle_4" data-name="Rectangle 4" width="103.063" height="5.734" transform="translate(-6146.62 1384.105)" fill="#fbbb2e"/>
    <path id="Tracé_911" data-name="Tracé 911" d="M-42.708-5.028V0h-1.559V-13.3h3.655A4.825,4.825,0,0,1-37.3-12.265a3.71,3.71,0,0,1,1.174,2.932,4.032,4.032,0,0,1-1.3,3.1,4.98,4.98,0,0,1-3.521,1.206Zm0-6.865v5.455h1.633a3.651,3.651,0,0,0,2.463-.738,2.611,2.611,0,0,0,.849-2.083q0-2.635-3.117-2.635ZM-28.876-7.96a1.86,1.86,0,0,0-1.15-.306,1.942,1.942,0,0,0-1.628.918,4.246,4.246,0,0,0-.654,2.5V0H-33.83V-9.5h1.521v1.958h.037a3.317,3.317,0,0,1,.993-1.563,2.264,2.264,0,0,1,1.494-.561,2.484,2.484,0,0,1,.909.13ZM-23.254.223a4.407,4.407,0,0,1-3.363-1.331,4.931,4.931,0,0,1-1.257-3.53,5.137,5.137,0,0,1,1.308-3.739,4.7,4.7,0,0,1,3.535-1.345,4.261,4.261,0,0,1,3.317,1.308,5.187,5.187,0,0,1,1.192,3.627,5.1,5.1,0,0,1-1.285,3.641A4.5,4.5,0,0,1-23.254.223Zm.111-8.665a2.894,2.894,0,0,0-2.319,1,4.1,4.1,0,0,0-.854,2.751,3.874,3.874,0,0,0,.863,2.663,2.932,2.932,0,0,0,2.31.974,2.781,2.781,0,0,0,2.268-.956,4.147,4.147,0,0,0,.793-2.718,4.218,4.218,0,0,0-.793-2.746A2.769,2.769,0,0,0-23.142-8.442ZM-7.983,0H-9.5V-1.614h-.037A3.512,3.512,0,0,1-12.807.223a3.548,3.548,0,0,1-2.862-1.276,5.233,5.233,0,0,1-1.072-3.474A5.693,5.693,0,0,1-15.553-8.3,3.917,3.917,0,0,1-12.39-9.723a3.045,3.045,0,0,1,2.848,1.54H-9.5v-5.882h1.521ZM-9.5-4.3V-5.7a2.718,2.718,0,0,0-.761-1.948,2.552,2.552,0,0,0-1.93-.8,2.627,2.627,0,0,0-2.189,1.021,4.472,4.472,0,0,0-.8,2.82,4.022,4.022,0,0,0,.765,2.593,2.5,2.5,0,0,0,2.055.951A2.6,2.6,0,0,0-10.3-1.976,3.422,3.422,0,0,0-9.5-4.3ZM2.779,0H1.257V-1.5H1.22A3.124,3.124,0,0,1-1.712.223q-3.4,0-3.4-4.045V-9.5h1.512v5.437q0,3.006,2.3,3.006A2.328,2.328,0,0,0,.538-1.879a3.141,3.141,0,0,0,.719-2.148V-9.5H2.779Zm9.546-.436a4.944,4.944,0,0,1-2.6.659A4.3,4.3,0,0,1,6.448-1.1,4.791,4.791,0,0,1,5.2-4.527,5.267,5.267,0,0,1,6.545-8.3a4.706,4.706,0,0,1,3.59-1.424,5,5,0,0,1,2.208.464V-7.7a3.868,3.868,0,0,0-2.264-.742A3.059,3.059,0,0,0,7.691-7.4a3.96,3.96,0,0,0-.932,2.741,3.771,3.771,0,0,0,.877,2.635,3.022,3.022,0,0,0,2.352.965,3.813,3.813,0,0,0,2.338-.826Zm6.708.343a2.933,2.933,0,0,1-1.419.3q-2.5,0-2.5-2.783V-8.2H13.485V-9.5h1.633v-2.319l1.521-.492V-9.5h2.394v1.3H16.639v5.353a2.219,2.219,0,0,0,.325,1.364,1.3,1.3,0,0,0,1.076.408,1.6,1.6,0,0,0,.993-.315Zm2.811-11.819a.964.964,0,0,1-.7-.278.939.939,0,0,1-.288-.705.955.955,0,0,1,.288-.71.956.956,0,0,1,.7-.283.983.983,0,0,1,.71.283.947.947,0,0,1,.292.71.94.94,0,0,1-.292.7A.974.974,0,0,1,21.844-11.912ZM22.586,0H21.064V-9.5h1.521Zm7.051.223a4.407,4.407,0,0,1-3.363-1.331,4.931,4.931,0,0,1-1.257-3.53,5.137,5.137,0,0,1,1.308-3.739,4.7,4.7,0,0,1,3.535-1.345,4.261,4.261,0,0,1,3.317,1.308,5.187,5.187,0,0,1,1.192,3.627,5.1,5.1,0,0,1-1.285,3.641A4.5,4.5,0,0,1,29.636.223Zm.111-8.665a2.894,2.894,0,0,0-2.319,1,4.1,4.1,0,0,0-.854,2.751,3.874,3.874,0,0,0,.863,2.663,2.932,2.932,0,0,0,2.31.974,2.781,2.781,0,0,0,2.268-.956,4.147,4.147,0,0,0,.793-2.718,4.218,4.218,0,0,0-.793-2.746A2.769,2.769,0,0,0,29.748-8.442ZM44.684,0H43.163V-5.418q0-3.024-2.208-3.024a2.4,2.4,0,0,0-1.888.858,3.181,3.181,0,0,0-.747,2.166V0H36.8V-9.5H38.32v1.577h.037a3.429,3.429,0,0,1,3.117-1.8,2.906,2.906,0,0,1,2.384,1.007,4.484,4.484,0,0,1,.826,2.908Z" transform="translate(-6096.262 1391.583)" fill="#fff"/>
  </g>
</svg>
