<svg xmlns="http://www.w3.org/2000/svg" width="79.115" height="113.865" viewBox="0 0 79.115 113.865">
  <g id="Groupe_178" data-name="Groupe 178" transform="translate(6600.456 -1650.456)">
    <g id="Groupe_5" data-name="Groupe 5" transform="translate(-6585.136 1650.456)">
      <path id="Tracé_5" data-name="Tracé 5" d="M591.644,2045.752c1.288.184,3.711.583,5.919.951,1.564.245,3.036.491,3.925.675.276.061.582.092.889.153a25.475,25.475,0,0,1,2.576.521,29.073,29.073,0,0,1,5.826,1.687,36.618,36.618,0,0,1,3.22,1.748,18.383,18.383,0,0,0,9.966,2.606,20.153,20.153,0,0,0,2.637-.184l-1.012,8.188a17.747,17.747,0,0,1-4.275-.185q-1.935-.307-3.842-.765-1.162-.279-2.309-.615c-2.821-.828-3.005-1.135-10.764-3.987a59.668,59.668,0,0,0-8.985-2.392,15.714,15.714,0,0,0-2.882-.215,8.307,8.307,0,0,0-.89.031,14.76,14.76,0,0,0-2.576.4c-.061,0-.092.031-.154,0,0,0,1.779-8.739,1.779-8.77a.238.238,0,0,1,.092.031Z" transform="translate(-586.015 -1976.037)" fill="#fff"/>
      <path id="Tracé_6" data-name="Tracé 6" d="M604.463,1893.728l-4.392-3.2q3.291-7.221,9.329-7.22a24.233,24.233,0,0,1,6.4,1.277,23.931,23.931,0,0,0,6.173,1.281q1.964,0,3.7-2.926l4.936,2.652q-3.021,7.958-9.419,7.957a22.846,22.846,0,0,1-5.943-1.236,23.007,23.007,0,0,0-5.669-1.236,6.005,6.005,0,0,0-2.652.5A9.323,9.323,0,0,0,604.463,1893.728Z" transform="translate(-592.401 -1882.938)" fill="#fff"/>
      <path id="Tracé_7" data-name="Tracé 7" d="M607.3,1921.423a21.834,21.834,0,0,1,16.523,6.865q6.69,6.917,6.789,21.243t-6.453,21.707q-6.54,7.392-17.792,7.466t-17.688-7.182q-6.449-7.258-6.538-21.206a36.8,36.8,0,0,1,2.149-13.417,22.089,22.089,0,0,1,5.828-8.967A25.542,25.542,0,0,1,607.3,1921.423Zm-14.786,28.407q.142,20.587,14.416,20.486,7.634-.05,10.667-6.378a29.9,29.9,0,0,0,2.727-13.63,34.576,34.576,0,0,0-2.58-13.266,11.562,11.562,0,0,0-4.313-5.2,13.118,13.118,0,0,0-7.438-1.861,11.261,11.261,0,0,0-7.826,3.044,15.5,15.5,0,0,0-4.474,7.248A33.734,33.734,0,0,0,592.509,1949.83Z" transform="translate(-582.135 -1904.965)" fill="#fff"/>
    </g>
    <rect id="Rectangle_10" data-name="Rectangle 10" width="79.115" height="7.267" transform="translate(-6600.456 1753.52)" fill="#2a2a68"/>
    <path id="Tracé_912" data-name="Tracé 912" d="M-26.812.223a5.872,5.872,0,0,1-4.537-1.865,6.928,6.928,0,0,1-1.7-4.852,7.307,7.307,0,0,1,1.735-5.121,6.077,6.077,0,0,1,4.722-1.911,5.712,5.712,0,0,1,4.435,1.855,6.93,6.93,0,0,1,1.688,4.852A7.352,7.352,0,0,1-22.191-1.67a5.121,5.121,0,0,1-.872.779l3.739,2.681h-2.83l-2.5-1.874A7.212,7.212,0,0,1-26.812.223Zm.111-12.339A4.289,4.289,0,0,0-30.1-10.6a5.854,5.854,0,0,0-1.308,3.971,5.95,5.95,0,0,0,1.271,3.961,4.179,4.179,0,0,0,3.331,1.494A4.368,4.368,0,0,0-23.36-2.607a5.839,5.839,0,0,0,1.262-4,6.079,6.079,0,0,0-1.225-4.073A4.2,4.2,0,0,0-26.7-12.116ZM-10.372,0h-1.521V-1.5h-.037A3.124,3.124,0,0,1-14.862.223q-3.4,0-3.4-4.045V-9.5h1.512v5.437q0,3.006,2.3,3.006a2.328,2.328,0,0,0,1.832-.821,3.141,3.141,0,0,0,.719-2.148V-9.5h1.521Zm4.629-1.373H-5.78V0H-7.3V-14.064H-5.78V-7.83h.037A3.6,3.6,0,0,1-2.458-9.723,3.482,3.482,0,0,1,.4-8.447,5.267,5.267,0,0,1,1.438-5.028,5.888,5.888,0,0,1,.278-1.211,3.861,3.861,0,0,1-2.895.223,3.125,3.125,0,0,1-5.743-1.373ZM-5.78-5.2v1.327a2.825,2.825,0,0,0,.765,2,2.542,2.542,0,0,0,1.944.821A2.547,2.547,0,0,0-.9-2.115,4.852,4.852,0,0,0-.121-5.056,3.83,3.83,0,0,0-.854-7.542a2.425,2.425,0,0,0-1.985-.9,2.7,2.7,0,0,0-2.134.923A3.389,3.389,0,0,0-5.78-5.2ZM5.427-1.373H5.39V0H3.869V-14.064H5.39V-7.83h.037A3.6,3.6,0,0,1,8.711-9.723a3.482,3.482,0,0,1,2.862,1.276,5.267,5.267,0,0,1,1.034,3.419,5.888,5.888,0,0,1-1.16,3.818A3.861,3.861,0,0,1,8.275.223,3.125,3.125,0,0,1,5.427-1.373ZM5.39-5.2v1.327a2.825,2.825,0,0,0,.765,2A2.542,2.542,0,0,0,8.1-1.058a2.547,2.547,0,0,0,2.166-1.058,4.852,4.852,0,0,0,.784-2.941,3.83,3.83,0,0,0-.733-2.486,2.425,2.425,0,0,0-1.985-.9A2.7,2.7,0,0,0,6.2-7.519,3.389,3.389,0,0,0,5.39-5.2ZM21.839,0H20.317V-1.484H20.28A3.185,3.185,0,0,1,17.358.223a3.123,3.123,0,0,1-2.222-.751,2.6,2.6,0,0,1-.8-1.995q0-2.663,3.136-3.1l2.848-.4q0-2.421-1.958-2.421a4.677,4.677,0,0,0-3.1,1.169V-8.832a5.887,5.887,0,0,1,3.229-.891q3.349,0,3.349,3.544ZM20.317-4.806l-2.292.315a3.72,3.72,0,0,0-1.6.524,1.512,1.512,0,0,0-.538,1.331,1.45,1.45,0,0,0,.5,1.136,1.918,1.918,0,0,0,1.322.441,2.442,2.442,0,0,0,1.869-.793,2.834,2.834,0,0,0,.738-2.009ZM32.591,0H31.07V-5.474q0-2.969-2.208-2.969a2.407,2.407,0,0,0-1.874.858,3.2,3.2,0,0,0-.761,2.2V0H24.706V-14.064h1.521v6.142h.037a3.455,3.455,0,0,1,3.117-1.8q3.21,0,3.21,3.869Z" transform="translate(-6562.387 1762.531)" fill="#fff"/>
  </g>
</svg>
