<svg xmlns="http://www.w3.org/2000/svg" viewBox="0 0 385.11 128.45"><defs><style>.cls-1{fill:#12100b;}</style></defs><g id="Layer_2" data-name="Layer 2"><g id="Layer_1-2" data-name="Layer 1"><path class="cls-1" d="M375.26,0a9.85,9.85,0,1,0,9.85,9.85A9.86,9.86,0,0,0,375.26,0Zm0,18.43a8.58,8.58,0,1,1,8.58-8.58A8.59,8.59,0,0,1,375.26,18.43Z"/><path class="cls-1" d="M379.44,11.85c0-1.58-.88-2-1.48-2.11v0a2.42,2.42,0,0,0,1.65-2.51c0-1.69-1.12-2.7-3.3-2.7h-4.76v10h1.75V10.37h2.57c1.6,0,2,.81,2,2.64a2.75,2.75,0,0,0,.27,1.47H380A4.53,4.53,0,0,1,379.44,11.85ZM376.16,9H373.3V5.92h2.83c.91,0,1.73.26,1.73,1.53C377.86,8.5,377.27,9,376.16,9Z"/><polygon class="cls-1" points="71.15 64.23 113.72 128.45 0 128.45 0 32.97 21.85 0.01 113.72 0.01 71.15 64.23"/><rect class="cls-1" x="143.28" width="59.13" height="128.45"/><polygon class="cls-1" points="345.7 0.01 345.7 59.13 318 59.13 318 95.48 296.15 128.45 261.14 128.45 261.14 59.13 231.98 59.13 231.98 0.01 345.7 0.01"/></g></g></svg>