<svg xmlns="http://www.w3.org/2000/svg" width="185.518" height="172.458" viewBox="0 0 185.518 172.458">
  <g id="Groupe_156" data-name="Groupe 156" transform="translate(621.844 -333.163)">
    <path id="Tracé_893" data-name="Tracé 893" d="M-600.257,472.348A92.429,92.429,0,0,1-616.1,445.054a92.425,92.425,0,0,1-5.741-32.192,92.972,92.972,0,0,1,3.262-24.465,92.285,92.285,0,0,1,9.21-22.016,93.352,93.352,0,0,1,32.807-33.218l1.025,1.717a91.278,91.278,0,0,0-44.3,77.982,90.843,90.843,0,0,0,21.121,58.2Z" fill="#e63d64"/>
    <path id="Tracé_894" data-name="Tracé 894" d="M-387.589,655.626a93.528,93.528,0,0,1-17.579-1.664l.377-1.964a91.521,91.521,0,0,0,17.2,1.628,90.862,90.862,0,0,0,90.759-90.759h2a93.411,93.411,0,0,1-1.885,18.691,92.294,92.294,0,0,1-5.406,17.412,92.784,92.784,0,0,1-8.553,15.757A93.445,93.445,0,0,1-322,628.455a93.441,93.441,0,0,1-13.728,11.327,92.778,92.778,0,0,1-15.757,8.553,92.29,92.29,0,0,1-17.412,5.406A93.409,93.409,0,0,1-387.589,655.626Z" transform="translate(-141.496 -150.005)" fill="#e63d64"/>
    <path id="Tracé_895" data-name="Tracé 895" d="M-143.4,405.377A90.982,90.982,0,0,0-156.6,386.128l1.491-1.333a92.984,92.984,0,0,1,13.484,19.672Z" transform="translate(-304.797 -33.718)" fill="#e63d64"/>
    <path id="Tracé_896" data-name="Tracé 896" d="M-403.875,495.625l-.715-1.868a69.863,69.863,0,0,0,44.652-64.843,69.482,69.482,0,0,0-69.4-69.4,68.969,68.969,0,0,0-38.776,11.869l-1.12-1.657a70.962,70.962,0,0,1,39.9-12.212,71.484,71.484,0,0,1,71.4,71.4,71.155,71.155,0,0,1-3.4,21.806,71.154,71.154,0,0,1-9.5,19.1,71.913,71.913,0,0,1-14.531,15.322A71.339,71.339,0,0,1-403.875,495.625Z" transform="translate(-99.743 -16.052)" fill="#e63d64"/>
    <path id="Tracé_897" data-name="Tracé 897" d="M-533.846,544.122a72.136,72.136,0,0,1-10.76-11.02,71.678,71.678,0,0,1-8.2-13.128,70.992,70.992,0,0,1-5.221-14.824,71.534,71.534,0,0,1-1.832-16.106,71,71,0,0,1,11.848-39.352l1.667,1.105a69.007,69.007,0,0,0-11.515,38.247,69.233,69.233,0,0,0,25.283,53.535Z" transform="translate(-40.632 -76.183)" fill="#e63d64"/>
    <path id="Tracé_898" data-name="Tracé 898" d="M-447.82,519.595a50.1,50.1,0,0,1-50.047-50.047A50.1,50.1,0,0,1-447.82,419.5a49.663,49.663,0,0,1,18.709,3.627l-.75,1.854A47.672,47.672,0,0,0-447.82,421.5a48.1,48.1,0,0,0-48.047,48.047,48.1,48.1,0,0,0,48.047,48.047,48.1,48.1,0,0,0,48.048-48.047,48.356,48.356,0,0,0-.57-7.408l1.976-.307a50.365,50.365,0,0,1,.594,7.715A50.1,50.1,0,0,1-447.82,519.595Z" transform="translate(-81.265 -56.685)" fill="#e63d64"/>
    <path id="Tracé_899" data-name="Tracé 899" d="M-407.187,538.871a28.724,28.724,0,0,1-28.692-28.692,28.724,28.724,0,0,1,28.692-28.692,28.543,28.543,0,0,1,9.58,1.645,28.618,28.618,0,0,1,8.213,4.553l-1.242,1.567a26.39,26.39,0,0,0-16.551-5.765,26.722,26.722,0,0,0-26.692,26.692,26.722,26.722,0,0,0,26.692,26.692A26.722,26.722,0,0,0-380.5,510.18h2A28.724,28.724,0,0,1-407.187,538.871Z" transform="translate(-121.897 -97.317)" fill="#e63d64"/>
    <g id="Groupe_155" data-name="Groupe 155" transform="translate(-563.864 363.815)">
      <g id="Groupe_154" data-name="Groupe 154" transform="translate(0 0)">
        <g id="Groupe_153" data-name="Groupe 153">
          <path id="Tracé_900" data-name="Tracé 900" d="M-454.444,502.234l-2.017-2.221,34.288-31.13V420.5h3v49.712Z" transform="translate(455.452 -420.5)"/>
        </g>
        <path id="Tracé_901" data-name="Tracé 901" d="M-360.814,549.557a7,7,0,0,1-7,7,7,7,0,0,1-7-7,7,7,0,0,1,7-7A7,7,0,0,1-360.814,549.557Z" transform="translate(402.589 -500.509)"/>
      </g>
    </g>
  </g>
</svg>
