<svg id="Layer_1" data-name="Layer 1" xmlns="http://www.w3.org/2000/svg" viewBox="0 0 1920 1080"><defs><style>.cls-1{fill:#f0b02b;}.cls-2{fill:#fff;}</style></defs><rect width="1920" height="1080"/><rect class="cls-1" x="849.71" y="522.59" width="206" height="45.5"/><path class="cls-2" d="M859.07,493.22l7.33-1.92.39,1.52-7.33,1.92Zm.68,2.68,7.32-1.92.39,1.52-7.32,1.93Z"/><path class="cls-2" d="M861.16,502.87h4.13l-.12,25.9H861Z"/><path class="cls-2" d="M875.74,535.26q-1.44,2.19-4.85,2.17a7.63,7.63,0,0,1-1.34-.1,5.8,5.8,0,0,1-1-.23,5.66,5.66,0,0,1-.84-.33l0-3.48a5.68,5.68,0,0,0,2.71.63,3,3,0,0,0,1.09-.18,1.62,1.62,0,0,0,.8-.7,4.55,4.55,0,0,0,.52-1.5,15.63,15.63,0,0,0,.19-2.57l.07-15.58,4.13,0,0,8.58a3.43,3.43,0,0,0,.3,1.54,2.61,2.61,0,0,0,.83,1,3.06,3.06,0,0,0,1.23.49,8.89,8.89,0,0,0,1.5.14h1.27a1.67,1.67,0,0,1,.52.08c.16,0,.24.19.24.43l0,2.83c0,.26-.25.4-.76.39H881a3.78,3.78,0,0,1-1.07-.17,4.88,4.88,0,0,1-1.08-.46,3.59,3.59,0,0,1-.92-.71,3,3,0,0,1-.62-1h-.14V529A11.47,11.47,0,0,1,875.74,535.26Z"/><path class="cls-2" d="M881.58,528.46l0-2.82c0-.25.08-.39.23-.44a1.79,1.79,0,0,1,.53-.07l6.19,0c.53,0,.8.14.8.4v2.83c0,.24-.08.38-.24.43a1.91,1.91,0,0,1-.56.07l-6.2,0C881.83,528.86,881.58,528.73,881.58,528.46Z"/><path class="cls-2" d="M887.78,528.49v-2.83c0-.24.08-.38.24-.43a1.72,1.72,0,0,1,.52-.07l6.2,0c.53,0,.79.14.79.4v2.83c0,.24-.08.38-.24.43a1.86,1.86,0,0,1-.56.07l-6.19,0C888,528.89,887.78,528.76,887.78,528.49Z"/><path class="cls-2" d="M894,528.52v-2.83c0-.24.08-.38.24-.43a1.74,1.74,0,0,1,.53-.07l6.19,0c.53,0,.8.13.8.4l0,2.83c0,.24-.08.38-.23.43a1.93,1.93,0,0,1-.57.07l-6.19,0C894.22,528.92,894,528.78,894,528.52Z"/><path class="cls-2" d="M900.17,528.55v-2.83c0-.24.08-.38.24-.43a1.68,1.68,0,0,1,.52-.07l6.2,0c.53,0,.79.13.79.4v2.82c0,.25-.08.39-.24.44a1.86,1.86,0,0,1-.56.07l-6.2,0C900.42,529,900.16,528.81,900.17,528.55Z"/><path class="cls-2" d="M906.36,528.58v-2.83c0-.24.08-.39.24-.43a1.74,1.74,0,0,1,.53-.07l6.19,0c.53,0,.8.14.79.41v2.82c0,.24-.08.39-.24.44a2.19,2.19,0,0,1-.56.07l-6.19,0C906.61,529,906.36,528.84,906.36,528.58Z"/><path class="cls-2" d="M912.55,528.6l0-2.82c0-.24.08-.39.23-.44a2.19,2.19,0,0,1,.53-.07l6.19,0c.54,0,.8.14.8.41v2.82c0,.24-.08.39-.24.43a1.62,1.62,0,0,1-.56.07l-6.2,0C912.81,529,912.55,528.87,912.55,528.6Z"/><path class="cls-2" d="M918.75,528.63v-2.82c0-.24.08-.39.24-.44a2.11,2.11,0,0,1,.52-.07l6.2,0c.53,0,.79.14.79.4v2.83c0,.24-.08.39-.24.43a1.82,1.82,0,0,1-.56.07l-6.19,0C919,529,918.75,528.9,918.75,528.63Z"/><path class="cls-2" d="M924.94,528.66v-2.82c0-.25.09-.39.24-.44a1.74,1.74,0,0,1,.53-.07l6.19,0c.53,0,.8.14.8.4l0,2.83c0,.24-.08.38-.23.43a1.91,1.91,0,0,1-.56.07l-6.2,0C925.19,529.06,924.94,528.93,924.94,528.66Z"/><path class="cls-2" d="M931.14,528.69v-2.83c0-.24.08-.38.24-.43a1.68,1.68,0,0,1,.52-.07l6.2,0c.53,0,.79.14.79.4v2.83c0,.24-.08.38-.24.43a1.86,1.86,0,0,1-.56.07l-6.2,0C931.39,529.09,931.13,529,931.14,528.69Z"/><path class="cls-2" d="M937.33,528.72v-2.83c0-.24.08-.38.24-.43a1.74,1.74,0,0,1,.53-.07l6.19,0c.53,0,.8.13.8.4l0,2.83c0,.24-.08.38-.24.43a1.82,1.82,0,0,1-.56.07l-6.19,0C937.58,529.12,937.33,529,937.33,528.72Z"/><path class="cls-2" d="M943.52,528.75l0-2.83c0-.24.08-.38.23-.43a1.79,1.79,0,0,1,.53-.07l6.19,0c.54,0,.8.13.8.4v2.82c0,.25-.08.39-.24.44a1.91,1.91,0,0,1-.56.07l-6.2,0C943.78,529.15,943.52,529,943.52,528.75Z"/><path class="cls-2" d="M978.15,525.65c.16.05.23.19.23.43v2.83c0,.26-.25.39-.76.39h-1.23a4.36,4.36,0,0,1-1-.15,4.58,4.58,0,0,1-1.05-.44,5.34,5.34,0,0,1-.94-.7,2.69,2.69,0,0,1-.65-.9h-.18a7.45,7.45,0,0,1-.29,1,4,4,0,0,1-.7,1.17l-21-.09c-.51,0-.76-.14-.76-.4V526c0-.24.08-.39.24-.43a1.72,1.72,0,0,1,.52-.07l17.79.08,0-4.28a5.71,5.71,0,0,0-1.29-4.2,4.53,4.53,0,0,0-3.39-1.32l-11.45-.06,0-3.65,8.73-8.69,5,0L957.29,512l6.16,0a13.24,13.24,0,0,1,4.26.61,6.48,6.48,0,0,1,4.39,4.66,14.31,14.31,0,0,1,.47,3.93v.94a3.21,3.21,0,0,0,.88,2.6,3.31,3.31,0,0,0,2.22.75h2A1.72,1.72,0,0,1,978.15,525.65Z"/><path class="cls-2" d="M976.85,528.9v-2.83c0-.24.08-.38.24-.43a1.74,1.74,0,0,1,.53-.07l6.19,0c.53,0,.8.14.8.4l0,2.83c0,.24-.08.38-.23.43a1.93,1.93,0,0,1-.57.07l-6.19,0C977.1,529.3,976.85,529.17,976.85,528.9Z"/><path class="cls-2" d="M983,528.93l0-2.83c0-.24.08-.38.23-.43a1.79,1.79,0,0,1,.53-.07l6.19,0c.54,0,.8.14.8.4v2.83c0,.24-.08.38-.24.43a1.91,1.91,0,0,1-.56.07l-6.2,0C983.3,529.33,983,529.19,983,528.93Z"/><path class="cls-2" d="M989.24,529v-2.83c0-.24.08-.38.24-.43a1.72,1.72,0,0,1,.52-.07l6.2,0c.53,0,.79.13.79.4v2.82c0,.25-.08.39-.24.44a1.82,1.82,0,0,1-.56.07l-6.19,0C989.49,529.36,989.24,529.22,989.24,529Z"/><path class="cls-2" d="M995.43,529l0-2.83c0-.24.08-.39.23-.43a1.74,1.74,0,0,1,.53-.07l6.19,0c.53,0,.8.13.8.4l0,2.82c0,.24-.08.39-.23.44a2.34,2.34,0,0,1-.57.07l-6.19,0C995.68,529.39,995.43,529.25,995.43,529Z"/><path class="cls-2" d="M1001.63,529v-2.82c0-.24.08-.39.24-.43a1.43,1.43,0,0,1,.52-.07l6.2,0c.53,0,.79.14.79.41v2.82c0,.24-.08.39-.24.44a2.25,2.25,0,0,1-.56.07l-6.2,0C1001.88,529.41,1001.62,529.28,1001.63,529Z"/><path class="cls-2" d="M1007.82,529v-2.82c0-.24.08-.39.24-.44a2.13,2.13,0,0,1,.53-.07l6.19,0c.53,0,.8.14.8.41l0,2.82c0,.24-.08.39-.24.43a1.82,1.82,0,0,1-.56.07l-6.19,0C1008.07,529.44,1007.82,529.31,1007.82,529Z"/><path class="cls-2" d="M1018,525.63a2,2,0,0,0,.81-.45,2.35,2.35,0,0,0,.64-.87,3.19,3.19,0,0,0,.26-1.37l0-7.43,4.13,0,0,7.72a2.69,2.69,0,0,0,.26,1.27,2.29,2.29,0,0,0,.72.82,3.22,3.22,0,0,0,1.07.44,6.82,6.82,0,0,0,1.3.13,6.14,6.14,0,0,0,1.24-.12,2.65,2.65,0,0,0,1-.45,2.45,2.45,0,0,0,.71-.87,2.93,2.93,0,0,0,.28-1.37l0-8.22h4.13l0,8.12a3.31,3.31,0,0,0,.25,1.38,2.64,2.64,0,0,0,.63.87,2,2,0,0,0,.81.45,3.14,3.14,0,0,0,.8.14l4.6,0,0-11.7,4.13,0-.07,15.43-8.69,0a4,4,0,0,1-.94-.12,3.51,3.51,0,0,1-1-.36,4.43,4.43,0,0,1-.87-.64,2.28,2.28,0,0,1-.57-.93h-.15a4.05,4.05,0,0,1-2,1.6,8.84,8.84,0,0,1-3.35.51,9.84,9.84,0,0,1-3.26-.5,3.11,3.11,0,0,1-1.91-1.55h-.15a3.93,3.93,0,0,1-3.81,1.9l-4.35,0c-.5,0-.76-.13-.76-.4l0-2.82c0-.25.08-.39.23-.44a2.19,2.19,0,0,1,.53-.07h2.43A3.11,3.11,0,0,0,1018,525.63Zm13.68-22,0,4.24-4.13,0,0-4.24Zm3.11-5.56,0,4.24-4.13,0,0-4.24Zm3,5.59,0,4.24-4.13,0,0-4.24Z"/><path class="cls-2" d="M870.13,555.73l-8.33,0V552l20.73.09,0,3.66-8.3,0-.1,21.7-4.09,0Z"/><path class="cls-2" d="M889.42,552.17l0,10.14a7.51,7.51,0,0,1,11.31-.58,9.5,9.5,0,0,1,1.81,6.22l0,9.63-3.73,0,0-9.59a5.32,5.32,0,0,0-1.17-3.76,4.31,4.31,0,0,0-3.3-1.3,4.53,4.53,0,0,0-3.53,1.52,5.44,5.44,0,0,0-1.42,3.78l0,9.31-3.73,0,.12-25.35Z"/><path class="cls-2" d="M921.7,559.81l3.62,0-.08,17.86-3.55,0-.17-2.9a5.61,5.61,0,0,1-2.6,2.49,8,8,0,0,1-3.58.85,9,9,0,0,1-6.58-2.49,9.31,9.31,0,0,1-2.54-7,8.94,8.94,0,0,1,2.66-6.81,9.25,9.25,0,0,1,6.62-2.46,7.71,7.71,0,0,1,3.58.89,5.89,5.89,0,0,1,2.49,2.37Zm-10.06,4.57a5.7,5.7,0,0,0-1.69,4.29A5.79,5.79,0,0,0,911.6,573a5.7,5.7,0,0,0,4.12,1.65,6.13,6.13,0,0,0,2.85-.64,4.68,4.68,0,0,0,1.89-1.7,8,8,0,0,0,.95-2.29,5.12,5.12,0,0,0,0-2.52,8.06,8.06,0,0,0-.93-2.32,4.65,4.65,0,0,0-1.87-1.71,6.1,6.1,0,0,0-2.84-.67A5.69,5.69,0,0,0,911.64,564.38Z"/><path class="cls-2" d="M943.85,577.77l0-9.56a5.33,5.33,0,0,0-1.25-3.75A4.55,4.55,0,0,0,939.1,563a4.68,4.68,0,0,0-3.59,1.54,5.47,5.47,0,0,0-1.43,3.8l0,9.35-3.73,0,.08-17.89h3.4l.21,2.61a7.79,7.79,0,0,1,6-2.83,7.28,7.28,0,0,1,5.51,2.3,8.78,8.78,0,0,1,2.13,6.28l0,9.6Z"/><path class="cls-2" d="M956.29,552.51l-.07,14.78,6.66-7.29,4.53,0v.22l-7.75,8.15,8.72,9.24v.26l-4.57,0-7.6-8.29,0,8.26-3.77,0,.12-25.32Z"/><path class="cls-2" d="M990,563.82l7.26-11.16,4.89,0v.19L992,567.6,991.92,578h-4l0-10.4-9.71-14.83v-.18l4.82,0Z"/><path class="cls-2" d="M1019.73,562.56a9.87,9.87,0,0,1,0,13.3,9.85,9.85,0,0,1-13.38-.06,10,10,0,0,1,.07-13.32,9.72,9.72,0,0,1,13.34.08ZM1009.06,565a6.1,6.1,0,0,0-1.52,4.16,5.93,5.93,0,0,0,1.47,4.13,5.06,5.06,0,0,0,4,1.69,5.2,5.2,0,0,0,4-1.65,6.37,6.37,0,0,0,0-8.28,5.11,5.11,0,0,0-3.94-1.74A5.05,5.05,0,0,0,1009.06,565Z"/><path class="cls-2" d="M1029.72,560.31l0,9.56a5.34,5.34,0,0,0,1.27,3.74,5,5,0,0,0,7.14-.11,5.58,5.58,0,0,0,1.41-3.83l0-9.31h3.73l-.08,17.9-3.37,0-.2-2.64a7.91,7.91,0,0,1-6.17,2.87,7.09,7.09,0,0,1-5.45-2.31,9,9,0,0,1-2-6.28l0-9.6Z"/><path class="cls-2" d="M101.56,935.41H94v-3.33h18.88v3.33h-7.56v19.77h-3.73Z"/><path class="cls-2" d="M129.17,941a9,9,0,0,1,0,12.12,8.16,8.16,0,0,1-6.12,2.39,8.07,8.07,0,0,1-6.07-2.39A9.1,9.1,0,0,1,117,941a8,8,0,0,1,6.06-2.41A8.13,8.13,0,0,1,129.17,941Zm-9.7,2.26a5.51,5.51,0,0,0-1.37,3.8,5.44,5.44,0,0,0,1.35,3.76,4.62,4.62,0,0,0,3.63,1.52,4.69,4.69,0,0,0,3.65-1.52,5.41,5.41,0,0,0,1.37-3.76,5.46,5.46,0,0,0-1.42-3.78,4.67,4.67,0,0,0-3.6-1.57A4.58,4.58,0,0,0,119.47,943.26Z"/><path class="cls-2" d="M163.38,952.21a11.86,11.86,0,0,1-8.69,3.43,14,14,0,0,1-5.41-1,10.13,10.13,0,0,1-3.83-2.67,11.79,11.79,0,0,1-2.19-3.77,12.9,12.9,0,0,1-.74-4.42,13.12,13.12,0,0,1,.76-4.47,12.27,12.27,0,0,1,2.21-3.86,10,10,0,0,1,3.84-2.76,13.55,13.55,0,0,1,5.36-1,11.51,11.51,0,0,1,8.45,3.5l-2.47,2.37a8.2,8.2,0,0,0-6-2.37,7.94,7.94,0,0,0-6.33,2.54,8.75,8.75,0,0,0-2.18,6,8.89,8.89,0,0,0,2.18,6c1.43,1.64,3.54,2.45,6.33,2.45a8.86,8.86,0,0,0,3.31-.65,8.32,8.32,0,0,0,2.83-1.85Z"/><path class="cls-2" d="M180,941a9,9,0,0,1,0,12.12,8.16,8.16,0,0,1-6.12,2.39,8.07,8.07,0,0,1-6.07-2.39,9.1,9.1,0,0,1,0-12.13,8,8,0,0,1,6.06-2.41A8.13,8.13,0,0,1,180,941Zm-9.7,2.26a5.51,5.51,0,0,0-1.37,3.8,5.44,5.44,0,0,0,1.35,3.76,4.62,4.62,0,0,0,3.63,1.52,4.69,4.69,0,0,0,3.65-1.52,5.41,5.41,0,0,0,1.37-3.76,5.46,5.46,0,0,0-1.42-3.78,4.67,4.67,0,0,0-3.6-1.57A4.58,4.58,0,0,0,170.29,943.26Z"/><path class="cls-2" d="M198.29,955.18v-8.71a4.9,4.9,0,0,0-1.16-3.42,4.14,4.14,0,0,0-3.23-1.27,4.21,4.21,0,0,0-3.27,1.42,5,5,0,0,0-1.29,3.46v8.52h-3.4V938.87h3.11l.19,2.38a7.1,7.1,0,0,1,5.48-2.61,6.65,6.65,0,0,1,5,2.08,8,8,0,0,1,2,5.71v8.75Z"/><path class="cls-2" d="M211.32,934.22v4.72h4.75v2.94h-4.78v7.75c0,1.79.78,2.68,2.34,2.68a4.74,4.74,0,0,0,2.08-.56l1,2.9a8.14,8.14,0,0,1-3.27.73,5.32,5.32,0,0,1-4.11-1.41,6,6,0,0,1-1.43-4.34v-7.75h-3.14v-2.94h3.14v-4.36Z"/><path class="cls-2" d="M232.57,938.91h3.3v16.27h-3.23l-.16-2.64a5.17,5.17,0,0,1-2.36,2.28,7.41,7.41,0,0,1-3.26.79,8.14,8.14,0,0,1-6-2.25,8.38,8.38,0,0,1-2.35-6.33,8.16,8.16,0,0,1,2.4-6.23,8.44,8.44,0,0,1,6-2.26,6.94,6.94,0,0,1,3.27.8,5.38,5.38,0,0,1,2.28,2.14Zm-9.14,4.21a5.18,5.18,0,0,0-1.52,3.91,5.25,5.25,0,0,0,1.52,3.92,5.17,5.17,0,0,0,3.76,1.49,5.63,5.63,0,0,0,2.6-.59,4.26,4.26,0,0,0,1.71-1.56,7.31,7.31,0,0,0,.86-2.09,4.71,4.71,0,0,0,0-2.3,7.43,7.43,0,0,0-.86-2.11,4.24,4.24,0,0,0-1.71-1.55,5.5,5.5,0,0,0-2.6-.59A5.2,5.2,0,0,0,223.43,943.12Z"/><path class="cls-2" d="M254.25,953.07a8.47,8.47,0,0,1-6.17,2.54,8.72,8.72,0,0,1-6.14-2.25,9.35,9.35,0,0,1,0-12.6,8.72,8.72,0,0,1,6.14-2.25,8.06,8.06,0,0,1,5.88,2.41l-2.18,2.28a5,5,0,0,0-3.66-1.45,5.11,5.11,0,0,0-3.73,1.46,5.19,5.19,0,0,0-1.49,3.85,5,5,0,0,0,1.49,3.86,5.63,5.63,0,0,0,7.55-.13Z"/><path class="cls-2" d="M262.54,934.22v4.72h4.75v2.94H262.5v7.75c0,1.79.78,2.68,2.35,2.68a4.78,4.78,0,0,0,2.08-.56l1,2.9a8.14,8.14,0,0,1-3.27.73,5.32,5.32,0,0,1-4.11-1.41,5.93,5.93,0,0,1-1.44-4.34v-7.75H256v-2.94h3.13v-4.36Z"/></svg>