<svg id="Layer_1" data-name="Layer 1" xmlns="http://www.w3.org/2000/svg" viewBox="0 0 1920 1080"><defs><style>.cls-1{fill:none;}.cls-1,.cls-2{stroke:#d1d2d3;stroke-linecap:round;stroke-linejoin:round;}.cls-2{fill:#fdbd2e;}</style></defs><rect class="cls-1" x="181.95" y="835.31" width="283.54" height="186.81" rx="5.23"/><path class="cls-1" d="M308.87,741.5H280.82a5.79,5.79,0,0,1-5.86-5.71v-5.16a5.79,5.79,0,0,1,5.86-5.7h58.89"/><path class="cls-1" d="M347.14,741.5h25.64a5.79,5.79,0,0,0,5.86-5.71v-5.16a5.79,5.79,0,0,0-5.86-5.7H327"/><line class="cls-1" x1="345.12" y1="1022.44" x2="369.72" y2="1080"/><line class="cls-1" x1="302.32" y1="1022.44" x2="277.73" y2="1080"/><polygon class="cls-1" points="264.36 834.69 386.51 835.32 402.52 901.25 248.98 900.31 264.36 834.69"/><line class="cls-1" x1="363.74" y1="742.24" x2="431.79" y2="1021.81"/><line class="cls-1" x1="265.38" y1="835.31" x2="386.28" y2="835.31"/><line class="cls-1" x1="249.39" y1="901.24" x2="402.29" y2="901.24"/><polyline class="cls-1" points="344.73 1021.81 344.73 977.07 302.04 977.07 302.04 1021.81"/><line class="cls-1" x1="322.76" y1="977.86" x2="322.76" y2="1021.18"/><path class="cls-1" d="M302,979.89v-1.53a21.35,21.35,0,0,1,42.7,0v2.11"/><path class="cls-1" d="M290.57,724.32V693.81a35.88,35.88,0,1,1,71.75,0V724.6"/><line class="cls-1" x1="323.33" y1="999.52" x2="329.04" y2="999.52"/><line class="cls-1" x1="290.79" y1="713.08" x2="361.35" y2="713.08"/><circle class="cls-2" cx="327.59" cy="688.6" r="13.81"/><path class="cls-1" d="M336.85,688.6a9.25,9.25,0,0,1-6,8.68"/><line class="cls-1" x1="438.47" y1="1022.12" x2="212.27" y2="1022.12"/><line class="cls-1" x1="287.69" y1="742.24" x2="219.64" y2="1021.81"/><path class="cls-2" d="M147.06,537.16l73.64.2A14.38,14.38,0,0,1,235,522.85a14.15,14.15,0,0,1,5.34,1,26.51,26.51,0,0,1,52.95-.59,14.42,14.42,0,0,1,19.46,13.36l23.06-.19"/><line class="cls-1" x1="307.53" y1="571.46" x2="341.74" y2="571.46"/><line class="cls-1" x1="355.7" y1="571.46" x2="421.89" y2="571.46"/><line class="cls-1" x1="421.48" y1="657.93" x2="520.96" y2="657.93"/><line class="cls-1" y1="713.08" x2="113.32" y2="713.08"/><line class="cls-1" x1="136.07" y1="713.08" x2="181.95" y2="713.08"/></svg>