<svg xmlns="http://www.w3.org/2000/svg" viewBox="0 0 85.29 66"><defs><style>.cls-1{fill:#241329;}.cls-2{font-size:22.07px;fill:#fff;font-family:Yanson-Regular, Yanson Regular;}.cls-3{fill:#e53d64;}</style></defs><g id="Layer_2" data-name="Layer 2"><g id="Layer_1-2" data-name="Layer 1"><path class="cls-1" d="M1,62.47v3.4H0v-8H3.32a2.43,2.43,0,0,1,1.9.7,2.32,2.32,0,0,1,.56,1.66,2.16,2.16,0,0,1-.68,1.69,2.2,2.2,0,0,1-1.56.58Zm0-.9H3.16A1.66,1.66,0,0,0,4.3,61.2a1.33,1.33,0,0,0,.42-1.05,1.31,1.31,0,0,0-.42-1,1.61,1.61,0,0,0-1.14-.37H1Z"/><path class="cls-1" d="M7.11,60.11H8v1A1.68,1.68,0,0,1,9.55,60a1.47,1.47,0,0,1,.33,0V61a2.26,2.26,0,0,0-1.24.26A1.94,1.94,0,0,0,8,62.88v3H7.11Z"/><path class="cls-1" d="M13,60a2.34,2.34,0,0,1,2,.91A3.39,3.39,0,0,1,15.63,63a3.08,3.08,0,0,1-.79,2.29A2.41,2.41,0,0,1,13,66a2.4,2.4,0,0,1-2-.88A3.33,3.33,0,0,1,10.4,63a3.24,3.24,0,0,1,.8-2.34A2.49,2.49,0,0,1,13,60Zm0,.85a1.47,1.47,0,0,0-1.24.58A2.67,2.67,0,0,0,11.36,63a2.36,2.36,0,0,0,.5,1.63,1.48,1.48,0,0,0,1.17.49,1.44,1.44,0,0,0,1.2-.56A2.47,2.47,0,0,0,14.66,63a2.53,2.53,0,0,0-.49-1.68A1.39,1.39,0,0,0,13,60.83Z"/><path class="cls-1" d="M21.59,57.84v8h-.92v-.8A1.83,1.83,0,0,1,19,66,2.27,2.27,0,0,1,17,65.09a3.49,3.49,0,0,1-.6-2.13,3.16,3.16,0,0,1,.78-2.27A2.24,2.24,0,0,1,18.91,60a2,2,0,0,1,1.76.88v-3Zm-2.52,3a1.48,1.48,0,0,0-1.23.6A2.49,2.49,0,0,0,17.38,63a2.33,2.33,0,0,0,.53,1.61,1.52,1.52,0,0,0,1.17.51,1.38,1.38,0,0,0,1.16-.57A2.5,2.5,0,0,0,20.67,63a2.53,2.53,0,0,0-.49-1.66A1.37,1.37,0,0,0,19.07,60.84Z"/><path class="cls-1" d="M27.55,65.87h-.9V65a2.23,2.23,0,0,1-3.18.61,1.39,1.39,0,0,1-.5-1.12V60.11h.91v4a1.06,1.06,0,0,0,.32.8,1.21,1.21,0,0,0,.88.31,1.39,1.39,0,0,0,1.14-.53,2.15,2.15,0,0,0,.43-1.4V60.11h.9Z"/><path class="cls-1" d="M33.55,62h-.92a1.24,1.24,0,0,0-1.36-1.21,1.35,1.35,0,0,0-1.18.59,2.74,2.74,0,0,0-.43,1.65,2.27,2.27,0,0,0,.51,1.59,1.44,1.44,0,0,0,1.14.48,1.31,1.31,0,0,0,1.38-1.25h.93a2.22,2.22,0,0,1-.77,1.62,2.42,2.42,0,0,1-1.56.48,2.37,2.37,0,0,1-2-.89,3.19,3.19,0,0,1-.61-2,3.29,3.29,0,0,1,.8-2.36A2.32,2.32,0,0,1,31.28,60a2.19,2.19,0,0,1,1.88.85A2.25,2.25,0,0,1,33.55,62Z"/><path class="cls-1" d="M36.9,60.11v.74H35.73v3.83a.42.42,0,0,0,.14.34.45.45,0,0,0,.36.14,3,3,0,0,0,.65-.1l.1.81a6.66,6.66,0,0,1-1,.12q-1.11,0-1.11-.9V60.85H34v-.74h.79V58.93l.91-.41v1.59Z"/><path class="cls-1" d="M38.41,57.85a.52.52,0,0,1,.39.17.52.52,0,0,1,.17.38.54.54,0,0,1-.17.4.51.51,0,0,1-.39.16A.53.53,0,0,1,38,58.8a.54.54,0,0,1-.16-.4A.51.51,0,0,1,38,58,.54.54,0,0,1,38.41,57.85Zm.43,2.26v5.76h-.9V60.11Z"/><path class="cls-1" d="M42.68,60a2.34,2.34,0,0,1,2,.91A3.39,3.39,0,0,1,45.27,63a3.08,3.08,0,0,1-.79,2.29,2.75,2.75,0,0,1-3.83-.2A3.33,3.33,0,0,1,40,63a3.24,3.24,0,0,1,.8-2.34A2.47,2.47,0,0,1,42.68,60Zm0,.85a1.47,1.47,0,0,0-1.24.58A2.67,2.67,0,0,0,41,63a2.36,2.36,0,0,0,.5,1.63,1.48,1.48,0,0,0,1.17.49,1.44,1.44,0,0,0,1.2-.56A2.47,2.47,0,0,0,44.3,63a2.53,2.53,0,0,0-.49-1.68A1.39,1.39,0,0,0,42.68,60.83Z"/><path class="cls-1" d="M46.55,60.11h.85v1A2.15,2.15,0,0,1,49.3,60a2,2,0,0,1,1.34.42,1.41,1.41,0,0,1,.49,1.13v4.34h-.91v-4a1.06,1.06,0,0,0-.32-.82,1.21,1.21,0,0,0-.87-.3,1.39,1.39,0,0,0-1.14.53,2.19,2.19,0,0,0-.43,1.4v3.16h-.91Z"/><path class="cls-1" d="M60,62.22H55.88v3.65h-1v-8h1v3.47H60V57.84h1v8H60Z"/><path class="cls-1" d="M64.93,60a2.33,2.33,0,0,1,2,.91A3.39,3.39,0,0,1,67.52,63a3.11,3.11,0,0,1-.78,2.29,2.77,2.77,0,0,1-3.84-.2A3.33,3.33,0,0,1,62.3,63a3.23,3.23,0,0,1,.79-2.34A2.49,2.49,0,0,1,64.93,60Zm0,.85a1.46,1.46,0,0,0-1.23.58A2.61,2.61,0,0,0,63.25,63a2.41,2.41,0,0,0,.5,1.63,1.48,1.48,0,0,0,1.17.49,1.43,1.43,0,0,0,1.2-.56A2.47,2.47,0,0,0,66.56,63a2.53,2.53,0,0,0-.5-1.68A1.39,1.39,0,0,0,64.93,60.83Z"/><path class="cls-1" d="M73.33,65.87h-.91V65a2.23,2.23,0,0,1-3.18.61,1.39,1.39,0,0,1-.5-1.12V60.11h.91v4a1.06,1.06,0,0,0,.32.8,1.21,1.21,0,0,0,.88.31A1.39,1.39,0,0,0,72,64.66a2.09,2.09,0,0,0,.43-1.4V60.11h.91Z"/><path class="cls-1" d="M79,61.69H78c0-.58-.41-.86-1.15-.86a1.7,1.7,0,0,0-.91.21.69.69,0,0,0-.33.59c0,.38.36.65,1.07.81l.88.2a2.8,2.8,0,0,1,1.25.57,1.37,1.37,0,0,1,.38,1,1.53,1.53,0,0,1-.64,1.3,2.89,2.89,0,0,1-1.73.47,2.56,2.56,0,0,1-1.8-.56,1.65,1.65,0,0,1-.55-1.22h1a1.26,1.26,0,0,0,.25.57,1.43,1.43,0,0,0,1.13.36,1.84,1.84,0,0,0,1-.23.69.69,0,0,0,.37-.61c0-.38-.3-.64-.89-.78l-.86-.21a3.37,3.37,0,0,1-1.38-.56,1.29,1.29,0,0,1-.45-1.06,1.5,1.5,0,0,1,.6-1.25A2.63,2.63,0,0,1,76.87,60a2.38,2.38,0,0,1,1.64.53A1.55,1.55,0,0,1,79,61.69Z"/><path class="cls-1" d="M85.29,63.26H81a2.11,2.11,0,0,0,.31,1.17,1.57,1.57,0,0,0,1.39.71,1.5,1.5,0,0,0,1.52-1.06h.92a2.31,2.31,0,0,1-.83,1.41,2.58,2.58,0,0,1-1.64.5,2.42,2.42,0,0,1-2-.89A3.3,3.3,0,0,1,80.09,63a3.24,3.24,0,0,1,.8-2.32A2.45,2.45,0,0,1,82.72,60a2.64,2.64,0,0,1,1.44.4,2.17,2.17,0,0,1,.89,1.07,4.93,4.93,0,0,1,.24,1.77Zm-1-.75a1.72,1.72,0,0,0-.44-1.22,1.51,1.51,0,0,0-1.14-.46,1.55,1.55,0,0,0-1.15.45,1.92,1.92,0,0,0-.5,1.23Z"/><path class="cls-1" d="M19.37,39.49v1.77H17.44V39.48Zm0-14.12-.25,11.41H17.77L17.6,25.36Zm2.9,14.29V36.59H24l0,3.07a3.49,3.49,0,0,0,3.47,3.5h.38a3.49,3.49,0,0,0,3.5-3.47l0-4.52h-.64V33.43H33.1l0,6.27a5.24,5.24,0,0,1-5.25,5.21h-.37A5.25,5.25,0,0,1,22.24,39.66ZM27.73,30l1.41,1.42-1.42,1.45-1.45-1.46Z"/><text class="cls-2" transform="translate(10.19 16.17) rotate(0.26)">َ</text><path class="cls-1" d="M41.33,39.62V36.7A2.38,2.38,0,0,0,39,34.29H36.63V32.53H39a4.15,4.15,0,0,1,4.11,4.17l0,3.77-.87.88-6.7,0V39.59Zm9.25-1.26.05-9.76H50V26.86h2.41l-.05,11.49a1.3,1.3,0,0,0,1.29,1.31h1.31v1.74h-1.3A3.07,3.07,0,0,1,50.58,38.36Zm11.27,3.09h-1.3a3.06,3.06,0,0,1-2.18-.94,3.05,3.05,0,0,1-2.19.92H54.46c-.64,0-1.13-.38-1.13-.89s.49-.86,1.13-.85h1.72a1.31,1.31,0,0,0,1.33-1.29l0-4h-.66V32.63h2.4l0,5.76a1.3,1.3,0,0,0,1.29,1.3h1.31ZM56.49,29.73,58,28.33l1.4,1.42L57.94,31.2Zm17.84,8.36v.38a3.06,3.06,0,0,1-3.06,3l-10.52,0c-.64,0-1.13-.38-1.13-.89s.49-.86,1.13-.85h2.17V37.18A3.07,3.07,0,0,1,66,34.12h1.9v-.22a1.33,1.33,0,0,0-1.3-1.31h-.88V30.86h.88a3.07,3.07,0,0,1,2.84,2A5.24,5.24,0,0,1,74.33,38.09Zm-6.47,1.65,0-3.86H66a1.32,1.32,0,0,0-1.31,1.32v2.53Zm1.77-5.11,0,5.12h1.68a1.31,1.31,0,0,0,1.31-1.29v-.38A3.49,3.49,0,0,0,69.63,34.63Z"/><path class="cls-3" d="M5,49a1.71,1.71,0,0,1-.17.56c-.06.15-.11.27-.14.37a1.89,1.89,0,0,0-.06.21c-.06.35-.11.73-.17,1.14s-.11.84-.16,1.31c0,.13,0,.24,0,.33s0,.17,0,.23,0,.12,0,.19l0,.23c0,.09,0,.16,0,.23a1.15,1.15,0,0,0,0,.19.32.32,0,0,0,0,.16.35.35,0,0,1,.06.17c0,.11-.07.21-.22.31a.81.81,0,0,1-.2.11.83.83,0,0,1-.18.05.33.33,0,0,1-.21-.06.93.93,0,0,1-.14-.22.6.6,0,0,1-.06-.23c0-.19,0-.37,0-.56s0-.38,0-.57.06-.4.09-.64.08-.51.13-.8.07-.4.11-.57.06-.35.1-.51.07-.35.11-.55.08-.43.13-.68c0-.09,0-.17,0-.23s0-.11,0-.15a1.37,1.37,0,0,1,0-.16c0-.07,0-.16.06-.26a.27.27,0,0,1,0-.12.54.54,0,0,1,.07-.13l.09-.11a.19.19,0,0,1,.1,0,.51.51,0,0,1,.2,0,.83.83,0,0,1,.18.13.68.68,0,0,1,.13.18.54.54,0,0,1,0,.22.53.53,0,0,1,0,.12Z"/><path class="cls-3" d="M10.14,50.68a.3.3,0,0,1-.05.2A.32.32,0,0,1,10,51a.42.42,0,0,1-.16,0l-.15,0-.76.06-.71.06-.53.07c-.14,0-.21,0-.21,0l-.08.32c0,.12-.06.26-.1.41s-.07.3-.11.45l-.09.45c0,.14-.05.26-.07.38a1.57,1.57,0,0,0,0,.27c0,.06,0,.14,0,.23a1,1,0,0,0,.07.25.51.51,0,0,0,.15.21.35.35,0,0,0,.26.08.53.53,0,0,0,.23-.05l.3-.16a2.39,2.39,0,0,0,.33-.25,3.28,3.28,0,0,0,.34-.31l.19-.16a.37.37,0,0,1,.21-.08c.11,0,.17.05.17.16a.4.4,0,0,1,0,.15.55.55,0,0,1-.08.15l-.1.14-.13.16-.13.15-.21.19a3.2,3.2,0,0,1-.27.22,1.69,1.69,0,0,1-.32.19,2.07,2.07,0,0,1-.34.15,1.49,1.49,0,0,1-.36,0A1.13,1.13,0,0,1,6.82,55a.88.88,0,0,1-.29-.2,1.05,1.05,0,0,1-.17-.29,1.81,1.81,0,0,1-.09-.31c0-.11,0-.21,0-.32a2.54,2.54,0,0,1,0-.26,2.23,2.23,0,0,1,0-.33c0-.12,0-.26.07-.4l.09-.43A4,4,0,0,0,6.52,52c0-.14.05-.26.07-.37a1.58,1.58,0,0,0,0-.26.07.07,0,0,0-.06-.07H6.42l-.21,0H6l-.15,0a.36.36,0,0,1-.12-.08.27.27,0,0,1-.09-.12.34.34,0,0,1,0-.18.21.21,0,0,1,.08-.19.25.25,0,0,1,.17-.06H6.86a.26.26,0,0,0,.06-.09s.06-.12.1-.2l.11-.27.12-.32c0-.11.07-.23.11-.34s.07-.22.1-.31a1,1,0,0,1,.18-.35.4.4,0,0,1,.26-.1.29.29,0,0,1,.17,0,.33.33,0,0,1,.11.09.34.34,0,0,1,.06.12.5.5,0,0,1,0,.12l0,.1-.08.22-.1.29L7.93,50c0,.11-.07.22-.11.32s-.07.18-.09.26l.7-.06.49,0,.35,0h.27l.31,0a.74.74,0,0,1,.19,0,.15.15,0,0,1,.08.08A.25.25,0,0,1,10.14,50.68Z"/><path class="cls-3" d="M18.49,49.12a.93.93,0,0,1,0,.14,1,1,0,0,1,0,.17,1.09,1.09,0,0,1-.05.17.62.62,0,0,1-.08.12.49.49,0,0,1-.38.13,1.52,1.52,0,0,0-.08-.51.36.36,0,0,0-.15-.15,1,1,0,0,0-.23-.11L17.2,49,17,49h-.41l-.38,0-.39.08a2.75,2.75,0,0,0-.4.14l-.33.15a1.77,1.77,0,0,0-.32.21,1.48,1.48,0,0,0-.25.25.79.79,0,0,0-.14.31.57.57,0,0,0,.08.28,1.08,1.08,0,0,0,.23.31,1.87,1.87,0,0,0,.33.28,1.7,1.7,0,0,0,.39.18l.17.06.28.09.27.09.16.05a4.54,4.54,0,0,1,1.49.61,1,1,0,0,1,.49.87.71.71,0,0,1-.07.32,1.23,1.23,0,0,1-.19.31,1.61,1.61,0,0,1-.24.28,2.25,2.25,0,0,1-.24.21,2.43,2.43,0,0,1-.29.21l-.35.21-.39.19-.4.16-.42.12c-.15,0-.29.07-.44.09l-.41.07-.35,0-.3,0a2.22,2.22,0,0,1-.37-.09,1.2,1.2,0,0,1-.3-.15c-.09-.05-.13-.11-.13-.17a.78.78,0,0,1,0-.14,1,1,0,0,1,0-.17.4.4,0,0,1,.07-.13.1.1,0,0,1,.09-.06.57.57,0,0,1,.18,0l.23.06a1.8,1.8,0,0,0,.31.07,2.68,2.68,0,0,0,.44,0,2.72,2.72,0,0,0,.55-.06,5.12,5.12,0,0,0,.56-.15,4.87,4.87,0,0,0,.53-.21,3.14,3.14,0,0,0,.45-.25l.21-.14.21-.18a1.46,1.46,0,0,0,.16-.21.41.41,0,0,0,.07-.23c0-.12-.09-.22-.25-.33a2,2,0,0,0-.5-.23l-.46-.14-.55-.16-.66-.25a2.6,2.6,0,0,1-1-.67,1.54,1.54,0,0,1-.41-1.07.88.88,0,0,1,.18-.57,2.15,2.15,0,0,1,.5-.5,4.32,4.32,0,0,1,.74-.41,4.87,4.87,0,0,1,.84-.28l.22,0,.26,0,.26,0h.22l.27,0,.33,0,.32.07a.66.66,0,0,1,.25.09,1.18,1.18,0,0,1,.36.29A.58.58,0,0,1,18.49,49.12Z"/><path class="cls-3" d="M27.42,51.84a.67.67,0,0,1-.13.3,1.55,1.55,0,0,1-.13.17l-.15.2-.17.19-.14.15a6.39,6.39,0,0,1-.54.5,5.59,5.59,0,0,1-.6.43,3.42,3.42,0,0,1-.64.31,2.62,2.62,0,0,1-.68.12,1.15,1.15,0,0,1-.46-.1.76.76,0,0,1-.32-.32,2,2,0,0,1-.17-.49,4.71,4.71,0,0,1-.09-.58s0-.08,0-.14a1.8,1.8,0,0,0,0-.22,1,1,0,0,0,0-.24,1.57,1.57,0,0,0,0-.23.69.69,0,0,0-.05-.17s0-.06-.06-.06a.74.74,0,0,0-.38.18,5.58,5.58,0,0,0-.52.49,8.49,8.49,0,0,0-.59.68c-.19.25-.38.5-.55.77s-.29.45-.41.67-.23.43-.32.6a.8.8,0,0,1-.16.16l-.12,0a.32.32,0,0,1-.14,0,.42.42,0,0,1-.14-.09.4.4,0,0,1-.1-.12.31.31,0,0,1,0-.13.8.8,0,0,1,0-.19c0-.09,0-.19,0-.3l.06-.34c0-.11,0-.22,0-.32s.05-.41.07-.65.05-.47.08-.71l.06-.7c0-.22,0-.43.05-.61s0-.14,0-.24,0-.2,0-.32,0-.24,0-.37,0-.26,0-.38,0-.24,0-.35a2.1,2.1,0,0,1,0-.27,1.62,1.62,0,0,1,0-.23l0-.22.06-.2c0-.07.06-.15.1-.23a.41.41,0,0,1,.05-.09l.1-.09A.41.41,0,0,1,20.5,48a.27.27,0,0,1,.12,0,.37.37,0,0,1,.23.1.4.4,0,0,1,.11.29,1,1,0,0,1,0,.15c0,.07,0,.14-.05.21l-.05.2a.5.5,0,0,0,0,.14,3.66,3.66,0,0,0-.07.42c0,.15,0,.31,0,.48s0,.32,0,.48,0,.3,0,.42,0,.28,0,.4,0,.25,0,.38,0,.24,0,.37,0,.26,0,.41,0,.41-.07.58a2.35,2.35,0,0,0,0,.42.13.13,0,0,0,0,.07l.05,0h0a1,1,0,0,0,.1-.14l.14-.22.17-.24a2.29,2.29,0,0,1,.17-.23l.19-.24.2-.25.23-.26a2.61,2.61,0,0,1,.22-.24l.3-.29a3.07,3.07,0,0,1,.36-.27,1.53,1.53,0,0,1,.37-.21.93.93,0,0,1,.35-.08l.09,0,.1.05.09.08a.41.41,0,0,1,.07.11,2.85,2.85,0,0,1,.13.48c0,.16.05.33.07.51l.06.46A2.66,2.66,0,0,0,24,53a1.19,1.19,0,0,0,.12.32.24.24,0,0,0,.2.12,2.38,2.38,0,0,0,1.05-.24l.46-.25a3.27,3.27,0,0,0,.36-.25l.33-.28.38-.36a1.83,1.83,0,0,1,.51-.4S27.42,51.72,27.42,51.84Z"/><path class="cls-3" d="M32.77,51.06a.78.78,0,0,1-.07.22,4.13,4.13,0,0,1-.18.44,5.3,5.3,0,0,1-.3.57c-.12.21-.25.41-.39.61s-.36.45-.53.64a4.82,4.82,0,0,1-.5.45,2.5,2.5,0,0,1-.44.27.86.86,0,0,1-.35.09.88.88,0,0,1-.39-.07.64.64,0,0,1-.25-.21,1,1,0,0,1-.16-.36c0-.14-.08-.31-.12-.5H29a6.64,6.64,0,0,1-.41.56,4.32,4.32,0,0,1-.45.5,2.61,2.61,0,0,1-.49.35,1,1,0,0,1-.5.14.71.71,0,0,1-.27,0,.94.94,0,0,1-.26-.14.86.86,0,0,1-.2-.26.92.92,0,0,1-.08-.38,2.68,2.68,0,0,1,.05-.45c0-.17.08-.34.13-.52s.12-.37.19-.56.15-.36.24-.52a4.6,4.6,0,0,1,.24-.45,2.87,2.87,0,0,1,.24-.33,3,3,0,0,1,.32-.28,2.7,2.7,0,0,1,.39-.27,2.46,2.46,0,0,1,.47-.2,1.82,1.82,0,0,1,.52-.08.41.41,0,0,1,.34.15,1,1,0,0,1,.15.44l0,.06.06.08.06.09a.16.16,0,0,1,0,.09.74.74,0,0,1,0,.18l-.06.24a1.91,1.91,0,0,0-.07.28,1.66,1.66,0,0,0,0,.32v.5a2.44,2.44,0,0,0,.05.48.79.79,0,0,0,.16.36.35.35,0,0,0,.31.15.51.51,0,0,0,.26-.09,2,2,0,0,0,.33-.25,4.52,4.52,0,0,0,.38-.38l.4-.49a5.46,5.46,0,0,0,.42-.6l.31-.54.23-.38c.06-.09.11-.14.16-.14h0a.12.12,0,0,1,.1,0,.18.18,0,0,1,0,.11v.09Zm-3.61.2a.26.26,0,0,0,0-.1l-.08-.1L28.92,51l-.11,0a.75.75,0,0,0-.26,0,1.51,1.51,0,0,0-.22.11l-.19.16-.15.18a4.82,4.82,0,0,0-.33.5,5.92,5.92,0,0,0-.3.62,5.39,5.39,0,0,0-.22.64,2.09,2.09,0,0,0-.09.56.28.28,0,0,0,.11.21.49.49,0,0,0,.3.09.54.54,0,0,0,.26-.09A2.25,2.25,0,0,0,28,53.7a2.91,2.91,0,0,0,.32-.36,3.71,3.71,0,0,0,.28-.41,5.33,5.33,0,0,0,.37-.81A2.43,2.43,0,0,0,29.16,51.26Z"/><path class="cls-3" d="M36.4,51.79a.63.63,0,0,1-.09.23q-.09.16-.24.39c-.1.15-.22.31-.36.49s-.29.36-.46.54-.33.35-.51.52-.37.31-.55.44a3.37,3.37,0,0,1-.54.31,1.25,1.25,0,0,1-.52.11,1,1,0,0,1-.53-.12.82.82,0,0,1-.32-.32,1.27,1.27,0,0,1-.16-.45,3.08,3.08,0,0,1,0-.53c0-.11,0-.27,0-.48s0-.45.08-.72.07-.56.12-.87.1-.62.17-.92.14-.6.22-.88a7.2,7.2,0,0,1,.26-.75,2,2,0,0,1,.32-.51.48.48,0,0,1,.36-.2s.08,0,.11.09a1,1,0,0,1,0,.29l0,.11c0,.08-.06.18-.09.29s-.08.24-.12.37-.09.27-.13.39l-.1.32a.75.75,0,0,1,0,.16,14.66,14.66,0,0,0-.38,1.66,9.34,9.34,0,0,0-.14,1.52,1.25,1.25,0,0,0,.05.36.68.68,0,0,0,.13.24.53.53,0,0,0,.2.13.59.59,0,0,0,.23,0,1,1,0,0,0,.38-.09,2.76,2.76,0,0,0,.44-.24,4.49,4.49,0,0,0,.46-.36c.15-.13.31-.28.46-.43s.3-.3.44-.46l.39-.45.1-.11.12-.1.11-.08.09,0C36.38,51.7,36.4,51.73,36.4,51.79Z"/><path class="cls-3" d="M39.42,53a.34.34,0,0,1,0,.15,2.12,2.12,0,0,1-.11.21c0,.08-.09.15-.13.22l-.12.18a3.45,3.45,0,0,1-.42.44,3.56,3.56,0,0,1-.48.39,2.86,2.86,0,0,1-.52.27,1.26,1.26,0,0,1-.49.1,1.32,1.32,0,0,1-.62-.14,1.23,1.23,0,0,1-.43-.42,2,2,0,0,1-.24-.67,4.32,4.32,0,0,1-.08-.92c0-.21,0-.45,0-.7s.05-.52.08-.79.07-.54.11-.82.1-.54.15-.79.11-.49.17-.72.12-.41.18-.57a1.74,1.74,0,0,1,.2-.39c.06-.1.12-.14.18-.14A.23.23,0,0,1,37,48a.59.59,0,0,1,.13.19,10,10,0,0,1-.18,1c-.09.42-.2.9-.33,1.46l-.09.49-.06.5c0,.17,0,.34,0,.5s0,.32,0,.47a2.87,2.87,0,0,0,.2,1.19.7.7,0,0,0,.68.42,1.17,1.17,0,0,0,.45-.09,2.49,2.49,0,0,0,.43-.22,3.57,3.57,0,0,0,.38-.3c.12-.11.24-.21.34-.32l.12-.12.13-.15.12-.12.07,0S39.42,52.88,39.42,53Z"/><path class="cls-3" d="M49.16,52.66a.37.37,0,0,1,0,.15A1,1,0,0,1,49,53l-.16.15-.16.13-.16.1-.25.16-.32.19-.35.21-.33.18-.26.14-.53.25-.43.2-.39.18c-.14.06-.28.12-.43.2s-.25.14-.37.21a2.88,2.88,0,0,1-.38.22.43.43,0,0,1-.17.06l-.19,0-.2,0a.43.43,0,0,1-.16,0,.54.54,0,0,1-.19,0,.4.4,0,0,1-.13-.07.64.64,0,0,1-.1-.13,1.45,1.45,0,0,1-.06-.19.3.3,0,0,0,0-.08l-.07-.07L43.08,55a.37.37,0,0,1,0-.11s0-.11-.05-.17a1.49,1.49,0,0,1,0-.21c0-.07,0-.14,0-.2v-1c.05-.57.11-1.13.19-1.7a15.9,15.9,0,0,1,.33-1.67c0-.11.06-.23.1-.35s.08-.25.12-.36l.11-.29a1.28,1.28,0,0,0,.07-.16,1.18,1.18,0,0,1,.2-.32.27.27,0,0,1,.22-.1.29.29,0,0,1,.21.08.37.37,0,0,1,.1.16.58.58,0,0,1,0,.19c0,.06,0,.11,0,.16a2.21,2.21,0,0,1-.11.52c-.06.2-.12.4-.2.6l-.24.6a5,5,0,0,0-.19.54,2.07,2.07,0,0,1-.06.24l-.06.33c0,.12,0,.23,0,.34s0,.21,0,.29a1.21,1.21,0,0,1,0,.18l0,.23c0,.08,0,.16,0,.23a.54.54,0,0,0,0,.18,10.07,10.07,0,0,1,.72-.85,6.72,6.72,0,0,1,.75-.69,4.09,4.09,0,0,1,.7-.45,1.29,1.29,0,0,1,.59-.14.84.84,0,0,1,.3.12,1,1,0,0,1,.3.31.75.75,0,0,1,.09.29,2.51,2.51,0,0,1,0,.39,1.35,1.35,0,0,1-.07.27,3.23,3.23,0,0,1-.15.34l-.2.36-.22.35-.2.31c-.07.09-.12.17-.16.23l.47-.2c.17-.08.34-.16.51-.26s.36-.18.54-.29l.51-.29.47-.28.4-.23c.06-.05.1-.06.14,0A.24.24,0,0,1,49.16,52.66ZM46.45,52a.31.31,0,0,0,0-.08.3.3,0,0,0,0-.1.2.2,0,0,0-.09-.09.18.18,0,0,0-.13,0,.49.49,0,0,0-.23.06l-.31.17-.31.2-.21.16-.17.15c-.06.07-.13.13-.2.2l-.21.22-.2.22-.16.19c0,.06-.08.1-.1.14l-.13.25c0,.09-.1.18-.14.27a1.78,1.78,0,0,0-.12.29,1.88,1.88,0,0,0-.06.31v.09a.92.92,0,0,0,0,.16s0,.1,0,.14,0,.06,0,.06a.56.56,0,0,0,.21,0l.28-.1.32-.14a3.37,3.37,0,0,0,.32-.19,1.49,1.49,0,0,0,.28-.23,2.26,2.26,0,0,0,.25-.28,3.65,3.65,0,0,0,.24-.31l.23-.31c.09-.13.18-.25.25-.37s.14-.25.2-.37a3,3,0,0,0,.13-.35A1.28,1.28,0,0,0,46.45,52Z"/><path class="cls-3" d="M53,52.55a.68.68,0,0,1-.11.34,3.29,3.29,0,0,1-.33.41,4.2,4.2,0,0,1-.54.48,5.48,5.48,0,0,1-.6.38,4.19,4.19,0,0,1-.63.26,2.32,2.32,0,0,1-.62.09,1.33,1.33,0,0,1-1.08-.45,2,2,0,0,1-.38-1.32,3.6,3.6,0,0,1,0-.56,5.12,5.12,0,0,1,.15-.56,3,3,0,0,1,.24-.55,3.91,3.91,0,0,1,.34-.49l.26-.28a2,2,0,0,1,.33-.25,1.5,1.5,0,0,1,.38-.19,1.77,1.77,0,0,1,.46-.07.79.79,0,0,1,.32.07.76.76,0,0,1,.24.18.75.75,0,0,1,.2.5,1.15,1.15,0,0,1-.14.55,2.82,2.82,0,0,1-.42.56,4.39,4.39,0,0,1-.63.56q-.37.28-.84.57l-.12.07a.14.14,0,0,0-.06.11,1.41,1.41,0,0,0,0,.28,1.11,1.11,0,0,0,.13.27.71.71,0,0,0,.25.2,1,1,0,0,0,.4.08,2.43,2.43,0,0,0,.64-.1,3.47,3.47,0,0,0,.63-.28,5.46,5.46,0,0,0,.6-.42,5.39,5.39,0,0,0,.54-.53c.1-.1.17-.16.23-.16a.07.07,0,0,1,.07.06A.47.47,0,0,1,53,52.55Zm-2.06-1.89a.12.12,0,0,0,0-.09.13.13,0,0,0-.06-.07l-.08,0-.07,0a.72.72,0,0,0-.4.14,1.8,1.8,0,0,0-.39.39,3.25,3.25,0,0,0-.31.59,3.48,3.48,0,0,0-.18.74l.17-.11.22-.17.23-.18.21-.18a3.77,3.77,0,0,0,.34-.3,2,2,0,0,0,.21-.25.8.8,0,0,0,.11-.23A.78.78,0,0,0,50.92,50.66Z"/><path class="cls-3" d="M64.05,51.7a.54.54,0,0,1,0,.21,4.09,4.09,0,0,1-.45.6l-.36.4-.41.39-.41.36c-.13.11-.26.2-.39.29a1.23,1.23,0,0,1-.61.26.46.46,0,0,1-.22-.07.9.9,0,0,1-.45-.47,2.79,2.79,0,0,1-.22-.71,8.47,8.47,0,0,1-.12-.84A6.74,6.74,0,0,1,58.92,54a2.71,2.71,0,0,1-1.84.81.42.42,0,0,1-.39-.28,1.15,1.15,0,0,1-.14-.57,2.2,2.2,0,0,1,.06-.6A9.36,9.36,0,0,1,57,52.26a6.22,6.22,0,0,1,.59-1,5.89,5.89,0,0,1,.52-.62,2.09,2.09,0,0,1,.55-.45,2,2,0,0,1,.92-.17.41.41,0,0,1,.35.23,1.66,1.66,0,0,1,.23.54,2.25,2.25,0,0,1,.07.5,3.17,3.17,0,0,0,.12-.44,3.4,3.4,0,0,0,.09-.46c0-.16.06-.33.08-.51s0-.36.06-.56a1.83,1.83,0,0,1,0-.21c0-.08,0-.18,0-.29s0-.43.05-.59a.86.86,0,0,1,.07-.3.39.39,0,0,1,.38-.19.65.65,0,0,1,.26.06c.09,0,.14.09.14.15s0,.09,0,.17,0,.19-.06.32-.06.28-.1.47-.08.41-.13.67c0,0,0,.09,0,.18s0,.18,0,.28,0,.19,0,.28,0,.13,0,.16c0,.24-.07.46-.09.67s0,.42,0,.64,0,.38,0,.61,0,.47.06.69.09.33.16.33a1.72,1.72,0,0,0,.88-.33,7.87,7.87,0,0,0,1-.78c.31-.29.59-.56.84-.83l0,0s0,0,.06.07A.77.77,0,0,1,64.05,51.7ZM59.91,52a.29.29,0,0,1-.18-.12.36.36,0,0,1-.06-.2,1.58,1.58,0,0,1,0-.26,1.53,1.53,0,0,0,0-.27.45.45,0,0,0,0-.18.72.72,0,0,0-.11-.19.67.67,0,0,0-.15-.14.25.25,0,0,0-.16-.06c-.15,0-.37.16-.64.49-.13.17-.26.33-.37.49s-.22.3-.32.45l-.26.45-.18.37a2.21,2.21,0,0,0-.27.89c0,.27.1.41.28.41a1.43,1.43,0,0,0,.69-.29,4.59,4.59,0,0,0,.69-.55l.42-.45.27-.29.18-.25Z"/><path class="cls-3" d="M69.56,50.84a.3.3,0,0,1,0,.17,1.1,1.1,0,0,1-.14.18,1,1,0,0,1-.19.17,1.46,1.46,0,0,1-.21.16l-.2.13-.16.09a1.53,1.53,0,0,1-.31.08l-.39.07-.4,0H67l-.2,0-.18-.06a.32.32,0,0,1-.13-.07c0,.12,0,.23.07.34a2.19,2.19,0,0,1,0,.36,1.34,1.34,0,0,1,0,.19l-.06.24-.07.22a1.5,1.5,0,0,1-.09.18,3.17,3.17,0,0,1-.23.36,3.83,3.83,0,0,1-.28.29,3,3,0,0,1-.34.26,3.61,3.61,0,0,1-.44.23,2.21,2.21,0,0,1-.54.16,3.33,3.33,0,0,1-.56.05.52.52,0,0,1-.32-.11.73.73,0,0,1-.24-.28,1.3,1.3,0,0,1-.15-.42,2.63,2.63,0,0,1,0-.49,1.09,1.09,0,0,1,0-.17l0-.2c0-.07,0-.13,0-.19a1,1,0,0,1,.05-.16,2.85,2.85,0,0,1,.18-.43,3.45,3.45,0,0,1,.27-.49,5.36,5.36,0,0,1,.34-.49,3.44,3.44,0,0,1,.4-.44,1.72,1.72,0,0,1,.44-.3,1,1,0,0,1,.45-.12l.12,0a.28.28,0,0,1,.08.06.16.16,0,0,1,.06.08l.07.08s0,0,0,0l.09,0,.12,0a.37.37,0,0,1,.2.11,2.84,2.84,0,0,1,.26.24l.27.24a.48.48,0,0,0,.25.11h.25l.28,0,.28,0,.26,0,.14,0,.27-.07.33-.09.32-.09a1.53,1.53,0,0,1,.24-.07l.1,0h.05S69.56,50.82,69.56,50.84Zm-3.46.71a.55.55,0,0,0-.11-.17.8.8,0,0,0-.17-.15.91.91,0,0,0-.22-.11.52.52,0,0,0-.21,0l-.15,0-.15.07-.14.1-.12.09a1.56,1.56,0,0,0-.33.41,3.77,3.77,0,0,0-.28.57A4.76,4.76,0,0,0,64,53a2.2,2.2,0,0,0-.07.52.58.58,0,0,0,0,.19.62.62,0,0,0,.1.16.33.33,0,0,0,.15.11.35.35,0,0,0,.18,0,1.39,1.39,0,0,0,.5-.1,1.49,1.49,0,0,0,.41-.26,1.82,1.82,0,0,0,.32-.4,2.1,2.1,0,0,0,.24-.5,2.65,2.65,0,0,0,.15-.57A3.93,3.93,0,0,0,66.1,51.55Z"/><path class="cls-3" d="M76.3,52.28h0s0,0,0,.06a.39.39,0,0,1,0,.13.71.71,0,0,1-.08.18.94.94,0,0,1-.12.18A.91.91,0,0,1,76,53a3.76,3.76,0,0,1-.46.32,3.71,3.71,0,0,1-.53.26,3.43,3.43,0,0,1-.57.17,2.32,2.32,0,0,1-.59.07,1.6,1.6,0,0,1-.56-.1,1.31,1.31,0,0,1-.41-.26,1.64,1.64,0,0,1-.29-.36,2.6,2.6,0,0,1-.19-.42,3.31,3.31,0,0,1-.12-.42c0-.14-.06-.26-.08-.36a1.2,1.2,0,0,0,0-.26c0-.07,0-.1-.05-.1a.31.31,0,0,0-.22.13,3.78,3.78,0,0,0-.24.32c-.08.14-.16.3-.25.47l-.28.53-.3.54a4.13,4.13,0,0,1-.32.46,1.74,1.74,0,0,1-.34.33.65.65,0,0,1-.37.12.36.36,0,0,1-.3-.14,1.06,1.06,0,0,1-.17-.37,2.38,2.38,0,0,1-.08-.5,5.24,5.24,0,0,1,0-.56c0-.16,0-.31,0-.46v-.48s0-.06,0-.09v-.17a1,1,0,0,1,0-.3,1,1,0,0,1,.1-.26.66.66,0,0,1,.14-.18.21.21,0,0,1,.15-.07.39.39,0,0,1,.15,0,.26.26,0,0,1,.13.08,1.31,1.31,0,0,1,.09.17,1.14,1.14,0,0,1,0,.28c0,.14,0,.29,0,.47s0,.35,0,.53,0,.35-.05.51a3,3,0,0,0,0,.4c0,.14,0,.22,0,.22a.39.39,0,0,0,.22-.1,1.48,1.48,0,0,0,.21-.26,3.36,3.36,0,0,0,.23-.39c.07-.14.15-.29.22-.46s.27-.56.39-.79a3.21,3.21,0,0,1,.38-.56,1.18,1.18,0,0,1,1-.44.16.16,0,0,1,.09,0l.07.09s0,.08,0,.13a.57.57,0,0,1,0,.13c0,.26,0,.49,0,.7a2.84,2.84,0,0,0,.1.55,1.41,1.41,0,0,0,.17.41,1,1,0,0,0,.26.29l.16.09.22.07.25,0,.23,0,.31,0,.41-.08.44-.15a3.42,3.42,0,0,0,.43-.21l.12-.07.12-.07.15-.09Z"/><path class="cls-3" d="M80.08,52.55a.68.68,0,0,1-.11.34,3.29,3.29,0,0,1-.33.41,6.17,6.17,0,0,1-.54.48,6.64,6.64,0,0,1-.6.38,3.9,3.9,0,0,1-.64.26,2.2,2.2,0,0,1-.61.09,1.33,1.33,0,0,1-1.08-.45,2,2,0,0,1-.39-1.32,3.64,3.64,0,0,1,0-.56,3.56,3.56,0,0,1,.15-.56,3,3,0,0,1,.24-.55,3.82,3.82,0,0,1,.33-.49l.27-.28a2.51,2.51,0,0,1,.32-.25,1.76,1.76,0,0,1,.39-.19,1.7,1.7,0,0,1,.46-.07.79.79,0,0,1,.32.07.76.76,0,0,1,.24.18.75.75,0,0,1,.2.5,1.28,1.28,0,0,1-.14.55,2.82,2.82,0,0,1-.42.56,4,4,0,0,1-.64.56,9.94,9.94,0,0,1-.83.57l-.12.07a.14.14,0,0,0-.06.11,1.41,1.41,0,0,0,0,.28.84.84,0,0,0,.13.27.71.71,0,0,0,.25.2,1,1,0,0,0,.4.08,2.43,2.43,0,0,0,.64-.1,3.47,3.47,0,0,0,.63-.28,5.46,5.46,0,0,0,.6-.42,5.39,5.39,0,0,0,.54-.53c.1-.1.17-.16.23-.16s.05,0,.07.06A.78.78,0,0,1,80.08,52.55ZM78,50.66a.12.12,0,0,0,0-.09s0,0-.06-.07l-.08,0-.07,0a.72.72,0,0,0-.4.14A1.8,1.8,0,0,0,77,51a2.72,2.72,0,0,0-.31.59,3,3,0,0,0-.18.74l.16-.11.22-.17.24-.18.21-.18a3.77,3.77,0,0,0,.34-.3,2,2,0,0,0,.21-.25.8.8,0,0,0,.11-.23A.78.78,0,0,0,78,50.66Z"/><path class="cls-3" d="M81.3,53.87a3.41,3.41,0,0,1-.06.4c0,.08-.09.17-.22.27a.58.58,0,0,1-.32.13c-.22,0-.33-.14-.33-.43a.71.71,0,0,1,.16-.4c.11-.16.22-.23.32-.23a.23.23,0,0,1,.13,0l.15.07.12.09A.1.1,0,0,1,81.3,53.87Zm.8-5.42a2,2,0,0,1-.07.39c0,.1,0,.21-.07.32s0,.22-.08.33c-.09.41-.18.82-.27,1.21s-.16.79-.21,1.19c0,.07,0,.13,0,.19v.17s0,.11,0,.15a.47.47,0,0,1-.06.15h-.13l-.18,0a.51.51,0,0,1-.26-.09.22.22,0,0,1,0-.09v-.14a2,2,0,0,1,0-.48c0-.17,0-.35.08-.53l.12-.54c0-.19.08-.37.11-.55s.06-.35.09-.52a2.72,2.72,0,0,0,0-.49,3,3,0,0,1,0-.32,1.38,1.38,0,0,1,.09-.3l.08-.1.13-.1a.43.43,0,0,1,.25-.12.36.36,0,0,1,.22.1A.26.26,0,0,1,82.1,48.45Z"/></g></g></svg>