<svg xmlns="http://www.w3.org/2000/svg" viewBox="0 0 56.58 174.06"><defs><style>.cls-1{fill:#e93e65;}</style></defs><g id="Layer_2" data-name="Layer 2"><g id="Layer_1-2" data-name="Layer 1"><circle class="cls-1" cx="1.14" cy="122.83" r="1.14"/><circle class="cls-1" cx="1.14" cy="132.85" r="1.14"/><circle class="cls-1" cx="1.14" cy="142.87" r="1.14"/><circle class="cls-1" cx="1.14" cy="152.88" r="1.14"/><circle class="cls-1" cx="1.14" cy="162.9" r="1.14"/><circle class="cls-1" cx="1.14" cy="172.92" r="1.14"/><circle class="cls-1" cx="11.92" cy="122.83" r="1.14"/><circle class="cls-1" cx="11.92" cy="132.85" r="1.14"/><circle class="cls-1" cx="11.92" cy="142.87" r="1.14"/><circle class="cls-1" cx="11.92" cy="152.88" r="1.14"/><circle class="cls-1" cx="11.92" cy="162.9" r="1.14"/><circle class="cls-1" cx="11.92" cy="172.92" r="1.14"/><circle class="cls-1" cx="22.7" cy="122.83" r="1.14"/><circle class="cls-1" cx="22.7" cy="132.85" r="1.14"/><circle class="cls-1" cx="22.7" cy="142.87" r="1.14"/><circle class="cls-1" cx="22.7" cy="152.88" r="1.14"/><circle class="cls-1" cx="22.7" cy="162.9" r="1.14"/><circle class="cls-1" cx="22.7" cy="172.92" r="1.14"/><circle class="cls-1" cx="33.48" cy="122.83" r="1.14"/><circle class="cls-1" cx="33.48" cy="132.85" r="1.14"/><circle class="cls-1" cx="33.48" cy="142.87" r="1.14"/><circle class="cls-1" cx="33.48" cy="152.88" r="1.14"/><circle class="cls-1" cx="33.48" cy="162.9" r="1.14"/><circle class="cls-1" cx="33.48" cy="172.92" r="1.14"/><circle class="cls-1" cx="44.26" cy="122.83" r="1.14"/><circle class="cls-1" cx="44.26" cy="132.85" r="1.14"/><circle class="cls-1" cx="44.26" cy="142.87" r="1.14"/><circle class="cls-1" cx="44.26" cy="152.88" r="1.14"/><circle class="cls-1" cx="44.26" cy="162.9" r="1.14"/><circle class="cls-1" cx="44.26" cy="172.92" r="1.14"/><circle class="cls-1" cx="55.04" cy="122.83" r="1.14"/><circle class="cls-1" cx="55.04" cy="132.85" r="1.14"/><circle class="cls-1" cx="55.04" cy="142.87" r="1.14"/><circle class="cls-1" cx="55.04" cy="152.88" r="1.14"/><circle class="cls-1" cx="55.04" cy="162.9" r="1.14"/><circle class="cls-1" cx="55.04" cy="172.92" r="1.14"/><circle class="cls-1" cx="1.14" cy="61.99" r="1.14"/><circle class="cls-1" cx="1.14" cy="72" r="1.14"/><circle class="cls-1" cx="1.14" cy="82.02" r="1.14"/><circle class="cls-1" cx="1.14" cy="92.04" r="1.14"/><circle class="cls-1" cx="1.14" cy="102.06" r="1.14"/><circle class="cls-1" cx="1.14" cy="112.08" r="1.14"/><circle class="cls-1" cx="11.92" cy="61.99" r="1.14"/><circle class="cls-1" cx="11.92" cy="72" r="1.14"/><circle class="cls-1" cx="11.92" cy="82.02" r="1.14"/><circle class="cls-1" cx="11.92" cy="92.04" r="1.14"/><circle class="cls-1" cx="11.92" cy="102.06" r="1.14"/><circle class="cls-1" cx="11.92" cy="112.08" r="1.14"/><circle class="cls-1" cx="22.7" cy="61.99" r="1.14"/><circle class="cls-1" cx="22.7" cy="72" r="1.14"/><circle class="cls-1" cx="22.7" cy="82.02" r="1.14"/><circle class="cls-1" cx="22.7" cy="92.04" r="1.14"/><circle class="cls-1" cx="22.7" cy="102.06" r="1.14"/><circle class="cls-1" cx="22.7" cy="112.08" r="1.14"/><circle class="cls-1" cx="33.48" cy="61.99" r="1.14"/><circle class="cls-1" cx="33.48" cy="72" r="1.14"/><circle class="cls-1" cx="33.48" cy="82.02" r="1.14"/><circle class="cls-1" cx="33.48" cy="92.04" r="1.14"/><circle class="cls-1" cx="33.48" cy="102.06" r="1.14"/><circle class="cls-1" cx="33.48" cy="112.08" r="1.14"/><circle class="cls-1" cx="44.26" cy="61.99" r="1.14"/><circle class="cls-1" cx="44.26" cy="72" r="1.14"/><circle class="cls-1" cx="44.26" cy="82.02" r="1.14"/><circle class="cls-1" cx="44.26" cy="92.04" r="1.14"/><circle class="cls-1" cx="44.26" cy="102.06" r="1.14"/><circle class="cls-1" cx="44.26" cy="112.08" r="1.14"/><circle class="cls-1" cx="55.04" cy="61.99" r="1.14"/><circle class="cls-1" cx="55.04" cy="72" r="1.14"/><circle class="cls-1" cx="55.04" cy="82.02" r="1.14"/><circle class="cls-1" cx="55.04" cy="92.04" r="1.14"/><circle class="cls-1" cx="55.04" cy="102.06" r="1.14"/><circle class="cls-1" cx="55.04" cy="112.08" r="1.14"/><circle class="cls-1" cx="1.55" cy="1.14" r="1.14"/><circle class="cls-1" cx="1.55" cy="11.16" r="1.14"/><circle class="cls-1" cx="1.55" cy="21.18" r="1.14"/><circle class="cls-1" cx="1.55" cy="31.2" r="1.14"/><circle class="cls-1" cx="1.55" cy="41.21" r="1.14"/><circle class="cls-1" cx="1.55" cy="51.23" r="1.14"/><circle class="cls-1" cx="12.33" cy="1.14" r="1.14"/><circle class="cls-1" cx="12.33" cy="11.16" r="1.14"/><circle class="cls-1" cx="12.33" cy="21.18" r="1.14"/><circle class="cls-1" cx="12.33" cy="31.2" r="1.14"/><circle class="cls-1" cx="12.33" cy="41.21" r="1.14"/><circle class="cls-1" cx="12.33" cy="51.23" r="1.14"/><circle class="cls-1" cx="23.11" cy="1.14" r="1.14"/><circle class="cls-1" cx="23.11" cy="11.16" r="1.14"/><circle class="cls-1" cx="23.11" cy="21.18" r="1.14"/><circle class="cls-1" cx="23.11" cy="31.2" r="1.14"/><circle class="cls-1" cx="23.11" cy="41.21" r="1.14"/><circle class="cls-1" cx="23.11" cy="51.23" r="1.14"/><circle class="cls-1" cx="33.88" cy="1.14" r="1.14"/><circle class="cls-1" cx="33.88" cy="11.16" r="1.14"/><circle class="cls-1" cx="33.88" cy="21.18" r="1.14"/><circle class="cls-1" cx="33.88" cy="31.2" r="1.14"/><circle class="cls-1" cx="33.88" cy="41.21" r="1.14"/><circle class="cls-1" cx="33.88" cy="51.23" r="1.14"/><circle class="cls-1" cx="44.66" cy="1.14" r="1.14"/><circle class="cls-1" cx="44.66" cy="11.16" r="1.14"/><circle class="cls-1" cx="44.66" cy="21.18" r="1.14"/><circle class="cls-1" cx="44.66" cy="31.2" r="1.14"/><circle class="cls-1" cx="44.66" cy="41.21" r="1.14"/><circle class="cls-1" cx="44.66" cy="51.23" r="1.14"/><circle class="cls-1" cx="55.44" cy="1.14" r="1.14"/><circle class="cls-1" cx="55.44" cy="11.16" r="1.14"/><circle class="cls-1" cx="55.44" cy="21.18" r="1.14"/><circle class="cls-1" cx="55.44" cy="31.2" r="1.14"/><circle class="cls-1" cx="55.44" cy="41.21" r="1.14"/><circle class="cls-1" cx="55.44" cy="51.23" r="1.14"/></g></g></svg>