<svg xmlns="http://www.w3.org/2000/svg" viewBox="0 0 139.23 104.86"><defs><style>.cls-1{fill:#e6e7e8;}.cls-2{fill:#e93e65;}</style></defs><g id="Layer_2" data-name="Layer 2"><g id="Layer_1-2" data-name="Layer 1"><path class="cls-1" d="M52.43,104.86a52.43,52.43,0,1,1,52.43-52.43A52.49,52.49,0,0,1,52.43,104.86Zm0-84.82A32.39,32.39,0,1,0,84.82,52.43,32.43,32.43,0,0,0,52.43,20Z"/><path class="cls-2" d="M133.77,91.8a1.52,1.52,0,0,1-1.1-.46l-9.14-9.14L115,90.76a1.57,1.57,0,0,1-2.2,0l-8.55-8.56-8.55,8.56a1.57,1.57,0,0,1-2.2,0L84.91,82.2l-9.14,9.14a1.55,1.55,0,0,1-2.2,0,1.57,1.57,0,0,1,0-2.2L83.81,78.9a1.57,1.57,0,0,1,2.2,0l8.56,8.56,8.55-8.56a1.57,1.57,0,0,1,2.2,0l8.55,8.56,8.56-8.56a1.57,1.57,0,0,1,2.2,0l10.24,10.24a1.57,1.57,0,0,1,0,2.2A1.54,1.54,0,0,1,133.77,91.8Z"/><polygon class="cls-2" points="134.65 66.26 134.65 69.5 131.42 69.5 131.42 70.83 134.65 70.83 134.65 74.07 135.99 74.07 135.99 70.83 139.23 70.83 139.23 69.5 135.99 69.5 135.99 66.26 134.65 66.26"/><polygon class="cls-2" points="134.65 53.65 134.65 56.88 131.42 56.88 131.42 58.22 134.65 58.22 134.65 61.45 135.99 61.45 135.99 58.22 139.23 58.22 139.23 56.88 135.99 56.88 135.99 53.65 134.65 53.65"/><polygon class="cls-2" points="134.65 41.03 134.65 44.27 131.42 44.27 131.42 45.61 134.65 45.61 134.65 48.84 135.99 48.84 135.99 45.61 139.23 45.61 139.23 44.27 135.99 44.27 135.99 41.03 134.65 41.03"/><polygon class="cls-2" points="134.65 28.42 134.65 31.66 131.42 31.66 131.42 32.99 134.65 32.99 134.65 36.23 135.99 36.23 135.99 32.99 139.23 32.99 139.23 31.66 135.99 31.66 135.99 28.42 134.65 28.42"/></g></g></svg>