<svg xmlns="http://www.w3.org/2000/svg" viewBox="0 0 55.05 99.51"><defs><style>.cls-1{fill:#241429;}</style></defs><g id="Layer_2" data-name="Layer 2"><g id="Layer_1-2" data-name="Layer 1"><path class="cls-1" d="M8.81,67.93H0V38.22H8.81a14.86,14.86,0,0,1,0,29.71ZM5.52,62.41H8.81a9.34,9.34,0,0,0,0-18.67H5.52Z"/><rect class="cls-1" x="33.49" y="82.79" width="14.38" height="5.52"/><polygon class="cls-1" points="29.63 34.28 0.46 34.28 0.46 9.11 29.84 0 31.48 5.27 5.98 13.18 5.98 28.76 24.11 28.76 24.11 12.97 29.63 12.97 29.63 34.28"/><polygon class="cls-1" points="5.86 99.47 0.34 99.47 0.34 71.56 8.89 71.56 18.48 93.1 18.48 71.59 24 71.59 24 99.41 15.25 99.41 5.86 78.33 5.86 99.47"/><polygon class="cls-1" points="50.66 99.51 29.64 99.51 29.64 71.59 50.66 71.59 50.66 77.11 35.16 77.11 35.16 93.99 50.66 93.99 50.66 99.51"/><path class="cls-1" d="M41,67.93c-7.78,0-14.1-6.66-14.1-14.85S33.17,38.22,41,38.22s14.1,6.67,14.1,14.86S48.72,67.93,41,67.93Zm0-24.19c-4.73,0-8.58,4.19-8.58,9.34s3.85,9.33,8.58,9.33,8.58-4.19,8.58-9.33S45.68,43.74,41,43.74Z"/><path class="cls-1" d="M34.38,31v3.27h-.81V31h-1.2v-.68h3.16V31Z"/><path class="cls-1" d="M36.83,31.2v3.07H36v-4h1.21L38,33.47l.69-3.15h1.22v4h-.81V31.2l-.7,3.07h-.81Z"/></g></g></svg>