<svg xmlns="http://www.w3.org/2000/svg" viewBox="0 0 837.69 57.82"><defs><style>.cls-1{fill:#fff;}.cls-2{fill:#e63d64;}.cls-3{fill:#301e38;}</style></defs><g id="Layer_2" data-name="Layer 2"><g id="Layer_1-2" data-name="Layer 1"><circle class="cls-1" cx="28.91" cy="28.91" r="28.91"/><polygon class="cls-2" points="22.1 19.91 22.1 39.45 39.52 29.68 22.1 19.91"/><path class="cls-2" d="M83.78,43.9A2.25,2.25,0,0,1,83,45.26c-.13.14-.28.29-.46.46s-.37.33-.58.5l-.61.5q-.3.26-.57.45A21.1,21.1,0,0,1,79,48.42a18.31,18.31,0,0,1-1.88,1,11.55,11.55,0,0,1-1.9.7,6.63,6.63,0,0,1-1.83.26,4.68,4.68,0,0,1-1.67-.27,3.18,3.18,0,0,1-1.18-.79,3.26,3.26,0,0,1-.7-1.22,5.33,5.33,0,0,1-.23-1.6,7.56,7.56,0,0,1,.17-1.62,9.49,9.49,0,0,1,.48-1.63A11,11,0,0,1,71,41.74a10.82,10.82,0,0,1,1-1.38c.21-.25.44-.51.7-.78s.54-.52.83-.77.57-.48.87-.69.59-.41.87-.58.42-.23.71-.37.58-.28.89-.4a9.49,9.49,0,0,1,.94-.32,3.23,3.23,0,0,1,.8-.12,4.11,4.11,0,0,1,.87.07,1.83,1.83,0,0,1,.57.25,1.7,1.7,0,0,1,.27.27,4.27,4.27,0,0,1,.29.41,3,3,0,0,1,.23.43.89.89,0,0,1,.1.37,1.28,1.28,0,0,1-.14.45c-.1.21-.21.41-.33.63s-.25.42-.38.61a4.21,4.21,0,0,1-.28.38,1,1,0,0,1-.78.4.7.7,0,0,1-.56-.22.77.77,0,0,1-.2-.54.82.82,0,0,1,.13-.36,2.49,2.49,0,0,1,.45-.56,3.63,3.63,0,0,0,.48-.57c.12-.18.19-.29.22-.35a1.28,1.28,0,0,0-.44-.2,1.69,1.69,0,0,0-.48-.07,2.75,2.75,0,0,0-.79.15,6.16,6.16,0,0,0-1,.38,8.82,8.82,0,0,0-1,.51,6.34,6.34,0,0,0-.79.53,16.3,16.3,0,0,0-1.69,1.63,8.63,8.63,0,0,0-1.28,1.93c-.14.29-.27.6-.39.91s-.22.64-.31,1a8.41,8.41,0,0,0-.21,1,6,6,0,0,0-.08.93,3.81,3.81,0,0,0,.12,1,2.06,2.06,0,0,0,.4.78,1.86,1.86,0,0,0,.72.52,3,3,0,0,0,1.11.18A5.74,5.74,0,0,0,75,48.91a9.85,9.85,0,0,0,1.49-.53,14.81,14.81,0,0,0,1.47-.77c.49-.28,1-.58,1.4-.9s.87-.63,1.28-.94.77-.61,1.1-.89c.14-.11.28-.24.43-.37l.45-.41.43-.41.37-.38A.65.65,0,0,1,83.78,43.9Z"/><path class="cls-2" d="M91.16,45.65a18.13,18.13,0,0,1-1.44,1.79,13,13,0,0,1-1.45,1.37,7.23,7.23,0,0,1-1.4.87A3,3,0,0,1,85.6,50a1.69,1.69,0,0,1-1.49-.82,4.26,4.26,0,0,1-.55-2.4,17.41,17.41,0,0,1,.11-2q.1-1.06.27-2.16c.11-.73.24-1.45.38-2.15s.28-1.35.42-1.93.22-.83.33-1.16a3.81,3.81,0,0,1,.35-.8,1.43,1.43,0,0,1,.4-.46.87.87,0,0,1,.5-.15.61.61,0,0,1,.32.08.82.82,0,0,1,.25.2.77.77,0,0,1,.17.29,1,1,0,0,1,.06.33,1.43,1.43,0,0,1-.09.43c0,.18-.13.38-.21.6l-.28.7c-.1.24-.2.47-.29.7s-.18.43-.26.61a4.76,4.76,0,0,0-.15.47c-.09.38-.18.83-.27,1.34s-.17,1-.25,1.6-.13,1.09-.18,1.63-.07,1-.07,1.49a3.73,3.73,0,0,0,.11,1,1.89,1.89,0,0,0,.27.62,1,1,0,0,0,.35.32.87.87,0,0,0,.36.09,1.72,1.72,0,0,0,.69-.16,5.15,5.15,0,0,0,.79-.46c.27-.2.56-.43.85-.69s.59-.55.89-.86.59-.63.88-1,.57-.69.83-1l.24-.31a.26.26,0,0,1,.17-.11c.07,0,.11,0,.15.12a.74.74,0,0,1,0,.28,1.32,1.32,0,0,1,0,.32c0,.12-.07.23-.11.36s-.11.24-.17.36S91.23,45.55,91.16,45.65Z"/><path class="cls-2" d="M100.08,43.85a1.1,1.1,0,0,1-.16.51,7.17,7.17,0,0,1-.47.72c-.2.27-.43.56-.7.87s-.54.61-.83.92a14.6,14.6,0,0,1-1,1c-.37.33-.77.65-1.19,1a3.93,3.93,0,0,1-2.22.92,2,2,0,0,1-1.67-.72A4,4,0,0,1,91,47.3a9.75,9.75,0,0,1-.22-2.11c0-.3,0-.77.11-1.41,0-.32.07-.6.11-.83a4,4,0,0,1,.11-.56,1.43,1.43,0,0,1,.53-.73,1.32,1.32,0,0,1,.85-.33c.16,0,.24.15.24.46a4.48,4.48,0,0,1-.06.68l-.12.76c-.07.46-.13.88-.17,1.25s0,.7,0,1a6.69,6.69,0,0,0,.25,1.81c.17.63.46.94.9.94A3.27,3.27,0,0,0,95,47.72c.29-.17.58-.35.87-.55s.58-.43.87-.68.58-.5.85-.75.54-.51.8-.78l.71-.75c.2-.23.39-.44.54-.64,0,0,0,0,0-.06l0-.08.05-.06s0,0,.06,0,.14.07.18.2A.67.67,0,0,1,100.08,43.85Zm-5.82-7.23a1.66,1.66,0,0,1-.3,1,1,1,0,0,1-.87.4,3.41,3.41,0,0,1-.79-.1c-.28-.07-.43-.19-.43-.35a1.38,1.38,0,0,1,.28-.83,2.2,2.2,0,0,1,.65-.64,1.06,1.06,0,0,1,.4-.18,1.65,1.65,0,0,1,.78.14A.56.56,0,0,1,94.26,36.62Z"/><path class="cls-2" d="M109.92,41.61a1.51,1.51,0,0,1-.08.38c-.06.17-.13.35-.22.55s-.2.41-.32.63a5.16,5.16,0,0,1-.39.6c-.41.56-.82,1.07-1.22,1.52a15.86,15.86,0,0,1-1.2,1.24,12.44,12.44,0,0,1-1.22,1,13.18,13.18,0,0,1-1.27.83,6.94,6.94,0,0,1-.82.41,4.61,4.61,0,0,1-.74.25,5.88,5.88,0,0,1-.75.11c-.26,0-.55,0-.86,0A2.28,2.28,0,0,1,100,49a1.75,1.75,0,0,1-.68-.46,2.13,2.13,0,0,1-.44-.8,3.63,3.63,0,0,1-.16-1.15,4.06,4.06,0,0,1,.1-.86,9.54,9.54,0,0,1,.3-1,10.52,10.52,0,0,1,.44-1.07c.17-.36.35-.71.54-1s.41-.64.62-.92a4.88,4.88,0,0,1,.66-.69,2.24,2.24,0,0,1,.44-.29,5.52,5.52,0,0,1,.55-.26,4.11,4.11,0,0,1,.57-.17,1.85,1.85,0,0,1,.48-.07,1.39,1.39,0,0,1,.58.13,2.46,2.46,0,0,1,.56.34,2.08,2.08,0,0,1,.41.43.8.8,0,0,1,.16.45,1.26,1.26,0,0,1,0,.33,1.48,1.48,0,0,1-.15.31,1.18,1.18,0,0,1-.19.24.35.35,0,0,1-.22.09.39.39,0,0,1-.33-.17,3.73,3.73,0,0,1-.25-.39,2.6,2.6,0,0,0-.27-.38.54.54,0,0,0-.42-.17,1.29,1.29,0,0,0-.78.28,3.8,3.8,0,0,0-.75.75,7.15,7.15,0,0,0-.65,1,8.88,8.88,0,0,0-.53,1.13,9.34,9.34,0,0,0-.35,1.06,3.82,3.82,0,0,0-.12.84,1.28,1.28,0,0,0,.14.61,1.31,1.31,0,0,0,.35.42,1.69,1.69,0,0,0,.49.23,2,2,0,0,0,.54.07,3.11,3.11,0,0,0,.69-.09,5.75,5.75,0,0,0,.78-.23,6.26,6.26,0,0,0,.75-.32,4.41,4.41,0,0,0,.63-.36,12.68,12.68,0,0,0,1.41-1.13c.47-.43.91-.88,1.34-1.36s.81-1,1.17-1.44a14.36,14.36,0,0,0,.92-1.38.52.52,0,0,1,.15-.17.37.37,0,0,1,.16,0,.42.42,0,0,1,.26.1A.29.29,0,0,1,109.92,41.61Z"/><path class="cls-2" d="M120.25,48.54a.49.49,0,0,1-.21.36,2,2,0,0,1-.5.29,3.25,3.25,0,0,1-.6.2,2.21,2.21,0,0,1-.5.08A6.35,6.35,0,0,1,117,49.3a9.94,9.94,0,0,1-1.4-.46,9.7,9.7,0,0,1-1.12-.55l-1.07-.65L112.29,47q-.54-.36-1.14-.69l-.09.08-.15.15-.18.16-.15.14a3,3,0,0,0-.36.36,1.85,1.85,0,0,0-.22.29,1.66,1.66,0,0,0-.13.27l-.13.29a1.15,1.15,0,0,1,0,.41,1.67,1.67,0,0,0,0,.43,1.31,1.31,0,0,1-.25.87,1,1,0,0,1-.77.29c-.21,0-.34,0-.4-.15a1.1,1.1,0,0,1-.08-.51,4,4,0,0,1,0-.45c0-.24.06-.53.1-.87s.09-.72.14-1.13l.18-1.29c.06-.43.13-.86.18-1.29s.12-.83.17-1.2.1-.68.14-.94.07-.46.09-.58,0-.27,0-.48,0-.45.06-.72,0-.55.06-.84.05-.57.07-.83,0-.5,0-.7,0-.34,0-.42l.07-.88a.41.41,0,0,1,.12-.28,1,1,0,0,1,.28-.23,1.58,1.58,0,0,1,.35-.16,1.14,1.14,0,0,1,.35,0,.6.6,0,0,1,.27.06.7.7,0,0,1,.19.15.49.49,0,0,1,.11.2.67.67,0,0,1,0,.18,3.79,3.79,0,0,1,0,.46c0,.21-.07.48-.12.79s-.12.64-.18,1-.13.74-.2,1.12-.14.74-.2,1.1-.13.68-.18,1-.1.52-.13.72-.06.3-.07.34c-.09.72-.16,1.33-.23,1.83s-.12.91-.17,1.2l.33-.37.55-.6.65-.72.65-.73.53-.6c.15-.16.25-.28.3-.34l.75-1c.26-.33.52-.62.77-.88a5.32,5.32,0,0,1,.77-.64,1.43,1.43,0,0,1,.75-.24c.38,0,.57.1.57.31a.82.82,0,0,1-.09.34,4.23,4.23,0,0,1-.23.41,3.89,3.89,0,0,1-.28.39l-.26.32-.36.38-.47.46-.53.52-.53.5-.46.44-.34.32-.2.2-.19.18a1.21,1.21,0,0,0-.19.2c-.06.07-.12.16-.19.26q.85.52,1.74,1c.58.33,1.16.62,1.74.89a16.24,16.24,0,0,0,1.72.69,9.69,9.69,0,0,0,1.65.41,2.44,2.44,0,0,0,.57.05h.41a1.18,1.18,0,0,1,.25,0A.14.14,0,0,1,120.25,48.54Z"/><path class="cls-2" d="M136.49,41.8a.69.69,0,0,1-.18.51,2.17,2.17,0,0,1-.41.3,4.43,4.43,0,0,1-.65.24c-.24.07-.49.14-.74.19s-.5.11-.76.15l-.73.09-.79.07-.81.08a7.07,7.07,0,0,0-.72.09,2.51,2.51,0,0,0-.54.13c-.13.54-.26,1.06-.4,1.55s-.25,1-.35,1.46l-.09.51c0,.22-.08.46-.11.7s-.07.48-.1.7,0,.37,0,.46a1,1,0,0,0,.12.55,1.22,1.22,0,0,0,.25.29l.26.21a.41.41,0,0,1,.11.3.35.35,0,0,1-.12.24,1.34,1.34,0,0,1-.29.2A1.42,1.42,0,0,1,129,51a1.47,1.47,0,0,1-.33,0,.81.81,0,0,1-.46-.14,1.38,1.38,0,0,1-.35-.37,2.2,2.2,0,0,1-.22-.52,2.09,2.09,0,0,1-.08-.61,5.45,5.45,0,0,1,.07-.87c0-.32.11-.63.18-1s.14-.66.22-1,.16-.68.23-1l.09-.44a3.67,3.67,0,0,0,.09-.43c0-.13.05-.24.07-.33a1.16,1.16,0,0,0,0-.16.25.25,0,0,0-.11-.22.38.38,0,0,0-.24-.07h-.32l-.45,0L127,44l-.31,0a2.83,2.83,0,0,1-.54,0,.74.74,0,0,1-.36-.15.7.7,0,0,1-.21-.29,1.75,1.75,0,0,1-.06-.5.2.2,0,0,1,.11-.19,1,1,0,0,1,.28-.11,2,2,0,0,1,.35,0h.33a3.15,3.15,0,0,0,.38,0l.55,0,.55-.05.38,0h.12a.3.3,0,0,0,.15-.05.34.34,0,0,0,.14-.13.92.92,0,0,0,.11-.26c0-.19.09-.4.15-.65l.18-.75.18-.75c.06-.24.11-.44.15-.62a3.71,3.71,0,0,0,.14-.53c0-.19.08-.38.11-.57s.07-.37.11-.55a2.35,2.35,0,0,1,.16-.49.65.65,0,0,1,.63-.46c.44,0,.66.24.66.73a3.38,3.38,0,0,1-.2,1c-.28.9-.49,1.64-.63,2.23a6.88,6.88,0,0,0-.2,1.17.29.29,0,0,0,.33.33h.75l.71-.05.76-.07.9-.1c.23,0,.46-.06.68-.11l.6-.12a4.53,4.53,0,0,0,.49-.11l.35-.07.19,0a.3.3,0,0,1,.16,0,.16.16,0,0,1,.11.07A.32.32,0,0,1,136.49,41.8Z"/><path class="cls-2" d="M141.45,43.7c0,.19,0,.37,0,.54s-.05.34-.08.5a4.42,4.42,0,0,1-.15.48,5.32,5.32,0,0,1-.21.5,2.58,2.58,0,0,1-.45.66,7.35,7.35,0,0,1-.79.79,11.75,11.75,0,0,1-1,.81,11.6,11.6,0,0,1-1.11.72,6.78,6.78,0,0,1-1.1.52,2.9,2.9,0,0,1-1,.2,2.38,2.38,0,0,1-1-.21,2,2,0,0,1-.74-.52,2.14,2.14,0,0,1-.44-.74,2.5,2.5,0,0,1-.15-.85,3.28,3.28,0,0,1,.07-.65c0-.24.11-.49.19-.75s.17-.53.27-.8.22-.54.34-.78a7.59,7.59,0,0,1,.37-.7,4.21,4.21,0,0,1,.36-.54,6,6,0,0,1,.75-.77,6.62,6.62,0,0,1,1-.66,5.88,5.88,0,0,1,1.12-.47,4.7,4.7,0,0,1,1.24-.17,2.18,2.18,0,0,1,1,.23,2.94,2.94,0,0,1,.82.64,3.34,3.34,0,0,1,.58.92A2.77,2.77,0,0,1,141.45,43.7Zm-1.38.26a1.83,1.83,0,0,0-.51-1.38,2,2,0,0,0-1.44-.5,1.34,1.34,0,0,0-.65.17,3.14,3.14,0,0,0-.63.42,5.56,5.56,0,0,0-.56.52q-.25.29-.42.51a4.39,4.39,0,0,0-.37.62c-.14.27-.27.55-.39.85a7.91,7.91,0,0,0-.3.9,3.09,3.09,0,0,0-.12.78,1,1,0,0,0,.08.42,1.25,1.25,0,0,0,.22.37,1.31,1.31,0,0,0,.35.27,1,1,0,0,0,.46.11,2,2,0,0,0,.69-.16,6.15,6.15,0,0,0,.9-.44,8.76,8.76,0,0,0,1-.67,6.93,6.93,0,0,0,.87-.84,4.35,4.35,0,0,0,.63-.95A2.29,2.29,0,0,0,140.07,44Z"/><path class="cls-2" d="M169.9,40.53a1,1,0,0,1-.06.27,3.73,3.73,0,0,1-.15.38l-.17.38a1.7,1.7,0,0,1-.14.24c-.27.37-.54.69-.8,1a5.8,5.8,0,0,1-.84.75,3.89,3.89,0,0,1-1,.49,3.5,3.5,0,0,1-1.11.17,1.82,1.82,0,0,1-.53-.1,5.42,5.42,0,0,1-.56-.22c-.18-.09-.35-.19-.51-.29a4.56,4.56,0,0,1-.39-.25,2.09,2.09,0,0,0-.62,1,19.16,19.16,0,0,0-.59,2c-.07.26-.14.54-.23.82a8.45,8.45,0,0,1-.28.85q-.15.42-.33.81a6.11,6.11,0,0,1-.37.68,1.89,1.89,0,0,1-.42.46.68.68,0,0,1-.45.18,1.3,1.3,0,0,1-.74-.23,2.65,2.65,0,0,1-.62-.59,3.81,3.81,0,0,1-.5-.84,8.09,8.09,0,0,1-.4-1c-.12-.33-.23-.65-.32-1l-.24-.83-.19-.59c0-.15-.1-.23-.14-.23s-.1.06-.17.19a4.15,4.15,0,0,0-.23.47q-.12.29-.24.63t-.24.66c-.08.21-.15.4-.2.57s-.1.29-.13.35a7.31,7.31,0,0,1-.4.89,10,10,0,0,1-.52.92,4.9,4.9,0,0,1-.57.71.77.77,0,0,1-.53.29.86.86,0,0,1-.58-.22,2.79,2.79,0,0,1-.46-.51,2.7,2.7,0,0,1-.19-.33l-.22-.5c-.08-.18-.16-.37-.23-.57s-.15-.38-.21-.56l-.17-.46c0-.13-.08-.23-.09-.28l-.3-.93c-.1-.35-.2-.71-.29-1.08s-.17-.71-.24-1.06a5.36,5.36,0,0,1-.09-.91c0-.73.34-1.1,1-1.1a.37.37,0,0,1,.2.07.63.63,0,0,1,.17.19,1.46,1.46,0,0,1,.14.28,2.81,2.81,0,0,1,.1.31c0,.07,0,.18.05.31l.06.4c0,.14,0,.28,0,.41s0,.23,0,.3c0,.31.08.63.14,1s.13.63.21.94a8.42,8.42,0,0,0,.24.84,6.25,6.25,0,0,0,.27.69,3.18,3.18,0,0,0,.26.47c.09.11.17.17.24.17s.22-.08.34-.24a3.72,3.72,0,0,0,.39-.62,8.17,8.17,0,0,0,.4-.88c.13-.33.27-.66.4-1s.27-.69.39-1,.25-.63.36-.89l.28-.58c.1-.2.2-.37.3-.53a2,2,0,0,1,.28-.37.36.36,0,0,1,.25-.14.76.76,0,0,1,.58.2.91.91,0,0,1,.25.56c.06.42.11.8.18,1.15s.13.66.21,1,.15.59.24.86.18.55.27.84a4.93,4.93,0,0,0,.32.74,2.71,2.71,0,0,0,.29.45.87.87,0,0,0,.26.23.45.45,0,0,0,.2.06c.15,0,.28-.09.42-.28a3.28,3.28,0,0,0,.36-.75,9.14,9.14,0,0,0,.33-1.07c.11-.4.21-.82.3-1.24l.22-.93a7.06,7.06,0,0,1,.32-.95,3.83,3.83,0,0,1,.48-.84,1.84,1.84,0,0,1,.7-.6l.36,0a1.09,1.09,0,0,1,.31.08,1.24,1.24,0,0,1,.27.17,1.54,1.54,0,0,1,.27.29,1.24,1.24,0,0,0,.29.26,1.46,1.46,0,0,0,.37.2,2,2,0,0,0,.39.13,1.72,1.72,0,0,0,.37.05,2.18,2.18,0,0,0,1-.22,3.52,3.52,0,0,0,.84-.56,5.85,5.85,0,0,0,.74-.81l.72-.92.13-.13a.3.3,0,0,1,.16-.08.24.24,0,0,1,.18.12A.61.61,0,0,1,169.9,40.53Z"/><path class="cls-2" d="M184.07,43.8a1.26,1.26,0,0,1-.27.58,3,3,0,0,1-.25.36l-.31.39c-.11.14-.22.26-.33.38s-.2.22-.28.3c-.35.35-.71.69-1.1,1a10.87,10.87,0,0,1-1.19.86,7.14,7.14,0,0,1-1.28.61,4.46,4.46,0,0,1-1.35.24,2.12,2.12,0,0,1-.93-.2,1.44,1.44,0,0,1-.64-.63,3.66,3.66,0,0,1-.34-1c-.08-.36-.14-.75-.19-1.16l0-.3c0-.13,0-.27,0-.43s0-.32,0-.48-.05-.32-.08-.46a1.82,1.82,0,0,0-.11-.33c0-.09-.08-.13-.12-.13a1.4,1.4,0,0,0-.76.37,9.76,9.76,0,0,0-1,1,16.69,16.69,0,0,0-1.16,1.36c-.4.5-.77,1-1.12,1.53s-.57.91-.82,1.36-.46.85-.64,1.19a1,1,0,0,1-.32.32.84.84,0,0,1-.23.1.73.73,0,0,1-.29-.07,1,1,0,0,1-.27-.18.91.91,0,0,1-.2-.24.54.54,0,0,1-.07-.27,2.41,2.41,0,0,1,0-.38c0-.17.06-.37.09-.59s.07-.45.11-.68.06-.45.09-.65c0-.4.09-.83.14-1.29l.15-1.42c0-.48.09-1,.13-1.4s.08-.87.1-1.24c0-.12,0-.27,0-.47s0-.41,0-.65,0-.48,0-.74,0-.51,0-.76,0-.47,0-.69,0-.4,0-.55a3.33,3.33,0,0,1,0-.46c0-.14,0-.28.06-.42a3.31,3.31,0,0,1,.12-.42c.05-.14.11-.29.19-.46a1,1,0,0,1,.11-.18,1.54,1.54,0,0,1,.19-.17.83.83,0,0,1,.22-.14.53.53,0,0,1,.24-.06.67.67,0,0,1,.47.2.77.77,0,0,1,.21.57,1.38,1.38,0,0,1,0,.31l-.09.41c0,.14-.07.27-.11.4s0,.22-.06.29c-.05.24-.09.52-.13.83s-.07.64-.1,1-.06.65-.08,1-.05.6-.07.85,0,.55-.06.8-.06.5-.08.74-.06.5-.08.75,0,.52-.07.81c0,.44-.09.83-.14,1.16a4.89,4.89,0,0,0-.08.86.22.22,0,0,0,.06.13.15.15,0,0,0,.1.07h0c.06-.07.12-.17.21-.3s.18-.27.28-.42L171,46c.11-.17.23-.32.34-.47l.37-.46q.2-.26.42-.51l.44-.52.44-.48.61-.58a7.48,7.48,0,0,1,.71-.55A4.55,4.55,0,0,1,175,42a2,2,0,0,1,.72-.16.41.41,0,0,1,.16,0,.75.75,0,0,1,.2.1,1,1,0,0,1,.2.16.8.8,0,0,1,.13.22,5.7,5.7,0,0,1,.26,1c.05.32.1.66.14,1s.07.62.11.94.1.61.16.87a2.24,2.24,0,0,0,.26.64.46.46,0,0,0,.39.25,4.83,4.83,0,0,0,2.1-.49,9.35,9.35,0,0,0,.92-.5,8.26,8.26,0,0,0,.72-.5,7,7,0,0,0,.67-.57c.21-.21.47-.45.76-.72a3.77,3.77,0,0,1,1-.79C184,43.43,184.07,43.55,184.07,43.8Z"/><path class="cls-2" d="M195.93,43.58c0,.07,0,.16,0,.26s0,.19-.08.29a2.49,2.49,0,0,1-.11.29,1.08,1.08,0,0,1-.12.22,1.49,1.49,0,0,1-.15.19l-.23.26a3.65,3.65,0,0,1-.27.3c-.1.11-.2.2-.31.3-.36.34-.73.66-1.08,1a7.74,7.74,0,0,1-1.09.84,4.91,4.91,0,0,1-1.17.58,3.52,3.52,0,0,1-1.32.21,1.92,1.92,0,0,1-.66-.12,2.42,2.42,0,0,1-.63-.34,2.3,2.3,0,0,1-.5-.53,2,2,0,0,1-.31-.69l-.54.56-.59.58c-.2.2-.42.39-.64.57s-.44.35-.67.51l-.47.26a5,5,0,0,1-.57.27,4.49,4.49,0,0,1-.59.19,2.28,2.28,0,0,1-.54.08,1,1,0,0,1-.63-.23,1.94,1.94,0,0,1-.43-.55,2.52,2.52,0,0,1-.26-.71,2.87,2.87,0,0,1-.09-.66,4.52,4.52,0,0,1,.17-1.2,7.51,7.51,0,0,1,.44-1.2,8.49,8.49,0,0,1,.61-1.11c.22-.35.44-.66.65-.93a7,7,0,0,1,.8-.85,9.69,9.69,0,0,1,1-.76,6.4,6.4,0,0,1,1-.54,2.3,2.3,0,0,1,.85-.2h.4l.41,0,.4.07a1.94,1.94,0,0,1,.36.15,1.26,1.26,0,0,1,.19.2l.2.34a3,3,0,0,1,.15.38,1,1,0,0,1,.06.29,3,3,0,0,1-.13.78c-.09.41-.18.78-.26,1.12a4.4,4.4,0,0,0-.12,1,1.91,1.91,0,0,0,.1.62,1.83,1.83,0,0,0,.28.58,1.6,1.6,0,0,0,.44.42,1.09,1.09,0,0,0,.59.16,3,3,0,0,0,1.11-.22,5.78,5.78,0,0,0,1.16-.63,12.76,12.76,0,0,0,1.16-.91c.38-.35.76-.72,1.13-1.11l.16-.18c.07-.09.15-.17.23-.26a2.55,2.55,0,0,1,.24-.23.28.28,0,0,1,.17-.1Q195.93,43.22,195.93,43.58ZM188,42.84c0-.1,0-.22,0-.37a.64.64,0,0,0-.12-.36.24.24,0,0,0-.24-.14h-.28a2,2,0,0,0-.6.1,2.94,2.94,0,0,0-.57.27,4,4,0,0,0-.52.4c-.17.15-.34.31-.5.48a4.74,4.74,0,0,0-.43.5c-.15.21-.3.43-.44.67s-.29.49-.43.75-.25.53-.35.78a6.46,6.46,0,0,0-.24.75,2.74,2.74,0,0,0-.09.66c0,.05,0,.13,0,.23s0,.19.07.29a.59.59,0,0,0,.14.23.23.23,0,0,0,.2.1,2.81,2.81,0,0,0,1-.26,5.48,5.48,0,0,0,1.51-1,6,6,0,0,0,1.16-1.43A5.39,5.39,0,0,0,188,42.84Z"/><path class="cls-2" d="M204,41.8a.69.69,0,0,1-.18.51,2.17,2.17,0,0,1-.41.3,4.43,4.43,0,0,1-.65.24c-.24.07-.49.14-.74.19s-.51.11-.76.15l-.73.09-.79.07-.81.08c-.26,0-.5,0-.73.09a2.41,2.41,0,0,0-.53.13c-.13.54-.26,1.06-.4,1.55a14.76,14.76,0,0,0-.35,1.46c0,.11-.06.28-.09.51s-.08.46-.12.7-.06.48-.09.7a3.51,3.51,0,0,0,0,.46,1,1,0,0,0,.12.55,1,1,0,0,0,.25.29l.25.21a.38.38,0,0,1,.12.3.35.35,0,0,1-.12.24,1.64,1.64,0,0,1-.29.2,1.42,1.42,0,0,1-.36.14,1.56,1.56,0,0,1-.33,0,.84.84,0,0,1-.47-.14,1.34,1.34,0,0,1-.34-.37,2.22,2.22,0,0,1-.23-.52,2.48,2.48,0,0,1-.07-.61,5.45,5.45,0,0,1,.07-.87c0-.32.1-.63.17-1s.15-.66.23-1,.16-.68.23-1l.09-.44.09-.43c0-.13,0-.24.07-.33s0-.14,0-.16a.25.25,0,0,0-.1-.22.4.4,0,0,0-.24-.07h-.32l-.45,0-.45,0-.31,0a2.88,2.88,0,0,1-.55,0,.83.83,0,0,1-.36-.15.61.61,0,0,1-.2-.29A1.72,1.72,0,0,1,193,43a.21.21,0,0,1,.12-.19,1,1,0,0,1,.28-.11,2,2,0,0,1,.35,0h.33a3.15,3.15,0,0,0,.38,0l.55,0,.55-.05.38,0h.12a.3.3,0,0,0,.15-.05.34.34,0,0,0,.14-.13.94.94,0,0,0,.1-.26c0-.19.1-.4.15-.65s.12-.49.19-.75l.18-.75c.06-.24.11-.44.15-.62s.1-.34.14-.53.07-.38.1-.57.07-.37.12-.55a2.35,2.35,0,0,1,.16-.49.65.65,0,0,1,.63-.46c.44,0,.66.24.66.73a3.38,3.38,0,0,1-.2,1c-.28.9-.49,1.64-.63,2.23a6.26,6.26,0,0,0-.21,1.17.29.29,0,0,0,.33.33H199l.72-.05.76-.07.89-.1c.24,0,.47-.06.69-.11l.6-.12a4.32,4.32,0,0,0,.48-.11l.36-.07.19,0a.3.3,0,0,1,.16,0,.16.16,0,0,1,.11.07A.41.41,0,0,1,204,41.8Z"/><path class="cls-2" d="M212.51,41.61a1.51,1.51,0,0,1-.08.38c-.06.17-.13.35-.22.55s-.2.41-.32.63a5.16,5.16,0,0,1-.39.6c-.41.56-.82,1.07-1.22,1.52a15.86,15.86,0,0,1-1.2,1.24,12.44,12.44,0,0,1-1.22,1,13.18,13.18,0,0,1-1.27.83,6.94,6.94,0,0,1-.82.41A4.61,4.61,0,0,1,205,49a5.88,5.88,0,0,1-.75.11c-.26,0-.55,0-.86,0a2.28,2.28,0,0,1-.87-.15,1.75,1.75,0,0,1-.68-.46,2.13,2.13,0,0,1-.44-.8,3.63,3.63,0,0,1-.16-1.15,4.06,4.06,0,0,1,.1-.86,9.54,9.54,0,0,1,.3-1,10.52,10.52,0,0,1,.44-1.07,10,10,0,0,1,.55-1,9.17,9.17,0,0,1,.61-.92,4.88,4.88,0,0,1,.66-.69,2.24,2.24,0,0,1,.44-.29,5.52,5.52,0,0,1,.55-.26,4.11,4.11,0,0,1,.57-.17,1.85,1.85,0,0,1,.48-.07,1.39,1.39,0,0,1,.58.13,2.46,2.46,0,0,1,.56.34,2.08,2.08,0,0,1,.41.43.8.8,0,0,1,.16.45,1.26,1.26,0,0,1-.05.33,1.48,1.48,0,0,1-.15.31,1.18,1.18,0,0,1-.19.24.35.35,0,0,1-.22.09.39.39,0,0,1-.33-.17,3.73,3.73,0,0,1-.25-.39,2.6,2.6,0,0,0-.27-.38.54.54,0,0,0-.42-.17,1.29,1.29,0,0,0-.78.28,3.8,3.8,0,0,0-.75.75,7.15,7.15,0,0,0-.65,1,8.88,8.88,0,0,0-.53,1.13,9.34,9.34,0,0,0-.35,1.06,3.82,3.82,0,0,0-.12.84,1.28,1.28,0,0,0,.14.61,1.31,1.31,0,0,0,.35.42,1.69,1.69,0,0,0,.49.23,2,2,0,0,0,.54.07,3.11,3.11,0,0,0,.69-.09,5.75,5.75,0,0,0,.78-.23,6.26,6.26,0,0,0,.75-.32,5.22,5.22,0,0,0,.64-.36,13.6,13.6,0,0,0,1.4-1.13c.47-.43.91-.88,1.34-1.36s.81-1,1.17-1.44a14.36,14.36,0,0,0,.92-1.38.52.52,0,0,1,.15-.17.37.37,0,0,1,.16,0,.42.42,0,0,1,.26.1A.29.29,0,0,1,212.51,41.61Z"/><path class="cls-2" d="M223.59,43.8c0,.05,0,.14,0,.26s0,.25,0,.38l-.06.38a1,1,0,0,1-.08.25,8.84,8.84,0,0,1-.77,1.18,7.46,7.46,0,0,1-1,1,5.07,5.07,0,0,1-1,.68,2.52,2.52,0,0,1-1.08.26,3,3,0,0,1-.9-.13,2,2,0,0,1-.62-.36,2.05,2.05,0,0,1-.39-.5,2.6,2.6,0,0,1-.23-.58,3.9,3.9,0,0,1-.13-.57c0-.19-.06-.35-.08-.5a2.09,2.09,0,0,1,0-.38c0-.24,0-.51,0-.81a8.39,8.39,0,0,0,0-.84,2.33,2.33,0,0,0,0-.48.44.44,0,0,0-.15-.27,2.77,2.77,0,0,0-.37.39c-.11.14-.23.29-.37.45l-.41.53c-.15.19-.32.39-.51.61,0,0-.11.16-.22.34s-.23.39-.37.65l-.48.85-.55.94-.57.92c-.19.3-.38.57-.55.8a4,4,0,0,1-.48.55.63.63,0,0,1-.36.21l-.27,0-.17-.06-.14-.05-.12,0a2.88,2.88,0,0,1-.1-.59c0-.23,0-.47-.06-.7s0-.45,0-.65v-.45a18.57,18.57,0,0,1,.17-2.51c.11-.88.25-1.8.41-2.76s.33-2,.5-3,.31-2.16.43-3.31a1.52,1.52,0,0,1,.15-.44,1.72,1.72,0,0,1,.22-.33.73.73,0,0,1,.23-.21.32.32,0,0,1,.17-.07h0a.48.48,0,0,1,.26.12,1.13,1.13,0,0,1,.23.29,2.09,2.09,0,0,1,.16.4,1.63,1.63,0,0,1,.06.45,1.39,1.39,0,0,1,0,.3c-.05.19-.08.35-.11.48s-.06.26-.08.38-.06.23-.08.33,0,.23-.07.37-.05.29-.09.48-.07.4-.12.65c0,.05,0,.17,0,.37s-.08.42-.12.71-.11.59-.16.94l-.18,1.07q-.09.54-.18,1c0,.35-.1.67-.15,1s-.08.53-.1.72a2.71,2.71,0,0,0,0,.37c0,.06,0,.13,0,.23s0,.2,0,.31l0,.35v.36c0,.12,0,.23,0,.33a1.06,1.06,0,0,0,.06.28,4.94,4.94,0,0,0,.47-.46c.17-.2.35-.41.53-.65s.36-.49.55-.75.37-.54.56-.8l.54-.76c.18-.24.34-.46.5-.64a4.66,4.66,0,0,1,.29-.44c.12-.16.24-.31.38-.47a5.76,5.76,0,0,1,.41-.44,4.94,4.94,0,0,1,.37-.33,1.89,1.89,0,0,1,.66-.34,2.8,2.8,0,0,1,.55-.06c.06,0,.12,0,.17.13a1.52,1.52,0,0,1,.13.31,1.59,1.59,0,0,1,.1.39,1.56,1.56,0,0,1,0,.35c0,.1,0,.23,0,.4s-.06.37-.09.58-.05.44-.08.67a5.07,5.07,0,0,0,0,.66v.12a.37.37,0,0,1,0,.11q0,.24.06.6a2.52,2.52,0,0,0,.16.67,1.55,1.55,0,0,0,.38.55.91.91,0,0,0,.67.23,2.2,2.2,0,0,0,.84-.16,3.34,3.34,0,0,0,.79-.48,6.47,6.47,0,0,0,.81-.78c.27-.3.56-.65.86-1a1.93,1.93,0,0,1,.35-.35.64.64,0,0,1,.25-.14S223.59,43.77,223.59,43.8Z"/><rect class="cls-1" x="701.14" y="7.66" width="136.55" height="44.05" rx="17.43"/><circle class="cls-3" cx="724.27" cy="29.68" r="9.91"/><polygon class="cls-1" points="728.67 24.23 722.43 27.35 719.31 34.03 725.55 31.36 728.67 24.23"/><circle class="cls-3" cx="723.94" cy="29.22" r="1.19"/><path class="cls-3" d="M746.42,35.48h-4.77V23.09h4.77a4.2,4.2,0,0,1,4.21,4.2v4A4.2,4.2,0,0,1,746.42,35.48ZM743.59,25v8.52h2.83a2.26,2.26,0,0,0,2.26-2.26v-4A2.26,2.26,0,0,0,746.42,25Z"/><path class="cls-3" d="M754.86,23.23v1.95h-2V23.23Zm0,3.19v9.06h-2V26.42Z"/><path class="cls-3" d="M760.93,35.55h-.82A3.15,3.15,0,0,1,757,32.26h1.79a1.48,1.48,0,0,0,1.34,1.51h.82c.5,0,.86-.54.9-1.05a.82.82,0,0,0-.61-.9l-2.13-.52a2.46,2.46,0,0,1-1.93-2.44A2.68,2.68,0,0,1,759.85,26h.86a3.06,3.06,0,0,1,3.06,3.06H762a1.41,1.41,0,0,0-1.28-1.28h-.77a.94.94,0,0,0-.85.94.68.68,0,0,0,.54.75l2.11.52a2.57,2.57,0,0,1,2,2.65A2.81,2.81,0,0,1,760.93,35.55Z"/><path class="cls-3" d="M765.26,32V29.61A3.73,3.73,0,0,1,769,25.88h.62a3.74,3.74,0,0,1,3.63,2.95l0,.11-1.91.3a1.79,1.79,0,0,0-1.74-1.41H769a1.78,1.78,0,0,0-1.77,1.78V32A1.77,1.77,0,0,0,769,33.72h.62a1.79,1.79,0,0,0,1.74-1.41l1.91.3,0,.11a3.73,3.73,0,0,1-3.63,2.94H769A3.72,3.72,0,0,1,765.26,32Z"/><path class="cls-3" d="M774.71,31.93V29.61a3.74,3.74,0,0,1,3.71-3.73h.38a3.74,3.74,0,0,1,3.71,3.73v2.32a3.72,3.72,0,0,1-3.71,3.73h-.38A3.72,3.72,0,0,1,774.71,31.93Zm4.09,1.79a1.77,1.77,0,0,0,1.76-1.79V29.61a1.77,1.77,0,0,0-1.76-1.78h-.38a1.79,1.79,0,0,0-1.77,1.78v2.32a1.79,1.79,0,0,0,1.77,1.79Z"/><path class="cls-3" d="M792.37,26.1l-3.58,9.38h-1.57l-3.57-9.38h2.08l2.27,6,2.29-6Z"/><path class="cls-3" d="M800.28,32.64l1.07,1.55a4.77,4.77,0,0,1-3.62,1.41,3.86,3.86,0,0,1-4.05-4.07V30.07a4.08,4.08,0,0,1,3.91-3.94A3.9,3.9,0,0,1,801.48,30v1.65h-5.86a1.92,1.92,0,0,0,2.11,2A3.13,3.13,0,0,0,800.28,32.64Zm-4.64-2.9h3.88a2,2,0,0,0-3.88,0Z"/><path class="cls-3" d="M809.51,28h-.74a3.16,3.16,0,0,0-3.08,3.15v4.35h-1.93V28h-.49V26.1h2.42v1.29a4,4,0,0,1,3.08-1.34h.74Z"/><path class="cls-3" d="M816.48,32.89a.78.78,0,0,1-.48-.17.77.77,0,0,1-.1-1.07l3.52-4.21a1,1,0,0,1,.8-.38,1.13,1.13,0,0,1,.82.37l3.66,4.21a.76.76,0,0,1-.08,1.07.75.75,0,0,1-1.06-.08l-3.32-3.82-3.18,3.81A.74.74,0,0,1,816.48,32.89Z"/></g></g></svg>