<svg xmlns="http://www.w3.org/2000/svg" viewBox="0 0 71.97 16.23"><defs><style>.cls-1{fill:none;stroke:#bcbec0;stroke-miterlimit:10;}</style></defs><g id="Layer_2" data-name="Layer 2"><g id="Layer_1-2" data-name="Layer 1"><path class="cls-1" d="M2.27.5A1.76,1.76,0,0,1,3.53,1L14,11.45l9.75-9.76a1.76,1.76,0,0,1,2.51,0L36,11.45l9.76-9.76a1.76,1.76,0,0,1,2.51,0L58,11.45,68.44,1A1.77,1.77,0,0,1,71,3.53L59.26,15.21a1.77,1.77,0,0,1-2.5,0L47,5.45l-9.76,9.76a1.78,1.78,0,0,1-2.51,0L25,5.45l-9.76,9.76a1.78,1.78,0,0,1-2.51,0L1,3.53A1.78,1.78,0,0,1,1,1,1.76,1.76,0,0,1,2.27.5Z"/></g></g></svg>