<svg xmlns="http://www.w3.org/2000/svg" width="49.191" height="73.963" viewBox="0 0 49.191 73.963">
  <g id="Groupe_159" data-name="Groupe 159" transform="translate(-876.156 -606.596)">
    <path id="Tracé_1" data-name="Tracé 1" d="M881.908,639.218a1.8,1.8,0,0,1-1.26-.509,14.673,14.673,0,0,1,0-21.132l8.116-7.908a10.846,10.846,0,0,1,7.615-3.073H920.87a4.426,4.426,0,0,1,4.477,4.362v3.722a4.426,4.426,0,0,1-4.477,4.362H892.985a1.736,1.736,0,1,1,0-3.471H920.87a.9.9,0,0,0,.915-.892v-3.722a.9.9,0,0,0-.915-.891H896.379a7.256,7.256,0,0,0-5.1,2.057l-8.116,7.908a11.265,11.265,0,0,0,0,16.225,1.7,1.7,0,0,1,0,2.454,1.8,1.8,0,0,1-1.259.509" fill="#fff"/>
    <path id="Tracé_2" data-name="Tracé 2" d="M920.87,799.483H896.379a10.844,10.844,0,0,1-7.615-3.073l-8.116-7.908a14.674,14.674,0,0,1,0-21.133l8.519-8.3a9.461,9.461,0,0,1,6.643-2.681h25.06a4.426,4.426,0,0,1,4.477,4.363v3.5a4.426,4.426,0,0,1-4.477,4.362H895.81a9.461,9.461,0,0,1-6.643-2.681l-1-.979-5,4.868a11.264,11.264,0,0,0,0,16.224l8.116,7.908a7.256,7.256,0,0,0,5.1,2.057H920.87a.9.9,0,0,0,.915-.891V791.18a.9.9,0,0,0-.915-.892H892.76a1.736,1.736,0,1,1,0-3.47h28.11a4.426,4.426,0,0,1,4.477,4.362v3.941a4.426,4.426,0,0,1-4.477,4.362M890.681,762.5l1,.978a5.871,5.871,0,0,0,4.124,1.665h25.06a.9.9,0,0,0,.915-.892v-3.5a.9.9,0,0,0-.915-.892H895.81a5.873,5.873,0,0,0-4.124,1.664Z" transform="translate(0 -118.925)" fill="#fff"/>
  </g>
</svg>
