<?xml version="1.0" encoding="utf-8"?>
<!-- Generator: Adobe Illustrator 24.3.0, SVG Export Plug-In . SVG Version: 6.00 Build 0)  -->
<svg version="1.1" id="Layer_1" xmlns="http://www.w3.org/2000/svg" xmlns:xlink="http://www.w3.org/1999/xlink" x="0px" y="0px"
	 viewBox="0 0 49.2 74" style="enable-background:new 0 0 49.2 74;" xml:space="preserve">
<g id="Groupe_159" transform="translate(-876.156 -606.596)">
	<path id="Tracé_1" d="M881.9,639.2c-0.5,0-0.9-0.2-1.3-0.5c-5.8-5.6-6-14.9-0.4-20.7c0.1-0.1,0.3-0.3,0.4-0.4l8.1-7.9
		c2-2,4.8-3.1,7.6-3.1h24.5c2.4,0,4.4,1.9,4.5,4.4v3.7c0,2.4-2,4.4-4.5,4.4H893c-1,0-1.8-0.7-1.8-1.7c0-1,0.7-1.8,1.7-1.8
		c0,0,0.1,0,0.1,0h27.9c0.5,0,0.9-0.4,0.9-0.9c0,0,0,0,0,0V611c0-0.5-0.4-0.9-0.9-0.9c0,0,0,0,0,0h-24.5c-1.9,0-3.7,0.7-5.1,2.1
		l-8.1,7.9c-4.5,4.3-4.6,11.4-0.3,15.9c0.1,0.1,0.2,0.2,0.3,0.3c0.7,0.6,0.7,1.7,0.1,2.4c0,0,0,0-0.1,0.1
		C882.8,639,882.4,639.2,881.9,639.2"/>
	<path id="Tracé_2" d="M920.9,680.6h-24.5c-2.8,0-5.6-1.1-7.6-3.1l-8.1-7.9c-5.8-5.6-6-14.9-0.4-20.7c0.1-0.1,0.3-0.3,0.4-0.4
		l8.5-8.3c1.8-1.7,4.2-2.7,6.6-2.7h25.1c2.4,0,4.4,1.9,4.5,4.4v3.5c0,2.4-2,4.4-4.5,4.4h-25.1c-2.5,0-4.9-1-6.6-2.7l-1-1l-5,4.9
		c-4.5,4.3-4.6,11.4-0.3,15.9c0.1,0.1,0.2,0.2,0.3,0.3l8.1,7.9c1.4,1.3,3.2,2.1,5.1,2.1h24.5c0.5,0,0.9-0.4,0.9-0.9c0,0,0,0,0,0
		v-3.9c0-0.5-0.4-0.9-0.9-0.9c0,0,0,0,0,0h-28.1c-1,0-1.8-0.7-1.8-1.7c0-1,0.7-1.8,1.7-1.8c0,0,0.1,0,0.1,0h28.1
		c2.4,0,4.4,1.9,4.5,4.4v3.9C925.3,678.6,923.3,680.6,920.9,680.6 M890.7,643.6l1,1c1.1,1.1,2.6,1.7,4.1,1.7h25.1
		c0.5,0,0.9-0.4,0.9-0.9c0,0,0,0,0,0v-3.5c0-0.5-0.4-0.9-0.9-0.9c0,0,0,0,0,0h-25.1c-1.5,0-3,0.6-4.1,1.7L890.7,643.6z"/>
</g>
</svg>
