<?xml version="1.0" encoding="utf-8"?>
<!-- Generator: Adobe Illustrator 16.0.0, SVG Export Plug-In . SVG Version: 6.00 Build 0)  -->
<!DOCTYPE svg PUBLIC "-//W3C//DTD SVG 1.1//EN" "http://www.w3.org/Graphics/SVG/1.1/DTD/svg11.dtd">
<svg version="1.1" id="Layer_1" xmlns="http://www.w3.org/2000/svg" xmlns:xlink="http://www.w3.org/1999/xlink" x="0px" y="0px"
	 width="137px" height="108px" viewBox="0 0 137 108" enable-background="new 0 0 137 108" xml:space="preserve">
<path d="M59.463,30.627c-0.22,0-0.44-0.082-0.608-0.245c-1.398-1.362-2.167-3.172-2.167-5.098c0-1.925,0.769-3.736,2.167-5.097
	l3.916-3.815c0.982-0.956,2.286-1.482,3.674-1.482h11.816c1.191,0,2.16,0.944,2.16,2.104v1.796c0,1.16-0.969,2.104-2.16,2.104
	H64.807c-0.475,0-0.859-0.375-0.859-0.837s0.384-0.837,0.859-0.837h13.454c0.243,0,0.441-0.193,0.441-0.43v-1.796
	c0-0.237-0.198-0.43-0.441-0.43H66.444c-0.928,0-1.802,0.353-2.458,0.992L60.07,21.37c-1.073,1.045-1.664,2.436-1.664,3.914
	c0,1.479,0.591,2.869,1.664,3.915c0.335,0.327,0.335,0.856,0,1.184C59.902,30.545,59.683,30.627,59.463,30.627"/>
<path d="M78.261,50.572H66.444c-1.388,0-2.692-0.527-3.674-1.483l-3.916-3.815c-1.398-1.362-2.167-3.172-2.167-5.098
	c0-1.925,0.769-3.736,2.167-5.097l4.11-4.004c0.856-0.834,1.995-1.293,3.205-1.293h12.091c1.191,0,2.16,0.944,2.16,2.104v1.69
	c0,1.161-0.969,2.104-2.16,2.104H66.17c-1.21,0-2.349-0.459-3.205-1.293l-0.484-0.472l-2.41,2.348
	c-1.073,1.046-1.664,2.436-1.664,3.914c0,1.479,0.591,2.869,1.664,3.915l3.916,3.814c0.656,0.641,1.53,0.993,2.458,0.993h11.816
	c0.243,0,0.441-0.193,0.441-0.431v-1.901c0-0.237-0.198-0.43-0.441-0.43H64.699c-0.475,0-0.859-0.375-0.859-0.837
	c0-0.462,0.385-0.837,0.859-0.837h13.562c1.191,0,2.16,0.944,2.16,2.104v1.901C80.421,49.628,79.452,50.572,78.261,50.572
	 M63.696,32.73l0.484,0.472c0.531,0.518,1.238,0.804,1.99,0.804h12.091c0.243,0,0.441-0.193,0.441-0.431v-1.69
	c0-0.237-0.198-0.43-0.441-0.43H66.17c-0.751,0-1.458,0.285-1.99,0.803L63.696,32.73z"/>
<polygon points="5.918,67.439 16.038,67.439 16.038,68.618 5.918,68.618 5.918,75.255 16.827,75.255 16.827,76.505 4.61,76.505 
	4.61,59.672 16.53,59.672 16.53,60.899 5.918,60.899 "/>
<path d="M35.098,62.918c-1.258-1.972-3.283-2.261-5.232-2.284c-2.023,0-5.232,0.723-5.232,3.414c0,2.142,2.369,2.646,5.282,3.175
	c3.332,0.626,6.787,1.202,6.787,4.833c-0.024,3.799-3.949,4.715-6.836,4.715c-2.69,0-5.75-1.084-7.083-3.656l1.185-0.576
	c1.061,2.044,3.776,3.053,5.898,3.053s5.504-0.577,5.504-3.559c0.024-2.525-2.838-3.078-5.677-3.607
	c-3.159-0.601-6.392-1.226-6.392-4.328c-0.074-3.559,3.728-4.665,6.565-4.665c2.468,0,4.615,0.385,6.318,2.861L35.098,62.918z"/>
<polygon points="54.775,76.505 53.097,76.505 43.991,68.208 43.991,76.481 42.657,76.481 42.657,59.672 43.991,59.672 
	43.991,67.344 52.381,59.672 53.986,59.672 53.986,59.793 45.298,67.728 54.775,76.409 "/>
<polygon points="62.039,67.439 72.157,67.439 72.157,68.618 62.039,68.618 62.039,75.255 72.948,75.255 72.948,76.505 60.73,76.505 
	60.73,59.672 72.651,59.672 72.651,60.899 62.039,60.899 "/>
<polygon points="80.235,59.672 80.235,75.279 89.961,75.279 89.961,76.505 78.902,76.505 78.902,59.672 "/>
<path d="M111.438,76.505l-1.9-4.137H99.223l-1.876,4.137h-1.432l7.75-16.833h1.455l7.75,16.833H111.438z M109.02,71.166
	l-4.639-10.243L99.74,71.166H109.02z"/>
<polygon points="131.165,76.505 131.165,68.858 120.157,68.858 120.157,76.505 118.825,76.505 118.825,59.672 120.157,59.672 
	120.157,67.68 131.165,67.68 131.165,59.672 132.498,59.672 132.498,76.505 "/>
<path d="M5.001,89.216v1.749H4.61v-5.06h2.219c2.197,0,2.197,3.311,0,3.311H5.001z M5.001,86.266v2.596h1.828
	c1.685,0,1.685-2.596,0-2.596H5.001z"/>
<path d="M10.556,87.395l0.015,0.636c0.225-0.484,0.73-0.672,1.186-0.672c0.268-0.008,0.528,0.064,0.766,0.209l-0.159,0.289
	c-0.188-0.115-0.398-0.167-0.607-0.167c-0.665,0.008-1.178,0.544-1.178,1.193v2.082h-0.354v-3.57H10.556z"/>
<path d="M13.632,89.193c0-1.135,0.809-1.856,1.814-1.856c1.004,0,1.813,0.722,1.813,1.856c0,1.136-0.809,1.829-1.813,1.829
	C14.441,91.022,13.632,90.329,13.632,89.193 M16.913,89.193c0-0.924-0.658-1.525-1.467-1.525c-0.81,0-1.467,0.602-1.467,1.525
	c0,0.925,0.658,1.482,1.467,1.482C16.255,90.676,16.913,90.118,16.913,89.193"/>
<path d="M22.482,85.905v5.06h-0.347v-0.788c-0.296,0.543-0.881,0.846-1.488,0.846c-0.998,0-1.786-0.657-1.786-1.843
	c0-1.179,0.795-1.843,1.793-1.843c0.615,0,1.192,0.261,1.481,0.838v-2.27H22.482z M19.208,89.18c0,0.99,0.658,1.496,1.46,1.496
	c0.838,0,1.46-0.614,1.46-1.504c0-0.889-0.636-1.496-1.46-1.496C19.866,87.676,19.208,88.175,19.208,89.18"/>
<path d="M27.388,90.965v-0.644c-0.275,0.491-0.773,0.693-1.272,0.701c-0.954,0-1.611-0.585-1.611-1.576v-2.06h0.354v2.054
	c0,0.809,0.498,1.243,1.272,1.235c0.737-0.008,1.25-0.563,1.25-1.302v-1.987h0.354v3.578H27.388z"/>
<path d="M32.705,90.487c-0.361,0.361-0.831,0.535-1.301,0.535c-1.004,0-1.836-0.716-1.836-1.843s0.802-1.843,1.836-1.843
	c0.47,0,0.939,0.181,1.301,0.533l-0.224,0.225c-0.29-0.289-0.694-0.427-1.077-0.427c-0.809,0-1.489,0.55-1.489,1.512
	c0,0.961,0.68,1.51,1.489,1.51c0.383,0,0.773-0.15,1.063-0.44L32.705,90.487z"/>
<path d="M35.231,86.317v1.077h1.214v0.295h-1.214v2.176c0,0.485,0.102,0.824,0.658,0.824c0.173,0,0.368-0.058,0.549-0.145
	l0.123,0.289c-0.224,0.108-0.448,0.181-0.672,0.181c-0.759,0-1.005-0.447-1.005-1.149v-2.176h-0.759v-0.295h0.759v-1.041
	L35.231,86.317z"/>
<path d="M38.56,86.231c0,0.375-0.57,0.375-0.57,0C37.989,85.854,38.56,85.854,38.56,86.231 M38.09,90.965h0.354v-3.586H38.09V90.965
	z"/>
<path d="M40.275,89.193c0-1.135,0.81-1.856,1.814-1.856c1.005,0,1.814,0.722,1.814,1.856c0,1.136-0.809,1.829-1.814,1.829
	C41.085,91.022,40.275,90.329,40.275,89.193 M43.557,89.193c0-0.924-0.658-1.525-1.467-1.525c-0.81,0-1.468,0.602-1.468,1.525
	c0,0.925,0.658,1.482,1.468,1.482C42.898,90.676,43.557,90.118,43.557,89.193"/>
<path d="M46.084,87.395v0.636c0.274-0.491,0.773-0.693,1.272-0.701c0.954,0,1.612,0.585,1.612,1.576v2.06h-0.355v-2.054
	c0-0.809-0.499-1.243-1.271-1.235c-0.737,0.008-1.25,0.563-1.25,1.302v1.987h-0.354v-3.57H46.084z"/>
<path d="M56.853,87.126c0-0.794-0.622-0.933-1.294-0.933c-0.968,0-1.432,0.449-1.424,1.021c0.006,0.772,0.832,1.012,1.438,1.012
	h2.147v0.311h-0.462v1.106c0,0.542,0.123,1.025,0.629,1.019v0.304c-0.412,0.058-0.738-0.217-0.846-0.644
	c-0.369,0.601-0.947,0.709-1.489,0.709c-1.228,0-1.872-0.543-1.872-1.409c0-0.63,0.513-1.071,1.02-1.237
	c-0.528-0.158-0.933-0.6-0.933-1.163c0-0.78,0.643-1.344,1.8-1.344c0.809,0,1.626,0.209,1.626,1.249H56.853z M56.939,88.536h-1.388
	c-0.997,0-1.503,0.563-1.503,1.085c0,0.649,0.477,1.068,1.496,1.068c0.579,0,1.395-0.202,1.395-1.047V88.536z"/>
<path d="M66.908,88.378c0.028,1.285-0.796,2.587-2.567,2.587h-1.712v-5.06h1.712C66.054,85.905,66.878,87.134,66.908,88.378
	 M63.019,86.273v4.315h1.322c1.504,0,2.198-1.128,2.176-2.211c-0.021-1.056-0.715-2.104-2.176-2.104H63.019z"/>
<path d="M69.211,86.231c0,0.375-0.57,0.375-0.57,0C68.641,85.854,69.211,85.854,69.211,86.231 M68.742,90.965h0.354v-3.586h-0.354
	V90.965z"/>
<path d="M74.243,87.214l0.232,0.203l-0.369,0.433c0.253,0.275,0.5,0.586,0.5,1.228c0,0.624-0.363,1.36-1.144,1.548
	c0.644,0.145,1.113,0.528,1.113,1.178c0,0.854-0.853,1.31-1.799,1.31c-0.955,0-1.765-0.521-1.765-1.426h0.354
	c0,0.73,0.694,1.085,1.41,1.085s1.452-0.274,1.452-0.969c0-0.7-0.788-0.982-1.452-0.982c-1.077,0-1.843-0.628-1.843-1.743
	c0-1.155,0.982-1.74,1.843-1.74c0.361,0,0.824,0.116,1.097,0.311L74.243,87.214z M71.287,89.077c0,0.963,0.651,1.41,1.49,1.41
	c0.902,0,1.48-0.672,1.48-1.41c0-0.988-0.744-1.409-1.48-1.409C72.09,87.668,71.287,88.103,71.287,89.077"/>
<path d="M76.915,86.231c0,0.375-0.571,0.375-0.571,0C76.344,85.854,76.915,85.854,76.915,86.231 M76.446,90.965h0.353v-3.586h-0.353
	V90.965z"/>
<path d="M79.628,86.317v1.077h1.214v0.295h-1.214v2.176c0,0.485,0.101,0.824,0.657,0.824c0.173,0,0.369-0.058,0.55-0.145
	l0.122,0.289c-0.224,0.108-0.447,0.181-0.672,0.181c-0.758,0-1.004-0.447-1.004-1.149v-2.176h-0.759v-0.295h0.759v-1.041
	L79.628,86.317z"/>
<path d="M85.832,87.395v3.57h-0.354v-0.759c-0.347,0.556-0.882,0.816-1.46,0.816c-0.997,0-1.814-0.752-1.814-1.843
	s0.817-1.829,1.814-1.829c0.578,0,1.163,0.267,1.46,0.824v-0.78H85.832z M82.559,89.18c0,0.896,0.65,1.496,1.46,1.496
	c1.987,0,1.987-2.986,0-2.986C83.209,87.689,82.559,88.283,82.559,89.18"/>
<rect x="87.954" y="85.905" width="0.354" height="5.06"/>
<polygon points="97.783,86.469 95.846,89.433 95.716,89.433 93.764,86.469 93.764,90.965 93.373,90.965 93.373,85.905 
	93.836,85.905 95.773,88.854 97.688,85.905 98.166,85.905 98.166,90.965 97.783,90.965 "/>
<path d="M103.687,87.395v3.57h-0.354v-0.759c-0.347,0.556-0.881,0.816-1.46,0.816c-0.997,0-1.813-0.752-1.813-1.843
	s0.815-1.829,1.813-1.829c0.579,0,1.165,0.267,1.46,0.824v-0.78H103.687z M100.412,89.18c0,0.896,0.651,1.496,1.46,1.496
	c1.987,0,1.987-2.986,0-2.986C101.063,87.689,100.412,88.283,100.412,89.18"/>
<path d="M106.091,87.395l0.016,0.636c0.223-0.484,0.729-0.672,1.185-0.672c0.268-0.008,0.527,0.064,0.767,0.209l-0.159,0.289
	c-0.188-0.115-0.398-0.167-0.607-0.167c-0.665,0.008-1.179,0.544-1.179,1.193v2.082h-0.354v-3.57H106.091z"/>
<polygon points="109.919,85.905 109.919,88.955 111.602,87.395 112.071,87.395 112.071,87.409 110.267,89.077 112.282,90.942 
	112.282,90.965 111.834,90.965 109.919,89.216 109.919,90.965 109.57,90.965 109.57,85.905 "/>
<path d="M113.34,89.18c0-1.07,0.81-1.843,1.814-1.843s1.901,0.613,1.764,2.009h-3.216c0.072,0.839,0.715,1.33,1.452,1.33
	c0.47,0,1.02-0.188,1.286-0.542l0.254,0.203c-0.347,0.455-0.969,0.686-1.54,0.686C114.149,91.022,113.34,90.314,113.34,89.18
	 M116.601,89.035c-0.008-0.882-0.586-1.374-1.446-1.374c-0.737,0-1.373,0.5-1.452,1.374H116.601z"/>
<path d="M119.409,86.317v1.077h1.215v0.295h-1.215v2.176c0,0.485,0.102,0.824,0.657,0.824c0.173,0,0.369-0.058,0.55-0.145
	l0.122,0.289c-0.223,0.108-0.447,0.181-0.672,0.181c-0.758,0-1.005-0.447-1.005-1.149v-2.176h-0.758v-0.295h0.758v-1.041
	L119.409,86.317z"/>
<path d="M122.736,86.231c0,0.375-0.571,0.375-0.571,0C122.165,85.854,122.736,85.854,122.736,86.231 M122.268,90.965h0.354v-3.586
	h-0.354V90.965z"/>
<path d="M125.038,87.395v0.636c0.274-0.491,0.772-0.693,1.271-0.701c0.955,0,1.612,0.585,1.612,1.576v2.06h-0.354v-2.054
	c0-0.809-0.499-1.243-1.271-1.235c-0.738,0.008-1.251,0.563-1.251,1.302v1.987h-0.354v-3.57H125.038z"/>
<path d="M133.028,87.214l0.231,0.203l-0.368,0.433c0.253,0.275,0.498,0.586,0.498,1.228c0,0.624-0.361,1.36-1.142,1.548
	c0.644,0.145,1.113,0.528,1.113,1.178c0,0.854-0.853,1.31-1.801,1.31c-0.952,0-1.763-0.521-1.763-1.426h0.354
	c0,0.73,0.694,1.085,1.408,1.085c0.716,0,1.454-0.274,1.454-0.969c0-0.7-0.788-0.982-1.454-0.982c-1.076,0-1.841-0.628-1.841-1.743
	c0-1.155,0.982-1.74,1.841-1.74c0.363,0,0.824,0.116,1.1,0.311L133.028,87.214z M130.072,89.077c0,0.963,0.65,1.41,1.488,1.41
	c0.904,0,1.482-0.672,1.482-1.41c0-0.988-0.744-1.409-1.482-1.409C130.875,87.668,130.072,88.103,130.072,89.077"/>
</svg>
