<svg id="Layer_1" data-name="Layer 1" xmlns="http://www.w3.org/2000/svg" viewBox="0 0 168.91 35.68"><path d="M3.32,15.9a.9.9,0,0,1-.61-.25,7.07,7.07,0,0,1,0-10.19L6.63,1.64A5.24,5.24,0,0,1,10.3.16H22.12a2.13,2.13,0,0,1,2.16,2.1v1.8a2.13,2.13,0,0,1-2.16,2.1H8.66a.84.84,0,1,1,0-1.67H22.12a.44.44,0,0,0,.44-.43V2.26a.44.44,0,0,0-.44-.43H10.3a3.51,3.51,0,0,0-2.46,1L3.93,6.64a5.42,5.42,0,0,0,0,7.83.83.83,0,0,1,0,1.18.9.9,0,0,1-.61.25" transform="translate(-0.54 -0.16)"/><path d="M22.12,35.84H10.3a5.24,5.24,0,0,1-3.67-1.48L2.71,30.54a7.07,7.07,0,0,1,0-10.19l4.11-4A4.6,4.6,0,0,1,10,15.05H22.12a2.14,2.14,0,0,1,2.16,2.11v1.69A2.13,2.13,0,0,1,22.12,21H10a4.6,4.6,0,0,1-3.21-1.29l-.48-.48L3.93,21.53a5.42,5.42,0,0,0,0,7.83l3.91,3.82a3.51,3.51,0,0,0,2.46,1H22.12a.44.44,0,0,0,.44-.43v-1.9a.44.44,0,0,0-.44-.43H8.56a.84.84,0,1,1,0-1.68H22.12a2.14,2.14,0,0,1,2.16,2.11v1.9a2.13,2.13,0,0,1-2.16,2.1M7.55,18l.49.47a2.81,2.81,0,0,0,2,.81H22.12a.44.44,0,0,0,.44-.44V17.15a.44.44,0,0,0-.44-.43H10a2.83,2.83,0,0,0-2,.81Z" transform="translate(-0.54 -0.16)"/><polygon points="41.44 9.01 51.56 9.01 51.56 10.19 41.44 10.19 41.44 16.82 52.35 16.82 52.35 18.07 40.13 18.07 40.13 1.24 52.05 1.24 52.05 2.47 41.44 2.47 41.44 9.01"/><path d="M71.17,4.64c-1.26-2-3.29-2.26-5.24-2.28s-5.23.72-5.23,3.41C60.7,7.92,63.07,8.42,66,9c3.34.63,6.79,1.2,6.79,4.83,0,3.8-4,4.72-6.84,4.72-2.69,0-5.75-1.09-7.08-3.66L60,14.27c1.06,2,3.77,3.05,5.89,3.05s5.51-.58,5.51-3.56c0-2.53-2.84-3.08-5.68-3.61-3.16-.6-6.39-1.22-6.39-4.33-.07-3.55,3.73-4.66,6.56-4.66,2.47,0,4.62.38,6.32,2.86Z" transform="translate(-0.54 -0.16)"/><polygon points="90.3 18.07 88.62 18.07 79.52 9.78 79.52 18.05 78.18 18.05 78.18 1.24 79.52 1.24 79.52 8.91 87.91 1.24 89.51 1.24 89.51 1.36 80.82 9.3 90.3 17.98 90.3 18.07"/><polygon points="97.56 9.01 107.68 9.01 107.68 10.19 97.56 10.19 97.56 16.82 108.47 16.82 108.47 18.07 96.25 18.07 96.25 1.24 108.17 1.24 108.17 2.47 97.56 2.47 97.56 9.01"/><polygon points="115.76 1.24 115.76 16.85 125.48 16.85 125.48 18.07 114.43 18.07 114.43 1.24 115.76 1.24"/><path d="M147.51,18.23l-1.9-4.14H135.29l-1.88,4.14H132L139.73,1.4h1.46l7.75,16.83Zm-2.42-5.34L140.45,2.65l-4.64,10.24Z" transform="translate(-0.54 -0.16)"/><polygon points="166.69 18.07 166.69 10.43 155.68 10.43 155.68 18.07 154.35 18.07 154.35 1.24 155.68 1.24 155.68 9.25 166.69 9.25 166.69 1.24 168.02 1.24 168.02 18.07 166.69 18.07"/><path d="M41.07,30.94v1.75h-.39V27.63H42.9a1.66,1.66,0,0,1,0,3.31Zm0-3v2.6H42.9a1.3,1.3,0,0,0,0-2.6Z" transform="translate(-0.54 -0.16)"/><path d="M46.62,29.12l0,.64a1.24,1.24,0,0,1,1.18-.67,1.41,1.41,0,0,1,.77.2l-.16.29a1.21,1.21,0,0,0-.61-.16,1.18,1.18,0,0,0-1.17,1.19v2.08h-.36V29.12Z" transform="translate(-0.54 -0.16)"/><path d="M49.7,30.92a1.82,1.82,0,1,1,3.63,0,1.82,1.82,0,1,1-3.63,0m3.28,0a1.47,1.47,0,1,0-2.93,0,1.47,1.47,0,1,0,2.93,0" transform="translate(-0.54 -0.16)"/><path d="M58.55,27.63v5.06H58.2V31.9a1.66,1.66,0,0,1-1.49.85,1.85,1.85,0,0,1,0-3.69,1.57,1.57,0,0,1,1.48.84V27.63Zm-3.27,3.28a1.38,1.38,0,0,0,1.46,1.49,1.5,1.5,0,0,0,0-3,1.38,1.38,0,0,0-1.46,1.51" transform="translate(-0.54 -0.16)"/><path d="M63.46,32.69v-.64a1.45,1.45,0,0,1-1.28.7,1.49,1.49,0,0,1-1.61-1.58V29.11h.36v2.06A1.13,1.13,0,0,0,62.2,32.4a1.24,1.24,0,0,0,1.25-1.3v-2h.35v3.58Z" transform="translate(-0.54 -0.16)"/><path d="M68.77,32.21a1.83,1.83,0,0,1-1.3.54,1.85,1.85,0,0,1,0-3.69,1.83,1.83,0,0,1,1.3.54l-.22.22a1.54,1.54,0,0,0-1.08-.43,1.52,1.52,0,0,0,0,3A1.51,1.51,0,0,0,68.53,32Z" transform="translate(-0.54 -0.16)"/><path d="M71.3,28v1.08h1.21v.3H71.3v2.17c0,.49.1.83.66.83a1.34,1.34,0,0,0,.55-.15l.12.29a1.56,1.56,0,0,1-.67.18c-.76,0-1-.45-1-1.15V29.42h-.76v-.3H71v-1Z" transform="translate(-0.54 -0.16)"/><path d="M74.63,28a.29.29,0,0,1-.57,0,.29.29,0,0,1,.57,0m-.47,4.73h.35V29.11h-.35Z" transform="translate(-0.54 -0.16)"/><path d="M76.34,30.92a1.82,1.82,0,1,1,3.63,0,1.82,1.82,0,1,1-3.63,0m3.28,0a1.47,1.47,0,1,0-2.93,0,1.47,1.47,0,1,0,2.93,0" transform="translate(-0.54 -0.16)"/><path d="M82.15,29.12v.64a1.41,1.41,0,0,1,1.27-.7A1.49,1.49,0,0,1,85,30.63v2.06h-.36v-2a1.15,1.15,0,0,0-1.27-1.24,1.25,1.25,0,0,0-1.25,1.31v2h-.35V29.12Z" transform="translate(-0.54 -0.16)"/><path d="M92.92,28.85c0-.79-.62-.93-1.29-.93-1,0-1.44.45-1.43,1,0,.77.83,1,1.44,1h2.15v.31h-.46v1.11c0,.54.12,1,.62,1v.3a.76.76,0,0,1-.84-.64,1.59,1.59,0,0,1-1.49.71c-1.23,0-1.87-.55-1.87-1.41a1.38,1.38,0,0,1,1-1.24A1.24,1.24,0,0,1,89.83,29c0-.78.65-1.35,1.8-1.35.81,0,1.63.21,1.63,1.25ZM93,30.26H91.62c-1,0-1.5.57-1.5,1.09s.47,1.07,1.49,1.07c.58,0,1.4-.21,1.4-1.05Z" transform="translate(-0.54 -0.16)"/><path d="M103,30.1a2.44,2.44,0,0,1-2.57,2.59H98.7V27.63h1.71A2.44,2.44,0,0,1,103,30.1M99.09,28v4.31h1.32a2.16,2.16,0,1,0,0-4.31Z" transform="translate(-0.54 -0.16)"/><path d="M105.28,28a.29.29,0,0,1-.57,0,.29.29,0,1,1,.57,0m-.47,4.73h.35V29.11h-.35Z" transform="translate(-0.54 -0.16)"/><path d="M110.31,28.94l.23.2-.37.44a1.67,1.67,0,0,1-.64,2.77,1.23,1.23,0,0,1,1.11,1.18c0,.85-.85,1.31-1.8,1.31s-1.76-.52-1.76-1.43h.35c0,.73.7,1.09,1.41,1.09s1.45-.27,1.45-1-.78-1-1.45-1A1.68,1.68,0,0,1,107,30.81a1.76,1.76,0,0,1,1.84-1.74,2,2,0,0,1,1.1.31Zm-3,1.86a1.34,1.34,0,0,0,1.49,1.41,1.41,1.41,0,0,0,1.48-1.41,1.37,1.37,0,0,0-1.48-1.41,1.41,1.41,0,0,0-1.49,1.41" transform="translate(-0.54 -0.16)"/><path d="M113,28a.29.29,0,0,1-.57,0,.29.29,0,0,1,.57,0m-.47,4.73h.36V29.11h-.36Z" transform="translate(-0.54 -0.16)"/><path d="M115.7,28v1.08h1.21v.3H115.7v2.17c0,.49.1.83.65.83a1.26,1.26,0,0,0,.55-.15l.12.29a1.49,1.49,0,0,1-.67.18c-.76,0-1-.45-1-1.15V29.42h-.76v-.3h.76v-1Z" transform="translate(-0.54 -0.16)"/><path d="M121.9,29.12v3.57h-.35v-.76a1.68,1.68,0,0,1-1.46.82,1.84,1.84,0,0,1,0-3.67,1.62,1.62,0,0,1,1.46.82v-.78Zm-3.27,1.79a1.43,1.43,0,0,0,1.46,1.49,1.49,1.49,0,0,0,0-3,1.43,1.43,0,0,0-1.46,1.49" transform="translate(-0.54 -0.16)"/><rect x="123.48" y="27.47" width="0.35" height="5.06"/><polygon points="133.31 28.04 131.37 31 131.24 31 129.29 28.04 129.29 32.53 128.9 32.53 128.9 27.47 129.36 27.47 131.3 30.42 133.21 27.47 133.69 27.47 133.69 32.53 133.31 32.53 133.31 28.04"/><path d="M139.75,29.12v3.57h-.35v-.76a1.67,1.67,0,0,1-1.46.82,1.84,1.84,0,0,1,0-3.67,1.6,1.6,0,0,1,1.46.82v-.78Zm-3.27,1.79a1.43,1.43,0,0,0,1.46,1.49,1.49,1.49,0,1,0,0-3,1.43,1.43,0,0,0-1.46,1.49" transform="translate(-0.54 -0.16)"/><path d="M142.16,29.12v.64a1.25,1.25,0,0,1,1.19-.67,1.41,1.41,0,0,1,.77.2l-.16.29a1.21,1.21,0,0,0-.61-.16,1.18,1.18,0,0,0-1.18,1.19v2.08h-.35V29.12Z" transform="translate(-0.54 -0.16)"/><polygon points="145.44 27.47 145.44 30.52 147.13 28.96 147.59 28.96 147.59 28.98 145.79 30.64 147.81 32.51 147.81 32.53 147.36 32.53 145.44 30.78 145.44 32.53 145.09 32.53 145.09 27.47 145.44 27.47"/><path d="M149.41,30.91a1.8,1.8,0,0,1,1.81-1.85,1.67,1.67,0,0,1,1.77,2h-3.22a1.4,1.4,0,0,0,1.45,1.33,1.7,1.7,0,0,0,1.29-.54l.25.2a2,2,0,0,1-1.54.69,1.76,1.76,0,0,1-1.81-1.84m3.26-.15a1.31,1.31,0,0,0-1.45-1.37,1.43,1.43,0,0,0-1.45,1.37Z" transform="translate(-0.54 -0.16)"/><path d="M155.48,28v1.08h1.21v.3h-1.21v2.17c0,.49.1.83.65.83a1.26,1.26,0,0,0,.55-.15l.13.29a1.57,1.57,0,0,1-.68.18c-.75,0-1-.45-1-1.15V29.42h-.76v-.3h.76v-1Z" transform="translate(-0.54 -0.16)"/><path d="M158.8,28a.29.29,0,0,1-.57,0,.29.29,0,0,1,.57,0m-.46,4.73h.35V29.11h-.35Z" transform="translate(-0.54 -0.16)"/><path d="M161.11,29.12v.64a1.4,1.4,0,0,1,1.27-.7A1.49,1.49,0,0,1,164,30.63v2.06h-.36v-2a1.14,1.14,0,0,0-1.27-1.24,1.25,1.25,0,0,0-1.25,1.31v2h-.35V29.12Z" transform="translate(-0.54 -0.16)"/><path d="M169.1,28.94l.23.2-.37.44a1.6,1.6,0,0,1,.5,1.22,1.55,1.55,0,0,1-1.15,1.55c.65.15,1.12.53,1.12,1.18,0,.85-.86,1.31-1.8,1.31s-1.77-.52-1.77-1.43h.36c0,.73.69,1.09,1.41,1.09s1.45-.27,1.45-1-.79-1-1.45-1a1.68,1.68,0,0,1-1.85-1.74,1.77,1.77,0,0,1,1.85-1.74,2.07,2.07,0,0,1,1.1.31Zm-3,1.86a1.33,1.33,0,0,0,1.49,1.41,1.42,1.42,0,0,0,1.48-1.41,1.37,1.37,0,0,0-1.48-1.41,1.41,1.41,0,0,0-1.49,1.41" transform="translate(-0.54 -0.16)"/></svg>