<svg id="Layer_1" data-name="Layer 1" xmlns="http://www.w3.org/2000/svg" xmlns:xlink="http://www.w3.org/1999/xlink" viewBox="0 0 1920 1080"><defs><style>.cls-1,.cls-3,.cls-5{fill:none;}.cls-2{clip-path:url(#clip-path);}.cls-3,.cls-5{stroke:#229fd7;stroke-miterlimit:10;}.cls-3{stroke-width:0.4px;}.cls-4{clip-path:url(#clip-path-2);}.cls-5{stroke-width:0.38px;}.cls-6{fill:#9499a7;}.cls-7{fill:#c84055;}</style><clipPath id="clip-path"><rect class="cls-1" x="-12" width="1924.85" height="1086.89"/></clipPath><clipPath id="clip-path-2"><rect class="cls-1" x="0.21" y="2.07" width="1900.43" height="1077.89"/></clipPath></defs><g class="cls-2"><path class="cls-3" d="M424.51,167.12a198.51,198.51,0,0,0,48.75-40.2Q533.83,58.6,537-70.18H435.41Q428.77,116,294.67,115.07,220,114.55,190.29,52.58c-16.81-33.94-25.64-75-26.48-122.76H63.14q3.21,126.66,63,194.31a208.8,208.8,0,0,0,51.31,42.37c-20.66-3.45-42.71-7.07-54.67-8.79l-8.34-1.19a2.26,2.26,0,0,0-.89-.3v.3l-17.27,85v.3c.6,0,.89-.3,1.49-.3a143.53,143.53,0,0,1,25-3.88,80.31,80.31,0,0,1,8.64-.3,151.49,151.49,0,0,1,28,2.09c43.77,7.46,87.24,23.27,87.24,23.27,75.33,27.74,77.12,30.72,104.51,38.78a482.89,482.89,0,0,0,79.21,16.1c7.14,0,14.59-.3,22-.89l9.82-79.65a193.47,193.47,0,0,1-25.6,1.79c-36.92.3-69.08-8.35-96.77-25.35C328,206.45,318.56,201.27,310,197.2c44-1,82.09-10.87,114.29-30A.26.26,0,0,0,424.51,167.12Z"/></g><g class="cls-4"><path class="cls-5" d="M-112.36,1474.6c-160.2,83.36-310.4,80.33-363.2,11.39-21.15-27.61-29.28-69.18-25.33-104.68,7.37-66.32,59.18-110.66,106.78-151.21l188.51-160.57c73.88-62.93,151-106.75,242.91-137.49,108-36.14,225.84-47.3,339.74-33.95A811.83,811.83,0,0,1,548.11,937.2c52.51,18.19,105.75,32.54,159.2,48.64,82.5,24.85,165.33,54.62,252.19,58.16q118.1,4.82,229.84-167.17l290.24,171.84q-201.06,471.8-585.64,456.11-115.52-4.71-354.24-89-239.1-84.19-337.76-88.34c-65.94-2.69-119.75,5.48-160.67,23.81Q-20.48,1379.09-112.36,1474.6Z"/></g><path class="cls-6" d="M140,989.82h4.85c1.76,0,3,.1,3.94,1.16a3.94,3.94,0,0,1,1.06,2.81,3.82,3.82,0,0,1-1.14,2.82c-.76.76-1.76,1.24-4.36,1.24H142v6.42h-2Zm2,6.35h2.38c1.32,0,3.34-.1,3.34-2.46s-1.88-2.26-2.92-2.26H142Z"/><path class="cls-6" d="M157.78,1004.27a5.41,5.41,0,0,1-.18-1.5,3.25,3.25,0,0,1-3.1,1.82c-2.3,0-3.54-1.3-3.54-3a3.31,3.31,0,0,1,1.76-2.94,7.83,7.83,0,0,1,3.48-.66c.48,0,.78,0,1.36.06,0-1.24,0-1.78-.36-2.22a2.3,2.3,0,0,0-1.74-.66c-1.9,0-2,1.3-2,1.7h-1.88a3.2,3.2,0,0,1,.7-1.9,4.53,4.53,0,0,1,3.24-1.08c1.46,0,3,.45,3.56,1.48a3,3,0,0,1,.34,1.54l-.08,4.8a23.3,23.3,0,0,0,.16,2.52Zm-1.3-4.94c-.76,0-3.62,0-3.62,2,0,.64.4,1.74,2.08,1.74a2.41,2.41,0,0,0,2.14-1.08,4.72,4.72,0,0,0,.48-2.64A8.32,8.32,0,0,0,156.48,999.33Z"/><path class="cls-6" d="M164.58,1005.05c.08,1.12.57,2,2.35,2,2.62,0,2.66-1.9,2.66-4.62a3.48,3.48,0,0,1-3.3,1.7,3.87,3.87,0,0,1-3.09-1.24,5.63,5.63,0,0,1-1.14-3.7c0-3.4,2-5.06,4.46-5.06a3.51,3.51,0,0,1,3.17,1.52l0-1.38h1.82l0,1.82,0,6.28c0,2.42-.08,3.4-.48,4.16-.84,1.6-2.8,1.8-4.18,1.8-4,0-4.15-1.88-4.23-3.24Zm4.39-3.36c.4-.52.68-1.06.68-2.88a3.33,3.33,0,0,0-.78-2.5,3,3,0,0,0-2.16-.88c-2.39,0-2.71,2.4-2.71,3.68,0,1.54.46,3.58,2.77,3.58A2.53,2.53,0,0,0,169,1001.69Z"/><path class="cls-6" d="M176.15,999.59c0,2.08.82,3.62,2.88,3.62a2.18,2.18,0,0,0,2.36-2.08h1.88a3.41,3.41,0,0,1-.86,2.1,4.35,4.35,0,0,1-3.46,1.34c-3.16,0-4.66-2-4.66-5.14,0-2,.4-3.62,2-4.72A4.85,4.85,0,0,1,179,994c4.5,0,4.4,4,4.36,5.63Zm5.3-1.32c0-1-.16-3-2.48-3a2.69,2.69,0,0,0-2.74,3Z"/><path class="cls-7" d="M156.94,1018.84a23.89,23.89,0,0,0,4.45-2.52h3.09v16.76h-3.62v-13a18.51,18.51,0,0,1-3.92,2.14Z"/><path class="cls-7" d="M1778.49,1037.53c1.16.17,3.35.53,5.35.86,1.41.22,2.74.44,3.54.61.25,0,.53.08.8.14a21.61,21.61,0,0,1,2.33.47,26.59,26.59,0,0,1,5.26,1.52c.83.39,1.75.89,2.91,1.58a16.56,16.56,0,0,0,9,2.35,18.18,18.18,0,0,0,2.38-.16l-.91,7.39a15.58,15.58,0,0,1-3.86-.17c-1.17-.18-2.33-.41-3.47-.69-.7-.16-1.4-.35-2.09-.55-2.55-.75-2.71-1-9.72-3.6a53.44,53.44,0,0,0-8.11-2.16,15.18,15.18,0,0,0-2.61-.2,7,7,0,0,0-.8,0,13.85,13.85,0,0,0-2.33.36c-.05,0-.08,0-.13,0s1.6-7.89,1.6-7.92l.09,0Z"/><path class="cls-7" d="M1784.3,984.32l-4-2.89c2-4.35,4.79-6.53,8.43-6.53a21.87,21.87,0,0,1,5.78,1.16,21.66,21.66,0,0,0,5.57,1.15c1.19,0,2.3-.87,3.35-2.64l4.46,2.4q-2.73,7.18-8.51,7.18A20.83,20.83,0,0,1,1794,983a20.37,20.37,0,0,0-5.12-1.12,5.38,5.38,0,0,0-2.39.46A8.31,8.31,0,0,0,1784.3,984.32Z"/><path class="cls-7" d="M1796.13,989.44a19.72,19.72,0,0,1,14.92,6.19q6,6.25,6.13,19.19t-5.83,19.6c-3.93,4.45-9.3,6.7-16.06,6.75s-12.1-2.12-16-6.49-5.85-10.75-5.9-19.15a33,33,0,0,1,1.94-12.12,20,20,0,0,1,5.26-8.1A23.1,23.1,0,0,1,1796.13,989.44Zm-13.35,25.65q.12,18.58,13,18.5,6.89,0,9.63-5.76a27,27,0,0,0,2.46-12.31,31.16,31.16,0,0,0-2.33-12,10.38,10.38,0,0,0-3.89-4.69,11.79,11.79,0,0,0-6.72-1.68,10.17,10.17,0,0,0-7.07,2.74,14.07,14.07,0,0,0-4,6.55A30.37,30.37,0,0,0,1782.78,1015.09Z"/></svg>