<svg id="Layer_1" data-name="Layer 1" xmlns="http://www.w3.org/2000/svg" xmlns:xlink="http://www.w3.org/1999/xlink" viewBox="0 0 1920 1080"><defs><style>.cls-1,.cls-4{fill:none;}.cls-2{fill:#2a2a68;}.cls-3{clip-path:url(#clip-path);}.cls-4{stroke:#22a4dc;stroke-miterlimit:10;stroke-width:0.52px;}.cls-5{fill:#cd4055;}.cls-6{fill:#fff;}</style><clipPath id="clip-path"><rect class="cls-1" x="4.82" width="1916.18" height="1080"/></clipPath></defs><rect class="cls-2" x="1.01" width="1919.16" height="1080"/><g class="cls-3"><path class="cls-4" d="M-131.59,268.76l-92.22-67.21Q-154.71,49.93-27.93,49.93q46,0,134.42,26.82t129.61,26.9q41.25,0,77.78-61.45L417.53,97.89Q354.11,265,219.77,265,179.42,265,95,239t-119-26c-23,0-41.69,3.61-55.7,10.57S-111.13,245.72-131.59,268.76Z"/></g><path class="cls-5" d="M769,546.61c2.18.31,6.27,1,10,1.6,2.65.41,5.13.83,6.63,1.14.47.1,1,.16,1.5.26a40,40,0,0,1,4.35.88c4,.93,6.58,1.4,9.84,2.85a57.75,57.75,0,0,1,5.44,2.95,31.09,31.09,0,0,0,16.83,4.4,33.33,33.33,0,0,0,4.45-.31l-1.71,13.83a30,30,0,0,1-7.21-.32c-2.18-.34-4.35-.77-6.49-1.29-1.31-.31-2.61-.66-3.9-1-4.77-1.39-5.08-1.91-18.18-6.73a101.38,101.38,0,0,0-15.17-4,27.26,27.26,0,0,0-4.87-.36,14.54,14.54,0,0,0-1.5.05,25.42,25.42,0,0,0-4.35.68c-.1,0-.15.05-.26,0s3-14.76,3-14.81a.39.39,0,0,1,.15,0Z"/><path class="cls-5" d="M779.82,447.1l-7.41-5.4q5.55-12.19,15.75-12.2,3.71,0,10.81,2.16t10.42,2.16c2.22,0,4.3-1.64,6.26-4.94l8.34,4.48q-5.12,13.44-15.91,13.44-3.24,0-10-2.09t-9.57-2.09a10.16,10.16,0,0,0-4.48.85A16,16,0,0,0,779.82,447.1Z"/><path class="cls-5" d="M801.94,456.67a36.86,36.86,0,0,1,27.9,11.6q11.29,11.67,11.47,35.87t-10.9,36.65q-11,12.5-30,12.61T770.5,541.27q-10.89-12.25-11-35.8a62,62,0,0,1,3.63-22.66q3.72-9.78,9.84-15.14A43.13,43.13,0,0,1,801.94,456.67Zm-25,48q.24,34.77,24.35,34.6,12.88-.09,18-10.77,4.7-9.44,4.61-23a58.53,58.53,0,0,0-4.36-22.4,19.56,19.56,0,0,0-7.29-8.78q-4.85-3.19-12.56-3.14a19,19,0,0,0-13.21,5.14A26.23,26.23,0,0,0,779,488.51,57.1,57.1,0,0,0,777,504.64Z"/><path class="cls-6" d="M862.11,609.11H874.4V612H858.83v-23.5h15.06v2.89H862.11v7H873.2v2.83H862.11Z"/><path class="cls-6" d="M906.49,607.78h.1l7.07-19.25h3.55L908,612h-3.05l-9.16-23.5h3.65Z"/><path class="cls-6" d="M943.19,609.11h12.29V612H939.91v-23.5H955v2.89H943.19v7h11.09v2.83H943.19Z"/><path class="cls-6" d="M996.33,607.31h.06V588.53h3.29V612h-4.15l-12.41-19.18h-.07V612h-3.28v-23.5h4.28Z"/><path class="cls-6" d="M1033.54,612h-3.29V591.42h-7.54v-2.89h18.36v2.89h-7.53Z"/><path class="cls-6" d="M1075.79,592.88a5.64,5.64,0,0,0-4.59-2.19c-2.12,0-4.57,1.16-4.57,3.81s2.15,3.26,4.81,4.12c3.15,1,6.9,2.19,6.9,6.87,0,4.88-3.95,7.14-8.13,7.14a9.89,9.89,0,0,1-7.74-3.42l2.56-2.16a6.39,6.39,0,0,0,5.25,2.75c2.19,0,4.7-1.22,4.7-4s-2.58-3.62-5.57-4.55-6.1-2.29-6.1-6.6c0-4.68,4.18-6.71,8.06-6.71a9.21,9.21,0,0,1,6.74,2.69Z"/><path class="cls-6" d="M926.58,539.94v11.17H903.67v-9.19q-7.77,11-22.9,11-21.91,0-21.91-24.45V495.83q0-3.82-3.54-4l-4.52-.28V480h24.88v44.82q0,7.5,2.12,11.31t8.77,3.82a14.3,14.3,0,0,0,10.67-4.1,13.6,13.6,0,0,0,4-9.9V496.11a5,5,0,0,0-.78-3.18,3.8,3.8,0,0,0-2.75-1.06l-4.53-.28V480h24.88v55.42a3.25,3.25,0,0,0,3.54,4.1Z"/><path class="cls-6" d="M937.17,546.87V465.72c0-2.17-1.17-3.31-3.53-3.4l-4.95-.28V450.3h24.89v33.51q6.36-5.94,17.1-5.94,13.29,0,21.07,9t7.77,25.24q0,40.85-34.21,40.85a73.44,73.44,0,0,1-15.48-1.76A47,47,0,0,1,937.17,546.87Zm16.41-45.81v36.62A26.35,26.35,0,0,0,966,540.5q16.11,0,16.11-26.15,0-23.89-15.83-23.9a14.11,14.11,0,0,0-8.91,3A9.27,9.27,0,0,0,953.58,501.06Z"/><path class="cls-6" d="M1070.18,482.82v52.59a4.7,4.7,0,0,0,.78,3.12,4.06,4.06,0,0,0,2.75,1l4.53.29v11.31h-22.48v-8.2l-.42-.14A22.36,22.36,0,0,1,1036,552.94q-14.42,0-21.35-9.19t-6.92-25.16q0-19.23,9.32-30t28-10.75A71.56,71.56,0,0,1,1070.18,482.82Zm-16.39,45.81V492q-4-1.85-10.9-1.84-9.47,0-13.71,7.64T1024.94,518q0,22.9,14.7,22.91a14.18,14.18,0,0,0,10.18-3.75A11.5,11.5,0,0,0,1053.79,528.63Z"/><path class="cls-6" d="M1095.49,535.27V466.42a4.65,4.65,0,0,0-.78-3.11,4,4,0,0,0-2.76-1l-11.42-.28V450.3h31.64v38q7.35-10.45,20.65-10.46c7.15,0,12.7,2.05,16.61,6.15s5.87,10.25,5.87,18.45v36.9l8,.43v11.31H1129.7V540.36l4.67-.42a5.57,5.57,0,0,0,3.11-1.21c.66-.6,1-1.76,1-3.46V506.15q0-7.35-2.33-11.31t-9.05-4q-6.72,0-10.75,4.17a14,14,0,0,0-4,10.11v34.21l8.06.43v11.31h-33.64V540.36l4.66-.42a5.53,5.53,0,0,0,3.11-1.21C1095.16,538.13,1095.49,537,1095.49,535.27Z"/><path class="cls-6" d="M983.8,447.32v4.36h1.81a2,2,0,0,1,1,.2c.21.14.35.42.35,1v6.78h-8v-9.75h-4.29v9.75h-7.19V453.4c0-.55.07-.89.28-1a1.93,1.93,0,0,1,1-.21h1.39v-4.28h-7v16.58h28.13V447.32Z"/><path class="cls-6" d="M902.59,663.11h10.89l6.58,22.64,7.1-22.64h10.59v31.11h-6.63V667.54l-8.47,26.68h-5.51l-8.31-26.68v26.68h-6.24Z"/><path class="cls-6" d="M957.37,662.47c20.54-1.27,18.88,34.39-.09,32.53C937.69,695.79,936.7,662.1,957.37,662.47Zm-5.64,25.13c9.39,8.52,16.27-4.83,12.78-14.85a7.4,7.4,0,0,0-12.82-2.88C948.6,674.2,948.44,682.86,951.73,687.6Z"/><path class="cls-6" d="M976.68,663.11h10.89l6.58,22.64,7.1-22.64h10.59v31.11h-6.63V667.54l-8.48,26.68h-5.5l-8.31-26.68v26.68h-6.24Z"/></svg>