<svg xmlns="http://www.w3.org/2000/svg" viewBox="0 0 179.21 143.42"><defs><style>.cls-1{isolation:isolate;}.cls-2{fill:#ffae00;}.cls-2,.cls-5{mix-blend-mode:multiply;}.cls-3{fill:#383838;}.cls-4{fill:#1d1d1b;}.cls-5{fill:none;stroke:#ffae00;stroke-miterlimit:10;}</style></defs><g class="cls-1"><g id="Layer_2" data-name="Layer 2"><g id="Layer_1-2" data-name="Layer 1"><circle class="cls-2" cx="146.26" cy="139.9" r="3.52"/><circle class="cls-2" cx="171.76" cy="4.79" r="4.79"/><circle class="cls-3" cx="173.67" cy="83.16" r="5.53"/><path class="cls-3" d="M56.11,138.15a4.27,4.27,0,1,1-4.27-4.27A4.27,4.27,0,0,1,56.11,138.15Z"/><path class="cls-4" d="M4.36,77.05a2.22,2.22,0,0,1-2.18,2.26,2.26,2.26,0,0,1,0-4.52A2.22,2.22,0,0,1,4.36,77.05Z"/><path class="cls-2" d="M128.59,45.9a1.71,1.71,0,1,1,0,3.41H119a1.71,1.71,0,1,1,0-3.41Z"/><path class="cls-2" d="M124.56,26.2a1.71,1.71,0,0,1-.62,2.33l-8.28,4.77a1.62,1.62,0,0,1-.85.23,1.7,1.7,0,0,1-.85-3.18l8.27-4.78A1.71,1.71,0,0,1,124.56,26.2Z"/><path class="cls-2" d="M123.94,66.69a1.7,1.7,0,0,1-.86,3.18,1.65,1.65,0,0,1-.85-.23L114,64.87a1.71,1.71,0,0,1,1.7-3Z"/><path d="M114.09,47.31a26.39,26.39,0,0,1-5.4,16.07,43.67,43.67,0,0,0-9.07,26.54v10.29a8.28,8.28,0,0,1-8.28,8.28h-7.7a8.29,8.29,0,0,1-8.28-8.28V89.92a44,44,0,0,0-9.07-26.5,26.61,26.61,0,1,1,47.8-16.11Zm-8.12,14a23.2,23.2,0,0,0-18.83-37.2,23.34,23.34,0,0,0-22.87,23A23,23,0,0,0,69,61.35a47.58,47.58,0,0,1,9.77,27.93H96.18A47.19,47.19,0,0,1,106,61.31Zm-9.76,38.9v-.54l-17.44-2v1.38l17.36,2A4.49,4.49,0,0,0,96.21,100.21Zm0-4V92.69H78.77v1.55Zm-2.14,8-14.69-1.68a4.87,4.87,0,0,0,4.26,2.52h7.7A4.84,4.84,0,0,0,94.07,104.24Z"/><path class="cls-2" d="M108.88,10.52a1.71,1.71,0,0,1,.63,2.33l-4.78,8.27a1.7,1.7,0,0,1-1.48.86,1.78,1.78,0,0,1-.85-.23,1.71,1.71,0,0,1-.62-2.33l4.77-8.27A1.71,1.71,0,0,1,108.88,10.52Z"/><path class="cls-5" d="M108,47.31c0,.64,0,1.28-.09,1.91a1.71,1.71,0,0,1-1.7,1.55H106a1.71,1.71,0,0,1-1.54-1.86c.05-.53.07-1.07.07-1.6A17.08,17.08,0,0,0,87.47,30.25a1.71,1.71,0,0,1,0-3.41A20.5,20.5,0,0,1,108,47.31Z"/><path class="cls-5" d="M105.4,53.15a1.7,1.7,0,0,1,.89,2.24,20.53,20.53,0,0,1-2.49,4.27,1.7,1.7,0,0,1-1.36.68,1.67,1.67,0,0,1-1-.35,1.71,1.71,0,0,1-.33-2.39A16.74,16.74,0,0,0,103.16,54,1.71,1.71,0,0,1,105.4,53.15Z"/><path class="cls-2" d="M96.21,99.67v.54a4.49,4.49,0,0,1-.08.83l-17.36-2V97.68Z"/><polygon class="cls-2" points="96.21 92.69 96.21 96.24 78.77 94.24 78.77 92.69 96.21 92.69"/><path class="cls-2" d="M79.38,102.56l14.69,1.68a4.84,4.84,0,0,1-2.73.84h-7.7A4.87,4.87,0,0,1,79.38,102.56Z"/><path class="cls-2" d="M89.18,6.49v9.56a1.71,1.71,0,0,1-3.41,0V6.49a1.71,1.71,0,0,1,3.41,0Z"/><path class="cls-5" d="M82.26,73.55a1.71,1.71,0,0,1-1.09,2.16,1.89,1.89,0,0,1-.53.08A1.71,1.71,0,0,1,79,74.62,50.54,50.54,0,0,0,71.17,59.7a20.74,20.74,0,0,1-1.91-3,1.71,1.71,0,0,1,3-1.57,16.72,16.72,0,0,0,1.6,2.52A54,54,0,0,1,82.26,73.55Z"/><path class="cls-2" d="M73.17,19.42a1.71,1.71,0,1,1-3,1.7l-4.77-8.27a1.7,1.7,0,1,1,3-1.7Z"/><path class="cls-5" d="M70.6,49.88a1.71,1.71,0,0,1-1.43,1.94h-.26a1.69,1.69,0,0,1-1.68-1.45A20.85,20.85,0,0,1,67,47.12a1.71,1.71,0,1,1,3.41,0A19.07,19.07,0,0,0,70.6,49.88Z"/><path class="cls-2" d="M61,30.35a1.71,1.71,0,0,1,.62,2.33,1.7,1.7,0,0,1-2.33.62L51,28.53a1.71,1.71,0,0,1,1.71-3Z"/><path class="cls-2" d="M61.61,62.54A1.71,1.71,0,0,1,61,64.87l-8.27,4.77a1.65,1.65,0,0,1-.85.23A1.69,1.69,0,0,1,50.39,69,1.71,1.71,0,0,1,51,66.69l8.27-4.78A1.7,1.7,0,0,1,61.61,62.54Z"/><path class="cls-2" d="M55.91,45.9a1.71,1.71,0,1,1,0,3.41H46.36a1.71,1.71,0,1,1,0-3.41Z"/></g></g></g></svg>