<?xml version="1.0" encoding="utf-8"?>
<!-- Generator: Adobe Illustrator 24.3.0, SVG Export Plug-In . SVG Version: 6.00 Build 0)  -->
<svg version="1.1" id="Layer_1" xmlns="http://www.w3.org/2000/svg" xmlns:xlink="http://www.w3.org/1999/xlink" x="0px" y="0px"
	 viewBox="0 0 29.3 190.6" style="enable-background:new 0 0 29.3 190.6;" xml:space="preserve">
<style type="text/css">
	.st0{fill:none;stroke:#E8E7E7;stroke-width:1.65;stroke-linecap:round;stroke-linejoin:round;}
</style>
<g id="Layer_2_1_">
	<g id="Layer_1-2">
		<path class="st0" d="M4.8,186.9l-2.1-2.4c-0.2-0.2-0.5-0.4-0.8-0.3c-0.3,0-0.6,0.2-0.7,0.6l-1.3,2.8"/>
		<path class="st0" d="M29.5,188l-1.3-2.9c-0.1-0.3-0.4-0.5-0.7-0.5c-0.3,0-0.6,0.1-0.8,0.3l-2.1,2.4"/>
		<line class="st0" x1="14.6" y1="172.8" x2="14.6" y2="196.4"/>
		<line class="st0" x1="14.6" y1="-5.7" x2="14.6" y2="166.5"/>
		<path class="st0" d="M27.2,185.8c-1.2,6.9-7.8,11.6-14.7,10.4c-5.4-0.9-9.7-5.2-10.5-10.7"/>
		<line class="st0" x1="10.5" y1="177.2" x2="18.8" y2="177.2"/>
		<path class="st0" d="M17.8,169.6c0,1.8-1.4,3.2-3.2,3.2s-3.2-1.4-3.2-3.2s1.4-3.2,3.2-3.2S17.8,167.8,17.8,169.6z"/>
	</g>
</g>
</svg>
