<?xml version="1.0" encoding="utf-8"?>
<!-- Generator: Adobe Illustrator 24.3.0, SVG Export Plug-In . SVG Version: 6.00 Build 0)  -->
<svg version="1.1" id="Layer_1" xmlns="http://www.w3.org/2000/svg" xmlns:xlink="http://www.w3.org/1999/xlink" x="0px" y="0px"
	 viewBox="0 0 109.2 42.6" style="enable-background:new 0 0 109.2 42.6;" xml:space="preserve">
<style type="text/css">
	.st0{fill:none;stroke:#E8E7E7;stroke-width:3.08;stroke-linecap:round;stroke-linejoin:round;}
</style>
<g id="Layer_2_1_">
	<g id="Layer_1-2">
		<path class="st0" d="M-5.3,1.5C3.5,4,10.4,10.8,19,13.2c9.7,2.7,16-2.4,23.9-7.2c6.5-4,14-7.8,21.9-6.9c8.5,1,15.2,7.7,22.9,10.8
			c8.9,3.6,18.7,4.2,26.9-1.6"/>
		<path class="st0" d="M-5.5,30.9c9.6,6.1,20,13.9,32.9,12.6c10.4-1.3,18.2-9.1,27.2-13c11.7-3.9,22.1,3.9,32.4,10.4
			c9.1,3.9,19.5,3.9,27.5-2.2"/>
	</g>
</g>
</svg>
