<?xml version="1.0" encoding="utf-8"?>
<!-- Generator: Adobe Illustrator 24.3.0, SVG Export Plug-In . SVG Version: 6.00 Build 0)  -->
<svg version="1.1" id="Layer_1" xmlns="http://www.w3.org/2000/svg" xmlns:xlink="http://www.w3.org/1999/xlink" x="0px" y="0px"
	 viewBox="0 0 191.9 56.8" style="enable-background:new 0 0 191.9 56.8;" xml:space="preserve">
<style type="text/css">
	.st0{fill:none;stroke:#E8E7E7;stroke-width:2.16;stroke-linecap:round;stroke-linejoin:round;}
</style>
<g id="Layer_2_1_">
	<g id="Layer_1-2">
		<path class="st0" d="M203.8,1.3c-5.9,1.9-10.2,8.3-16.6,8.3c-7.5,0-15-5.3-21.4-9.6c-6.8-3.2-14.6-3.2-21.4,0
			c-7.5,3.2-12.8,9.6-21.4,9.6c-6.4,0-11.7-5.3-17.1-8.6C94.3-5.3,81.5,0.1,70.8,7.5c-4.6,2.5-10.1,2.9-15,1.1
			c-10.7-6.4-21.4-16-34.2-8.6C12,6.5-0.8,12.9-11.9,5"/>
		<path class="st0" d="M203.8,26.4c-7,4.6-16.6,11.1-25.1,6.8l-16-9.7c-12.8-5.3-23.5,6.4-35.2,10.7c-3.2,1.1-6.4,1.1-8.6,0
			c-10.7-5.3-21.4-16-34.1-9.6c-9.6,5.3-20.3,13.9-32,7.5c-6.5-4.3-12.9-8.5-20.4-9.6c-9.6,0-16,6.4-24.6,10.7
			c-6.7,2.1-14,1-19.7-3.1"/>
		<path class="st0" d="M203.8,51.4c-5.9,3.1-12.3,8.4-20.9,7.4c-6.4-1.1-11.7-5.3-17.1-8.6c-10.7-5.3-22.4-1.1-32,6.4
			c-4.3,3.2-9.6,3.2-15,2.1c-10.7-4.3-19.2-12.8-31-10.7c-8.5,1.1-12.8,8.6-20.3,10.7c-4.3,0-8.6,1.1-11.7,0
			C46.3,55.6,38.8,46,28.1,48.1c-12.8,3.2-25.7,17.1-40,7"/>
	</g>
</g>
</svg>
