<svg xmlns="http://www.w3.org/2000/svg" viewBox="0 0 74.11 111.43"><g id="Layer_2" data-name="Layer 2"><g id="Layer_1-2" data-name="Layer 1"><path d="M8.67,49.15a2.71,2.71,0,0,1-1.9-.77,22.1,22.1,0,0,1,0-31.84L19,4.63A16.29,16.29,0,0,1,30.47,0h36.9a6.67,6.67,0,0,1,6.74,6.57v5.61a6.67,6.67,0,0,1-6.74,6.57h-42a2.62,2.62,0,1,1,0-5.23h42a1.35,1.35,0,0,0,1.37-1.34V6.57a1.35,1.35,0,0,0-1.37-1.34H30.47a10.93,10.93,0,0,0-7.68,3.1L10.56,20.24a17,17,0,0,0,0,24.44,2.57,2.57,0,0,1,0,3.7,2.71,2.71,0,0,1-1.89.77"/><path d="M67.37,111.43H30.47A16.29,16.29,0,0,1,19,106.8L6.77,94.89a22.1,22.1,0,0,1,0-31.84L19.6,50.54a14.29,14.29,0,0,1,10-4H67.37a6.67,6.67,0,0,1,6.74,6.58v5.27a6.67,6.67,0,0,1-6.74,6.58H29.61a14.29,14.29,0,0,1-10-4l-1.51-1.48-7.53,7.34a17,17,0,0,0,0,24.44L22.79,103.1a10.93,10.93,0,0,0,7.68,3.1h36.9a1.35,1.35,0,0,0,1.37-1.34V98.92a1.35,1.35,0,0,0-1.37-1.34H25a2.62,2.62,0,1,1,0-5.23H67.37a6.67,6.67,0,0,1,6.74,6.57v5.94a6.67,6.67,0,0,1-6.74,6.57M21.88,55.72l1.52,1.47a8.82,8.82,0,0,0,6.21,2.51H67.37a1.36,1.36,0,0,0,1.37-1.35V53.08a1.36,1.36,0,0,0-1.37-1.35H29.61a8.82,8.82,0,0,0-6.21,2.51Z"/></g></g></svg>