<svg id="Layer_1" data-name="Layer 1" xmlns="http://www.w3.org/2000/svg" viewBox="0 0 1920 1080"><defs><style>.cls-1,.cls-2{fill:none;}.cls-1,.cls-2,.cls-3{stroke:#d1d2d3;stroke-linecap:round;stroke-linejoin:round;}.cls-1{stroke-width:2px;}.cls-3{fill:#fdbd2e;}.cls-4{fill:#f7b72e;}.cls-5{fill:#fff;}</style></defs><rect width="1920" height="1080"/><line class="cls-1" x1="1659.67" y1="999.9" x2="1493.46" y2="999.9"/><line class="cls-1" x1="1694.79" y1="999.9" x2="1673.32" y2="999.9"/><path class="cls-2" d="M1603.22,820h0A15.18,15.18,0,0,1,1588,835.17h-23.13A15.19,15.19,0,0,1,1549.72,820h0"/><line class="cls-2" x1="1495.37" y1="737" x2="1533.64" y2="737"/><path class="cls-2" d="M1508,737v65.56a17.05,17.05,0,0,0,17,17.06h98.34a17.06,17.06,0,0,0,17.06-17.06v-54a17.06,17.06,0,0,0-17.06-17.06h-38.16a13.53,13.53,0,0,1-7.91-2.54l-20-14.31A14.2,14.2,0,0,0,1549,712h-53.82"/><polyline class="cls-2" points="1641.28 760.39 1648.58 760.39 1663.24 747.66 1671.05 747.66 1671.05 805.81 1663.24 805.81 1647.75 792.01 1640.77 792.01"/><line class="cls-2" x1="1536.52" y1="806.55" x2="1562.88" y2="806.55"/><path class="cls-2" d="M1494.92,710.64v30.72a6.42,6.42,0,0,1-6.42,6.42h0a6.42,6.42,0,0,1-6.42-6.42v-34a6.41,6.41,0,0,1,6.42-6.42h0a6.41,6.41,0,0,1,6.42,6.42v3.32"/><path class="cls-3" d="M1603.22,820h0A15.18,15.18,0,0,1,1588,835.17h-23.13A15.19,15.19,0,0,1,1549.72,820h0"/><line class="cls-2" x1="1589.04" y1="835.99" x2="1652.99" y2="999.9"/><line class="cls-2" x1="1500.54" y1="999.9" x2="1564.49" y2="835.99"/><line class="cls-2" x1="1538.86" y1="999.9" x2="1573.22" y2="835.99"/><line class="cls-2" x1="1580.31" y1="835.99" x2="1614.68" y2="999.9"/><rect class="cls-4" x="133.77" y="955.89" width="432.83" height="9.63"/><path class="cls-5" d="M137.6,971.76V929.59h29.83v6.58H144.35V949h21.93v6.27H144.35v16.47Z"/><path class="cls-5" d="M175.14,929.9a4.06,4.06,0,0,1,3.86,0,3.45,3.45,0,0,1,1.92,3.37,3.52,3.52,0,0,1-1.92,3.41,4,4,0,0,1-3.86,0,3.51,3.51,0,0,1-1.93-3.41A3.44,3.44,0,0,1,175.14,929.9Zm-1.21,12v29.86h6.21V941.9Z"/><path class="cls-5" d="M211.11,971.76V955.83a8.92,8.92,0,0,0-2.11-6.24,7.54,7.54,0,0,0-5.9-2.32,7.71,7.71,0,0,0-6,2.59,9.12,9.12,0,0,0-2.35,6.33v15.57h-6.2V942h5.66l.36,4.34a13,13,0,0,1,10-4.76,12,12,0,0,1,9.19,3.8q3.59,3.79,3.59,10.43v16Z"/><path class="cls-5" d="M249.19,942h6v29.74h-5.91l-.3-4.83a9.26,9.26,0,0,1-4.31,4.16,13.16,13.16,0,0,1-5.93,1.45,14.89,14.89,0,0,1-11-4.1q-4.28-4.17-4.28-11.58,0-7.25,4.37-11.37a15.35,15.35,0,0,1,11-4.13,12.7,12.7,0,0,1,6,1.44,9.88,9.88,0,0,1,4.16,3.92Zm-16.69,7.69a9.48,9.48,0,0,0-2.77,7.15A9.6,9.6,0,0,0,232.5,964a9.43,9.43,0,0,0,6.87,2.71,10,10,0,0,0,4.73-1.09,7.59,7.59,0,0,0,3.13-2.83A13.49,13.49,0,0,0,248.8,959a8.73,8.73,0,0,0,0-4.19,13.33,13.33,0,0,0-1.57-3.86,7.68,7.68,0,0,0-3.13-2.84,10.11,10.11,0,0,0-4.73-1.08A9.49,9.49,0,0,0,232.5,949.71Z"/><path class="cls-5" d="M286.19,971.76V955.83a9,9,0,0,0-2.11-6.24,7.58,7.58,0,0,0-5.91-2.32,7.67,7.67,0,0,0-6,2.59,9.08,9.08,0,0,0-2.35,6.33v15.57h-6.21V942h5.66l.37,4.34a13,13,0,0,1,10-4.76,12,12,0,0,1,9.19,3.8q3.58,3.79,3.58,10.43v16Z"/><path class="cls-5" d="M325.53,967.9a15.48,15.48,0,0,1-11.27,4.64,15.91,15.91,0,0,1-11.2-4.1q-4.47-4.11-4.46-11.52t4.46-11.52a15.87,15.87,0,0,1,11.2-4.1A14.7,14.7,0,0,1,325,945.7l-4,4.16a9.16,9.16,0,0,0-6.69-2.65,9.29,9.29,0,0,0-6.81,2.68,9.48,9.48,0,0,0-2.71,7,9.23,9.23,0,0,0,2.71,7.06,9.55,9.55,0,0,0,6.75,2.53,9.4,9.4,0,0,0,7.05-2.78Z"/><path class="cls-5" d="M332.28,929.9a4,4,0,0,1,3.85,0,3.44,3.44,0,0,1,1.93,3.37,3.51,3.51,0,0,1-1.93,3.41,4,4,0,0,1-3.85,0,3.51,3.51,0,0,1-1.93-3.41A3.44,3.44,0,0,1,332.28,929.9Zm-1.21,12v29.86h6.21V941.9Z"/><path class="cls-5" d="M369.58,942h6v29.74h-5.9l-.3-4.83a9.31,9.31,0,0,1-4.31,4.16,13.2,13.2,0,0,1-5.94,1.45,14.91,14.91,0,0,1-11-4.1q-4.28-4.17-4.27-11.58,0-7.25,4.37-11.37a15.32,15.32,0,0,1,11-4.13,12.77,12.77,0,0,1,6,1.44,10,10,0,0,1,4.16,3.92Zm-16.7,7.69a9.52,9.52,0,0,0-2.77,7.15,9.64,9.64,0,0,0,2.77,7.18,9.43,9.43,0,0,0,6.87,2.71,10,10,0,0,0,4.73-1.09,7.68,7.68,0,0,0,3.14-2.83,13.77,13.77,0,0,0,1.56-3.83,8.49,8.49,0,0,0,0-4.19,13.59,13.59,0,0,0-1.56-3.86,7.77,7.77,0,0,0-3.14-2.84,10.08,10.08,0,0,0-4.73-1.08A9.49,9.49,0,0,0,352.88,949.71Z"/><path class="cls-5" d="M390.48,929.59v42.17h-6.2V929.59Z"/><path class="cls-5" d="M450.2,935.23a22.94,22.94,0,0,1,5.6,15.6,24.67,24.67,0,0,1-1.36,8.23,22.31,22.31,0,0,1-3.91,7,17.42,17.42,0,0,1-6.78,4.85,24.22,24.22,0,0,1-9.52,1.78,23.5,23.5,0,0,1-9.52-1.84,17.9,17.9,0,0,1-6.78-4.91A22.61,22.61,0,0,1,414,959a24.22,24.22,0,0,1-1.35-8.11q0-9.66,6.08-15.9t15.61-6.24Q444.6,928.81,450.2,935.23Zm-29.92,21.3a16.1,16.1,0,0,0,2.62,4.94,12.22,12.22,0,0,0,4.67,3.62,15.57,15.57,0,0,0,6.66,1.36q7.41,0,11.14-4.43A16.56,16.56,0,0,0,449.11,951a19.22,19.22,0,0,0-1.48-7.6,13.68,13.68,0,0,0-4.94-5.94,14.42,14.42,0,0,0-8.34-2.51q-7.11,0-11.06,4.47t-4,11.58A19.31,19.31,0,0,0,420.28,956.53Z"/><path class="cls-5" d="M465.86,971.76V947.87H460.2v-5.49h5.66v-2.17q0-5.37,3-8.32a10.53,10.53,0,0,1,7.74-3,12.86,12.86,0,0,1,7.3,2.35l-2.41,4.65a8.38,8.38,0,0,0-4.52-1.57,4.45,4.45,0,0,0-3.53,1.48,6.46,6.46,0,0,0-1.29,4.37v2.17h9v5.49h-9v23.89Z"/><path class="cls-5" d="M489.36,971.76V947.87h-5.67v-5.49h5.67v-2.17q0-5.37,3-8.32a10.53,10.53,0,0,1,7.74-3,12.91,12.91,0,0,1,7.3,2.35L505,935.93a8.33,8.33,0,0,0-4.51-1.57,4.43,4.43,0,0,0-3.53,1.48,6.46,6.46,0,0,0-1.3,4.37v2.17h9v5.49h-9v23.89Z"/><path class="cls-5" d="M513.88,959.21a7.9,7.9,0,0,0,3,5.43,10.48,10.48,0,0,0,6.66,2.05,14.1,14.1,0,0,0,4.85-.88,9.1,9.1,0,0,0,3.77-2.32l4,3.92a14.8,14.8,0,0,1-5.7,3.74,19.53,19.53,0,0,1-7.08,1.33q-7.29,0-11.66-4.28t-4.37-11.46A14.87,14.87,0,0,1,523,941.24q7.47,0,11.63,4.58T538,959.21ZM532,954a7.06,7.06,0,0,0-2.62-5.31,10.83,10.83,0,0,0-12.17,0A8.55,8.55,0,0,0,514,954Z"/><path class="cls-5" d="M550.09,942l.43,3.92c1.72-3.06,4.64-4.58,8.73-4.58a10.57,10.57,0,0,1,7.35,2.53l-2.83,5.43a8,8,0,0,0-5.24-1.81,8.13,8.13,0,0,0-5.73,2.11,7.82,7.82,0,0,0-2.28,6v16.11h-6.21V942Z"/></svg>