<svg id="Layer_1" data-name="Layer 1" xmlns="http://www.w3.org/2000/svg" viewBox="0 0 1920 1080"><defs><style>.cls-1{fill:#f7b72e;}.cls-2{fill:none;stroke:#d1d2d3;stroke-linecap:round;stroke-linejoin:round;stroke-width:2px;}.cls-3{fill:#fff;}</style></defs><rect class="cls-1" x="1553.79" y="94" width="244.21" height="40.77"/><line class="cls-2" x1="228.43" y1="187.75" x2="269.98" y2="186.99"/><line class="cls-2" x1="328.84" y1="185.92" x2="370.39" y2="185.17"/><path class="cls-2" d="M270,187a15.71,15.71,0,0,1,21.54-14.86"/><path class="cls-2" d="M285.39,171a27,27,0,0,1,26.49-27.47"/><line class="cls-2" x1="1597.16" y1="452.11" x2="1612.98" y2="452.11"/><path class="cls-3" d="M891.72,532.49V484.17l15.78,9.11V444.76a63.57,63.57,0,1,0,0,127.13V523.37Zm0,0"/><path class="cls-3" d="M907.5,444.76v48.52l26,15.05-26,15v48.52a63.57,63.57,0,0,0,0-127.13Zm0,0"/><path class="cls-3" d="M818.12,609.32a5.13,5.13,0,0,1-1.73-1.35,5.53,5.53,0,0,1-1-2,8.7,8.7,0,0,1-.34-2.43,8.58,8.58,0,0,1,.34-2.42,5.49,5.49,0,0,1,1-2,5,5,0,0,1,1.73-1.34,6.13,6.13,0,0,1,4.85,0,5,5,0,0,1,1.73,1.34,5.49,5.49,0,0,1,1,2,8.58,8.58,0,0,1,.34,2.42,8.7,8.7,0,0,1-.34,2.43,5.53,5.53,0,0,1-1,2,5.13,5.13,0,0,1-1.73,1.35,6.25,6.25,0,0,1-4.85,0Zm5.4-2.34a5.65,5.65,0,0,0,.93-3.41,5.73,5.73,0,0,0-.93-3.41,4.08,4.08,0,0,0-5.95,0,5.73,5.73,0,0,0-.93,3.41,5.65,5.65,0,0,0,.93,3.41,4.12,4.12,0,0,0,5.95,0ZM820,591.76v2.91h-1.49v-2.91Zm3.7,0v2.91h-1.49v-2.91Z"/><path class="cls-3" d="M842.16,608.2c.07,0,.1.13.1.3v.77a.32.32,0,0,1-.06.2.52.52,0,0,1-.34.07h-1.17a3.79,3.79,0,0,1-.81-.11,4.22,4.22,0,0,1-1.68-.87,1.61,1.61,0,0,1-.47-.69,3.11,3.11,0,0,1-.17.74,3.37,3.37,0,0,1-.52.93H829v-1.39h7.28v-3.78a8.55,8.55,0,0,0-.22-2,5.14,5.14,0,0,0-.71-1.67,3.44,3.44,0,0,0-1.28-1.14,4,4,0,0,0-1.94-.43h-2v-1.39h1.67a6.76,6.76,0,0,1,2.36.4,5,5,0,0,1,1.9,1.22,5.62,5.62,0,0,1,1.27,2.06,8.4,8.4,0,0,1,.46,2.94v.57a3.51,3.51,0,0,0,.87,2.35,2.81,2.81,0,0,0,2.12.86h1.14A.62.62,0,0,1,842.16,608.2Z"/><path class="cls-3" d="M841.52,609.47a.32.32,0,0,1-.06-.2v-.77c0-.17,0-.27.1-.3a.62.62,0,0,1,.3-.05H845a4.92,4.92,0,0,1-1-1.42,4.65,4.65,0,0,1-.38-2,4.53,4.53,0,0,1,1-3.13,3.57,3.57,0,0,1,2.5-1.22,6.31,6.31,0,0,1,2-2.2,4.94,4.94,0,0,1,2.89-.88,6.29,6.29,0,0,1,2.49.45,4.51,4.51,0,0,1,1.73,1.26,5.45,5.45,0,0,1,1,2,9.8,9.8,0,0,1,.32,2.58v5.94H841.86A.52.52,0,0,1,841.52,609.47Zm4.18-7a3.28,3.28,0,0,0-.66,2.3,4.15,4.15,0,0,0,.21,1.39,2.91,2.91,0,0,0,.56,1,2.3,2.3,0,0,0,.78.56,2,2,0,0,0,.84.19,2,2,0,0,0,.85-.19,2.27,2.27,0,0,0,.77-.56,2.75,2.75,0,0,0,.56-1,4.15,4.15,0,0,0,.21-1.39,3.28,3.28,0,0,0-.66-2.3,2.54,2.54,0,0,0-3.46,0Zm5.15,4.27a4.6,4.6,0,0,1-1,1.42h6.22V603.6a5.29,5.29,0,0,0-1.1-3.68,3.8,3.8,0,0,0-3-1.2,3.33,3.33,0,0,0-1.95.59,5.16,5.16,0,0,0-1.33,1.3,3.47,3.47,0,0,1,1.8,1.46,4.82,4.82,0,0,1,.69,2.69A4.65,4.65,0,0,1,850.85,606.73Z"/><path class="cls-3" d="M865.45,608.2c.11,0,.16.13.16.3v.77c0,.18-.17.27-.52.27h-4V591.76h1.49v16.39h2.54A1,1,0,0,1,865.45,608.2Z"/><path class="cls-3" d="M869.29,599.94h1.47v4.82a3.37,3.37,0,0,0,.85,2.47,2.84,2.84,0,0,0,2.14.87,2.79,2.79,0,0,0,2.21-.75,3.35,3.35,0,0,0,.65-2.24v-5.64h1.51v5.59a3,3,0,0,0,.25,1.21,3.17,3.17,0,0,0,.67,1,3.1,3.1,0,0,0,1,.63,3.17,3.17,0,0,0,1.2.23,3,3,0,0,0,2.29-.75,3.11,3.11,0,0,0,.72-2.24v-5.64h1.52v4.7a7.81,7.81,0,0,0,.15,1.59,3.94,3.94,0,0,0,.48,1.26,2.55,2.55,0,0,0,.87.83,2.62,2.62,0,0,0,1.29.3h1.21a.58.58,0,0,1,.3.05c.07,0,.1.13.1.3v.77a.32.32,0,0,1-.06.2s-.15.07-.34.07h-1.21a3.21,3.21,0,0,1-1.2-.21,3.1,3.1,0,0,1-.91-.56,3.28,3.28,0,0,1-.63-.8,3.62,3.62,0,0,1-.37-.92,3.8,3.8,0,0,1-1.53,1.93,4.52,4.52,0,0,1-2.4.63,4.1,4.1,0,0,1-2.34-.64,4,4,0,0,1-1.44-1.64,3.52,3.52,0,0,1-1.46,1.72,4.32,4.32,0,0,1-2.25.56,4,4,0,0,1-2.25-.59,3.8,3.8,0,0,1-1.38-1.57,3,3,0,0,1-1.18,1.63,3.3,3.3,0,0,1-1.76.46h-2.23c-.19,0-.3,0-.34-.07a.32.32,0,0,1-.06-.2v-.77c0-.17,0-.27.1-.3a.58.58,0,0,1,.3-.05h2.26a1.54,1.54,0,0,0,1.33-.69,4.12,4.12,0,0,0,.48-2.3Zm6.87-8.18v2.91h-1.49v-2.91Zm1.86-3.83v2.91h-1.49v-2.91Zm1.84,3.83v2.91h-1.49v-2.91Z"/><path class="cls-3" d="M905.45,609a2.59,2.59,0,0,1-1.31-1.84,5,5,0,0,1-1.83,2.27,5.67,5.67,0,0,1-3.17.82,5.73,5.73,0,0,1-3.18-.82,4.76,4.76,0,0,1-1.82-2.27,2.65,2.65,0,0,1-1.32,1.84,5.35,5.35,0,0,1-2.46.5h-.6c-.18,0-.29,0-.33-.07a.32.32,0,0,1-.06-.2v-.77c0-.17,0-.27.1-.3a.56.56,0,0,1,.29-.05h.6a3.07,3.07,0,0,0,2.38-1,4.37,4.37,0,0,0,.88-3,8,8,0,0,1,.36-2.48,5.39,5.39,0,0,1,1.06-1.93,4.7,4.7,0,0,1,1.73-1.26,6.49,6.49,0,0,1,4.75,0,4.74,4.74,0,0,1,1.72,1.26,5.39,5.39,0,0,1,1.06,1.93,8,8,0,0,1,.36,2.48,4.32,4.32,0,0,0,.89,3,3.05,3.05,0,0,0,2.37,1h.6a.62.62,0,0,1,.3.05c.06,0,.1.13.1.3v.77a.27.27,0,0,1-.07.2s-.15.07-.33.07h-.6A5.46,5.46,0,0,1,905.45,609Zm-9.17-8.33a6.18,6.18,0,0,0,0,6.95,4.11,4.11,0,0,0,5.72,0,6.18,6.18,0,0,0,0-6.95,4.08,4.08,0,0,0-5.72,0Z"/><path class="cls-3" d="M908.52,609.54c-.18,0-.3,0-.34-.07a.32.32,0,0,1-.06-.2v-.77c0-.17,0-.27.1-.3a.62.62,0,0,1,.3-.05h1.89a2.23,2.23,0,0,0,1.76-.74,3.55,3.55,0,0,0,.65-2.37V591.76h1.47v12.41a4.83,4.83,0,0,0,.22,1.46,4,4,0,0,0,.66,1.29,3.49,3.49,0,0,0,1,.89,2.66,2.66,0,0,0,1.35.34h1a.56.56,0,0,1,.29.05c.07,0,.1.13.1.3v.77a.32.32,0,0,1-.06.2s-.15.07-.33.07h-1a4.54,4.54,0,0,1-1.22-.16,4.33,4.33,0,0,1-1.1-.46,3.69,3.69,0,0,1-.85-.71,2.42,2.42,0,0,1-.51-.91,3.17,3.17,0,0,1-1.43,1.75,4.35,4.35,0,0,1-2.06.49Z"/><path class="cls-3" d="M923.14,591.76h1.49v17.78h-6.06c-.19,0-.3,0-.34-.07a.32.32,0,0,1-.06-.2v-.77c0-.17,0-.27.1-.3a.58.58,0,0,1,.3-.05h4.57Z"/><path class="cls-3" d="M935.27,612.77q-2.17-2.68-2.18-8V603.1h1.49v1.64a18.9,18.9,0,0,0,.38,4,8.06,8.06,0,0,0,1.18,2.9,5.13,5.13,0,0,0,2.09,1.77,7.37,7.37,0,0,0,3.09.59,6.82,6.82,0,0,0,5.56-2.3q1.93-2.3,1.93-7V600h1.49v4.77a5.24,5.24,0,0,0,.16,1.26,3,3,0,0,0,.53,1.07,2.47,2.47,0,0,0,.92.73,2.93,2.93,0,0,0,1.35.28,2.82,2.82,0,0,0,2.22-.75,3.35,3.35,0,0,0,.64-2.24v-5.64h1.52v5.59a2.91,2.91,0,0,0,.25,1.23,2.76,2.76,0,0,0,.67,1,3,3,0,0,0,1,.62,3.26,3.26,0,0,0,1.21.23,3.06,3.06,0,0,0,2.29-.75,3.11,3.11,0,0,0,.72-2.24v-5.64h1.52v5a4.56,4.56,0,0,0,.68,2.61,2.36,2.36,0,0,0,2.1,1h1.22a.62.62,0,0,1,.3.05c.06,0,.1.13.1.3v.77a.32.32,0,0,1-.06.2.52.52,0,0,1-.34.07h-1.22a3.16,3.16,0,0,1-1.19-.21,3.1,3.1,0,0,1-.91-.56,2.86,2.86,0,0,1-.63-.8,4.06,4.06,0,0,1-.38-.92,3.7,3.7,0,0,1-1.53,1.93,4.52,4.52,0,0,1-2.4.63,4,4,0,0,1-3.78-2.28,3.45,3.45,0,0,1-1.45,1.72,4.32,4.32,0,0,1-2.25.56,4,4,0,0,1-2.12-.52,3.91,3.91,0,0,1-1.37-1.37,12.65,12.65,0,0,1-.88,2.94,8.3,8.3,0,0,1-1.65,2.46,7.93,7.93,0,0,1-2.55,1.71,9.31,9.31,0,0,1-3.6.63A7.41,7.41,0,0,1,935.27,612.77Z"/><path class="cls-3" d="M985,609a2.58,2.58,0,0,1-1.3-1.84,5,5,0,0,1-1.83,2.27,5.67,5.67,0,0,1-3.17.82,5.74,5.74,0,0,1-3.19-.82,4.74,4.74,0,0,1-1.81-2.27,2.65,2.65,0,0,1-1.32,1.84,5.41,5.41,0,0,1-2.46.5h-.6a.52.52,0,0,1-.34-.07.32.32,0,0,1-.06-.2v-.77c0-.17,0-.27.1-.3a.62.62,0,0,1,.3-.05h.6a3.07,3.07,0,0,0,2.37-1,4.32,4.32,0,0,0,.89-3,8,8,0,0,1,.36-2.48,5.53,5.53,0,0,1,1-1.93,4.78,4.78,0,0,1,1.73-1.26,6.49,6.49,0,0,1,4.75,0,4.7,4.7,0,0,1,1.73,1.26,5.39,5.39,0,0,1,1.06,1.93,8,8,0,0,1,.36,2.48,4.32,4.32,0,0,0,.88,3,3.07,3.07,0,0,0,2.38,1H988a.58.58,0,0,1,.3.05c.07,0,.1.13.1.3v.77a.32.32,0,0,1-.06.2s-.15.07-.34.07h-.59A5.5,5.5,0,0,1,985,609Zm-9.16-8.33a6.18,6.18,0,0,0,0,6.95,4.11,4.11,0,0,0,5.72,0,6.18,6.18,0,0,0,0-6.95,4.08,4.08,0,0,0-5.72,0Z"/><path class="cls-3" d="M992.61,591.76h1.49v17.78H988c-.18,0-.29,0-.33-.07a.32.32,0,0,1-.06-.2v-.77c0-.17,0-.27.1-.3a.56.56,0,0,1,.29-.05h4.58Z"/><path class="cls-3" d="M997.86,615.06V615a3.27,3.27,0,0,1-.35-.58,2,2,0,0,1,.29-2.1,1.58,1.58,0,0,1,1.3-.55,1.66,1.66,0,0,1,1.72,1.77h-.67a1.11,1.11,0,0,0-.29-.8,1,1,0,0,0-.76-.3,1,1,0,0,0-.76.31,1.39,1.39,0,0,0-.28,1,1.38,1.38,0,0,0,.37,1,1.13,1.13,0,0,0,.82.37h1.69v.67h-4.08v-.67Zm0-23.3h1.5v17.78h-1.5Z"/><path d="M1586.73,130.45h-7.85l-10.2-11.7h-6.35v11.7h-6.6v-35c5.55,0,11.1,0,16.65,0,8.25,0,12.6,5.55,12.6,11.6,0,4.8-2.2,9.65-8.85,11l10.6,12Zm-24.4-28.85v11.2h10.05c4.2,0,6-2.8,6-5.6s-1.85-5.6-6-5.6Z"/><path d="M1594.18,120.3c.4,3,3,5.25,7.35,5.25,2.25,0,5.2-.85,6.6-2.3l3.9,3.85c-2.6,2.7-6.85,4-10.6,4-8.5,0-13.55-5.25-13.55-13.15,0-7.5,5.1-12.9,13.1-12.9,8.25,0,13.4,5.1,12.45,15.25Zm13.4-5c-.4-3.2-2.9-4.8-6.4-4.8-3.3,0-6,1.6-6.9,4.8Z"/><path d="M1620.13,130.45V111.5h-4.6v-5.35h4.6V104.5c0-6.6,4.45-9.65,9.4-9.65a11.89,11.89,0,0,1,6.4,2l-2.25,4.55a6.8,6.8,0,0,0-3.75-1.3c-2.1,0-3.7,1.4-3.7,4.4v1.65h7.25v5.35h-7.25v18.95Z"/><path d="M1643.48,120.3c.4,3,3,5.25,7.35,5.25,2.25,0,5.2-.85,6.6-2.3l3.9,3.85c-2.6,2.7-6.85,4-10.6,4-8.5,0-13.55-5.25-13.55-13.15,0-7.5,5.1-12.9,13.1-12.9,8.25,0,13.4,5.1,12.45,15.25Zm13.4-5c-.4-3.2-2.9-4.8-6.4-4.8-3.3,0-6,1.6-6.9,4.8Z"/><path d="M1673.08,105.8l.45,2.85c1.9-3.05,4.45-3.5,7-3.5a9.35,9.35,0,0,1,6.35,2.35l-2.75,5.3a6.09,6.09,0,0,0-4.4-1.6c-3.2,0-6.15,1.7-6.15,6.25v13h-6.1V105.8Z"/><path d="M1694.33,120.3c.4,3,3.05,5.25,7.35,5.25,2.25,0,5.2-.85,6.6-2.3l3.9,3.85c-2.6,2.7-6.85,4-10.6,4-8.5,0-13.55-5.25-13.55-13.15,0-7.5,5.1-12.9,13.1-12.9,8.25,0,13.4,5.1,12.45,15.25Zm13.4-5c-.4-3.2-2.9-4.8-6.4-4.8-3.3,0-6,1.6-6.9,4.8Z"/><path d="M1736.43,130.45v-12.9c0-3.75-2-6.6-6-6.6-3.75,0-6.3,3.15-6.3,6.9v12.6h-6v-24.7h5.45l.4,3.35c2.5-2.45,5-3.7,8.1-3.7,5.8,0,10.45,4.35,10.45,12.1v12.95Z"/><path d="M1768.93,127.3a12.68,12.68,0,0,1-9.5,3.9c-7.15,0-13.1-4.3-13.1-13s6-13.05,13.1-13.05a11.71,11.71,0,0,1,8.9,3.65l-3.85,4a7.49,7.49,0,0,0-5-2,6.93,6.93,0,0,0-7.1,7.3c0,4.7,3.2,7.2,7,7.2a7.41,7.41,0,0,0,5.4-2Z"/><path d="M1776.83,120.3c.4,3,3.05,5.25,7.35,5.25,2.25,0,5.2-.85,6.6-2.3l3.9,3.85c-2.6,2.7-6.85,4-10.6,4-8.5,0-13.55-5.25-13.55-13.15,0-7.5,5.1-12.9,13.1-12.9,8.25,0,13.4,5.1,12.45,15.25Zm13.4-5c-.4-3.2-2.9-4.8-6.4-4.8-3.3,0-6,1.6-6.9,4.8Z"/><line class="cls-2" x1="227.87" y1="187.75" x2="269.42" y2="186.99"/><line class="cls-2" x1="328.28" y1="185.92" x2="369.83" y2="185.17"/><path class="cls-2" d="M269.42,187A15.72,15.72,0,0,1,291,172.13"/><path class="cls-2" d="M284.83,171a27,27,0,0,1,26.49-27.47"/><line class="cls-2" x1="1596.6" y1="452.12" x2="1612.43" y2="452.12"/></svg>