<svg id="Layer_1" data-name="Layer 1" xmlns="http://www.w3.org/2000/svg" viewBox="0 0 1920 1080"><defs><style>.cls-1{fill:none;stroke-width:2px;}.cls-1,.cls-2,.cls-4{stroke:#d1d2d3;stroke-linecap:round;stroke-linejoin:round;}.cls-2{fill:#fff;}.cls-3{fill:#d1d2d3;}.cls-4{fill:#f7b72e;stroke-width:0.75px;}</style></defs><line class="cls-1" x1="119.86" y1="242.74" x2="161.41" y2="242.74"/><path class="cls-1" d="M161.41,242.74a15.7,15.7,0,0,1,21.82-14.47"/><path class="cls-1" d="M177.12,227a27,27,0,0,1,27-27"/><line class="cls-1" x1="903.3" y1="125.43" x2="881.6" y2="125.43"/><path class="cls-1" d="M881.6,125.43a8.2,8.2,0,0,0-8.2-8.2,8.08,8.08,0,0,0-3.19.65"/><path class="cls-1" d="M873.4,117.23a14.09,14.09,0,0,0-14.09-14.09"/><line class="cls-1" x1="815.31" y1="125.43" x2="837.01" y2="125.43"/><path class="cls-1" d="M837,125.43a8.21,8.21,0,0,1,8.2-8.2,8.1,8.1,0,0,1,3.2.65"/><path class="cls-1" d="M845.21,117.23a14.09,14.09,0,0,1,14.1-14.09"/><path class="cls-1" d="M1530.64,1015.75a31.17,31.17,0,0,1-8.67-10.5v0a30.82,30.82,0,0,1-29.08,16.88"/><path class="cls-1" d="M1614.63,1020.7a31.08,31.08,0,0,1-37.24-15.46h0a31,31,0,0,1-36.51,15.68"/><path class="cls-1" d="M947.56,993A30.8,30.8,0,0,1,919.86,976h0A30.84,30.84,0,0,1,891.51,993"/><path class="cls-1" d="M1197,936.53a31.38,31.38,0,0,1-7.74-9.77h0a30.8,30.8,0,0,1-27.7,16.92"/><path class="cls-1" d="M1231.82,940a31.64,31.64,0,0,1-29.6.09"/><path class="cls-1" d="M1328.72,943.66a30.8,30.8,0,0,1-28.67-16.91h0a30.74,30.74,0,0,1-26.51,16.9"/><line class="cls-1" x1="401.3" y1="1013.7" x2="235.09" y2="1013.7"/><line class="cls-1" x1="436.42" y1="1013.7" x2="414.96" y2="1013.7"/><line class="cls-1" x1="639.53" y1="920.73" x2="473.51" y2="920.73"/><line class="cls-1" x1="691.42" y1="920.73" x2="660.7" y2="920.73"/><line class="cls-1" x1="719.48" y1="920.73" x2="703.7" y2="920.73"/><path class="cls-2" d="M716.42,965.28c3.33,2,5.19,4.28,5.19,6.64"/><path class="cls-2" d="M681.06,956.45c11.81,1.13,21.94,3.21,29.12,5.9"/><path class="cls-2" d="M650.93,955.72q4.77-.21,9.77-.21c3.21,0,6.37.06,9.46.19"/><path class="cls-2" d="M605.56,978.9c-3.7-2.11-5.77-4.48-5.77-7,0-6.95,16.05-12.9,38.72-15.29"/><path class="cls-2" d="M638.88,987.25c-13.06-1.35-24-3.88-30.9-7.1"/><path class="cls-2" d="M660.7,988.34c-5.1,0-10.05-.17-14.78-.49"/><path class="cls-2" d="M671.33,983c-3.4.24-7,.37-10.63.37"/><path class="cls-2" d="M697.45,966.2c3.61,1.69,5.67,3.64,5.67,5.72,0,4.24-8.54,7.93-21.24,9.91"/><path class="cls-2" d="M691.78,964.14c1,.3,2,.61,2.9.93"/><path class="cls-2" d="M635.9,962.64c.94-.18,1.92-.35,2.92-.52"/><path class="cls-2" d="M618.27,971.92c0-3.61,6.23-6.84,15.94-8.93"/><path class="cls-2" d="M660.7,979.89c-16.32,0-29.55-3.57-29.55-8s13.23-8,29.55-8"/><path class="cls-3" d="M674.47,906.76H646.92l-4.08,55.59h35.71ZM658.54,931l-11.1,20.68,2.67-36.38Zm-6.67-20.45h17.66L660.7,927ZM660.7,935l12.63,23.52H648.07Zm2.15-4,8.44-15.7L674,951.69Z"/><rect class="cls-3" x="652.54" y="889.86" width="16.32" height="7.77"/><rect class="cls-4" x="650.21" y="882.09" width="20.97" height="7.77" rx="1.34"/><path class="cls-4" d="M642.31,961.27h36.58a1.46,1.46,0,0,1,1.46,1.46v9.19a0,0,0,0,1,0,0h-39.5a0,0,0,0,1,0,0v-9.19A1.46,1.46,0,0,1,642.31,961.27Z"/><rect class="cls-4" x="645.7" y="897.55" width="29.8" height="10.08" rx="1.06"/><line class="cls-2" x1="638.09" y1="971.92" x2="683.69" y2="971.92"/></svg>