<svg xmlns="http://www.w3.org/2000/svg" xmlns:xlink="http://www.w3.org/1999/xlink" viewBox="0 0 1693.24 709.11"><defs><style>.cls-1,.cls-2{fill:none;}.cls-2,.cls-3,.cls-4,.cls-6,.cls-8{stroke:#d1d2d3;}.cls-10,.cls-2,.cls-3,.cls-4,.cls-6,.cls-8,.cls-9{stroke-linecap:round;stroke-linejoin:round;}.cls-10,.cls-2,.cls-3,.cls-8,.cls-9{stroke-width:2px;}.cls-10,.cls-3,.cls-4{fill:#fff;}.cls-5{fill:#d1d2d3;}.cls-6,.cls-8,.cls-9{fill:#f7b72e;}.cls-6{stroke-width:0.75px;}.cls-7{clip-path:url(#clip-path);}.cls-10,.cls-9{stroke:gray;}</style><clipPath id="clip-path" transform="translate(-390.45 -241.14)"><rect class="cls-1" width="1920" height="1080"/></clipPath></defs><g id="Layer_2" data-name="Layer 2"><g id="Layer_1-2" data-name="Layer 1"><path class="cls-2" d="M1687,942.82a31.17,31.17,0,0,1-8.67-10.5v0a30.85,30.85,0,0,1-29.08,16.89" transform="translate(-390.45 -241.14)"/><path class="cls-2" d="M1771,947.77a31.06,31.06,0,0,1-37.24-15.45v0A31,31,0,0,1,1697.22,948" transform="translate(-390.45 -241.14)"/><path class="cls-2" d="M1103.92,920a30.8,30.8,0,0,1-27.7-16.92h0A30.81,30.81,0,0,1,1047.87,920" transform="translate(-390.45 -241.14)"/><path class="cls-2" d="M795.89,760.81a30.8,30.8,0,0,1-27.7-16.92h0a30.81,30.81,0,0,1-28.35,16.91" transform="translate(-390.45 -241.14)"/><path class="cls-3" d="M1276.37,781.55a30.79,30.79,0,0,1-27.7-16.93h0v0c-11.57,22.56-43.82,22.56-55.39,0v0h0a30.8,30.8,0,0,1-27.7,16.92" transform="translate(-390.45 -241.14)"/><path class="cls-2" d="M1353.34,863.6a31.26,31.26,0,0,1-7.74-9.77h0a30.8,30.8,0,0,1-27.7,16.92" transform="translate(-390.45 -241.14)"/><path class="cls-2" d="M1388.18,867a31.64,31.64,0,0,1-29.6.09" transform="translate(-390.45 -241.14)"/><path class="cls-2" d="M1485.08,870.73a30.78,30.78,0,0,1-28.67-16.91h0a30.78,30.78,0,0,1-26.51,16.9" transform="translate(-390.45 -241.14)"/><path class="cls-3" d="M1732.72,781.51a30.83,30.83,0,0,1-29-16.89h0c-11.57,22.57-43.82,22.57-55.4,0h0a30.81,30.81,0,0,1-29,16.9" transform="translate(-390.45 -241.14)"/><line class="cls-2" x1="704.12" y1="43.69" x2="745.67" y2="43.69"/><line class="cls-2" x1="804.54" y1="43.69" x2="846.1" y2="43.69"/><path class="cls-2" d="M1136.12,284.82a15.72,15.72,0,0,1,21.82-14.47" transform="translate(-390.45 -241.14)"/><path class="cls-2" d="M1151.82,269.12a27,27,0,0,1,27-27" transform="translate(-390.45 -241.14)"/><line class="cls-2" x1="167.22" y1="699.64" x2="1" y2="699.64"/><line class="cls-2" x1="202.33" y1="699.64" x2="180.87" y2="699.64"/><line class="cls-2" x1="405.44" y1="606.66" x2="239.43" y2="606.66"/><line class="cls-2" x1="457.33" y1="606.66" x2="426.61" y2="606.66"/><line class="cls-2" x1="485.39" y1="606.66" x2="469.62" y2="606.66"/><line class="cls-2" x1="1386.31" y1="572.32" x2="1402.91" y2="572.32"/><line class="cls-2" x1="1309.78" y1="572.32" x2="1380.54" y2="572.32"/><path class="cls-4" d="M872.78,892.35c3.33,2,5.19,4.28,5.19,6.64" transform="translate(-390.45 -241.14)"/><path class="cls-4" d="M837.43,883.52c11.8,1.13,21.93,3.21,29.11,5.9" transform="translate(-390.45 -241.14)"/><path class="cls-4" d="M807.29,882.79q4.77-.21,9.77-.21c3.21,0,6.37.07,9.46.2" transform="translate(-390.45 -241.14)"/><path class="cls-4" d="M761.92,906c-3.7-2.12-5.77-4.49-5.77-7,0-7,16.05-12.9,38.72-15.29" transform="translate(-390.45 -241.14)"/><path class="cls-4" d="M795.24,914.32c-13.06-1.35-24-3.88-30.9-7.1" transform="translate(-390.45 -241.14)"/><path class="cls-4" d="M817.06,915.41c-5.1,0-10-.17-14.78-.49" transform="translate(-390.45 -241.14)"/><path class="cls-4" d="M827.69,910.07c-3.4.23-7,.36-10.63.36" transform="translate(-390.45 -241.14)"/><path class="cls-4" d="M853.81,893.28c3.61,1.68,5.67,3.63,5.67,5.71,0,4.24-8.54,7.94-21.24,9.91" transform="translate(-390.45 -241.14)"/><path class="cls-4" d="M848.14,891.21c1,.3,2,.61,2.9.94" transform="translate(-390.45 -241.14)"/><path class="cls-4" d="M792.26,889.72c.94-.19,1.92-.36,2.92-.52" transform="translate(-390.45 -241.14)"/><path class="cls-4" d="M774.63,899c0-3.61,6.23-6.83,15.94-8.93" transform="translate(-390.45 -241.14)"/><path class="cls-4" d="M817.06,907c-16.32,0-29.55-3.57-29.55-8s13.23-8,29.55-8" transform="translate(-390.45 -241.14)"/><path class="cls-5" d="M830.83,833.83H803.28l-4.08,55.59h35.71ZM814.9,858.09l-11.1,20.67,2.67-36.38Zm-6.67-20.46h17.66l-8.83,16.44Zm8.83,24.47,12.63,23.52H804.43Zm2.15-4,8.44-15.71,2.67,36.38Z" transform="translate(-390.45 -241.14)"/><rect class="cls-5" x="418.45" y="575.8" width="16.32" height="7.77"/><rect class="cls-6" x="416.13" y="568.03" width="20.97" height="7.77" rx="1.34"/><path class="cls-6" d="M408.23,647.21H444.8a1.46,1.46,0,0,1,1.46,1.46v9.19a0,0,0,0,1,0,0h-39.5a0,0,0,0,1,0,0v-9.19A1.46,1.46,0,0,1,408.23,647.21Z"/><rect class="cls-6" x="411.62" y="583.49" width="29.8" height="10.08" rx="1.06"/><line class="cls-4" x1="404" y1="657.86" x2="449.6" y2="657.86"/><g class="cls-7"><path class="cls-3" d="M1254.89,577.1s-6.28,39.9-24.43,40.62S1099,618,1099,618a19.44,19.44,0,0,1-9.94-7.35c-3.89-5.71-13.19-31.36-13.19-31.36Z" transform="translate(-390.45 -241.14)"/><path class="cls-3" d="M1717.83,550.86c.35-7.93,6.25-14.25,13.57-14.25H1787c7.31,0,13.21,6.32,13.56,14.25Z" transform="translate(-390.45 -241.14)"/><polygon class="cls-3" points="1471.56 89.05 1467.83 89.05 1467.83 81.17 1472.28 81.17 1472.28 65.78 1476.53 65.78 1476.53 81.17 1480.96 81.17 1480.96 89.05 1477.23 89.05 1477.23 175.08 1471.56 175.08 1471.56 89.05"/><rect class="cls-3" x="1468.55" y="190.05" width="11.7" height="276.51"/><polygon class="cls-8" points="1463.35 189.86 1457.71 176.16 1471.56 176.16 1471.56 175.08 1477.23 175.08 1477.23 176.16 1491.09 176.16 1485.45 189.86 1480.25 189.86 1480.25 190.05 1468.55 190.05 1468.55 189.86 1463.35 189.86"/><polygon class="cls-3" points="919.63 172.5 915.9 172.5 915.9 165.66 920.33 165.66 920.33 152.31 924.58 152.31 924.58 165.66 929.02 165.66 929.02 172.5 925.29 172.5 925.29 247.13 919.63 247.13 919.63 172.5"/><rect class="cls-3" x="916.61" y="260.11" width="11.7" height="239.88"/><polygon class="cls-8" points="911.41 259.95 905.76 248.07 919.63 248.07 919.63 247.13 925.29 247.13 925.29 248.07 939.15 248.07 933.5 259.95 928.31 259.95 928.31 260.11 916.61 260.11 916.61 259.95 911.41 259.95"/><path class="cls-3" d="M1501.57,514s.65-1.44,5.63-2.14,61-9.74,61-9.74l5.28,30.31h-76.71Z" transform="translate(-390.45 -241.14)"/><polygon class="cls-3" points="1106.28 291.34 1182.99 291.34 1186.31 310.41 1101.26 310.41 1106.28 291.34"/><polygon class="cls-3" points="1186.31 310.41 1193.27 350.36 1090.81 350.11 1101.26 310.41 1186.31 310.41"/><path class="cls-3" d="M1025.74,630.93a5.25,5.25,0,0,0,5,5.46h46.91v48.15l4.54.12V636.39h62.08l0,.31L1115.71,685l666-3.62V536.61H1631.51v50.13H1478.68V592h-43.46v33.51h-80.87V594.82h-87.12V625.7H1148.74v-.23h-118A5.24,5.24,0,0,0,1025.74,630.93Zm719.45-36.59h26.16v20.43h-26.16Zm-37.19.48h28.12v19.72H1708Zm-7.78-39.67h70.91v20.42h-70.91Zm-28.74,39.91h26.8v19.48h-26.8Zm-6.07-39h22.93v18.78h-22.93Zm-25.71,39h22.69v20.66H1639.7Zm-.66-38.72h19v18.77h-19Z" transform="translate(-390.45 -241.14)"/><path class="cls-9" d="M1021.52,720l-10.19-37.33,66.29,1.9,4.54.12,16.36.47,17.19-.1,666-3.62h.72l166.46-12.46s27.18-3.8,32.37-7.59c10.78-7.91,7.13-14.74,20.1-15.69,1.61-.12,4.07-.32,7.14-.59l19.89-1.82c24.06-2.24,54.26-5.18,54.26-5.18l-80.18,114.28H1033C1025.39,737.43,1021.52,720,1021.52,720Z" transform="translate(-390.45 -241.14)"/><path class="cls-10" d="M2002.51,752.35,1989.7,770.6s-911.18,2.49-933.83,2.49c-9.65,0-17.3-9.68-22.92-20.74Z" transform="translate(-390.45 -241.14)"/><path class="cls-5" d="M1171.38,663.56c0,5.5,4,10,9,10s9.06-4.45,9.06-10-4.06-9.95-9.06-9.95S1171.38,658.06,1171.38,663.56Z" transform="translate(-390.45 -241.14)"/><path class="cls-5" d="M1234.79,663.56c0,5.5,4,10,9,10s9.06-4.45,9.06-10-4.06-9.95-9.06-9.95S1234.79,658.06,1234.79,663.56Z" transform="translate(-390.45 -241.14)"/><path class="cls-5" d="M1298.19,663.56c0,5.5,4.08,10,9.07,10s9.06-4.45,9.06-10-4.06-9.95-9.06-9.95S1298.19,658.06,1298.19,663.56Z" transform="translate(-390.45 -241.14)"/><rect class="cls-5" x="1357.68" y="415.8" width="24.16" height="13.27"/><rect class="cls-5" x="1274.65" y="415.8" width="24.15" height="13.27"/><rect class="cls-5" x="1191.61" y="415.8" width="24.16" height="13.27"/><rect class="cls-5" x="1108.58" y="415.8" width="24.15" height="13.27"/><rect class="cls-5" x="1025.55" y="415.8" width="24.15" height="13.27"/><rect class="cls-5" x="1115.38" y="360.2" width="63.4" height="13.27"/><rect class="cls-5" x="885.9" y="360.2" width="63.4" height="13.27"/><path class="cls-10" d="M2008.73,674.39c0,5,3.66,9,8.18,9s8.19-4,8.19-9-3.66-9-8.19-9S2008.73,669.41,2008.73,674.39Z" transform="translate(-390.45 -241.14)"/><path class="cls-3" d="M1820.8,701.54c0,4.45,3.28,8.05,7.33,8.05s7.31-3.6,7.31-8.05-3.28-8-7.31-8S1820.8,697.1,1820.8,701.54Z" transform="translate(-390.45 -241.14)"/><path class="cls-3" d="M1793.36,701.54c0,4.45,3.28,8.05,7.32,8.05s7.32-3.6,7.32-8.05-3.28-8-7.32-8S1793.36,697.1,1793.36,701.54Z" transform="translate(-390.45 -241.14)"/><rect class="cls-8" x="1467.83" y="81.17" width="13.13" height="7.89"/><rect class="cls-8" x="915.9" y="165.65" width="13.12" height="6.85"/></g></g></g></svg>