<svg xmlns="http://www.w3.org/2000/svg" viewBox="0 0 34.39 11.09"><defs><style>.cls-1{fill:#1d1d1b;}</style></defs><g id="Layer_2" data-name="Layer 2"><g id="Layer_1-2" data-name="Layer 1"><path class="cls-1" d="M23.3,11.09c-3.15-.1-6.31-.2-9.46-.33a3.17,3.17,0,0,1-1.13-.27,1.26,1.26,0,0,1-.59-2,4.49,4.49,0,0,1,1.12-1,7.45,7.45,0,0,0,2.51-2.75,1.34,1.34,0,0,0,.12-.24c.44-.94.13-1.52-.93-1.61a14.09,14.09,0,0,0-1.59,0L7,3a3,3,0,0,1-.42,0,1.05,1.05,0,0,1-1-.74A1.16,1.16,0,0,1,6.08.92,2.73,2.73,0,0,1,7.33.53c2.05,0,4.1,0,6.15,0l4.3,0a4.43,4.43,0,0,1,2.42.52,2.64,2.64,0,0,1,.35.23,1.28,1.28,0,0,1,.28,2.08c-.45.56-1,1.06-1.47,1.6a5.77,5.77,0,0,0-.6.78,1.37,1.37,0,0,0,.65,2.08,3,3,0,0,0,1.82.19c3.16-.45,6.32-.93,9.48-1.37a7.74,7.74,0,0,1,2,0,1.48,1.48,0,0,1,1.33,2,8.13,8.13,0,0,1-.55,1.57,1.07,1.07,0,0,1-1,.65L26.84,11c-1.18,0-2.36,0-3.54,0v.09"/><path class="cls-1" d="M2.91,9.52A4,4,0,0,1,.45,8.67.94.94,0,0,1,.62,7a5.88,5.88,0,0,1,1.77-.37c1-.08,1.95-.06,2.92-.14A11.94,11.94,0,0,0,10.06,5a5.21,5.21,0,0,1,2.07-.54c.31,0,.44.09.39.42a2.57,2.57,0,0,1-1.28,1.81A9.43,9.43,0,0,1,7.6,8.12a13.18,13.18,0,0,0-3.12.93,13.77,13.77,0,0,1-1.57.47"/><path class="cls-1" d="M30.64,3.16a8.42,8.42,0,0,0-3.38.38A11,11,0,0,0,26,4.17a1.74,1.74,0,0,1-1.35.23,1.23,1.23,0,0,1-1-1.13,1.09,1.09,0,0,1,.82-1.14,7.32,7.32,0,0,1,.92-.24,5.38,5.38,0,0,0,2.3-1A4.91,4.91,0,0,1,31.16,0,11.52,11.52,0,0,1,33,.29a2.76,2.76,0,0,1,.85.4,1,1,0,0,1,.23,1.62,2.42,2.42,0,0,1-1.88.84c-.52,0-1,0-1.56,0"/></g></g></svg>