<svg xmlns="http://www.w3.org/2000/svg" viewBox="0 0 115.63 51.93"><defs><style>.cls-1{fill:#1d1d1b;}</style></defs><g id="Layer_2" data-name="Layer 2"><g id="Layer_1-2" data-name="Layer 1"><path class="cls-1" d="M64.83,14c-4-.13-8-.25-11.93-.41a4.22,4.22,0,0,1-1.44-.35,1.58,1.58,0,0,1-.73-2.55,5.53,5.53,0,0,1,1.41-1.27,9.43,9.43,0,0,0,3.17-3.47l.15-.3c.55-1.19.15-1.91-1.18-2a19.09,19.09,0,0,0-2,0l-8.06.13a3.05,3.05,0,0,1-.52,0,1.33,1.33,0,0,1-1.27-.93,1.5,1.5,0,0,1,.67-1.62A3.51,3.51,0,0,1,44.67.67c2.59,0,5.18,0,7.77,0,1.81,0,3.62,0,5.42.05a5.71,5.71,0,0,1,3.06.65l.44.29a1.62,1.62,0,0,1,.35,2.63c-.57.71-1.24,1.34-1.85,2a6.67,6.67,0,0,0-.76,1A1.72,1.72,0,0,0,59.92,10a3.8,3.8,0,0,0,2.3.25c4-.57,8-1.18,12-1.74a10.05,10.05,0,0,1,2.57,0,1.88,1.88,0,0,1,1.68,2.46,11.11,11.11,0,0,1-.7,2,1.35,1.35,0,0,1-1.3.82c-2.38.06-4.76.14-7.14.19-1.49,0-3,0-4.46,0V14"/><path class="cls-1" d="M84.34,25.63V39.16h-2.8V27.78c-.06.17-.1.29-.13.41q-1.53,5.31-3,10.64a.43.43,0,0,1-.51.37c-.57,0-1.15,0-1.72,0-.32,0-.44-.09-.52-.4-.88-3.45-1.79-6.9-2.69-10.34L72.79,28V39.16H70.18V25.67h4.43c.86,3.19,1.72,6.41,2.56,9.52.91-3,1.86-6,2.78-9.07a.6.6,0,0,1,.7-.5c1.22,0,2.43,0,3.69,0"/><path class="cls-1" d="M0,25.63H1.9c1.66,0,3.33,0,5,.07A4.3,4.3,0,0,1,8.1,26a3.07,3.07,0,0,1,2.32,2.59A3.19,3.19,0,0,1,8.89,32a1.42,1.42,0,0,0,.21.17c2.46,1.31,2.11,4.58.42,5.94a5.38,5.38,0,0,1-3.45,1.09c-1.87,0-3.74,0-5.61,0-.3,0-.46,0-.46-.41Q0,32.39,0,26c0-.09,0-.18,0-.35M3,36.85H6.11a1.8,1.8,0,0,0,.61-.13A1.6,1.6,0,0,0,7.82,35a1.44,1.44,0,0,0-1.16-1.55c-1.22-.16-2.46-.17-3.7-.24Zm0-6c1.15,0,2.26.07,3.37,0a1.34,1.34,0,0,0,1.23-1.46A1.31,1.31,0,0,0,6.36,28c-1.12-.08-2.25,0-3.4,0Z"/><path class="cls-1" d="M52.21,25.65h2.85v5.91l.33-.29C57,29.5,58.57,27.72,60.17,26a1.11,1.11,0,0,1,.68-.32c1,0,2,0,3.15,0l-5.45,5.63c1.87,2.61,3.73,5.22,5.66,7.94H62.75a5,5,0,0,1-2.07-.11c-.55-.28-.83-1.06-1.22-1.62l-2.63-3.78-.33-.46-.15.1a2.81,2.81,0,0,0-1.28,3,27.21,27.21,0,0,1,0,2.86H52.21Z"/><path class="cls-1" d="M103.29,29.35h-2.92s-.05,0-.06-.07a2.44,2.44,0,0,0-3.4-1.46A1.3,1.3,0,0,0,96.09,29a1.14,1.14,0,0,0,.72,1.2c.67.26,1.37.43,2,.67a27.43,27.43,0,0,1,3,1.1c2.59,1.28,2.33,5.14.1,6.51a7.8,7.8,0,0,1-7.5-.14,4.25,4.25,0,0,1-1.78-3.13h2.93a3,3,0,0,0,4,1.78,1.52,1.52,0,0,0,.29-2.83c-.68-.29-1.42-.47-2.12-.72a22.52,22.52,0,0,1-2.91-1.08c-2.47-1.28-2.12-5,.11-6.18a6.8,6.8,0,0,1,6.41,0,3.8,3.8,0,0,1,2,3.16"/><path class="cls-1" d="M36.91,39.19c-1,0-1.9,0-2.84,0-.12,0-.3-.21-.35-.36-.31-.8-.58-1.62-.89-2.43-.06-.13-.25-.31-.37-.31-1.54,0-3.07,0-4.63,0-.31.91-.62,1.8-.9,2.7a.53.53,0,0,1-.6.45c-.79,0-1.59,0-2.48,0,.12-.35.21-.64.31-.94,1.38-4.07,2.77-8.13,4.14-12.21a.53.53,0,0,1,.61-.43c1,0,1.92,0,2.88,0a.6.6,0,0,1,.45.29q2.35,6.56,4.67,13.13s0,0,0,.13m-4.85-5.57c-.62-1.92-1.23-3.77-1.86-5.7l-1.72,5.7Z"/><path class="cls-1" d="M49.93,35a5,5,0,0,1-1.5,2.87A5.92,5.92,0,0,1,44,39.38a5.7,5.7,0,0,1-5.29-2.88c-1.64-2.85-1.15-7.21,1.06-9.38a6.32,6.32,0,0,1,5.28-1.64,5.09,5.09,0,0,1,4.11,2.3,16.37,16.37,0,0,1,.91,2.07c-1.11,0-2,0-3,0-.08,0-.19-.14-.23-.25a2.57,2.57,0,0,0-2.41-1.81,2.8,2.8,0,0,0-3,1.56,6.8,6.8,0,0,0,0,6.15,2.82,2.82,0,0,0,3,1.55,2.56,2.56,0,0,0,2.37-1.73c0-.13.22-.31.34-.31.89,0,1.79,0,2.73,0"/><path class="cls-1" d="M108.6,28.09h-4.09V25.66h11.12v2.41h-4.09V39.2c-.92,0-1.8,0-2.67,0-.09,0-.24-.18-.26-.29,0-.31,0-.64,0-1V28.09Z"/><path class="cls-1" d="M16.05,36.75H22.8c-.11.77-.19,1.5-.32,2.22,0,.1-.25.21-.38.22-.83,0-1.66,0-2.5,0H13.14V25.67h2.91Z"/><path class="cls-1" d="M39.11,12A5.05,5.05,0,0,1,36,10.94a1.19,1.19,0,0,1,.23-2.13,7.51,7.51,0,0,1,2.23-.47c1.22-.11,2.46-.08,3.68-.17a15.27,15.27,0,0,0,6-1.92,6.33,6.33,0,0,1,2.62-.68c.39,0,.55.11.48.53a3.26,3.26,0,0,1-1.61,2.28A12.12,12.12,0,0,1,45,10.24a16.48,16.48,0,0,0-3.93,1.18,16.94,16.94,0,0,1-2,.59"/><path class="cls-1" d="M74.09,4a10.94,10.94,0,0,0-4.26.48,12.36,12.36,0,0,0-1.63.81,2.22,2.22,0,0,1-1.7.28,1.56,1.56,0,0,1-1.22-1.43,1.38,1.38,0,0,1,1-1.44,9.37,9.37,0,0,1,1.16-.29,6.79,6.79,0,0,0,2.91-1.3A6.17,6.17,0,0,1,74.74,0a13,13,0,0,1,2.32.35,3.17,3.17,0,0,1,1.07.5,1.27,1.27,0,0,1,.3,2.05A3.13,3.13,0,0,1,76.05,4c-.65,0-1.31,0-2,0"/><rect class="cls-1" x="87.56" y="25.66" width="2.88" height="13.51"/><rect class="cls-1" x="77.18" y="48.78" width="38.44" height="0.78"/><rect class="cls-1" x="0.03" y="48.78" width="35.43" height="0.78"/><path class="cls-1" d="M46.69,45.53a6.05,6.05,0,0,1-.86,0,.5.5,0,0,1-.36-.27,2,2,0,0,0-2.86-.78,1.1,1.1,0,0,0,0,1.85,7.72,7.72,0,0,0,1.34.51,16.39,16.39,0,0,1,1.7.62,2,2,0,0,1,1.21,2.07,2.18,2.18,0,0,1-1.4,2.06,4.21,4.21,0,0,1-3.32,0,2.56,2.56,0,0,1-1.57-2.17,5,5,0,0,0,.56,0,.66.66,0,0,1,.8.5,2.31,2.31,0,0,0,3.36.61,1.33,1.33,0,0,0-.18-2,9.91,9.91,0,0,0-1.54-.62A16.26,16.26,0,0,1,42,47.3a2.09,2.09,0,0,1-.13-3.6,3.89,3.89,0,0,1,3.8.07,2.36,2.36,0,0,1,1,1.76"/><path class="cls-1" d="M63.77,51.77h-1c0-.19-.07-.39-.11-.64a2.27,2.27,0,0,1-1.59.79,2.37,2.37,0,0,1-2.56-1.59A4.22,4.22,0,0,1,58.63,47a2.61,2.61,0,0,1,4-.89V42.93h1.11Zm-1-3c0-.37,0-.62-.07-.88a1.39,1.39,0,0,0-1.27-1.43,1.59,1.59,0,0,0-1.83,1.05,3.42,3.42,0,0,0,0,2.48,1.5,1.5,0,0,0,1.52,1,1.43,1.43,0,0,0,1.48-1.17,9.26,9.26,0,0,0,.17-1.07"/><path class="cls-1" d="M67.94,48.69c0-2.2,1.6-3.57,3.62-3.12a2.41,2.41,0,0,1,1.72,1.33,4,4,0,0,1,.15,3.26,2.81,2.81,0,0,1-5.36-.47c-.07-.33-.09-.67-.13-1m4.7,0a9.52,9.52,0,0,0-.37-1.32,1.6,1.6,0,0,0-2.85-.11,3.09,3.09,0,0,0,0,2.91,1.49,1.49,0,0,0,1.49.85,1.48,1.48,0,0,0,1.39-1,10.19,10.19,0,0,0,.32-1.32"/><path class="cls-1" d="M56.87,51.77h-1c0-.21-.07-.41-.11-.68a2.16,2.16,0,0,1-2.13.81A1.68,1.68,0,0,1,52,50.45a14.22,14.22,0,0,1-.1-2c0-.93,0-1.85,0-2.82H53v1.59c0,.83,0,1.67,0,2.5a1.11,1.11,0,0,0,1,1.19A1.3,1.3,0,0,0,55.65,50a5.21,5.21,0,0,0,.14-1.18c0-1,0-2.11,0-3.19h1.08Z"/><path class="cls-1" d="M51,45.62v.89H49.65v2.78c0,.3,0,.61,0,.91,0,.59.21.76.79.76h.4v.83c-.27,0-.53.07-.8.08-1,0-1.47-.41-1.48-1.44s0-2.23,0-3.35v-.53h-1v-.9h1V43.87h1.08v1.75Z"/><rect class="cls-1" x="65.59" y="45.66" width="1.02" height="6.11"/><rect class="cls-1" x="65.6" y="42.92" width="1.02" height="1.29"/></g></g></svg>